<svg viewBox="0 0 16 16" fill="none" xmlns="http://www.w3.org/2000/svg">
<path id="icon" d="M8.5 5.5C8.5 5.10217 8.65803 4.72064 8.93934 4.43934C9.22064 4.15803 9.60217 4 10 4H10.05C10.1739 4.60702 10.5188 5.14641 11.0178 5.5136C11.5168 5.88078 12.1344 6.04961 12.7508 5.98734C13.3672 5.92507 13.9385 5.63614 14.354 5.17657C14.7694 4.71701 14.9995 4.11954 14.9995 3.5C14.9995 2.88046 14.7694 2.28299 14.354 1.82342C13.9385 1.36385 13.3672 1.07493 12.7508 1.01266C12.1344 0.950389 11.5168 1.11921 11.0178 1.4864C10.5188 1.85359 10.1739 2.39298 10.05 3H10C9.33696 3 8.70107 3.26339 8.23223 3.73223C7.76339 4.20107 7.5 4.83696 7.5 5.5V6H6.5C6.10217 6 5.72064 5.84196 5.43934 5.56066C5.15803 5.27935 5 4.89782 5 4.5V3.5C5 2.83696 4.73661 2.20107 4.26777 1.73223C3.79892 1.26339 3.16304 0.999998 2.5 0.999998H2V2H2.5C2.89782 2 3.27935 2.15803 3.56066 2.43934C3.84196 2.72064 4 3.10217 4 3.5V4.5C4 5.16304 4.26339 5.79892 4.73223 6.26777C5.20107 6.73661 5.83696 7 6.5 7H7.5V10.5C7.5 10.8978 7.34196 11.2794 7.06066 11.5607C6.77936 11.842 6.39782 12 6 12H5.95C5.82609 11.393 5.4812 10.8536 4.9822 10.4864C4.4832 10.1192 3.86564 9.95039 3.24924 10.0127C2.63284 10.0749 2.06151 10.3639 1.64603 10.8234C1.23055 11.283 1.00051 11.8805 1.00051 12.5C1.00051 13.1195 1.23055 13.717 1.64603 14.1766C2.06151 14.6361 2.63284 14.9251 3.24924 14.9873C3.86564 15.0496 4.4832 14.8808 4.9822 14.5136C5.4812 14.1464 5.82609 13.607 5.95 13H6C6.66304 13 7.29892 12.7366 7.76777 12.2678C8.23661 11.7989 8.5 11.163 8.5 10.5H9.75C10.0815 10.5 10.3995 10.6317 10.6339 10.8661C10.8683 11.1005 11 11.4185 11 11.75C11.0013 12.3463 11.2388 12.9179 11.6605 13.3395C12.0821 13.7612 12.6537 13.9987 13.25 14H14V13H13.25C12.9185 13 12.6005 12.8683 12.3661 12.6339C12.1317 12.3995 12 12.0815 12 11.75C11.9987 11.1537 11.7612 10.5821 11.3395 10.1605C10.9179 9.7388 10.3463 9.50132 9.75 9.5H8.5V5.5ZM12.5 2C12.7967 2 13.0867 2.08797 13.3334 2.25279C13.58 2.41762 13.7723 2.65188 13.8858 2.92597C13.9993 3.20006 14.0291 3.50166 13.9712 3.79263C13.9133 4.08361 13.7704 4.35088 13.5607 4.56066C13.3509 4.77044 13.0836 4.9133 12.7926 4.97118C12.5017 5.02905 12.2001 4.99935 11.926 4.88582C11.6519 4.77229 11.4176 4.58003 11.2528 4.33335C11.088 4.08668 11 3.79667 11 3.5C11 3.10217 11.158 2.72064 11.4393 2.43934C11.7206 2.15803 12.1022 2 12.5 2ZM3.5 14C3.20333 14 2.91332 13.912 2.66664 13.7472C2.41997 13.5824 2.22771 13.3481 2.11418 13.074C2.00065 12.7999 1.97094 12.4983 2.02882 12.2074C2.0867 11.9164 2.22956 11.6491 2.43934 11.4393C2.64912 11.2296 2.91639 11.0867 3.20736 11.0288C3.49834 10.9709 3.79994 11.0006 4.07402 11.1142C4.34811 11.2277 4.58238 11.42 4.7472 11.6666C4.91203 11.9133 5 12.2033 5 12.5C5 12.8978 4.84196 13.2794 4.56066 13.5607C4.27935 13.842 3.89782 14 3.5 14Z" fill="currentColor" style="fill-opacity:1"/>
</svg>
