<svg viewBox="0 0 16 16" fill="none" xmlns="http://www.w3.org/2000/svg">
<path id="icon" d="M14.988 7.8916L13.988 3.3916C13.9601 3.26572 13.8846 3.1555 13.7773 3.084L10.7773 1.084C10.6952 1.02926 10.5987 1.00003 10.5 1H5.5C5.40129 1.00003 5.30479 1.02926 5.22265 1.084L2.22265 3.084C2.11535 3.1555 2.03986 3.26572 2.01195 3.3916L1.01195 7.8916C0.993436 7.97498 0.996551 8.06171 1.021 8.14355L2.521 13.1435C2.54476 13.2229 2.58786 13.295 2.64641 13.3536C2.70496 13.4121 2.77713 13.4552 2.85645 13.479L7.85645 14.979L7.859 14.9792C7.95096 15.0069 8.04903 15.0069 8.141 14.9792L8.14355 14.979L13.1435 13.479C13.2229 13.4552 13.295 13.4121 13.3536 13.3536C13.4121 13.295 13.4552 13.2229 13.479 13.1435L14.979 8.14355C15.0034 8.06171 15.0066 7.97498 14.988 7.8916ZM5.46305 8.3081L3.5084 4.3987L7.14915 5.72265L5.46305 8.3081ZM8 6.24855L9.79445 9H6.20555L8 6.24855ZM9.6909 10L8 13.3819L6.3091 10H9.6909ZM8.8509 5.72265L12.4916 4.3987L10.5366 8.3081L8.8509 5.72265ZM9.095 4.57L10.643 2.1965L12.4006 3.3681L9.095 4.57ZM8 4.4182L6.42295 2H9.57705L8 4.4182ZM6.905 4.5698L3.5996 3.3679L5.3572 2.1963L6.905 4.5698ZM4.48305 8.5848L2.08205 7.68445L2.6826 4.9834L4.48305 8.5848ZM7.035 13.6885L3.78395 12.7132L5.34815 10.3147L7.035 13.6885ZM10.6517 10.3147L12.2159 12.7132L8.965 13.6885L10.6517 10.3147ZM13.3174 4.9834L13.9177 7.68435L11.5167 8.5847L13.3174 4.9834ZM2.2687 8.82225L4.5659 9.6836L3.16955 11.825L2.2687 8.82225ZM12.8304 11.825L11.4341 9.68365L13.7313 8.8223L12.8304 11.825Z" fill="currentColor" style="fill-opacity:1"/>
</svg>
