<svg viewBox="0 0 16 16" fill="none" xmlns="http://www.w3.org/2000/svg">
<path d="M10.745 6.55755L6.24501 4.05755C6.169 4.01367 6.08277 3.99056 5.99501 3.99056C5.90724 3.99056 5.82102 4.01367 5.74501 4.05755L1.24501 6.55755C1.1688 6.60317 1.106 6.66811 1.06298 6.74581C1.01995 6.82351 0.998228 6.9112 1.00001 7V11.9976C1.00065 12.0866 1.0251 12.174 1.07081 12.2504C1.11652 12.3269 1.18184 12.3898 1.26001 12.4326L5.76001 14.9326C5.83307 14.9748 5.91561 14.998 6.00001 15C6.08595 14.9978 6.17005 14.9746 6.24501 14.9326L10.745 12.4326C10.8221 12.3897 10.8864 12.3269 10.9313 12.2509C10.9761 12.1749 10.9998 12.0883 11 12V7C11.0008 6.91022 10.9775 6.82187 10.9327 6.74408C10.8879 6.6663 10.8231 6.6019 10.745 6.55755ZM5.50001 13.6475L2.00001 11.7025V7.84255L5.50001 9.78755V13.6475ZM6.00001 8.92255L2.53001 7L6.00001 5.06755L9.47001 6.99755L6.00001 8.92255ZM10 11.7025L6.50001 13.6475V9.78755L10 7.84255V11.7025Z" fill="currentColor" style="fill-opacity:1"/>
<path d="M15 3H13V1H12V3H10V4H12V6H13V4H15V3Z" fill="currentColor" style="fill-opacity:1"/>
</svg>
