<svg viewBox="0 0 16 16" fill="none" xmlns="http://www.w3.org/2000/svg">
<path d="M11.5 7V6H4.5V7H7V8.367L5.066 11.752L5.934 12.248L7.79 9H8.21L10.066 12.248L10.934 11.752L9 8.367V7H11.5Z" fill="currentColor" style="fill-opacity:1"/>
<path d="M8 5.5C8.55228 5.5 9 5.05229 9 4.5C9 3.94772 8.55228 3.5 8 3.5C7.44771 3.5 7 3.94772 7 4.5C7 5.05229 7.44771 5.5 8 5.5Z" fill="currentColor" style="fill-opacity:1"/>
<path d="M8 15C6.61553 15 5.26215 14.5895 4.111 13.8203C2.95986 13.0511 2.06265 11.9579 1.53284 10.6788C1.00303 9.3997 0.864403 7.99224 1.1345 6.63437C1.4046 5.2765 2.07128 4.02922 3.05025 3.05025C4.02922 2.07129 5.2765 1.4046 6.63436 1.1345C7.99223 0.864407 9.3997 1.00303 10.6788 1.53284C11.9579 2.06266 13.0511 2.95986 13.8203 4.11101C14.5895 5.26215 15 6.61553 15 8C14.9979 9.85587 14.2597 11.6351 12.9474 12.9474C11.6351 14.2597 9.85587 14.9979 8 15ZM8 2C6.81331 2 5.65327 2.35189 4.66658 3.01118C3.67988 3.67047 2.91085 4.60754 2.45672 5.7039C2.00259 6.80026 1.88377 8.00666 2.11529 9.17054C2.3468 10.3344 2.91824 11.4035 3.75736 12.2426C4.59647 13.0818 5.66557 13.6532 6.82946 13.8847C7.99334 14.1162 9.19974 13.9974 10.2961 13.5433C11.3925 13.0892 12.3295 12.3201 12.9888 11.3334C13.6481 10.3467 14 9.18669 14 8C13.9982 6.40926 13.3655 4.88419 12.2406 3.75936C11.1158 2.63454 9.59074 2.00181 8 2Z" fill="currentColor" style="fill-opacity:1"/>
</svg>
