<svg viewBox="0 0 16 16" fill="none" xmlns="http://www.w3.org/2000/svg">
<path d="M8 10C7.60443 10 7.21776 9.8827 6.88886 9.66294C6.55996 9.44318 6.30361 9.13082 6.15224 8.76537C6.00086 8.39992 5.96126 7.99778 6.03843 7.60982C6.1156 7.22186 6.30608 6.86549 6.58578 6.58579C6.86549 6.30608 7.22185 6.1156 7.60982 6.03843C7.99778 5.96126 8.39991 6.00087 8.76536 6.15224C9.13082 6.30362 9.44317 6.55996 9.66294 6.88886C9.8827 7.21776 10 7.60444 10 8C9.9994 8.53025 9.7885 9.03861 9.41355 9.41356C9.03861 9.7885 8.53025 9.9994 8 10ZM8 7C7.80222 7 7.60888 7.05865 7.44443 7.16853C7.27998 7.27841 7.15181 7.43459 7.07612 7.61732C7.00043 7.80004 6.98063 8.00111 7.01921 8.19509C7.0578 8.38907 7.15304 8.56725 7.29289 8.70711C7.43274 8.84696 7.61093 8.9422 7.80491 8.98079C7.99889 9.01937 8.19995 8.99957 8.38268 8.92388C8.56541 8.84819 8.72159 8.72002 8.83147 8.55557C8.94135 8.39112 9 8.19778 9 8C8.99972 7.73487 8.89427 7.48068 8.7068 7.2932C8.51932 7.10572 8.26513 7.00028 8 7Z" fill="currentColor" style="fill-opacity:1"/>
<path d="M8 12C6.86403 11.9697 5.76752 11.5769 4.87066 10.8791C3.9738 10.1812 3.32358 9.21487 3.015 8.1212L2.9846 8L3.0149 7.8788C3.32349 6.78511 3.97372 5.81876 4.8706 5.12091C5.76748 4.42307 6.86401 4.03031 8 4C9.13597 4.03033 10.2325 4.4231 11.1293 5.12094C12.0262 5.81879 12.6764 6.78513 12.985 7.8788L13.0154 8L12.9851 8.1212C12.6765 9.21489 12.0263 10.1812 11.1294 10.8791C10.2325 11.5769 9.13598 11.9697 8 12ZM4.0176 8C4.28725 8.85194 4.81569 9.59867 5.52943 10.1363C6.24317 10.674 7.10673 10.9759 8 11C8.89327 10.9759 9.75682 10.674 10.4706 10.1363C11.1843 9.59867 11.7127 8.85194 11.9824 8C11.7127 7.14806 11.1843 6.40133 10.4706 5.86366C9.75682 5.32599 8.89327 5.02411 8 5C7.10673 5.02411 6.24317 5.32599 5.52943 5.86366C4.81569 6.40133 4.28725 7.14806 4.0176 8Z" fill="currentColor" style="fill-opacity:1"/>
<path d="M8 15C6.61553 15 5.26215 14.5895 4.111 13.8203C2.95986 13.0511 2.06265 11.9579 1.53284 10.6788C1.00303 9.3997 0.864403 7.99224 1.1345 6.63437C1.4046 5.2765 2.07128 4.02922 3.05025 3.05025C4.02922 2.07129 5.2765 1.4046 6.63436 1.1345C7.99223 0.864407 9.3997 1.00303 10.6788 1.53284C11.9579 2.06266 13.0511 2.95986 13.8203 4.11101C14.5895 5.26215 15 6.61553 15 8C14.9979 9.85587 14.2597 11.6351 12.9474 12.9474C11.6351 14.2597 9.85587 14.9979 8 15ZM8 2C6.81331 2 5.65327 2.35189 4.66658 3.01118C3.67988 3.67047 2.91085 4.60754 2.45672 5.7039C2.00259 6.80026 1.88377 8.00666 2.11529 9.17054C2.3468 10.3344 2.91824 11.4035 3.75736 12.2426C4.59647 13.0818 5.66557 13.6532 6.82946 13.8847C7.99334 14.1162 9.19974 13.9974 10.2961 13.5433C11.3925 13.0892 12.3295 12.3201 12.9888 11.3334C13.6481 10.3467 14 9.18669 14 8C13.9982 6.40926 13.3655 4.88419 12.2406 3.75936C11.1158 2.63454 9.59074 2.00181 8 2Z" fill="currentColor" style="fill-opacity:1"/>
</svg>
