<svg viewBox="0 0 16 16" fill="none" xmlns="http://www.w3.org/2000/svg">
<path d="M7 1H6V2H7V1Z" fill="currentColor" style="fill-opacity:1"/>
<path d="M8 2H7V3H8V2Z" fill="currentColor" style="fill-opacity:1"/>
<path d="M9 3H8V4H9V3Z" fill="currentColor" style="fill-opacity:1"/>
<path d="M9 1H8V2H9V1Z" fill="currentColor" style="fill-opacity:1"/>
<path d="M7 3H6V4H7V3Z" fill="currentColor" style="fill-opacity:1"/>
<path d="M8 9H7V10H8V9Z" fill="currentColor" style="fill-opacity:1"/>
<path d="M9 10H8V11H9V10Z" fill="currentColor" style="fill-opacity:1"/>
<path d="M10 11H9V12H10V11Z" fill="currentColor" style="fill-opacity:1"/>
<path d="M10 9H9V10H10V9Z" fill="currentColor" style="fill-opacity:1"/>
<path d="M8 11H7V12H8V11Z" fill="currentColor" style="fill-opacity:1"/>
<path d="M10 5H9V6H10V5Z" fill="currentColor" style="fill-opacity:1"/>
<path d="M11 6H10V7H11V6Z" fill="currentColor" style="fill-opacity:1"/>
<path d="M12 7H11V8H12V7Z" fill="currentColor" style="fill-opacity:1"/>
<path d="M12 5H11V6H12V5Z" fill="currentColor" style="fill-opacity:1"/>
<path d="M10 7H9V8H10V7Z" fill="currentColor" style="fill-opacity:1"/>
<path d="M14 2C13.7349 2.0003 13.4807 2.10576 13.2932 2.29323C13.1058 2.4807 13.0003 2.73488 13 3V13H3V11H5V10H3V8H5V7H3V5H5V4H3V3C2.9997 2.73488 2.89424 2.4807 2.70677 2.29323C2.5193 2.10576 2.26512 2.0003 2 2H1V3H2V13C2.0003 13.2651 2.10576 13.5193 2.29323 13.7068C2.4807 13.8942 2.73488 13.9997 3 14H13C13.2651 13.9997 13.5193 13.8942 13.7068 13.7068C13.8942 13.5193 13.9997 13.2651 14 13V3H15V2H14Z" fill="currentColor" style="fill-opacity:1"/>
</svg>
