<svg viewBox="0 0 16 16" fill="none" xmlns="http://www.w3.org/2000/svg">
<path d="M9 8H8V9H9V8Z" fill="currentColor" style="fill-opacity:1"/>
<path d="M10 9H9V10H10V9Z" fill="currentColor" style="fill-opacity:1"/>
<path d="M11 10H10V11H11V10Z" fill="currentColor" style="fill-opacity:1"/>
<path d="M11 8H10V9H11V8Z" fill="currentColor" style="fill-opacity:1"/>
<path d="M9 10H8V11H9V10Z" fill="currentColor" style="fill-opacity:1"/>
<path d="M10 6C9.48464 6.01376 8.98482 5.82276 8.60997 5.46881C8.23512 5.11486 8.01579 4.62681 8 4.1115C8.00936 3.74359 8.12261 3.38584 8.32665 3.07955L9.585 1.20705C9.63336 1.14275 9.69601 1.09058 9.768 1.05465C9.83999 1.01872 9.91934 1.00002 9.9998 1.00002C10.0803 1.00002 10.1596 1.01872 10.2316 1.05465C10.3036 1.09058 10.3662 1.14275 10.4146 1.20705L11.6577 3.055C11.87 3.36742 11.9888 3.73394 12 4.1115C11.9842 4.62681 11.7649 5.11486 11.39 5.46881C11.0152 5.82276 10.5154 6.01376 10 6ZM10 2.3816L9.1719 3.61285C9.06843 3.75938 9.00881 3.93234 9 4.1115C9.01584 4.36154 9.12982 4.59519 9.31711 4.7616C9.5044 4.928 9.74984 5.01369 10 5C10.2502 5.01369 10.4956 4.928 10.6829 4.7616C10.8702 4.59519 10.9842 4.36154 11 4.1115C10.9888 3.92274 10.9237 3.74115 10.8125 3.5882L10 2.3816Z" fill="currentColor" style="fill-opacity:1"/>
<path d="M14 2C13.7349 2.0003 13.4807 2.10576 13.2932 2.29323C13.1058 2.4807 13.0003 2.73488 13 3V13H3V5H4V9L4.5 10L5 9V5H6V7L6.5 8L7 7V4H3V3C2.9997 2.73488 2.89424 2.4807 2.70677 2.29323C2.5193 2.10576 2.26512 2.0003 2 2H1V3H2V13C2.0003 13.2651 2.10576 13.5193 2.29323 13.7068C2.4807 13.8942 2.73488 13.9997 3 14H13C13.2651 13.9997 13.5193 13.8942 13.7068 13.7068C13.8942 13.5193 13.9997 13.2651 14 13V3H15V2H14Z" fill="currentColor" style="fill-opacity:1"/>
</svg>
