<svg viewBox="0 0 16 16" fill="none" xmlns="http://www.w3.org/2000/svg">
<path d="M10.5 12H5.5V13H10.5V12Z" fill="currentColor" style="fill-opacity:1"/>
<path d="M9.5 14H6.5V15H9.5V14Z" fill="currentColor" style="fill-opacity:1"/>
<path d="M5.40725 9.0703C4.93899 8.71309 4.56572 8.24623 4.32033 7.71083C4.07493 7.17543 3.96493 6.58791 4 6C4.00122 4.93951 4.42304 3.9228 5.17292 3.17292C5.9228 2.42304 6.93951 2.00122 8 2V1C6.67437 1.00147 5.40345 1.52872 4.46609 2.46609C3.52873 3.40345 3.00147 4.67437 3 6C2.96606 6.72641 3.10521 7.45049 3.40599 8.11258C3.70677 8.77466 4.16057 9.3558 4.73 9.8081C5.23585 10.2754 5.5 10.5407 5.5 11H6.5C6.5 10.08 5.9446 9.5669 5.40725 9.0703Z" fill="currentColor" style="fill-opacity:1"/>
<path d="M14 7H10C9.73487 6.99972 9.48068 6.89428 9.2932 6.7068C9.10573 6.51932 9.00028 6.26513 9 6V2C9.00028 1.73487 9.10573 1.48068 9.2932 1.2932C9.48068 1.10572 9.73487 1.00028 10 1H14C14.2651 1.00028 14.5193 1.10572 14.7068 1.2932C14.8943 1.48068 14.9997 1.73487 15 2V6C14.9997 6.26513 14.8943 6.51932 14.7068 6.7068C14.5193 6.89428 14.2651 6.99972 14 7ZM10 2V6H14V2H10Z" fill="currentColor" style="fill-opacity:1"/>
<path d="M11.52 8C11.2651 8.40179 10.9512 8.76293 10.5889 9.0713C10.0535 9.5674 9.5 10.0805 9.5 11H10.5C10.5 10.5403 10.7632 10.275 11.2676 9.80715C11.8569 9.31787 12.3258 8.69953 12.6378 8H11.52Z" fill="currentColor" style="fill-opacity:1"/>
</svg>
