<svg viewBox="0 0 16 16" fill="none" xmlns="http://www.w3.org/2000/svg">
<path d="M10.5 12H5.5V13H10.5V12Z" fill="currentColor" style="fill-opacity:1"/>
<path d="M9.5 14H6.5V15H9.5V14Z" fill="currentColor" style="fill-opacity:1"/>
<path d="M11.5244 8C11.2674 8.40152 10.9521 8.76257 10.5889 9.0713C10.0535 9.5674 9.5 10.0806 9.5 11H10.5C10.5 10.5403 10.7632 10.275 11.2676 9.80715C11.8579 9.31813 12.3278 8.69979 12.6408 8H11.5244Z" fill="currentColor" style="fill-opacity:1"/>
<path d="M8 2C8.64282 1.99993 9.27602 2.15618 9.845 2.4553L10.2929 1.5598C9.53112 1.16511 8.68052 0.973281 7.82307 1.00281C6.96563 1.03234 6.13024 1.28223 5.39742 1.7284C4.6646 2.17457 4.05906 2.80197 3.63915 3.55015C3.21924 4.29832 2.99912 5.14205 3 6C2.96606 6.72641 3.10521 7.45049 3.40599 8.11258C3.70677 8.77466 4.16057 9.3558 4.73 9.8081C5.23585 10.2754 5.5 10.5408 5.5 11H6.5C6.5 10.08 5.9446 9.5669 5.40725 9.0703C4.93899 8.71309 4.56572 8.24623 4.32033 7.71084C4.07493 7.17544 3.96493 6.58792 4 6C4.00122 4.93951 4.42304 3.9228 5.17292 3.17292C5.9228 2.42304 6.93951 2.00122 8 2Z" fill="currentColor" style="fill-opacity:1"/>
<path d="M14.5 7H9.5C9.41476 7.00001 9.33094 6.97823 9.25649 6.93673C9.18204 6.89523 9.11943 6.83538 9.07462 6.76287C9.02981 6.69037 9.00428 6.60761 9.00045 6.52245C8.99662 6.4373 9.01462 6.35259 9.05275 6.27635L11.5528 1.27635C11.5943 1.19331 11.6581 1.12346 11.7371 1.07465C11.8161 1.02584 11.9071 0.999986 12 0.999986C12.0928 0.999986 12.1838 1.02584 12.2628 1.07465C12.3418 1.12346 12.4056 1.19331 12.4472 1.27635L14.9472 6.27635C14.9853 6.35258 15.0033 6.43729 14.9995 6.52243C14.9956 6.60757 14.9701 6.69033 14.9253 6.76283C14.8805 6.83533 14.8179 6.89518 14.7435 6.93669C14.669 6.9782 14.5852 7 14.5 7ZM10.3091 6H13.6909L12 2.61805L10.3091 6Z" fill="currentColor" style="fill-opacity:1"/>
</svg>
