<svg viewBox="0 0 16 16" fill="none" xmlns="http://www.w3.org/2000/svg">
<path d="M10.5 12H5.5V13H10.5V12Z" fill="currentColor" style="fill-opacity:1"/>
<path d="M9.5 14H6.5V15H9.5V14Z" fill="currentColor" style="fill-opacity:1"/>
<path d="M5.40725 9.0703C4.93899 8.71309 4.56572 8.24623 4.32033 7.71083C4.07493 7.17543 3.96493 6.58791 4 6C4.00122 4.93951 4.42304 3.9228 5.17292 3.17292C5.9228 2.42304 6.93951 2.00122 8 2V1C6.67437 1.00147 5.40345 1.52872 4.46609 2.46609C3.52873 3.40345 3.00147 4.67437 3 6C2.96606 6.72641 3.10521 7.45049 3.40599 8.11258C3.70677 8.77466 4.16057 9.3558 4.73 9.8081C5.23585 10.2754 5.5 10.5407 5.5 11H6.5C6.5 10.08 5.9446 9.5669 5.40725 9.0703Z" fill="currentColor" style="fill-opacity:1"/>
<path d="M11 1H10V4.5H11V1Z" fill="currentColor" style="fill-opacity:1"/>
<path d="M10.5 5.5C10.3517 5.5 10.2067 5.54399 10.0833 5.6264C9.95999 5.70881 9.86386 5.82594 9.80709 5.96299C9.75033 6.10003 9.73547 6.25083 9.76441 6.39632C9.79335 6.5418 9.86478 6.67544 9.96967 6.78033C10.0746 6.88522 10.2082 6.95665 10.3537 6.98559C10.4992 7.01453 10.65 6.99968 10.787 6.94291C10.9241 6.88614 11.0412 6.79001 11.1236 6.66668C11.206 6.54334 11.25 6.39834 11.25 6.25C11.25 6.05109 11.171 5.86032 11.0303 5.71967C10.8897 5.57902 10.6989 5.5 10.5 5.5Z" fill="currentColor" style="fill-opacity:1"/>
<path d="M14 1H13V4.5H14V1Z" fill="currentColor" style="fill-opacity:1"/>
<path d="M13.5 5.5C13.3517 5.5 13.2067 5.54399 13.0833 5.6264C12.96 5.70881 12.8639 5.82594 12.8071 5.96299C12.7503 6.10003 12.7355 6.25083 12.7644 6.39632C12.7934 6.5418 12.8648 6.67544 12.9697 6.78033C13.0746 6.88522 13.2082 6.95665 13.3537 6.98559C13.4992 7.01453 13.65 6.99968 13.787 6.94291C13.9241 6.88614 14.0412 6.79001 14.1236 6.66668C14.206 6.54334 14.25 6.39834 14.25 6.25C14.25 6.05109 14.171 5.86032 14.0303 5.71967C13.8897 5.57902 13.6989 5.5 13.5 5.5Z" fill="currentColor" style="fill-opacity:1"/>
<path d="M11.52 8C11.2651 8.40179 10.9512 8.76293 10.5889 9.0713C10.0535 9.5674 9.5 10.0805 9.5 11H10.5C10.5 10.5403 10.7632 10.275 11.2676 9.80715C11.8569 9.31787 12.3258 8.69953 12.6378 8H11.52Z" fill="currentColor" style="fill-opacity:1"/>
</svg>
