<svg viewBox="0 0 16 16" fill="none" xmlns="http://www.w3.org/2000/svg">
<path d="M8 4C7.99916 4.55067 8.15013 5.09091 8.43632 5.56137C8.72252 6.03182 9.13286 6.41428 9.62226 6.66672C10.1117 6.91915 10.6612 7.0318 11.2104 6.99227C11.7597 6.95274 12.2874 6.76256 12.7356 6.44265L14.293 8L15 7.293L13.4425 5.7356C13.7159 5.35093 13.8947 4.90715 13.9643 4.44035C14.0338 3.97356 13.9922 3.49694 13.8428 3.04926C13.6934 2.60158 13.4405 2.19549 13.1045 1.86401C12.7686 1.53253 12.3592 1.28503 11.9095 1.14164C11.4599 0.998254 10.9827 0.963026 10.5169 1.03882C10.0511 1.11462 9.60975 1.29931 9.22877 1.57785C8.84779 1.8564 8.53794 2.22094 8.32442 2.64182C8.1109 3.06271 7.99975 3.52805 8 4ZM9 4C9 3.60444 9.1173 3.21776 9.33706 2.88886C9.55683 2.55996 9.86918 2.30362 10.2346 2.15224C10.6001 2.00086 11.0022 1.96126 11.3902 2.03843C11.7781 2.1156 12.1345 2.30608 12.4142 2.58579C12.6939 2.86549 12.8844 3.22186 12.9616 3.60982C13.0387 3.99778 12.9991 4.39991 12.8478 4.76537C12.6964 5.13082 12.44 5.44318 12.1111 5.66294C11.7822 5.8827 11.3956 6 11 6C10.4698 5.9994 9.96139 5.7885 9.58645 5.41355C9.2115 5.03861 9.0006 4.53025 9 4Z" fill="currentColor" style="fill-opacity:1"/>
<path d="M10.5 12H5.5V13H10.5V12Z" fill="currentColor" style="fill-opacity:1"/>
<path d="M9.5 14H6.5V15H9.5V14Z" fill="currentColor" style="fill-opacity:1"/>
<path d="M5.40725 9.0703C4.93899 8.71309 4.56572 8.24623 4.32033 7.71083C4.07493 7.17543 3.96493 6.58791 4 6C4.00143 5.11408 4.29673 4.25366 4.83962 3.55357C5.38252 2.85349 6.14233 2.35328 7 2.13135L6.8069 1.15C5.72198 1.41737 4.75775 2.04015 4.06784 2.9191C3.37792 3.79806 3.00201 4.88262 3 6C2.96606 6.72641 3.10521 7.45049 3.40599 8.11257C3.70677 8.77466 4.16057 9.3558 4.73 9.8081C5.23585 10.2754 5.5 10.5407 5.5 11H6.5C6.5 10.08 5.9446 9.5669 5.40725 9.0703Z" fill="currentColor" style="fill-opacity:1"/>
<path d="M11.5247 8C11.2677 8.4016 10.9523 8.76266 10.5889 9.0713C10.0535 9.5674 9.5 10.0805 9.5 11H10.5C10.5 10.5403 10.7632 10.275 11.2676 9.80715C11.7396 9.4053 12.14 8.92633 12.4519 8.3906L11.5247 8Z" fill="currentColor" style="fill-opacity:1"/>
</svg>
