<svg viewBox="0 0 16 16" fill="none" xmlns="http://www.w3.org/2000/svg">
<path d="M13 1H12V4.5H13V1Z" fill="currentColor" style="fill-opacity:1"/>
<path d="M12.5 5.5C12.3517 5.5 12.2067 5.54399 12.0833 5.6264C11.96 5.70881 11.8639 5.82594 11.8071 5.96299C11.7503 6.10003 11.7355 6.25083 11.7644 6.39632C11.7934 6.5418 11.8648 6.67544 11.9697 6.78033C12.0746 6.88522 12.2082 6.95665 12.3537 6.98559C12.4992 7.01453 12.65 6.99968 12.787 6.94291C12.9241 6.88614 13.0412 6.79001 13.1236 6.66668C13.206 6.54334 13.25 6.39834 13.25 6.25C13.25 6.05109 13.171 5.86032 13.0303 5.71967C12.8897 5.57902 12.6989 5.5 12.5 5.5Z" fill="currentColor" style="fill-opacity:1"/>
<path d="M10.5 12H5.5V13H10.5V12Z" fill="currentColor" style="fill-opacity:1"/>
<path d="M9.5 14H6.5V15H9.5V14Z" fill="currentColor" style="fill-opacity:1"/>
<path d="M11.5244 8C11.2674 8.40152 10.9521 8.76257 10.5889 9.0713C10.0535 9.5674 9.5 10.0805 9.5 11H10.5C10.5 10.5403 10.7632 10.275 11.2676 9.80715C11.8579 9.31813 12.3278 8.69978 12.6408 8H11.5244Z" fill="currentColor" style="fill-opacity:1"/>
<path d="M8 2C8.70283 2.0002 9.393 2.18698 10 2.54125V1.4204C9.23942 1.08689 8.40768 0.948307 7.58005 1.0172C6.75243 1.08609 5.95505 1.36028 5.26007 1.81495C4.5651 2.26962 3.99448 2.89042 3.59986 3.62116C3.20523 4.3519 2.99906 5.16951 3 6C2.96606 6.72641 3.10521 7.45049 3.40599 8.11258C3.70677 8.77466 4.16057 9.3558 4.73 9.8081C5.23585 10.2754 5.5 10.5407 5.5 11H6.5C6.5 10.08 5.9446 9.5669 5.40725 9.0703C4.93899 8.71309 4.56572 8.24623 4.32033 7.71083C4.07493 7.17543 3.96493 6.58791 4 6C4.00122 4.93951 4.42304 3.9228 5.17292 3.17292C5.9228 2.42304 6.93951 2.00122 8 2Z" fill="currentColor" style="fill-opacity:1"/>
</svg>
