<svg viewBox="0 0 16 16" fill="none" xmlns="http://www.w3.org/2000/svg">
<path d="M10.5 12H5.5V13H10.5V12Z" fill="currentColor" style="fill-opacity:1"/>
<path d="M9.5 14H6.5V15H9.5V14Z" fill="currentColor" style="fill-opacity:1"/>
<path d="M5.40725 9.0703C4.93899 8.71309 4.56572 8.24623 4.32033 7.71083C4.07493 7.17543 3.96493 6.58791 4 6C4.00122 4.93951 4.42304 3.9228 5.17292 3.17292C5.9228 2.42303 6.93951 2.00122 8 2V0.999999C6.67437 1.00147 5.40345 1.52872 4.46609 2.46609C3.52873 3.40345 3.00147 4.67437 3 6C2.96606 6.72641 3.10521 7.45049 3.40599 8.11258C3.70677 8.77466 4.16057 9.3558 4.73 9.8081C5.23585 10.2754 5.5 10.5407 5.5 11H6.5C6.5 10.08 5.9446 9.5669 5.40725 9.0703Z" fill="currentColor" style="fill-opacity:1"/>
<path d="M11.52 8C11.2651 8.40178 10.9512 8.76293 10.5889 9.0713C10.0535 9.5674 9.5 10.0805 9.5 11H10.5C10.5 10.5403 10.7632 10.275 11.2676 9.80715C11.8569 9.31787 12.3258 8.69953 12.6378 8H11.52Z" fill="currentColor" style="fill-opacity:1"/>
<path d="M15 4C15 3.40665 14.8241 2.82664 14.4944 2.33329C14.1648 1.83994 13.6962 1.45542 13.1481 1.22836C12.5999 1.0013 11.9967 0.941887 11.4147 1.05764C10.8328 1.1734 10.2982 1.45912 9.87868 1.87868C9.45912 2.29824 9.1734 2.83278 9.05765 3.41473C8.94189 3.99667 9.0013 4.59987 9.22836 5.14805C9.45543 5.69623 9.83994 6.16476 10.3333 6.49441C10.8266 6.82405 11.4067 7 12 7C12.7954 6.99913 13.5579 6.68277 14.1204 6.12035C14.6828 5.55793 14.9991 4.79538 15 4ZM14 4C13.9981 4.35588 13.9002 4.70466 13.7166 5.0095L10.9905 2.28345C11.2953 2.0998 11.6441 2.00187 12 2C12.5303 2.00059 13.0386 2.2115 13.4136 2.58644C13.7885 2.96139 13.9994 3.46975 14 4ZM10 4C10.0019 3.64411 10.0998 3.29533 10.2835 2.9905L13.0095 5.71655C12.7047 5.9002 12.3559 5.99813 12 6C11.4698 5.9994 10.9614 5.7885 10.5864 5.41355C10.2115 5.03861 10.0006 4.53025 10 4Z" fill="currentColor" style="fill-opacity:1"/>
</svg>
