<svg viewBox="0 0 16 16" fill="none" xmlns="http://www.w3.org/2000/svg">
<path d="M10.5 12H5.5V13H10.5V12Z" fill="currentColor" style="fill-opacity:1"/>
<path d="M9.5 14H6.5V15H9.5V14Z" fill="currentColor" style="fill-opacity:1"/>
<path d="M5.40725 9.0703C4.93899 8.71309 4.56572 8.24623 4.32033 7.71083C4.07493 7.17543 3.96493 6.58791 4 6C4.00122 4.93951 4.42304 3.9228 5.17292 3.17292C5.9228 2.42304 6.93951 2.00122 8 2V1C6.67437 1.00147 5.40345 1.52872 4.46609 2.46609C3.52873 3.40345 3.00147 4.67437 3 6C2.96606 6.72641 3.10521 7.45049 3.40599 8.11258C3.70677 8.77466 4.16057 9.3558 4.73 9.8081C5.23585 10.2754 5.5 10.5407 5.5 11H6.5C6.5 10.08 5.9446 9.5669 5.40725 9.0703Z" fill="currentColor" style="fill-opacity:1"/>
<path d="M10.5889 9.0713C10.0535 9.5674 9.5 10.0806 9.5 11H10.5C10.5 10.5403 10.7632 10.275 11.2676 9.80715C11.8369 9.35482 12.2908 8.77388 12.5919 8.11205C12.8931 7.45022 13.033 6.72638 13 6H12C12.034 6.58832 11.9231 7.17599 11.6771 7.71147C11.4311 8.24695 11.0574 8.71388 10.5889 9.0713Z" fill="currentColor" style="fill-opacity:1"/>
<path d="M14 3H9V4H14V3Z" fill="currentColor" style="fill-opacity:1"/>
</svg>
