<svg viewBox="0 0 16 16" fill="none" xmlns="http://www.w3.org/2000/svg">
<path d="M10.5 12H5.5V13H10.5V12Z" fill="currentColor" style="fill-opacity:1"/>
<path d="M9.5 14H6.5V15H9.5V14Z" fill="currentColor" style="fill-opacity:1"/>
<path d="M11.52 8C11.2651 8.40179 10.9512 8.76293 10.5889 9.0713C10.0535 9.5674 9.5 10.0805 9.5 11H10.5C10.5 10.5403 10.7632 10.275 11.2676 9.80715C11.8569 9.31787 12.3258 8.69953 12.6378 8H11.52Z" fill="currentColor" style="fill-opacity:1"/>
<path d="M10 7C9.90714 7.00001 9.81612 6.97416 9.73712 6.92535C9.65813 6.87654 9.59429 6.8067 9.55275 6.72365L8.6909 5H7V4H9C9.09286 3.99999 9.18389 4.02584 9.26288 4.07465C9.34187 4.12346 9.40572 4.1933 9.44725 4.27635L10 5.38195L11.5528 2.27635C11.5989 2.19893 11.6644 2.13482 11.7428 2.0903C11.8212 2.04579 11.9098 2.02238 12 2.02238C12.0902 2.02238 12.1788 2.04579 12.2572 2.0903C12.3356 2.13482 12.4011 2.19893 12.4473 2.27635L13.3091 4H15V5H13C12.9071 5.00001 12.8161 4.97416 12.7371 4.92535C12.6581 4.87654 12.5943 4.8067 12.5528 4.72365L12 3.61805L10.4473 6.72365C10.4057 6.8067 10.3419 6.87654 10.2629 6.92535C10.1839 6.97416 10.0929 7.00001 10 7Z" fill="currentColor" style="fill-opacity:1"/>
<path d="M5.40725 9.0703C4.93899 8.71309 4.56572 8.24623 4.32033 7.71083C4.07493 7.17543 3.96493 6.58791 4 6C4.00122 4.93951 4.42304 3.9228 5.17292 3.17292C5.9228 2.42304 6.93951 2.00122 8 2V1C6.67437 1.00147 5.40345 1.52872 4.46609 2.46609C3.52873 3.40345 3.00147 4.67437 3 6C2.96606 6.72641 3.10521 7.45049 3.40599 8.11258C3.70677 8.77466 4.16057 9.3558 4.73 9.8081C5.23585 10.2754 5.5 10.5407 5.5 11H6.5C6.5 10.08 5.9446 9.5669 5.40725 9.0703Z" fill="currentColor" style="fill-opacity:1"/>
</svg>
