<svg viewBox="0 0 16 16" fill="none" xmlns="http://www.w3.org/2000/svg">
<path d="M10.5 12H5.5V13H10.5V12Z" fill="currentColor" style="fill-opacity:1"/>
<path d="M9.5 14H6.5V15H9.5V14Z" fill="currentColor" style="fill-opacity:1"/>
<path d="M5.40725 9.0703C4.93899 8.71309 4.56572 8.24623 4.32033 7.71083C4.07493 7.17543 3.96493 6.58791 4 6C4.00122 4.93951 4.42304 3.9228 5.17292 3.17292C5.9228 2.42304 6.93951 2.00122 8 2V1C6.67437 1.00147 5.40345 1.52872 4.46609 2.46609C3.52873 3.40345 3.00147 4.67437 3 6C2.96606 6.72641 3.10521 7.45049 3.40599 8.11258C3.70677 8.77466 4.16057 9.3558 4.73 9.8081C5.23585 10.2754 5.5 10.5407 5.5 11H6.5C6.5 10.08 5.9446 9.5669 5.40725 9.0703Z" fill="currentColor" style="fill-opacity:1"/>
<path d="M11.9 7C11.7156 7.82123 11.2524 8.5532 10.5891 9.0713C10.0535 9.5674 9.5 10.0805 9.5 11H10.5C10.5 10.5403 10.7632 10.275 11.2676 9.80715C12.1442 9.10598 12.7322 8.10679 12.9195 7H11.9Z" fill="currentColor" style="fill-opacity:1"/>
<path d="M15 1.705L14.295 1L12.5 2.795L10.705 1L10 1.705L11.795 3.5L10 5.295L10.705 6L12.5 4.205L14.295 6L15 5.295L13.205 3.5L15 1.705Z" fill="currentColor" style="fill-opacity:1"/>
</svg>
