<svg viewBox="0 0 16 16" fill="none" xmlns="http://www.w3.org/2000/svg">
<path d="M8 14C6.9122 14 5.84883 13.6774 4.94436 13.0731C4.03989 12.4687 3.33494 11.6097 2.91866 10.6048C2.50238 9.59976 2.39346 8.4939 2.60568 7.427C2.8179 6.3601 3.34172 5.3801 4.11091 4.61091C4.8801 3.84172 5.86011 3.3179 6.927 3.10568C7.9939 2.89346 9.09977 3.00238 10.1048 3.41866C11.1098 3.83494 11.9687 4.53989 12.5731 5.44436C13.1774 6.34883 13.5 7.4122 13.5 8.5C13.5 9.95869 12.9205 11.3576 11.8891 12.3891C10.8576 13.4205 9.45869 14 8 14ZM8 4C7.10998 4 6.23996 4.26392 5.49993 4.75838C4.75991 5.25285 4.18314 5.95565 3.84254 6.77792C3.50195 7.60019 3.41283 8.50499 3.58647 9.3779C3.7601 10.2508 4.18868 11.0526 4.81802 11.682C5.44736 12.3113 6.24918 12.7399 7.12209 12.9135C7.99501 13.0872 8.89981 12.998 9.72208 12.6575C10.5443 12.3169 11.2471 11.7401 11.7416 11.0001C12.2361 10.26 12.5 9.39001 12.5 8.5C12.5 7.30652 12.0259 6.16193 11.182 5.31802C10.3381 4.4741 9.19347 4 8 4Z" fill="currentColor" style="fill-opacity:1"/>
<path d="M3.79082 2.00157L2.00018 3.79597L2.70803 4.50233L4.49867 2.70794L3.79082 2.00157Z" fill="currentColor" style="fill-opacity:1"/>
<path d="M12.2076 1.99718L11.4997 2.70355L13.2904 4.49794L13.9982 3.79158L12.2076 1.99718Z" fill="currentColor" style="fill-opacity:1"/>
<path d="M10.5 8H8.5V6H7.5V8H5.5V9H7.5V11H8.5V9H10.5V8Z" fill="currentColor" style="fill-opacity:1"/>
</svg>
