<svg viewBox="0 0 16 16" fill="none" xmlns="http://www.w3.org/2000/svg">
<path d="M4.5 12C4.44953 11.653 4.29628 11.3291 4.06 11.07L8.825 2.78L7.96 2.28L3.175 10.56C3.03686 10.5201 2.89378 10.4999 2.75 10.5C2.43657 10.4989 2.12859 10.582 1.85825 10.7406C1.58791 10.8992 1.36514 11.1276 1.21321 11.4017C1.06127 11.6759 0.98576 11.9858 0.994556 12.2991C1.00335 12.6124 1.09613 12.9176 1.26321 13.1828C1.43028 13.448 1.66551 13.6635 1.94432 13.8067C2.22313 13.9499 2.53529 14.0156 2.84817 13.9969C3.16104 13.9782 3.46316 13.8758 3.72295 13.7005C3.98274 13.5251 4.19067 13.2832 4.325 13H14V12H4.5ZM2.75 13C2.60166 13 2.45666 12.956 2.33332 12.8736C2.20999 12.7912 2.11386 12.6741 2.05709 12.537C2.00032 12.4 1.98547 12.2492 2.01441 12.1037C2.04335 11.9582 2.11478 11.8246 2.21967 11.7197C2.32456 11.6148 2.4582 11.5434 2.60368 11.5144C2.74917 11.4855 2.89997 11.5003 3.03701 11.5571C3.17406 11.6139 3.29119 11.71 3.3736 11.8333C3.45601 11.9567 3.5 12.1017 3.5 12.25C3.5 12.4489 3.42098 12.6397 3.28033 12.7803C3.13968 12.921 2.94891 13 2.75 13Z" fill="currentColor" style="fill-opacity:1"/>
<path d="M11 10.5H12C11.9999 9.46797 11.754 8.45081 11.2828 7.53265C10.8115 6.6145 10.1284 5.82175 9.29 5.22L8.71 6.03C9.4192 6.53974 9.9968 7.21104 10.395 7.98834C10.7932 8.76565 11.0006 9.62662 11 10.5Z" fill="currentColor" style="fill-opacity:1"/>
</svg>
