<svg viewBox="0 0 16 16" fill="none" xmlns="http://www.w3.org/2000/svg">
<path id="icon" d="M8 1C6.61553 1 5.26215 1.41054 4.111 2.17971C2.95986 2.94888 2.06265 4.04213 1.53284 5.32122C1.00303 6.6003 0.864403 8.00777 1.1345 9.36563C1.4046 10.7235 2.07128 11.9708 3.05025 12.9497C4.02922 13.9287 5.2765 14.5954 6.63436 14.8655C7.99223 15.1356 9.3997 14.997 10.6788 14.4672C11.9579 13.9373 13.0511 13.0401 13.8203 11.889C14.5895 10.7378 15 9.38447 15 8C15 6.14348 14.2625 4.36301 12.9497 3.05025C11.637 1.7375 9.85651 1 8 1V1ZM13.92 7.07L11 8.76V2.81C11.7732 3.25784 12.4366 3.87272 12.9418 4.60974C13.447 5.34676 13.7812 6.18731 13.92 7.07V7.07ZM6 9.34V6.66L8 5.5L10 6.655V9.335L8 10.5L6 9.34ZM10 2.34V5.5L5.17 2.71C5.90483 2.31467 6.71459 2.07832 7.54671 2.0163C8.37882 1.95428 9.21468 2.06797 10 2.35V2.34ZM4.24 3.34L7 4.925L2 7.81C2.02858 6.94597 2.24354 6.09832 2.63015 5.32508C3.01677 4.55184 3.56592 3.87128 4.24 3.33V3.34ZM2.08 8.925L5 7.235V13.19C4.22619 12.7416 3.5624 12.126 3.05718 11.3881C2.55196 10.6501 2.21809 9.80858 2.08 8.925ZM6 13.65V10.5L10.835 13.29C9.96357 13.7583 8.98928 14.0023 8 14C7.31833 13.9973 6.64206 13.879 6 13.65V13.65ZM11.76 12.65L9 11.07L14 8.185C13.9721 9.04989 13.7575 9.89851 13.3709 10.6727C12.9842 11.4468 12.4347 12.1282 11.76 12.67V12.65Z" fill="currentColor" style="fill-opacity:1"/>
</svg>
