<svg viewBox="0 0 16 16" fill="none" xmlns="http://www.w3.org/2000/svg">
<path id="icon" d="M7.78227 4.81465C7.19827 4.81465 6.29425 4.15065 5.34225 4.17465C4.08625 4.19065 2.93425 4.90265 2.28625 6.03065C0.982253 8.29467 1.95025 11.6387 3.22225 13.4787C3.84625 14.3747 4.58225 15.3827 5.55825 15.3507C6.49425 15.3107 6.84627 14.7427 7.98227 14.7427C9.11027 14.7427 9.43027 15.3507 10.4223 15.3267C11.4303 15.3107 12.0703 14.4147 12.6863 13.5107C13.3983 12.4707 13.6943 11.4627 13.7103 11.4067C13.6863 11.3987 11.7503 10.6547 11.7263 8.41467C11.7103 6.54265 13.2543 5.64665 13.3263 5.60665C12.4463 4.31865 11.0943 4.17465 10.6223 4.14265C9.39027 4.04665 8.35827 4.81465 7.78227 4.81465ZM9.86227 2.92665C10.3823 2.30265 10.7263 1.43065 10.6303 0.566651C9.88627 0.598651 8.99027 1.06265 8.45427 1.68665C7.97427 2.23865 7.55827 3.12665 7.67027 3.97465C8.49427 4.03865 9.34227 3.55065 9.86227 2.92665Z" fill="currentColor" style="fill-opacity:1"/>
</svg>
