<svg viewBox="0 0 16 16" fill="none" xmlns="http://www.w3.org/2000/svg">
<path d="M3.54125 5.8357L2.70385 5.2893C2.25075 5.98365 2.00745 6.90455 2.00025 7.95265L3.00025 7.9595C3.0061 7.10355 3.1931 6.36915 3.54125 5.8357Z" fill="currentColor" style="fill-opacity:1"/>
<path d="M3.0426 8.9082L2.04725 9.0049C2.1416 9.9739 2.37685 10.8418 2.74635 11.5845L3.6416 11.139C3.32655 10.5059 3.125 9.7551 3.0426 8.9082Z" fill="currentColor" style="fill-opacity:1"/>
<path d="M4.1189 11.8982L3.3345 12.5183C4.001 13.3616 4.8831 13.897 5.7543 13.9871L5.85735 12.9924C5.26175 12.9307 4.6118 12.5218 4.1189 11.8982Z" fill="currentColor" style="fill-opacity:1"/>
<path d="M8 12.5C7.6333 12.5 7.26085 12.6355 6.90065 12.7666C6.8102 12.7993 6.7189 12.8325 6.6272 12.8638L6.9485 13.8108C7.047 13.7773 7.1453 13.7417 7.24245 13.7063C7.52125 13.605 7.80945 13.5 8 13.5C8.19045 13.5 8.47875 13.605 8.75745 13.706C8.8479 13.739 8.9392 13.7721 9.03075 13.8036L9.3547 12.8574C9.26915 12.8281 9.1838 12.7971 9.0992 12.7663C8.73895 12.6355 8.3666 12.5 8 12.5Z" fill="currentColor" style="fill-opacity:1"/>
<path d="M10.1273 12.9939L10.2201 13.9897C11.0929 13.9082 11.979 13.3784 12.6511 12.5361L11.8695 11.9123C11.3733 12.5342 10.7221 12.9385 10.1273 12.9939Z" fill="currentColor" style="fill-opacity:1"/>
<path d="M12.3502 11.1558L13.2437 11.6045C13.6162 10.8628 13.854 9.9956 13.9507 9.0266L12.9556 8.92725C12.8711 9.77415 12.6674 10.524 12.3502 11.1558Z" fill="currentColor" style="fill-opacity:1"/>
<path d="M14 7.9746C13.9962 6.9277 13.7573 6.00635 13.3091 5.30905L12.4681 5.85005C12.8129 6.38645 12.9968 7.12225 13 7.978L14 7.9746Z" fill="currentColor" style="fill-opacity:1"/>
<path d="M10 2H9.5C8.9477 2 8.5 2.4477 8.5 3V3.5H9C9.5523 3.5 10 3.0523 10 2.5V2Z" fill="currentColor" style="fill-opacity:1"/>
<path d="M11.9063 5.2654L12.458 4.4314C12.0253 4.145 11.5347 4 11 4C10.2923 4 9.79125 4.14405 9.34935 4.271C9.06115 4.35375 8.78125 4.43115 8.4504 4.4712C8.1994 3.06885 6.97335 2 5.49995 2V3C6.4111 3 7.17315 3.61595 7.41365 4.4507C7.14155 4.4075 6.89815 4.34205 6.6506 4.271C6.2087 4.14405 5.70775 4 4.99995 4C4.4653 4 3.9747 4.145 3.54195 4.4314L4.0937 5.2654C4.35995 5.08935 4.66485 5 4.99995 5C5.56695 5 5.9592 5.1128 6.37435 5.23195C6.83285 5.3638 7.30695 5.5 7.99995 5.5C8.69295 5.5 9.16705 5.36375 9.62555 5.23195C10.0407 5.1128 10.4329 5 11 5C11.3351 5 11.64 5.08935 11.9063 5.2654Z" fill="currentColor" style="fill-opacity:1"/>
</svg>
