<svg viewBox="0 0 16 16" fill="none" xmlns="http://www.w3.org/2000/svg">
<g id="Icons / Application--virtual" clip-path="url(#clip0_0_394)">
<g id="icon">
<path d="M10.5 9.5H8.49999V11.5H10.5V9.5Z" fill="currentColor" style="fill-opacity:1"/>
<path d="M7.49999 9.5H5.49999V11.5H7.49999V9.5Z" fill="currentColor" style="fill-opacity:1"/>
<path d="M10.5 12.5H8.49999V14.5H10.5V12.5Z" fill="currentColor" style="fill-opacity:1"/>
<path d="M7.49999 12.5H5.49999V14.5H7.49999V12.5Z" fill="currentColor" style="fill-opacity:1"/>
<path d="M12.25 12.5H12V11.5H12.25C12.9628 11.5005 13.6479 11.2239 14.1607 10.7288C14.6735 10.2337 14.9738 9.55864 14.9982 8.84625C15.0227 8.13386 14.7694 7.43984 14.2918 6.91069C13.8142 6.38154 13.1497 6.05868 12.4385 6.01025L12.0202 5.98195L11.9752 5.56495C11.8683 4.58529 11.4035 3.6796 10.6698 3.02165C9.93614 2.36369 8.98537 1.99981 7.99989 1.99981C7.01442 1.99981 6.06365 2.36369 5.32999 3.02165C4.59633 3.6796 4.13145 4.58529 4.02454 5.56495L3.97954 5.98195L3.56129 6.01025C2.85011 6.05868 2.18558 6.38156 1.70797 6.91073C1.23037 7.4399 0.977076 8.13394 1.00156 8.84635C1.02605 9.55876 1.3264 10.2338 1.83922 10.7289C2.35203 11.224 3.03717 11.5005 3.74999 11.5H3.99999V12.5H3.74999C2.81302 12.5005 1.90986 12.15 1.21847 11.5176C0.527076 10.8852 0.0976035 10.0168 0.014676 9.08354C-0.0682514 8.15024 0.201381 7.21973 0.770442 6.47536C1.3395 5.73099 2.16672 5.22675 3.08909 5.062C3.30725 3.91934 3.91703 2.88852 4.81342 2.14708C5.70982 1.40564 6.8367 0.999981 7.99999 0.999981C9.16329 0.999981 10.2902 1.40564 11.1866 2.14708C12.083 2.88852 12.6927 3.91934 12.9109 5.062C13.8333 5.22675 14.6605 5.73099 15.2295 6.47536C15.7986 7.21973 16.0682 8.15024 15.9853 9.08354C15.9024 10.0168 15.4729 10.8852 14.7815 11.5176C14.0901 12.15 13.187 12.5005 12.25 12.5Z" fill="currentColor" style="fill-opacity:1"/>
</g>
</g>
<defs>
<clipPath id="clip0_0_394">
<rect width="16" height="16" fill="currentColor" style="fill-opacity:1"/>
</clipPath>
</defs>
</svg>
