<svg viewBox="0 0 16 16" fill="none" xmlns="http://www.w3.org/2000/svg">
<path id="icon" d="M15 3C15.001 2.47975 14.7987 1.9797 14.4364 1.60638C14.0741 1.23305 13.5803 1.01596 13.0603 1.00135C12.5402 0.986738 12.035 1.17577 11.6523 1.52817C11.2696 1.88056 11.0396 2.36847 11.0114 2.88795L4.7932 4.13135C4.64779 3.82919 4.42856 3.56856 4.15577 3.37354C3.88299 3.17853 3.56544 3.05542 3.23249 3.01559C2.89954 2.97576 2.56192 3.02051 2.25083 3.14568C1.93974 3.27085 1.66523 3.47242 1.45265 3.73176C1.24007 3.99109 1.09629 4.29983 1.0346 4.62943C0.972904 4.95903 0.995286 5.29887 1.09968 5.61753C1.20407 5.93619 1.3871 6.2234 1.63185 6.45262C1.8766 6.68183 2.17519 6.84566 2.5 6.92895V11.071C2.15889 11.1585 1.847 11.3347 1.59599 11.5817C1.34498 11.8287 1.16379 12.1377 1.07082 12.4773C0.977848 12.817 0.976402 13.1752 1.06663 13.5156C1.15686 13.856 1.33554 14.1664 1.58455 14.4155C1.83356 14.6645 2.14402 14.8431 2.48441 14.9334C2.8248 15.0236 3.18301 15.0222 3.52267 14.9292C3.86232 14.8362 4.17133 14.655 4.41832 14.404C4.6653 14.153 4.84148 13.8411 4.92895 13.5H9.07105C9.15418 13.8251 9.31794 14.124 9.54718 14.369C9.77642 14.614 10.0637 14.7973 10.3826 14.9018C10.7014 15.0064 11.0415 15.0289 11.3713 14.9672C11.7011 14.9055 12.0101 14.7617 12.2696 14.5489C12.5291 14.3362 12.7307 14.0615 12.8559 13.7502C12.9811 13.4389 13.0258 13.101 12.9858 12.7679C12.9459 12.4347 12.8225 12.117 12.6272 11.8442C12.4319 11.5713 12.171 11.3521 11.8686 11.2068L13.1121 4.98875C13.6211 4.96085 14.1002 4.73933 14.4513 4.36957C14.8023 3.99982 14.9986 3.50983 15 3ZM13 2C13.1978 2 13.3911 2.05865 13.5556 2.16853C13.72 2.27841 13.8482 2.43459 13.9239 2.61731C13.9996 2.80004 14.0194 3.00111 13.9808 3.19509C13.9422 3.38907 13.847 3.56725 13.7071 3.7071C13.5673 3.84696 13.3891 3.9422 13.1951 3.98078C13.0011 4.01937 12.8 3.99956 12.6173 3.92388C12.4346 3.84819 12.2784 3.72002 12.1685 3.55557C12.0587 3.39112 12 3.19778 12 3C12.0003 2.73487 12.1058 2.4807 12.2932 2.29323C12.4807 2.10576 12.7349 2.0003 13 2ZM2 5C2 4.80222 2.05865 4.60888 2.16853 4.44443C2.27842 4.27998 2.43459 4.15181 2.61732 4.07612C2.80005 4.00043 3.00111 3.98063 3.19509 4.01921C3.38908 4.0578 3.56726 4.15304 3.70711 4.29289C3.84696 4.43274 3.9422 4.61093 3.98079 4.80491C4.01937 4.99889 3.99957 5.19995 3.92388 5.38268C3.8482 5.56541 3.72002 5.72159 3.55557 5.83147C3.39113 5.94135 3.19779 6 3 6C2.73488 5.99969 2.4807 5.89424 2.29323 5.70677C2.10576 5.5193 2.00031 5.26512 2 5ZM3 14C2.80222 14 2.60888 13.9413 2.44443 13.8315C2.27998 13.7216 2.15181 13.5654 2.07612 13.3827C2.00044 13.2 1.98063 12.9989 2.01922 12.8049C2.0578 12.6109 2.15304 12.4327 2.2929 12.2929C2.43275 12.153 2.61093 12.0578 2.80491 12.0192C2.9989 11.9806 3.19996 12.0004 3.38269 12.0761C3.56541 12.1518 3.72159 12.28 3.83147 12.4444C3.94136 12.6089 4 12.8022 4 13C3.9997 13.2651 3.89425 13.5193 3.70677 13.7068C3.5193 13.8942 3.26513 13.9997 3 14ZM9.07105 12.5H4.92895C4.83938 12.1563 4.65974 11.8426 4.40856 11.5914C4.15738 11.3403 3.84375 11.1606 3.5 11.071V6.92895C3.90854 6.82271 4.2728 6.58954 4.54033 6.26302C4.80786 5.9365 4.96484 5.53349 4.98865 5.11205L11.2068 3.86865C11.4029 4.27161 11.7285 4.59715 12.1315 4.7932L10.888 11.0112C10.4665 11.0351 10.0635 11.1921 9.73698 11.4596C9.41046 11.7272 9.17729 12.0915 9.07105 12.5ZM11 14C10.8022 14 10.6089 13.9413 10.4444 13.8315C10.28 13.7216 10.1518 13.5654 10.0761 13.3827C10.0004 13.2 9.98063 12.9989 10.0192 12.8049C10.0578 12.6109 10.153 12.4327 10.2929 12.2929C10.4328 12.153 10.6109 12.0578 10.8049 12.0192C10.9989 11.9806 11.2 12.0004 11.3827 12.0761C11.5654 12.1518 11.7216 12.28 11.8315 12.4444C11.9414 12.6089 12 12.8022 12 13C11.9997 13.2651 11.8942 13.5193 11.7068 13.7068C11.5193 13.8942 11.2651 13.9997 11 14Z" fill="currentColor" style="fill-opacity:1"/>
</svg>
