<svg viewBox="0 0 16 16" fill="none" xmlns="http://www.w3.org/2000/svg">
<path id="icon" d="M13.5 11.071V4.929C13.8411 4.84152 14.153 4.66534 14.404 4.41835C14.6551 4.17136 14.8363 3.86234 14.9292 3.52268C15.0222 3.18301 15.0237 2.8248 14.9334 2.48439C14.8432 2.14399 14.6645 1.83352 14.4155 1.58451C14.1665 1.33549 13.856 1.1568 13.5156 1.06657C13.1752 0.976342 12.817 0.977789 12.4773 1.07077C12.1377 1.16374 11.8286 1.34494 11.5816 1.59596C11.3347 1.84697 11.1585 2.15888 11.071 2.5H4.929C4.84152 2.15888 4.66534 1.84697 4.41835 1.59596C4.17136 1.34494 3.86234 1.16374 3.52268 1.07077C3.18301 0.977789 2.8248 0.976342 2.48439 1.06657C2.14399 1.1568 1.83352 1.33549 1.58451 1.58451C1.33549 1.83352 1.1568 2.14399 1.06657 2.48439C0.976342 2.8248 0.977789 3.18301 1.07077 3.52268C1.16374 3.86234 1.34494 4.17136 1.59596 4.41835C1.84697 4.66534 2.15888 4.84152 2.5 4.929V11.071C2.15888 11.1585 1.84697 11.3347 1.59596 11.5816C1.34494 11.8286 1.16374 12.1377 1.07077 12.4773C0.977789 12.817 0.976342 13.1752 1.06657 13.5156C1.1568 13.856 1.33549 14.1665 1.58451 14.4155C1.83352 14.6645 2.14399 14.8432 2.48439 14.9334C2.8248 15.0237 3.18301 15.0222 3.52268 14.9292C3.86234 14.8363 4.17136 14.6551 4.41835 14.404C4.66534 14.153 4.84152 13.8411 4.929 13.5H11.071C11.1585 13.8411 11.3347 14.153 11.5816 14.404C11.8286 14.6551 12.1377 14.8363 12.4773 14.9292C12.817 15.0222 13.1752 15.0237 13.5156 14.9334C13.856 14.8432 14.1665 14.6645 14.4155 14.4155C14.6645 14.1665 14.8432 13.856 14.9334 13.5156C15.0237 13.1752 15.0222 12.817 14.9292 12.4773C14.8363 12.1377 14.6551 11.8286 14.404 11.5816C14.153 11.3347 13.8411 11.1585 13.5 11.071ZM13 2C13.1978 2 13.3911 2.05865 13.5556 2.16853C13.72 2.27841 13.8482 2.43459 13.9239 2.61731C13.9996 2.80004 14.0194 3.00111 13.9808 3.19509C13.9422 3.38907 13.847 3.56725 13.7071 3.7071C13.5673 3.84696 13.3891 3.9422 13.1951 3.98078C13.0011 4.01937 12.8 3.99957 12.6173 3.92388C12.4346 3.84819 12.2784 3.72002 12.1685 3.55557C12.0586 3.39112 12 3.19778 12 3C12.0003 2.73487 12.1058 2.4807 12.2932 2.29323C12.4807 2.10576 12.7349 2.0003 13 2ZM2 3C2 2.80222 2.05865 2.60888 2.16853 2.44443C2.27841 2.27998 2.43459 2.15181 2.61731 2.07612C2.80004 2.00043 3.00111 1.98063 3.19509 2.01921C3.38907 2.0578 3.56725 2.15304 3.7071 2.29289C3.84696 2.43274 3.9422 2.61093 3.98078 2.80491C4.01937 2.99889 3.99957 3.19996 3.92388 3.38268C3.84819 3.56541 3.72002 3.72159 3.55557 3.83147C3.39112 3.94135 3.19778 4 3 4C2.73486 3.99973 2.48066 3.89429 2.29318 3.70681C2.1057 3.51933 2.00026 3.26513 2 3ZM3 14C2.80222 14 2.60888 13.9413 2.44443 13.8315C2.27998 13.7216 2.15181 13.5654 2.07612 13.3827C2.00043 13.2 1.98063 12.9989 2.01921 12.8049C2.0578 12.6109 2.15304 12.4327 2.29289 12.2929C2.43274 12.153 2.61093 12.0578 2.80491 12.0192C2.99889 11.9806 3.19996 12.0004 3.38268 12.0761C3.56541 12.1518 3.72159 12.28 3.83147 12.4444C3.94135 12.6089 4 12.8022 4 13C3.99969 13.2651 3.89424 13.5193 3.70677 13.7068C3.5193 13.8942 3.26512 13.9997 3 14ZM11.071 12.5H4.929C4.83945 12.1562 4.65981 11.8426 4.40862 11.5914C4.15743 11.3402 3.84377 11.1605 3.5 11.071V4.929C3.84374 4.8394 4.15738 4.65975 4.40856 4.40856C4.65975 4.15738 4.8394 3.84374 4.929 3.5H11.071C11.1605 3.84377 11.3402 4.15743 11.5914 4.40862C11.8426 4.65981 12.1562 4.83945 12.5 4.929V11.071C12.1562 11.1605 11.8425 11.3401 11.5913 11.5913C11.3401 11.8425 11.1605 12.1562 11.071 12.5ZM13 14C12.8022 14 12.6089 13.9413 12.4444 13.8315C12.28 13.7216 12.1518 13.5654 12.0761 13.3827C12.0004 13.2 11.9806 12.9989 12.0192 12.8049C12.0578 12.6109 12.153 12.4327 12.2929 12.2929C12.4327 12.153 12.6109 12.0578 12.8049 12.0192C12.9989 11.9806 13.2 12.0004 13.3827 12.0761C13.5654 12.1518 13.7216 12.28 13.8315 12.4444C13.9413 12.6089 14 12.8022 14 13C13.9996 13.2651 13.8942 13.5193 13.7067 13.7067C13.5193 13.8942 13.2651 13.9996 13 14Z" fill="currentColor" style="fill-opacity:1"/>
</svg>
