<svg viewBox="0 0 16 16" fill="none" xmlns="http://www.w3.org/2000/svg">
<path d="M12 4.5H11L8 8.78565L5 4.5H4L7.5 9.5L4 14.5H5L8 10.2143L11 14.5H12L8.5 9.5L12 4.5Z" fill="currentColor" style="fill-opacity:1"/>
<path d="M10 3.5C9.11145 3.5 8.3843 3.0637 7.7428 2.67875C7.161 2.3297 6.61145 2 6 2C5.30115 2 4.7755 2.43145 4.35365 2.8535L3.64635 2.14645C4.18005 1.6127 4.9298 0.999954 6 0.999954C6.88855 0.999954 7.6157 1.43625 8.2572 1.8212C8.839 2.17025 9.38855 2.49995 10 2.49995C10.6988 2.49995 11.2244 2.0685 11.6465 1.64635L12.3536 2.3535C11.8199 2.88725 11.07 3.5 10 3.5Z" fill="currentColor" style="fill-opacity:1"/>
</svg>
