<svg viewBox="0 0 16 16" fill="none" xmlns="http://www.w3.org/2000/svg">
<path d="M15 14H1V15H15V14Z" fill="currentColor" style="fill-opacity:1"/>
<path d="M8.605 2.615L9.3 2.805L9.8 8.45L12.735 9.235C12.9713 9.29079 13.1792 9.43063 13.3199 9.62843C13.4607 9.82624 13.5247 10.0685 13.5 10.31C13.4714 10.4893 13.3915 10.6565 13.27 10.7914C13.1484 10.9262 12.9904 11.023 12.815 11.07C12.651 11.1123 12.479 11.1123 12.315 11.07L2.965 8.57C2.72514 8.50437 2.52082 8.34684 2.39634 8.13157C2.27185 7.91629 2.23724 7.66063 2.3 7.42L3.175 4.17L3.895 4.36L4.2 6.95L7.2 7.76L8.605 2.615ZM8.105 1.515C8.02374 1.53899 7.94991 1.58323 7.89043 1.64358C7.83096 1.70393 7.7878 1.7784 7.765 1.86L6.5 6.535L5.095 6.16L4.845 3.895C4.82971 3.80367 4.78936 3.71838 4.72845 3.64864C4.66753 3.57889 4.58844 3.52744 4.5 3.5L2.935 3.07C2.85319 3.04743 2.76681 3.04743 2.685 3.07C2.60432 3.09353 2.53087 3.13702 2.47145 3.19645C2.41202 3.25588 2.36853 3.32932 2.345 3.41L1.345 7.155C1.27924 7.40058 1.26253 7.6567 1.2958 7.90874C1.32907 8.16077 1.41168 8.40378 1.53891 8.62388C1.66614 8.84398 1.83549 9.03685 2.03729 9.19147C2.23909 9.34608 2.46938 9.45942 2.715 9.525L12.07 12.025C12.3302 12.0983 12.6028 12.1163 12.8703 12.0778C13.1378 12.0393 13.3943 11.9451 13.6232 11.8015C13.8522 11.6578 14.0485 11.4678 14.1995 11.2436C14.3505 11.0194 14.4529 10.7661 14.5 10.5C14.5663 10.0115 14.4498 9.51578 14.173 9.10791C13.8961 8.70003 13.4784 8.40876 13 8.29L10.74 7.685L10.265 2.355C10.2539 2.25644 10.2138 2.16341 10.1497 2.08773C10.0856 2.01205 10.0004 1.95715 9.905 1.93L8.365 1.5C8.28286 1.48007 8.19714 1.48007 8.115 1.5L8.105 1.515Z" fill="currentColor" style="fill-opacity:1"/>
</svg>
