<svg viewBox="0 0 16 16" fill="none" xmlns="http://www.w3.org/2000/svg">
<path id="icon" d="M11.5 3V8H14C14.0989 8.00002 14.1955 8.02936 14.2777 8.0843C14.3599 8.13924 14.424 8.21732 14.4619 8.30867C14.4997 8.40002 14.5096 8.50054 14.4903 8.59752C14.471 8.69449 14.4234 8.78357 14.3535 8.8535L8.35352 14.8535C8.30711 14.8999 8.252 14.9368 8.19135 14.9619C8.13069 14.9871 8.06567 15 8.00002 15C7.93436 15 7.86934 14.9871 7.80868 14.9619C7.74803 14.9368 7.69292 14.8999 7.64652 14.8535L1.64652 8.8535C1.57661 8.78357 1.52901 8.69449 1.50972 8.59752C1.49044 8.50054 1.50034 8.40002 1.53818 8.30867C1.57601 8.21732 1.64008 8.13924 1.72229 8.0843C1.80449 8.02936 1.90114 8.00002 2.00002 8H4.50002V3C4.50032 2.73488 4.60577 2.4807 4.79324 2.29323C4.98072 2.10576 5.23489 2.0003 5.50002 2H10.5C10.7651 2.00036 11.0193 2.10583 11.2067 2.29329C11.3942 2.48075 11.4997 2.73489 11.5 3ZM8.00002 13.7929L12.793 9H10.5V3H5.50002V9H3.20707L8.00002 13.7929Z" fill="currentColor" style="fill-opacity:1"/>
</svg>
