<svg viewBox="0 0 16 16" fill="none" xmlns="http://www.w3.org/2000/svg">
<path d="M11 13C11.5523 13 12 12.5523 12 12C12 11.4477 11.5523 11 11 11C10.4477 11 10 11.4477 10 12C10 12.5523 10.4477 13 11 13Z" fill="currentColor" style="fill-opacity:1"/>
<path d="M14.8884 11.7393C14.5795 10.9522 14.0464 10.2732 13.3552 9.78629C12.664 9.29937 11.8451 9.02598 11 9C10.1549 9.02598 9.33603 9.29937 8.64484 9.78629C7.95365 10.2732 7.42052 10.9522 7.11155 11.7393L7 12L7.11155 12.2607C7.42052 13.0478 7.95365 13.7268 8.64484 14.2137C9.33603 14.7006 10.1549 14.974 11 15C11.8451 14.974 12.664 14.7006 13.3552 14.2137C14.0464 13.7268 14.5795 13.0478 14.8884 12.2607L15 12L14.8884 11.7393ZM11 14C10.6044 14 10.2178 13.8827 9.88886 13.6629C9.55996 13.4432 9.30362 13.1308 9.15224 12.7654C9.00087 12.3999 8.96126 11.9978 9.03843 11.6098C9.1156 11.2219 9.30608 10.8655 9.58579 10.5858C9.86549 10.3061 10.2219 10.1156 10.6098 10.0384C10.9978 9.96126 11.3999 10.0009 11.7654 10.1522C12.1308 10.3036 12.4432 10.56 12.6629 10.8889C12.8827 11.2178 13 11.6044 13 12C12.9994 12.5303 12.7885 13.0386 12.4136 13.4136C12.0386 13.7885 11.5302 13.9994 11 14Z" fill="currentColor" style="fill-opacity:1"/>
<path d="M6 12C5.66639 12 5.33808 11.9166 5.04496 11.7573C4.75184 11.598 4.50323 11.3679 4.32175 11.088C4.14027 10.808 4.0317 10.4872 4.00592 10.1546C3.98013 9.82196 4.03796 9.48818 4.17413 9.18363C4.31031 8.87908 4.5205 8.61344 4.78557 8.41088C5.05064 8.20832 5.36217 8.07528 5.69179 8.02388C6.02141 7.97248 6.35866 8.00435 6.67282 8.11659C6.98697 8.22883 7.26807 8.41787 7.4905 8.6665L6.7455 9.3335C6.63432 9.20914 6.49379 9.11456 6.33671 9.05839C6.17964 9.00222 6.01101 8.98624 5.84618 9.0119C5.68134 9.03756 5.52555 9.10405 5.39298 9.2053C5.26042 9.30656 5.15529 9.43938 5.08717 9.59165C5.01905 9.74393 4.9901 9.91082 5.00297 10.0771C5.01584 10.2435 5.07011 10.4039 5.16084 10.5439C5.25157 10.6839 5.37588 10.7989 5.52245 10.8786C5.66902 10.9583 5.83318 11 6 11V12Z" fill="currentColor" style="fill-opacity:1"/>
<path d="M13 0.999953C12.6764 1.00115 12.3583 1.08368 12.075 1.23995L3.87999 5.47995C2.85005 5.96141 2.01517 6.77982 1.51329 7.79997C1.01141 8.82012 0.872568 9.98096 1.11969 11.0907C1.36682 12.2004 1.98513 13.1927 2.87247 13.9034C3.75981 14.6142 4.86307 15.001 5.99999 15V14C5.34281 14.0002 4.69567 13.8386 4.1158 13.5293C3.53593 13.2201 3.0412 12.7727 2.67534 12.2268C2.30948 11.6808 2.08377 11.0532 2.01817 10.3993C1.95256 9.74536 2.04908 9.08537 2.29919 8.47763C2.54931 7.8699 2.9453 7.33316 3.45218 6.91486C3.95905 6.49655 4.56118 6.20958 5.20532 6.07932C5.84947 5.94905 6.51579 5.97951 7.14537 6.16799C7.77495 6.35646 8.34839 6.69716 8.81499 7.15995L9.51499 6.45995C8.78142 5.73081 7.8399 5.24694 6.81999 5.07495L11.01 2.90495C11.01 2.93495 11 2.96495 11 2.99995C10.9999 3.26262 11.0516 3.52272 11.1521 3.76541C11.2526 4.00809 11.3999 4.2286 11.5856 4.41433C11.7714 4.60006 11.9919 4.74738 12.2345 4.84786C12.4772 4.94834 12.7373 5.00003 13 4.99995C13.03 4.99995 13.06 4.98995 13.095 4.98995L11.535 7.99995H12.655L14.78 3.89495C14.9363 3.59112 15.0116 3.25211 14.9986 2.91067C14.9856 2.56924 14.8847 2.23693 14.7058 1.94587C14.5268 1.6548 14.2758 1.41482 13.977 1.24912C13.6782 1.08342 13.3417 0.997598 13 0.999953ZM13 3.99995C12.8022 3.99995 12.6089 3.9413 12.4444 3.83142C12.28 3.72154 12.1518 3.56536 12.0761 3.38264C12.0004 3.19991 11.9806 2.99884 12.0192 2.80486C12.0578 2.61088 12.153 2.4327 12.2929 2.29285C12.4327 2.15299 12.6109 2.05775 12.8049 2.01917C12.9989 1.98058 13.2 2.00039 13.3827 2.07607C13.5654 2.15176 13.7216 2.27993 13.8315 2.44438C13.9413 2.60883 14 2.80217 14 2.99995C13.9992 3.26493 13.8936 3.51884 13.7063 3.70621C13.5189 3.89359 13.265 3.99919 13 3.99995Z" fill="currentColor" style="fill-opacity:1"/>
</svg>
