<svg viewBox="0 0 16 16" fill="none" xmlns="http://www.w3.org/2000/svg">
<path d="M10.5 13.5901L9.205 12.2951L8.5 13.0001L10.5 15.0001L14 11.5001L13.295 10.7951L10.5 13.5901Z" fill="currentColor" style="fill-opacity:1"/>
<path d="M6 12C5.60444 12 5.21776 11.8827 4.88886 11.6629C4.55996 11.4432 4.30361 11.1308 4.15224 10.7654C4.00086 10.3999 3.96126 9.99778 4.03843 9.60982C4.1156 9.22186 4.30608 8.86549 4.58578 8.58579C4.86549 8.30608 5.22186 8.1156 5.60982 8.03843C5.99778 7.96126 6.39991 8.00086 6.76537 8.15224C7.13082 8.30362 7.44318 8.55996 7.66294 8.88886C7.8827 9.21776 8 9.60444 8 10C7.99944 10.5303 7.78855 11.0386 7.4136 11.4136C7.03865 11.7886 6.53026 11.9994 6 12ZM6 9C5.80222 9 5.60888 9.05865 5.44443 9.16853C5.27998 9.27841 5.15181 9.43459 5.07612 9.61732C5.00043 9.80004 4.98063 10.0011 5.01921 10.1951C5.0578 10.3891 5.15304 10.5673 5.29289 10.7071C5.43274 10.847 5.61093 10.9422 5.80491 10.9808C5.99889 11.0194 6.19996 10.9996 6.38268 10.9239C6.56541 10.8482 6.72159 10.72 6.83147 10.5556C6.94135 10.3911 7 10.1978 7 10C6.99969 9.73488 6.89424 9.4807 6.70677 9.29323C6.5193 9.10576 6.26512 9.0003 6 9Z" fill="currentColor" style="fill-opacity:1"/>
<path d="M13 0.999953C12.6764 1.00115 12.3583 1.08368 12.075 1.23995L3.87999 5.47995C2.85005 5.96141 2.01517 6.77982 1.51329 7.79997C1.01141 8.82012 0.872568 9.98096 1.11969 11.0907C1.36682 12.2004 1.98513 13.1927 2.87247 13.9034C3.75981 14.6142 4.86307 15.001 5.99999 15C6.33613 15.001 6.67141 14.9658 6.99999 14.895V13.875C6.67304 13.9574 6.33719 13.9994 5.99999 14C5.20887 14 4.43551 13.7654 3.77771 13.3258C3.11992 12.8863 2.60723 12.2616 2.30447 11.5307C2.00172 10.7998 1.92251 9.99552 2.07685 9.21959C2.23119 8.44367 2.61216 7.73094 3.17157 7.17153C3.73098 6.61212 4.44371 6.23115 5.21963 6.07681C5.99556 5.92247 6.79982 6.00168 7.53073 6.30443C8.26163 6.60719 8.88635 7.11988 9.32587 7.77767C9.7654 8.43547 9.99999 9.20883 9.99999 9.99995C10.0001 10.1671 9.99009 10.334 9.96999 10.5H11.36L14.78 3.89495C14.9363 3.59112 15.0116 3.25211 14.9986 2.91067C14.9856 2.56924 14.8847 2.23693 14.7058 1.94587C14.5268 1.6548 14.2758 1.41482 13.977 1.24912C13.6782 1.08342 13.3417 0.997598 13 0.999953ZM10.93 9.16995C10.7545 8.1453 10.2646 7.20061 9.52818 6.46687C8.79175 5.73313 7.84528 5.24668 6.81999 5.07495L11.01 2.90495C11.01 2.93495 11 2.96495 11 2.99995C10.9999 3.26262 11.0516 3.52272 11.1521 3.76541C11.2526 4.00809 11.3999 4.2286 11.5856 4.41433C11.7714 4.60006 11.9919 4.74738 12.2345 4.84786C12.4772 4.94834 12.7373 5.00003 13 4.99995C13.03 4.99995 13.06 4.98995 13.095 4.98995L10.93 9.16995ZM13 3.99995C12.8022 3.99995 12.6089 3.9413 12.4444 3.83142C12.28 3.72154 12.1518 3.56536 12.0761 3.38264C12.0004 3.19991 11.9806 2.99884 12.0192 2.80486C12.0578 2.61088 12.153 2.4327 12.2929 2.29285C12.4327 2.15299 12.6109 2.05775 12.8049 2.01917C12.9989 1.98058 13.2 2.00039 13.3827 2.07607C13.5654 2.15176 13.7216 2.27993 13.8315 2.44438C13.9413 2.60883 14 2.80217 14 2.99995C13.9992 3.26493 13.8936 3.51884 13.7063 3.70621C13.5189 3.89359 13.265 3.99919 13 3.99995Z" fill="currentColor" style="fill-opacity:1"/>
</svg>
