<svg viewBox="0 0 16 16" fill="none" xmlns="http://www.w3.org/2000/svg">
<path d="M6.0376 12C5.64204 12 5.25536 11.8827 4.92646 11.6629C4.59756 11.4432 4.34121 11.1308 4.18984 10.7654C4.03846 10.3999 3.99886 9.99778 4.07603 9.60982C4.1532 9.22186 4.34368 8.86549 4.62338 8.58579C4.90309 8.30608 5.25946 8.1156 5.64742 8.03843C6.03538 7.96126 6.43751 8.00087 6.80297 8.15224C7.16842 8.30362 7.48077 8.55996 7.70054 8.88886C7.9203 9.21776 8.0376 9.60444 8.0376 10C8.03704 10.5303 7.82615 11.0386 7.4512 11.4136C7.07625 11.7886 6.56786 11.9994 6.0376 12ZM6.0376 9C5.83982 9 5.64648 9.05865 5.48203 9.16853C5.31758 9.27841 5.18941 9.43459 5.11372 9.61732C5.03803 9.80004 5.01823 10.0011 5.05681 10.1951C5.0954 10.3891 5.19064 10.5673 5.33049 10.7071C5.47034 10.847 5.64853 10.9422 5.84251 10.9808C6.03649 11.0194 6.23756 10.9996 6.42028 10.9239C6.60301 10.8482 6.75919 10.72 6.86907 10.5556C6.97895 10.3911 7.0376 10.1978 7.0376 10C7.03729 9.73488 6.93184 9.4807 6.74437 9.29323C6.5569 9.10576 6.30272 9.0003 6.0376 9Z" fill="currentColor" style="fill-opacity:1"/>
<path d="M15 3C14.9994 2.46974 14.7885 1.96135 14.4136 1.5864C14.0386 1.21145 13.5303 1.00056 13 1C12.6762 1.00226 12.3579 1.08413 12.0731 1.2384L3.87855 5.47895C3.15057 5.81964 2.51553 6.33095 2.02734 6.96946C1.53915 7.60797 1.21222 8.35485 1.0743 9.14668C0.936385 9.93852 0.991546 10.7519 1.23511 11.5179C1.47867 12.2839 1.90344 12.9798 2.47336 13.5465C3.04328 14.1133 3.74154 14.5342 4.50885 14.7735C5.27616 15.0128 6.08988 15.0634 6.88093 14.9211C7.67199 14.7787 8.41703 14.4477 9.05282 13.9559C9.6886 13.4642 10.1964 12.8263 10.533 12.0964L14.778 3.89675C14.9219 3.61959 14.9979 3.31227 15 3ZM13 2C13.1978 2 13.3911 2.05865 13.5556 2.16853C13.72 2.27841 13.8482 2.43459 13.9239 2.61732C13.9996 2.80004 14.0194 3.00111 13.9808 3.19509C13.9422 3.38907 13.847 3.56725 13.7071 3.70711C13.5673 3.84696 13.3891 3.9422 13.1951 3.98079C13.0011 4.01937 12.8 3.99957 12.6173 3.92388C12.4346 3.84819 12.2784 3.72002 12.1685 3.55557C12.0586 3.39112 12 3.19778 12 3C12.0003 2.73488 12.1058 2.4807 12.2932 2.29323C12.4807 2.10576 12.7349 2.0003 13 2ZM11.0097 2.90415C11.0081 2.9366 11 2.96715 11 3C11.0006 3.53026 11.2114 4.03865 11.5864 4.4136C11.9613 4.78855 12.4697 4.99944 13 5C13.0322 5 13.0622 4.992 13.0941 4.9905L10.9282 9.17135C10.7536 8.14637 10.2643 7.20114 9.52818 6.4668C8.79209 5.73247 7.8457 5.24543 6.8203 5.07325L11.0097 2.90415ZM6 14C5.20887 14 4.43551 13.7654 3.77772 13.3259C3.11992 12.8864 2.60723 12.2616 2.30448 11.5307C2.00173 10.7998 1.92252 9.99556 2.07686 9.21964C2.2312 8.44371 2.61216 7.73098 3.17157 7.17157C3.73098 6.61216 4.44371 6.2312 5.21964 6.07686C5.99556 5.92252 6.79983 6.00173 7.53073 6.30448C8.26164 6.60723 8.88635 7.11992 9.32588 7.77772C9.7654 8.43552 10 9.20887 10 10C9.99878 11.0605 9.57696 12.0772 8.82708 12.8271C8.0772 13.577 7.06049 13.9988 6 14Z" fill="currentColor" style="fill-opacity:1"/>
</svg>
