<svg viewBox="0 0 16 16" fill="none" xmlns="http://www.w3.org/2000/svg">
<g id="Icons / Asset--digital-twin" clip-path="url(#clip0_0_522)">
<g id="icon">
<path d="M12.5 4.5C13.0523 4.5 13.5 4.05228 13.5 3.5C13.5 2.94772 13.0523 2.5 12.5 2.5C11.9477 2.5 11.5 2.94772 11.5 3.5C11.5 4.05228 11.9477 4.5 12.5 4.5Z" fill="currentColor" style="fill-opacity:1"/>
<path d="M6 11.5C5.70333 11.5 5.41332 11.412 5.16664 11.2472C4.91997 11.0824 4.72771 10.8481 4.61418 10.574C4.50065 10.2999 4.47094 9.99833 4.52882 9.70736C4.5867 9.41639 4.72956 9.14912 4.93934 8.93934C5.14912 8.72956 5.41639 8.5867 5.70736 8.52882C5.99833 8.47094 6.29993 8.50065 6.57402 8.61418C6.84811 8.72771 7.08238 8.91997 7.2472 9.16664C7.41203 9.41332 7.5 9.70333 7.5 10C7.49956 10.3977 7.34139 10.779 7.06018 11.0602C6.77897 11.3414 6.39769 11.4996 6 11.5ZM6 9.5C5.90111 9.5 5.80444 9.52932 5.72221 9.58426C5.63999 9.6392 5.5759 9.71729 5.53806 9.80866C5.50022 9.90002 5.49031 10.0006 5.50961 10.0975C5.5289 10.1945 5.57652 10.2836 5.64645 10.3536C5.71637 10.4235 5.80546 10.4711 5.90245 10.4904C5.99944 10.5097 6.09998 10.4998 6.19134 10.4619C6.2827 10.4241 6.36079 10.36 6.41573 10.2778C6.47067 10.1956 6.5 10.0989 6.5 10C6.49987 9.86743 6.44715 9.74033 6.35341 9.64659C6.25967 9.55285 6.13257 9.50013 6 9.5Z" fill="currentColor" style="fill-opacity:1"/>
<path d="M6 7.5C6.27614 7.5 6.5 7.27614 6.5 7C6.5 6.72386 6.27614 6.5 6 6.5C5.72386 6.5 5.5 6.72386 5.5 7C5.5 7.27614 5.72386 7.5 6 7.5Z" fill="currentColor" style="fill-opacity:1"/>
<path d="M8.95439 3.35231C9.23054 3.35231 9.45439 3.12845 9.45439 2.85231C9.45439 2.57616 9.23054 2.3523 8.95439 2.3523C8.67825 2.3523 8.45439 2.57616 8.45439 2.85231C8.45439 3.12845 8.67825 3.35231 8.95439 3.35231Z" fill="currentColor" style="fill-opacity:1"/>
<path d="M4.89375 5.45343C5.16989 5.45343 5.39375 5.22957 5.39375 4.95343C5.39375 4.67729 5.16989 4.45343 4.89375 4.45343C4.61761 4.45343 4.39375 4.67729 4.39375 4.95343C4.39375 5.22957 4.61761 5.45343 4.89375 5.45343Z" fill="currentColor" style="fill-opacity:1"/>
<path d="M6.24736 4.75317C6.5235 4.75317 6.74736 4.52931 6.74736 4.25317C6.74736 3.97703 6.5235 3.75317 6.24736 3.75317C5.97121 3.75317 5.74736 3.97703 5.74736 4.25317C5.74736 4.52931 5.97121 4.75317 6.24736 4.75317Z" fill="currentColor" style="fill-opacity:1"/>
<path d="M7.60071 4.05261C7.87685 4.05261 8.10071 3.82875 8.10071 3.55261C8.10071 3.27647 7.87685 3.05261 7.60071 3.05261C7.32456 3.05261 7.10071 3.27647 7.10071 3.55261C7.10071 3.82875 7.32456 4.05261 7.60071 4.05261Z" fill="currentColor" style="fill-opacity:1"/>
<path d="M2.3481 7.09359C2.62424 7.09359 2.8481 6.86974 2.8481 6.59359C2.8481 6.31745 2.62424 6.09359 2.3481 6.09359C2.07196 6.09359 1.8481 6.31745 1.8481 6.59359C1.8481 6.86974 2.07196 7.09359 2.3481 7.09359Z" fill="currentColor" style="fill-opacity:1"/>
<path d="M1.06635 11.3156C1.3425 11.3156 1.56635 11.0917 1.56635 10.8156C1.56635 10.5394 1.3425 10.3156 1.06635 10.3156C0.790212 10.3156 0.566355 10.5394 0.566355 10.8156C0.566355 11.0917 0.790212 11.3156 1.06635 11.3156Z" fill="currentColor" style="fill-opacity:1"/>
<path d="M1.53935 12.7578C1.81549 12.7578 2.03935 12.534 2.03935 12.2578C2.03935 11.9817 1.81549 11.7578 1.53935 11.7578C1.26321 11.7578 1.03935 11.9817 1.03935 12.2578C1.03935 12.534 1.26321 12.7578 1.53935 12.7578Z" fill="currentColor" style="fill-opacity:1"/>
<path d="M2.42424 13.9912C2.70039 13.9912 2.92424 13.7673 2.92424 13.4912C2.92424 13.215 2.70039 12.9912 2.42424 12.9912C2.1481 12.9912 1.92424 13.215 1.92424 13.4912C1.92424 13.7673 2.1481 13.9912 2.42424 13.9912Z" fill="currentColor" style="fill-opacity:1"/>
<path d="M3.63611 14.905C3.91225 14.905 4.13611 14.6812 4.13611 14.405C4.13611 14.1289 3.91225 13.905 3.63611 13.905C3.35996 13.905 3.13611 14.1289 3.13611 14.405C3.13611 14.6812 3.35996 14.905 3.63611 14.905Z" fill="currentColor" style="fill-opacity:1"/>
<path d="M1.0491 9.79811C1.32524 9.79811 1.5491 9.57425 1.5491 9.29811C1.5491 9.02196 1.32524 8.79811 1.0491 8.79811C0.772955 8.79811 0.549097 9.02196 0.549097 9.29811C0.549097 9.57425 0.772955 9.79811 1.0491 9.79811Z" fill="currentColor" style="fill-opacity:1"/>
<path d="M1.4897 8.34554C1.76584 8.34554 1.9897 8.12168 1.9897 7.84554C1.9897 7.5694 1.76584 7.34554 1.4897 7.34554C1.21356 7.34554 0.9897 7.5694 0.9897 7.84554C0.9897 8.12168 1.21356 8.34554 1.4897 8.34554Z" fill="currentColor" style="fill-opacity:1"/>
<path d="M3.5405 6.15405C3.81665 6.15405 4.0405 5.93019 4.0405 5.65405C4.0405 5.3779 3.81665 5.15405 3.5405 5.15405C3.26436 5.15405 3.0405 5.3779 3.0405 5.65405C3.0405 5.93019 3.26436 6.15405 3.5405 6.15405Z" fill="currentColor" style="fill-opacity:1"/>
<path d="M10.3081 2.65194C10.5842 2.65194 10.8081 2.42809 10.8081 2.15194C10.8081 1.8758 10.5842 1.65194 10.3081 1.65194C10.032 1.65194 9.80809 1.8758 9.80809 2.15194C9.80809 2.42809 10.032 2.65194 10.3081 2.65194Z" fill="currentColor" style="fill-opacity:1"/>
<path d="M11.6616 1.95128C11.9377 1.95128 12.1616 1.72743 12.1616 1.45128C12.1616 1.17514 11.9377 0.951284 11.6616 0.951284C11.3855 0.951284 11.1616 1.17514 11.1616 1.45128C11.1616 1.72743 11.3855 1.95128 11.6616 1.95128Z" fill="currentColor" style="fill-opacity:1"/>
<path d="M14.4941 4.94498C14.7702 4.94498 14.9941 4.72112 14.9941 4.44498C14.9941 4.16883 14.7702 3.94498 14.4941 3.94498C14.218 3.94498 13.9941 4.16883 13.9941 4.44498C13.9941 4.72112 14.218 4.94498 14.4941 4.94498Z" fill="currentColor" style="fill-opacity:1"/>
<path d="M13.7934 6.2982C14.0695 6.2982 14.2934 6.07435 14.2934 5.7982C14.2934 5.52206 14.0695 5.2982 13.7934 5.2982C13.5173 5.2982 13.2934 5.52206 13.2934 5.7982C13.2934 6.07435 13.5173 6.2982 13.7934 6.2982Z" fill="currentColor" style="fill-opacity:1"/>
<path d="M13.0928 7.65149C13.3689 7.65149 13.5928 7.42763 13.5928 7.15149C13.5928 6.87535 13.3689 6.65149 13.0928 6.65149C12.8167 6.65149 12.5928 6.87535 12.5928 7.15149C12.5928 7.42763 12.8167 7.65149 13.0928 7.65149Z" fill="currentColor" style="fill-opacity:1"/>
<path d="M12.3921 9.00497C12.6682 9.00497 12.8921 8.78111 12.8921 8.50497C12.8921 8.22883 12.6682 8.00497 12.3921 8.00497C12.116 8.00497 11.8921 8.22883 11.8921 8.50497C11.8921 8.78111 12.116 9.00497 12.3921 9.00497Z" fill="currentColor" style="fill-opacity:1"/>
<path d="M11.6915 10.3582C11.9676 10.3582 12.1915 10.1343 12.1915 9.8582C12.1915 9.58206 11.9676 9.3582 11.6915 9.3582C11.4154 9.3582 11.1915 9.58206 11.1915 9.8582C11.1915 10.1343 11.4154 10.3582 11.6915 10.3582Z" fill="currentColor" style="fill-opacity:1"/>
<path d="M10.991 11.712C11.2671 11.712 11.491 11.4881 11.491 11.212C11.491 10.9358 11.2671 10.712 10.991 10.712C10.7149 10.712 10.491 10.9358 10.491 11.212C10.491 11.4881 10.7149 11.712 10.991 11.712Z" fill="currentColor" style="fill-opacity:1"/>
<path d="M9.31825 14.2321C9.59439 14.2321 9.81825 14.0083 9.81825 13.7321C9.81825 13.456 9.59439 13.2321 9.31825 13.2321C9.0421 13.2321 8.81825 13.456 8.81825 13.7321C8.81825 14.0083 9.0421 14.2321 9.31825 14.2321Z" fill="currentColor" style="fill-opacity:1"/>
<path d="M8.04596 15.0607C8.3221 15.0607 8.54596 14.8369 8.54596 14.5607C8.54596 14.2846 8.3221 14.0607 8.04596 14.0607C7.76981 14.0607 7.54596 14.2846 7.54596 14.5607C7.54596 14.8369 7.76981 15.0607 8.04596 15.0607Z" fill="currentColor" style="fill-opacity:1"/>
<path d="M6.58305 15.4661C6.85919 15.4661 7.08305 15.2423 7.08305 14.9661C7.08305 14.69 6.85919 14.4661 6.58305 14.4661C6.3069 14.4661 6.08305 14.69 6.08305 14.9661C6.08305 15.2423 6.3069 15.4661 6.58305 15.4661Z" fill="currentColor" style="fill-opacity:1"/>
<path d="M5.06635 15.4125C5.3425 15.4125 5.56635 15.1887 5.56635 14.9125C5.56635 14.6364 5.3425 14.4125 5.06635 14.4125C4.79021 14.4125 4.56635 14.6364 4.56635 14.9125C4.56635 15.1887 4.79021 15.4125 5.06635 15.4125Z" fill="currentColor" style="fill-opacity:1"/>
<path d="M10.2857 13.0625C10.5619 13.0625 10.7857 12.8386 10.7857 12.5625C10.7857 12.2864 10.5619 12.0625 10.2857 12.0625C10.0096 12.0625 9.78575 12.2864 9.78575 12.5625C9.78575 12.8386 10.0096 13.0625 10.2857 13.0625Z" fill="currentColor" style="fill-opacity:1"/>
<path d="M14.4464 2.11998C14.7225 2.11998 14.9464 1.89613 14.9464 1.61998C14.9464 1.34384 14.7225 1.11998 14.4464 1.11998C14.1702 1.11998 13.9464 1.34384 13.9464 1.61998C13.9464 1.89613 14.1702 2.11998 14.4464 2.11998Z" fill="currentColor" style="fill-opacity:1"/>
<path d="M13.0941 1.50215C13.3702 1.50215 13.5941 1.27829 13.5941 1.00215C13.5941 0.726005 13.3702 0.502147 13.0941 0.502147C12.818 0.502147 12.5941 0.726005 12.5941 1.00215C12.5941 1.27829 12.818 1.50215 13.0941 1.50215Z" fill="currentColor" style="fill-opacity:1"/>
<path d="M6 13.5C6.27614 13.5 6.5 13.2761 6.5 13C6.5 12.7239 6.27614 12.5 6 12.5C5.72386 12.5 5.5 12.7239 5.5 13C5.5 13.2761 5.72386 13.5 6 13.5Z" fill="currentColor" style="fill-opacity:1"/>
<path d="M3 10.5C3.27614 10.5 3.5 10.2761 3.5 10C3.5 9.72386 3.27614 9.5 3 9.5C2.72386 9.5 2.5 9.72386 2.5 10C2.5 10.2761 2.72386 10.5 3 10.5Z" fill="currentColor" style="fill-opacity:1"/>
<path d="M9 10.5C9.27614 10.5 9.5 10.2761 9.5 10C9.5 9.72386 9.27614 9.5 9 9.5C8.72386 9.5 8.5 9.72386 8.5 10C8.5 10.2761 8.72386 10.5 9 10.5Z" fill="currentColor" style="fill-opacity:1"/>
<path d="M3.4019 9C3.67804 9 3.9019 8.77614 3.9019 8.5C3.9019 8.22386 3.67804 8 3.4019 8C3.12576 8 2.9019 8.22386 2.9019 8.5C2.9019 8.77614 3.12576 9 3.4019 9Z" fill="currentColor" style="fill-opacity:1"/>
<path d="M8.5981 12C8.87424 12 9.0981 11.7761 9.0981 11.5C9.0981 11.2239 8.87424 11 8.5981 11C8.32196 11 8.0981 11.2239 8.0981 11.5C8.0981 11.7761 8.32196 12 8.5981 12Z" fill="currentColor" style="fill-opacity:1"/>
<path d="M4.5 13.0981C4.77614 13.0981 5 12.8742 5 12.5981C5 12.3219 4.77614 12.0981 4.5 12.0981C4.22386 12.0981 4 12.3219 4 12.5981C4 12.8742 4.22386 13.0981 4.5 13.0981Z" fill="currentColor" style="fill-opacity:1"/>
<path d="M7.5 7.90194C7.77614 7.90194 8 7.67809 8 7.40194C8 7.1258 7.77614 6.90194 7.5 6.90194C7.22386 6.90194 7 7.1258 7 7.40194C7 7.67809 7.22386 7.90194 7.5 7.90194Z" fill="currentColor" style="fill-opacity:1"/>
<path d="M4.5 7.90194C4.77614 7.90194 5 7.67809 5 7.40194C5 7.1258 4.77614 6.90194 4.5 6.90194C4.22386 6.90194 4 7.1258 4 7.40194C4 7.67809 4.22386 7.90194 4.5 7.90194Z" fill="currentColor" style="fill-opacity:1"/>
<path d="M7.5 13.0981C7.77614 13.0981 8 12.8742 8 12.5981C8 12.3219 7.77614 12.0981 7.5 12.0981C7.22386 12.0981 7 12.3219 7 12.5981C7 12.8742 7.22386 13.0981 7.5 13.0981Z" fill="currentColor" style="fill-opacity:1"/>
<path d="M3.4019 12C3.67804 12 3.9019 11.7761 3.9019 11.5C3.9019 11.2239 3.67804 11 3.4019 11C3.12576 11 2.9019 11.2239 2.9019 11.5C2.9019 11.7761 3.12576 12 3.4019 12Z" fill="currentColor" style="fill-opacity:1"/>
<path d="M8.5981 9C8.87424 9 9.0981 8.77614 9.0981 8.5C9.0981 8.22386 8.87424 8 8.5981 8C8.32196 8 8.0981 8.22386 8.0981 8.5C8.0981 8.77614 8.32196 9 8.5981 9Z" fill="currentColor" style="fill-opacity:1"/>
<path d="M15.0001 3.5129C15.2762 3.5129 15.5001 3.28905 15.5001 3.0129C15.5001 2.73676 15.2762 2.5129 15.0001 2.5129C14.724 2.5129 14.5001 2.73676 14.5001 3.0129C14.5001 3.28905 14.724 3.5129 15.0001 3.5129Z" fill="currentColor" style="fill-opacity:1"/>
</g>
</g>
<defs>
<clipPath id="clip0_0_522">
<rect width="16" height="16" fill="currentColor" style="fill-opacity:1"/>
</clipPath>
</defs>
</svg>
