<svg viewBox="0 0 16 16" fill="none" xmlns="http://www.w3.org/2000/svg">
<path id="icon" d="M8 1.5C7.14492 1.49468 6.2973 1.65919 5.50628 1.98396C4.71527 2.30873 3.9966 2.78732 3.39196 3.39196C2.78732 3.9966 2.30874 4.71527 1.98396 5.50628C1.65919 6.2973 1.49469 7.14492 1.5 8V8.5C1.5 10.2239 2.18482 11.8772 3.4038 13.0962C4.62279 14.3152 6.27609 15 8 15H11.5V14H8C6.54131 14 5.14236 13.4205 4.11091 12.3891C3.07946 11.3576 2.5 9.95869 2.5 8.5V8C2.49602 7.27661 2.63556 6.55963 2.91056 5.89054C3.18555 5.22145 3.59052 4.61356 4.10204 4.10204C4.61356 3.59052 5.22145 3.18555 5.89054 2.91055C6.55963 2.63556 7.27661 2.49602 8 2.5C8.72904 2.47488 9.45546 2.59997 10.1341 2.86748C10.8128 3.13499 11.4291 3.53922 11.945 4.05503C12.4608 4.57085 12.865 5.18723 13.1325 5.86589C13.4 6.54454 13.5251 7.27095 13.5 8C13.5 9.795 12.8 10.5 11.67 10.5C10.88 10.5 10.5 9.855 10.5 9V5H9.5V5.97C9.32565 5.66307 9.07007 5.41015 8.76134 5.23902C8.45261 5.06789 8.10267 4.98519 7.75 5C7.02503 4.99733 6.32855 5.28209 5.81311 5.79191C5.29767 6.30172 5.00528 6.99504 5 7.72V8.78C5.00528 9.50495 5.29767 10.1983 5.81311 10.7081C6.32855 11.2179 7.02503 11.5027 7.75 11.5C8.16697 11.5122 8.57842 11.4023 8.93375 11.1838C9.28908 10.9652 9.57279 10.6476 9.75 10.27C9.92748 10.6379 10.205 10.9484 10.5507 11.1659C10.8965 11.3835 11.2965 11.4992 11.705 11.5C13.24 11.5 14.5 10.5 14.5 8C14.5191 7.14117 14.3641 6.28737 14.0442 5.49011C13.7243 4.69285 13.2462 3.96865 12.6388 3.36122C12.0313 2.75379 11.3071 2.2757 10.5099 1.95582C9.71263 1.63593 8.85883 1.48087 8 1.5V1.5ZM9.5 8.78C9.5 9.24412 9.31562 9.68924 8.98743 10.0174C8.65925 10.3456 8.21413 10.53 7.75 10.53C7.28587 10.53 6.84075 10.3456 6.51256 10.0174C6.18437 9.68924 6 9.24412 6 8.78V7.72C6 7.25587 6.18437 6.81075 6.51256 6.48256C6.84075 6.15437 7.28587 5.97 7.75 5.97C8.21413 5.97 8.65925 6.15437 8.98743 6.48256C9.31562 6.81075 9.5 7.25587 9.5 7.72V8.78Z" fill="currentColor" style="fill-opacity:1"/>
</svg>
