<svg viewBox="0 0 16 16" fill="none" xmlns="http://www.w3.org/2000/svg">
<g id="Icons / Attachment" clip-path="url(#clip0_0_654)">
<path id="icon" d="M14.05 9.45L6.54999 1.95C5.29999 0.65 3.24999 0.65 1.94999 1.9C0.649994 3.15 0.649994 5.25 1.94999 6.5L1.99999 6.55L3.39999 8L4.09999 7.3L2.64999 5.85C1.79999 5 1.79999 3.55 2.64999 2.7C3.49999 1.85 4.94999 1.8 5.79999 2.65C5.79999 2.65 5.79999 2.65 5.84999 2.7L13.3 10.15C14.2 11 14.2 12.45 13.35 13.3C12.5 14.2 11.05 14.2 10.2 13.35C10.2 13.35 10.2 13.35 10.15 13.3L6.44999 9.6C5.94999 9.1 5.99999 8.3 6.44999 7.85C6.94999 7.4 7.69999 7.4 8.19999 7.85L10.25 9.9L10.95 9.2L8.84999 7.1C7.94999 6.25 6.54999 6.3 5.69999 7.2C4.89999 8.05 4.89999 9.4 5.69999 10.3L9.44999 14.05C10.7 15.35 12.75 15.35 14.05 14.1C15.35 12.85 15.35 10.75 14.05 9.45C14.05 9.45 14.05 9.5 14.05 9.45Z" fill="currentColor" style="fill-opacity:1"/>
</g>
<defs>
<clipPath id="clip0_0_654">
<rect width="16" height="16" fill="currentColor" style="fill-opacity:1"/>
</clipPath>
</defs>
</svg>
