<svg viewBox="0 0 32 32" fill="none" xmlns="http://www.w3.org/2000/svg">
<path id="icon" d="M27.255 19.255L30.509 16L27.255 12.746L26.745 13.255L29.131 15.641H16.149L9.36 8.85V5.36H29.131L26.745 7.746L27.255 8.255L30.509 5L27.255 1.746L26.745 2.255L29.131 4.641H9C8.801 4.64 8.64 4.801 8.64 5V8.85L1.745 15.746C1.604 15.887 1.604 16.114 1.745 16.255L8.64 23.15V27C8.64 27.199 8.801 27.36 9 27.36H29.131L26.745 29.745L27.255 30.255L30.509 27L27.255 23.745L26.745 24.255L29.131 26.64H9.36V23.15L16.149 16.36H29.131L26.745 18.745L27.255 19.255ZM9 22.491L2.509 16L9 9.508L15.491 16L9 22.491Z" fill="currentColor" style="fill-opacity:1"/>
</svg>
