<svg viewBox="0 0 16 16" fill="none" xmlns="http://www.w3.org/2000/svg">
<path d="M12.5 5.5H7.5C7.36739 5.5 7.24021 5.55268 7.14644 5.64645C7.05267 5.74021 7 5.86739 7 6V8C7.00117 8.70831 7.25274 9.3934 7.71023 9.93415C8.16772 10.4749 8.80166 10.8365 9.5 10.955V14H8V15H12V14H10.5V10.955C11.1983 10.8365 11.8323 10.4749 12.2898 9.93415C12.7473 9.3934 12.9988 8.70831 13 8V6C13 5.86739 12.9473 5.74021 12.8535 5.64645C12.7598 5.55268 12.6326 5.5 12.5 5.5ZM12 8C12 8.53043 11.7893 9.03914 11.4142 9.41421C11.0391 9.78929 10.5304 10 10 10C9.46956 10 8.96086 9.78929 8.58578 9.41421C8.21071 9.03914 8 8.53043 8 8V6.5H12V8Z" fill="currentColor" style="fill-opacity:1"/>
<path d="M7.5 0.5H5C4.86739 0.5 4.74021 0.552678 4.64644 0.646447C4.55267 0.740215 4.5 0.867392 4.5 1V4.6853C4.01418 4.96992 3.6168 5.38366 3.352 5.88055C3.08719 6.37744 2.96535 6.93802 3 7.5V14.5C3 14.6326 3.05267 14.7598 3.14644 14.8536C3.24021 14.9473 3.36739 15 3.5 15H6V14H4V7.5C4 5.90625 5.1155 5.49 5.1582 5.47435L5.5 5.36035V1.5H7V4H8V1C8 0.867392 7.94732 0.740215 7.85355 0.646447C7.75978 0.552678 7.6326 0.5 7.5 0.5Z" fill="currentColor" style="fill-opacity:1"/>
</svg>
