<svg viewBox="0 0 16 16" fill="none" xmlns="http://www.w3.org/2000/svg">
<path id="icon" d="M13.7637 1.3545C13.6699 1.24333 13.553 1.15399 13.4211 1.09276C13.2891 1.03152 13.1454 0.999863 13 1H11.6546C11.5152 0.999986 11.3787 1.03878 11.2602 1.11202C11.1417 1.18527 11.0459 1.29008 10.9836 1.4147L10.6909 2H10V1.75C10 1.55109 9.92099 1.36032 9.78034 1.21967C9.63969 1.07902 9.44892 1 9.25001 1H6.75001C6.5511 1 6.36033 1.07902 6.21968 1.21967C6.07903 1.36032 6.00001 1.55109 6.00001 1.75V2H5.30911L5.01661 1.415C4.95424 1.29029 4.85837 1.18541 4.73975 1.11211C4.62113 1.03881 4.48445 0.99999 4.34501 1H3.00001C2.85461 1.00003 2.71097 1.03176 2.5791 1.09299C2.44722 1.15421 2.33028 1.24346 2.23643 1.35451C2.14258 1.46556 2.07407 1.59574 2.03568 1.73598C1.9973 1.87621 1.98995 2.02313 2.01416 2.1665L2.36621 4.25C2.42528 4.59948 2.6062 4.91676 2.8769 5.14557C3.14759 5.37438 3.49057 5.49995 3.84501 5.5H4.00001V11.5C3.60232 11.5004 3.22104 11.6586 2.93983 11.9398C2.65862 12.221 2.50044 12.6023 2.50001 13V15H13.5V13C13.4996 12.6023 13.3414 12.221 13.0602 11.9398C12.779 11.6586 12.3977 11.5004 12 11.5V5.5H12.155C12.5095 5.49998 12.8525 5.37444 13.1232 5.14562C13.3939 4.91681 13.5749 4.59951 13.634 4.25L13.986 2.1665C14.0104 2.02313 14.0032 1.87615 13.9647 1.73588C13.9263 1.59561 13.8577 1.46544 13.7637 1.3545V1.3545ZM12.5 13V14H3.50001V13C3.50013 12.8674 3.55284 12.7403 3.64659 12.6466C3.74033 12.5528 3.86744 12.5001 4.00001 12.5H12C12.1326 12.5001 12.2597 12.5528 12.3534 12.6466C12.4472 12.7403 12.4999 12.8674 12.5 13V13ZM11 11.5H5.00001V5.5H11V11.5ZM12.648 4.0835C12.6285 4.20007 12.5682 4.30593 12.4779 4.38221C12.3876 4.45849 12.2732 4.50023 12.155 4.5H3.84501C3.72675 4.50027 3.61223 4.45851 3.52191 4.38218C3.43158 4.30585 3.37131 4.1999 3.35186 4.08325L3.00001 2H4.19091L4.69091 3H7.00001V2H9.00001V3H11.3086L11.8091 2H13L12.648 4.0835Z" fill="currentColor" style="fill-opacity:1"/>
</svg>
