<svg viewBox="0 0 16 17.5131" fill="none" xmlns="http://www.w3.org/2000/svg">
<path d="M12 10.9457V13.1348H10V15.3239H8V16.4185H11V14.2294H13V12.0402H15V10.9457H12Z" fill="currentColor" style="fill-opacity:1"/>
<path d="M4 2.18913H8V5.47284C8 6.07622 8.4486 6.5674 9 6.5674H12V8.75654H13V5.47284C13 5.32775 12.9473 5.18852 12.8535 5.08591L9.3535 1.25492C9.25975 1.15231 9.13255 1.09457 9 1.09457H4C3.4486 1.09457 3 1.58575 3 2.18913V15.3239C3 15.9273 3.4486 16.4185 4 16.4185H6V15.3239H4V2.18913ZM11.7928 5.47284H9V2.41577L11.7928 5.47284Z" fill="currentColor" style="fill-opacity:1"/>
</svg>
