<svg viewBox="0 0 16 16" fill="none" xmlns="http://www.w3.org/2000/svg">
<path d="M6.5 5C7.05229 5 7.5 4.55228 7.5 4C7.5 3.44772 7.05229 3 6.5 3C5.94772 3 5.5 3.44772 5.5 4C5.5 4.55228 5.94772 5 6.5 5Z" fill="currentColor" style="fill-opacity:1"/>
<path d="M9.5 5C10.0523 5 10.5 4.55228 10.5 4C10.5 3.44772 10.0523 3 9.5 3C8.94772 3 8.5 3.44772 8.5 4C8.5 4.55228 8.94772 5 9.5 5Z" fill="currentColor" style="fill-opacity:1"/>
<path d="M15.9042 4.3325C15.8711 4.25256 15.815 4.18423 15.7431 4.13617C15.6711 4.08811 15.5865 4.06247 15.5 4.0625H14.5C12.395 4.0625 10.6395 5.0635 9.9176 6.5132C9.69283 6.21773 9.40281 5.97821 9.07019 5.81332C8.73758 5.64843 8.37135 5.56264 8.0001 5.56264C7.62886 5.56264 7.26263 5.64843 6.93001 5.81332C6.59739 5.97821 6.30738 6.21773 6.0826 6.5132C5.3605 5.0635 3.605 4.0625 1.5 4.0625H0.500004C0.413438 4.06247 0.32881 4.08812 0.256831 4.13621C0.184853 4.1843 0.12876 4.25267 0.0956549 4.33265C0.0625494 4.41264 0.0539192 4.50065 0.0708568 4.58554C0.0877944 4.67043 0.129538 4.74839 0.190804 4.80955L0.241704 4.86C0.678139 5.21269 0.993567 5.69284 1.14396 6.23344C1.29435 6.77403 1.2722 7.3481 1.0806 7.8755C1.06124 7.94078 1.05737 8.00968 1.06932 8.07671C1.08126 8.14375 1.10869 8.20707 1.14941 8.26164C1.19014 8.31621 1.24304 8.36052 1.3039 8.39105C1.36476 8.42158 1.43191 8.43749 1.5 8.4375C1.69513 8.42198 1.89137 8.44616 2.07689 8.50861C2.2624 8.57105 2.43333 8.67045 2.57935 8.8008C3.0685 9.2915 3.06505 10.2444 3.06275 10.8748V10.9998C3.06272 11.0572 3.074 11.1141 3.09596 11.1672C3.11792 11.2203 3.15012 11.2685 3.19072 11.3092C3.23132 11.3498 3.27953 11.3821 3.3326 11.4041C3.38567 11.4261 3.44255 11.4375 3.5 11.4375H5.5625V11.5C5.5625 12.1465 5.81931 12.7665 6.27643 13.2236C6.73355 13.6807 7.35354 13.9375 8 13.9375C8.64647 13.9375 9.26646 13.6807 9.72358 13.2236C10.1807 12.7665 10.4375 12.1465 10.4375 11.5V11.4375H12.5C12.616 11.4375 12.7273 11.3914 12.8094 11.3094C12.8914 11.2273 12.9375 11.116 12.9375 11V10.875C12.9352 10.2446 12.9318 9.29175 13.4209 8.80105C13.5669 8.67069 13.7378 8.57126 13.9232 8.50877C14.1087 8.44629 14.3049 8.42204 14.5 8.4375C14.5681 8.43749 14.6352 8.42158 14.6961 8.39105C14.757 8.36052 14.8099 8.31621 14.8506 8.26164C14.8913 8.20707 14.9187 8.14375 14.9307 8.07671C14.9426 8.00968 14.9388 7.94078 14.9194 7.8755C14.7279 7.34828 14.7058 6.77443 14.856 6.23401C15.0063 5.69359 15.3215 5.21355 15.7577 4.86085L15.8093 4.80935C15.8705 4.74816 15.9122 4.67019 15.9291 4.58531C15.946 4.50043 15.9373 4.41245 15.9042 4.3325ZM8 6.4375C8.41426 6.43798 8.81141 6.60275 9.10433 6.89567C9.39725 7.18859 9.56203 7.58575 9.5625 8V8.0625H6.4375V8C6.43798 7.58575 6.60275 7.18859 6.89568 6.89567C7.1886 6.60275 7.58575 6.43798 8 6.4375ZM6.4375 8.9375H9.5625V10.5625H6.4375V8.9375ZM3.93715 10.5625C3.92825 9.833 3.8452 8.83155 3.1991 8.1831C2.88435 7.87431 2.48014 7.67276 2.0441 7.6072C2.1435 7.14734 2.14428 6.67164 2.04639 6.21146C1.9485 5.75128 1.75416 5.31708 1.4762 4.9375H1.5C3.7781 4.9375 5.5625 6.2825 5.5625 8V10.5625H3.93715ZM9.5625 11.5C9.5625 11.9144 9.39788 12.3118 9.10486 12.6049C8.81183 12.8979 8.4144 13.0625 8 13.0625C7.5856 13.0625 7.18817 12.8979 6.89515 12.6049C6.60212 12.3118 6.4375 11.9144 6.4375 11.5V11.4375H9.5625V11.5ZM13.9559 7.6072C13.5199 7.67276 13.1157 7.87431 12.8009 8.1831C12.1548 8.83155 12.0718 9.8331 12.0629 10.5625H10.4375V8C10.4375 6.2827 12.2219 4.9375 14.5 4.9375H14.5241C14.246 5.31705 14.0516 5.75124 13.9537 6.21143C13.8558 6.67161 13.8565 7.14733 13.9559 7.6072Z" fill="currentColor" style="fill-opacity:1"/>
</svg>
