<svg viewBox="0 0 16 16" fill="none" xmlns="http://www.w3.org/2000/svg">
<path d="M14 13.295L2.705 2L2 2.705L7.295 8L3.5 11.795L4.205 12.5L7.5 9.205V14.5C7.49976 14.5956 7.52696 14.6893 7.57836 14.77C7.62976 14.8506 7.70321 14.9148 7.79 14.955C7.8562 14.9842 7.92766 14.9995 8 15C8.11917 15 8.23443 14.9575 8.325 14.88L11.475 12.18L13.295 14L14 13.295ZM8.5 13.415V9.205L10.765 11.47L8.5 13.415Z" fill="currentColor" style="fill-opacity:1"/>
<path d="M8.5 6.375V2.585L10.765 4.53L8.71 6.585L9.415 7.29L11.855 4.855C11.9013 4.80828 11.938 4.75288 11.9629 4.69196C11.9878 4.63104 12.0004 4.56581 12 4.5C11.9972 4.43118 11.9802 4.36368 11.9501 4.30173C11.92 4.23978 11.8774 4.18472 11.825 4.14L8.325 1.14C8.25237 1.07758 8.16334 1.03732 8.0685 1.02403C7.97366 1.01073 7.87699 1.02495 7.79 1.065C7.70623 1.10369 7.6348 1.16481 7.58362 1.24158C7.53243 1.31836 7.50349 1.4078 7.5 1.5V5.375L8.5 6.375Z" fill="currentColor" style="fill-opacity:1"/>
</svg>
