<svg viewBox="0 0 16 16" fill="none" xmlns="http://www.w3.org/2000/svg">
<path id="icon-arrow" d="M8 15C7.92766 14.9995 7.8562 14.9842 7.79 14.955C7.70321 14.9148 7.62976 14.8506 7.57836 14.77C7.52696 14.6893 7.49976 14.5956 7.5 14.5V9.20501L4.205 12.5L3.5 11.795L7.295 8.00001L3.5 4.20501L4.205 3.50001L7.5 6.79501V1.50001C7.49976 1.40437 7.52696 1.31068 7.57836 1.23003C7.62976 1.14939 7.70321 1.08517 7.79 1.04501C7.87699 1.00496 7.97366 0.990737 8.0685 1.00403C8.16334 1.01733 8.25237 1.05758 8.325 1.12001L11.825 4.12001C11.8799 4.16695 11.9239 4.22523 11.9542 4.29082C11.9844 4.35642 12 4.42779 12 4.50001C12.0031 4.56915 11.9918 4.63817 11.9669 4.70272C11.9419 4.76727 11.9038 4.82594 11.855 4.87501L8.705 8.00001L11.855 11.145C11.9013 11.1917 11.938 11.2471 11.9629 11.3081C11.9878 11.369 12.0004 11.4342 12 11.5C11.9972 11.5688 11.9802 11.6363 11.9501 11.6983C11.92 11.7602 11.8774 11.8153 11.825 11.86L8.325 14.86C8.23735 14.9447 8.12178 14.9945 8 15ZM8.5 9.20501V13.415L10.765 11.47L8.5 9.20501ZM8.5 2.58501V6.79501L10.765 4.53001L8.5 2.58501Z" fill="currentColor" style="fill-opacity:1"/>
</svg>
