<svg viewBox="0 0 16 16" fill="none" xmlns="http://www.w3.org/2000/svg">
<path d="M11.5 11.5C10.8078 11.5 10.1311 11.2947 9.5555 10.9101C8.97993 10.5256 8.53133 9.97893 8.26642 9.33939C8.00151 8.69985 7.9322 7.99612 8.06725 7.31718C8.2023 6.63825 8.53564 6.01461 9.02513 5.52512C9.51461 5.03564 10.1382 4.7023 10.8172 4.56725C11.4961 4.4322 12.1999 4.50151 12.8394 4.76642C13.4789 5.03133 14.0256 5.47993 14.4101 6.0555C14.7947 6.63107 15 7.30776 15 8C14.999 8.92794 14.6299 9.81758 13.9737 10.4737C13.3176 11.1299 12.4279 11.499 11.5 11.5ZM11.5 5.5C11.0055 5.5 10.5222 5.64662 10.1111 5.92132C9.69995 6.19603 9.37952 6.58647 9.1903 7.04329C9.00108 7.50011 8.95157 8.00277 9.04804 8.48772C9.1445 8.97268 9.3826 9.41813 9.73223 9.76777C10.0819 10.1174 10.5273 10.3555 11.0123 10.452C11.4972 10.5484 11.9999 10.4989 12.4567 10.3097C12.9135 10.1205 13.304 9.80005 13.5787 9.38892C13.8534 8.9778 14 8.49445 14 8C13.9993 7.33718 13.7356 6.70172 13.267 6.23304C12.7983 5.76435 12.1628 5.50073 11.5 5.5Z" fill="currentColor" style="fill-opacity:1"/>
<path d="M4.5 11.5C6.433 11.5 8 9.93299 8 8C8 6.067 6.433 4.5 4.5 4.5C2.567 4.5 1 6.067 1 8C1 9.93299 2.567 11.5 4.5 11.5Z" fill="currentColor" style="fill-opacity:1"/>
</svg>
