<svg viewBox="0 0 16 16" fill="none" xmlns="http://www.w3.org/2000/svg">
<path d="M14.414 1.58595C14.0332 1.2221 13.5267 1.01906 13 1.01906C12.4733 1.01906 11.9668 1.2221 11.5859 1.58595L2.02499 11.146C1.69901 11.4702 1.44057 11.8559 1.26463 12.2806C1.08869 12.7054 0.998738 13.1608 0.999987 13.6206V15H2.37794C2.83777 15.0013 3.2933 14.9114 3.71814 14.7355C4.14298 14.5595 4.52869 14.3011 4.85294 13.975L14.414 4.4143C14.5998 4.22862 14.7472 4.00816 14.8477 3.76551C14.9482 3.52286 15 3.26278 15 3.00013C15 2.73747 14.9482 2.47739 14.8477 2.23474C14.7472 1.9921 14.5998 1.77163 14.414 1.58595ZM5.45499 9.13L6.86929 10.5443L5.80859 11.605L4.39429 10.1909L5.45499 9.13ZM4.14574 13.2678C3.91414 13.5007 3.63864 13.6853 3.33519 13.811C3.03175 13.9367 2.70638 14.0009 2.37794 14H1.99999V13.6206C1.9991 13.2922 2.06336 12.9669 2.18905 12.6635C2.31473 12.3601 2.49934 12.0846 2.73219 11.8531L3.68719 10.8981L5.10149 12.3121L4.14574 13.2678ZM13.707 3.70705L7.57639 9.8374L6.16209 8.4231L12.2929 2.2931C12.4834 2.11119 12.7366 2.00968 13 2.00968C13.2634 2.00968 13.5166 2.11119 13.707 2.2931C13.7999 2.38594 13.8736 2.49617 13.9238 2.61748C13.9741 2.7388 14 2.86883 14 3.00015C14 3.13147 13.9741 3.2615 13.9238 3.38282C13.8736 3.50413 13.7999 3.61421 13.707 3.70705Z" fill="currentColor" style="fill-opacity:1"/>
<path d="M3.24999 7.5C2.90389 7.50008 2.56554 7.39751 2.27773 7.20527C1.98993 7.01304 1.7656 6.73976 1.63313 6.42002C1.50066 6.10027 1.46599 5.74842 1.5335 5.40897C1.60102 5.06952 1.76769 4.75772 2.01244 4.513L3.76269 2.763C3.90306 2.62223 3.98188 2.43155 3.98188 2.23275C3.98188 2.03395 3.90306 1.84327 3.76269 1.7025C3.61975 1.56617 3.42981 1.49012 3.23229 1.49012C3.03476 1.49012 2.84482 1.56617 2.70189 1.7025L1.70749 2.6968L0.999987 1.99L1.99499 0.99575C2.32841 0.677551 2.77159 0.500015 3.23249 0.500015C3.69338 0.500015 4.13656 0.677551 4.46999 0.99575C4.79758 1.32418 4.98156 1.76912 4.98156 2.233C4.98156 2.69688 4.79758 3.14182 4.46999 3.47025L2.71949 5.22C2.57912 5.36077 2.50029 5.55145 2.50029 5.75025C2.50029 5.94905 2.57912 6.13973 2.71949 6.2805C2.86242 6.41682 3.05235 6.49288 3.24986 6.49288C3.44738 6.49288 3.63731 6.41682 3.78024 6.2805L5.79269 4.26835L6.49999 4.97535L4.48729 6.9875C4.3252 7.15052 4.13238 7.27976 3.91999 7.36774C3.70761 7.45571 3.47987 7.50066 3.24999 7.5Z" fill="currentColor" style="fill-opacity:1"/>
</svg>
