<svg viewBox="0 0 16 16" fill="none" xmlns="http://www.w3.org/2000/svg">
<path d="M11.5001 15.5C11.4954 15.5 11.4907 15.4999 11.486 15.4998C11.2809 15.494 11.1002 15.3637 11.0302 15.1709L9.4619 10.8583L8.4596 13.197C8.38075 13.3809 8.2001 13.5 8 13.5H6V12.5H7.6703L9.0404 9.3031C9.12135 9.1145 9.31435 8.9948 9.51405 9.00025C9.71915 9.006 9.8998 9.1364 9.96985 9.32915L11.5381 13.6418L12.5404 11.3031C12.6192 11.1192 12.7999 11 13 11H15V12H13.3297L11.9596 15.197C11.8806 15.3812 11.6996 15.5 11.5001 15.5Z" fill="currentColor" style="fill-opacity:1"/>
<path d="M4.5 12.5H2V5H14V9.5H15V5C15 4.4485 14.5512 4 14 4H11V2C11 1.4485 10.5512 1 10 1H6C5.4485 1 5 1.4485 5 2V4H2C1.4485 4 1 4.4485 1 5V12.5C1 13.0512 1.4485 13.5 2 13.5H4.5V12.5ZM6 2H10V4H6V2Z" fill="currentColor" style="fill-opacity:1"/>
</svg>
