<svg viewBox="0 0 16 16" fill="none" xmlns="http://www.w3.org/2000/svg">
<path d="M15 12.5V11.5H10.3838L9.98379 9.99999H13.5V8.99999H9.71739L8.48289 4.37109L7.51709 4.62889L9.41794 11.7573C9.47497 11.9702 9.60063 12.1584 9.77547 12.2927C9.95031 12.427 10.1645 12.4998 10.385 12.5H11V14H4.99999V12.5H7.99999V11.5H3.3838L2.98379 9.99999H6.49999V8.99999H2.7174L1.48289 4.37109L0.517095 4.62889L2.41794 11.7573C2.47497 11.9702 2.60064 12.1584 2.77547 12.2927C2.95031 12.427 3.16455 12.4998 3.38499 12.5H3.99999V14H0.999995V15H15V14H12V12.5H15Z" fill="currentColor" style="fill-opacity:1"/>
<path d="M13.6515 0.999994C13.4736 0.999993 13.2976 1.03565 13.1337 1.10486C12.9699 1.17407 12.8216 1.27543 12.6975 1.40294L12.5 1.60559L12.3024 1.40294C12.1784 1.27543 12.0301 1.17407 11.8663 1.10486C11.7024 1.03565 11.5264 0.999988 11.3485 0.999988C11.1707 0.999988 10.9946 1.03565 10.8307 1.10486C10.6669 1.17407 10.5186 1.27543 10.3946 1.40294C10.1415 1.66404 9.99999 2.01339 9.99999 2.37702C9.99999 2.74064 10.1415 3.08999 10.3946 3.35109L12.5 5.49999L14.6054 3.35109C14.8585 3.08999 15 2.74064 15 2.37702C15 2.01339 14.8585 1.66404 14.6054 1.40294C14.4814 1.27544 14.3331 1.17408 14.1692 1.10487C14.0054 1.03566 13.8294 0.999999 13.6515 0.999994Z" fill="currentColor" style="fill-opacity:1"/>
</svg>
