<svg viewBox="0 0 16 16" fill="none" xmlns="http://www.w3.org/2000/svg">
<path id="icon" d="M14.415 10.585L12.5 8.685L12.835 8.35C12.9281 8.25632 12.9804 8.12959 12.9804 7.9975C12.9804 7.86541 12.9281 7.73868 12.835 7.645L9.83499 4.645C9.74131 4.55187 9.61458 4.4996 9.48249 4.4996C9.3504 4.4996 9.22367 4.55187 9.12999 4.645L8.73499 5.04L5.35499 1.645C5.26131 1.55187 5.13458 1.4996 5.00249 1.4996C4.8704 1.4996 4.74367 1.55187 4.64999 1.645L2.64999 3.645L2.58999 3.72L0.589991 6.72C0.525796 6.81582 0.496701 6.93089 0.507636 7.0457C0.518571 7.16052 0.568863 7.26802 0.649991 7.35L2.14999 8.85C2.19647 8.89686 2.25177 8.93406 2.3127 8.95945C2.37363 8.98483 2.43899 8.9979 2.50499 8.9979C2.571 8.9979 2.63635 8.98483 2.69728 8.95945C2.75821 8.93406 2.81351 8.89686 2.85999 8.85L4.99999 6.705L6.04499 7.75L3.64499 10.145C3.55187 10.2387 3.49959 10.3654 3.49959 10.4975C3.49959 10.6296 3.55187 10.7563 3.64499 10.85L4.64499 11.85C4.6913 11.8972 4.74652 11.9348 4.80746 11.9606C4.8684 11.9863 4.93384 11.9997 4.99999 12C5.0919 11.9994 5.18187 11.9734 5.25999 11.925L7.42499 10.625L8.64499 11.85C8.73867 11.9431 8.8654 11.9954 8.99749 11.9954C9.12958 11.9954 9.25631 11.9431 9.34999 11.85L9.68499 11.5L11.58 13.415C11.9553 13.7903 12.4643 14.0011 12.995 14.0011C13.5257 14.0011 14.0347 13.7903 14.41 13.415C14.7853 13.0397 14.9961 12.5307 14.9961 12C14.9961 11.4693 14.7853 10.9603 14.41 10.585H14.415ZM4.99999 5.29L2.49999 7.79L1.64499 6.935L3.38999 4.315L4.99999 2.705L8.04499 5.75L6.74999 7.04L4.99999 5.29ZM8.99999 10.79L7.57999 9.37L5.07999 10.87L4.70999 10.5L9.49999 5.705L11.795 8L8.99999 10.79ZM13.71 12.705C13.6171 12.798 13.5068 12.8717 13.3854 12.9221C13.264 12.9724 13.1339 12.9983 13.0025 12.9983C12.8711 12.9983 12.7409 12.9724 12.6196 12.9221C12.4982 12.8717 12.3879 12.798 12.295 12.705L10.395 10.81L11.81 9.395L13.71 11.29C13.803 11.3829 13.8767 11.4932 13.9271 11.6146C13.9774 11.736 14.0033 11.8661 14.0033 11.9975C14.0033 12.1289 13.9774 12.259 13.9271 12.3804C13.8767 12.5018 13.803 12.6121 13.71 12.705Z" fill="currentColor" style="fill-opacity:1"/>
</svg>
