<svg viewBox="0 0 16 16" fill="none" xmlns="http://www.w3.org/2000/svg">
<path d="M13 6C11.8954 6 11 6.8954 11 8C11 9.1046 11.8954 10 13 10C14.1046 10 15 9.10455 15 8C15 6.89545 14.1046 6 13 6ZM13 9C12.4486 9 12 8.5514 12 8C12 7.4486 12.4486 7 13 7C13.5514 7 14 7.4486 14 8C14 8.5514 13.5514 9 13 9Z" fill="currentColor" style="fill-opacity:1"/>
<path d="M7.5 10.5V11.5H8.79295L7.64255 12.6504C7.447 12.5567 7.2308 12.5 6.99995 12.5C6.1728 12.5 5.49995 13.1729 5.49995 14C5.49995 14.8272 6.1728 15.5 6.99995 15.5C7.8271 15.5 8.49995 14.8272 8.49995 14C8.49995 13.7691 8.4432 13.553 8.3497 13.3574L9.49995 12.207V13.5H10.4999V10.5L7.5 10.5ZM7 14.5C6.72425 14.5 6.5 14.2757 6.5 14C6.5 13.7244 6.72425 13.5 7 13.5C7.27575 13.5 7.5 13.7244 7.5 14C7.5 14.2757 7.27575 14.5 7 14.5Z" fill="currentColor" style="fill-opacity:1"/>
<path d="M5.70715 5.70705L5 6.41435L6.0858 7.50005H3.9078C3.70075 6.9195 3.15095 6.50005 2.49995 6.50005C1.6728 6.50005 0.999947 7.1729 0.999947 8.00005C0.999947 8.8272 1.6728 9.50005 2.49995 9.50005C3.15095 9.50005 3.70075 9.0806 3.9078 8.50005H6.0858L5 9.58575L5.70715 10.293L8 8.0001L5.70715 5.70705ZM2.5 8.5C2.22425 8.5 2 8.27565 2 8C2 7.72435 2.22425 7.5 2.5 7.5C2.77575 7.5 3 7.72435 3 8C3 8.27565 2.77575 8.5 2.5 8.5Z" fill="currentColor" style="fill-opacity:1"/>
<path d="M9.5 2.5V3.79295L8.34975 2.64255C8.44325 2.447 8.5 2.23095 8.5 1.99995C8.5 1.1728 7.82715 0.499954 7 0.499954C6.17285 0.499954 5.5 1.1728 5.5 1.99995C5.5 2.8271 6.17285 3.49995 7 3.49995C7.23085 3.49995 7.447 3.4433 7.6426 3.34955L8.793 4.49995H7.50005V5.49995H10.5V2.49995L9.5 2.5ZM6.5 2C6.5 1.72435 6.72425 1.5 7 1.5C7.27575 1.5 7.5 1.72435 7.5 2C7.5 2.27565 7.27575 2.5 7 2.5C6.72425 2.5 6.5 2.27565 6.5 2Z" fill="currentColor" style="fill-opacity:1"/>
</svg>
