<svg viewBox="0 0 16 16" fill="none" xmlns="http://www.w3.org/2000/svg">
<path id="icon" d="M14.6689 7.9668L10.8027 6.57765L9.187 4.54835C9.04646 4.37656 8.86942 4.23822 8.66875 4.14337C8.46808 4.04852 8.24881 3.99954 8.02685 4H4.0288C3.78431 3.9999 3.5435 4.0596 3.32737 4.17389C3.11124 4.28819 2.92634 4.45361 2.7888 4.65575L1.4331 6.64745C1.1506 7.06198 0.999668 7.55206 0.999999 8.0537V12C0.999999 12.1326 1.05268 12.2598 1.14645 12.3536C1.24021 12.4473 1.36739 12.5 1.5 12.5H2.57105C2.68007 12.9289 2.92892 13.3092 3.27825 13.5808C3.62758 13.8525 4.05748 13.9999 4.5 13.9999C4.94252 13.9999 5.37242 13.8525 5.72175 13.5808C6.07108 13.3092 6.31993 12.9289 6.42895 12.5H9.57105C9.68007 12.9289 9.92892 13.3092 10.2783 13.5808C10.6276 13.8525 11.0575 13.9999 11.5 13.9999C11.9425 13.9999 12.3724 13.8525 12.7217 13.5808C13.0711 13.3092 13.3199 12.9289 13.429 12.5H14.5C14.6326 12.5 14.7598 12.4473 14.8536 12.3536C14.9473 12.2598 15 12.1326 15 12V8.4375C15 8.3345 14.9682 8.234 14.909 8.14975C14.8497 8.0655 14.7659 8.0016 14.6689 7.9668ZM4.5 13C4.30222 13 4.10888 12.9413 3.94443 12.8315C3.77998 12.7216 3.65181 12.5654 3.57612 12.3827C3.50043 12.2 3.48063 11.9989 3.51921 11.8049C3.5578 11.6109 3.65304 11.4327 3.79289 11.2929C3.93275 11.153 4.11093 11.0578 4.30491 11.0192C4.49889 10.9806 4.69996 11.0004 4.88268 11.0761C5.06541 11.1518 5.22159 11.28 5.33147 11.4444C5.44135 11.6089 5.5 11.8022 5.5 12C5.49964 12.2651 5.39417 12.5193 5.20671 12.7067C5.01925 12.8942 4.76511 12.9996 4.5 13ZM11.5 13C11.3022 13 11.1089 12.9413 10.9444 12.8315C10.78 12.7216 10.6518 12.5654 10.5761 12.3827C10.5004 12.2 10.4806 11.9989 10.5192 11.8049C10.5578 11.6109 10.653 11.4327 10.7929 11.2929C10.9327 11.153 11.1109 11.0578 11.3049 11.0192C11.4989 10.9806 11.7 11.0004 11.8827 11.0761C12.0654 11.1518 12.2216 11.28 12.3315 11.4444C12.4414 11.6089 12.5 11.8022 12.5 12C12.4997 12.2651 12.3942 12.5193 12.2067 12.7067C12.0193 12.8942 11.7651 12.9997 11.5 13ZM14 11.5H13.429C13.3199 11.0711 13.0711 10.6908 12.7217 10.4192C12.3724 10.1475 11.9425 10 11.5 10C11.0575 10 10.6276 10.1475 10.2783 10.4192C9.92892 10.6908 9.68007 11.0711 9.57105 11.5H6.42895C6.31993 11.0711 6.07108 10.6908 5.72175 10.4192C5.37242 10.1475 4.94252 10 4.5 10C4.05748 10 3.62758 10.1475 3.27825 10.4192C2.92892 10.6908 2.68007 11.0711 2.57105 11.5H2V8.0537C1.99989 7.75255 2.09049 7.45835 2.26 7.20945L3.6155 5.21875C3.66132 5.15134 3.72294 5.09616 3.79498 5.05803C3.86702 5.0199 3.94729 4.99998 4.0288 5H8.02685C8.09968 4.99968 8.17169 5.0154 8.23777 5.04603C8.30385 5.07666 8.36237 5.12146 8.4092 5.17725L10.1089 7.3115C10.1667 7.38415 10.2437 7.43927 10.331 7.4707L14 8.78905V11.5Z" fill="currentColor" style="fill-opacity:1"/>
</svg>
