<svg viewBox="0 0 16 16" fill="none" xmlns="http://www.w3.org/2000/svg">
<path d="M10 10L10.7 10.7L9.4 12H14V13H9.4L10.7 14.3L10 15L7.5 12.5L10 10Z" fill="currentColor" style="fill-opacity:1"/>
<path d="M11 7.5H7V8.5H11V7.5Z" fill="currentColor" style="fill-opacity:1"/>
<path d="M11 4H7V5H11V4Z" fill="currentColor" style="fill-opacity:1"/>
<path d="M6.5 14H4V12H5V11H4V8.5H5V7.5H4V5H5V4H4V2H13V10H14V2C14 1.45 13.55 1 13 1H4C3.45 1 3 1.45 3 2V4H2V5H3V7.5H2V8.5H3V11H2V12H3V14C3 14.55 3.45 15 4 15H6.5V14Z" fill="currentColor" style="fill-opacity:1"/>
</svg>
