<svg viewBox="0 0 16 16" fill="none" xmlns="http://www.w3.org/2000/svg">
<path d="M2 15V13H7.5V15H8.5V13H14V15H15V13C15 12.7348 14.8946 12.4804 14.7071 12.2929C14.5196 12.1054 14.2652 12 14 12H8.5V9.50001H7.5V12H2C1.73478 12 1.48043 12.1054 1.29289 12.2929C1.10536 12.4804 1 12.7348 1 13V15H2Z" fill="currentColor" style="fill-opacity:1"/>
<path d="M10.3476 6.99291C10.693 6.37958 10.9061 5.7007 10.9732 5.00001H11.5V4.00001H10V4.50001C9.98923 5.0607 9.87672 5.61477 9.66795 6.13526L8.32555 4.44081C8.79991 4.17018 9.17542 3.75511 9.39735 3.25611C9.47966 3.03736 9.51385 2.80344 9.49759 2.57028C9.48132 2.33712 9.41499 2.11021 9.3031 1.90501C9.18872 1.69077 9.02952 1.50369 8.83632 1.35653C8.64312 1.20936 8.42048 1.10557 8.18355 1.05221C7.76293 0.929445 7.31142 0.970438 6.91979 1.16695C6.52815 1.36346 6.22541 1.70092 6.0724 2.11151C5.8202 2.88741 6.2927 3.66941 6.703 4.16536C6.28568 4.40124 5.94998 4.75847 5.74047 5.18964C5.53096 5.6208 5.45755 6.10549 5.53 6.57936C5.60326 7.10807 5.86403 7.59287 6.2648 7.94541C6.66557 8.29795 7.17966 8.49477 7.7134 8.50001H7.7163C8.44424 8.52127 9.1534 8.26713 9.70215 7.78836L10.266 8.50001H11.542L10.3476 6.99291ZM7.0235 2.42066C7.07553 2.28528 7.17063 2.17077 7.29415 2.09475C7.41767 2.01874 7.56275 1.98545 7.70705 2.00001C7.79475 2.00018 7.88217 2.00992 7.96775 2.02906C8.06419 2.05203 8.15467 2.09521 8.2332 2.15573C8.31172 2.21625 8.37652 2.29275 8.4233 2.38016C8.46712 2.459 8.49334 2.54639 8.50017 2.63632C8.50699 2.72626 8.49426 2.81661 8.46285 2.90116C8.2754 3.25003 7.98058 3.52926 7.62205 3.69751C7.29155 3.34081 6.90435 2.78661 7.0235 2.42066ZM7.7158 7.50001H7.71385C7.41811 7.49588 7.13392 7.3846 6.91401 7.18683C6.6941 6.98905 6.55341 6.7182 6.51805 6.42456C6.4752 6.10721 6.54142 5.78473 6.70584 5.50994C6.87026 5.23515 7.12315 5.02436 7.42305 4.91211L9.0788 7.00146C8.70594 7.33749 8.21748 7.51615 7.7158 7.50001Z" fill="currentColor" style="fill-opacity:1"/>
</svg>
