<svg viewBox="0 0 16 16" fill="none" xmlns="http://www.w3.org/2000/svg">
<path id="icon" d="M13.5 11.0707V9C13.5 8.73478 13.3946 8.48043 13.2071 8.29289C13.0196 8.10536 12.7652 8 12.5 8H8.5V6H9.5C9.76512 5.9997 10.0193 5.89424 10.2068 5.70677C10.3942 5.5193 10.4997 5.26512 10.5 5V2C10.4997 1.73488 10.3942 1.4807 10.2068 1.29323C10.0193 1.10576 9.76512 1.0003 9.5 1H6.5C6.23486 1.00026 5.98066 1.10571 5.79318 1.29319C5.6057 1.48066 5.50026 1.73486 5.5 2V5C5.50026 5.26514 5.6057 5.51934 5.79318 5.70681C5.98066 5.89429 6.23486 5.99974 6.5 6H7.5V8H3.5C3.23478 8 2.98042 8.10536 2.79289 8.29289C2.60535 8.48043 2.5 8.73478 2.5 9V11.071C2.02867 11.1927 1.6179 11.4822 1.34469 11.8851C1.07149 12.2879 0.954599 12.7766 1.01594 13.2596C1.07727 13.7425 1.31263 14.1864 1.67788 14.5082C2.04313 14.83 2.51321 15.0075 3 15.0075C3.48678 15.0075 3.95686 14.83 4.32211 14.5082C4.68736 14.1864 4.92272 13.7425 4.98405 13.2596C5.04539 12.7766 4.9285 12.2879 4.6553 11.8851C4.38209 11.4822 3.97132 11.1927 3.5 11.071V9H7.5V11.071C7.02867 11.1927 6.6179 11.4821 6.34469 11.885C6.07149 12.2879 5.9546 12.7766 6.01594 13.2595C6.07727 13.7424 6.31263 14.1864 6.67788 14.5082C7.04313 14.83 7.51321 15.0075 8 15.0075C8.48678 15.0075 8.95686 14.83 9.32211 14.5082C9.68736 14.1864 9.92272 13.7424 9.98405 13.2595C10.0454 12.7766 9.9285 12.2879 9.6553 11.885C9.38209 11.4821 8.97132 11.1927 8.5 11.071V9H12.5V11.0707C12.0287 11.1924 11.6179 11.4818 11.3447 11.8847C11.0715 12.2876 10.9546 12.7763 11.0159 13.2592C11.0773 13.7421 11.3126 14.1861 11.6779 14.5079C12.0431 14.8297 12.5132 15.0072 13 15.0072C13.4868 15.0072 13.9569 14.8297 14.3221 14.5079C14.6874 14.1861 14.9227 13.7421 14.9841 13.2592C15.0454 12.7763 14.9285 12.2876 14.6553 11.8847C14.3821 11.4818 13.9713 11.1924 13.5 11.0707ZM6.5 2H9.5L9.50049 5H6.5V2ZM4 13C4 13.1978 3.94135 13.3911 3.83146 13.5556C3.72158 13.72 3.5654 13.8482 3.38268 13.9239C3.19995 13.9996 2.99889 14.0194 2.8049 13.9808C2.61092 13.9422 2.43274 13.847 2.29289 13.7071C2.15304 13.5673 2.05779 13.3891 2.01921 13.1951C1.98062 13.0011 2.00043 12.8 2.07612 12.6173C2.1518 12.4346 2.27998 12.2784 2.44442 12.1685C2.60887 12.0586 2.80221 12 3 12C3.26512 12.0003 3.5193 12.1058 3.70677 12.2932C3.89424 12.4807 3.99969 12.7349 4 13ZM9 13C9 13.1978 8.94135 13.3911 8.83146 13.5556C8.72158 13.72 8.5654 13.8482 8.38268 13.9239C8.19995 13.9996 7.99889 14.0194 7.8049 13.9808C7.61092 13.9422 7.43274 13.847 7.29289 13.7071C7.15304 13.5673 7.05779 13.3891 7.01921 13.1951C6.98062 13.0011 7.00043 12.8 7.07612 12.6173C7.1518 12.4346 7.27998 12.2784 7.44442 12.1685C7.60887 12.0586 7.80221 12 8 12C8.2651 12.0004 8.51925 12.1058 8.70671 12.2933C8.89417 12.4807 8.99964 12.7349 9 13ZM13 14C12.8022 14 12.6089 13.9414 12.4444 13.8315C12.28 13.7216 12.1518 13.5654 12.0761 13.3827C12.0004 13.2 11.9806 12.9989 12.0192 12.8049C12.0578 12.6109 12.153 12.4327 12.2929 12.2929C12.4327 12.153 12.6109 12.0578 12.8049 12.0192C12.9989 11.9806 13.2 12.0004 13.3827 12.0761C13.5654 12.1518 13.7216 12.28 13.8315 12.4444C13.9413 12.6089 14 12.8022 14 13C13.9997 13.2651 13.8942 13.5193 13.7068 13.7068C13.5193 13.8942 13.2651 13.9997 13 14Z" fill="currentColor" style="fill-opacity:1"/>
</svg>
