<svg viewBox="0 0 16 16" fill="none" xmlns="http://www.w3.org/2000/svg">
<path d="M3.38 2.99999L3.605 3.44499L3.88 3.99999H6V6.49999H2V2.99999H3.38ZM3.69 1.99999H1.5C1.36739 1.99999 1.24021 2.05267 1.14645 2.14643C1.05268 2.2402 1 2.36738 1 2.49999V6.99999C1 7.1326 1.05268 7.25977 1.14645 7.35354C1.24021 7.44731 1.36739 7.49999 1.5 7.49999H6.5C6.63261 7.49999 6.75979 7.44731 6.85355 7.35354C6.94732 7.25977 7 7.1326 7 6.99999V3.49999C7 3.36738 6.94732 3.2402 6.85355 3.14643C6.75979 3.05267 6.63261 2.99999 6.5 2.99999H4.5L4.14 2.27499C4.09807 2.19177 4.03372 2.12193 3.9542 2.07333C3.87469 2.02474 3.78318 1.99934 3.69 1.99999Z" fill="currentColor" style="fill-opacity:1"/>
<path d="M11.38 2.99999L11.605 3.44499L11.88 3.99999H14V6.49999H10V2.99999H11.38ZM11.69 1.99999H9.5C9.36739 1.99999 9.24021 2.05267 9.14645 2.14643C9.05268 2.2402 9 2.36738 9 2.49999V6.99999C9 7.1326 9.05268 7.25977 9.14645 7.35354C9.24021 7.44731 9.36739 7.49999 9.5 7.49999H14.5C14.6326 7.49999 14.7598 7.44731 14.8536 7.35354C14.9473 7.25977 15 7.1326 15 6.99999V3.49999C15 3.36738 14.9473 3.2402 14.8536 3.14643C14.7598 3.05267 14.6326 2.99999 14.5 2.99999H12.5L12.14 2.27499C12.0981 2.19177 12.0337 2.12193 11.9542 2.07333C11.8747 2.02474 11.7832 1.99934 11.69 1.99999Z" fill="currentColor" style="fill-opacity:1"/>
<path d="M3.38 9.49999L3.605 9.94499L3.88 10.5H6V13H2V9.49999H3.38ZM3.69 8.49999H1.5C1.36739 8.49999 1.24021 8.55267 1.14645 8.64643C1.05268 8.7402 1 8.86738 1 8.99999V13.5C1 13.6326 1.05268 13.7598 1.14645 13.8535C1.24021 13.9473 1.36739 14 1.5 14H6.5C6.63261 14 6.75979 13.9473 6.85355 13.8535C6.94732 13.7598 7 13.6326 7 13.5V9.99999C7 9.86738 6.94732 9.7402 6.85355 9.64643C6.75979 9.55267 6.63261 9.49999 6.5 9.49999H4.5L4.14 8.77499C4.09807 8.69177 4.03372 8.62193 3.9542 8.57333C3.87469 8.52474 3.78318 8.49934 3.69 8.49999Z" fill="currentColor" style="fill-opacity:1"/>
<path d="M11.38 9.49999L11.605 9.94499L11.88 10.5H14V13H10V9.49999H11.38ZM11.69 8.49999H9.5C9.36739 8.49999 9.24021 8.55267 9.14645 8.64643C9.05268 8.7402 9 8.86738 9 8.99999V13.5C9 13.6326 9.05268 13.7598 9.14645 13.8535C9.24021 13.9473 9.36739 14 9.5 14H14.5C14.6326 14 14.7598 13.9473 14.8536 13.8535C14.9473 13.7598 15 13.6326 15 13.5V9.99999C15 9.86738 14.9473 9.7402 14.8536 9.64643C14.7598 9.55267 14.6326 9.49999 14.5 9.49999H12.5L12.14 8.77499C12.0981 8.69177 12.0337 8.62193 11.9542 8.57333C11.8747 8.52474 11.7832 8.49934 11.69 8.49999Z" fill="currentColor" style="fill-opacity:1"/>
</svg>
