<svg viewBox="0 0 16 16" fill="none" xmlns="http://www.w3.org/2000/svg">
<path d="M7 8.00001C7.55228 8.00001 8 7.55229 8 7.00001C8 6.44772 7.55228 6.00001 7 6.00001C6.44772 6.00001 6 6.44772 6 7.00001C6 7.55229 6.44772 8.00001 7 8.00001Z" fill="currentColor" style="fill-opacity:1"/>
<path d="M7 1.00001C5.4087 1.00001 3.88258 1.63215 2.75736 2.75737C1.63214 3.88259 1 5.40871 1 7.00001C1 8.59131 1.63214 10.1174 2.75736 11.2426C3.88258 12.3679 5.4087 13 7 13V12C6.01109 12 5.04439 11.7068 4.22215 11.1574C3.3999 10.6079 2.75904 9.82706 2.3806 8.91343C2.00216 7.9998 1.90315 6.99446 2.09607 6.02456C2.289 5.05465 2.7652 4.16374 3.46447 3.46447C4.16373 2.76521 5.05464 2.28901 6.02455 2.09608C6.99445 1.90316 7.99979 2.00217 8.91342 2.38061C9.82705 2.75905 10.6079 3.39991 11.1573 4.22216C11.7068 5.0444 12 6.0111 12 7.00001C12.0101 7.16652 12.0101 7.33349 12 7.50001H13C13 7.33501 13.025 7.17001 13.025 7.00001C13.025 6.20997 12.869 5.42771 12.5659 4.69812C12.2628 3.96853 11.8186 3.30598 11.2588 2.7485C10.699 2.19103 10.0346 1.74959 9.30378 1.44954C8.57294 1.14948 7.79003 0.996717 7 1.00001Z" fill="currentColor" style="fill-opacity:1"/>
<path d="M8.5 12H13.085L11.79 13.295L12.5 14L15 11.5L12.5 9.00001L11.79 9.71001L13.085 11H8.5V12Z" fill="currentColor" style="fill-opacity:1"/>
<path d="M7 10C6.40666 10 5.82664 9.82406 5.33329 9.49442C4.83994 9.16477 4.45542 8.69624 4.22836 8.14806C4.0013 7.59988 3.94189 6.99668 4.05764 6.41474C4.1734 5.83279 4.45912 5.29825 4.87868 4.87869C5.29824 4.45913 5.83279 4.17341 6.41473 4.05765C6.99667 3.9419 7.59987 4.00131 8.14805 4.22837C8.69623 4.45543 9.16476 4.83995 9.49441 5.3333C9.82405 5.82665 10 6.40666 10 7.00001C10 7.79566 9.68393 8.55872 9.12132 9.12133C8.55871 9.68394 7.79565 10 7 10ZM7 5.00001C6.60444 5.00001 6.21776 5.11731 5.88886 5.33707C5.55996 5.55683 5.30362 5.86919 5.15224 6.23464C5.00087 6.60009 4.96126 7.00223 5.03843 7.39019C5.1156 7.77815 5.30608 8.13452 5.58579 8.41422C5.86549 8.69393 6.22186 8.88441 6.60982 8.96158C6.99778 9.03875 7.39991 8.99914 7.76537 8.84777C8.13082 8.69639 8.44318 8.44005 8.66294 8.11115C8.8827 7.78225 9 7.39557 9 7.00001C9 6.46958 8.78929 5.96087 8.41421 5.5858C8.03914 5.21072 7.53043 5.00001 7 5.00001Z" fill="currentColor" style="fill-opacity:1"/>
</svg>
