<svg viewBox="0 0 16 16" fill="none" xmlns="http://www.w3.org/2000/svg">
<path d="M8 14C6.81331 14 5.65327 13.6481 4.66658 12.9888C3.67988 12.3295 2.91085 11.3925 2.45672 10.2961C2.00259 9.19974 1.88377 7.99334 2.11529 6.82946C2.3468 5.66557 2.91824 4.59647 3.75736 3.75736C4.59647 2.91824 5.66557 2.3468 6.82946 2.11529C7.99334 1.88377 9.19974 2.00259 10.2961 2.45672C11.3925 2.91085 12.3295 3.67988 12.9888 4.66658C13.6481 5.65327 14 6.81331 14 8C14 9.5913 13.3679 11.1174 12.2426 12.2426C11.1174 13.3679 9.5913 14 8 14ZM8 3C7.01109 3 6.04439 3.29324 5.22215 3.84265C4.3999 4.39206 3.75904 5.17295 3.3806 6.08658C3.00216 7.00021 2.90314 8.00554 3.09607 8.97545C3.289 9.94535 3.7652 10.8363 4.46446 11.5355C5.16373 12.2348 6.05464 12.711 7.02455 12.9039C7.99445 13.0969 8.99978 12.9978 9.91341 12.6194C10.827 12.241 11.6079 11.6001 12.1573 10.7778C12.7068 9.9556 13 8.9889 13 8C13 6.67392 12.4732 5.40215 11.5355 4.46446C10.5978 3.52678 9.32608 3 8 3Z" fill="currentColor" style="fill-opacity:1"/>
<path d="M8 11C7.40665 11 6.82663 10.8241 6.33329 10.4944C5.83994 10.1648 5.45542 9.69623 5.22836 9.14805C5.0013 8.59987 4.94189 7.99667 5.05764 7.41473C5.1734 6.83278 5.45912 6.29823 5.87868 5.87868C6.29823 5.45912 6.83278 5.1734 7.41473 5.05764C7.99667 4.94189 8.59987 5.0013 9.14805 5.22836C9.69623 5.45542 10.1648 5.83994 10.4944 6.33329C10.8241 6.82663 11 7.40665 11 8C11 8.79565 10.6839 9.55871 10.1213 10.1213C9.55871 10.6839 8.79565 11 8 11ZM8 6C7.60443 6 7.21776 6.1173 6.88886 6.33706C6.55996 6.55682 6.30361 6.86918 6.15224 7.23463C6.00086 7.60008 5.96126 8.00222 6.03843 8.39018C6.1156 8.77814 6.30608 9.13451 6.58578 9.41421C6.86549 9.69392 7.22185 9.8844 7.60982 9.96157C7.99778 10.0387 8.39991 9.99913 8.76536 9.84776C9.13082 9.69638 9.44317 9.44004 9.66294 9.11114C9.8827 8.78224 10 8.39556 10 8C10 7.46956 9.78928 6.96086 9.41421 6.58578C9.03914 6.21071 8.53043 6 8 6Z" fill="currentColor" style="fill-opacity:1"/>
<path d="M8 9C8.55228 9 9 8.55228 9 8C9 7.44771 8.55228 7 8 7C7.44771 7 7 7.44771 7 8C7 8.55228 7.44771 9 8 9Z" fill="currentColor" style="fill-opacity:1"/>
</svg>
