<svg viewBox="0 0 16 16" fill="none" xmlns="http://www.w3.org/2000/svg">
<path id="icon" d="M13.7661 8.5862C14.1914 8.13637 14.5192 7.60355 14.7289 7.02113C14.9386 6.4387 15.0258 5.81924 14.985 5.20155C14.9441 4.58386 14.7761 3.98127 14.4915 3.43153C14.2069 2.8818 13.8118 2.39678 13.331 2.00687C12.8502 1.61695 12.2941 1.33055 11.6974 1.16562C11.1007 1.00068 10.4764 0.960769 9.86364 1.04837C9.25083 1.13598 8.66273 1.34922 8.13618 1.67472C7.60963 2.00023 7.15599 2.43099 6.80369 2.94C6.6335 2.48927 6.35721 2.08619 5.9982 1.76488C5.6392 1.44358 5.20805 1.21352 4.74128 1.09418C4.2745 0.974835 3.78584 0.969729 3.31668 1.07929C2.84751 1.18886 2.41165 1.40986 2.04601 1.72359C1.68037 2.03733 1.39571 2.43455 1.21614 2.88162C1.03658 3.3287 0.967383 3.81246 1.01442 4.29195C1.06147 4.77144 1.22336 5.23253 1.48639 5.63618C1.74942 6.03983 2.10585 6.37416 2.52549 6.61085C2.1438 6.87136 1.81751 7.20491 1.56546 7.59224C1.31341 7.97957 1.14059 8.413 1.057 8.86749C0.973403 9.32198 0.980682 9.78854 1.07842 10.2402C1.17615 10.6919 1.3624 11.1197 1.62641 11.499C1.89042 11.8782 2.22696 12.2015 2.61659 12.4499C3.00622 12.6984 3.44122 12.8672 3.89646 12.9466C4.35171 13.0261 4.81817 13.0145 5.26892 12.9126C5.71967 12.8107 6.14576 12.6205 6.52259 12.3531C6.61232 13.1128 6.98899 13.8095 7.57551 14.3006C8.16204 14.7918 8.91409 15.0402 9.67777 14.9951C10.4415 14.95 11.159 14.6148 11.6837 14.058C12.2083 13.5012 12.5003 12.765 12.5 12C12.5 11.9392 12.4945 11.88 12.4909 11.8203C12.7071 11.926 12.9428 11.9858 13.1832 11.996C13.4236 12.0061 13.6635 11.9664 13.8878 11.8794C14.1121 11.7923 14.316 11.6598 14.4866 11.4901C14.6571 11.3204 14.7908 11.1172 14.879 10.8934C14.9673 10.6695 15.0082 10.4299 14.9993 10.1894C14.9904 9.94896 14.9319 9.71295 14.8273 9.49624C14.7228 9.27953 14.5745 9.0868 14.3918 8.93018C14.2092 8.77357 13.9962 8.65645 13.7661 8.5862ZM10.5 2C11.1922 2 11.8689 2.20527 12.4445 2.58986C13.0201 2.97444 13.4687 3.52107 13.7336 4.16061C13.9985 4.80015 14.0678 5.50388 13.9327 6.18282C13.7977 6.86175 13.4643 7.48539 12.9749 7.97487C12.4854 8.46436 11.8617 8.7977 11.1828 8.93275C10.5039 9.0678 9.80014 8.99849 9.1606 8.73358C8.52106 8.46867 7.97443 8.02007 7.58985 7.4445C7.20526 6.86892 6.99999 6.19223 6.99999 5.5C7.00102 4.57206 7.3701 3.68242 8.02626 3.02627C8.68241 2.37011 9.57205 2.00103 10.5 2ZM3.99999 2C4.39556 2 4.78223 2.1173 5.11113 2.33706C5.44003 2.55682 5.69638 2.86918 5.84775 3.23463C5.99913 3.60009 6.03873 4.00222 5.96156 4.39018C5.88439 4.77814 5.69391 5.13451 5.41421 5.41421C5.1345 5.69392 4.77814 5.8844 4.39017 5.96157C4.00221 6.03874 3.60008 5.99913 3.23463 5.84776C2.86917 5.69638 2.55682 5.44004 2.33705 5.11114C2.11729 4.78224 1.99999 4.39556 1.99999 4C2.00059 3.46975 2.21149 2.96139 2.58644 2.58644C2.96138 2.2115 3.46974 2.0006 3.99999 2ZM9.49999 14C9.10443 14 8.71775 13.8827 8.38885 13.6629C8.05995 13.4432 7.80361 13.1308 7.65223 12.7654C7.50086 12.3999 7.46125 11.9978 7.53842 11.6098C7.61559 11.2219 7.80607 10.8655 8.08578 10.5858C8.36548 10.3061 8.72185 10.1156 9.10981 10.0384C9.49777 9.96126 9.89991 10.0009 10.2654 10.1522C10.6308 10.3036 10.9432 10.56 11.1629 10.8889C11.3827 11.2178 11.5 11.6044 11.5 12C11.4994 12.5303 11.2885 13.0386 10.9135 13.4136C10.5386 13.7885 10.0302 13.9994 9.49999 14Z" fill="currentColor" style="fill-opacity:1"/>
</svg>
