<svg viewBox="0 0 16 16" fill="none" xmlns="http://www.w3.org/2000/svg">
<path id="icon" d="M13 2.99999C12.5578 3.00134 12.1286 3.14933 11.7795 3.42077C11.4304 3.69221 11.1813 4.07177 11.071 4.49999H8.96524C8.87198 3.75756 8.57225 3.05619 8.10013 2.47566C7.62801 1.89513 7.00246 1.45874 6.29462 1.21612C5.58677 0.973493 4.82505 0.934376 4.09607 1.10321C3.3671 1.27205 2.70013 1.64207 2.17103 2.17118C1.64193 2.7003 1.27193 3.36727 1.10311 4.09625C0.934286 4.82522 0.973419 5.58695 1.21606 6.29479C1.4587 7.00263 1.8951 7.62817 2.47564 8.10028C3.05618 8.57238 3.75756 8.8721 4.49999 8.96534V11.071C4.02866 11.1927 3.6179 11.4822 3.34469 11.885C3.07149 12.2879 2.9546 12.7766 3.01593 13.2595C3.07727 13.7424 3.31262 14.1864 3.67788 14.5082C4.04313 14.83 4.51321 15.0075 4.99999 15.0075C5.48678 15.0075 5.95686 14.83 6.32211 14.5082C6.68736 14.1864 6.92272 13.7424 6.98405 13.2595C7.04539 12.7766 6.9285 12.2879 6.65529 11.885C6.38209 11.4822 5.97132 11.1927 5.49999 11.071V8.96534C6.21067 8.87596 6.88399 8.59624 7.44879 8.15574L9.28344 9.99074C9.09984 10.2955 9.00191 10.6442 8.99999 11C8.99999 11.3956 9.11729 11.7822 9.33705 12.1111C9.55682 12.44 9.86917 12.6964 10.2346 12.8478C10.6001 12.9991 11.0022 13.0387 11.3902 12.9616C11.7781 12.8844 12.1345 12.6939 12.4142 12.4142C12.6939 12.1345 12.8844 11.7781 12.9616 11.3902C13.0387 11.0022 12.9991 10.6001 12.8478 10.2346C12.6964 9.86917 12.44 9.55682 12.1111 9.33705C11.7822 9.11729 11.3956 8.99999 11 8.99999C10.6441 9.00184 10.2953 9.09978 9.99049 9.28344L8.15579 7.44874C8.59627 6.88396 8.87594 6.21064 8.96524 5.49999H11.071C11.1652 5.86134 11.3587 6.18906 11.6298 6.44592C11.9008 6.70279 12.2384 6.8785 12.6043 6.95312C12.9702 7.02773 13.3496 6.99826 13.6996 6.86804C14.0496 6.73781 14.356 6.51207 14.5841 6.21643C14.8122 5.92079 14.9528 5.56712 14.99 5.19557C15.0272 4.82401 14.9595 4.44948 14.7945 4.11449C14.6295 3.77951 14.3739 3.4975 14.0567 3.30049C13.7395 3.10349 13.3734 2.99938 13 2.99999ZM5.99999 13C5.99999 13.1978 5.94134 13.3911 5.83146 13.5556C5.72158 13.72 5.5654 13.8482 5.38268 13.9239C5.19995 13.9996 4.99888 14.0194 4.8049 13.9808C4.61092 13.9422 4.43274 13.847 4.29289 13.7071C4.15303 13.5672 4.05779 13.3891 4.01921 13.1951C3.98062 13.0011 4.00043 12.8 4.07611 12.6173C4.1518 12.4346 4.27997 12.2784 4.44442 12.1685C4.60887 12.0586 4.80221 12 4.99999 12C5.26512 12.0003 5.51929 12.1058 5.70676 12.2932C5.89423 12.4807 5.99969 12.7349 5.99999 13ZM4.99999 7.99999C4.40665 7.99999 3.82663 7.82404 3.33328 7.4944C2.83994 7.16476 2.45542 6.69622 2.22836 6.14804C2.00129 5.59986 1.94188 4.99666 2.05764 4.41472C2.17339 3.83278 2.45912 3.29823 2.87867 2.87867C3.29823 2.45911 3.83278 2.17339 4.41472 2.05764C4.99667 1.94188 5.59987 2.00129 6.14804 2.22835C6.69622 2.45542 7.16476 2.83993 7.4944 3.33328C7.82405 3.82663 7.99999 4.40665 7.99999 4.99999C7.99912 5.79537 7.68277 6.55793 7.12035 7.12035C6.55793 7.68277 5.79538 7.99912 4.99999 7.99999ZM12 11C12 11.1978 11.9413 11.3911 11.8315 11.5556C11.7216 11.72 11.5654 11.8482 11.3827 11.9239C11.2 11.9996 10.9989 12.0194 10.8049 11.9808C10.6109 11.9422 10.4327 11.847 10.2929 11.7071C10.153 11.5672 10.0578 11.3891 10.0192 11.1951C9.98062 11.0011 10.0004 10.8 10.0761 10.6173C10.1518 10.4346 10.28 10.2784 10.4444 10.1685C10.6089 10.0586 10.8022 9.99999 11 9.99999C11.2651 10.0003 11.5193 10.1058 11.7068 10.2932C11.8942 10.4807 11.9997 10.7349 12 11ZM13 5.99999C12.8022 5.99999 12.6089 5.94134 12.4444 5.83146C12.28 5.72158 12.1518 5.5654 12.0761 5.38267C12.0004 5.19995 11.9806 4.99888 12.0192 4.8049C12.0578 4.61092 12.153 4.43274 12.2929 4.29288C12.4327 4.15303 12.6109 4.05779 12.8049 4.01921C12.9989 3.98062 13.2 4.00042 13.3827 4.07611C13.5654 4.1518 13.7216 4.27997 13.8315 4.44442C13.9413 4.60887 14 4.80221 14 4.99999C13.9997 5.26511 13.8942 5.51929 13.7068 5.70676C13.5193 5.89423 13.2651 5.99969 13 5.99999Z" fill="currentColor" style="fill-opacity:1"/>
</svg>
