<svg viewBox="0 0 16 16" fill="none" xmlns="http://www.w3.org/2000/svg">
<path id="icon" d="M8.00001 0.999997C6.42411 0.999753 4.89479 1.53436 3.66226 2.51635C3.60872 2.50643 3.55445 2.50096 3.50001 2.5C3.23479 2.5 2.98044 2.60535 2.7929 2.79289C2.60536 2.98043 2.50001 3.23478 2.50001 3.5C2.50097 3.55447 2.50644 3.60877 2.51636 3.66235C1.53609 4.90519 1.00648 6.44384 1.01412 8.02672C1.02175 9.60961 1.56618 11.1431 2.55839 12.3764C3.5506 13.6097 4.93188 14.47 6.4764 14.8164C8.02092 15.1629 9.6373 14.9751 11.0612 14.2838C12.4852 13.5924 13.6325 12.4384 14.3155 11.0105C14.9985 9.58253 15.1769 7.96509 14.8214 6.42262C14.466 4.88014 13.5977 3.5039 12.3586 2.51889C11.1195 1.53389 9.58291 0.998406 8.00001 0.999997ZM8.00001 14C6.88948 14.0021 5.80024 13.6954 4.85399 13.1142C3.90774 12.5329 3.14176 11.7 2.64164 10.7084C2.14151 9.71688 1.92695 8.60581 2.02193 7.49935C2.1169 6.3929 2.51767 5.33465 3.17946 4.44285C3.36442 4.51144 3.56659 4.51845 3.75586 4.46285L4.48756 5.19455C3.82126 6.02473 3.47135 7.0645 3.50019 8.12861C3.52902 9.19271 3.93472 10.212 4.645 11.0049C5.35527 11.7978 6.32399 12.3127 7.37852 12.458C8.43306 12.6032 9.50492 12.3694 10.4031 11.798C10.5948 11.9432 10.8326 12.0141 11.0725 11.9975C11.3124 11.981 11.5383 11.8783 11.7083 11.7082C11.8783 11.5382 11.9811 11.3124 11.9976 11.0725C12.0141 10.8326 11.9433 10.5948 11.7981 10.403C12.2565 9.68535 12.5 8.85153 12.5 7.99995C12.5 7.14837 12.2565 6.31455 11.7981 5.59685C11.9433 5.40512 12.0141 5.16734 11.9976 4.92743C11.9811 4.68753 11.8783 4.4617 11.7083 4.29166C11.5383 4.12162 11.3124 4.01885 11.0725 4.00235C10.8326 3.98584 10.5948 4.0567 10.4031 4.20185C9.61419 3.69856 8.68727 3.45541 7.7529 3.50666C6.81852 3.5579 5.92375 3.90095 5.19461 4.4875L4.46291 3.75585C4.51857 3.56658 4.51156 3.3644 4.44291 3.17945C5.20591 2.61624 6.09161 2.24204 7.0273 2.08757C7.96299 1.9331 8.92197 2.00278 9.82551 2.29087C10.729 2.57896 11.5514 3.07725 12.2249 3.74483C12.8985 4.41241 13.4041 5.23023 13.7003 6.13115C13.9965 7.03207 14.0747 7.9904 13.9286 8.92743C13.7826 9.86446 13.4163 10.7535 12.8599 11.5215C12.3036 12.2895 11.573 12.9146 10.7282 13.3454C9.88333 13.7763 8.94836 14.0006 8.00001 14ZM8.00001 7C8.19779 7 8.39113 7.05865 8.55558 7.16853C8.72003 7.27841 8.8482 7.43459 8.92389 7.61731C8.99957 7.80004 9.01938 8.00111 8.98079 8.19509C8.94221 8.38907 8.84696 8.56725 8.70711 8.7071C8.56726 8.84696 8.38908 8.9422 8.1951 8.98078C8.00111 9.01937 7.80005 8.99956 7.61732 8.92388C7.4346 8.84819 7.27842 8.72002 7.16854 8.55557C7.05865 8.39112 7.00001 8.19778 7.00001 8C7.00034 7.73488 7.1058 7.48072 7.29326 7.29325C7.48073 7.10579 7.73489 7.00033 8.00001 7ZM9.71656 6.9905L10.7442 5.9629C10.7814 5.97259 10.8193 5.98017 10.8574 5.9856C11.2754 6.57412 11.5 7.27812 11.5 8C11.5 8.72187 11.2754 9.42587 10.8574 10.0144C10.8193 10.0198 10.7814 10.0274 10.7442 10.0371L9.71656 9.0095C9.90194 8.7054 10 8.35614 10 8C10 7.64385 9.90194 7.29459 9.71656 6.9905ZM10.0144 5.1426C10.0198 5.18075 10.0274 5.21857 10.0371 5.25585L9.00951 6.28345C8.70541 6.09807 8.35615 6 8.00001 6C7.64386 6 7.2946 6.09807 6.99051 6.28345L5.90786 5.2007C6.49743 4.75609 7.21328 4.51079 7.95163 4.50034C8.68999 4.48989 9.41248 4.71485 10.0144 5.1426ZM6.28346 6.9905C6.09976 7.29532 6.00183 7.64411 6.00001 8C6.0006 8.53025 6.21151 9.03861 6.58645 9.41355C6.96139 9.7885 7.46976 9.9994 8.00001 10C8.35589 9.99814 8.70467 9.90021 9.00951 9.71655L10.0371 10.7441C10.0274 10.7814 10.0198 10.8192 10.0144 10.8574C9.33458 11.3392 8.50495 11.5623 7.67516 11.4862C6.84538 11.4102 6.07008 11.0401 5.48915 10.4428C4.90821 9.84539 4.55989 9.06008 4.50702 8.2285C4.45414 7.39692 4.7002 6.57382 5.20081 5.9077L6.28346 6.9905Z" fill="currentColor" style="fill-opacity:1"/>
</svg>
