<svg viewBox="0 0 16 16" fill="none" xmlns="http://www.w3.org/2000/svg">
<path d="M15 11H14V15H15V11Z" fill="currentColor" style="fill-opacity:1"/>
<path d="M13 9H12V15H13V9Z" fill="currentColor" style="fill-opacity:1"/>
<path d="M11 13H10V15H11V13Z" fill="currentColor" style="fill-opacity:1"/>
<path d="M4.5 8C3.80776 8 3.13107 8.20527 2.5555 8.58986C1.97993 8.97444 1.53133 9.52107 1.26642 10.1606C1.00151 10.8001 0.932202 11.5039 1.06725 12.1828C1.2023 12.8618 1.53564 13.4854 2.02512 13.9749C2.51461 14.4644 3.13825 14.7977 3.81718 14.9327C4.49612 15.0678 5.19985 14.9985 5.83939 14.7336C6.47893 14.4687 7.02556 14.0201 7.41014 13.4445C7.79473 12.8689 8 12.1922 8 11.5C7.99897 10.5721 7.62989 9.68242 6.97373 9.02627C6.31758 8.37011 5.42794 8.00103 4.5 8ZM6.94945 11H5V9.05055C5.47988 9.14947 5.92026 9.38682 6.26672 9.73328C6.61318 10.0797 6.85053 10.5201 6.94945 11ZM4.5 14C3.88049 14 3.28307 13.7699 2.82354 13.3544C2.36402 12.9389 2.07512 12.3676 2.01285 11.7513C1.95059 11.1349 2.11939 10.5174 2.48653 10.0184C2.85368 9.5194 3.39302 9.1745 4 9.05055V11C4 11.2652 4.10536 11.5196 4.29289 11.7071C4.48043 11.8946 4.73478 12 5 12H6.94945C6.8335 12.5642 6.52656 13.0713 6.08037 13.4356C5.63418 13.7999 5.07603 13.9992 4.5 14Z" fill="currentColor" style="fill-opacity:1"/>
<path d="M11.2676 6L13.2676 3H15V2H12.7324L10.7324 5H9V1H8V7C8 7.26522 8.10536 7.51957 8.29289 7.70711C8.48043 7.89464 8.73478 8 9 8H15V7H9V6H11.2676Z" fill="currentColor" style="fill-opacity:1"/>
<path d="M5.5 4C5.77614 4 6 3.77614 6 3.5C6 3.22386 5.77614 3 5.5 3C5.22386 3 5 3.22386 5 3.5C5 3.77614 5.22386 4 5.5 4Z" fill="currentColor" style="fill-opacity:1"/>
<path d="M4.5 6C4.77614 6 5 5.77614 5 5.5C5 5.22386 4.77614 5 4.5 5C4.22386 5 4 5.22386 4 5.5C4 5.77614 4.22386 6 4.5 6Z" fill="currentColor" style="fill-opacity:1"/>
<path d="M3.5 3C3.77614 3 4 2.77614 4 2.5C4 2.22386 3.77614 2 3.5 2C3.22386 2 3 2.22386 3 2.5C3 2.77614 3.22386 3 3.5 3Z" fill="currentColor" style="fill-opacity:1"/>
<path d="M2.5 5C2.77614 5 3 4.77614 3 4.5C3 4.22386 2.77614 4 2.5 4C2.22386 4 2 4.22386 2 4.5C2 4.77614 2.22386 5 2.5 5Z" fill="currentColor" style="fill-opacity:1"/>
<path d="M1.5 7C1.77614 7 2 6.77614 2 6.5C2 6.22386 1.77614 6 1.5 6C1.22386 6 0.999998 6.22386 0.999998 6.5C0.999998 6.77614 1.22386 7 1.5 7Z" fill="currentColor" style="fill-opacity:1"/>
</svg>
