<svg viewBox="0 0 16 16" fill="none" xmlns="http://www.w3.org/2000/svg">
<path d="M7 12C6.01109 12 5.04439 11.7068 4.22215 11.1573C3.3999 10.6079 2.75904 9.82704 2.3806 8.91341C2.00216 7.99978 1.90314 6.99445 2.09607 6.02455C2.289 5.05464 2.7652 4.16373 3.46446 3.46446C4.16373 2.7652 5.05464 2.289 6.02455 2.09607C6.99445 1.90314 7.99978 2.00216 8.91341 2.3806C9.82704 2.75904 10.6079 3.3999 11.1573 4.22215C11.7068 5.04439 12 6.01109 12 7H13C13 5.81331 12.6481 4.65327 11.9888 3.66658C11.3295 2.67988 10.3925 1.91085 9.2961 1.45672C8.19974 1.00259 6.99334 0.883774 5.82946 1.11529C4.66557 1.3468 3.59647 1.91824 2.75736 2.75736C1.91824 3.59647 1.3468 4.66557 1.11529 5.82946C0.883774 6.99334 1.00259 8.19974 1.45672 9.2961C1.91085 10.3925 2.67988 11.3295 3.66658 11.9888C4.65327 12.6481 5.81331 13 7 13V12Z" fill="currentColor" style="fill-opacity:1"/>
<path d="M6 7.795L4.705 6.5L4 7.205L6 9.205L9.5 5.705L8.795 5L6 7.795Z" fill="currentColor" style="fill-opacity:1"/>
<path d="M15 12C15 11.4067 14.824 10.8266 14.4944 10.3333C14.1648 9.83994 13.6962 9.45542 13.148 9.22836C12.5999 9.00129 11.9967 8.94188 11.4147 9.05764C10.8328 9.1734 10.2982 9.45912 9.87868 9.87868C9.45912 10.2982 9.1734 10.8328 9.05764 11.4147C8.94188 11.9967 9.00129 12.5999 9.22836 13.148C9.45542 13.6962 9.83994 14.1648 10.3333 14.4944C10.8266 14.824 11.4067 15 12 15C12.7954 14.9991 13.5579 14.6828 14.1204 14.1204C14.6828 13.5579 14.9991 12.7954 15 12ZM14 12C13.9981 12.3559 13.9002 12.7047 13.7165 13.0095L10.9905 10.2834C11.2953 10.0998 11.6441 10.0019 12 10C12.5302 10.0006 13.0386 10.2115 13.4136 10.5864C13.7885 10.9614 13.9994 11.4697 14 12ZM10 12C10.0018 11.6441 10.0998 11.2953 10.2834 10.9905L13.0095 13.7165C12.7047 13.9002 12.3559 13.9981 12 14C11.4697 13.9994 10.9614 13.7885 10.5864 13.4136C10.2115 13.0386 10.0006 12.5302 10 12Z" fill="currentColor" style="fill-opacity:1"/>
</svg>
