<svg viewBox="0 0 16 16" fill="none" xmlns="http://www.w3.org/2000/svg">
<path d="M15 12C15 11.4066 14.8241 10.8266 14.4944 10.3333C14.1648 9.83993 13.6962 9.45541 13.1481 9.22835C12.5999 9.00129 11.9967 8.94188 11.4147 9.05763C10.8328 9.17339 10.2982 9.45911 9.87869 9.87867C9.45913 10.2982 9.17341 10.8328 9.05765 11.4147C8.9419 11.9967 9.00131 12.5999 9.22837 13.148C9.45543 13.6962 9.83995 14.1648 10.3333 14.4944C10.8266 14.824 11.4067 15 12 15C12.7954 14.9991 13.5579 14.6828 14.1204 14.1203C14.6828 13.5579 14.9991 12.7954 15 12ZM14 12C13.9982 12.3559 13.9002 12.7047 13.7166 13.0095L10.9905 10.2834C11.2954 10.0998 11.6441 10.0019 12 9.99999C12.5303 10.0006 13.0386 10.2115 13.4136 10.5864C13.7885 10.9614 13.9994 11.4697 14 12ZM10 12C10.0019 11.6441 10.0998 11.2953 10.2835 10.9905L13.0095 13.7165C12.7047 13.9002 12.3559 13.9981 12 14C11.4698 13.9994 10.9614 13.7885 10.5865 13.4135C10.2115 13.0386 10.0006 12.5302 10 12Z" fill="currentColor" style="fill-opacity:1"/>
<path d="M7.00001 0.999991C6.16685 0.995165 5.34182 1.16391 4.57747 1.49548C3.81312 1.82706 3.1262 2.31418 2.56047 2.92584C1.99474 3.5375 1.5626 4.26027 1.29158 5.04813C1.02055 5.83599 0.916584 6.67165 0.986294 7.5019C1.056 8.33215 1.29787 9.13878 1.69647 9.87041C2.09508 10.602 2.64169 11.2426 3.30149 11.7514C3.9613 12.2602 4.71982 12.6259 5.52876 12.8254C6.3377 13.0249 7.17932 13.0537 8.00001 12.91V12C8.00001 10.9391 8.42143 9.92171 9.17158 9.17156C9.92173 8.42142 10.9391 7.99999 12 7.99999H12.91C13.0612 7.13934 13.0216 6.25599 12.7939 5.41234C12.5662 4.5687 12.156 3.78536 11.5923 3.11767C11.0286 2.44999 10.3251 1.91425 9.53156 1.54833C8.73803 1.1824 7.87383 0.995212 7.00001 0.999991ZM6.00001 9.29539L4.00001 7.29539L4.79541 6.49999L6.00001 7.70459L8.70461 4.99999L9.50001 5.79539L6.00001 9.29539Z" fill="currentColor" style="fill-opacity:1"/>
</svg>
