<svg viewBox="0 0 16 16" fill="none" xmlns="http://www.w3.org/2000/svg">
<path d="M7 12C6.01109 12 5.04439 11.7068 4.22215 11.1573C3.3999 10.6079 2.75904 9.82705 2.3806 8.91342C2.00216 7.99978 1.90314 6.99445 2.09607 6.02455C2.289 5.05464 2.7652 4.16373 3.46446 3.46446C4.16373 2.7652 5.05464 2.289 6.02455 2.09607C6.99445 1.90315 7.99978 2.00216 8.91341 2.3806C9.82704 2.75904 10.6079 3.3999 11.1573 4.22215C11.7068 5.04439 12 6.01109 12 7H13C13 5.81331 12.6481 4.65327 11.9888 3.66658C11.3295 2.67988 10.3925 1.91085 9.2961 1.45672C8.19974 1.00259 6.99334 0.883774 5.82946 1.11529C4.66557 1.3468 3.59647 1.91824 2.75736 2.75736C1.91824 3.59647 1.3468 4.66557 1.11529 5.82946C0.883774 6.99334 1.00259 8.19974 1.45672 9.2961C1.91085 10.3925 2.67988 11.3295 3.66658 11.9888C4.65327 12.6481 5.81331 13 7 13V12Z" fill="currentColor" style="fill-opacity:1"/>
<path d="M6 7.795L4.705 6.5L4 7.205L6 9.205L9.5 5.705L8.795 5L6 7.795Z" fill="currentColor" style="fill-opacity:1"/>
<path d="M13.69 14H10.3089L12 10.6179L13.69 14ZM12 9C11.9071 8.99997 11.8161 9.02581 11.7371 9.07462C11.658 9.12343 11.5942 9.19328 11.5526 9.27635L9.05265 14.2763C9.01459 14.3526 8.99664 14.4373 9.00051 14.5224C9.00437 14.6076 9.02992 14.6903 9.07474 14.7628C9.11955 14.8353 9.18213 14.8951 9.25656 14.9366C9.33098 14.9781 9.41478 15 9.5 15H14.5C14.5825 15 14.6638 14.9796 14.7365 14.9406C14.8092 14.9016 14.8712 14.8451 14.9168 14.7764C14.9624 14.7076 14.9903 14.6286 14.998 14.5464C15.0056 14.4642 14.9928 14.3814 14.9607 14.3054L12.4473 9.27635C12.4058 9.19329 12.3419 9.12344 12.2629 9.07463C12.1839 9.02582 12.0929 8.99998 12 9Z" fill="currentColor" style="fill-opacity:1"/>
</svg>
