<svg viewBox="0 0 16 16" fill="none" xmlns="http://www.w3.org/2000/svg">
<path d="M7 1C6.13899 0.998916 5.28784 1.18315 4.50436 1.54019C3.72087 1.89723 3.0234 2.41871 2.45933 3.06922C1.89526 3.71972 1.4778 4.484 1.23531 5.31015C0.992816 6.13631 0.930969 7.00497 1.05397 7.85714C1.17697 8.70932 1.48194 9.52504 1.94816 10.2489C2.41438 10.9728 3.03093 11.5878 3.75593 12.0522C4.48092 12.5167 5.29739 12.8196 6.14986 12.9405C7.00234 13.0615 7.87084 12.9975 8.6964 12.753L10.6587 8.82835C10.7827 8.57883 10.974 8.369 11.211 8.22261C11.4481 8.07621 11.7214 7.9991 12 8H12.91C13.0612 7.13936 13.0216 6.256 12.7939 5.41235C12.5662 4.56871 12.156 3.78537 11.5923 3.11768C11.0285 2.45 10.3251 1.91426 9.53155 1.54834C8.73802 1.18241 7.87382 0.995223 7 1ZM6 9.2954L4 7.2954L4.7954 6.5L6 7.7046L8.7046 5L9.5 5.7954L6 9.2954Z" fill="currentColor" style="fill-opacity:1"/>
<path d="M13.69 14H10.3089L12 10.6179L13.69 14ZM12 9C11.9071 8.99997 11.8161 9.02581 11.7371 9.07462C11.658 9.12343 11.5942 9.19329 11.5526 9.27635L9.05265 14.2764C9.01459 14.3526 8.99664 14.4373 9.00051 14.5224C9.00437 14.6076 9.02993 14.6903 9.07474 14.7628C9.11955 14.8353 9.18213 14.8951 9.25656 14.9366C9.33098 14.9781 9.41478 15 9.5 15H14.5C14.5825 15 14.6638 14.9796 14.7365 14.9406C14.8092 14.9016 14.8712 14.8451 14.9168 14.7764C14.9624 14.7076 14.9903 14.6286 14.998 14.5464C15.0056 14.4642 14.9928 14.3814 14.9607 14.3054L12.4473 9.27635C12.4058 9.19329 12.3419 9.12345 12.2629 9.07464C12.1839 9.02583 12.0929 8.99998 12 9Z" fill="currentColor" style="fill-opacity:1"/>
</svg>
