<svg viewBox="0 0 16 16" fill="none" xmlns="http://www.w3.org/2000/svg">
<path id="icon" d="M14.6214 2.01501L10.6214 1.01501C10.5193 0.989678 10.4119 0.996934 10.3142 1.03576L5.4642 2.97576L1.62135 2.01501C1.54764 1.99657 1.47069 1.99517 1.39635 2.01093C1.32201 2.02668 1.25225 2.05917 1.19235 2.10592C1.13245 2.15268 1.08399 2.21247 1.05066 2.28076C1.01733 2.34904 1.00001 2.42403 1 2.50001V13.5C1.00001 13.6115 1.03728 13.7198 1.10589 13.8077C1.17449 13.8955 1.2705 13.958 1.37865 13.985L5.37865 14.985C5.41836 14.9948 5.4591 14.9999 5.5 15C5.56366 15 5.62673 14.9879 5.6858 14.9641L10.5358 13.0241L14.3788 13.9851C14.4525 14.0035 14.5294 14.0049 14.6038 13.9891C14.6781 13.9733 14.7478 13.9408 14.8077 13.8941C14.8676 13.8473 14.916 13.7875 14.9494 13.7192C14.9827 13.651 15 13.576 15 13.5V2.50001C15 2.38853 14.9627 2.28025 14.8941 2.19237C14.8255 2.1045 14.7295 2.04207 14.6214 2.01501ZM14 5.50001H11V2.14031L14 2.89031V5.50001ZM5 9.50001H2V6.50001H5V9.50001ZM6 5.50001V3.83856L10 2.23856V5.50001H6ZM10 6.50001V9.50001H6V6.50001H10ZM6 10.5H10V12.1614L6 13.7614V10.5ZM11 6.50001H14V9.50001H11V6.50001ZM5 3.89031V5.50001H2V3.14031L5 3.89031ZM2 10.5H5V13.8596L2 13.1096V10.5ZM11 12.1094V10.5H14V12.8596L11 12.1094Z" fill="currentColor" style="fill-opacity:1"/>
</svg>
