<svg viewBox="0 0 16 16" fill="none" xmlns="http://www.w3.org/2000/svg">
<path d="M11.5 11L15 13.5L11.5 16V11Z" fill="currentColor" style="fill-opacity:1"/>
<path d="M13 1.5H3C2.17285 1.5 1.5 2.17285 1.5 3V13C1.5 13.8271 2.17285 14.5 3 14.5H8.5V10H14.5V3C14.5 2.17285 13.8271 1.5 13 1.5ZM3 2.5H13C13.2758 2.5 13.5 2.7241 13.5 3V4.5H2.5V3C2.5 2.7241 2.72425 2.5 3 2.5ZM7.5 5.5V9H2.5V5.5H7.5ZM7.5 13.5H3C2.72425 13.5 2.5 13.2759 2.5 13V10H7.5V13.5ZM8.5 9V5.5H13.5V9H8.5Z" fill="currentColor" style="fill-opacity:1"/>
</svg>
