<svg viewBox="0 0 16 16" fill="none" xmlns="http://www.w3.org/2000/svg">
<path d="M15.8535 10.1465L14.3535 8.6465C14.1585 8.4512 13.8416 8.4512 13.6465 8.6465L8.99995 13.293V15.5H11.2071L15.8534 10.8535C16.0487 10.6582 16.0488 10.3418 15.8535 10.1465ZM10.7928 14.5H9.99995V13.7071L12.5 11.2071L13.2929 12L10.7928 14.5ZM14 11.293L13.207 10.5L14 9.7071L14.7928 10.5L14 11.293Z" fill="currentColor" style="fill-opacity:1"/>
<path d="M10 10V9H8V5.5H13V6.5H14V3C14 2.17285 13.3271 1.5 12.5 1.5H2.5C1.67285 1.5 1 2.17285 1 3V13C1 13.8271 1.67285 14.5 2.5 14.5H8V10H10ZM7 9H2V5.5H7V9ZM2.5 2.5H12.5C12.7758 2.5 13 2.7241 13 3V4.5H2V3C2 2.7241 2.22425 2.5 2.5 2.5ZM7 13.5H2.5C2.22425 13.5 2 13.2759 2 13V10H7V13.5Z" fill="currentColor" style="fill-opacity:1"/>
</svg>
