<svg viewBox="0 0 16 16" fill="none" xmlns="http://www.w3.org/2000/svg">
<path d="M15.1667 15H13V14H15V13H14C13.7349 12.9997 13.4807 12.8943 13.2932 12.7068C13.1057 12.5193 13.0003 12.2651 13 12V10.8333C13.0003 10.6123 13.0881 10.4005 13.2443 10.2443C13.4005 10.0881 13.6123 10.0003 13.8332 10H16V11H14V12H15C15.2651 12.0003 15.5193 12.1057 15.7068 12.2932C15.8943 12.4807 15.9997 12.7349 16 13V14.1667C15.9997 14.3877 15.9119 14.5995 15.7557 14.7557C15.5995 14.9119 15.3877 14.9997 15.1667 15Z" fill="currentColor" style="fill-opacity:1"/>
<path d="M11.1667 10H9.83325C9.61226 10 9.40032 10.0878 9.24405 10.2441C9.08779 10.4003 9 10.6123 9 10.8333V15H10V13H11V15H12V10.8333C12 10.6123 11.9122 10.4003 11.7559 10.2441C11.5997 10.0878 11.3877 10 11.1667 10ZM10 12V11H11V12H10Z" fill="currentColor" style="fill-opacity:1"/>
<path d="M6.25 12L5.5 10H4.5V15H5.5V11.5L6.25 13.5L7 11.5V15H8V10H7L6.25 12Z" fill="currentColor" style="fill-opacity:1"/>
<path d="M0.5 11V14.25C0.498147 14.349 0.516281 14.4474 0.553316 14.5392C0.590351 14.631 0.645526 14.7144 0.715543 14.7845C0.785559 14.8545 0.868978 14.9096 0.96081 14.9467C1.05264 14.9837 1.151 15.0019 1.25 15H3.5V14H1.5V11H3.5V10H1.5C1.23502 10.0008 0.981121 10.1064 0.793753 10.2938C0.606385 10.4811 0.500778 10.735 0.5 11Z" fill="currentColor" style="fill-opacity:1"/>
<path d="M6.5 4H5.5V5.5H4V6.5H5.5V8H6.5V6.5H8V5.5H6.5V4Z" fill="currentColor" style="fill-opacity:1"/>
<path d="M3 3H13V9H14V3C13.9992 2.73502 13.8936 2.48112 13.7062 2.29375C13.5189 2.10638 13.265 2.00078 13 2H3C2.73502 2.00078 2.48112 2.10638 2.29375 2.29375C2.10638 2.48112 2.00078 2.73502 2 3V9H3V3Z" fill="currentColor" style="fill-opacity:1"/>
</svg>
