<svg viewBox="0 0 16 16" fill="none" xmlns="http://www.w3.org/2000/svg">
<path d="M12 8L9.7 7.3L10.85 5.15L8.7 6.3L8 4L7.3 6.3L5.15 5.15L6.3 7.3L4 8L6.3 8.7L5.15 10.85L7.3 9.7L8 12L8.7 9.7L10.85 10.85L9.7 8.7L12 8Z" fill="currentColor" style="fill-opacity:1"/>
<path d="M8 15C6.61553 15 5.26215 14.5895 4.11101 13.8203C2.95986 13.0511 2.06266 11.9579 1.53284 10.6788C1.00303 9.3997 0.864407 7.99223 1.1345 6.63437C1.4046 5.2765 2.07128 4.02922 3.05025 3.05025C4.02922 2.07128 5.2765 1.4046 6.63437 1.1345C7.99223 0.864407 9.3997 1.00303 10.6788 1.53284C11.9579 2.06266 13.0511 2.95986 13.8203 4.11101C14.5895 5.26215 15 6.61553 15 8C14.9979 9.85587 14.2597 11.6351 12.9474 12.9474C11.6351 14.2597 9.85587 14.9979 8 15ZM8 2C6.81331 2 5.65327 2.35189 4.66658 3.01118C3.67988 3.67047 2.91085 4.60754 2.45672 5.7039C2.0026 6.80026 1.88378 8.00665 2.11529 9.17054C2.3468 10.3344 2.91824 11.4035 3.75736 12.2426C4.59647 13.0818 5.66557 13.6532 6.82946 13.8847C7.99334 14.1162 9.19974 13.9974 10.2961 13.5433C11.3925 13.0891 12.3295 12.3201 12.9888 11.3334C13.6481 10.3467 14 9.18669 14 8C13.9982 6.40926 13.3655 4.88419 12.2406 3.75936C11.1158 2.63454 9.59074 2.00181 8 2Z" fill="currentColor" style="fill-opacity:1"/>
</svg>
