<svg viewBox="0 0 16 16" fill="none" xmlns="http://www.w3.org/2000/svg">
<path d="M8 15C6.61553 15 5.26215 14.5895 4.111 13.8203C2.95986 13.0511 2.06265 11.9579 1.53284 10.6788C1.00303 9.3997 0.864403 7.99223 1.1345 6.63436C1.4046 5.2765 2.07128 4.02922 3.05025 3.05025C4.02922 2.07128 5.2765 1.4046 6.63436 1.1345C7.99223 0.864403 9.3997 1.00303 10.6788 1.53284C11.9579 2.06265 13.0511 2.95986 13.8203 4.111C14.5895 5.26215 15 6.61553 15 8C15 9.85651 14.2625 11.637 12.9497 12.9497C11.637 14.2625 9.85651 15 8 15ZM8 2C6.81331 2 5.65327 2.35189 4.66658 3.01118C3.67988 3.67047 2.91085 4.60754 2.45672 5.7039C2.00259 6.80025 1.88377 8.00665 2.11529 9.17054C2.3468 10.3344 2.91824 11.4035 3.75736 12.2426C4.59647 13.0818 5.66557 13.6532 6.82946 13.8847C7.99334 14.1162 9.19974 13.9974 10.2961 13.5433C11.3925 13.0891 12.3295 12.3201 12.9888 11.3334C13.6481 10.3467 14 9.18668 14 8C14 6.4087 13.3679 4.88257 12.2426 3.75736C11.1174 2.63214 9.5913 2 8 2Z" fill="currentColor" style="fill-opacity:1"/>
<path d="M10.5 6.205V8H11.5V4.5H8V5.5H9.795L5.5 9.795V8H4.5V11.5H8V10.5H6.205L10.5 6.205Z" fill="currentColor" style="fill-opacity:1"/>
</svg>
