<svg viewBox="0 0 16 16" fill="none" xmlns="http://www.w3.org/2000/svg">
<path d="M7.5 10C7.77614 10 8 9.77615 8 9.50001C8 9.22387 7.77614 9.00001 7.5 9.00001C7.22386 9.00001 7 9.22387 7 9.50001C7 9.77615 7.22386 10 7.5 10Z" fill="currentColor" style="fill-opacity:1"/>
<path d="M13.85 4.65001L10.35 1.15001C10.306 1.10118 10.2519 1.06247 10.1915 1.03658C10.131 1.01068 10.0657 0.998203 10 1.00001H5C4.73502 1.00078 4.48111 1.10638 4.29374 1.29375C4.10637 1.48112 4.00077 1.73503 4 2.00001V7.00001H3C2.73488 7.00032 2.4807 7.10577 2.29323 7.29324C2.10576 7.48071 2.0003 7.73489 2 8.00001V11C2.0003 11.2651 2.10576 11.5193 2.29323 11.7068C2.4807 11.8943 2.73488 11.9997 3 12H4V14C4.00077 14.265 4.10637 14.5189 4.29374 14.7063C4.48111 14.8936 4.73502 14.9992 5 15H13C13.265 14.9992 13.5189 14.8936 13.7063 14.7063C13.8936 14.5189 13.9992 14.265 14 14V5.00001C14.0018 4.9343 13.9893 4.86897 13.9634 4.80855C13.9375 4.74812 13.8988 4.69404 13.85 4.65001ZM10 2.20001L12.8 5.00001H10V2.20001ZM3 8.00001H7.7986L9.5 9.50001L7.8037 11H3V8.00001ZM13 14H5V12H7.80445C8.04587 11.9995 8.27903 11.9121 8.4612 11.7537L10.1529 10.2578C10.2614 10.1642 10.3485 10.0484 10.4084 9.91824C10.4683 9.78806 10.4996 9.64653 10.5001 9.50323C10.5005 9.35992 10.4702 9.21819 10.4112 9.08761C10.3522 8.95703 10.2658 8.84066 10.1579 8.74636L8.4562 7.24221C8.275 7.08597 8.04371 7.00001 7.80445 7.00001H5V2.00001H9V5.00001C9.00077 5.26499 9.10637 5.5189 9.29374 5.70627C9.48111 5.89364 9.73502 5.99925 10 6.00001H13V14Z" fill="currentColor" style="fill-opacity:1"/>
</svg>
