<svg viewBox="0 0 16 16" fill="none" xmlns="http://www.w3.org/2000/svg">
<path d="M15 5.00001V1.00001H11V5.00001H12.5V7.00001H11.5V8.00001H15V7.00001H13.5V5.00001H15ZM12 2.00001H14V4.00001H12V2.00001Z" fill="currentColor" style="fill-opacity:1"/>
<path d="M10 11.705L9.295 11L8 12.295L6.705 11L6 11.705L7.295 13L6 14.295L6.705 15L8 13.705L9.295 15L10 14.295L8.705 13L10 11.705Z" fill="currentColor" style="fill-opacity:1"/>
<path d="M10 7.00001H6V8.00001H7.5V10.5H8.5V8.00001H10V7.00001Z" fill="currentColor" style="fill-opacity:1"/>
<path d="M3.5 4.93001C3.97132 4.80831 4.38209 4.51889 4.6553 4.116C4.9285 3.71312 5.04539 3.22442 4.98405 2.74151C4.92272 2.2586 4.68736 1.81464 4.32211 1.49285C3.95686 1.17105 3.48678 0.993517 3 0.993517C2.51321 0.993517 2.04313 1.17105 1.67788 1.49285C1.31263 1.81464 1.07727 2.2586 1.01594 2.74151C0.954599 3.22442 1.07149 3.71312 1.34469 4.116C1.6179 4.51889 2.02867 4.80831 2.5 4.93001V7.00001H0.999995V8.00001H4.5V7.00001H3.5V4.93001ZM2 3.00001C2 2.80223 2.05864 2.60889 2.16853 2.44444C2.27841 2.27999 2.43459 2.15182 2.61731 2.07613C2.80004 2.00044 3.0011 1.98064 3.19509 2.01922C3.38907 2.05781 3.56725 2.15305 3.7071 2.2929C3.84695 2.43275 3.9422 2.61094 3.98078 2.80492C4.01937 2.9989 3.99956 3.19997 3.92387 3.38269C3.84819 3.56542 3.72001 3.7216 3.55557 3.83148C3.39112 3.94136 3.19778 4.00001 3 4.00001C2.73478 4.00001 2.48042 3.89465 2.29289 3.70712C2.10535 3.51958 2 3.26523 2 3.00001Z" fill="currentColor" style="fill-opacity:1"/>
</svg>
