<svg viewBox="0 0 16 16" fill="none" xmlns="http://www.w3.org/2000/svg">
<path d="M9.99999 10H13V9H9.99999V10Z" fill="currentColor" style="fill-opacity:1"/>
<path d="M12 14H15V13H12V14Z" fill="currentColor" style="fill-opacity:1"/>
<path d="M11 12H14V11H11V12Z" fill="currentColor" style="fill-opacity:1"/>
<path d="M8.50144 10C8.49788 9.5781 8.38531 9.16428 8.17467 8.79871C7.96403 8.43313 7.66247 8.12822 7.29924 7.91355L11 1.5L10.1345 1L6.34664 7.563C5.88167 7.45909 5.39807 7.47343 4.94007 7.6047C4.48208 7.73598 4.06431 7.98 3.72499 8.31445C1.85319 10.12 1.99814 14.3411 2.00499 14.52C2.01016 14.6491 2.06511 14.7712 2.15832 14.8607C2.25154 14.9502 2.37578 15.0001 2.50499 15H10.0006C10.1055 15 10.2078 14.967 10.2929 14.9056C10.3781 14.8443 10.4417 14.7577 10.4749 14.6581C10.5081 14.5586 10.5091 14.4511 10.4778 14.3509C10.4466 14.2507 10.3845 14.163 10.3006 14.1C8.53074 12.772 8.50144 10.0268 8.50144 10ZM5.96499 8.49855C6.36518 8.50293 6.74827 8.66144 7.03455 8.9411C7.32084 9.22076 7.48828 9.60003 7.50204 10C7.50204 10.019 7.50299 10.104 7.51044 10.2344L4.56074 8.9226C4.75503 8.76239 4.97922 8.64239 5.22029 8.56959C5.46136 8.4968 5.7145 8.47265 5.96499 8.49855ZM7.72469 14C7.32514 13.593 7.0705 13.066 6.99999 12.5H5.99999C6.03585 13.0322 6.20214 13.5473 6.48419 14H5.37254C5.1669 13.3511 5.04178 12.6794 4.99999 12H3.99999C4.03227 12.6774 4.1439 13.3486 4.33259 14H2.99999C3.01549 13.0818 3.14499 11.054 3.90134 9.72365L7.66784 11.3987C7.849 12.3383 8.235 13.2265 8.79839 14H7.72469Z" fill="currentColor" style="fill-opacity:1"/>
</svg>
