<svg viewBox="0 0 16 16" fill="none" xmlns="http://www.w3.org/2000/svg">
<g id="Icons / Cloud--data-ops" clip-path="url(#clip0_0_482)">
<g id="icon">
<path d="M15 8.99999H14V14H15V8.99999Z" fill="currentColor" style="fill-opacity:1"/>
<path d="M13 6.99999H12V14H13V6.99999Z" fill="currentColor" style="fill-opacity:1"/>
<path d="M11 11H10V14H11V11Z" fill="currentColor" style="fill-opacity:1"/>
<path d="M11.0875 4.99999L11.88 4.36694C11.1431 3.4457 10.1029 2.81622 8.945 2.59079C8.29973 2.46614 7.63623 2.46988 6.99241 2.60182C6.3486 2.73375 5.73709 2.99128 5.19287 3.35968C4.64864 3.72808 4.18236 4.20014 3.82067 4.74886C3.45899 5.29757 3.209 5.9122 3.085 6.55759C2.14235 6.72794 1.30053 7.25232 0.73202 8.02329C0.163508 8.79426 -0.0886539 9.75345 0.0272 10.7043C0.159918 11.6286 0.624664 12.4729 1.33457 13.0794C2.04448 13.6859 2.95097 14.0132 3.8846 14H8V13H3.84725C3.19237 13.0102 2.55441 12.7919 2.04315 12.3825C1.53189 11.9731 1.17931 11.3984 1.0461 10.7571C0.979391 10.4003 0.983893 10.0338 1.05935 9.67878C1.1348 9.32373 1.27972 8.9871 1.48576 8.68827C1.6918 8.38944 1.9549 8.1343 2.25992 7.93753C2.56494 7.74076 2.90585 7.60625 3.26305 7.54174L3.93735 7.41969L4.0443 6.86469C4.19448 6.03071 4.59919 5.2637 5.20285 4.669C5.8065 4.0743 6.57948 3.68109 7.4156 3.54339C7.91744 3.46889 8.42889 3.49096 8.92245 3.60839C9.78075 3.81404 10.544 4.3046 11.0875 4.99999Z" fill="currentColor" style="fill-opacity:1"/>
</g>
</g>
<defs>
<clipPath id="clip0_0_482">
<rect width="16" height="16" fill="currentColor" style="fill-opacity:1"/>
</clipPath>
</defs>
</svg>
