<svg viewBox="0 0 16 16" fill="none" xmlns="http://www.w3.org/2000/svg">
<path id="icon" d="M15.0003 7.75023C14.9967 7.0024 14.7366 6.27844 14.2635 5.69931C13.7903 5.12018 13.1328 4.72095 12.4007 4.56833C12.1876 3.55919 11.6341 2.65395 10.833 2.00433C10.0319 1.3547 9.0319 1.00018 8.00051 1.00018C6.96912 1.00018 5.96907 1.3547 5.16797 2.00433C4.36688 2.65395 3.81342 3.55919 3.60036 4.56833C2.86817 4.72085 2.21051 5.12003 1.73728 5.69918C1.26404 6.27832 1.00391 7.00234 1.00036 7.75023C1.00071 8.55516 1.30186 9.33091 1.84471 9.92524C1.43482 10.3476 1.15864 10.8815 1.05073 11.4601C0.942821 12.0387 1.00798 12.6362 1.23806 13.178C1.46814 13.7197 1.8529 14.1815 2.34419 14.5056C2.83548 14.8297 3.41145 15.0017 4.00001 15H9.50001C9.98505 15.0019 10.4633 14.8857 10.8934 14.6615C11.3235 14.4372 11.6925 14.1116 11.9686 13.7128C12.2447 13.3141 12.4196 12.854 12.4782 12.3725C12.5367 11.891 12.4772 11.4025 12.3047 10.9492C13.0585 10.8182 13.742 10.4256 14.235 9.84054C14.728 9.25546 14.999 8.51532 15.0003 7.75023ZM9.50001 14H4.00001C3.49911 14.001 3.01615 13.8136 2.64694 13.4751C2.27774 13.1366 2.04929 12.6717 2.00692 12.1726C1.96456 11.6735 2.11137 11.1767 2.41823 10.7808C2.72508 10.3849 3.16956 10.1188 3.66346 10.0354L3.99501 9.97899L4.06791 9.65088C4.20372 9.04075 4.54349 8.49514 5.03114 8.1041C5.51879 7.71306 6.12519 7.49996 6.75026 7.49996C7.37533 7.49996 7.98173 7.71306 8.46938 8.1041C8.95703 8.49514 9.2968 9.04075 9.43261 9.65088L9.50551 9.97899L9.83681 10.0354C10.3307 10.1188 10.7752 10.3849 11.0821 10.7808C11.3889 11.1768 11.5357 11.6736 11.4933 12.1727C11.4509 12.6718 11.2224 13.1368 10.8532 13.4753C10.4839 13.8138 10.0009 14.001 9.50001 14ZM11.75 9.99998H11.7223C11.3484 9.58136 10.8638 9.27693 10.3244 9.12179C10.0849 8.36133 9.60921 7.69705 8.96636 7.22549C8.3235 6.75394 7.54702 6.49968 6.74976 6.49968C5.9525 6.49968 5.17601 6.75394 4.53316 7.22549C3.89031 7.69705 3.4146 8.36133 3.17516 9.12179C2.99731 9.17357 2.82466 9.24174 2.65941 9.32543C2.45106 9.11932 2.28554 8.87404 2.17237 8.6037C2.0592 8.33336 2.00063 8.04331 2.00001 7.75023C2.00259 7.18531 2.2168 6.64186 2.60037 6.2271C2.98393 5.81234 3.50901 5.55639 4.07201 5.50973L4.47976 5.47778L4.52931 5.07179C4.63313 4.22433 5.04341 3.44413 5.68279 2.8783C6.32217 2.31247 7.14646 2.00011 8.00026 2.00011C8.85406 2.00011 9.67835 2.31247 10.3177 2.8783C10.9571 3.44413 11.3674 4.22433 11.4712 5.07179L11.5205 5.47778L11.9282 5.50973C12.5075 5.55555 13.0466 5.82386 13.4325 6.2584C13.8183 6.69294 14.0209 7.25999 13.9979 7.84065C13.9749 8.42132 13.7279 8.97052 13.3089 9.37313C12.8898 9.77573 12.3311 10.0002 11.75 9.99998Z" fill="currentColor" style="fill-opacity:1"/>
</svg>
