<svg viewBox="0 0 16 16" fill="none" xmlns="http://www.w3.org/2000/svg">
<path d="M5.5 14H1V15H5.5V14Z" fill="currentColor" style="fill-opacity:1"/>
<path d="M15 14H10.5V15H15V14Z" fill="currentColor" style="fill-opacity:1"/>
<path d="M8.5 13.0835V8.916L9.793 10.207L10.5 9.5L8 7L5.5 9.5L6.2065 10.2075L7.5 8.916V13.0835L6.2065 11.792L5.5 12.5L8 15L10.5 12.5L9.793 11.793L8.5 13.0835Z" fill="currentColor" style="fill-opacity:1"/>
<path d="M11.5 8H10.5V7H11.5C11.8978 7 12.2794 6.84197 12.5607 6.56066C12.842 6.27936 13 5.89783 13 5.5C13 5.10218 12.842 4.72065 12.5607 4.43934C12.2794 4.15804 11.8978 4 11.5 4C11.4531 4.0072 11.4231 4.01095 11.3923 4.01315L10.9905 4.04175L10.8772 3.655C10.7064 3.07109 10.3619 2.55301 9.88954 2.16963C9.41715 1.78625 8.83926 1.55576 8.23271 1.50878C7.62615 1.46181 7.01966 1.60058 6.49388 1.90666C5.96811 2.21273 5.54796 2.6716 5.2893 3.22225L5.1477 3.52195L4.72655 3.4992C4.26232 3.50231 3.81833 3.68971 3.49226 4.02017C3.1662 4.35064 2.98477 4.79709 2.98787 5.26133C2.99098 5.72556 3.17838 6.16955 3.50885 6.49561C3.83931 6.82168 4.28577 7.00311 4.75 7H5.5V8H4.75C4.03902 8.00039 3.35552 7.72541 2.84291 7.23274C2.33029 6.74007 2.02841 6.06802 2.0006 5.35758C1.97278 4.64715 2.2212 3.95355 2.69373 3.42231C3.16626 2.89108 3.82617 2.5635 4.535 2.5083C4.90832 1.85702 5.45757 1.32408 6.11981 0.97056C6.78205 0.617041 7.5305 0.457242 8.27937 0.509475C9.02824 0.561708 9.74725 0.823861 10.354 1.26589C10.9608 1.70792 11.4307 2.31195 11.71 3.00875C12.3528 3.06267 12.9498 3.36294 13.3764 3.84679C13.8029 4.33065 14.0259 4.96064 13.9988 5.60509C13.9717 6.24955 13.6965 6.85858 13.2309 7.30489C12.7652 7.75121 12.145 8.00027 11.5 8Z" fill="currentColor" style="fill-opacity:1"/>
</svg>
