<svg viewBox="0 0 16 16" fill="none" xmlns="http://www.w3.org/2000/svg">
<path id="icon" d="M7.99999 3.5C8.25352 3.49995 8.50643 3.52507 8.75499 3.575C9.54047 3.72543 10.2628 4.10787 10.8288 4.67294C11.3947 5.23801 11.7783 5.95976 11.93 6.745L12.06 7.42L12.735 7.54C13.4168 7.65725 14.0293 8.02715 14.4505 8.57594C14.8716 9.12473 15.0705 9.8121 15.0074 10.501C14.9443 11.1899 14.6239 11.8297 14.1101 12.2929C13.5962 12.756 12.9267 13.0085 12.235 13H3.74999C3.05827 13.0085 2.38874 12.756 1.8749 12.2929C1.36106 11.8297 1.04066 11.1899 0.977573 10.501C0.914488 9.8121 1.11335 9.12473 1.53453 8.57594C1.9557 8.02715 2.56823 7.65725 3.24999 7.54L3.91999 7.42L4.04999 6.745C4.2262 5.82815 4.71757 5.00182 5.43898 4.40917C6.16039 3.81652 7.06638 3.49489 7.99999 3.5ZM7.99999 2.5C6.8363 2.49903 5.70872 2.90399 4.81153 3.6451C3.91435 4.38621 3.30377 5.41706 3.08499 6.56C2.16416 6.72672 1.33894 7.23171 0.771405 7.97578C0.203876 8.71985 -0.0649443 9.64922 0.0177459 10.5814C0.100436 11.5135 0.52866 12.3811 1.21831 13.0136C1.90796 13.6461 2.80919 13.998 3.74499 14H12.245C13.1808 13.998 14.082 13.6461 14.7717 13.0136C15.4613 12.3811 15.8896 11.5135 15.9722 10.5814C16.0549 9.64922 15.7861 8.71985 15.2186 7.97578C14.6511 7.23171 13.8258 6.72672 12.905 6.56C12.7167 5.57691 12.2376 4.67297 11.5298 3.96517C10.822 3.25738 9.91809 2.77832 8.93499 2.59C8.62673 2.5315 8.31376 2.50137 7.99999 2.5Z" fill="currentColor" style="fill-opacity:1"/>
</svg>
