<svg viewBox="0 0 16 16" fill="none" xmlns="http://www.w3.org/2000/svg">
<g id="Icons / Cloud-services" clip-path="url(#clip0_0_594)">
<g id="icon">
<path d="M12.9109 5.06199C12.6928 3.91932 12.083 2.88848 11.1866 2.14701C10.2902 1.40555 9.16334 0.999886 8.00004 0.999886C6.83673 0.999886 5.70984 1.40555 4.81345 2.14701C3.91706 2.88848 3.30729 3.91932 3.08916 5.06199C2.1668 5.22674 1.33958 5.73098 0.770519 6.47534C0.201458 7.21971 -0.0681773 8.15021 0.0147436 9.0835C0.0976644 10.0168 0.527128 10.8852 1.21851 11.5176C1.90989 12.1499 2.81305 12.5004 3.75001 12.5H4.00001V11.5H3.75001C3.03721 11.5004 2.35211 11.2239 1.83935 10.7288C1.32659 10.2336 1.02629 9.5586 1.00183 8.84622C0.977377 8.13383 1.23069 7.43981 1.70829 6.91067C2.18589 6.38153 2.8504 6.05867 3.56156 6.01024L3.97976 5.98169L4.02476 5.56494C4.13172 4.58533 4.59662 3.6797 5.33027 3.02179C6.06392 2.36388 7.01465 2.00003 8.00009 2.00003C8.98553 2.00003 9.93626 2.36388 10.6699 3.02179C11.4036 3.6797 11.8685 4.58533 11.9754 5.56494L12.0204 5.98169L12.4386 6.01024C13.1498 6.05867 13.8143 6.38154 14.2919 6.9107C14.7695 7.43986 15.0228 8.13389 14.9983 8.84629C14.9739 9.55869 14.6735 10.2337 14.1607 10.7288C13.648 11.224 12.9628 11.5005 12.25 11.5H12V12.5H12.25C13.187 12.5004 14.0902 12.15 14.7815 11.5176C15.4729 10.8852 15.9024 10.0168 15.9853 9.08353C16.0683 8.15023 15.7986 7.21972 15.2296 6.47535C14.6605 5.73098 13.8333 5.22674 12.9109 5.06199Z" fill="currentColor" style="fill-opacity:1"/>
<path d="M11.5 11V9.99999H10.4495C10.385 9.68702 10.2607 9.38943 10.0835 9.12354L10.8285 8.37854L10.1215 7.67154L9.37651 8.41654C9.11061 8.23929 8.813 8.11502 8.50001 8.05054V6.99999H7.50001V8.05054C7.18705 8.11501 6.88946 8.23927 6.62356 8.41649L5.87856 7.67149L5.17156 8.37849L5.91656 9.12349C5.73932 9.38939 5.61505 9.687 5.55056 9.99999H4.50001V11H5.55056C5.61504 11.313 5.73929 11.6105 5.91651 11.8764L5.17151 12.6214L5.87851 13.3284L6.62351 12.5834C6.88942 12.7607 7.18702 12.885 7.50001 12.9494V14H8.50001V12.9494C8.81298 12.885 9.11057 12.7607 9.37646 12.5835L10.1215 13.3285L10.8285 12.6215L10.0835 11.8765C10.2607 11.6106 10.385 11.313 10.4495 11H11.5ZM8.00001 12C7.70334 12 7.41333 11.912 7.16666 11.7472C6.91999 11.5824 6.72773 11.3481 6.6142 11.074C6.50066 10.7999 6.47096 10.4983 6.52884 10.2074C6.58671 9.91638 6.72958 9.64911 6.93935 9.43933C7.14913 9.22955 7.41641 9.08669 7.70738 9.02881C7.99835 8.97093 8.29995 9.00064 8.57404 9.11417C8.84813 9.2277 9.0824 9.41996 9.24722 9.66663C9.41204 9.91331 9.50001 10.2033 9.50001 10.5C9.49958 10.8977 9.3414 11.279 9.06019 11.5602C8.77898 11.8414 8.39771 11.9996 8.00001 12Z" fill="currentColor" style="fill-opacity:1"/>
</g>
</g>
<defs>
<clipPath id="clip0_0_594">
<rect width="16" height="16" fill="currentColor" style="fill-opacity:1"/>
</clipPath>
</defs>
</svg>
