<svg viewBox="0 0 16 16" fill="none" xmlns="http://www.w3.org/2000/svg">
<path d="M14 8.5V11H2V3H7.5V2H2C1.73478 2 1.48043 2.10535 1.29289 2.29289C1.10536 2.48043 1 2.73478 1 3V11C1 11.2652 1.10536 11.5196 1.29289 11.7071C1.48043 11.8946 1.73478 12 2 12H6V14H4V15H12V14H10V12H14C14.2652 12 14.5196 11.8946 14.7071 11.7071C14.8946 11.5196 15 11.2652 15 11V8.5H14ZM9 14H7V12H9V14Z" fill="currentColor" style="fill-opacity:1"/>
<path d="M14.5 7H8.5C8.41153 6.99998 8.32465 6.9765 8.24822 6.93193C8.17179 6.88737 8.10856 6.82333 8.06497 6.74634C8.02138 6.66935 7.999 6.58218 8.00011 6.49371C8.00123 6.40525 8.02579 6.31867 8.0713 6.2428L11.0713 1.2428C11.1157 1.16871 11.1786 1.1074 11.2537 1.06482C11.3289 1.02225 11.4138 0.999873 11.5002 0.999873C11.5865 0.999873 11.6714 1.02225 11.7466 1.06482C11.8217 1.1074 11.8846 1.16871 11.929 1.2428L14.929 6.2428C14.9745 6.31869 14.9991 6.4053 15.0002 6.49379C15.0013 6.58228 14.9789 6.66947 14.9353 6.74647C14.8916 6.82347 14.8284 6.88751 14.7519 6.93205C14.6754 6.97659 14.5885 7.00004 14.5 7ZM9.38305 6H13.617L11.5 2.4718L9.38305 6Z" fill="currentColor" style="fill-opacity:1"/>
</svg>
