<svg viewBox="0 0 16 16" fill="none" xmlns="http://www.w3.org/2000/svg">
<path d="M10 8.49999V7.49999C10 7.23477 9.89464 6.98042 9.70711 6.79288C9.51957 6.60535 9.26522 6.49999 9 6.49999H5C4.73478 6.49999 4.48043 6.60535 4.29289 6.79288C4.10536 6.98042 4 7.23477 4 7.49999V8.49999C4 8.76521 4.10536 9.01956 4.29289 9.2071C4.48043 9.39463 4.73478 9.49999 5 9.49999H9C9.26522 9.49999 9.51957 9.39463 9.70711 9.2071C9.89464 9.01956 10 8.76521 10 8.49999ZM5 7.49999H9V8.49999H5V7.49999Z" fill="currentColor" style="fill-opacity:1"/>
<path d="M11.71 12.24C11.6418 11.9865 11.4768 11.77 11.2504 11.6372C11.024 11.5044 10.7545 11.4659 10.5 11.53L6.635 12.565C6.37934 12.6331 6.16107 12.7997 6.028 13.0283C5.89492 13.257 5.85789 13.5291 5.925 13.785L6.185 14.75C6.23961 14.9617 6.36207 15.1496 6.53364 15.285C6.70522 15.4205 6.91644 15.496 7.135 15.5C7.22252 15.4959 7.30952 15.4842 7.395 15.465L11.26 14.43C11.5158 14.3609 11.7338 14.1931 11.866 13.9634C11.9982 13.7337 12.0338 13.4609 11.965 13.205L11.71 12.24ZM7.135 14.5L6.88 13.53L10.74 12.5L11 13.46L7.135 14.5Z" fill="currentColor" style="fill-opacity:1"/>
<path d="M6.62 3.42999L10.5 4.46499C10.5834 4.48642 10.6689 4.49816 10.755 4.49999C10.9757 4.50096 11.1905 4.4289 11.3659 4.29506C11.5414 4.16121 11.6676 3.97308 11.725 3.75999L12 2.78999C12.0688 2.53406 12.0332 2.26129 11.901 2.0316C11.7688 1.80191 11.5508 1.63408 11.295 1.56499L7.395 0.52999C7.13907 0.461196 6.8663 0.496806 6.63661 0.628995C6.40692 0.761184 6.23909 0.979143 6.17 1.23499L5.91 2.19999C5.84289 2.4559 5.87993 2.72798 6.013 2.95665C6.14607 3.18531 6.36434 3.35192 6.62 3.41999V3.42999ZM7.12 1.49999L11 2.53499L10.74 3.49999L6.88 2.46499L7.12 1.49999Z" fill="currentColor" style="fill-opacity:1"/>
<path d="M8 10.5H7V11.5H8V10.5Z" fill="currentColor" style="fill-opacity:1"/>
<path d="M8 4.49999H7V5.49999H8V4.49999Z" fill="currentColor" style="fill-opacity:1"/>
</svg>
