<svg viewBox="0 0 16 16" fill="none" xmlns="http://www.w3.org/2000/svg">
<path d="M14 12.5H7.00001V13.5H14V12.5Z" fill="currentColor" style="fill-opacity:1"/>
<path d="M3.58501 13L2.29501 14.29L3.00001 15L5.00001 13L3.00001 11L2.29001 11.705L3.58501 13Z" fill="currentColor" style="fill-opacity:1"/>
<path d="M14 7.5H7.00001V8.5H14V7.5Z" fill="currentColor" style="fill-opacity:1"/>
<path d="M3.58501 8L2.29501 9.29L3.00001 10L5.00001 8L3.00001 6L2.29001 6.705L3.58501 8Z" fill="currentColor" style="fill-opacity:1"/>
<path d="M14 2.5H7.00001V3.5H14V2.5Z" fill="currentColor" style="fill-opacity:1"/>
<path d="M3.58501 3L2.29501 4.29L3.00001 5L5.00001 3L3.00001 1L2.29001 1.705L3.58501 3Z" fill="currentColor" style="fill-opacity:1"/>
</svg>
