<svg viewBox="0 0 16 16" fill="none" xmlns="http://www.w3.org/2000/svg">
<path d="M5 7.00001C5.55228 7.00001 6 6.55229 6 6.00001C6 5.44772 5.55228 5.00001 5 5.00001C4.44771 5.00001 4 5.44772 4 6.00001C4 6.55229 4.44771 7.00001 5 7.00001Z" fill="currentColor" style="fill-opacity:1"/>
<path d="M8 5.50001C8.55228 5.50001 9 5.05229 9 4.50001C9 3.94772 8.55228 3.50001 8 3.50001C7.44771 3.50001 7 3.94772 7 4.50001C7 5.05229 7.44771 5.50001 8 5.50001Z" fill="currentColor" style="fill-opacity:1"/>
<path d="M11 7.00001C11.5523 7.00001 12 6.55229 12 6.00001C12 5.44772 11.5523 5.00001 11 5.00001C10.4477 5.00001 10 5.44772 10 6.00001C10 6.55229 10.4477 7.00001 11 7.00001Z" fill="currentColor" style="fill-opacity:1"/>
<path d="M11.5 10C12.0523 10 12.5 9.55229 12.5 9.00001C12.5 8.44772 12.0523 8.00001 11.5 8.00001C10.9477 8.00001 10.5 8.44772 10.5 9.00001C10.5 9.55229 10.9477 10 11.5 10Z" fill="currentColor" style="fill-opacity:1"/>
<path d="M9.5 12.5C10.0523 12.5 10.5 12.0523 10.5 11.5C10.5 10.9477 10.0523 10.5 9.5 10.5C8.94771 10.5 8.5 10.9477 8.5 11.5C8.5 12.0523 8.94771 12.5 9.5 12.5Z" fill="currentColor" style="fill-opacity:1"/>
<path d="M8.27 1.00001C7.32828 0.963658 6.38891 1.11784 5.50822 1.45331C4.62753 1.78878 3.82365 2.29864 3.14477 2.9523C2.46589 3.60597 1.92599 4.38999 1.55745 5.25736C1.1889 6.12473 0.999297 7.05759 0.999998 8.00001C0.999973 8.37067 1.08545 8.73634 1.24977 9.06859C1.4141 9.40083 1.65284 9.6907 1.94744 9.91564C2.24205 10.1406 2.58457 10.2945 2.94836 10.3655C3.31216 10.4365 3.68743 10.4227 4.045 10.325L4.605 10.17C4.82777 10.1092 5.06157 10.1006 5.28819 10.145C5.51481 10.1894 5.72813 10.2855 5.91153 10.4258C6.09492 10.5661 6.24344 10.7469 6.34551 10.954C6.44758 11.1612 6.50045 11.3891 6.5 11.62V13.5C6.5 13.8978 6.65803 14.2794 6.93934 14.5607C7.22064 14.842 7.60217 15 8 15C8.94242 15.0007 9.87528 14.8111 10.7426 14.4426C11.61 14.074 12.394 13.5341 13.0477 12.8552C13.7014 12.1764 14.2112 11.3725 14.5467 10.4918C14.8822 9.61109 15.0363 8.67173 15 7.73001C14.9275 5.96835 14.1951 4.29837 12.9484 3.05163C11.7016 1.8049 10.0317 1.07256 8.27 1.00001ZM12.325 12.155C11.7667 12.7395 11.0954 13.2045 10.352 13.5216C9.60848 13.8388 8.8083 14.0016 8 14C7.86739 14 7.74021 13.9473 7.64644 13.8536C7.55268 13.7598 7.5 13.6326 7.5 13.5V11.62C7.5 10.957 7.23661 10.3211 6.76776 9.85224C6.29892 9.3834 5.66304 9.12001 5 9.12001C4.77532 9.12041 4.5517 9.15067 4.335 9.21001L3.775 9.36501C3.56584 9.42106 3.34658 9.42819 3.13422 9.38584C2.92186 9.34349 2.72211 9.25279 2.55045 9.12079C2.3788 8.98878 2.23986 8.81902 2.1444 8.62465C2.04894 8.43029 1.99953 8.21655 2 8.00001C1.99938 7.19191 2.162 6.39201 2.47812 5.6483C2.79424 4.90459 3.25733 4.23241 3.83961 3.67207C4.42189 3.11174 5.11137 2.6748 5.86666 2.38747C6.62196 2.10015 7.42752 1.96836 8.235 2.00001C9.73859 2.07832 11.1599 2.71084 12.2245 3.77549C13.2892 4.84013 13.9217 6.26141 14 7.76501C14.0344 8.57299 13.9036 9.3795 13.6156 10.1352C13.3276 10.8909 12.8884 11.5799 12.325 12.16V12.155Z" fill="currentColor" style="fill-opacity:1"/>
</svg>
