<svg viewBox="0 0 16 16" fill="none" xmlns="http://www.w3.org/2000/svg">
<path id="icon-arrow" d="M15 7.50001H10.955C10.8378 6.80101 10.4766 6.16619 9.93558 5.70834C9.39456 5.25048 8.70876 4.99923 8 4.99923C7.29124 4.99923 6.60543 5.25048 6.06442 5.70834C5.5234 6.16619 5.1622 6.80101 5.045 7.50001H1V8.50001H5.045C5.1622 9.19901 5.5234 9.83383 6.06442 10.2917C6.60543 10.7495 7.29124 11.0008 8 11.0008C8.70876 11.0008 9.39456 10.7495 9.93558 10.2917C10.4766 9.83383 10.8378 9.19901 10.955 8.50001H15V7.50001ZM8 10C7.60444 10 7.21776 9.88271 6.88886 9.66295C6.55996 9.44319 6.30362 9.13083 6.15224 8.76538C6.00087 8.39993 5.96126 7.99779 6.03843 7.60983C6.1156 7.22187 6.30608 6.8655 6.58579 6.5858C6.86549 6.30609 7.22186 6.11561 7.60982 6.03844C7.99778 5.96127 8.39991 6.00088 8.76537 6.15225C9.13082 6.30363 9.44318 6.55997 9.66294 6.88887C9.8827 7.21777 10 7.60445 10 8.00001C9.9994 8.53026 9.7885 9.03862 9.41356 9.41357C9.03861 9.78851 8.53025 9.99942 8 10Z" fill="currentColor" style="fill-opacity:1"/>
</svg>
