<svg viewBox="0 0 16 16" fill="none" xmlns="http://www.w3.org/2000/svg">
<path id="icon" d="M10.4426 9.73556C10.8051 9.22946 11 8.62255 11 8.00001C11 7.37748 10.8051 6.77056 10.4426 6.26446L11.5 5.20706L12.1465 5.85351C12.1929 5.89996 12.248 5.9368 12.3087 5.96194C12.3693 5.98707 12.4344 6.00001 12.5 6.00001C12.5657 6.00001 12.6307 5.98707 12.6913 5.96194C12.752 5.9368 12.8071 5.89996 12.8535 5.85351L14.8535 3.85351C14.9 3.80711 14.9368 3.752 14.9619 3.69134C14.9871 3.63069 15 3.56567 15 3.50001C15 3.43435 14.9871 3.36934 14.9619 3.30868C14.9368 3.24803 14.9 3.19292 14.8535 3.14651L12.8535 1.14651C12.8071 1.10006 12.752 1.06322 12.6913 1.03808C12.6307 1.01294 12.5657 0.999995 12.5 0.999995C12.4344 0.999995 12.3693 1.01294 12.3087 1.03808C12.248 1.06322 12.1929 1.10006 12.1465 1.14651L10.1465 3.14651C10.1001 3.19292 10.0632 3.24803 10.0381 3.30868C10.0129 3.36934 10 3.43435 10 3.50001C10 3.56567 10.0129 3.63069 10.0381 3.69134C10.0632 3.752 10.1001 3.80711 10.1465 3.85351L10.793 4.50001L9.73556 5.55746C9.22946 5.19495 8.62255 5.00002 8.00001 5.00002C7.37748 5.00002 6.77056 5.19495 6.26446 5.55746L5.00001 4.29296V1.00001H1.00001V5.00001H4.29296L5.55746 6.26446C5.19495 6.77056 5.00002 7.37748 5.00002 8.00001C5.00002 8.62255 5.19495 9.22946 5.55746 9.73556L4.50001 10.793L3.85351 10.1465C3.80711 10.1001 3.752 10.0632 3.69134 10.0381C3.63069 10.0129 3.56567 10 3.50001 10C3.43435 10 3.36934 10.0129 3.30868 10.0381C3.24803 10.0632 3.19292 10.1001 3.14651 10.1465L1.14651 12.1465C1.10006 12.1929 1.06322 12.248 1.03808 12.3087C1.01294 12.3693 0.999995 12.4344 0.999995 12.5C0.999995 12.5657 1.01294 12.6307 1.03808 12.6913C1.06322 12.752 1.10006 12.8071 1.14651 12.8535L3.14651 14.8535C3.19292 14.9 3.24803 14.9368 3.30869 14.9619C3.36934 14.9871 3.43436 15 3.50001 15C3.56567 15 3.63068 14.9871 3.69134 14.9619C3.75199 14.9368 3.8071 14.9 3.85351 14.8535L5.85351 12.8535C5.89996 12.8071 5.93681 12.752 5.96195 12.6913C5.98709 12.6307 6.00003 12.5657 6.00003 12.5C6.00003 12.4344 5.98709 12.3693 5.96195 12.3087C5.93681 12.248 5.89996 12.1929 5.85351 12.1465L5.20706 11.5L6.26446 10.4426C6.77056 10.8051 7.37748 11 8.00001 11C8.62255 11 9.22946 10.8051 9.73556 10.4426L11 11.7071V15H15V11H11.7071L10.4426 9.73556ZM12.5 2.20706L13.793 3.50001L12.5 4.79296L11.2071 3.50001L12.5 2.20706ZM3.50001 13.793L2.20706 12.5L3.50001 11.2071L4.79296 12.5L3.50001 13.793ZM4.00001 4.00001H2.00001V2.00001H4.00001V4.00001ZM6.00001 8.00001C6.00001 7.60445 6.11731 7.21777 6.33707 6.88887C6.55684 6.55997 6.86919 6.30363 7.23465 6.15225C7.6001 6.00088 8.00223 5.96127 8.39019 6.03844C8.77816 6.11561 9.13452 6.30609 9.41423 6.5858C9.69393 6.8655 9.88441 7.22187 9.96158 7.60983C10.0388 7.99779 9.99915 8.39993 9.84777 8.76538C9.6964 9.13083 9.44005 9.44319 9.11115 9.66295C8.78225 9.88271 8.39558 10 8.00001 10C7.46976 9.99942 6.9614 9.78851 6.58646 9.41357C6.21151 9.03862 6.00061 8.53026 6.00001 8.00001ZM12 12H14V14H12V12Z" fill="currentColor" style="fill-opacity:1"/>
</svg>
