<svg viewBox="0 0 16 16" fill="none" xmlns="http://www.w3.org/2000/svg">
<path d="M7.99997 3.99999L3.99998 7.99999L7.99997 12L12 7.99999L7.99997 3.99999Z" fill="currentColor" style="fill-opacity:1"/>
<path d="M8 15C7.8632 15.0002 7.7277 14.9734 7.60129 14.9212C7.47488 14.8689 7.36005 14.7921 7.2634 14.6953L1.3047 8.73659C1.1096 8.5411 1.00002 8.27618 1.00002 7.99999C1.00002 7.7238 1.1096 7.45888 1.3047 7.26339L7.2634 1.30469C7.45889 1.10959 7.72381 1.00001 8 1.00001C8.2762 1.00001 8.54111 1.10959 8.7366 1.30469L14.6953 7.26339C14.8904 7.45888 15 7.7238 15 7.99999C15 8.27618 14.8904 8.5411 14.6953 8.73659L8.7366 14.6953C8.63995 14.7921 8.52512 14.8689 8.39871 14.9212C8.2723 14.9734 8.1368 15.0002 8 15ZM8 1.99959C7.98893 1.99961 7.97831 2.00399 7.97045 2.01179L2.0118 7.97044C2.00399 7.97829 1.99961 7.98892 1.99961 7.99999C1.99961 8.01106 2.00399 8.02169 2.0118 8.02954L7.97045 13.9882C7.97833 13.996 7.98894 14.0003 8 14.0003C8.01106 14.0003 8.02167 13.996 8.02955 13.9882L13.9882 8.02954C13.996 8.02169 14.0004 8.01106 14.0004 7.99999C14.0004 7.98892 13.996 7.97829 13.9882 7.97044L8.02955 2.01179C8.02169 2.00399 8.01107 1.99961 8 1.99959Z" fill="currentColor" style="fill-opacity:1"/>
</svg>
