<svg viewBox="0 0 16 16" fill="none" xmlns="http://www.w3.org/2000/svg">
<path id="icon" d="M14 3.5H6.91405L8.70705 1.70705L8 1L5 4L8 7L8.70705 6.29295L6.91405 4.5H14V10H5.94945C5.85053 9.52012 5.61318 9.07974 5.26672 8.73328C4.92026 8.38682 4.47988 8.14947 4 8.05055V1H3V8.05055C2.43544 8.16584 1.92804 8.4726 1.56364 8.91894C1.19923 9.36528 1.00019 9.9238 1.00019 10.5C1.00019 11.0762 1.19923 11.6347 1.56364 12.0811C1.92804 12.5274 2.43544 12.8342 3 12.9494V15H4V12.9494C4.47988 12.8505 4.92026 12.6132 5.26672 12.2667C5.61318 11.9203 5.85053 11.4799 5.94945 11H14C14.2651 10.9997 14.5193 10.8942 14.7068 10.7068C14.8942 10.5193 14.9997 10.2651 15 10V4.5C14.9997 4.23488 14.8942 3.9807 14.7068 3.79323C14.5193 3.60576 14.2651 3.5003 14 3.5ZM3.5 12C3.20332 12 2.91331 11.912 2.66664 11.7472C2.41997 11.5824 2.22771 11.3481 2.11418 11.074C2.00065 10.7999 1.97094 10.4983 2.02882 10.2074C2.0867 9.91639 2.22956 9.64912 2.43934 9.43934C2.64911 9.22956 2.91639 9.0867 3.20736 9.02882C3.49833 8.97094 3.79993 9.00065 4.07402 9.11418C4.34811 9.22771 4.58238 9.41997 4.7472 9.66665C4.91202 9.91332 5 10.2033 5 10.5C4.99956 10.8977 4.84138 11.279 4.56017 11.5602C4.27896 11.8414 3.89769 11.9996 3.5 12Z" fill="currentColor" style="fill-opacity:1"/>
</svg>
