<svg viewBox="0 0 16 16" fill="none" xmlns="http://www.w3.org/2000/svg">
<path d="M8.5 5.99999H7.5V15H8.5V5.99999Z" fill="currentColor" style="fill-opacity:1"/>
<path d="M5.665 9.10999C5.29754 8.78169 5.00355 8.37949 4.80227 7.92972C4.60098 7.47995 4.49693 6.99275 4.49693 6.49999C4.49693 6.00724 4.60098 5.52003 4.80227 5.07027C5.00355 4.6205 5.29754 4.2183 5.665 3.88999L6.335 4.63499C6.0723 4.86951 5.8621 5.15687 5.71818 5.47827C5.57426 5.79967 5.49987 6.14784 5.49987 6.49999C5.49987 6.85214 5.57426 7.20032 5.71818 7.52172C5.8621 7.84311 6.0723 8.13048 6.335 8.36499L5.665 9.10999Z" fill="currentColor" style="fill-opacity:1"/>
<path d="M10.335 9.10999L9.665 8.36499C9.9277 8.13048 10.1379 7.84311 10.2818 7.52172C10.4257 7.20032 10.5001 6.85214 10.5001 6.49999C10.5001 6.14784 10.4257 5.79967 10.2818 5.47827C10.1379 5.15687 9.9277 4.86951 9.665 4.63499L10.335 3.88999C10.7025 4.2183 10.9964 4.6205 11.1977 5.07027C11.399 5.52003 11.5031 6.00724 11.5031 6.49999C11.5031 6.99275 11.399 7.47995 11.1977 7.92972C10.9964 8.37949 10.7025 8.78169 10.335 9.10999Z" fill="currentColor" style="fill-opacity:1"/>
<path d="M4.2 10.9C3.51692 10.3877 2.9625 9.72337 2.58065 8.95967C2.1988 8.19596 2 7.35384 2 6.49999C2 5.64615 2.1988 4.80402 2.58065 4.04032C2.9625 3.27661 3.51692 2.6123 4.2 2.09999L4.8 2.89999C4.24112 3.31916 3.7875 3.86268 3.47508 4.48753C3.16265 5.11238 3 5.80139 3 6.49999C3 7.1986 3.16265 7.88761 3.47508 8.51245C3.7875 9.1373 4.24112 9.68083 4.8 10.1L4.2 10.9Z" fill="currentColor" style="fill-opacity:1"/>
<path d="M11.8 10.9L11.2 10.1C11.7589 9.68083 12.2125 9.1373 12.5249 8.51245C12.8373 7.88761 13 7.1986 13 6.49999C13 5.80139 12.8373 5.11238 12.5249 4.48753C12.2125 3.86268 11.7589 3.31916 11.2 2.89999L11.8 2.09999C12.4831 2.6123 13.0375 3.27661 13.4193 4.04032C13.8012 4.80402 14 5.64615 14 6.49999C14 7.35384 13.8012 8.19596 13.4193 8.95967C13.0375 9.72337 12.4831 10.3877 11.8 10.9Z" fill="currentColor" style="fill-opacity:1"/>
</svg>
