<svg viewBox="0 0 16 16" fill="none" xmlns="http://www.w3.org/2000/svg">
<path id="icon" d="M12 5L11.2929 5.70705L13.0859 7.5H5.94945C5.85053 7.02012 5.61318 6.57974 5.26672 6.23328C4.92026 5.88682 4.47988 5.64947 4 5.55055V1H3V5.55055C2.43544 5.66584 1.92804 5.9726 1.56364 6.41894C1.19923 6.86528 1.00019 7.4238 1.00019 8C1.00019 8.5762 1.19923 9.13472 1.56364 9.58106C1.92804 10.0274 2.43544 10.3342 3 10.4494V15H4V10.4494C4.47988 10.3505 4.92026 10.1132 5.26672 9.76672C5.61318 9.42026 5.85053 8.97988 5.94945 8.5H13.0859L11.2929 10.2929L12 11L15 8L12 5ZM3.5 9.5C3.20332 9.5 2.91331 9.41203 2.66664 9.2472C2.41997 9.08238 2.22771 8.84811 2.11418 8.57403C2.00065 8.29994 1.97094 7.99834 2.02882 7.70736C2.0867 7.41639 2.22956 7.14912 2.43934 6.93934C2.64911 6.72956 2.91639 6.5867 3.20736 6.52882C3.49833 6.47094 3.79993 6.50065 4.07402 6.61418C4.34811 6.72771 4.58238 6.91997 4.7472 7.16664C4.91202 7.41332 5 7.70333 5 8C4.99956 8.39769 4.84138 8.77897 4.56017 9.06018C4.27896 9.34139 3.89769 9.49956 3.5 9.5Z" fill="currentColor" style="fill-opacity:1"/>
</svg>
