<svg viewBox="0 0 16 16" fill="none" xmlns="http://www.w3.org/2000/svg">
<path d="M15 1H14V15H15V1Z" fill="currentColor" style="fill-opacity:1"/>
<path d="M10 5L9.29296 5.70705L11.086 7.5H5.94946C5.82555 6.89298 5.48066 6.35359 4.98166 5.9864C4.48266 5.61921 3.8651 5.45039 3.24869 5.51266C2.63229 5.57493 2.06097 5.86386 1.64549 6.32342C1.23001 6.78299 0.999966 7.38046 0.999966 8C0.999966 8.61954 1.23001 9.21701 1.64549 9.67658C2.06097 10.1361 2.63229 10.4251 3.24869 10.4873C3.8651 10.5496 4.48266 10.3808 4.98166 10.0136C5.48066 9.64641 5.82555 9.10702 5.94946 8.5H11.086L9.29296 10.2929L10 11L13 8L10 5ZM3.50001 9.5C3.20333 9.5 2.91332 9.41203 2.66665 9.2472C2.41998 9.08238 2.22772 8.84811 2.11419 8.57403C2.00066 8.29994 1.97095 7.99834 2.02883 7.70736C2.08671 7.41639 2.22957 7.14912 2.43935 6.93934C2.64912 6.72956 2.9164 6.5867 3.20737 6.52882C3.49834 6.47094 3.79994 6.50065 4.07403 6.61418C4.34812 6.72771 4.58239 6.91997 4.74721 7.16664C4.91203 7.41332 5.00001 7.70333 5.00001 8C4.99957 8.39769 4.84139 8.77897 4.56018 9.06018C4.27897 9.34139 3.8977 9.49956 3.50001 9.5Z" fill="currentColor" style="fill-opacity:1"/>
</svg>
