<svg viewBox="0 0 16 16" fill="none" xmlns="http://www.w3.org/2000/svg">
<path d="M13.5 6.5V2.5H11.5V1.5H13.5C14.0514 1.5 14.5 1.94875 14.5 2.5V6.5C14.5 7.2617 14.9399 7.5 15.5 7.5V8.5C14.9399 8.5 14.5 8.7251 14.5 9.5V13.5C14.5 14.0512 14.0514 14.5 13.5 14.5H11.5V13.5H13.5V9.5C13.5 8.65795 13.9399 8.21775 14.5 8.0708V7.937C13.9399 7.79005 13.5 7.34205 13.5 6.5Z" fill="currentColor" style="fill-opacity:1"/>
<path d="M10 6H6V10H10V6Z" fill="currentColor" style="fill-opacity:1"/>
<path d="M2.5 6.5V2.5H4.5V1.5H2.5C1.9486 1.5 1.5 1.94875 1.5 2.5V6.5C1.5 7.2617 1.06005 7.5 0.5 7.5V8.5C1.06005 8.5 1.5 8.7251 1.5 9.5V13.5C1.5 14.0512 1.9486 14.5 2.5 14.5H4.5V13.5H2.5V9.5C2.5 8.65795 2.06005 8.21775 1.5 8.0708V7.937C2.06005 7.79005 2.5 7.34205 2.5 6.5Z" fill="currentColor" style="fill-opacity:1"/>
</svg>
