<svg viewBox="0 0 16 16" fill="none" xmlns="http://www.w3.org/2000/svg">
<path d="M8 15V14C9.42942 13.9997 10.8118 13.4893 11.8983 12.5604C12.9848 11.6316 13.7041 10.3455 13.9267 8.93348C14.1493 7.5215 13.8606 6.07643 13.1126 4.85839C12.3645 3.64034 11.2062 2.72932 9.8462 2.2893L10.1538 1.33765C11.7405 1.85093 13.0919 2.91376 13.9647 4.33481C14.8375 5.75586 15.1744 7.44179 14.9147 9.08913C14.655 10.7365 13.8158 12.237 12.5482 13.3206C11.2805 14.4042 9.66768 14.9998 8 15Z" fill="currentColor" style="fill-opacity:1"/>
<path d="M3.84999 2.35002C3.2765 2.79013 2.77107 3.31242 2.34999 3.90002L3.14999 4.50002C3.51724 3.99075 3.95494 3.53622 4.44999 3.15002L3.84999 2.35002Z" fill="currentColor" style="fill-opacity:1"/>
<path d="M2.3 6.15002L1.35 5.85002C1.10849 6.54071 0.990029 7.2684 0.999999 8.00002H2C1.99793 7.37108 2.09928 6.74608 2.3 6.15002Z" fill="currentColor" style="fill-opacity:1"/>
<path d="M5.84999 1.35003L6.14999 2.30003C6.74605 2.09931 7.37105 1.99796 7.99999 2.00003V1.00003C7.26837 0.99006 6.54068 1.10852 5.84999 1.35003Z" fill="currentColor" style="fill-opacity:1"/>
<path d="M7.70116 12.124C7.5044 11.5263 7.21446 10.9635 6.84206 10.4563L7.64871 9.86501C8.08317 10.457 8.4214 11.114 8.65091 11.8115L7.70116 12.124Z" fill="currentColor" style="fill-opacity:1"/>
<path d="M5.51001 9.13339C5.00043 8.76448 4.43565 8.47855 3.83666 8.28624L4.14236 7.33409C4.84165 7.55865 5.501 7.89244 6.09596 8.32309L5.51001 9.13339Z" fill="currentColor" style="fill-opacity:1"/>
</svg>
