<svg viewBox="0 0 16 16" fill="none" xmlns="http://www.w3.org/2000/svg">
<path d="M15 11.2308V10.3077H13.95C13.9 10.0308 13.75 9.75385 13.6 9.47692L14.35 8.78462L13.65 8.13846L12.9 8.83077C12.65 8.69231 12.35 8.55385 12 8.50769V7.53846H11V8.50769C10.7 8.55385 10.4 8.69231 10.1 8.83077L9.35 8.13846L8.65 8.78462L9.4 9.47692C9.25 9.70769 9.1 9.98462 9.05 10.3077H8V11.2308H9.05C9.1 11.5077 9.25 11.7846 9.4 12.0615L8.65 12.7538L9.35 13.4L10.1 12.7077C10.35 12.8462 10.65 12.9846 11 13.0308V14H12V13.0308C12.3 12.9846 12.6 12.8462 12.9 12.7077L13.65 13.4L14.35 12.7538L13.6 12.0615C13.75 11.8308 13.9 11.5538 13.95 11.2308H15ZM11.5 12.1538C10.65 12.1538 10 11.5538 10 10.7692C10 9.98462 10.65 9.38462 11.5 9.38462C12.35 9.38462 13 9.98462 13 10.7692C13 11.5538 12.35 12.1538 11.5 12.1538Z" fill="currentColor" style="fill-opacity:1"/>
<path d="M7 13.0769H3C2.4486 13.0769 2 12.6628 2 12.1538V2.92308C2 2.41409 2.4486 2 3 2H13C13.5514 2 14 2.41409 14 2.92308V6.61538H13V2.92308H3V12.1538H7V13.0769Z" fill="currentColor" style="fill-opacity:1"/>
</svg>
