<svg viewBox="0 0 16 16" fill="none" xmlns="http://www.w3.org/2000/svg">
<path d="M11.5 12C11.7761 12 12 11.7761 12 11.5C12 11.2239 11.7761 11 11.5 11C11.2239 11 11 11.2239 11 11.5C11 11.7761 11.2239 12 11.5 12Z" fill="currentColor" style="fill-opacity:1"/>
<path d="M12.8951 9.42675L8.4003 6.30785C8.14885 6.1174 7.83915 6 7.50005 6C6.6729 6 6.00005 6.67285 6.00005 7.5C6.00005 7.82765 6.1087 8.12865 6.28765 8.37575L9.45805 12.9336C9.9108 13.5767 10.6555 14 11.5 14C12.8786 14 14 12.8784 14 11.5C14 10.6377 13.5611 9.8762 12.8951 9.42675ZM9.135 10.7261L7.89355 8.9409C8.4026 8.8015 8.8008 8.4033 8.94065 7.8945L10.7255 9.1352C9.9725 9.38275 9.38245 9.97315 9.135 10.7261ZM7.5 7C7.77575 7 8 7.22435 8 7.5C8 7.77565 7.77575 8 7.5 8C7.22425 8 7 7.77565 7 7.5C7 7.22435 7.22425 7 7.5 7ZM11.5 13C10.6728 13 10 12.3271 10 11.5C10 10.6729 10.6728 10 11.5 10C12.3271 10 13 10.6729 13 11.5C13 12.3271 12.3271 13 11.5 13Z" fill="currentColor" style="fill-opacity:1"/>
<path d="M8 14H3C2.4486 14 2 13.5514 2 13V3C2 2.4486 2.4486 2 3 2H13C13.5514 2 14 2.4486 14 3V8H13V3H3V13H8V14Z" fill="currentColor" style="fill-opacity:1"/>
</svg>
