<svg viewBox="0 0 16 16" fill="none" xmlns="http://www.w3.org/2000/svg">
<path d="M3.84999 2.35002C3.2765 2.79013 2.77107 3.31242 2.34999 3.90002L3.14999 4.50002C3.51724 3.99075 3.95494 3.53622 4.44999 3.15002L3.84999 2.35002Z" fill="currentColor" style="fill-opacity:1"/>
<path d="M2.3 6.15002L1.35 5.85002C1.10849 6.54071 0.990029 7.2684 0.999999 8.00002H2C1.99793 7.37108 2.09928 6.74608 2.3 6.15002Z" fill="currentColor" style="fill-opacity:1"/>
<path d="M5.84999 1.35003L6.14999 2.30003C6.74605 2.09931 7.37105 1.99796 7.99999 2.00003V1.00003C7.26837 0.99006 6.54068 1.10852 5.84999 1.35003Z" fill="currentColor" style="fill-opacity:1"/>
<path d="M12.1 13.65C12.6889 13.2111 13.2111 12.6889 13.65 12.1L12.85 11.5C12.4782 12.0219 12.0219 12.4782 11.5 12.85L12.1 13.65Z" fill="currentColor" style="fill-opacity:1"/>
<path d="M13.7 9.85L14.65 10.15C14.8675 9.45342 14.9853 8.72959 15 8H14C14.0021 8.62894 13.9007 9.25394 13.7 9.85Z" fill="currentColor" style="fill-opacity:1"/>
<path d="M14.6 5.80002C14.3681 5.10282 14.0309 4.4452 13.6 3.85002L12.8 4.45002C13.1615 4.95612 13.4478 5.51188 13.65 6.10002L14.6 5.80002Z" fill="currentColor" style="fill-opacity:1"/>
<path d="M12.05 2.30001C11.4548 1.86915 10.7972 1.53191 10.1 1.30001L9.80001 2.25001C10.3882 2.45223 10.9439 2.73853 11.45 3.10001L12.05 2.30001Z" fill="currentColor" style="fill-opacity:1"/>
<path d="M10.15 14.65L9.85 13.7C9.25394 13.9007 8.62894 14.0021 8 14V15C8.7267 14.9567 9.44709 14.8394 10.15 14.65Z" fill="currentColor" style="fill-opacity:1"/>
<path d="M7.70116 12.124C7.5044 11.5263 7.21446 10.9635 6.84206 10.4563L7.64871 9.86501C8.08317 10.457 8.4214 11.114 8.65091 11.8115L7.70116 12.124Z" fill="currentColor" style="fill-opacity:1"/>
<path d="M5.51001 9.13339C5.00043 8.76448 4.43565 8.47855 3.83666 8.28624L4.14236 7.33409C4.84165 7.55865 5.501 7.89244 6.09596 8.32309L5.51001 9.13339Z" fill="currentColor" style="fill-opacity:1"/>
</svg>
