<svg viewBox="0 0 16 16" fill="none" xmlns="http://www.w3.org/2000/svg">
<path d="M3.85 2.35C3.27651 2.7901 2.77107 3.31239 2.35 3.9L3.15 4.5C3.51724 3.99073 3.95494 3.53619 4.45 3.15L3.85 2.35Z" fill="currentColor" style="fill-opacity:1"/>
<path d="M2.3 6.15L1.35 5.85C1.10849 6.54068 0.990029 7.26838 0.999999 8H2C1.99793 7.37106 2.09928 6.74606 2.3 6.15Z" fill="currentColor" style="fill-opacity:1"/>
<path d="M1.35 10.2C1.5819 10.8972 1.91914 11.5548 2.35 12.15L3.15 11.55C2.78852 11.0439 2.50222 10.4881 2.3 9.9L1.35 10.2Z" fill="currentColor" style="fill-opacity:1"/>
<path d="M3.9 13.65C4.49518 14.0809 5.15279 14.4181 5.85 14.65L6.15 13.7C5.56186 13.4978 5.00609 13.2115 4.5 12.85L3.9 13.65Z" fill="currentColor" style="fill-opacity:1"/>
<path d="M5.85 1.35L6.15 2.3C6.74606 2.09928 7.37106 1.99793 8 2V0.999999C7.26838 0.990029 6.54068 1.10849 5.85 1.35Z" fill="currentColor" style="fill-opacity:1"/>
<path d="M12.1 13.65C12.6889 13.2111 13.2111 12.6889 13.65 12.1L12.85 11.5C12.4782 12.0219 12.0219 12.4782 11.5 12.85L12.1 13.65Z" fill="currentColor" style="fill-opacity:1"/>
<path d="M13.7 9.85L14.65 10.15C14.8675 9.45342 14.9853 8.72958 15 8H14C14.0021 8.62894 13.9007 9.25394 13.7 9.85Z" fill="currentColor" style="fill-opacity:1"/>
<path d="M14.6 5.8C14.3681 5.10279 14.0309 4.44518 13.6 3.85L12.8 4.45C13.1615 4.95609 13.4478 5.51186 13.65 6.1L14.6 5.8Z" fill="currentColor" style="fill-opacity:1"/>
<path d="M12.05 2.3C11.4548 1.86914 10.7972 1.5319 10.1 1.3L9.8 2.25C10.3881 2.45222 10.9439 2.73852 11.45 3.1L12.05 2.3Z" fill="currentColor" style="fill-opacity:1"/>
<path d="M10.15 14.65L9.85 13.7C9.25394 13.9007 8.62894 14.0021 8 14V15C8.7267 14.9567 9.44709 14.8394 10.15 14.65Z" fill="currentColor" style="fill-opacity:1"/>
<path d="M8 13C7.01109 13 6.04439 12.7068 5.22215 12.1573C4.3999 11.6079 3.75904 10.827 3.3806 9.91342C3.00216 8.99979 2.90315 7.99445 3.09607 7.02455C3.289 6.05464 3.7652 5.16373 4.46447 4.46447C5.16373 3.7652 6.05464 3.289 7.02455 3.09607C7.99445 2.90315 8.99979 3.00216 9.91342 3.3806C10.827 3.75904 11.6079 4.3999 12.1573 5.22215C12.7068 6.04439 13 7.01109 13 8C12.9985 9.32561 12.4712 10.5965 11.5339 11.5339C10.5965 12.4712 9.32561 12.9985 8 13ZM8 4C7.20887 4 6.43551 4.23459 5.77772 4.67412C5.11992 5.11365 4.60723 5.73836 4.30448 6.46927C4.00173 7.20017 3.92252 8.00444 4.07686 8.78036C4.2312 9.55628 4.61216 10.269 5.17157 10.8284C5.73098 11.3878 6.44371 11.7688 7.21964 11.9231C7.99556 12.0775 8.79983 11.9983 9.53073 11.6955C10.2616 11.3928 10.8864 10.8801 11.3259 10.2223C11.7654 9.56448 12 8.79112 12 8C11.9988 6.93951 11.577 5.9228 10.8271 5.17292C10.0772 4.42303 9.06049 4.00122 8 4Z" fill="currentColor" style="fill-opacity:1"/>
</svg>
