<svg viewBox="0 0 16 16" fill="none" xmlns="http://www.w3.org/2000/svg">
<path d="M11 12.5C11.5523 12.5 12 12.0523 12 11.5C12 10.9477 11.5523 10.5 11 10.5C10.4477 10.5 10 10.9477 10 11.5C10 12.0523 10.4477 12.5 11 12.5Z" fill="currentColor" style="fill-opacity:1"/>
<path d="M14.8884 11.2393C14.2569 9.6306 12.7274 8.5531 11 8.5C9.2726 8.5531 7.7431 9.6306 7.11155 11.2393L7 11.5L7.11155 11.7607C7.7431 13.3694 9.2726 14.4469 11 14.5C12.7274 14.4469 14.2569 13.3694 14.8884 11.7607L15 11.5L14.8884 11.2393ZM11 13.5C9.89545 13.5 9 12.6046 9 11.5C9 10.3954 9.89545 9.5 11 9.5C12.1046 9.5 13 10.3954 13 11.5C12.9988 12.6041 12.1041 13.4988 11 13.5Z" fill="currentColor" style="fill-opacity:1"/>
<path d="M6 14H3C2.4486 14 2 13.5514 2 13V3C2 2.4486 2.4486 2 3 2H13C13.5514 2 14 2.4486 14 3V8H13V3H3V13H6V14Z" fill="currentColor" style="fill-opacity:1"/>
</svg>
