<svg viewBox="0 0 16 16" fill="none" xmlns="http://www.w3.org/2000/svg">
<path d="M13.25 6H9.5C8.96957 6 8.46086 5.78929 8.08579 5.41421C7.71071 5.03914 7.5 4.53043 7.5 4C7.5 3.46957 7.71071 2.96086 8.08579 2.58578C8.46086 2.21071 8.96957 2 9.5 2H9.54175C9.76446 1.68893 10.0585 1.43578 10.3992 1.26179C10.74 1.08779 11.1174 0.998023 11.5 0.999999C12.0045 0.99991 12.4971 1.153 12.9126 1.43901C13.3282 1.72502 13.6471 2.13047 13.8272 2.6017C14.1706 2.71906 14.4686 2.94127 14.679 3.237C14.8894 3.53273 15.0017 3.88705 15 4.25C14.9995 4.71396 14.8149 5.15877 14.4868 5.48684C14.1588 5.81491 13.714 5.99946 13.25 6ZM9.5 3C9.23478 3 8.98043 3.10536 8.79289 3.29289C8.60536 3.48043 8.5 3.73478 8.5 4C8.5 4.26522 8.60536 4.51957 8.79289 4.70711C8.98043 4.89464 9.23478 5 9.5 5H13.25C13.4488 4.99977 13.6395 4.92068 13.7801 4.78008C13.9207 4.63948 13.9998 4.44884 14 4.25C14.0004 4.07074 13.9359 3.8974 13.8185 3.76196C13.701 3.62652 13.5386 3.53811 13.3611 3.51305L13.0305 3.4635L12.9497 3.13915C12.8807 2.84667 12.7243 2.58215 12.5012 2.38083C12.2781 2.17951 11.999 2.05095 11.701 2.01228C11.403 1.97361 11.1003 2.02666 10.8332 2.16437C10.5661 2.30208 10.3474 2.51791 10.206 2.7831L10.0571 3H9.5Z" fill="currentColor" style="fill-opacity:1"/>
<path d="M11.5 7L9 9.5L9.70705 10.207L11 8.91625V12H8V13H11C11.2651 12.9997 11.5193 12.8942 11.7067 12.7067C11.8942 12.5193 11.9997 12.2651 12 12V8.91625L13.2937 10.2077L14 9.5L11.5 7Z" fill="currentColor" style="fill-opacity:1"/>
<path d="M6 10H1V11H6V10Z" fill="currentColor" style="fill-opacity:1"/>
<path d="M6 12H1V13H6V12Z" fill="currentColor" style="fill-opacity:1"/>
<path d="M6 14H1V15H6V14Z" fill="currentColor" style="fill-opacity:1"/>
</svg>
