<svg viewBox="0 0 16 16" fill="none" xmlns="http://www.w3.org/2000/svg">
<path d="M5.9737 9.50001C5.48436 9.50011 5.00598 9.35508 4.59907 9.08327C4.19217 8.81146 3.87501 8.42508 3.68773 7.97299C3.50045 7.52091 3.45145 7.02344 3.54693 6.5435C3.64242 6.06357 3.87809 5.62273 4.22415 5.27676L6.7768 2.72461C7.24077 2.2606 7.87006 1.99992 8.52624 1.99989C9.18241 1.99987 9.81172 2.26051 10.2757 2.72448C10.7397 3.18845 11.0004 3.81774 11.0004 4.47392C11.0005 5.1301 10.7398 5.75941 10.2759 6.22341L9.9997 6.49971L9.2918 5.79326L9.57065 5.51431C9.84599 5.23757 10.0004 4.86296 10 4.47258C9.99967 4.0822 9.84456 3.70788 9.5687 3.43166C9.28782 3.1636 8.91447 3.01404 8.5262 3.01404C8.13793 3.01404 7.76458 3.1636 7.4837 3.43166L4.93135 5.98366C4.79443 6.12051 4.68582 6.283 4.61172 6.46184C4.53762 6.64068 4.49948 6.83237 4.49948 7.02596C4.49948 7.21954 4.53762 7.41123 4.61172 7.59007C4.68582 7.76891 4.79443 7.9314 4.93135 8.06826C5.21223 8.33632 5.58558 8.48588 5.97385 8.48588C6.36212 8.48588 6.73547 8.33632 7.01635 8.06826L7.7235 8.77551C7.49421 9.00594 7.2215 9.18863 6.92115 9.31299C6.6208 9.43734 6.29878 9.50091 5.9737 9.50001Z" fill="currentColor" style="fill-opacity:1"/>
<path d="M9.9737 8.50001C9.48436 8.50011 9.00598 8.35508 8.59907 8.08327C8.19217 7.81146 7.87501 7.42508 7.68773 6.97299C7.50045 6.52091 7.45145 6.02344 7.54693 5.5435C7.64242 5.06357 7.87809 4.62273 8.22415 4.27676L8.50045 4.00046L9.2076 4.70776L8.9313 4.98391C8.79442 5.12077 8.68584 5.28325 8.61175 5.46207C8.53767 5.6409 8.49954 5.83257 8.49954 6.02613C8.49954 6.2197 8.53767 6.41136 8.61175 6.59019C8.68584 6.76902 8.79442 6.9315 8.9313 7.06836C9.21218 7.33642 9.58553 7.48598 9.9738 7.48598C10.3621 7.48598 10.7354 7.33642 11.0163 7.06836C11.1463 6.93836 13.3809 4.70371 13.5689 4.51611C13.845 4.23949 14 3.86469 14 3.47393C14 3.08317 13.845 2.70837 13.5689 2.43176C13.2881 2.1637 12.9147 2.01414 12.5265 2.01414C12.1382 2.01414 11.7648 2.1637 11.4839 2.43176L10.7768 1.72451C11.2409 1.26121 11.87 1.00113 12.5258 1.00142C13.1816 1.00171 13.8104 1.26234 14.2742 1.72604C14.7379 2.18975 14.9985 2.81859 14.9989 3.47438C14.9992 4.13017 14.7391 4.75926 14.2759 5.22341C14.0876 5.41141 11.8539 7.64481 11.724 7.77516C11.4946 8.00567 11.2218 8.18843 10.9214 8.31285C10.621 8.43726 10.2989 8.50088 9.9737 8.50001Z" fill="currentColor" style="fill-opacity:1"/>
<path d="M12 15H2C1.73487 14.9997 1.48068 14.8943 1.2932 14.7068C1.10572 14.5193 1.00028 14.2651 1 14V4.00001C1.00028 3.73488 1.10572 3.48068 1.2932 3.29321C1.48068 3.10573 1.73487 3.00029 2 3.00001H4V4.00001H2V14H12V9.00001H13V14C12.9997 14.2651 12.8943 14.5193 12.7068 14.7068C12.5193 14.8943 12.2651 14.9997 12 15Z" fill="currentColor" style="fill-opacity:1"/>
</svg>
