<svg viewBox="0 0 16 16" fill="none" xmlns="http://www.w3.org/2000/svg">
<path id="icon" d="M7.99999 1C6.54185 1.00177 5.14393 1.5818 4.11287 2.61287C3.0818 3.64394 2.50177 5.04185 2.49999 6.5C2.49827 7.69163 2.88756 8.85092 3.60814 9.8C3.60814 9.8 3.75814 9.99725 3.78224 10.0259L7.99999 15L12.2195 10.0237C12.2417 9.99705 12.3918 9.7998 12.3918 9.7998L12.3926 9.7986C13.1127 8.84987 13.5018 7.69109 13.5 6.5C13.4982 5.04185 12.9182 3.64394 11.8871 2.61287C10.8561 1.5818 9.45814 1.00177 7.99999 1ZM11 7.5C10.9997 7.76512 10.8942 8.0193 10.7068 8.20677C10.5193 8.39424 10.2651 8.4997 9.99999 8.5H9.26759L8.41599 9.77735L7.58399 9.22265L8.73239 7.5H9.99999V5H5.99999V7.5H6.99999V8.5H5.99999C5.73487 8.4997 5.48069 8.39424 5.29322 8.20677C5.10575 8.0193 5.0003 7.76512 4.99999 7.5V5C5.0003 4.73488 5.10575 4.4807 5.29322 4.29323C5.48069 4.10576 5.73487 4.0003 5.99999 4H9.99999C10.2651 4.0003 10.5193 4.10576 10.7068 4.29323C10.8942 4.4807 10.9997 4.73488 11 5V7.5Z" fill="currentColor" style="fill-opacity:1"/>
</svg>
