<svg viewBox="0 0 16 16" fill="none" xmlns="http://www.w3.org/2000/svg">
<path id="icon" d="M14.252 4.06808L8.25195 0.568081C8.17548 0.523469 8.08853 0.499962 8 0.499962C7.91147 0.499962 7.82452 0.523469 7.74805 0.568081L1.74805 4.06808C1.67257 4.11212 1.60994 4.17517 1.56642 4.25095C1.5229 4.32673 1.5 4.41259 1.5 4.49998V11.5C1.5 11.5874 1.5229 11.6732 1.56642 11.749C1.60994 11.8248 1.67257 11.8878 1.74805 11.9319L7.74805 15.4319C7.82452 15.4765 7.91147 15.5 8 15.5C8.08853 15.5 8.17548 15.4765 8.25195 15.4319L14.252 11.9319C14.3274 11.8878 14.3901 11.8248 14.4336 11.749C14.4771 11.6732 14.5 11.5874 14.5 11.5V4.49998C14.5 4.41259 14.4771 4.32673 14.4336 4.25095C14.3901 4.17517 14.3274 4.11212 14.252 4.06808ZM8 1.57883L13.0078 4.49998L8 7.42113L2.9922 4.49998L8 1.57883ZM2.5 5.37058L7.5 8.28708V14.1294L2.5 11.2129V5.37058ZM8.5 14.1294V8.28708L13.5 5.37058V11.2129L8.5 14.1294Z" fill="currentColor" style="fill-opacity:1"/>
</svg>
