<svg viewBox="0 0 16 16" fill="none" xmlns="http://www.w3.org/2000/svg">
<path d="M8 8.99998C8.55228 8.99998 9 8.55227 9 7.99998C9 7.4477 8.55228 6.99998 8 6.99998C7.44772 6.99998 7 7.4477 7 7.99998C7 8.55227 7.44772 8.99998 8 8.99998Z" fill="currentColor" style="fill-opacity:1"/>
<path d="M11.8884 7.73923C11.5795 6.95223 11.0464 6.27319 10.3552 5.78627C9.66396 5.29935 8.84508 5.02596 8 4.99998C7.15492 5.02596 6.33604 5.29935 5.64484 5.78627C4.95365 6.27319 4.42052 6.95223 4.11155 7.73923L4 7.99998L4.11155 8.26073C4.42052 9.04773 4.95365 9.72677 5.64484 10.2137C6.33604 10.7006 7.15492 10.974 8 11C8.84508 10.974 9.66396 10.7006 10.3552 10.2137C11.0464 9.72677 11.5795 9.04773 11.8884 8.26073L12 7.99998L11.8884 7.73923ZM8 9.99998C7.60444 9.99998 7.21776 9.88268 6.88886 9.66292C6.55996 9.44316 6.30362 9.1308 6.15224 8.76535C6.00087 8.3999 5.96126 7.99776 6.03843 7.6098C6.1156 7.22184 6.30608 6.86547 6.58579 6.58577C6.86549 6.30606 7.22186 6.11558 7.60982 6.03841C7.99778 5.96124 8.39991 6.00085 8.76537 6.15222C9.13082 6.3036 9.44318 6.55994 9.66294 6.88884C9.8827 7.21774 10 7.60442 10 7.99998C9.9994 8.53023 9.7885 9.03859 9.41356 9.41354C9.03861 9.78848 8.53025 9.99939 8 9.99998Z" fill="currentColor" style="fill-opacity:1"/>
<path d="M14.252 4.06808L8.25195 0.568081C8.17548 0.523469 8.08853 0.499962 8 0.499962C7.91147 0.499962 7.82452 0.523469 7.74805 0.568081L1.74805 4.06808C1.67257 4.11212 1.60994 4.17517 1.56642 4.25095C1.5229 4.32673 1.5 4.41259 1.5 4.49998V11.5C1.5 11.5874 1.5229 11.6732 1.56642 11.749C1.60994 11.8248 1.67257 11.8878 1.74805 11.9319L7.74805 15.4319C7.82452 15.4765 7.91147 15.5 8 15.5C8.08853 15.5 8.17548 15.4765 8.25195 15.4319L14.252 11.9319C14.3274 11.8878 14.3901 11.8248 14.4336 11.749C14.4771 11.6732 14.5 11.5874 14.5 11.5V4.49998C14.5 4.41259 14.4771 4.32673 14.4336 4.25095C14.3901 4.17517 14.3274 4.11212 14.252 4.06808ZM13.5 11.2129L8 14.4211L2.5 11.2129V4.78708L8 1.57883L13.5 4.78708V11.2129Z" fill="currentColor" style="fill-opacity:1"/>
</svg>
