<svg viewBox="0 0 16 16" fill="none" xmlns="http://www.w3.org/2000/svg">
<path id="icon" d="M6.22655 12.5C6.7326 11.7647 7.00241 10.8926 7 10C7.00171 9.66458 6.97158 9.32975 6.91 9.00001H11V8.00001H6.60875C6.56665 7.89456 6.52375 7.79031 6.48095 7.68801C6.15483 7.00526 5.99026 6.25659 6 5.50001C5.98524 5.16778 6.0398 4.83611 6.16021 4.52611C6.28063 4.21612 6.46425 3.93458 6.69941 3.69942C6.93457 3.46427 7.2161 3.28064 7.5261 3.16023C7.8361 3.03981 8.16777 2.98525 8.5 3.00001C9.01027 2.98397 9.51645 3.09578 9.97248 3.32526C10.4285 3.55475 10.8199 3.89462 11.1111 4.31396L11.8889 3.68606C11.5038 3.1506 10.9938 2.71717 10.4032 2.42336C9.81271 2.12955 9.15941 1.98423 8.5 2.00001C8.0362 1.98456 7.57417 2.06453 7.14255 2.23495C6.71092 2.40538 6.31889 2.66263 5.99075 2.99076C5.66261 3.3189 5.40536 3.71093 5.23494 4.14256C5.06452 4.57419 4.98455 5.03622 5 5.50001C4.98879 6.36215 5.16911 7.21602 5.52795 8.00001H4V9.00001H5.88645C5.96518 9.32743 6.00331 9.66328 6 10C6 11.2617 5.2571 12.5 4.5 12.5V13.5H12V12.5H6.22655Z" fill="currentColor" style="fill-opacity:1"/>
</svg>
