<svg viewBox="0 0 16 16" fill="none" xmlns="http://www.w3.org/2000/svg">
<path id="icon-arrow" d="M11.5 10.2576C11.5 7.94995 9.61 7.687 8.09145 7.47605C6.43645 7.2456 5.5 7.04605 5.5 5.62105C5.5 4.42455 6.75355 4 7.8269 4C8.36188 3.9827 8.89331 4.09281 9.37737 4.32126C9.86143 4.54972 10.2842 4.88997 10.611 5.31395L11.3891 4.68605C11.0392 4.23615 10.6038 3.85984 10.108 3.57875C9.61219 3.29765 9.06573 3.11732 8.5 3.0481V1.5H7.5V3.011C5.6924 3.1206 4.5 4.141 4.5 5.621C4.5 7.986 6.415 8.25235 7.95375 8.466C9.58 8.6924 10.5 8.8872 10.5 10.2576C10.5 11.7737 8.9337 12 8 12C6.2853 12 5.5609 11.5181 4.88905 10.6861L4.11095 11.3139C4.50735 11.8363 5.02004 12.259 5.60832 12.5486C6.19661 12.8383 6.8443 12.9868 7.5 12.9824V14.5H8.5V12.9775C10.3628 12.8254 11.5 11.814 11.5 10.2576Z" fill="currentColor" style="fill-opacity:1"/>
</svg>
