<svg viewBox="0 0 16 16" fill="none" xmlns="http://www.w3.org/2000/svg">
<path d="M10.5 6V5H8.5V3.5H7.5V5H6.5C6.23486 5.00026 5.98066 5.10571 5.79318 5.29319C5.6057 5.48066 5.50026 5.73486 5.5 6V7.5C5.50026 7.76514 5.6057 8.01934 5.79318 8.20681C5.98066 8.39429 6.23486 8.49974 6.5 8.5H9.5V10H5.5V11H7.5V12.5H8.5V11H9.5C9.76512 10.9997 10.0193 10.8942 10.2068 10.7068C10.3942 10.5193 10.4997 10.2651 10.5 10V8.5C10.4997 8.23486 10.3943 7.98066 10.2068 7.79319C10.0193 7.60571 9.76513 7.50026 9.5 7.5H6.5V6H10.5Z" fill="currentColor" style="fill-opacity:1"/>
<path d="M8 2C9.18668 2 10.3467 2.35189 11.3334 3.01118C12.3201 3.67047 13.0891 4.60754 13.5433 5.7039C13.9974 6.80026 14.1162 8.00666 13.8847 9.17054C13.6532 10.3344 13.0818 11.4035 12.2426 12.2426C11.4035 13.0818 10.3344 13.6532 9.17054 13.8847C8.00665 14.1162 6.80025 13.9974 5.7039 13.5433C4.60754 13.0892 3.67047 12.3201 3.01118 11.3334C2.35189 10.3467 2 9.18669 2 8C2.00465 6.41013 2.63829 4.88671 3.7625 3.7625C4.88671 2.63829 6.41013 2.00466 8 2ZM8 1C6.61553 1 5.26215 1.41054 4.111 2.17971C2.95986 2.94888 2.06265 4.04213 1.53284 5.32122C1.00303 6.6003 0.864403 8.00776 1.1345 9.36563C1.4046 10.7235 2.07128 11.9708 3.05025 12.9497C4.02922 13.9287 5.2765 14.5954 6.63436 14.8655C7.99223 15.1356 9.3997 14.997 10.6788 14.4672C11.9579 13.9373 13.0511 13.0401 13.8203 11.889C14.5895 10.7378 15 9.38447 15 8C14.9946 6.14516 14.2553 4.36783 12.9437 3.05626C11.6322 1.74468 9.85484 1.00543 8 1Z" fill="currentColor" style="fill-opacity:1"/>
</svg>
