<svg viewBox="0 0 16 16" fill="none" xmlns="http://www.w3.org/2000/svg">
<path d="M14.8777 10.6723C14.7827 10.5629 14.6449 10.5 14.5 10.5H13.5V9.5C13.5 8.94875 13.0514 8.5 12.5 8.5H10.5C9.9486 8.5 9.5 8.94875 9.5 9.5V10.5H8.5C8.3551 10.5 8.2173 10.563 8.1223 10.6723C8.02735 10.7819 7.9845 10.9272 8.005 11.0708L8.505 14.5708C8.54015 14.8169 8.7512 15 9 15H14C14.2488 15 14.4598 14.8169 14.495 14.5708L14.995 11.0708C15.0155 10.9272 14.9726 10.782 14.8777 10.6723ZM10.5 9.5H12.5V10.5H10.5V9.5ZM13.5664 14H9.4336L9.07655 11.5H13.9235L13.5664 14Z" fill="currentColor" style="fill-opacity:1"/>
<path d="M6 10H5V15H6V10Z" fill="currentColor" style="fill-opacity:1"/>
<path d="M8.3904 8.9375L7.4368 7.7456L6.71585 5.94285C6.4866 5.3701 5.93995 5 5.32305 5H2.50005C1.6729 5 1.00005 5.67285 1.00005 6.5V10C1.00005 10.5512 1.44855 11 2.00005 11H2.50005V15H3.50005V10H2.00005V6.5C2.00005 6.2241 2.2244 6 2.50005 6H5.32305C5.5286 6 5.711 6.12355 5.78715 6.31445L6.60965 8.3125L7.60965 9.5625L8.3904 8.9375Z" fill="currentColor" style="fill-opacity:1"/>
<path d="M2 2.5C2 1.3972 2.8972 0.5 4 0.5C5.1028 0.5 6 1.3972 6 2.5C6 3.6028 5.1028 4.5 4 4.5C2.8972 4.5 2 3.6028 2 2.5ZM3 2.5C3 3.0514 3.4485 3.5 4 3.5C4.5515 3.5 5 3.0514 5 2.5C5 1.9486 4.5515 1.5 4 1.5C3.4485 1.5 3 1.9486 3 2.5Z" fill="currentColor" style="fill-opacity:1"/>
</svg>
