<svg viewBox="0 0 16 16" fill="none" xmlns="http://www.w3.org/2000/svg">
<path d="M13 15H12V12.5C11.9984 11.12 10.88 10.0016 9.5 10H6.5C5.11995 10.0016 4.00165 11.12 4 12.5V15H3V12.5C3.00225 10.568 4.56795 9.00225 6.5 9H9.5C11.432 9.00225 12.9978 10.568 13 12.5V15Z" fill="currentColor" style="fill-opacity:1"/>
<path d="M11 3V5C11 5.55125 10.5514 6 10 6H9.5C9.2239 6 9 6.2239 9 6.5C9 6.7761 9.2239 7 9.5 7H10C11.1028 7 12 6.1028 12 5V3H11Z" fill="currentColor" style="fill-opacity:1"/>
<path d="M8 8C6.07005 8 4.5 6.42995 4.5 4.5C4.5 2.57005 6.07005 1 8 1C8.99425 1 9.94505 1.42515 10.6087 2.16645L9.86355 2.83345C9.38945 2.3038 8.71025 2 8 2C6.62145 2 5.5 3.1215 5.5 4.5C5.5 5.8785 6.62145 7 8 7V8Z" fill="currentColor" style="fill-opacity:1"/>
</svg>
