<svg viewBox="0 0 16 16" fill="none" xmlns="http://www.w3.org/2000/svg">
<path d="M9.52499 6.8663L9.02499 6L3.96399 8.92285L3.46559 8.635C3.59822 8.52712 3.71109 8.39702 3.79919 8.2505C3.94754 7.99359 4.01639 7.69846 3.99701 7.40243C3.97764 7.1064 3.87092 6.82276 3.69034 6.58738C3.50977 6.35199 3.26345 6.17545 2.98254 6.08005C2.70163 5.98466 2.39874 5.97471 2.11217 6.05145C1.8256 6.1282 1.56823 6.2882 1.37259 6.51122C1.17696 6.73423 1.05184 7.01026 1.01308 7.30438C0.97431 7.5985 1.02363 7.89751 1.1548 8.16361C1.28597 8.4297 1.49309 8.65092 1.74999 8.7993L2.96399 9.50025L1.74999 10.2011C1.46823 10.3597 1.24447 10.604 1.11135 10.8987C0.978223 11.1933 0.942693 11.5227 1.00994 11.8389C1.07718 12.1551 1.24368 12.4416 1.48517 12.6566C1.72665 12.8715 2.03048 13.0037 2.35237 13.0339C2.67425 13.064 2.99735 12.9905 3.27455 12.8242C3.55175 12.6578 3.76856 12.4073 3.89336 12.109C4.01816 11.8108 4.04443 11.4805 3.96833 11.1663C3.89224 10.8521 3.71776 10.5704 3.47034 10.3623L3.96384 10.0777L7.29569 12L7.79569 11.1353L4.96399 9.5003L9.52499 6.8663ZM2.01719 7.63C1.98722 7.51827 1.99692 7.39959 2.04463 7.29421C2.09235 7.18882 2.17514 7.10325 2.27888 7.05206C2.38263 7.00087 2.50091 6.98724 2.61358 7.0135C2.72624 7.03975 2.82632 7.10426 2.89676 7.19603C2.96719 7.2878 3.00363 7.40115 2.99985 7.51678C2.99607 7.6324 2.95232 7.74314 2.87604 7.83011C2.79977 7.91709 2.6957 7.97493 2.58156 7.99378C2.46742 8.01262 2.35027 7.9913 2.25009 7.93345C2.19313 7.90078 2.14322 7.85714 2.10324 7.80506C2.06326 7.75297 2.03401 7.69347 2.01719 7.63ZM2.49939 11C2.58719 10.9999 2.67348 11.0229 2.74957 11.0667C2.82567 11.1105 2.88889 11.1735 2.93288 11.2495C2.97687 11.3255 3.00007 11.4117 3.00015 11.4995C3.00024 11.5873 2.9772 11.6736 2.93336 11.7497C2.88951 11.8257 2.82641 11.8889 2.7504 11.9329C2.67439 11.9768 2.58814 12 2.50034 12C2.41254 12 2.32628 11.9769 2.25024 11.9331C2.17419 11.8892 2.11104 11.826 2.06714 11.75C2.02329 11.674 2.00019 11.5879 2.00015 11.5002C2.00012 11.4125 2.02316 11.3263 2.06695 11.2503C2.11074 11.1743 2.17375 11.1112 2.24966 11.0673C2.32556 11.0233 2.41169 11.0001 2.49939 11Z" fill="currentColor" style="fill-opacity:1"/>
<path d="M10.5 13H8.49999V14H10.5V13Z" fill="currentColor" style="fill-opacity:1"/>
<path d="M6.99999 13H4.99999V14H6.99999V13Z" fill="currentColor" style="fill-opacity:1"/>
<path d="M14 14H12V13H14V2H3.49999V4H2.49999V2C2.50029 1.73488 2.60575 1.4807 2.79322 1.29323C2.98069 1.10576 3.23487 1.0003 3.49999 1H14C14.2651 1.0003 14.5193 1.10576 14.7068 1.29323C14.8942 1.4807 14.9997 1.73488 15 2V13C14.9997 13.2651 14.8942 13.5193 14.7068 13.7068C14.5193 13.8942 14.2651 13.9997 14 14Z" fill="currentColor" style="fill-opacity:1"/>
</svg>
