<svg viewBox="0 0 16 16" fill="none" xmlns="http://www.w3.org/2000/svg">
<path id="icon" d="M13.25 9.81498L10.12 7.99999L13.25 6.18499C13.6848 5.94018 14.0365 5.57084 14.2596 5.1245C14.4828 4.67817 14.5673 4.17526 14.5022 3.68051C14.4371 3.18576 14.2255 2.7218 13.8945 2.34835C13.5635 1.97489 13.1283 1.70903 12.645 1.58499C12.4344 1.52971 12.2177 1.50115 12 1.49999C11.559 1.49845 11.1253 1.61363 10.7432 1.83383C10.361 2.05402 10.044 2.37139 9.82409 2.75374C9.60423 3.13608 9.48943 3.56978 9.49135 4.01083C9.49326 4.45188 9.61183 4.88457 9.835 5.26498C10.1084 5.73576 10.528 6.10443 11.03 6.31499L9.12 7.41999L2 3.29998L1.5 4.16999L8.12 7.99999L1.5 11.84L2 12.71L9.12 8.57999L11.03 9.68499C10.528 9.89554 10.1084 10.2642 9.835 10.735C9.61183 11.1154 9.49326 11.5481 9.49135 11.9891C9.48943 12.4302 9.60423 12.8639 9.82409 13.2462C10.044 13.6286 10.361 13.946 10.7432 14.1661C11.1253 14.3863 11.559 14.5015 12 14.5C12.2177 14.4988 12.4344 14.4703 12.645 14.415C13.1283 14.2909 13.5635 14.0251 13.8945 13.6516C14.2255 13.2782 14.4371 12.8142 14.5022 12.3195C14.5673 11.8247 14.4828 11.3218 14.2596 10.8755C14.0365 10.4291 13.6848 10.0598 13.25 9.81498ZM10.7 4.76498C10.5998 4.59387 10.5346 4.4046 10.508 4.20811C10.4815 4.01162 10.4941 3.81182 10.5453 3.62025C10.5964 3.42868 10.685 3.24916 10.806 3.09206C10.927 2.93496 11.0779 2.8034 11.25 2.70498C11.421 2.60659 11.6097 2.54289 11.8053 2.51753C12.001 2.49218 12.1997 2.50566 12.3901 2.55721C12.5806 2.60877 12.7589 2.69738 12.9151 2.81797C13.0712 2.93856 13.202 3.08877 13.3 3.25998C13.3994 3.43089 13.464 3.61975 13.4901 3.81571C13.5163 4.01168 13.5034 4.21087 13.4523 4.40185C13.4012 4.59283 13.3128 4.77182 13.1923 4.92853C13.0718 5.08524 12.9215 5.21657 12.75 5.31499C12.5793 5.41359 12.3909 5.47758 12.1954 5.5033C12 5.52902 11.8014 5.51597 11.611 5.46489C11.4206 5.41381 11.2422 5.3257 11.0858 5.20561C10.9295 5.08551 10.7984 4.93578 10.7 4.76498ZM13.3 12.765C13.202 12.9362 13.0712 13.0864 12.9151 13.207C12.7589 13.3276 12.5806 13.4162 12.3901 13.4678C12.1997 13.5193 12.001 13.5328 11.8053 13.5074C11.6097 13.4821 11.421 13.4184 11.25 13.32C11.0779 13.2216 10.927 13.09 10.806 12.9329C10.685 12.7758 10.5964 12.5963 10.5453 12.4047C10.4941 12.2132 10.4815 12.0134 10.508 11.8169C10.5346 11.6204 10.5998 11.4311 10.7 11.26C10.7984 11.0892 10.9295 10.9395 11.0858 10.8194C11.2422 10.6993 11.4206 10.6112 11.611 10.5601C11.8014 10.509 12 10.496 12.1954 10.5217C12.3909 10.5474 12.5793 10.6114 12.75 10.71C13.0896 10.9086 13.3375 11.2327 13.4404 11.6124C13.5433 11.9922 13.4928 12.3971 13.3 12.74V12.765Z" fill="currentColor" style="fill-opacity:1"/>
</svg>
