<svg viewBox="0 0 16 16" fill="none" xmlns="http://www.w3.org/2000/svg">
<path d="M12.5 15C11.9067 15 11.3266 14.8241 10.8333 14.4944C10.3399 14.1648 9.95542 13.6962 9.72836 13.148C9.5013 12.5999 9.44189 11.9967 9.55764 11.4147C9.6734 10.8328 9.95912 10.2982 10.3787 9.87868C10.7982 9.45912 11.3328 9.1734 11.9147 9.05764C12.4967 8.94189 13.0999 9.0013 13.648 9.22836C14.1962 9.45542 14.6648 9.83994 14.9944 10.3333C15.3241 10.8266 15.5 11.4067 15.5 12C15.4991 12.7954 15.1827 13.5579 14.6203 14.1203C14.0579 14.6827 13.2954 14.9991 12.5 15ZM12.5 10C12.1044 10 11.7178 10.1173 11.3889 10.3371C11.06 10.5568 10.8036 10.8692 10.6522 11.2346C10.5009 11.6001 10.4613 12.0022 10.5384 12.3902C10.6156 12.7781 10.8061 13.1345 11.0858 13.4142C11.3655 13.6939 11.7219 13.8844 12.1098 13.9616C12.4978 14.0387 12.8999 13.9991 13.2654 13.8478C13.6308 13.6964 13.9432 13.44 14.1629 13.1111C14.3827 12.7822 14.5 12.3956 14.5 12C14.4994 11.4697 14.2885 10.9614 13.9136 10.5864C13.5386 10.2115 13.0302 10.0006 12.5 10Z" fill="currentColor" style="fill-opacity:1"/>
<path d="M3.5 15C2.90665 15 2.32664 14.8241 1.83329 14.4944C1.33994 14.1648 0.955423 13.6962 0.72836 13.148C0.501297 12.5999 0.441887 11.9967 0.557643 11.4147C0.673399 10.8328 0.959121 10.2982 1.37868 9.87868C1.79824 9.45912 2.33278 9.1734 2.91473 9.05764C3.49667 8.94189 4.09987 9.0013 4.64805 9.22836C5.19623 9.45542 5.66476 9.83994 5.99441 10.3333C6.32405 10.8266 6.5 11.4067 6.5 12C6.49909 12.7954 6.18272 13.5579 5.62031 14.1203C5.0579 14.6827 4.29537 14.9991 3.5 15ZM3.5 10C3.10444 10 2.71776 10.1173 2.38886 10.3371C2.05996 10.5568 1.80361 10.8692 1.65224 11.2346C1.50086 11.6001 1.46126 12.0022 1.53843 12.3902C1.6156 12.7781 1.80608 13.1345 2.08579 13.4142C2.36549 13.6939 2.72186 13.8844 3.10982 13.9616C3.49778 14.0387 3.89991 13.9991 4.26537 13.8478C4.63082 13.6964 4.94318 13.44 5.16294 13.1111C5.3827 12.7822 5.5 12.3956 5.5 12C5.4994 11.4697 5.2885 10.9614 4.91355 10.5864C4.53861 10.2115 4.03025 10.0006 3.5 10Z" fill="currentColor" style="fill-opacity:1"/>
<path d="M8.5 13.5H7.5V10.2069L4.79245 7.5C4.60516 7.31225 4.49998 7.05789 4.49998 6.7927C4.49998 6.52751 4.60516 6.27315 4.79245 6.0854L7.0854 3.79245C7.27309 3.60518 7.52741 3.50001 7.79255 3.50001C8.05769 3.50001 8.312 3.60518 8.4997 3.79245L10.707 6H13.5V6.99965L10.2926 7L7.79265 4.5L5.5 6.79245L8.5 9.79245V13.5Z" fill="currentColor" style="fill-opacity:1"/>
<path d="M10.75 4C10.4039 4 10.0655 3.89736 9.77775 3.70507C9.48996 3.51278 9.26566 3.23947 9.13321 2.9197C9.00076 2.59992 8.9661 2.24806 9.03362 1.90859C9.10115 1.56912 9.26782 1.2573 9.51256 1.01256C9.7573 0.76782 10.0691 0.601149 10.4086 0.533625C10.7481 0.466101 11.0999 0.500757 11.4197 0.63321C11.7395 0.765663 12.0128 0.989965 12.2051 1.27775C12.3974 1.56554 12.5 1.90388 12.5 2.25C12.4994 2.71396 12.3149 3.15875 11.9868 3.48682C11.6588 3.81489 11.214 3.99944 10.75 4ZM10.75 1.5C10.6017 1.5 10.4567 1.54399 10.3333 1.6264C10.21 1.70881 10.1139 1.82594 10.0571 1.96299C10.0003 2.10003 9.98547 2.25083 10.0144 2.39632C10.0433 2.5418 10.1148 2.67544 10.2197 2.78033C10.3246 2.88522 10.4582 2.95665 10.6037 2.98559C10.7492 3.01453 10.9 2.99967 11.037 2.94291C11.1741 2.88614 11.2912 2.79001 11.3736 2.66668C11.456 2.54334 11.5 2.39834 11.5 2.25C11.4998 2.05116 11.4207 1.86052 11.2801 1.71992C11.1395 1.57931 10.9488 1.50022 10.75 1.5Z" fill="currentColor" style="fill-opacity:1"/>
</svg>
