<svg viewBox="0 0 16 16" fill="none" xmlns="http://www.w3.org/2000/svg">
<path d="M14 1H10C9.73487 1.0003 9.4807 1.10576 9.29323 1.29323C9.10576 1.4807 9.0003 1.73488 9 2V14C9.0003 14.2651 9.10576 14.5193 9.29323 14.7068C9.4807 14.8942 9.73487 14.9997 10 15H14C14.2651 14.9997 14.5193 14.8942 14.7068 14.7068C14.8942 14.5193 14.9997 14.2651 15 14V2C14.9997 1.73488 14.8942 1.4807 14.7068 1.29323C14.5193 1.10576 14.2651 1.0003 14 1ZM14 2V5.5H10V2H14ZM14 6.5V9.5H10V6.5H14ZM10 14V10.5H14V14H10Z" fill="currentColor" style="fill-opacity:1"/>
<path d="M6 7.5H5V6.5H4V7.5H3V8.5H4V9.5H5V8.5H6V7.5Z" fill="currentColor" style="fill-opacity:1"/>
<path d="M8 3V2H5C4.73488 2.0003 4.4807 2.10576 4.29323 2.29323C4.10576 2.4807 4.0003 2.73488 4 3V4.54C3.16697 4.65879 2.40476 5.07412 1.85336 5.70973C1.30196 6.34534 0.99838 7.15855 0.99838 8C0.99838 8.84145 1.30196 9.65466 1.85336 10.2903C2.40476 10.9259 3.16697 11.3412 4 11.46V13C4.0003 13.2651 4.10576 13.5193 4.29323 13.7068C4.4807 13.8942 4.73488 13.9997 5 14H8V13H5V11.46C5.83303 11.3412 6.59523 10.9259 7.14664 10.2903C7.69804 9.65466 8.00162 8.84145 8.00162 8C8.00162 7.15855 7.69804 6.34534 7.14664 5.70973C6.59523 5.07412 5.83303 4.65879 5 4.54V3H8ZM7 8C7 8.49445 6.85338 8.9778 6.57867 9.38893C6.30397 9.80005 5.91352 10.1205 5.45671 10.3097C4.99989 10.4989 4.49723 10.5484 4.01227 10.452C3.52732 10.3555 3.08186 10.1174 2.73223 9.76777C2.3826 9.41814 2.1445 8.97268 2.04804 8.48773C1.95157 8.00277 2.00108 7.50011 2.1903 7.04329C2.37952 6.58648 2.69995 6.19603 3.11107 5.92133C3.5222 5.64662 4.00555 5.5 4.5 5.5C5.1628 5.50078 5.79823 5.76442 6.2669 6.2331C6.73558 6.70177 6.99922 7.3372 7 8Z" fill="currentColor" style="fill-opacity:1"/>
</svg>
