<svg viewBox="0 0 16 16" fill="none" xmlns="http://www.w3.org/2000/svg">
<path id="icon" d="M13 8.00001C12.644 8.00182 12.2951 8.09953 11.99 8.28286L10.5607 6.85361L11.7072 5.70711C11.8947 5.51958 12.0001 5.26523 12.0001 5.00001C12.0001 4.7348 11.8947 4.48045 11.7072 4.29291L8.7072 1.29291C8.51966 1.10538 8.26531 1.00003 8.0001 1.00003C7.73489 1.00003 7.48053 1.10538 7.293 1.29291L4.293 4.29291C4.10547 4.48045 4.00011 4.7348 4.00011 5.00001C4.00011 5.26523 4.10547 5.51958 4.293 5.70711L5.4395 6.85361L4.01 8.28286C3.58643 8.03158 3.0857 7.94357 2.60184 8.03535C2.11797 8.12714 1.68425 8.39241 1.38213 8.78134C1.08001 9.17028 0.930268 9.65614 0.961023 10.1477C0.991777 10.6392 1.20091 11.1026 1.54916 11.4509C1.89741 11.7991 2.36081 12.0082 2.85234 12.039C3.34387 12.0697 3.82973 11.92 4.21867 11.6179C4.60761 11.3158 4.87288 10.882 4.96466 10.3982C5.05645 9.91431 4.96843 9.41358 4.71715 8.99001L6.1464 7.56071L7.2929 8.70721C7.35488 8.76753 7.42451 8.81946 7.5 8.86166V11H6V15H10V11H8.5V8.86166C8.5755 8.81943 8.64512 8.76747 8.7071 8.70711L9.8536 7.56061L11.2828 8.99001C11.0615 9.36981 10.9718 9.81211 11.0278 10.2481C11.0837 10.6842 11.2822 11.0895 11.5923 11.4011C11.9024 11.7126 12.3068 11.913 12.7425 11.9711C13.1783 12.0291 13.621 11.9415 14.0019 11.7219C14.3827 11.5024 14.6803 11.1631 14.8484 10.7569C15.0166 10.3507 15.0458 9.90039 14.9315 9.4759C14.8172 9.0514 14.5659 8.67656 14.2166 8.40965C13.8673 8.14275 13.4396 7.99874 13 8.00001ZM4 10C4 10.1978 3.94135 10.3911 3.83147 10.5556C3.72159 10.72 3.56541 10.8482 3.38268 10.9239C3.19996 10.9996 2.99889 11.0194 2.80491 10.9808C2.61093 10.9422 2.43274 10.847 2.29289 10.7071C2.15304 10.5673 2.0578 10.3891 2.01921 10.1951C1.98063 10.0011 2.00043 9.80006 2.07612 9.61733C2.15181 9.4346 2.27998 9.27843 2.44443 9.16854C2.60888 9.05866 2.80222 9.00001 3 9.00001C3.26512 9.00032 3.5193 9.10577 3.70677 9.29324C3.89424 9.48071 3.99969 9.73489 4 10ZM9 12V14H7V12H9ZM8 8.00001L5 5.00001L8 2.00001L11 5.00001L8 8.00001ZM13 11C12.8022 11 12.6089 10.9414 12.4444 10.8315C12.28 10.7216 12.1518 10.5654 12.0761 10.3827C12.0004 10.2 11.9806 9.9989 12.0192 9.80492C12.0578 9.61094 12.153 9.43276 12.2929 9.29291C12.4327 9.15305 12.6109 9.05781 12.8049 9.01923C12.9989 8.98064 13.2 9.00045 13.3827 9.07613C13.5654 9.15182 13.7216 9.27999 13.8315 9.44444C13.9413 9.60889 14 9.80223 14 10C13.9997 10.2651 13.8942 10.5193 13.7068 10.7068C13.5193 10.8943 13.2651 10.9997 13 11Z" fill="currentColor" style="fill-opacity:1"/>
</svg>
