<svg viewBox="0 0 16 16" fill="none" xmlns="http://www.w3.org/2000/svg">
<path id="icon" d="M13.5 12C13.2689 12 13.0526 12.0567 12.857 12.1499L10.4426 9.73535C10.7921 9.24485 10.9999 8.64695 10.9999 8C10.9999 6.3457 9.6541 5 7.99995 5C7.3531 5 6.7551 5.208 6.2645 5.55735L3.85005 3.14305C3.9433 2.9475 3.99995 2.7312 3.99995 2.5C3.99995 1.67165 3.3283 1 2.49995 1C1.6716 1 0.99995 1.67165 0.99995 2.5C0.99995 3.32835 1.6716 4 2.49995 4C2.73105 4 2.94735 3.94335 3.1429 3.8501L5.55735 6.26465C5.20785 6.75515 5 7.35305 5 8C5 9.6543 6.34585 11 8 11C8.64685 11 9.24485 10.792 9.73545 10.4426L12.1499 12.8569C12.0567 13.0525 12 13.2688 12 13.5C12 14.3284 12.6716 15 13.5 15C14.3283 15 15 14.3284 15 13.5C15 12.6716 14.3283 12 13.5 12ZM8 10C6.8972 10 6 9.1028 6 8C6 6.8972 6.8972 6 8 6C9.1028 6 10 6.8972 10 8C10 9.1028 9.1028 10 8 10Z" fill="currentColor" style="fill-opacity:1"/>
</svg>
