<svg viewBox="0 0 16 16" fill="none" xmlns="http://www.w3.org/2000/svg">
<path id="icon" d="M14 1.50001C13.6907 1.50063 13.3892 1.59713 13.137 1.77622C12.8848 1.95531 12.6944 2.20818 12.5919 2.50001H10.929C10.82 2.07112 10.5711 1.6908 10.2218 1.41915C9.87245 1.1475 9.44254 1.00002 9.00001 1.00002C8.55748 1.00002 8.12757 1.1475 7.77823 1.41915C7.42889 1.6908 7.18004 2.07112 7.07101 2.50001H4.92901C4.84154 2.15889 4.66536 1.84699 4.41837 1.59597C4.17137 1.34495 3.86236 1.16376 3.52269 1.07078C3.18303 0.977804 2.82481 0.976357 2.48441 1.06659C2.144 1.15682 1.83354 1.33551 1.58452 1.58452C1.33551 1.83354 1.15682 2.144 1.06659 2.48441C0.976357 2.82481 0.977804 3.18303 1.07078 3.52269C1.16376 3.86236 1.34495 4.17137 1.59597 4.41837C1.84699 4.66536 2.15889 4.84154 2.50001 4.92901V7.07101C2.07112 7.18004 1.6908 7.42889 1.41915 7.77823C1.1475 8.12757 1.00002 8.55748 1.00002 9.00001C1.00002 9.44254 1.1475 9.87245 1.41915 10.2218C1.6908 10.5711 2.07112 10.82 2.50001 10.929V12.5919C2.16641 12.7098 1.88524 12.9419 1.7062 13.2471C1.52716 13.5523 1.46178 13.911 1.52162 14.2597C1.58145 14.6085 1.76265 14.9248 2.03318 15.1529C2.30372 15.381 2.64617 15.5061 3.00001 15.5061C3.35386 15.5061 3.69631 15.381 3.96684 15.1529C4.23738 14.9248 4.41858 14.6085 4.47841 14.2597C4.53825 13.911 4.47287 13.5523 4.29383 13.2471C4.11479 12.9419 3.83362 12.7098 3.50001 12.5919V10.929C3.81124 10.8483 4.09825 10.6933 4.33646 10.4773L6.01836 11.3183C6.00851 11.3784 6.00239 11.4391 6.00001 11.5C5.99867 11.8474 6.1175 12.1847 6.33637 12.4545C6.55524 12.7243 6.86068 12.9101 7.20092 12.9805C7.54115 13.0509 7.89525 13.0014 8.20318 12.8405C8.51112 12.6796 8.75395 12.4172 8.89051 12.0977C9.02706 11.7783 9.04895 11.4214 8.95246 11.0876C8.85596 10.7539 8.64703 10.4637 8.36106 10.2664C8.07509 10.0691 7.72969 9.97673 7.38341 10.005C7.03713 10.0332 6.71127 10.1804 6.46106 10.4214L4.88721 9.63451C4.9593 9.43061 4.99741 9.21626 5.00001 9.00001C4.99867 8.55782 4.85069 8.12857 4.57925 7.7795C4.30781 7.43042 3.92824 7.18125 3.50001 7.07101V4.92901C3.84376 4.83942 4.15739 4.65976 4.40858 4.40858C4.65976 4.15739 4.83942 3.84376 4.92901 3.50001H7.07101C7.13272 3.75198 7.24363 3.98927 7.39737 4.19822C7.5511 4.40718 7.74462 4.58368 7.9668 4.71759C8.18898 4.8515 8.43545 4.94016 8.69201 4.97849C8.94858 5.01681 9.2102 5.00404 9.46181 4.94091L10.3677 6.52616C10.1322 6.79828 10.0008 7.145 9.9966 7.50483C9.99244 7.86466 10.1159 8.21433 10.345 8.49182C10.5741 8.76931 10.8941 8.95669 11.2482 9.02071C11.6023 9.08472 11.9676 9.02125 12.2794 8.84154C12.5912 8.66184 12.8292 8.37751 12.9513 8.039C13.0734 7.70049 13.0716 7.32968 12.9463 6.99235C12.8211 6.65501 12.5803 6.37295 12.2669 6.1962C11.9534 6.01946 11.5875 5.95944 11.234 6.02681L10.3447 4.47051C10.6293 4.21039 10.8323 3.87325 10.929 3.50001H12.5919C12.684 3.75859 12.8454 3.98688 13.0585 4.15994C13.2715 4.33299 13.5281 4.44414 13.8001 4.48126C14.072 4.51837 14.349 4.48002 14.6006 4.37039C14.8523 4.26076 15.069 4.08406 15.227 3.85962C15.385 3.63517 15.4783 3.37161 15.4967 3.09773C15.515 2.82384 15.4578 2.55018 15.3311 2.30664C15.2045 2.06311 15.0134 1.85906 14.7786 1.7168C14.5439 1.57455 14.2745 1.49955 14 1.50001ZM4.00001 9.00001C4.00001 9.19779 3.94136 9.39113 3.83148 9.55558C3.7216 9.72003 3.56542 9.84821 3.3827 9.92389C3.19997 9.99958 2.9989 10.0194 2.80492 9.9808C2.61094 9.94221 2.43276 9.84697 2.29291 9.70712C2.15305 9.56727 2.05781 9.38908 2.01923 9.1951C1.98064 9.00112 2.00045 8.80006 2.07613 8.61733C2.15182 8.4346 2.27999 8.27842 2.44444 8.16854C2.60889 8.05866 2.80223 8.00001 3.00001 8.00001C3.26514 8.00032 3.51931 8.10577 3.70678 8.29324C3.89425 8.48071 3.99971 8.73489 4.00001 9.00001ZM3.00001 4.00001C2.80223 4.00001 2.60889 3.94136 2.44444 3.83148C2.27999 3.7216 2.15182 3.56542 2.07613 3.3827C2.00045 3.19997 1.98064 2.9989 2.01923 2.80492C2.05781 2.61094 2.15305 2.43276 2.29291 2.29291C2.43276 2.15305 2.61094 2.05781 2.80492 2.01923C2.9989 1.98064 3.19997 2.00045 3.3827 2.07613C3.56542 2.15182 3.7216 2.27999 3.83148 2.44444C3.94136 2.60889 4.00001 2.80223 4.00001 3.00001C3.99975 3.26515 3.89431 3.51935 3.70683 3.70683C3.51935 3.89431 3.26515 3.99975 3.00001 4.00001ZM8.00001 3.00001C8.00001 2.80223 8.05866 2.60889 8.16854 2.44444C8.27842 2.27999 8.4346 2.15182 8.61733 2.07613C8.80005 2.00045 9.00112 1.98064 9.1951 2.01923C9.38908 2.05781 9.56727 2.15305 9.70712 2.29291C9.84697 2.43276 9.94221 2.61094 9.9808 2.80492C10.0194 2.9989 9.99958 3.19997 9.92389 3.3827C9.8482 3.56542 9.72003 3.7216 9.55558 3.83148C9.39113 3.94136 9.19779 4.00001 9.00001 4.00001C8.73488 3.99975 8.48068 3.89431 8.2932 3.70683C8.10572 3.51935 8.00028 3.26515 8.00001 3.00001Z" fill="currentColor" style="fill-opacity:1"/>
</svg>
