<svg viewBox="0 0 16 16" fill="none" xmlns="http://www.w3.org/2000/svg">
<path d="M4 14V10.915L5.2949 12.2051L6 11.5L3.5 9L1 11.5L1.7051 12.2051L3 10.915V14C3 14.5512 3.4486 15 4 15H8.5V14H4Z" fill="currentColor" style="fill-opacity:1"/>
<path d="M12.5 8.5C11.0747 8.5 10 9.145 10 10V13.5C10 14.355 11.0747 15 12.5 15C13.9253 15 15 14.355 15 13.5V10C15 9.145 13.9253 8.5 12.5 8.5ZM12.5 9.5C13.468 9.5 14 9.8755 14 10C14 10.1245 13.468 10.5 12.5 10.5C11.532 10.5 11 10.1245 11 10C11 9.8755 11.532 9.5 12.5 9.5ZM12.5 14C11.532 14 11 13.6245 11 13.5V11.2102C11.4132 11.3914 11.9254 11.5 12.5 11.5C13.0746 11.5 13.5868 11.3914 14 11.2102V13.5C14 13.6245 13.468 14 12.5 14Z" fill="currentColor" style="fill-opacity:1"/>
<path d="M14.2949 3.7949L13 5.08495V2C13 1.44875 12.5514 1 12 1H7.5V2H12V5.08495L10.7051 3.7949L10 4.5L12.5 7L15 4.5L14.2949 3.7949Z" fill="currentColor" style="fill-opacity:1"/>
<path d="M3.5 7.5C4.9253 7.5 6 6.855 6 6V2.5C6 1.645 4.9253 1 3.5 1C2.0747 1 1 1.645 1 2.5V6C1 6.855 2.0747 7.5 3.5 7.5ZM3.5 2C4.468 2 5 2.3755 5 2.5C5 2.6245 4.468 3 3.5 3C2.532 3 2 2.6245 2 2.5C2 2.3755 2.532 2 3.5 2ZM2 3.7102C2.4132 3.89135 2.9254 4 3.5 4C4.0746 4 4.5868 3.89135 5 3.7102V6C5 6.1245 4.468 6.5 3.5 6.5C2.532 6.5 2 6.1245 2 6V3.7102Z" fill="currentColor" style="fill-opacity:1"/>
</svg>
