<svg viewBox="0 0 16 16" fill="none" xmlns="http://www.w3.org/2000/svg">
<path d="M13.169 15.5L12.301 15L13.4447 13H11.5L13.4965 9.5L14.365 10L13.2232 12H15.1684L13.169 15.5Z" fill="currentColor" style="fill-opacity:1"/>
<path d="M6 7H4V8H6V7Z" fill="currentColor" style="fill-opacity:1"/>
<path d="M12 7H10V8H12V7Z" fill="currentColor" style="fill-opacity:1"/>
<path d="M6 9H4V10H6V9Z" fill="currentColor" style="fill-opacity:1"/>
<path d="M9 9H7V10H9V9Z" fill="currentColor" style="fill-opacity:1"/>
<path d="M9 11H7V12H9V11Z" fill="currentColor" style="fill-opacity:1"/>
<path d="M2.5 5.5H13.5V8H14.5V2.5C14.5 1.94875 14.0514 1.5 13.5 1.5H2.5C1.9486 1.5 1.5 1.94875 1.5 2.5V13.5C1.5 14.0512 1.9486 14.5 2.5 14.5H10V13.5H2.5V5.5ZM13.5 2.5V4.5H2.5V2.5H13.5Z" fill="currentColor" style="fill-opacity:1"/>
</svg>
