<svg viewBox="0 0 16 16" fill="none" xmlns="http://www.w3.org/2000/svg">
<path id="icon" d="M14.5 3C14.7761 3.00001 15 3.22391 15 3.5V12.5C15 12.7761 14.7761 13 14.5 13H6.00003C5.86748 13 5.74026 12.9473 5.64651 12.8535L1.14651 8.35352C0.951256 8.15822 0.95124 7.84177 1.14651 7.64648L5.64651 3.14648C5.74026 3.05273 5.86748 3 6.00003 3H14.5ZM2.20706 8L6.20706 12H14V4H6.20706L2.20706 8ZM12.5 5.70703L10.2071 8L12.5 10.293L11.793 11L9.50003 8.70703L7.20706 11L6.50003 10.293L8.793 8L6.50003 5.70703L7.20706 5L9.50003 7.29297L11.793 5L12.5 5.70703Z" fill="currentColor" style="fill-opacity:1"/>
</svg>
