<svg viewBox="0 0 16 16" fill="none" xmlns="http://www.w3.org/2000/svg">
<path d="M14.7409 4.31199L9.74095 1.56199C9.66713 1.52139 9.58425 1.5001 9.5 1.5001C9.41575 1.5001 9.33287 1.52139 9.25905 1.56199L4.25905 4.31199C4.18066 4.35515 4.11528 4.41856 4.06975 4.49561C4.02422 4.57265 4.00021 4.6605 4.00021 4.74999C4.00021 4.83948 4.02422 4.92733 4.06975 5.00437C4.11528 5.08142 4.18066 5.14483 4.25905 5.18799L9 7.79564V13.1543L7.4819 12.3196L7 13.1956L9.25905 14.438C9.33285 14.4787 9.41574 14.5 9.5 14.5C9.58426 14.5 9.66715 14.4787 9.74095 14.438L14.7409 11.688C14.8194 11.6449 14.8848 11.5815 14.9304 11.5044C14.9759 11.4274 15 11.3395 15 11.25V4.74999C15 4.66048 14.9759 4.57262 14.9304 4.49557C14.8848 4.41853 14.8194 4.35513 14.7409 4.31199ZM9.5 2.57079L13.4624 4.74999L9.5 6.92919L5.5376 4.74999L9.5 2.57079ZM14 10.9543L10 13.1543V7.79564L14 5.59564V10.9543Z" fill="currentColor" style="fill-opacity:1"/>
<path d="M1 7.99999H5V6.99999H1V7.99999Z" fill="currentColor" style="fill-opacity:1"/>
<path d="M2 12H6V11H2V12Z" fill="currentColor" style="fill-opacity:1"/>
<path d="M3 9.99999H7V8.99999H3V9.99999Z" fill="currentColor" style="fill-opacity:1"/>
</svg>
