<svg viewBox="0 0 16 16" fill="none" xmlns="http://www.w3.org/2000/svg">
<path d="M15 14H1V15H15V14Z" fill="currentColor" style="fill-opacity:1"/>
<path d="M6.74 2.575L9.585 6.645L9.985 7.22L12.92 6.435C13.1033 6.38505 13.2967 6.38505 13.48 6.435C13.6235 6.47117 13.7561 6.54142 13.8667 6.63977C13.9772 6.73813 14.0624 6.8617 14.115 7C14.16 7.12053 14.1797 7.24905 14.1727 7.37753C14.1658 7.506 14.1324 7.63166 14.0747 7.74665C14.017 7.86163 13.9361 7.96347 13.8373 8.04578C13.7384 8.12809 13.6236 8.1891 13.5 8.225L4.145 10.725C3.98176 10.7728 3.80825 10.7728 3.645 10.725C3.48899 10.6797 3.34746 10.5946 3.23435 10.478C3.12125 10.3614 3.04048 10.2173 3 10.06L2.875 9.595L2.5 8.19L2.13 6.82L2.85 6.625L4 8.175L4.405 8.715L7.43 7.905L6.04 2.76L6.74 2.575ZM7.08 1.5C6.99786 1.48007 6.91215 1.48007 6.83 1.5L5.285 1.915C5.16534 1.95217 5.06399 2.03292 5.00102 2.14125C4.93805 2.24959 4.91806 2.37763 4.945 2.5L6.195 7.18L4.79 7.555L3.425 5.75C3.36009 5.66345 3.26886 5.60029 3.165 5.57C3.08286 5.55007 2.99715 5.55007 2.915 5.57L1.36 6C1.23767 6.03306 1.13245 6.11134 1.06562 6.21901C0.998794 6.32668 0.975341 6.4557 1 6.58L1.875 9.85L2 10.32C2.0878 10.6486 2.26067 10.9483 2.50119 11.1888C2.74171 11.4293 3.04138 11.6022 3.37 11.69C3.6977 11.7767 4.04231 11.7767 4.37 11.69L13.72 9.19C14.133 9.08426 14.4991 8.84407 14.7605 8.50729C15.0219 8.17052 15.1638 7.75632 15.1638 7.33C15.1638 6.90368 15.0219 6.48948 14.7605 6.15271C14.4991 5.81594 14.133 5.57575 13.72 5.47C13.366 5.37744 12.9941 5.37744 12.64 5.47L10.385 6.075L7.35 1.705C7.28662 1.60731 7.19113 1.53481 7.08 1.5Z" fill="currentColor" style="fill-opacity:1"/>
</svg>
