<svg viewBox="0 0 16 16" fill="none" xmlns="http://www.w3.org/2000/svg">
<g id="Icons / Deployment-pattern" clip-path="url(#clip0_0_242)">
<g id="icon">
<path d="M4 9.99998H2.365C2.27836 9.8472 2.15252 9.72031 2.00046 9.63241C1.8484 9.54452 1.67563 9.4988 1.5 9.49998C1.23478 9.49998 0.980426 9.60534 0.79289 9.79287C0.605353 9.98041 0.499997 10.2348 0.499997 10.5C0.499997 10.7652 0.605353 11.0196 0.79289 11.2071C0.980426 11.3946 1.23478 11.5 1.5 11.5C1.67563 11.5012 1.8484 11.4554 2.00046 11.3676C2.15252 11.2797 2.27836 11.1528 2.365 11H4V9.99998Z" fill="currentColor" style="fill-opacity:1"/>
<path d="M14.5 4.49998C14.3244 4.4988 14.1516 4.54452 13.9995 4.63241C13.8475 4.72031 13.7216 4.8472 13.635 4.99998H12V5.99998H13.635C13.7228 6.15184 13.8491 6.27791 14.0011 6.36552C14.1531 6.45313 14.3255 6.49919 14.5009 6.49908C14.6763 6.49897 14.8486 6.45268 15.0005 6.36488C15.1524 6.27707 15.2785 6.15084 15.3661 5.99886C15.4538 5.84689 15.4999 5.67452 15.4998 5.49909C15.4997 5.32365 15.4535 5.15133 15.3657 4.99943C15.2779 4.84753 15.1517 4.72141 14.9997 4.63374C14.8478 4.54607 14.6754 4.49994 14.5 4.49998Z" fill="currentColor" style="fill-opacity:1"/>
<path d="M12.707 2.49998L10.5 0.292931L8.29295 2.49998L10 4.20703V8.99998H11V4.20703L12.707 2.49998ZM10.5 1.70703L11.2929 2.49998L10.5 3.29293L9.70705 2.49998L10.5 1.70703Z" fill="currentColor" style="fill-opacity:1"/>
<path d="M6 11.7929V6.99998H5V11.7929L3.29295 13.5L5.5 15.707L7.70705 13.5L6 11.7929ZM4.70705 13.5L5.5 12.707L6.29295 13.5L5.5 14.2929L4.70705 13.5Z" fill="currentColor" style="fill-opacity:1"/>
<path d="M9 4.99998H4.20705L2.5 3.29293L0.292947 5.49998L2.5 7.70703L4.20705 5.99998H9V4.99998ZM2.5 6.29293L1.70705 5.49998L2.5 4.70703L3.29295 5.49998L2.5 6.29293Z" fill="currentColor" style="fill-opacity:1"/>
<path d="M6.5 1.49998C6.5 1.23476 6.39464 0.980411 6.2071 0.792874C6.01957 0.605338 5.76521 0.499981 5.5 0.499981C5.23478 0.499981 4.98043 0.605338 4.79289 0.792874C4.60535 0.980411 4.5 1.23476 4.5 1.49998C4.4988 1.67562 4.54452 1.84839 4.63241 2.00045C4.72031 2.15251 4.84721 2.27835 5 2.36498V3.99998H6V2.36498C6.15279 2.27835 6.27968 2.15251 6.36758 2.00045C6.45548 1.84839 6.50119 1.67562 6.5 1.49998Z" fill="currentColor" style="fill-opacity:1"/>
<path d="M11 13.6352V12H10V13.635C9.80935 13.745 9.66036 13.9149 9.57612 14.1183C9.49187 14.3217 9.47709 14.5472 9.53407 14.7598C9.59105 14.9725 9.71659 15.1604 9.89123 15.2944C10.0659 15.4284 10.2799 15.501 10.5 15.501C10.7201 15.501 10.9341 15.4284 11.1088 15.2944C11.2834 15.1604 11.4089 14.9725 11.4659 14.7598C11.5229 14.5472 11.5081 14.3217 11.4239 14.1183C11.3396 13.9149 11.1906 13.7453 11 13.6352Z" fill="currentColor" style="fill-opacity:1"/>
<path d="M15.707 10.5L13.5 8.29293L11.7929 9.99998H7V11H11.7929L13.5 12.707L15.707 10.5ZM13.5 9.70703L14.2929 10.5L13.5 11.2929L12.707 10.5L13.5 9.70703Z" fill="currentColor" style="fill-opacity:1"/>
</g>
</g>
<defs>
<clipPath id="clip0_0_242">
<rect width="16" height="16" fill="currentColor" style="fill-opacity:1"/>
</clipPath>
</defs>
</svg>
