<svg viewBox="0 0 16 16" fill="none" xmlns="http://www.w3.org/2000/svg">
<path d="M2 10V11H4.293L1 14.293L1.707 15L5 11.707V14H6V10H2Z" fill="currentColor" style="fill-opacity:1"/>
<path d="M7.5 14V13C8.60653 12.9986 9.67387 12.5902 10.4987 11.8525C11.3234 11.1149 11.848 10.0995 11.9724 9.00003H8C7.73487 8.99975 7.48068 8.8943 7.2932 8.70683C7.10572 8.51935 7.00028 8.26516 7 8.00003V4.02763C5.90048 4.15203 4.88516 4.67659 4.1475 5.50137C3.40984 6.32615 3.00139 7.3935 3 8.50003H2C2.00165 7.04184 2.58165 5.64386 3.61274 4.61277C4.64383 3.58167 6.04182 3.00168 7.5 3.00003C7.63261 3.00003 7.75979 3.05271 7.85355 3.14647C7.94732 3.24024 8 3.36742 8 3.50003V8.00003H12.5C12.6326 8.00003 12.7598 8.05271 12.8536 8.14647C12.9473 8.24024 13 8.36742 13 8.50003C12.9983 9.95821 12.4184 11.3562 11.3873 12.3873C10.3562 13.4184 8.95818 13.9984 7.5 14Z" fill="currentColor" style="fill-opacity:1"/>
<path d="M14.5028 7.00003H9.9975C9.86631 6.99998 9.73641 6.97407 9.61525 6.92376C9.49409 6.87346 9.38403 6.79976 9.29138 6.70688C9.19873 6.614 9.1253 6.50376 9.07531 6.38247C9.02531 6.26118 8.99972 6.13122 9 6.00003V1.50003C9.00054 1.43368 9.01418 1.36808 9.04012 1.30701C9.06607 1.24594 9.10381 1.19059 9.15119 1.14414C9.19857 1.09769 9.25466 1.06105 9.31623 1.03632C9.3778 1.01159 9.44365 0.999255 9.51 1.00003C10.9647 1.00431 12.3586 1.5841 13.3873 2.61275C14.4159 3.64139 14.9957 5.03531 15 6.49003C15.0011 6.55622 14.9891 6.62198 14.9646 6.68351C14.9402 6.74504 14.9038 6.80113 14.8576 6.84853C14.8114 6.89594 14.7563 6.93373 14.6954 6.95973C14.6345 6.98574 14.5691 6.99943 14.5028 7.00003ZM10 6.00003H13.9724C13.8575 4.9861 13.402 4.04114 12.6804 3.31959C11.9589 2.59804 11.0139 2.14257 10 2.02763V6.00003Z" fill="currentColor" style="fill-opacity:1"/>
</svg>
