<svg viewBox="0 0 16 16" fill="none" xmlns="http://www.w3.org/2000/svg">
<path id="icon" d="M13 9.00001V12.293L7.9356 7.22851C8.3003 6.72576 8.49774 6.1211 8.5 5.50001C8.50058 4.92791 8.33757 4.36758 8.03018 3.88507C7.72279 3.40257 7.28385 3.01802 6.76511 2.77677C6.24637 2.53551 5.66946 2.44761 5.10241 2.52343C4.53536 2.59926 4.00181 2.83564 3.56467 3.2047C3.12754 3.57377 2.80505 4.06013 2.63522 4.60644C2.4654 5.15275 2.45533 5.73623 2.60619 6.28808C2.75706 6.83993 3.06257 7.33713 3.4867 7.72107C3.91083 8.105 4.43591 8.35966 5 8.45501V14H6V8.45501C6.44327 8.37668 6.86302 8.19889 7.2277 7.93501L12.293 13H9V14H14V9.00001H13ZM5.5 7.50001C5.10444 7.50001 4.71776 7.38271 4.38886 7.16295C4.05996 6.94319 3.80362 6.63083 3.65224 6.26538C3.50087 5.89992 3.46126 5.49779 3.53843 5.10983C3.6156 4.72187 3.80608 4.3655 4.08579 4.0858C4.36549 3.80609 4.72186 3.61561 5.10982 3.53844C5.49778 3.46127 5.89992 3.50088 6.26537 3.65225C6.63082 3.80363 6.94318 4.05997 7.16294 4.38887C7.3827 4.71777 7.5 5.10445 7.5 5.50001C7.49941 6.03026 7.2885 6.53862 6.91356 6.91357C6.53861 7.28851 6.03025 7.49941 5.5 7.50001Z" fill="currentColor" style="fill-opacity:1"/>
</svg>
