<svg viewBox="0 0 16 16" fill="none" xmlns="http://www.w3.org/2000/svg">
<path id="icon" d="M12.8689 3.55811C11.9563 3.14069 10.987 2.83647 9.97527 2.66667C9.84793 2.88599 9.7064 3.18314 9.60733 3.41661C8.53127 3.26096 7.46293 3.26096 6.4017 3.41661C6.30265 3.18314 6.15407 2.88599 6.03379 2.66667C5.01501 2.83647 4.04574 3.14069 3.13943 3.55811C1.30702 6.26074 0.811773 8.89967 1.0594 11.5033C2.27629 12.3877 3.45075 12.9253 4.60467 13.2791C4.88767 12.8971 5.14237 12.4867 5.3617 12.0551C4.94427 11.8995 4.54807 11.7085 4.16603 11.4821C4.26508 11.4113 4.36413 11.3335 4.45611 11.2557C6.76253 12.3099 9.26073 12.3099 11.5388 11.2557C11.6379 11.3335 11.7299 11.4113 11.8289 11.4821C11.4469 11.7085 11.0507 11.8995 10.6333 12.0551C10.8526 12.4867 11.1073 12.8971 11.3903 13.2791C12.5435 12.9253 13.725 12.3877 14.9355 11.5033C15.2397 8.4894 14.4537 5.87165 12.8689 3.55811ZM5.68007 9.89727C4.98671 9.89727 4.42071 9.2676 4.42071 8.49647C4.42071 7.72527 4.97256 7.0956 5.68007 7.0956C6.38047 7.0956 6.95353 7.72527 6.9394 8.49647C6.9394 9.2676 6.38047 9.89727 5.68007 9.89727ZM10.3291 9.89727C9.63567 9.89727 9.06893 9.2676 9.06893 8.49647C9.06893 7.72527 9.62153 7.0956 10.3291 7.0956C11.0295 7.0956 11.6025 7.72527 11.5883 8.49647C11.5883 9.2676 11.0365 9.89727 10.3291 9.89727Z" fill="currentColor" style="fill-opacity:1"/>
</svg>
