<svg viewBox="0 0 16 16" fill="none" xmlns="http://www.w3.org/2000/svg">
<path d="M15 9.00001V8.00001H12V13H13V11H14.5V10H13V9.00001H15Z" fill="currentColor" style="fill-opacity:1"/>
<path d="M9.5 13H7.5V8.00001H9.5C9.89769 8.00045 10.279 8.15862 10.5602 8.43983C10.8414 8.72104 10.9996 9.10232 11 9.50001V11.5C10.9996 11.8977 10.8414 12.279 10.5602 12.5602C10.279 12.8414 9.89769 12.9996 9.5 13ZM8.5 12H9.5C9.63256 11.9999 9.75966 11.9471 9.85339 11.8534C9.94713 11.7597 9.99985 11.6326 10 11.5V9.50001C9.99985 9.36745 9.94713 9.24036 9.85339 9.14662C9.75966 9.05288 9.63256 9.00016 9.5 9.00001H8.5V12Z" fill="currentColor" style="fill-opacity:1"/>
<path d="M5.5 8.00001H3V13H4V11.5H5.5C5.76511 11.4997 6.01925 11.3942 6.20671 11.2067C6.39417 11.0193 6.49964 10.7651 6.5 10.5V9.00001C6.4997 8.73489 6.39424 8.48071 6.20677 8.29324C6.0193 8.10577 5.76512 8.00032 5.5 8.00001ZM4 10.5V9.00001H5.5L5.5005 10.5H4Z" fill="currentColor" style="fill-opacity:1"/>
<path d="M11 7.00001V5.00001C11.0018 4.9343 10.9893 4.86897 10.9634 4.80855C10.9375 4.74812 10.8988 4.69404 10.85 4.65001L7.35 1.15001C7.30599 1.10118 7.2519 1.06247 7.19147 1.03658C7.13105 1.01068 7.06572 0.998203 7 1.00001H2C1.73502 1.00079 1.48112 1.1064 1.29375 1.29376C1.10638 1.48113 1.00078 1.73503 1 2.00001V14C1 14.2652 1.10536 14.5196 1.29289 14.7071C1.48043 14.8947 1.73478 15 2 15H10V14H2V2.00001H6V5.00001C6.00078 5.26499 6.10639 5.51889 6.29375 5.70626C6.48112 5.89363 6.73502 5.99923 7 6.00001H10V7.00001H11ZM7 5.00001V2.20001L9.8 5.00001H7Z" fill="currentColor" style="fill-opacity:1"/>
</svg>
