<svg viewBox="0 0 16 16" fill="none" xmlns="http://www.w3.org/2000/svg">
<path d="M4.49995 15C4.91416 15 5.24995 14.6642 5.24995 14.25C5.24995 13.8358 4.91416 13.5 4.49995 13.5C4.08574 13.5 3.74995 13.8358 3.74995 14.25C3.74995 14.6642 4.08574 15 4.49995 15Z" fill="currentColor" style="fill-opacity:1"/>
<path d="M5 12.5H4V10.5H5C5.26522 10.5 5.51957 10.3947 5.70711 10.2071C5.89464 10.0196 6 9.76523 6 9.50001C6 9.23479 5.89464 8.98044 5.70711 8.7929C5.51957 8.60537 5.26522 8.50001 5 8.50001H4C3.73488 8.50031 3.4807 8.60577 3.29323 8.79324C3.10576 8.98071 3.0003 9.23489 3 9.50001V9.75001H2V9.50001C2.0006 8.96976 2.2115 8.4614 2.58644 8.08645C2.96139 7.71151 3.46975 7.50061 4 7.50001H5C5.53043 7.50001 6.03914 7.71072 6.41421 8.0858C6.78929 8.46087 7 8.96958 7 9.50001C7 10.0304 6.78929 10.5392 6.41421 10.9142C6.03914 11.2893 5.53043 11.5 5 11.5V12.5Z" fill="currentColor" style="fill-opacity:1"/>
<path d="M13.85 4.65001L10.35 1.15001C10.306 1.10117 10.2519 1.06246 10.1915 1.03657C10.131 1.01067 10.0657 0.998195 10 1.00001H5C4.73502 1.00078 4.48111 1.10638 4.29374 1.29375C4.10637 1.48112 4.00077 1.73503 4 2.00001V6.00001H5V2.00001H9V5.00001C9.00077 5.26499 9.10637 5.5189 9.29374 5.70627C9.48111 5.89364 9.73502 5.99924 10 6.00001H13V14H7V15H13C13.265 14.9992 13.5189 14.8936 13.7063 14.7063C13.8936 14.5189 13.9992 14.265 14 14V5.00001C14.0018 4.93429 13.9893 4.86897 13.9634 4.80855C13.9375 4.74812 13.8988 4.69403 13.85 4.65001ZM10 5.00001V2.20001L12.8 5.00001H10Z" fill="currentColor" style="fill-opacity:1"/>
</svg>
