<svg viewBox="0 0 16 16" fill="none" xmlns="http://www.w3.org/2000/svg">
<path d="M11.5 15L10.4306 14.4937C10.0035 14.2901 9.64252 13.9699 9.3894 13.5701C9.13627 13.1703 9.00129 12.7071 9 12.2339V9.00001H14V12.2339C13.9988 12.7072 13.8638 13.1704 13.6107 13.5703C13.3575 13.9701 12.9966 14.2903 12.5694 14.4939L11.5 15ZM10 10V12.2339C10.0008 12.5178 10.0818 12.7956 10.2337 13.0355C10.3856 13.2753 10.6021 13.4673 10.8584 13.5894L11.5 13.8931L12.1416 13.5894C12.3979 13.4673 12.6144 13.2753 12.7663 13.0355C12.9182 12.7956 12.9992 12.5178 13 12.2339V10H10Z" fill="currentColor" style="fill-opacity:1"/>
<path d="M8 14H3V2.00001H7V5.00001C7.00077 5.26499 7.10637 5.5189 7.29374 5.70627C7.48111 5.89364 7.73502 5.99925 8 6.00001H11V7.50001H12V5.00001C12.0018 4.9343 11.9893 4.86897 11.9634 4.80855C11.9375 4.74812 11.8988 4.69404 11.85 4.65001L8.35 1.15001C8.30599 1.10118 8.2519 1.06247 8.19147 1.03658C8.13104 1.01068 8.06572 0.998203 8 1.00001H3C2.73502 1.00078 2.48111 1.10638 2.29374 1.29375C2.10637 1.48112 2.00077 1.73503 2 2.00001V14C2.00077 14.265 2.10637 14.5189 2.29374 14.7063C2.48111 14.8936 2.73502 14.9992 3 15H8V14ZM8 2.20001L10.8 5.00001H8V2.20001Z" fill="currentColor" style="fill-opacity:1"/>
</svg>
