<svg viewBox="0 0 16 16" fill="none" xmlns="http://www.w3.org/2000/svg">
<path d="M9.1515 8.00001C8.97364 8.00001 8.79758 8.03566 8.63373 8.10486C8.46988 8.17406 8.32156 8.27541 8.19755 8.40291L8.00095 8.60561L7.80245 8.40291C7.67844 8.27541 7.53013 8.17407 7.36628 8.10487C7.20244 8.03567 7.02638 8.00002 6.84853 8.00002C6.67067 8.00002 6.49461 8.03567 6.33077 8.10487C6.16692 8.17407 6.01861 8.27541 5.8946 8.40291C5.64152 8.66401 5.49999 9.01337 5.49999 9.37701C5.49999 9.74064 5.64152 10.09 5.8946 10.3511L8.00095 12.5L10.1054 10.3511C10.3585 10.09 10.5 9.74064 10.5 9.37701C10.5 9.01337 10.3585 8.66401 10.1054 8.40291C9.98139 8.27541 9.83308 8.17407 9.66924 8.10487C9.5054 8.03567 9.32935 8.00001 9.1515 8.00001Z" fill="currentColor" style="fill-opacity:1"/>
<path d="M12.85 4.65001L9.35 1.15001C9.30601 1.10115 9.25192 1.06243 9.19149 1.03653C9.13106 1.01063 9.06572 0.998167 9 1.00001H4C3.73502 1.00078 3.48112 1.10639 3.29375 1.29376C3.10638 1.48113 3.00078 1.73503 3 2.00001V14C3.00078 14.265 3.10638 14.5189 3.29375 14.7063C3.48112 14.8936 3.73502 14.9992 4 15H12C12.265 14.9992 12.5189 14.8936 12.7062 14.7063C12.8936 14.5189 12.9992 14.265 13 14V5.00001C13.0018 4.93428 12.9894 4.86895 12.9635 4.80852C12.9376 4.74808 12.8989 4.694 12.85 4.65001ZM9 2.20001L11.8 5.00001H9V2.20001ZM12 14H4V2.00001H8V5.00001C8.00078 5.26498 8.10638 5.51888 8.29375 5.70625C8.48112 5.89362 8.73502 5.99923 9 6.00001H12V14Z" fill="currentColor" style="fill-opacity:1"/>
</svg>
