<svg viewBox="0 0 16 16" fill="none" xmlns="http://www.w3.org/2000/svg">
<path d="M14 9.49999H7.415L8.705 8.20499L8 7.49999L5.5 9.99999L8 12.5L8.705 11.795L7.415 10.5H14V9.49999Z" fill="currentColor" style="fill-opacity:1"/>
<path d="M12 6.99999V4.99999C12.0004 4.93419 11.9878 4.86896 11.9629 4.80804C11.938 4.74712 11.9013 4.69171 11.855 4.64499L8.355 1.14499C8.30828 1.09865 8.25287 1.06199 8.19195 1.03711C8.13103 1.01222 8.0658 0.999611 8 0.999992H3C2.73478 0.999992 2.48043 1.10535 2.29289 1.29288C2.10536 1.48042 2 1.73478 2 1.99999V14C2 14.2652 2.10536 14.5196 2.29289 14.7071C2.48043 14.8946 2.73478 15 3 15H11C11.2652 15 11.5196 14.8946 11.7071 14.7071C11.8946 14.5196 12 14.2652 12 14V13H11V14H3V1.99999H7V4.99999C7 5.26521 7.10536 5.51956 7.29289 5.7071C7.48043 5.89464 7.73478 5.99999 8 5.99999H11V6.99999H12ZM8 4.99999V2.20499L10.795 4.99999H8Z" fill="currentColor" style="fill-opacity:1"/>
</svg>
