<svg viewBox="0 0 16 16" fill="none" xmlns="http://www.w3.org/2000/svg">
<path d="M15 9.50001L13 11.1V10C12.9997 9.73489 12.8942 9.48071 12.7068 9.29324C12.5193 9.10577 12.2651 9.00032 12 9.00001H8C7.73488 9.00032 7.4807 9.10577 7.29323 9.29324C7.10576 9.48071 7.0003 9.73489 7 10V13C7.0003 13.2651 7.10576 13.5193 7.29323 13.7068C7.4807 13.8943 7.73488 13.9997 8 14H12C12.2651 13.9997 12.5193 13.8943 12.7068 13.7068C12.8942 13.5193 12.9997 13.2651 13 13V11.9L15 13.5V9.50001ZM8 13V10H12L12.0007 13H8Z" fill="currentColor" style="fill-opacity:1"/>
<path d="M6 14H4V2.00001H8V5.00001C8.00077 5.26499 8.10637 5.5189 8.29374 5.70627C8.48111 5.89364 8.73502 5.99925 9 6.00001H12V7.50001H13V5.00001C13.0018 4.9343 12.9893 4.86897 12.9634 4.80855C12.9375 4.74812 12.8988 4.69404 12.85 4.65001L9.35 1.15001C9.30599 1.10118 9.2519 1.06247 9.19147 1.03658C9.13104 1.01068 9.06572 0.998203 9 1.00001H4C3.73502 1.00078 3.48111 1.10638 3.29374 1.29375C3.10637 1.48112 3.00077 1.73503 3 2.00001V14C3.00077 14.265 3.10637 14.5189 3.29374 14.7063C3.48111 14.8936 3.73502 14.9992 4 15H6V14ZM9 2.20001L11.8 5.00001H9V2.20001Z" fill="currentColor" style="fill-opacity:1"/>
</svg>
