<svg viewBox="0 0 16 16" fill="none" xmlns="http://www.w3.org/2000/svg">
<path d="M14.5 15.5C14.3865 15.5 14.2764 15.4614 14.1877 15.3904L11.8247 13.5H10C9.86739 13.5 9.74021 13.4473 9.64645 13.3536C9.55268 13.2598 9.5 13.1326 9.5 13V10.5C9.5 10.3674 9.55268 10.2402 9.64645 10.1465C9.74021 10.0527 9.86739 10 10 10H11.8247L14.1877 8.10961C14.2613 8.05081 14.3499 8.01396 14.4435 8.00333C14.5371 7.99269 14.6317 8.00868 14.7166 8.04947C14.8015 8.09027 14.8731 8.15419 14.9232 8.2339C14.9734 8.31361 15 8.40585 15 8.50001V15C15 15.1326 14.9473 15.2598 14.8536 15.3536C14.7598 15.4473 14.6326 15.5 14.5 15.5ZM10.5 12.5H12C12.1135 12.5 12.2236 12.5387 12.3123 12.6096L14 13.9597V9.54031L12.3123 10.8903C12.2236 10.9613 12.1135 11 12 11H10.5V12.5Z" fill="currentColor" style="fill-opacity:1"/>
<path d="M8 14H4V2.00001H8V5.00001C8.00077 5.26499 8.10637 5.5189 8.29374 5.70627C8.48111 5.89364 8.73502 5.99925 9 6.00001H12V7.50001H13V5.00001C13.0018 4.9343 12.9893 4.86897 12.9634 4.80855C12.9375 4.74812 12.8988 4.69404 12.85 4.65001L9.35 1.15001C9.30599 1.10118 9.2519 1.06247 9.19147 1.03658C9.13104 1.01068 9.06572 0.998203 9 1.00001H4C3.73502 1.00078 3.48111 1.10638 3.29374 1.29375C3.10637 1.48112 3.00077 1.73503 3 2.00001V14C3.00077 14.265 3.10637 14.5189 3.29374 14.7063C3.48111 14.8936 3.73502 14.9992 4 15H8V14ZM9 2.20001L11.8 5.00001H9V2.20001Z" fill="currentColor" style="fill-opacity:1"/>
</svg>
