<svg viewBox="0 0 16 16" fill="none" xmlns="http://www.w3.org/2000/svg">
<path d="M2.5 12C1.67165 12 1 12.6716 1 13.5C1 14.3284 1.67165 15 2.5 15C3.32835 15 4 14.3284 4 13.5C4 12.6716 3.32835 12 2.5 12ZM2.5 14C2.2239 14 2 13.7761 2 13.5C2 13.2239 2.2239 13 2.5 13C2.7761 13 3 13.2239 3 13.5C3 13.7761 2.7761 14 2.5 14Z" fill="currentColor" style="fill-opacity:1"/>
<path d="M8 12C7.17165 12 6.5 12.6716 6.5 13.5C6.5 14.3284 7.17165 15 8 15C8.82835 15 9.5 14.3284 9.5 13.5C9.5 12.6716 8.82835 12 8 12ZM8 14C7.7239 14 7.5 13.7761 7.5 13.5C7.5 13.2239 7.7239 13 8 13C8.2761 13 8.5 13.2239 8.5 13.5C8.5 13.7761 8.2761 14 8 14Z" fill="currentColor" style="fill-opacity:1"/>
<path d="M13.5 12C12.6716 12 12 12.6716 12 13.5C12 14.3284 12.6716 15 13.5 15C14.3284 15 15 14.3284 15 13.5C15 12.6716 14.3284 12 13.5 12ZM13.5 14C13.2239 14 13 13.7761 13 13.5C13 13.2239 13.2239 13 13.5 13C13.7761 13 14 13.2239 14 13.5C14 13.7761 13.7761 14 13.5 14Z" fill="currentColor" style="fill-opacity:1"/>
<path d="M14.793 8.79295L14 9.5859V7.99995C14 6.22285 12.6677 4.7541 10.9501 4.5322C10.9812 4.35935 11 4.18185 11 3.99995C11 2.3432 9.6569 0.99995 8.00005 0.99995C6.3432 0.99995 5.00005 2.3432 5.00005 3.99995C5.00005 4.18185 5.01885 4.35935 5.05 4.5322C3.33235 4.7541 2.00005 6.22285 2.00005 7.99995V9.58565L1.2071 8.79295L0.500046 9.5L2.50005 11.5L4.50005 9.5L3.793 8.79295L3.00005 9.5859V7.99995C3.00005 6.6523 4.074 5.55755 5.4102 5.509C5.85015 6.26215 6.60745 6.8049 7.50005 6.95505V9.5859L6.7071 8.79295L6.00005 9.5L8.00005 11.5L10 9.5L9.293 8.79295L8.50005 9.5859V6.95505C9.39265 6.8049 10.1499 6.2622 10.5899 5.509C11.9261 5.5576 13 6.6523 13 7.99995V9.58565L12.2071 8.79295L11.5 9.5L13.5 11.5L15.5 9.5L14.793 8.79295ZM8.00005 6C6.89725 6 6.00005 5.1028 6.00005 4C6.00005 2.8972 6.89725 2 8.00005 2C9.10285 2 10 2.8972 10 4C10 5.1028 9.10285 6 8.00005 6Z" fill="currentColor" style="fill-opacity:1"/>
</svg>
