<svg viewBox="0 0 16 16" fill="none" xmlns="http://www.w3.org/2000/svg">
<path id="icon" d="M9.57 14C9.23052 14.0013 8.89832 13.9016 8.61571 13.7135C8.33311 13.5254 8.1129 13.2574 7.98313 12.9437C7.85336 12.63 7.8199 12.2847 7.88701 11.952C7.95413 11.6192 8.11878 11.3139 8.36 11.075L10.93 8.50001C11.0058 8.43684 11.0675 8.35857 11.1113 8.27021C11.1552 8.18184 11.1801 8.08532 11.1846 7.98678C11.189 7.88825 11.1729 7.78986 11.1372 7.6979C11.1015 7.60595 11.0471 7.52243 10.9773 7.45269C10.9076 7.38294 10.8241 7.32849 10.7321 7.29281C10.6401 7.25713 10.5418 7.241 10.4432 7.24546C10.3447 7.24991 10.2482 7.27484 10.1598 7.31867C10.0714 7.3625 9.99317 7.42426 9.93 7.50001L6.5 10.925C6.17405 11.2382 5.73954 11.4131 5.2875 11.4131C4.83546 11.4131 4.40095 11.2382 4.075 10.925C3.75502 10.6036 3.57537 10.1685 3.57537 9.71501C3.57537 9.26148 3.75502 8.82641 4.075 8.50501L8.365 4.21501C8.44075 4.15184 8.50251 4.07357 8.54634 3.98521C8.59017 3.89684 8.6151 3.80032 8.61955 3.70178C8.62401 3.60324 8.60788 3.50486 8.5722 3.4129C8.53652 3.32095 8.48207 3.23743 8.41232 3.16769C8.34258 3.09794 8.25906 3.04349 8.1671 3.00781C8.07515 2.97213 7.97676 2.956 7.87823 2.96046C7.77969 2.96491 7.68317 2.98984 7.5948 3.03367C7.50644 3.0775 7.42817 3.13926 7.365 3.21501L3.205 7.35001L2.5 6.65001L6.645 2.50001C6.9715 2.20447 7.39918 2.04585 7.83943 2.05703C8.27968 2.06821 8.69877 2.24831 9.00985 2.56004C9.32093 2.87177 9.50018 3.29122 9.51044 3.73149C9.52071 4.17177 9.36121 4.59912 9.065 4.92501L4.78 9.21001C4.6481 9.34299 4.57408 9.52271 4.57408 9.71001C4.57408 9.89731 4.6481 10.077 4.78 10.21C4.91481 10.3384 5.09384 10.41 5.28 10.41C5.46616 10.41 5.64519 10.3384 5.78 10.21L9.21 6.78001C9.36586 6.60783 9.55506 6.46909 9.76614 6.37222C9.97722 6.27535 10.2058 6.22237 10.4379 6.21647C10.6701 6.21058 10.9011 6.2519 11.1168 6.33794C11.3325 6.42397 11.5285 6.55293 11.6929 6.71698C11.8573 6.88103 11.9867 7.07677 12.0731 7.29231C12.1596 7.50786 12.2014 7.73872 12.196 7.9709C12.1906 8.20309 12.1381 8.43175 12.0416 8.64303C11.9452 8.85431 11.8069 9.0438 11.635 9.20001L9.06 11.775C8.9465 11.9111 8.888 12.0847 8.896 12.2618C8.904 12.4388 8.97792 12.6065 9.10323 12.7318C9.22854 12.8571 9.39619 12.931 9.57323 12.939C9.75027 12.947 9.9239 12.8885 10.06 12.775L12.28 10.56L13 11.28L10.78 13.5C10.6217 13.6596 10.4332 13.7861 10.2254 13.8719C10.0176 13.9578 9.79481 14.0013 9.57 14Z" fill="currentColor" style="fill-opacity:1"/>
</svg>
