<svg viewBox="0 0 16 16" fill="none" xmlns="http://www.w3.org/2000/svg">
<path d="M11 8.99997C11.5523 8.99997 12 8.55226 12 7.99997C12 7.44769 11.5523 6.99997 11 6.99997C10.4477 6.99997 10 7.44769 10 7.99997C10 8.55226 10.4477 8.99997 11 8.99997Z" fill="currentColor" style="fill-opacity:1"/>
<path d="M15 7.49997H13.955C13.8365 6.80165 13.4749 6.16771 12.9341 5.71023C12.3934 5.25274 11.7083 5.00117 11 4.99997L10.989 5.00047C10.3861 4.19504 9.55398 3.59057 8.6016 3.26631C7.64923 2.94206 6.6211 2.91315 5.65201 3.18338C4.68292 3.45361 3.81811 4.01037 3.17095 4.78065C2.52378 5.55094 2.12449 6.4988 2.0254 7.49997H1V8.49997H2.0254C2.12449 9.50114 2.52378 10.449 3.17095 11.2193C3.81811 11.9896 4.68292 12.5463 5.65201 12.8166C6.6211 13.0868 7.64923 13.0579 8.6016 12.7336C9.55398 12.4094 10.3861 11.8049 10.989 10.9995L11 11C11.7083 10.9988 12.3934 10.7472 12.9341 10.2897C13.4749 9.83223 13.8365 9.19829 13.955 8.49997H15V7.49997ZM7 3.99997C7.53588 4.00065 8.06614 4.1093 8.5591 4.31946C9.05205 4.52961 9.49761 4.83695 9.86915 5.22312C9.3968 5.41661 8.98146 5.72714 8.66226 6.12547C8.34305 6.52379 8.13048 6.99681 8.04455 7.49997H3.03465C3.15711 6.53422 3.62725 5.64616 4.3571 5.00196C5.08695 4.35776 6.02651 4.00155 7 3.99997ZM7 12C6.02651 11.9984 5.08695 11.6422 4.3571 10.998C3.62725 10.3538 3.15711 9.46573 3.03465 8.49997H8.04465C8.13058 9.00313 8.34315 9.47615 8.66236 9.87447C8.98156 10.2728 9.3969 10.5833 9.86925 10.7768C9.4977 11.163 9.05213 11.4703 8.55915 11.6805C8.06617 11.8907 7.5359 11.9993 7 12ZM11 9.99997C10.6044 9.99997 10.2178 9.88267 9.88886 9.66291C9.55996 9.44315 9.30362 9.13079 9.15224 8.76534C9.00087 8.39989 8.96126 7.99775 9.03843 7.60979C9.1156 7.22183 9.30608 6.86546 9.58579 6.58576C9.86549 6.30605 10.2219 6.11557 10.6098 6.0384C10.9978 5.96123 11.3999 6.00084 11.7654 6.15221C12.1308 6.30359 12.4432 6.55993 12.6629 6.88883C12.8827 7.21773 13 7.60441 13 7.99997C12.9994 8.53022 12.7885 9.03858 12.4136 9.41353C12.0386 9.78847 11.5303 9.99938 11 9.99997Z" fill="currentColor" style="fill-opacity:1"/>
</svg>
