<svg viewBox="0 0 16 16" fill="none" xmlns="http://www.w3.org/2000/svg">
<path d="M10 15H6V11H10V15ZM7 14H9V12H7V14Z" fill="currentColor" style="fill-opacity:1"/>
<path d="M16 5.50001H11V6.50001H13V8.00001H3V6.50001H5V5.50001H0V6.50001H2V9.00001H4.566L3 11.3485V13.5H4V11.6515L5.7675 9.00001H10.2325L12 11.6515V13.5H13V11.3485L11.434 9.00001H14V6.50001H16V5.50001Z" fill="currentColor" style="fill-opacity:1"/>
<path d="M8 3.00001C7.60606 2.99976 7.21594 3.07735 6.85207 3.2283C6.4882 3.37926 6.15773 3.60062 5.87965 3.87966L6.58645 4.58646C6.77193 4.40056 6.99225 4.25307 7.23481 4.15244C7.47737 4.05181 7.7374 4.00001 8 4.00001C8.2626 4.00001 8.52263 4.05181 8.76519 4.15244C9.00775 4.25307 9.22807 4.40056 9.41355 4.58646L10.1203 3.87966C9.84227 3.60061 9.51181 3.37925 9.14793 3.22829C8.78406 3.07734 8.39395 2.99976 8 3.00001Z" fill="currentColor" style="fill-opacity:1"/>
<path d="M4.4662 2.46606L5.17285 3.17286C5.54383 2.80107 5.98449 2.50611 6.46961 2.30486C6.95473 2.1036 7.47479 2.00001 8 2.00001C8.52521 2.00001 9.04527 2.1036 9.53039 2.30486C10.0155 2.50611 10.4562 2.80107 10.8272 3.17286L11.5339 2.46606C11.0702 2.00133 10.5194 1.63263 9.91303 1.38107C9.30663 1.1295 8.65658 1.00002 8.00008 1.00002C7.34357 1.00002 6.69352 1.1295 6.08712 1.38107C5.48073 1.63263 4.92991 2.00133 4.4662 2.46606Z" fill="currentColor" style="fill-opacity:1"/>
</svg>
