<svg viewBox="0 0 16 16" fill="none" xmlns="http://www.w3.org/2000/svg">
<path id="icon" d="M13.5 8.99999H15V7.49999C14.9994 6.96974 14.7885 6.46138 14.4136 6.08644C14.0386 5.71149 13.5303 5.50059 13 5.49999H12.5V4.74999C12.4994 4.28604 12.3149 3.84124 11.9868 3.51317C11.6588 3.1851 11.214 3.00055 10.75 2.99999C10.49 3.00133 10.2336 3.06134 10 3.17554V2.70499C10.0002 2.31219 9.8647 1.93137 9.6165 1.62692C9.3683 1.32246 9.02258 1.11305 8.6378 1.03407C8.25301 0.955098 7.85276 1.01141 7.5047 1.19348C7.15664 1.37556 6.88212 1.67223 6.72755 2.03334L5.6704 4.49999H4.5C3.8372 4.50077 3.20177 4.76442 2.7331 5.23309C2.26442 5.70176 2.00078 6.33719 2 6.99999V8.99999H4C4.6628 8.99921 5.29823 8.73557 5.7669 8.2669C6.23558 7.79823 6.49922 7.1628 6.5 6.49999V5.10254L7.6465 2.42754C7.71026 2.27802 7.82374 2.15511 7.96772 2.07965C8.1117 2.00419 8.27733 1.9808 8.43657 2.01344C8.59582 2.04608 8.73889 2.13275 8.84157 2.25878C8.94424 2.3848 9.00021 2.54244 9 2.70499V11H7.30615L5.5 12.6469L3.69385 11H1V12H3.30615L5.5 14L7.69385 12H15V11H10V4.74999C10 4.55108 10.079 4.36032 10.2197 4.21966C10.3603 4.07901 10.5511 3.99999 10.75 3.99999C10.9489 3.99999 11.1397 4.07901 11.2803 4.21966C11.421 4.36032 11.5 4.55108 11.5 4.74999V6.99999C11.5006 7.53024 11.7115 8.03861 12.0864 8.41355C12.4614 8.78849 12.9697 8.9994 13.5 8.99999ZM12.5 6.49999H13C13.2651 6.5003 13.5193 6.60575 13.7068 6.79322C13.8942 6.98069 13.9997 7.23487 14 7.49999V7.99999H13.5C13.2349 7.99969 12.9807 7.89423 12.7932 7.70676C12.6058 7.51929 12.5003 7.26512 12.5 6.99999V6.49999ZM5.5 6.49999C5.49956 6.89768 5.34139 7.27896 5.06018 7.56017C4.77897 7.84138 4.39769 7.99956 4 7.99999H3V6.99999C3.00044 6.6023 3.15861 6.22103 3.43982 5.93982C3.72103 5.65861 4.10231 5.50043 4.5 5.49999H5.5V6.49999Z" fill="currentColor" style="fill-opacity:1"/>
</svg>
