<svg viewBox="0 0 16 16" fill="none" xmlns="http://www.w3.org/2000/svg">
<path id="icon" d="M15 8.00002C15.0034 6.45804 14.4987 4.95789 13.5639 3.73154C12.6292 2.5052 11.3164 1.62097 9.82867 1.21561C8.34092 0.81025 6.76106 0.906329 5.3334 1.48899C3.90574 2.07165 2.7098 3.10844 1.93054 4.43902C1.15127 5.76961 0.832076 7.31987 1.02232 8.85007C1.21256 10.3803 1.90165 11.8052 2.98301 12.9044C4.06437 14.0037 5.47777 14.7161 7.00464 14.9314C8.53152 15.1467 10.0868 14.853 11.43 14.0957L11.4883 14.1084L11.5007 14.0528C12.5634 13.4392 13.4461 12.557 14.0602 11.4946C14.6744 10.4323 14.9985 9.22713 15 8.00002ZM2 8.00002C2.00194 7.49367 2.06831 6.98962 2.1975 6.50002H4.3191L6.815 8.58002L5.8604 9.85297C5.71684 10.0459 5.64724 10.2839 5.66426 10.5237C5.68128 10.7636 5.78379 10.9894 5.95315 11.1601L7 12.2071V13.9097C5.6034 13.6727 4.33557 12.9495 3.4206 11.8681C2.50563 10.7867 2.00245 9.41658 2 8.00002ZM6.66 10.4531L8.185 8.42002L4.6809 5.50002H2.55275C2.91754 4.69985 3.45429 3.98996 4.12477 3.42093C4.79525 2.85189 5.58296 2.43771 6.43179 2.20789C7.28063 1.97807 8.16971 1.93825 9.03569 2.09129C9.90167 2.24432 10.7232 2.58644 11.4419 3.09327L11.1397 4.00002H8.29295L6.7715 5.52152L11.4483 9.67822L10.624 13.3875C9.80767 13.7896 8.91 13.9991 8 14V11.793L6.66 10.4531ZM11.8175 12.6253L12.4242 9.89527C12.4627 9.72141 12.4541 9.54041 12.3993 9.37097C12.3445 9.20153 12.2455 9.04979 12.1124 8.93142L8.2285 5.47852L8.70705 5.00002H11.1397C11.3496 5.00017 11.5542 4.93419 11.7246 4.81143C11.8949 4.68867 12.0222 4.51539 12.0884 4.31617L12.265 3.78617C12.8513 4.37778 13.3077 5.08517 13.6052 5.86316C13.9026 6.64115 14.0345 7.47262 13.9924 8.30446C13.9503 9.1363 13.7351 9.95021 13.3607 10.6942C12.9862 11.4382 12.4605 12.0959 11.8175 12.6253Z" fill="currentColor" style="fill-opacity:1"/>
</svg>
