<svg viewBox="0 0 16 16" fill="none" xmlns="http://www.w3.org/2000/svg">
<path id="icon" d="M8 1C6.61553 1 5.26215 1.41054 4.111 2.17971C2.95986 2.94888 2.06265 4.04213 1.53284 5.32122C1.00303 6.6003 0.864403 8.00776 1.1345 9.36563C1.4046 10.7235 2.07128 11.9708 3.05025 12.9497C4.02922 13.9287 5.2765 14.5954 6.63436 14.8655C7.99223 15.1356 9.3997 14.997 10.6788 14.4672C11.9579 13.9373 13.0511 13.0401 13.8203 11.889C14.5895 10.7378 15 9.38447 15 8C14.9979 6.14413 14.2597 4.36486 12.9474 3.05256C11.6351 1.74026 9.85587 1.00209 8 1ZM2 8C2.00084 7.04914 2.22802 6.11214 2.66274 5.26647C3.09746 4.4208 3.72723 3.69075 4.5 3.1367V4.5C4.5 4.63261 4.55268 4.75979 4.64644 4.85355C4.74021 4.94732 4.86739 5 5 5H6.69105C6.78389 4.99999 6.87489 4.97414 6.95387 4.92533C7.03284 4.87652 7.09667 4.80669 7.1382 4.72365L7.5 4H9.5V7H6.61805C6.54041 6.99999 6.46384 7.01805 6.3944 7.05275L4.77635 7.8618C4.69329 7.90334 4.62344 7.96719 4.57463 8.04619C4.52582 8.1252 4.49998 8.21623 4.5 8.3091V10.1614C4.49998 10.2614 4.52992 10.359 4.58595 10.4418C4.64198 10.5246 4.72154 10.5886 4.81435 10.6257L7 11.5L7.41175 13.97C5.93031 13.8223 4.55646 13.1299 3.55657 12.0268C2.55668 10.9238 2.00197 9.48878 2 8ZM11 13.188V11.5L11.8773 10.1841C11.9159 10.1261 11.942 10.0607 11.9539 9.99204C11.9658 9.92339 11.9633 9.85301 11.9464 9.7854L11.5 8V6.5H13.8025C14.1376 7.76779 14.0445 9.11077 13.5377 10.3202C13.0309 11.5296 12.1388 12.5378 11 13.188Z" fill="currentColor" style="fill-opacity:1"/>
</svg>
