<svg viewBox="0 0 16 16" fill="none" xmlns="http://www.w3.org/2000/svg">
<path id="icon" d="M8 1C6.61553 1 5.26215 1.41054 4.111 2.17971C2.95986 2.94888 2.06265 4.04213 1.53284 5.32122C1.00303 6.6003 0.864403 8.00776 1.1345 9.36563C1.4046 10.7235 2.07128 11.9708 3.05025 12.9497C4.02922 13.9287 5.2765 14.5954 6.63436 14.8655C7.99223 15.1356 9.3997 14.997 10.6788 14.4672C11.9579 13.9373 13.0511 13.0401 13.8203 11.889C14.5895 10.7378 15 9.38447 15 8C14.9979 6.14413 14.2597 4.36486 12.9474 3.05256C11.6351 1.74026 9.85587 1.00209 8 1ZM2.01 8.197L2.6792 8.4199L3.5 9.65135V10.2929C3.5 10.4255 3.55268 10.5527 3.64645 10.6465L5 12V13.1882C4.11898 12.6784 3.38224 11.9527 2.85915 11.0795C2.33605 10.2063 2.04383 9.21433 2.01 8.197ZM8 14C7.56748 13.9992 7.13633 13.9514 6.7141 13.8576L7 13L7.9023 10.7442C7.93242 10.6689 7.94378 10.5874 7.93538 10.5067C7.92698 10.4261 7.89909 10.3486 7.8541 10.2811L7.14845 9.22265C7.10278 9.15416 7.04092 9.098 6.96834 9.05916C6.89576 9.02032 6.81472 9 6.7324 9H4.2674L3.6433 8.0637L4.70705 7H5.5V8H6.5V6.6328L8.4341 3.24805L7.5659 2.75195L7.13845 3.5H5.7676L5.2246 2.68555C5.95356 2.30084 6.75471 2.0723 7.57694 2.01452C8.39916 1.95675 9.2244 2.071 10 2.35V4C10 4.13261 10.0527 4.25979 10.1464 4.35355C10.2402 4.44732 10.3674 4.5 10.5 4.5H11.2324C11.3147 4.5 11.3958 4.47968 11.4683 4.44084C11.5409 4.402 11.6028 4.34584 11.6484 4.27735L12.0869 3.61965C12.6581 4.15221 13.1201 4.79087 13.4472 5.5H11.41C11.2944 5.5 11.1824 5.54005 11.093 5.61333C11.0036 5.68661 10.9424 5.7886 10.9197 5.90195L10.5586 8.13735C10.5417 8.24249 10.5587 8.3503 10.6073 8.44509C10.6558 8.53987 10.7334 8.61667 10.8286 8.6643L12.5 9.5L12.8425 11.5279C12.2876 12.2927 11.5596 12.9154 10.7179 13.3451C9.87631 13.7747 8.94496 13.9991 8 14Z" fill="currentColor" style="fill-opacity:1"/>
</svg>
