<svg viewBox="0 0 16 16" fill="none" xmlns="http://www.w3.org/2000/svg">
<path d="M9.5 11H8.5V12H9.5V11Z" fill="currentColor" style="fill-opacity:1"/>
<path d="M9.5 9H8.5V10H9.5V9Z" fill="currentColor" style="fill-opacity:1"/>
<path d="M8.5 12H7V13H8.5V12Z" fill="currentColor" style="fill-opacity:1"/>
<path d="M8 1C6.61553 1 5.26215 1.41054 4.111 2.17971C2.95986 2.94888 2.06265 4.04213 1.53284 5.32122C1.00303 6.6003 0.864403 8.00776 1.1345 9.36563C1.4046 10.7235 2.07128 11.9708 3.05025 12.9497C4.02922 13.9287 5.2765 14.5954 6.63436 14.8655C7.99223 15.1356 9.3997 14.997 10.6788 14.4672C11.9579 13.9373 13.0511 13.0401 13.8203 11.889C14.5895 10.7378 15 9.38447 15 8C14.9979 6.14413 14.2597 4.36486 12.9474 3.05256C11.6351 1.74026 9.85587 1.00209 8 1ZM2.35 10H3L5.0886 11.3C5.19884 11.3686 5.33144 11.3916 5.45834 11.3642C5.58525 11.3368 5.69651 11.261 5.7686 11.1531L6.2725 10.3972C6.3366 10.301 6.3654 10.1856 6.354 10.0706C6.34261 9.95554 6.29172 9.84803 6.21 9.7663L5 8.5559L5.5 7H8.1615C8.26142 7.00001 8.35905 6.97008 8.4418 6.91408C8.52455 6.85808 8.58862 6.77856 8.62575 6.6858L9.41665 4.7085C9.4429 4.64292 9.45495 4.57253 9.45202 4.50195C9.44909 4.43138 9.43124 4.36223 9.39965 4.29905L8.25645 2.01295C9.28728 2.05417 10.2899 2.36126 11.167 2.90439C12.0442 3.44753 12.7659 4.20825 13.2622 5.11268C13.7585 6.01711 14.0125 7.03451 13.9995 8.06609C13.9865 9.09766 13.707 10.1084 13.1881 11H11.5C11.3674 11 11.2402 11.0527 11.1464 11.1464C11.0527 11.2402 11 11.3674 11 11.5V13.1882C10.2388 13.6314 9.38909 13.9009 8.51163 13.9774C7.63417 14.054 6.75063 13.9357 5.92419 13.6311C5.09775 13.3265 4.34882 12.8431 3.73094 12.2153C3.11307 11.5876 2.64151 10.8312 2.35 10Z" fill="currentColor" style="fill-opacity:1"/>
</svg>
