<svg viewBox="0 0 16 16" fill="none" xmlns="http://www.w3.org/2000/svg">
<path d="M8.5 12H7V13H8.5V12Z" fill="currentColor" style="fill-opacity:1"/>
<path d="M9.5 11H8.5V12H9.5V11Z" fill="currentColor" style="fill-opacity:1"/>
<path d="M9.5 9H8.5V10H9.5V9Z" fill="currentColor" style="fill-opacity:1"/>
<path d="M8 1C6.61553 1 5.26215 1.41054 4.111 2.17971C2.95986 2.94888 2.06265 4.04213 1.53284 5.32122C1.00303 6.6003 0.864403 8.00776 1.1345 9.36563C1.4046 10.7235 2.07128 11.9708 3.05025 12.9497C4.02922 13.9287 5.2765 14.5954 6.63436 14.8655C7.99223 15.1356 9.3997 14.997 10.6788 14.4672C11.9579 13.9373 13.0511 13.0401 13.8203 11.889C14.5895 10.7378 15 9.38447 15 8C14.9979 6.14413 14.2597 4.36486 12.9474 3.05256C11.6351 1.74026 9.85587 1.00209 8 1ZM7.6985 2.015L8.95215 4.5228L8.1614 6.5H5.1355L4.4305 8.6936L5.85655 10.1196L5.3528 10.8755L3.1428 9.5H2.1975C1.97019 8.63871 1.93856 7.73746 2.10494 6.86235C2.27132 5.98725 2.63148 5.16048 3.159 4.4427C3.68652 3.72492 4.36803 3.13433 5.15354 2.71424C5.93904 2.29416 6.80862 2.05523 7.6985 2.015ZM2.55275 10.5H2.8572L4.82445 11.7243C5.04472 11.8628 5.31044 11.9095 5.56471 11.8545C5.81899 11.7995 6.04164 11.6471 6.185 11.43L6.6889 10.6741C6.81663 10.4816 6.87396 10.2509 6.85118 10.021C6.82841 9.79108 6.72692 9.5761 6.5639 9.4124L5.56955 8.418L5.8645 7.5H8.1614C8.36143 7.50066 8.55701 7.44104 8.72266 7.3289C8.8883 7.21676 9.01631 7.05731 9.09 6.87135L9.8806 4.895C9.93311 4.76382 9.95726 4.62302 9.95145 4.48184C9.94564 4.34066 9.91001 4.20232 9.8469 4.0759L8.84215 2.06615C9.7675 2.19453 10.6499 2.53795 11.4186 3.06886C12.1873 3.59978 12.8209 4.30341 13.2686 5.12336C13.7163 5.94331 13.9657 6.85676 13.9967 7.79046C14.0277 8.72416 13.8395 9.65214 13.4472 10.5H11.5C11.2349 10.5003 10.9807 10.6058 10.7932 10.7932C10.6058 10.9807 10.5003 11.2349 10.5 11.5V13.4473C9.78508 13.7782 9.01175 13.9645 8.22454 13.9954C7.43733 14.0263 6.65178 13.9012 5.91312 13.6272C5.17447 13.3533 4.49729 12.936 3.92057 12.3993C3.34385 11.8626 2.87899 11.2171 2.55275 10.5ZM11.5 12.8633V11.5H12.8634C12.4849 12.0245 12.0246 12.4848 11.5 12.8633Z" fill="currentColor" style="fill-opacity:1"/>
</svg>
