<svg viewBox="0 0 16 16" fill="none" xmlns="http://www.w3.org/2000/svg">
<path d="M14 15H11V13C11.0003 12.7349 11.1057 12.4807 11.2932 12.2932C11.4807 12.1057 11.7349 12.0003 12 12H13V11H11V10H13C13.2651 10.0003 13.5193 10.1058 13.7068 10.2932C13.8942 10.4807 13.9997 10.7349 14 11V12C13.9997 12.2651 13.8942 12.5193 13.7068 12.7068C13.5193 12.8942 13.2651 12.9997 13 13H12V14H14V15Z" fill="currentColor" style="fill-opacity:1"/>
<path d="M14 8H15C15 6.14348 14.2625 4.36301 12.9497 3.05025C11.637 1.7375 9.85651 1 8 1V2C9.5913 2 11.1174 2.63214 12.2426 3.75736C13.3679 4.88258 14 6.4087 14 8Z" fill="currentColor" style="fill-opacity:1"/>
<path d="M13 8C13 6.67392 12.4732 5.40215 11.5355 4.46447C10.5979 3.52678 9.32608 3 8 3V8H13Z" fill="currentColor" style="fill-opacity:1"/>
<path d="M8 14C6.91284 14.0022 5.84566 13.7079 4.91322 13.1489C3.98079 12.5899 3.21838 11.7873 2.708 10.8274C2.6748 10.7639 2.6415 10.7007 2.61035 10.6353C2.583 10.5791 2.55735 10.5217 2.53175 10.4646C2.3296 9.99508 2.18302 9.50355 2.095 9L1.11115 9.20655C1.16867 9.5261 1.24848 9.84124 1.35 10.1496L1.33745 10.1538C1.7903 11.5639 2.67989 12.7934 3.87758 13.6646C5.07527 14.5357 6.51899 15.0034 8 15V14Z" fill="currentColor" style="fill-opacity:1"/>
<path d="M2.79565 5L1.93 4.5C1.52635 5.2114 1.2492 5.98744 1.1109 6.7936L2.09475 6.96705C2.21311 6.27583 2.45025 5.61032 2.79565 5Z" fill="currentColor" style="fill-opacity:1"/>
<path d="M5.9082 2.3823L5.5664 1.4435C4.80368 1.72553 4.09605 2.13853 3.47535 2.6639L4.1179 3.42965C4.64918 2.97902 5.25504 2.62459 5.9082 2.3823Z" fill="currentColor" style="fill-opacity:1"/>
</svg>
