<svg viewBox="0 0 16 16" fill="none" xmlns="http://www.w3.org/2000/svg">
<path d="M5.90821 2.38232L5.56641 1.44352C4.80369 1.72555 4.09606 2.13855 3.47536 2.66392L4.11791 3.42967C4.64919 2.97904 5.25505 2.62461 5.90821 2.38232Z" fill="currentColor" style="fill-opacity:1"/>
<path d="M2.79565 5L1.93 4.5C1.52635 5.2114 1.2492 5.98744 1.1109 6.7936L2.09475 6.96705C2.21311 6.27583 2.45025 5.61032 2.79565 5Z" fill="currentColor" style="fill-opacity:1"/>
<path d="M8 13C9.32608 13 10.5979 12.4732 11.5355 11.5355C12.4732 10.5979 13 9.32608 13 8C13 6.67392 12.4732 5.40215 11.5355 4.46447C10.5979 3.52678 9.32608 3 8 3V13Z" fill="currentColor" style="fill-opacity:1"/>
<path d="M15 8C15 6.14348 14.2625 4.36301 12.9498 3.05025C11.637 1.7375 9.85652 1 8.00001 1V2C9.41282 1.99922 10.7805 2.49731 11.862 3.40642C12.9435 4.31554 13.6692 5.5773 13.9113 6.96923C14.1533 8.36116 13.8962 9.79385 13.1851 11.0147C12.4741 12.2355 11.3548 13.1661 10.0247 13.6424C9.94056 13.6723 9.85766 13.7071 9.77246 13.7334C9.64686 13.772 9.51746 13.8015 9.38831 13.8321C9.32521 13.8471 9.26331 13.8667 9.19971 13.8797C9.05431 13.9092 8.90551 13.9285 8.75661 13.9473C8.70661 13.9534 8.65746 13.9643 8.60721 13.9692C7.42318 14.0896 6.23012 13.8551 5.17969 13.2957C4.12926 12.7362 3.26891 11.8771 2.70801 10.8274C2.67481 10.7639 2.64151 10.7007 2.61036 10.6353C2.58301 10.5791 2.55736 10.5217 2.53176 10.4646C2.32961 9.99508 2.18303 9.50355 2.09501 9L1.11116 9.20655C1.16867 9.5261 1.24848 9.84124 1.35001 10.1496L1.33746 10.1538C1.79031 11.5639 2.67989 12.7934 3.87758 13.6646C5.07527 14.5357 6.519 15.0034 8.00001 15C8.23781 15 8.47364 14.9881 8.70751 14.9643C8.77501 14.9575 8.84021 14.9433 8.90726 14.9344C9.07156 14.9131 9.23596 14.8924 9.39796 14.8596C9.48796 14.8413 9.57461 14.8142 9.66336 14.7928C9.79761 14.7598 9.93251 14.7302 10.0647 14.6895C10.1879 14.6514 10.3063 14.6033 10.4264 14.5589C10.5164 14.5257 10.6082 14.4984 10.697 14.4613L10.6966 14.46C11.9711 13.9278 13.0598 13.0305 13.8256 11.881C14.5913 10.7315 15 9.38121 15 8Z" fill="currentColor" style="fill-opacity:1"/>
</svg>
