<svg viewBox="0 0 16 16" fill="none" xmlns="http://www.w3.org/2000/svg">
<path d="M14.6182 6.50325C15.1273 5.99675 15.1273 5.23701 14.6182 4.73052L12.3273 2.4513C11.8182 1.94481 11.0545 1.94481 10.5455 2.4513L1 11.9481V16H5.07273L14.6182 6.50325ZM11.4364 3.33766L13.7273 5.61688L11.8182 7.51623L9.52727 5.23701L11.4364 3.33766ZM2.27273 14.7338V12.4545L8.63636 6.12338L10.9273 8.4026L4.56364 14.7338H2.27273Z" fill="currentColor" style="fill-opacity:1"/>
<path d="M2.4 7.10714L2.07692 6.35714L1.75385 7.10714L1 7.42857L1.75385 7.75L2.07692 8.5L2.4 7.75L3.15385 7.42857L2.4 7.10714Z" fill="currentColor" style="fill-opacity:1"/>
<path d="M12.7923 12.8393L12.3077 11.7143L11.8231 12.8393L10.6923 13.3214L11.8231 13.8036L12.3077 14.9286L12.7923 13.8036L13.9231 13.3214L12.7923 12.8393Z" fill="currentColor" style="fill-opacity:1"/>
<path d="M4.87692 2.5L4.23077 1L3.58462 2.5L2.07692 3.14286L3.58462 3.78571L4.23077 5.28571L4.87692 3.78571L6.38462 3.14286L4.87692 2.5Z" fill="currentColor" style="fill-opacity:1"/>
</svg>
