<svg viewBox="0 0 16 16" fill="none" xmlns="http://www.w3.org/2000/svg">
<path d="M9.7664 8.03455C9.7664 7.553 10.205 7.3123 10.6607 7.3123C11.185 7.3123 11.3998 7.6389 11.3998 8.27515V11H12.5V8.1634C12.5 7.0458 11.9843 6.4098 11.0644 6.4098C10.3683 6.4098 9.99 6.77955 9.8096 7.26085H9.76645V6.513H8.66615V11H9.76645L9.7664 8.03455Z" fill="currentColor" style="fill-opacity:1"/>
<path d="M7.454 9.99415H4.63465V8.4641H7.1274V7.4585H4.63465V6.00585H7.454V5H3.5V11H7.454V9.99415Z" fill="currentColor" style="fill-opacity:1"/>
<path d="M10.5 15H5.5C3.0187 15 1 12.9813 1 10.5V5.5C1 3.0187 3.0187 1 5.5 1H10.5C12.9813 1 15 3.0187 15 5.5V10.5C15 12.9813 12.9813 15 10.5 15ZM5.5 2C3.57005 2 2 3.57005 2 5.5V10.5C2 12.4299 3.57005 14 5.5 14H10.5C12.4299 14 14 12.4299 14 10.5V5.5C14 3.57005 12.4299 2 10.5 2H5.5Z" fill="currentColor" style="fill-opacity:1"/>
</svg>
