<svg viewBox="0 0 16 16" fill="none" xmlns="http://www.w3.org/2000/svg">
<path d="M9.7664 8.03455C9.7664 7.553 10.205 7.3123 10.6607 7.3123C11.185 7.3123 11.3998 7.6389 11.3998 8.27515V11H12.5V8.1634C12.5 7.0458 11.9843 6.4098 11.0644 6.4098C10.3683 6.4098 9.99 6.77955 9.8096 7.26085H9.76645V6.513H8.66615V11H9.76645L9.7664 8.03455Z" fill="currentColor" style="fill-opacity:1"/>
<path d="M7.454 9.99415H4.63465V8.4641H7.1274V7.4585H4.63465V6.00585H7.454V5H3.5V11H7.454V9.99415Z" fill="currentColor" style="fill-opacity:1"/>
<path d="M1 2V14C1 14.5523 1.4477 15 2 15H14C14.5523 15 15 14.5523 15 14V2C15 1.4477 14.5523 1 14 1H2C1.4477 1 1 1.4477 1 2ZM14 14H2V2H14V14Z" fill="currentColor" style="fill-opacity:1"/>
</svg>
