<svg viewBox="0 0 16 16" fill="none" xmlns="http://www.w3.org/2000/svg">
<path d="M15 13.5H3.49999V14.5H15V13.5Z" fill="currentColor" style="fill-opacity:1"/>
<path d="M13.69 5.255L9.72499 1.295C9.63212 1.20203 9.52183 1.12827 9.40043 1.07794C9.27903 1.02762 9.14891 1.00172 9.01749 1.00172C8.88608 1.00172 8.75595 1.02762 8.63455 1.07794C8.51315 1.12827 8.40286 1.20203 8.30999 1.295L1.30999 8.295C1.21701 8.38788 1.14325 8.49817 1.09293 8.61956C1.04261 8.74096 1.0167 8.87109 1.0167 9.0025C1.0167 9.13392 1.04261 9.26405 1.09293 9.38544C1.14325 9.50684 1.21701 9.61713 1.30999 9.71L3.56499 12H8.35999L13.69 6.67C13.783 6.57713 13.8567 6.46684 13.9071 6.34544C13.9574 6.22405 13.9833 6.09392 13.9833 5.9625C13.9833 5.83109 13.9574 5.70096 13.9071 5.57956C13.8567 5.45817 13.783 5.34788 13.69 5.255ZM7.94499 11H3.99999L1.99999 9L5.15499 5.845L9.11999 9.805L7.94499 11ZM9.82499 9.12L5.86499 5.155L8.99999 2L13 5.965L9.82499 9.12Z" fill="currentColor" style="fill-opacity:1"/>
</svg>
