<svg viewBox="0 0 16 16" fill="none" xmlns="http://www.w3.org/2000/svg">
<path d="M5.27773 4.5L4.50005 5.27768L10.7224 11.5L11.5001 10.7223L5.27773 4.5Z" fill="currentColor" style="fill-opacity:1"/>
<path d="M7.99999 0.999988C7.07914 0.994265 6.16631 1.17142 5.31445 1.52117C4.46258 1.87093 3.68864 2.38633 3.03748 3.03748C2.38633 3.68864 1.87093 4.46258 1.52117 5.31445C1.17142 6.16631 0.994265 7.07914 0.999988 7.99999C0.994265 8.92084 1.17142 9.83367 1.52117 10.6855C1.87093 11.5374 2.38633 12.3113 3.03748 12.9625C3.68864 13.6136 4.46258 14.129 5.31445 14.4788C6.16631 14.8286 7.07914 15.0057 7.99999 15C8.92084 15.0057 9.83367 14.8286 10.6855 14.4788C11.5374 14.129 12.3113 13.6136 12.9625 12.9625C13.6136 12.3113 14.129 11.5374 14.4788 10.6855C14.8286 9.83367 15.0057 8.92084 15 7.99999C15.0057 7.07914 14.8286 6.16631 14.4788 5.31445C14.129 4.46258 13.6136 3.68864 12.9625 3.03748C12.3113 2.38633 11.5374 1.87093 10.6855 1.52117C9.83367 1.17142 8.92084 0.994265 7.99999 0.999988ZM7.99999 14C6.8133 14 5.65326 13.6481 4.66657 12.9888C3.67987 12.3295 2.91084 11.3924 2.45671 10.2961C2.00258 9.19973 1.88376 7.99333 2.11528 6.82945C2.34679 5.66556 2.91823 4.59646 3.75735 3.75735C4.59646 2.91823 5.66556 2.34679 6.82945 2.11528C7.99333 1.88376 9.19973 2.00258 10.2961 2.45671C11.3924 2.91084 12.3295 3.67987 12.9888 4.66657C13.6481 5.65326 14 6.8133 14 7.99999C13.9953 9.58985 13.3617 11.1133 12.2375 12.2375C11.1133 13.3617 9.58985 13.9953 7.99999 14Z" fill="currentColor" style="fill-opacity:1"/>
</svg>
