<svg viewBox="0 0 16 16" fill="none" xmlns="http://www.w3.org/2000/svg">
<path id="icon" d="M7.99999 0.999988C7.07914 0.994279 6.16632 1.17144 5.31446 1.5212C4.46261 1.87096 3.68866 2.38636 3.03751 3.03751C2.38636 3.68866 1.87096 4.46261 1.5212 5.31446C1.17144 6.16632 0.994279 7.07914 0.999988 7.99999C0.994279 8.92084 1.17144 9.83365 1.5212 10.6855C1.87096 11.5374 2.38636 12.3113 3.03751 12.9625C3.68866 13.6136 4.46261 14.129 5.31446 14.4788C6.16632 14.8285 7.07914 15.0057 7.99999 15C8.92084 15.0057 9.83365 14.8285 10.6855 14.4788C11.5374 14.129 12.3113 13.6136 12.9625 12.9625C13.6136 12.3113 14.129 11.5374 14.4788 10.6855C14.8285 9.83365 15.0057 8.92084 15 7.99999C15.0057 7.07914 14.8285 6.16632 14.4788 5.31446C14.129 4.46261 13.6136 3.68866 12.9625 3.03751C12.3113 2.38636 11.5374 1.87096 10.6855 1.5212C9.83365 1.17144 8.92084 0.994279 7.99999 0.999988ZM10.7224 11.5L4.49999 5.27784L5.27784 4.49999L11.5 10.7224L10.7224 11.5Z" fill="currentColor" style="fill-opacity:1"/>
</svg>
