<svg viewBox="0 0 16 16" fill="none" xmlns="http://www.w3.org/2000/svg">
<path d="M13.6901 14H10.3089L12 10.6179L13.6901 14ZM12 9C11.8042 9 11.6347 9.11255 11.5526 9.27635L9.05265 14.2764C9.01895 14.3438 9 14.4197 9 14.5C9 14.7761 9.22385 15 9.5 15H14.5C14.7761 15 15 14.7761 15 14.5C15 14.4309 14.986 14.3652 14.9607 14.3054L12.4472 9.27635C12.3652 9.11255 12.1957 9 12 9Z" fill="currentColor" style="fill-opacity:1"/>
<path d="M8 11.5C7.5858 11.5 7.25 11.8358 7.25 12.25C7.25 12.6642 7.5858 13 8 13C8.4142 13 8.75 12.6642 8.75 12.25C8.75 11.8358 8.4142 11.5 8 11.5Z" fill="currentColor" style="fill-opacity:1"/>
<path d="M8.5 6H7.5V10.5H8.5V6Z" fill="currentColor" style="fill-opacity:1"/>
<path d="M7.5 15H1.5C1.3253 15 1.1632 14.9088 1.07265 14.7594C0.98195 14.6101 0.97585 14.4243 1.0564 14.2694L7.5564 1.76935C7.64245 1.6038 7.82125 1.5 8 1.5C8.17875 1.5 8.35755 1.6038 8.4436 1.76935L11.4436 7.5386L10.5564 7.9999L8 3.0838L2.3236 14H7.5V15Z" fill="currentColor" style="fill-opacity:1"/>
</svg>
