<svg viewBox="0 0 16 16" fill="none" xmlns="http://www.w3.org/2000/svg">
<path d="M9.5 7.5H8.5V11H9.5V7.5Z" fill="currentColor" style="fill-opacity:1"/>
<path d="M9 13.125C9.34518 13.125 9.625 12.8452 9.625 12.5C9.625 12.1548 9.34518 11.875 9 11.875C8.65482 11.875 8.375 12.1548 8.375 12.5C8.375 12.8452 8.65482 13.125 9 13.125Z" fill="currentColor" style="fill-opacity:1"/>
<path d="M14.5 15H3.5C3.32505 15 3.16285 14.9086 3.07225 14.7589C2.98165 14.6092 2.97595 14.4229 3.0571 14.268L8.55715 3.768C8.64345 3.6032 8.82175 3.5 9 3.5C9.17825 3.5 9.35655 3.6032 9.44285 3.768L14.9428 14.268C15.024 14.4229 15.0183 14.6092 14.9277 14.7589C14.8371 14.9086 14.6749 15 14.5 15ZM4.3263 14H13.6737L9 5.0776L4.3263 14Z" fill="currentColor" style="fill-opacity:1"/>
<path d="M3.5 11.5H1.5C1.32665 11.5 1.16575 11.4103 1.0747 11.2629C0.983504 11.1155 0.975354 10.9314 1.05275 10.7764L2.30275 8.2764L3.1973 8.72365L2.309 10.5H3.50005L3.5 11.5Z" fill="currentColor" style="fill-opacity:1"/>
<path d="M4.05277 4.77635L2.80276 7.27636L3.69727 7.72362L4.94728 5.22361L4.05277 4.77635Z" fill="currentColor" style="fill-opacity:1"/>
<path d="M5.44725 4.22365L4.5527 3.7764L5.8027 1.2764C5.8874 1.10705 6.0687 1.00005 6.24995 1.00005C6.4312 1.00005 6.6125 1.10705 6.6972 1.2764L7.6972 3.2764L6.80265 3.72365L6.2499 2.61805L5.44725 4.22365Z" fill="currentColor" style="fill-opacity:1"/>
</svg>
