<svg viewBox="0 0 16 16" fill="none" xmlns="http://www.w3.org/2000/svg">
<path d="M10.5088 13.3609L11.008 14.227L12.4969 13.3661V15H13.4953V13.3658L15.0008 14.2364L15.5 13.3701L13.9949 12.4998L15.4951 11.6323L14.9959 10.7661L13.4953 11.6339V10H12.4969V11.6336L10.9992 10.7676L10.5 11.6338L11.9977 12.4998L10.5088 13.3609Z" fill="currentColor" style="fill-opacity:1"/>
<path d="M8 11.5C7.5858 11.5 7.25 11.8358 7.25 12.25C7.25 12.6642 7.5858 13 8 13C8.4142 13 8.75 12.6642 8.75 12.25C8.75 11.8358 8.4142 11.5 8 11.5Z" fill="currentColor" style="fill-opacity:1"/>
<path d="M8.5 6H7.5V10.5H8.5V6Z" fill="currentColor" style="fill-opacity:1"/>
<path d="M9 15H1.5C1.3253 15 1.1632 14.9088 1.07265 14.7594C0.981951 14.6101 0.975851 14.4243 1.0564 14.2694L7.5564 1.76935C7.64245 1.6038 7.82125 1.5 8 1.5C8.17875 1.5 8.35755 1.6038 8.4436 1.76935L11.8236 8.26935L10.9364 8.73065L8 3.08375L2.3236 14H9V15Z" fill="currentColor" style="fill-opacity:1"/>
</svg>
