<svg viewBox="0 0 16 16" fill="none" xmlns="http://www.w3.org/2000/svg">
<path d="M11.3535 4.64655C11.2879 4.58083 11.2052 4.53471 11.1148 4.51336C11.0244 4.49202 10.9299 4.49629 10.8418 4.5257L6.3418 6.0257C6.2682 6.05028 6.20132 6.09164 6.14646 6.14651C6.09159 6.20138 6.05023 6.26825 6.02565 6.34185L4.52565 10.8418C4.49625 10.93 4.49197 11.0245 4.5133 11.1149C4.53463 11.2053 4.58071 11.288 4.64639 11.3537C4.71206 11.4193 4.79474 11.4654 4.88514 11.4867C4.97554 11.5081 5.07009 11.5038 5.1582 11.4744L9.6582 9.9744C9.73179 9.9498 9.79867 9.90843 9.85353 9.85355C9.9084 9.79868 9.94976 9.7318 9.97435 9.6582L11.4743 5.1582C11.5037 5.0701 11.5079 4.97558 11.4866 4.88521C11.4653 4.79484 11.4192 4.7122 11.3535 4.64655ZM5.79055 10.2095L6.89525 6.8953L9.105 9.105L5.79055 10.2095Z" fill="currentColor" style="fill-opacity:1"/>
<path d="M8 15C6.61553 15 5.26215 14.5895 4.111 13.8203C2.95986 13.0511 2.06265 11.9579 1.53284 10.6788C1.00303 9.3997 0.864403 7.99223 1.1345 6.63436C1.4046 5.2765 2.07128 4.02922 3.05025 3.05025C4.02922 2.07128 5.2765 1.4046 6.63436 1.1345C7.99223 0.864403 9.3997 1.00303 10.6788 1.53284C11.9579 2.06265 13.0511 2.95986 13.8203 4.111C14.5895 5.26215 15 6.61553 15 8C14.9979 9.85587 14.2597 11.6351 12.9474 12.9474C11.6351 14.2597 9.85587 14.9979 8 15ZM8 2C6.81331 2 5.65327 2.35189 4.66658 3.01118C3.67988 3.67047 2.91085 4.60754 2.45672 5.7039C2.00259 6.80025 1.88377 8.00665 2.11529 9.17054C2.3468 10.3344 2.91824 11.4035 3.75736 12.2426C4.59647 13.0818 5.66557 13.6532 6.82946 13.8847C7.99334 14.1162 9.19974 13.9974 10.2961 13.5433C11.3925 13.0891 12.3295 12.3201 12.9888 11.3334C13.6481 10.3467 14 9.18668 14 8C13.9982 6.40925 13.3655 4.88418 12.2406 3.75936C11.1158 2.63453 9.59074 2.00181 8 2Z" fill="currentColor" style="fill-opacity:1"/>
</svg>
