<svg viewBox="0 0 16 16" fill="none" xmlns="http://www.w3.org/2000/svg">
<path d="M2.5 13.5H1V15H2.5V13.5Z" fill="currentColor" style="fill-opacity:1"/>
<path d="M14.855 3.64497L12.355 1.14497C12.2613 1.05184 12.1346 0.999573 12.0025 0.999573C11.8704 0.999573 11.7437 1.05184 11.65 1.14497L10 2.79497L9.355 2.14497L8.645 2.85497L9.295 3.49997L4.145 8.64497C4.09866 8.69169 4.062 8.7471 4.03711 8.80802C4.01223 8.86893 3.99962 8.93417 4 8.99997V9.79497L2.645 11.145C2.55187 11.2387 2.4996 11.3654 2.4996 11.4975C2.4996 11.6296 2.55187 11.7563 2.645 11.85L4.145 13.35C4.23868 13.4431 4.36541 13.4954 4.4975 13.4954C4.62959 13.4954 4.75632 13.4431 4.85 13.35L6.205 12H7C7.0658 12.0004 7.13103 11.9877 7.19195 11.9629C7.25287 11.938 7.30828 11.9013 7.355 11.855L12.5 6.70497L13.145 7.35497L13.855 6.64497L13.205 5.99997L14.855 4.35497C14.9481 4.26129 15.0004 4.13456 15.0004 4.00247C15.0004 3.87038 14.9481 3.74365 14.855 3.64997V3.64497ZM6.795 11H5.795L4.5 12.295L3.705 11.5L5 10.205V9.20497L10 4.20497L11.795 5.99997L6.795 11ZM12.5 5.29497L10.705 3.49997L12 2.20497L13.795 3.99997L12.5 5.29497Z" fill="currentColor" style="fill-opacity:1"/>
</svg>
