<svg viewBox="0 0 16 16" fill="none" xmlns="http://www.w3.org/2000/svg">
<path d="M15 2H13V0H12V2H10V3H12V5H13V3H15V2Z" fill="currentColor" style="fill-opacity:1"/>
<path d="M5.75 5.5C5.50277 5.5 5.2611 5.57331 5.05553 5.71066C4.84997 5.84801 4.68976 6.04324 4.59515 6.27165C4.50054 6.50005 4.47578 6.75139 4.52402 6.99386C4.57225 7.23634 4.6913 7.45907 4.86611 7.63388C5.04093 7.8087 5.26366 7.92775 5.50613 7.97598C5.74861 8.02421 5.99994 7.99946 6.22835 7.90485C6.45676 7.81024 6.65198 7.65002 6.78933 7.44446C6.92669 7.2389 7 6.99723 7 6.75C7.00133 6.58548 6.96991 6.42233 6.90756 6.27007C6.84521 6.11782 6.75319 5.97949 6.63685 5.86315C6.52051 5.74681 6.38218 5.65478 6.22992 5.59244C6.07766 5.53009 5.91452 5.49867 5.75 5.5Z" fill="currentColor" style="fill-opacity:1"/>
<path d="M10.25 5.5C10.0028 5.5 9.7611 5.57331 9.55553 5.71066C9.34997 5.84801 9.18976 6.04324 9.09515 6.27165C9.00054 6.50005 8.97578 6.75139 9.02401 6.99386C9.07225 7.23634 9.1913 7.45907 9.36611 7.63388C9.54093 7.8087 9.76366 7.92775 10.0061 7.97598C10.2486 8.02421 10.4999 7.99946 10.7284 7.90485C10.9568 7.81024 11.152 7.65002 11.2893 7.44446C11.4267 7.2389 11.5 6.99723 11.5 6.75C11.5013 6.58548 11.4699 6.42233 11.4076 6.27007C11.3452 6.11782 11.2532 5.97949 11.1368 5.86315C11.0205 5.74681 10.8822 5.65478 10.7299 5.59244C10.5777 5.53009 10.4145 5.49867 10.25 5.5Z" fill="currentColor" style="fill-opacity:1"/>
<path d="M4.5 10C4.85942 10.6085 5.37126 11.1127 5.98503 11.463C6.5988 11.8133 7.2933 11.9976 8 11.9976C8.7067 11.9976 9.40119 11.8133 10.015 11.463C10.6287 11.1127 11.1406 10.6085 11.5 10H4.5Z" fill="currentColor" style="fill-opacity:1"/>
<path d="M13.91 7C14.115 8.21256 13.9424 9.45882 13.4156 10.5701C12.8889 11.6813 12.0334 12.6038 10.9649 13.2128C9.89653 13.8217 8.6668 14.0877 7.44225 13.9746C6.21769 13.8615 5.05746 13.3749 4.11861 12.5806C3.17977 11.7863 2.50766 10.7227 2.19328 9.53383C1.87891 8.34493 1.93745 7.08814 2.36097 5.93361C2.7845 4.77908 3.55256 3.78257 4.56117 3.07899C5.56979 2.37542 6.77023 1.99875 8 2V1C6.61553 1 5.26215 1.41054 4.111 2.17971C2.95986 2.94888 2.06265 4.04213 1.53284 5.32122C1.00303 6.6003 0.864403 8.00776 1.1345 9.36563C1.4046 10.7235 2.07128 11.9708 3.05025 12.9497C4.02922 13.9287 5.2765 14.5954 6.63436 14.8655C7.99223 15.1356 9.3997 14.997 10.6788 14.4672C11.9579 13.9373 13.0511 13.0401 13.8203 11.889C14.5895 10.7378 15 9.38447 15 8C14.9961 7.66523 14.9694 7.33112 14.92 7H13.91Z" fill="currentColor" style="fill-opacity:1"/>
</svg>
