<svg viewBox="0 0 16 16" fill="none" xmlns="http://www.w3.org/2000/svg">
<path d="M8.00001 11C7.48204 10.9992 6.9731 10.8643 6.52273 10.6085C6.07236 10.3526 5.6959 9.98452 5.43001 9.54L4.57501 10.04C4.93098 10.63 5.43335 11.1181 6.03342 11.4569C6.63349 11.7957 7.31091 11.9738 8.00001 11.9738C8.68912 11.9738 9.36654 11.7957 9.96661 11.4569C10.5667 11.1181 11.069 10.63 11.425 10.04L10.57 9.54C10.3041 9.98452 9.92767 10.3526 9.4773 10.6085C9.02693 10.8643 8.51798 10.9992 8.00001 11Z" fill="currentColor" style="fill-opacity:1"/>
<path d="M15 2H13V0H12V2H10V3H12V5H13V3H15V2Z" fill="currentColor" style="fill-opacity:1"/>
<path d="M5.75001 5.5C5.50279 5.5 5.26111 5.57331 5.05555 5.71066C4.84999 5.84801 4.68977 6.04324 4.59516 6.27165C4.50055 6.50005 4.4758 6.75139 4.52403 6.99386C4.57226 7.23634 4.69131 7.45907 4.86613 7.63388C5.04095 7.8087 5.26367 7.92775 5.50615 7.97598C5.74863 8.02421 5.99996 7.99946 6.22837 7.90485C6.45678 7.81024 6.652 7.65002 6.78935 7.44446C6.9267 7.2389 7.00001 6.99723 7.00001 6.75C7.00135 6.58548 6.96992 6.42233 6.90758 6.27007C6.84523 6.11782 6.75321 5.97949 6.63687 5.86315C6.52053 5.74681 6.3822 5.65478 6.22994 5.59244C6.07768 5.53009 5.91454 5.49867 5.75001 5.5Z" fill="currentColor" style="fill-opacity:1"/>
<path d="M10.25 5.5C10.0028 5.5 9.76111 5.57331 9.55555 5.71066C9.34999 5.84801 9.18977 6.04324 9.09516 6.27165C9.00055 6.50005 8.9758 6.75139 9.02403 6.99386C9.07226 7.23634 9.19131 7.45907 9.36613 7.63388C9.54095 7.8087 9.76367 7.92775 10.0061 7.97598C10.2486 8.02421 10.5 7.99946 10.7284 7.90485C10.9568 7.81024 11.152 7.65002 11.2894 7.44446C11.4267 7.2389 11.5 6.99723 11.5 6.75C11.5013 6.58548 11.4699 6.42233 11.4076 6.27007C11.3452 6.11782 11.2532 5.97949 11.1369 5.86315C11.0205 5.74681 10.8822 5.65478 10.7299 5.59244C10.5777 5.53009 10.4145 5.49867 10.25 5.5Z" fill="currentColor" style="fill-opacity:1"/>
<path d="M13.805 6.5C13.9313 6.9901 13.9968 7.49389 14 8C14 9.18669 13.6481 10.3467 12.9888 11.3334C12.3295 12.3201 11.3925 13.0892 10.2961 13.5433C9.19976 13.9974 7.99336 14.1162 6.82947 13.8847C5.66559 13.6532 4.59649 13.0818 3.75737 12.2426C2.91826 11.4035 2.34681 10.3344 2.1153 9.17054C1.88379 8.00666 2.00261 6.80026 2.45674 5.7039C2.91086 4.60754 3.6799 3.67047 4.66659 3.01118C5.65329 2.35189 6.81333 2 8.00001 2V1C6.551 0.999504 5.13755 1.44869 3.95465 2.28559C2.77176 3.12249 1.87774 4.30585 1.39592 5.67242C0.914109 7.03898 0.868255 8.52138 1.26469 9.91511C1.66112 11.3088 2.48029 12.5452 3.6092 13.4536C4.7381 14.362 6.1211 14.8977 7.56737 14.9868C9.01364 15.0758 10.4519 14.7139 11.6837 13.9508C12.9156 13.1878 13.8803 12.0613 14.4447 10.7267C15.0091 9.39218 15.1455 7.91535 14.835 6.5H13.805Z" fill="currentColor" style="fill-opacity:1"/>
</svg>
