<svg viewBox="0 0 16 16" fill="none" xmlns="http://www.w3.org/2000/svg">
<path d="M5.75001 5.49999C5.50278 5.49999 5.26111 5.5733 5.05555 5.71065C4.84999 5.848 4.68977 6.04323 4.59516 6.27163C4.50055 6.50004 4.4758 6.75138 4.52403 6.99385C4.57226 7.23633 4.69131 7.45906 4.86613 7.63387C5.04094 7.80869 5.26367 7.92774 5.50615 7.97597C5.74862 8.0242 5.99996 7.99945 6.22836 7.90484C6.45677 7.81023 6.652 7.65001 6.78935 7.44445C6.9267 7.23889 7.00001 6.99722 7.00001 6.74999C7.00001 6.41847 6.86831 6.10053 6.63389 5.86611C6.39947 5.63169 6.08153 5.49999 5.75001 5.49999Z" fill="currentColor" style="fill-opacity:1"/>
<path d="M10.25 5.49999C10.0028 5.49999 9.76111 5.5733 9.55555 5.71065C9.34999 5.848 9.18977 6.04323 9.09516 6.27163C9.00055 6.50004 8.9758 6.75138 9.02403 6.99385C9.07226 7.23633 9.19131 7.45906 9.36613 7.63387C9.54094 7.80869 9.76367 7.92774 10.0061 7.97597C10.2486 8.0242 10.5 7.99945 10.7284 7.90484C10.9568 7.81023 11.152 7.65001 11.2893 7.44445C11.4267 7.23889 11.5 6.99722 11.5 6.74999C11.5 6.41847 11.3683 6.10053 11.1339 5.86611C10.8995 5.63169 10.5815 5.49999 10.25 5.49999Z" fill="currentColor" style="fill-opacity:1"/>
<path d="M15 7.99999C15.0021 6.7732 14.6817 5.56741 14.071 4.50343C13.4603 3.43946 12.5807 2.55467 11.5203 1.93772C10.4599 1.32077 9.25605 0.993324 8.02926 0.988199C6.80248 0.983073 5.5959 1.30045 4.53041 1.90851C3.46492 2.51658 2.57795 3.39399 1.95837 4.45283C1.33878 5.51166 1.00835 6.71474 1.00018 7.9415C0.992002 9.16826 1.30637 10.3756 1.91179 11.4426C2.51721 12.5096 3.39242 13.3988 4.44971 14.021L4.45751 14.0991C4.48133 14.3462 4.59652 14.5755 4.78054 14.7422C4.96456 14.9088 5.20416 15.0007 5.45241 15H10.5474C10.7956 15.0008 11.0352 14.9089 11.2192 14.7424C11.4032 14.5759 11.5185 14.3466 11.5424 14.0996L11.5502 14.021C12.6001 13.4051 13.4707 12.5254 14.0759 11.4693C14.681 10.4132 14.9996 9.2172 15 7.99999ZM8.00001 1.99999C9.53819 2.00067 11.0173 2.59257 12.1313 3.65324C13.2453 4.71391 13.9089 6.16219 13.985 7.69849L11.3819 8.99999H4.61816L2.01526 7.69849C2.09133 6.16223 2.75498 4.71399 3.86892 3.65332C4.98286 2.59266 6.46187 2.00074 8.00001 1.99999ZM2.06001 8.83884L4.03001 9.82384L4.32066 12.7288C3.08986 11.7755 2.27895 10.3802 2.06001 8.83884ZM10.5474 14H5.45266L5.05266 9.99999H10.9477L10.5474 14ZM11.6796 12.729L11.9701 9.82399L13.9401 8.83899C13.7211 10.3803 12.9103 11.7756 11.6796 12.729Z" fill="currentColor" style="fill-opacity:1"/>
</svg>
