<svg viewBox="0 0 16 16" fill="none" xmlns="http://www.w3.org/2000/svg">
<path id="icon" d="M8 1C6.61553 1 5.26215 1.41054 4.111 2.17971C2.95986 2.94888 2.06265 4.04213 1.53284 5.32122C1.00303 6.6003 0.864403 8.00776 1.1345 9.36563C1.4046 10.7235 2.07128 11.9708 3.05025 12.9497C4.02922 13.9287 5.2765 14.5954 6.63436 14.8655C7.99223 15.1356 9.3997 14.997 10.6788 14.4672C11.9579 13.9373 13.0511 13.0401 13.8203 11.889C14.5895 10.7378 15 9.38447 15 8C15 6.14348 14.2625 4.36301 12.9497 3.05025C11.637 1.7375 9.85651 1 8 1ZM4.5 8.205L3.795 7.5L4.795 6.5L3.795 5.5L4.5 4.795L5.5 5.795L6.5 4.795L7.205 5.5L6.205 6.5L7.205 7.5L6.5 8.205L5.5 7.205L4.5 8.205ZM8 12.5C7.70333 12.5 7.41332 12.412 7.16664 12.2472C6.91997 12.0824 6.72771 11.8481 6.61418 11.574C6.50065 11.2999 6.47094 10.9983 6.52882 10.7074C6.5867 10.4164 6.72956 10.1491 6.93934 9.93934C7.14912 9.72956 7.41639 9.5867 7.70736 9.52882C7.99833 9.47094 8.29993 9.50065 8.57402 9.61418C8.84811 9.72771 9.08238 9.91997 9.2472 10.1666C9.41202 10.4133 9.5 10.7033 9.5 11C9.5 11.3978 9.34196 11.7794 9.06066 12.0607C8.77935 12.342 8.39782 12.5 8 12.5ZM12.205 7.5L11.5 8.205L10.5 7.205L9.5 8.205L8.795 7.5L9.795 6.5L8.795 5.5L9.5 4.795L10.5 5.795L11.5 4.795L12.205 5.5L11.205 6.5L12.205 7.5Z" fill="currentColor" style="fill-opacity:1"/>
</svg>
