<svg viewBox="0 0 16 16" fill="none" xmlns="http://www.w3.org/2000/svg">
<path d="M8 1C6.61553 1 5.26215 1.41054 4.111 2.17971C2.95986 2.94888 2.06265 4.04213 1.53284 5.32122C1.00303 6.6003 0.864403 8.00776 1.1345 9.36563C1.4046 10.7235 2.07128 11.9708 3.05025 12.9497C4.02922 13.9287 5.2765 14.5954 6.63436 14.8655C7.99223 15.1356 9.3997 14.997 10.6788 14.4672C11.9579 13.9373 13.0511 13.0401 13.8203 11.889C14.5895 10.7378 15 9.38447 15 8C15 6.14348 14.2625 4.36301 12.9497 3.05025C11.637 1.7375 9.85651 1 8 1ZM8 14C6.81331 14 5.65327 13.6481 4.66658 12.9888C3.67988 12.3295 2.91085 11.3925 2.45672 10.2961C2.00259 9.19974 1.88377 7.99334 2.11529 6.82946C2.3468 5.66557 2.91824 4.59647 3.75736 3.75736C4.59647 2.91824 5.66557 2.3468 6.82946 2.11529C7.99334 1.88378 9.19974 2.0026 10.2961 2.45672C11.3925 2.91085 12.3295 3.67988 12.9888 4.66658C13.6481 5.65327 14 6.81331 14 8C14 9.5913 13.3679 11.1174 12.2426 12.2426C11.1174 13.3679 9.5913 14 8 14Z" fill="currentColor" style="fill-opacity:1"/>
<path d="M5.75 5.5C5.50277 5.5 5.2611 5.57331 5.05553 5.71066C4.84997 5.84801 4.68976 6.04324 4.59515 6.27165C4.50054 6.50005 4.47578 6.75139 4.52402 6.99386C4.57225 7.23634 4.6913 7.45907 4.86611 7.63388C5.04093 7.8087 5.26366 7.92775 5.50613 7.97598C5.74861 8.02421 5.99994 7.99946 6.22835 7.90485C6.45676 7.81024 6.65198 7.65002 6.78933 7.44446C6.92669 7.2389 7 6.99723 7 6.75C7 6.41848 6.8683 6.10054 6.63388 5.86612C6.39946 5.6317 6.08152 5.5 5.75 5.5Z" fill="currentColor" style="fill-opacity:1"/>
<path d="M10.25 5.5C10.0028 5.5 9.7611 5.57331 9.55553 5.71066C9.34997 5.84801 9.18976 6.04324 9.09515 6.27165C9.00054 6.50005 8.97578 6.75139 9.02401 6.99386C9.07225 7.23634 9.1913 7.45907 9.36611 7.63388C9.54093 7.8087 9.76366 7.92775 10.0061 7.97598C10.2486 8.02421 10.4999 7.99946 10.7284 7.90485C10.9568 7.81024 11.152 7.65002 11.2893 7.44446C11.4267 7.2389 11.5 6.99723 11.5 6.75C11.5 6.41848 11.3683 6.10054 11.1339 5.86612C10.8995 5.6317 10.5815 5.5 10.25 5.5Z" fill="currentColor" style="fill-opacity:1"/>
<path d="M8 9.5C7.30981 9.50117 6.63167 9.6809 6.03151 10.0217C5.43134 10.3625 4.92958 10.8529 4.575 11.445L5.43 11.945C5.69683 11.5019 6.07369 11.1353 6.52399 10.8808C6.9743 10.6263 7.48276 10.4926 8 10.4926C8.51724 10.4926 9.02569 10.6263 9.476 10.8808C9.92631 11.1353 10.3032 11.5019 10.57 11.945L11.425 11.445C11.0704 10.8529 10.5686 10.3625 9.96849 10.0217C9.36832 9.6809 8.69018 9.50117 8 9.5Z" fill="currentColor" style="fill-opacity:1"/>
</svg>
