<svg viewBox="0 0 16 16" fill="none" xmlns="http://www.w3.org/2000/svg">
<path d="M8 1C6.61553 1 5.26215 1.41054 4.111 2.17971C2.95986 2.94888 2.06265 4.04213 1.53284 5.32122C1.00303 6.6003 0.864403 8.00776 1.1345 9.36563C1.4046 10.7235 2.07128 11.9708 3.05025 12.9497C4.02922 13.9287 5.2765 14.5954 6.63436 14.8655C7.99223 15.1356 9.3997 14.997 10.6788 14.4672C11.9579 13.9373 13.0511 13.0401 13.8203 11.889C14.5895 10.7378 15 9.38447 15 8C15 6.14348 14.2625 4.36301 12.9497 3.05025C11.637 1.7375 9.85651 1 8 1ZM8 14C6.81331 14 5.65327 13.6481 4.66658 12.9888C3.67988 12.3295 2.91085 11.3925 2.45672 10.2961C2.00259 9.19974 1.88377 7.99334 2.11529 6.82946C2.3468 5.66557 2.91824 4.59647 3.75736 3.75736C4.59647 2.91824 5.66557 2.3468 6.82946 2.11529C7.99334 1.88378 9.19974 2.0026 10.2961 2.45672C11.3925 2.91085 12.3295 3.67988 12.9888 4.66658C13.6481 5.65327 14 6.81331 14 8C14 9.5913 13.3679 11.1174 12.2426 12.2426C11.1174 13.3679 9.5913 14 8 14Z" fill="currentColor" style="fill-opacity:1"/>
<path d="M12.205 5.5L11.5 4.795L10.5 5.795L9.5 4.795L8.795 5.5L9.795 6.5L8.795 7.5L9.5 8.205L10.5 7.205L11.5 8.205L12.205 7.5L11.205 6.5L12.205 5.5Z" fill="currentColor" style="fill-opacity:1"/>
<path d="M7.205 5.5L6.5 4.795L5.5 5.795L4.5 4.795L3.795 5.5L4.795 6.5L3.795 7.5L4.5 8.205L5.5 7.205L6.5 8.205L7.205 7.5L6.205 6.5L7.205 5.5Z" fill="currentColor" style="fill-opacity:1"/>
<path d="M8 9.5C7.70332 9.5 7.41331 9.58797 7.16664 9.7528C6.91997 9.91762 6.72771 10.1519 6.61418 10.426C6.50065 10.7001 6.47094 11.0017 6.52882 11.2926C6.5867 11.5836 6.72956 11.8509 6.93934 12.0607C7.14911 12.2704 7.41639 12.4133 7.70736 12.4712C7.99833 12.5291 8.29993 12.4994 8.57402 12.3858C8.84811 12.2723 9.08238 12.08 9.2472 11.8334C9.41202 11.5867 9.5 11.2967 9.5 11C9.5 10.6022 9.34196 10.2206 9.06066 9.93934C8.77935 9.65804 8.39782 9.5 8 9.5Z" fill="currentColor" style="fill-opacity:1"/>
</svg>
