<svg viewBox="0 0 16 16" fill="none" xmlns="http://www.w3.org/2000/svg">
<path id="icon" d="M8 1C6.61553 1 5.26215 1.41054 4.111 2.17971C2.95986 2.94888 2.06265 4.04213 1.53284 5.32122C1.00303 6.6003 0.864403 8.00776 1.1345 9.36563C1.4046 10.7235 2.07128 11.9708 3.05025 12.9497C4.02922 13.9287 5.2765 14.5954 6.63436 14.8655C7.99223 15.1356 9.3997 14.997 10.6788 14.4672C11.9579 13.9373 13.0511 13.0401 13.8203 11.889C14.5895 10.7378 15 9.38447 15 8C15 6.14348 14.2625 4.36301 12.9497 3.05025C11.637 1.7375 9.85651 1 8 1ZM5.75 5.5C5.99722 5.5 6.2389 5.57331 6.44446 5.71066C6.65002 5.84801 6.81024 6.04324 6.90485 6.27165C6.99946 6.50005 7.02421 6.75139 6.97598 6.99386C6.92775 7.23634 6.8087 7.45907 6.63388 7.63388C6.45906 7.8087 6.23634 7.92775 5.99386 7.97598C5.75138 8.02421 5.50005 7.99946 5.27164 7.90485C5.04323 7.81024 4.84801 7.65002 4.71066 7.44446C4.57331 7.2389 4.5 6.99723 4.5 6.75C4.49861 6.58377 4.53066 6.41895 4.59424 6.26535C4.65783 6.11175 4.75165 5.97251 4.87013 5.85589C4.98861 5.73928 5.12932 5.64768 5.28391 5.58654C5.4385 5.5254 5.60381 5.49597 5.77 5.5H5.75ZM10.57 11.96C10.3032 11.5169 9.92631 11.1503 9.476 10.8958C9.02569 10.6413 8.51724 10.5076 8 10.5076C7.48276 10.5076 6.9743 10.6413 6.52399 10.8958C6.07369 11.1503 5.69683 11.5169 5.43 11.96L4.575 11.46C4.93096 10.87 5.43333 10.3819 6.0334 10.0431C6.63347 9.70427 7.31089 9.52625 8 9.52625C8.6891 9.52625 9.36652 9.70427 9.96659 10.0431C10.5667 10.3819 11.069 10.87 11.425 11.46L10.57 11.96ZM10.25 8C9.91848 8 9.60053 7.8683 9.36611 7.63388C9.13169 7.39946 9 7.08152 9 6.75C9 6.41848 9.13169 6.10054 9.36611 5.86612C9.60053 5.6317 9.91848 5.5 10.25 5.5C10.5815 5.5 10.8995 5.6317 11.1339 5.86612C11.3683 6.10054 11.5 6.41848 11.5 6.75C11.5 7.08152 11.3683 7.39946 11.1339 7.63388C10.8995 7.8683 10.5815 8 10.25 8Z" fill="currentColor" style="fill-opacity:1"/>
</svg>
