<svg viewBox="0 0 16 16" fill="none" xmlns="http://www.w3.org/2000/svg">
<path id="icon" d="M8 1C6.61553 1 5.26215 1.41054 4.111 2.17971C2.95986 2.94888 2.06265 4.04213 1.53284 5.32122C1.00303 6.6003 0.864403 8.00776 1.1345 9.36563C1.4046 10.7235 2.07128 11.9708 3.05025 12.9497C4.02922 13.9287 5.2765 14.5954 6.63436 14.8655C7.99223 15.1356 9.3997 14.997 10.6788 14.4672C11.9579 13.9373 13.0511 13.0401 13.8203 11.889C14.5895 10.7378 15 9.38447 15 8C15 6.14348 14.2625 4.36301 12.9497 3.05025C11.637 1.7375 9.85651 1 8 1ZM5.75 8C5.50277 8 5.2611 7.92669 5.05553 7.78934C4.84997 7.65199 4.68976 7.45676 4.59515 7.22835C4.50054 6.99995 4.47578 6.74861 4.52402 6.50614C4.57225 6.26366 4.6913 6.04093 4.86611 5.86612C5.04093 5.6913 5.26366 5.57225 5.50613 5.52402C5.74861 5.47579 5.99994 5.50054 6.22835 5.59515C6.45676 5.68976 6.65198 5.84998 6.78933 6.05554C6.92669 6.2611 7 6.50277 7 6.75C7.00133 6.91452 6.96991 7.07767 6.90756 7.22993C6.84521 7.38218 6.75319 7.52051 6.63685 7.63685C6.52051 7.75319 6.38218 7.84522 6.22992 7.90756C6.07766 7.96991 5.91452 8.00133 5.75 8ZM10.25 8C10.0028 8 9.7611 7.92669 9.55553 7.78934C9.34997 7.65199 9.18976 7.45676 9.09515 7.22835C9.00054 6.99995 8.97578 6.74861 9.02401 6.50614C9.07225 6.26366 9.1913 6.04093 9.36611 5.86612C9.54093 5.6913 9.76366 5.57225 10.0061 5.52402C10.2486 5.47579 10.4999 5.50054 10.7284 5.59515C10.9568 5.68976 11.152 5.84998 11.2893 6.05554C11.4267 6.2611 11.5 6.50277 11.5 6.75C11.5013 6.91452 11.4699 7.07767 11.4076 7.22993C11.3452 7.38218 11.2532 7.52051 11.1368 7.63685C11.0205 7.75319 10.8822 7.84522 10.7299 7.90756C10.5777 7.96991 10.4145 8.00133 10.25 8Z" fill="currentColor" style="fill-opacity:1"/>
</svg>
