<svg viewBox="0 0 16 16" fill="none" xmlns="http://www.w3.org/2000/svg">
<path d="M4.12 12.57L3.5 13.335C4.11929 13.8617 4.82686 14.2747 5.59 14.555L5.935 13.62C5.27306 13.3792 4.65868 13.0238 4.12 12.57Z" fill="currentColor" style="fill-opacity:1"/>
<path d="M2.095 9L1.095 9.205C1.2376 10.0128 1.52018 10.7894 1.93 11.5L2.795 11C2.44899 10.3783 2.21222 9.7018 2.095 9Z" fill="currentColor" style="fill-opacity:1"/>
<path d="M5.91 2.38L5.565 1.445C4.81068 1.7279 4.11177 2.14082 3.5 2.665L4.12 3.43C4.65115 2.97869 5.25687 2.62337 5.91 2.38Z" fill="currentColor" style="fill-opacity:1"/>
<path d="M2.795 5L1.93 4.5C1.52797 5.21272 1.25065 5.98889 1.11 6.795L2.11 6.965C2.22263 6.27523 2.45442 5.61031 2.795 5Z" fill="currentColor" style="fill-opacity:1"/>
<path d="M8 1V2C9.5913 2 11.1174 2.63214 12.2426 3.75736C13.3679 4.88258 14 6.4087 14 8C14 9.5913 13.3679 11.1174 12.2426 12.2426C11.1174 13.3679 9.5913 14 8 14V15C9.85651 15 11.637 14.2625 12.9497 12.9497C14.2625 11.637 15 9.85652 15 8C15 6.14348 14.2625 4.36301 12.9497 3.05025C11.637 1.7375 9.85651 1 8 1Z" fill="currentColor" style="fill-opacity:1"/>
</svg>
