<svg viewBox="0 0 16 16" fill="none" xmlns="http://www.w3.org/2000/svg">
<path id="icon" d="M2.10499 8.53076L7.99999 14.5L13.895 8.53076C14.6032 7.80817 14.9999 6.83673 14.9999 5.82496C14.9999 4.81319 14.6032 3.84174 13.895 3.11916C13.5463 2.76473 13.1305 2.48325 12.672 2.29111C12.2134 2.09897 11.7212 2.00001 11.224 2.00001C10.7268 2.00001 10.2345 2.09897 9.77596 2.29111C9.31739 2.48325 8.90164 2.76473 8.55294 3.11916L7.99999 3.68216L7.44689 3.11916C7.09819 2.76473 6.68245 2.48325 6.22387 2.29111C5.7653 2.09897 5.27307 2.00001 4.77587 2.00001C4.27867 2.00001 3.78644 2.09897 3.32786 2.29111C2.86929 2.48325 2.45354 2.76473 2.10484 3.11916C1.39666 3.84176 1.00002 4.81322 1.00005 5.82499C1.00007 6.83676 1.39677 7.80819 2.10499 8.53076ZM13.1776 7.82251L7.99999 13.0628V5.11501C8.42359 4.68581 8.84714 4.25677 9.27064 3.82791C9.52553 3.56845 9.82954 3.36237 10.1649 3.22169C10.5003 3.08102 10.8604 3.00856 11.2241 3.00856C11.5878 3.00856 11.9479 3.08102 12.2833 3.22169C12.6187 3.36237 12.9227 3.56845 13.1776 3.82791C13.7002 4.36136 13.9929 5.07841 13.9929 5.82521C13.9929 6.57201 13.7002 7.28906 13.1776 7.82251Z" fill="currentColor" style="fill-opacity:1"/>
</svg>
