<svg viewBox="0 0 16 16" fill="none" xmlns="http://www.w3.org/2000/svg">
<path id="icon" d="M11.225 3C11.589 2.99969 11.9495 3.07206 12.2852 3.21287C12.6209 3.35368 12.9251 3.56009 13.18 3.82C13.7052 4.35319 13.9996 5.07158 13.9996 5.82C13.9996 6.56842 13.7052 7.28681 13.18 7.82L7.99999 13.065L2.81999 7.82C2.29478 7.28681 2.00038 6.56842 2.00038 5.82C2.00038 5.07158 2.29478 4.35319 2.81999 3.82C3.07504 3.56027 3.37928 3.35397 3.71495 3.21314C4.05061 3.07232 4.41098 2.99978 4.77499 2.99978C5.139 2.99978 5.49937 3.07232 5.83503 3.21314C6.1707 3.35397 6.47494 3.56027 6.72999 3.82L7.99999 5.12L9.26499 3.83C9.51911 3.56699 9.82366 3.35793 10.1604 3.21532C10.4972 3.07271 10.8593 2.99947 11.225 3ZM11.225 2C10.7278 1.99958 10.2355 2.09843 9.77705 2.29075C9.31856 2.48307 8.90309 2.765 8.55499 3.12L7.99999 3.68L7.44499 3.12C7.09646 2.76564 6.68089 2.4842 6.22248 2.29209C5.76408 2.09998 5.27202 2.00105 4.77499 2.00105C4.27796 2.00105 3.7859 2.09998 3.3275 2.29209C2.86909 2.4842 2.45352 2.76564 2.10499 3.12C1.39593 3.84181 0.998638 4.81318 0.998638 5.825C0.998638 6.83682 1.39593 7.80819 2.10499 8.53L7.99999 14.5L13.895 8.53C14.6041 7.80819 15.0013 6.83682 15.0013 5.825C15.0013 4.81318 14.6041 3.84181 13.895 3.12C13.5466 2.76545 13.131 2.48382 12.6726 2.29153C12.2142 2.09924 11.7221 2.00014 11.225 2Z" fill="currentColor" style="fill-opacity:1"/>
</svg>
