<svg viewBox="0 0 16 16" fill="none" xmlns="http://www.w3.org/2000/svg">
<path d="M8.75 12C9.16421 12 9.5 11.6642 9.5 11.25C9.5 10.8358 9.16421 10.5 8.75 10.5C8.33579 10.5 8 10.8358 8 11.25C8 11.6642 8.33579 12 8.75 12Z" fill="currentColor" style="fill-opacity:1"/>
<path d="M3.25 12C3.66421 12 4 11.6642 4 11.25C4 10.8358 3.66421 10.5 3.25 10.5C2.83579 10.5 2.5 10.8358 2.5 11.25C2.5 11.6642 2.83579 12 3.25 12Z" fill="currentColor" style="fill-opacity:1"/>
<path d="M6.5 14V9H10C10.1782 9 10.343 8.90505 10.4324 8.751C10.4775 8.67345 10.5 8.58675 10.5 8.5C10.5 8.41445 10.478 8.3288 10.4341 8.25195L6.4341 1.252C6.33815 1.08405 6.16905 1 6 1C5.83095 1 5.66185 1.08405 5.5659 1.252L1.56595 8.25195C1.52205 8.3288 1.50005 8.4144 1.50005 8.5C1.50005 8.58675 1.5226 8.67345 1.5677 8.751C1.65705 8.90505 1.82185 9 2.00005 9H5.50005V14C5.50005 14.5523 5.94775 15 6.50005 15H14.0001V14H6.5ZM2.86155 8L6 2.5078L9.13845 8H2.86155Z" fill="currentColor" style="fill-opacity:1"/>
</svg>
