<svg viewBox="0 0 16 16" fill="none" xmlns="http://www.w3.org/2000/svg">
<path d="M3.5 2.60501C3.42004 2.60399 3.34238 2.5781 3.27781 2.53093C3.21323 2.48376 3.16495 2.41766 3.13966 2.34179C3.11437 2.26593 3.11334 2.18407 3.13669 2.10759C3.16005 2.03111 3.20664 1.9638 3.27 1.91501C4.6496 0.938985 6.31105 0.441957 8 0.500013C9.33 0.500013 11.24 0.725013 12.75 1.81001C12.8326 1.86926 12.8884 1.95875 12.9052 2.05897C12.9221 2.15919 12.8986 2.26201 12.84 2.34501C12.7791 2.42714 12.6884 2.48206 12.5874 2.49796C12.4864 2.51385 12.3832 2.48945 12.3 2.43001C11.0177 1.61511 9.51825 1.20885 8 1.26501C6.48424 1.21352 4.99276 1.6557 3.75 2.52501C3.67924 2.58134 3.59031 2.60979 3.5 2.60501Z" fill="currentColor" style="fill-opacity:1"/>
<path d="M14.115 6.13001C14.0532 6.12945 13.9924 6.11419 13.9376 6.0855C13.8828 6.05681 13.8357 6.01552 13.8 5.96501C12.935 4.74501 11.39 3.12001 8 3.12001C6.87286 3.09163 5.75555 3.33593 4.74311 3.83214C3.73068 4.32835 2.85308 5.06177 2.185 5.97001C2.125 6.0518 2.03515 6.10661 1.93498 6.12252C1.8348 6.13844 1.73239 6.11418 1.65 6.05501C1.60678 6.02493 1.57028 5.9862 1.54282 5.94127C1.51536 5.89633 1.49754 5.84618 1.49049 5.794C1.48344 5.74182 1.48731 5.68874 1.50185 5.63813C1.5164 5.58752 1.54131 5.54049 1.575 5.50001C2.31567 4.49943 3.28592 3.69147 4.40405 3.14415C5.52217 2.59684 6.75544 2.32619 8 2.35501C10.805 2.35501 12.905 3.39501 14.42 5.52501C14.4781 5.60862 14.5008 5.71186 14.483 5.81213C14.4652 5.9124 14.4084 6.00153 14.325 6.06001C14.2631 6.10288 14.1902 6.12717 14.115 6.13001Z" fill="currentColor" style="fill-opacity:1"/>
<path d="M6.14 15.5C6.06243 15.4996 5.98675 15.4761 5.92262 15.4324C5.85849 15.3888 5.80884 15.327 5.78 15.255C5.76001 15.2079 5.74986 15.1572 5.7502 15.106C5.75054 15.0549 5.76134 15.0043 5.78195 14.9575C5.80256 14.9106 5.83253 14.8685 5.87003 14.8337C5.90753 14.7989 5.95176 14.7721 6 14.755C8.185 13.915 9.5 12.195 9.5 10.15C9.51494 9.94921 9.48638 9.74754 9.41628 9.55878C9.34618 9.37001 9.23619 9.19859 9.09381 9.05621C8.95142 8.91382 8.78 8.80383 8.59124 8.73373C8.40247 8.66363 8.20081 8.63507 8 8.65001C7.07 8.65001 6.62 9.15001 6.5 10.325C6.4442 10.8746 6.17757 11.3811 5.75614 11.7382C5.3347 12.0953 4.79126 12.2752 4.24 12.24C3.94354 12.2443 3.64944 12.1868 3.37643 12.0712C3.10341 11.9556 2.85747 11.7844 2.65427 11.5685C2.45107 11.3526 2.29506 11.0967 2.19619 10.8172C2.09732 10.5377 2.05775 10.2407 2.08 9.94501C2.10763 8.39912 2.7456 6.92691 3.8547 5.84967C4.96379 4.77242 6.45396 4.1776 8 4.19501C9.58525 4.19499 11.1061 4.82232 12.2303 5.93998C13.3545 7.05764 13.9908 8.57479 14 10.16C13.9647 11.2762 13.7293 12.377 13.305 13.41C13.2643 13.5021 13.1895 13.5749 13.0963 13.6131C13.0031 13.6514 12.8987 13.652 12.805 13.615C12.7585 13.5959 12.7163 13.5677 12.6808 13.5321C12.6453 13.4966 12.6172 13.4543 12.5981 13.4078C12.5791 13.3613 12.5694 13.3115 12.5697 13.2612C12.5701 13.211 12.5803 13.1613 12.6 13.115C12.9839 12.1751 13.1989 11.1747 13.235 10.16C13.2284 8.77686 12.6736 7.45276 11.6923 6.478C10.711 5.50324 9.38317 4.95735 8 4.96001C7.33071 4.94676 6.66538 5.06566 6.04211 5.3099C5.41884 5.55414 4.84986 5.91892 4.36777 6.38337C3.88568 6.84781 3.49993 7.40279 3.23263 8.01653C2.96532 8.63026 2.8217 9.2907 2.81 9.96001C2.7895 10.1545 2.81045 10.3512 2.87145 10.5371C2.93245 10.7229 3.03213 10.8937 3.16392 11.0383C3.29571 11.1828 3.45663 11.2978 3.63607 11.3757C3.81551 11.4535 4.00941 11.4925 4.205 11.49C4.38506 11.5079 4.56688 11.49 4.73997 11.4372C4.91306 11.3845 5.07398 11.2979 5.21345 11.1827C5.35291 11.0674 5.46816 10.9256 5.55253 10.7655C5.63689 10.6054 5.68872 10.4302 5.705 10.25C5.885 8.69501 6.65 7.90501 7.985 7.90501C8.28754 7.88972 8.5899 7.93838 8.87237 8.04783C9.15483 8.15727 9.41105 8.32504 9.6243 8.54018C9.83756 8.75532 10.0031 9.013 10.11 9.29642C10.217 9.57984 10.263 9.88262 10.245 10.185C10.245 12.555 8.745 14.545 6.245 15.5C6.21011 15.504 6.17488 15.504 6.14 15.5Z" fill="currentColor" style="fill-opacity:1"/>
<path d="M9.885 15.14C9.78923 15.1385 9.69711 15.103 9.625 15.04C9.58932 15.0047 9.561 14.9626 9.54167 14.9163C9.52234 14.8699 9.51239 14.8202 9.51239 14.77C9.51239 14.7198 9.52234 14.6701 9.54167 14.6237C9.561 14.5774 9.58932 14.5353 9.625 14.5C10.7499 13.334 11.3836 11.7802 11.395 10.16C11.395 9.38001 11.155 6.83501 8.045 6.83501C7.59183 6.81907 7.14003 6.89354 6.71595 7.05407C6.29188 7.2146 5.90401 7.45798 5.575 7.77001C5.28062 8.06128 5.04789 8.40883 4.89069 8.79195C4.73349 9.17507 4.65503 9.58592 4.66 10C4.65868 10.1013 4.61754 10.1979 4.54548 10.269C4.47342 10.3401 4.37625 10.38 4.275 10.38C4.22468 10.3807 4.17473 10.3713 4.12804 10.3525C4.08136 10.3337 4.03888 10.3058 4.00306 10.2705C3.96724 10.2351 3.9388 10.193 3.9194 10.1466C3.89999 10.1002 3.88999 10.0503 3.89 10C3.88221 9.48778 3.97633 8.9791 4.16688 8.50357C4.35744 8.02803 4.64063 7.59512 5 7.23001C5.39835 6.84767 5.86867 6.54825 6.38366 6.34912C6.89864 6.14999 7.44805 6.05512 8 6.07001C11.04 6.07001 12.12 8.27001 12.12 10.16C12.1135 11.9635 11.4155 13.6957 10.17 15C10.1356 15.0428 10.0923 15.0775 10.043 15.1017C9.9938 15.1259 9.93985 15.1389 9.885 15.14Z" fill="currentColor" style="fill-opacity:1"/>
<path d="M4.33 13.87C4.06937 13.8694 3.80897 13.8544 3.55 13.825C3.5001 13.8194 3.45178 13.8041 3.40781 13.7798C3.36385 13.7556 3.32509 13.7229 3.29375 13.6837C3.26241 13.6444 3.2391 13.5994 3.22516 13.5512C3.21122 13.5029 3.20692 13.4524 3.2125 13.4025C3.21808 13.3526 3.23344 13.3043 3.25769 13.2603C3.28194 13.2164 3.31462 13.1776 3.35385 13.1463C3.39308 13.1149 3.4381 13.0916 3.48634 13.0777C3.53458 13.0637 3.5851 13.0594 3.635 13.065C4.88 13.205 5.86 12.985 6.555 12.405C6.87536 12.1185 7.13443 11.7702 7.3166 11.3809C7.49877 10.9916 7.60027 10.5695 7.615 10.14C7.61748 10.0894 7.63019 10.0398 7.65238 9.9942C7.67456 9.94862 7.70576 9.90802 7.74408 9.87484C7.78241 9.84165 7.82706 9.81659 7.87534 9.80115C7.92362 9.78571 7.97453 9.78022 8.025 9.78501C8.12579 9.7927 8.21966 9.83923 8.28682 9.91478C8.35398 9.99033 8.38918 10.089 8.385 10.19C8.36393 10.7248 8.23427 11.2497 8.0039 11.7328C7.77354 12.2159 7.44728 12.647 7.045 13C6.27321 13.6055 5.30993 13.9141 4.33 13.87Z" fill="currentColor" style="fill-opacity:1"/>
</svg>
