<svg viewBox="0 0 16 16" fill="none" xmlns="http://www.w3.org/2000/svg">
<path d="M15 7C15.0024 6.14138 14.8344 5.29082 14.5058 4.49756C14.1772 3.7043 13.6945 2.9841 13.0857 2.37865L12.2072 1.5L11.5 2.2069L12.3787 3.0856C12.8927 3.59964 13.3004 4.20988 13.5786 4.8815C13.8568 5.55312 14 6.27295 14 6.9999C14 7.72686 13.8568 8.44669 13.5786 9.11831C13.3004 9.78992 12.8927 10.4002 12.3787 10.9142L11 12.2929L11.7072 13L13.0857 11.6214C13.6945 11.0159 14.1772 10.2957 14.5058 9.50244C14.8344 8.70918 15.0024 7.85862 15 7Z" fill="currentColor" style="fill-opacity:1"/>
<path d="M8.5 5.9999C8.77614 5.9999 9 5.77605 9 5.4999C9 5.22376 8.77614 4.9999 8.5 4.9999C8.22386 4.9999 8 5.22376 8 5.4999C8 5.77605 8.22386 5.9999 8.5 5.9999Z" fill="currentColor" style="fill-opacity:1"/>
<path d="M11 7C11.0024 6.14138 10.8344 5.29082 10.5058 4.49756C10.1772 3.7043 9.69453 2.9841 9.0857 2.37865L8.20715 1.5L7.5 2.2069L8.37865 3.0856C8.89268 3.59964 9.30044 4.20988 9.57863 4.8815C9.85683 5.55312 10 6.27295 10 6.9999C10 7.72686 9.85683 8.44669 9.57863 9.11831C9.30044 9.78992 8.89268 10.4002 8.37865 10.9142L7 12.2929L7.70715 13L9.0857 11.6214C9.69453 11.0159 10.1772 10.2957 10.5058 9.50244C10.8344 8.70918 11.0024 7.85862 11 7Z" fill="currentColor" style="fill-opacity:1"/>
<path d="M12.5 5.9999C12.7761 5.9999 13 5.77605 13 5.4999C13 5.22376 12.7761 4.9999 12.5 4.9999C12.2239 4.9999 12 5.22376 12 5.4999C12 5.77605 12.2239 5.9999 12.5 5.9999Z" fill="currentColor" style="fill-opacity:1"/>
<path d="M4.5 5.9999C4.77614 5.9999 5 5.77605 5 5.4999C5 5.22376 4.77614 4.9999 4.5 4.9999C4.22386 4.9999 4 5.22376 4 5.4999C4 5.77605 4.22386 5.9999 4.5 5.9999Z" fill="currentColor" style="fill-opacity:1"/>
<path d="M4.70705 12L5.0857 11.6214C5.69261 11.0145 6.17403 10.294 6.50249 9.50107C6.83094 8.70814 7 7.85827 7 7C7 6.14173 6.83094 5.29187 6.50249 4.49893C6.17403 3.706 5.69261 2.98553 5.0857 2.37865L4 1.29285L2.9143 2.37855C2.3074 2.98543 1.82597 3.7059 1.49751 4.49883C1.16906 5.29177 1 6.14163 1 6.9999C1 7.85817 1.16906 8.70804 1.49751 9.50097C1.82597 10.2939 2.3074 11.0144 2.9143 11.6213L3.29295 12L1.1465 14.1464C1.07656 14.2163 1.02893 14.3054 1.00963 14.4024C0.990322 14.4994 1.00022 14.5999 1.03805 14.6913C1.07589 14.7827 1.13998 14.8608 1.22221 14.9157C1.30443 14.9707 1.40111 15 1.5 15H6.5C6.59888 15 6.69553 14.9706 6.77773 14.9157C6.85994 14.8608 6.92401 14.7827 6.96184 14.6913C6.99968 14.6 7.00958 14.4995 6.99029 14.4025C6.97101 14.3055 6.92341 14.2164 6.8535 14.1465L4.70705 12ZM2 7C1.998 6.27274 2.14027 5.5523 2.41858 4.88039C2.69688 4.20849 3.10569 3.59845 3.62135 3.0856L4 2.7069L4.37865 3.0856C4.89269 3.59964 5.30044 4.20988 5.57863 4.8815C5.85683 5.55312 6.00001 6.27295 6.00001 6.9999C6.00001 7.72686 5.85683 8.44669 5.57863 9.11831C5.30044 9.78992 4.89269 10.4002 4.37865 10.9142L4 11.2929L3.62135 10.9142C3.10572 10.4014 2.69692 9.79138 2.41861 9.1195C2.14031 8.44763 1.99803 7.72723 2 7ZM2.70705 14L4 12.7069L5.29295 14H2.70705Z" fill="currentColor" style="fill-opacity:1"/>
</svg>
