<svg viewBox="0 0 16 16" fill="none" xmlns="http://www.w3.org/2000/svg">
<path d="M12 3.9999C12.2761 3.9999 12.5 3.77604 12.5 3.4999C12.5 3.22376 12.2761 2.9999 12 2.9999C11.7239 2.9999 11.5 3.22376 11.5 3.4999C11.5 3.77604 11.7239 3.9999 12 3.9999Z" fill="currentColor" style="fill-opacity:1"/>
<path d="M13 1C10.879 1.00242 8.84559 1.84605 7.34582 3.34582C5.84605 4.84559 5.00242 6.87901 5 9V10H1.5C1.40112 10 1.30448 10.0294 1.22227 10.0843C1.14007 10.1392 1.076 10.2173 1.03816 10.3087C1.00033 10.4 0.990424 10.5005 1.00971 10.5975C1.02899 10.6945 1.0766 10.7836 1.1465 10.8535L5.1465 14.8535C5.21643 14.9234 5.30551 14.971 5.40248 14.9903C5.49946 15.0096 5.59998 14.9997 5.69133 14.9618C5.78268 14.924 5.86076 14.8599 5.9157 14.7777C5.97064 14.6955 5.99998 14.5989 6 14.5V11H7C9.12099 10.9976 11.1544 10.1539 12.6542 8.65418C14.1539 7.15441 14.9976 5.12099 15 3V1H13ZM5 13.2928L2.70705 11H5V13.2928ZM6 10V9C6.00013 7.19487 6.70062 5.4602 7.954 4.16115L11.839 8.0459C10.5399 9.29933 8.80519 9.99985 7 10H6ZM14 3C14 4.56077 13.4752 6.0762 12.51 7.30275L8.69725 3.49C9.9238 2.52482 11.4392 2.00004 13 2H14V3Z" fill="currentColor" style="fill-opacity:1"/>
</svg>
