<svg viewBox="0 0 16 16" fill="none" xmlns="http://www.w3.org/2000/svg">
<path id="icon" d="M5.80501 14.96C5.70269 14.9168 5.61766 14.8408 5.56334 14.7439C5.50902 14.647 5.48849 14.5348 5.50501 14.425L6.41501 8.5H4.00001C3.92345 8.50206 3.84744 8.48651 3.77784 8.45454C3.70824 8.42256 3.64692 8.37503 3.5986 8.3156C3.55029 8.25617 3.51627 8.18644 3.49918 8.11178C3.48208 8.03712 3.48237 7.95954 3.50001 7.885L5.00001 1.385C5.02641 1.27314 5.09053 1.17378 5.1816 1.10366C5.27267 1.03354 5.38512 0.996933 5.50001 1H10.5C10.5747 0.99975 10.6485 1.01624 10.716 1.04825C10.7835 1.08026 10.843 1.12699 10.89 1.185C10.9377 1.24367 10.9715 1.3124 10.9889 1.38601C11.0062 1.45963 11.0066 1.53621 10.99 1.61L10.125 5.5H12.5C12.5937 5.49982 12.6856 5.52597 12.7652 5.57548C12.8447 5.62498 12.9088 5.69585 12.95 5.78C12.9858 5.86077 12.9996 5.94959 12.99 6.03742C12.9803 6.12525 12.9475 6.20896 12.895 6.28L6.39501 14.78C6.35108 14.8451 6.29242 14.899 6.2238 14.9372C6.15517 14.9754 6.0785 14.9969 6.00001 15C5.93311 14.9988 5.867 14.9852 5.80501 14.96ZM8.87501 6.5L9.87501 2H5.90001L4.63001 7.5H7.58501L6.79001 12.64L11.5 6.5H8.87501Z" fill="currentColor" style="fill-opacity:1"/>
</svg>
