<svg viewBox="0 0 16 16" fill="none" xmlns="http://www.w3.org/2000/svg">
<path d="M5.565 3.445L5.9 2H9.9L8.9 6.5H11.5L10.255 8.125L10.97 8.84L12.905 6.305C12.9575 6.23396 12.9903 6.15025 13 6.06242C13.0096 5.97459 12.9958 5.88577 12.96 5.805C12.9217 5.71463 12.8577 5.63752 12.7759 5.58328C12.6941 5.52905 12.5981 5.50008 12.5 5.5H10.125L11 1.61C11.0166 1.53621 11.0162 1.45963 10.9988 1.38601C10.9815 1.3124 10.9477 1.24367 10.9 1.185C10.8519 1.12566 10.7908 1.07813 10.7215 1.04606C10.6521 1.01399 10.5764 0.998233 10.5 1H5.5C5.3851 0.996933 5.27266 1.03354 5.18159 1.10366C5.09052 1.17378 5.02639 1.27314 5 1.385L4.73 2.61L5.565 3.445Z" fill="currentColor" style="fill-opacity:1"/>
<path d="M15 14.295L10.345 9.64L9.635 8.925L1.705 1L1 1.705L4.2 4.91L3.5 7.885C3.48236 7.95954 3.48207 8.03712 3.49917 8.11178C3.51626 8.18644 3.55028 8.25617 3.59859 8.3156C3.64691 8.37503 3.70823 8.42256 3.77783 8.45454C3.84742 8.48651 3.92344 8.50206 4 8.5H6.415L5.5 14.425C5.48348 14.5348 5.504 14.647 5.55833 14.7439C5.61265 14.8408 5.69768 14.9168 5.8 14.96C5.86356 14.9858 5.93141 14.9994 6 15C6.07636 14.9998 6.15166 14.9822 6.22013 14.9483C6.2886 14.9145 6.34842 14.8655 6.395 14.805L9.735 10.44L14.295 15L15 14.295ZM4.63 7.5L5.035 5.74L6.795 7.5H4.63ZM6.79 12.64L7.5 8.185L9 9.725L6.79 12.64Z" fill="currentColor" style="fill-opacity:1"/>
</svg>
