<svg viewBox="0 0 16 16" fill="none" xmlns="http://www.w3.org/2000/svg">
<path d="M8 14C7.88775 13.9997 7.77562 13.9924 7.6643 13.978C6.63684 12.3314 6.06799 10.4402 6.0166 8.5H14.975C14.9868 8.33425 15 8.1687 15 8C15 6.61553 14.5895 5.26215 13.8203 4.111C13.0511 2.95986 11.9579 2.06265 10.6788 1.53284C9.3997 1.00303 7.99223 0.864403 6.63436 1.1345C5.2765 1.4046 4.02922 2.07128 3.05025 3.05025C2.07128 4.02922 1.4046 5.2765 1.1345 6.63436C0.864403 7.99223 1.00303 9.3997 1.53284 10.6788C2.06265 11.9579 2.95986 13.0511 4.111 13.8203C5.26215 14.5895 6.61553 15 8 15V14ZM13.9746 7.5H10.9815C10.9278 5.66002 10.4571 3.85624 9.605 2.2246C10.7842 2.55377 11.8346 3.23545 12.6156 4.17829C13.3965 5.12114 13.8707 6.28013 13.9746 7.5ZM8.3357 2.02195C9.36316 3.66856 9.93201 5.5598 9.9834 7.5H6.0166C6.06798 5.5598 6.63683 3.66856 7.6643 2.02195C7.88714 1.9927 8.11285 1.9927 8.3357 2.02195ZM6.395 2.2246C5.54289 3.85625 5.07222 5.66003 5.01845 7.5H2.0254C2.12929 6.28014 2.60347 5.12116 3.38443 4.17831C4.16538 3.23547 5.21581 2.55379 6.395 2.2246ZM2.0254 8.5H5.01845C5.07222 10.34 5.54289 12.1437 6.395 13.7754C5.21581 13.4462 4.16538 12.7645 3.38443 11.8217C2.60347 10.8788 2.12929 9.71985 2.0254 8.5Z" fill="currentColor" style="fill-opacity:1"/>
<path fill-rule="evenodd" clip-rule="evenodd" d="M12.5 12.5L15 13.5V12.5L12.5 11.25V10C12.5 9.86739 12.4473 9.74021 12.3536 9.64644C12.2598 9.55267 12.1326 9.5 12 9.5C11.8674 9.5 11.7402 9.55267 11.6464 9.64644C11.5527 9.74021 11.5 9.86739 11.5 10V11.25L9 12.5V13.5L11.5 12.5V14.25L10.5 15V15.5L12 15L13.5 15.5V15L12.5 14.25V12.5Z" fill="currentColor" style="fill-opacity:1"/>
</svg>
