<svg viewBox="0 0 16 16" fill="none" xmlns="http://www.w3.org/2000/svg">
<path id="icon-arrow" d="M12.5 5.49999C11.924 5.50078 11.3658 5.70013 10.9196 6.06445C10.4735 6.42876 10.1665 6.93576 10.0505 7.49999H5.94944C5.82553 6.89297 5.48065 6.35358 4.98165 5.9864C4.48265 5.61921 3.86508 5.45038 3.24868 5.51265C2.63228 5.57492 2.06095 5.86385 1.64547 6.32342C1.22999 6.78299 0.999951 7.38046 0.999951 7.99999C0.999951 8.61953 1.22999 9.217 1.64547 9.67657C2.06095 10.1361 2.63228 10.4251 3.24868 10.4873C3.86508 10.5496 4.48265 10.3808 4.98165 10.0136C5.48065 9.64641 5.82553 9.10702 5.94944 8.49999H10.0505C10.1451 8.96347 10.3693 9.3906 10.697 9.73177C11.0247 10.0729 11.4424 10.3141 11.9017 10.4273C12.361 10.5406 12.843 10.5211 13.2917 10.3713C13.7404 10.2216 14.1374 9.94753 14.4365 9.58112C14.7357 9.2147 14.9248 8.77092 14.9818 8.30134C15.0388 7.83175 14.9614 7.35562 14.7587 6.92825C14.5559 6.50089 14.236 6.13982 13.8362 5.887C13.4364 5.63419 12.973 5.49999 12.5 5.49999ZM12.5 9.49999C12.2033 9.49999 11.9133 9.41202 11.6666 9.2472C11.42 9.08238 11.2277 8.84811 11.1142 8.57402C11.0006 8.29993 10.9709 7.99833 11.0288 7.70736C11.0867 7.41639 11.2296 7.14911 11.4393 6.93933C11.6491 6.72955 11.9164 6.58669 12.2074 6.52882C12.4983 6.47094 12.7999 6.50064 13.074 6.61417C13.3481 6.72771 13.5824 6.91996 13.7472 7.16664C13.912 7.41331 14 7.70332 14 7.99999C13.9996 8.39768 13.8414 8.77896 13.5602 9.06017C13.279 9.34138 12.8977 9.49956 12.5 9.49999Z" fill="currentColor" style="fill-opacity:1"/>
</svg>
