<svg viewBox="0 0 16 16" fill="none" xmlns="http://www.w3.org/2000/svg">
<path d="M14.5 14C14.3293 13.9996 14.16 13.9688 14 13.9092V13.9062C13.7657 13.807 13.5539 13.6613 13.3774 13.4779C13.201 13.2946 13.0635 13.0773 12.9734 12.8393C12.9418 12.7392 12.8786 12.652 12.7932 12.5908C12.7079 12.5296 12.605 12.4978 12.5 12.5C12.3952 12.5005 12.2932 12.5337 12.2081 12.595C12.1231 12.6563 12.0593 12.7425 12.0257 12.8418C11.915 13.1644 11.7108 13.4469 11.4391 13.6531C11.1674 13.8594 10.8405 13.9801 10.5 14C10.1591 13.98 9.83181 13.8589 9.55993 13.6522C9.28806 13.4455 9.08388 13.1625 8.9734 12.8393C8.94054 12.74 8.877 12.6536 8.79194 12.5926C8.70687 12.5316 8.60466 12.4992 8.5 12.5C8.39519 12.5005 8.29316 12.5337 8.20813 12.595C8.1231 12.6563 8.05931 12.7425 8.02565 12.8418C7.91498 13.1644 7.7108 13.4469 7.43912 13.6531C7.16743 13.8594 6.84052 13.9801 6.5 14C6.15906 13.98 5.83181 13.8589 5.55993 13.6522C5.28806 13.4455 5.08388 13.1625 4.9734 12.8393C4.93975 12.7402 4.87582 12.6541 4.79065 12.5933C4.70547 12.5324 4.60334 12.4998 4.49864 12.5001C4.39395 12.5003 4.29199 12.5335 4.20713 12.5948C4.12227 12.6561 4.05879 12.7425 4.02565 12.8418C3.91498 13.1644 3.7108 13.4469 3.43912 13.6531C3.16743 13.8594 2.84052 13.9801 2.5 14H1V15H2.5C2.88804 15.0034 3.27141 14.9152 3.61894 14.7426C3.96647 14.5699 4.26834 14.3177 4.5 14.0063C4.73404 14.3151 5.0364 14.5655 5.38338 14.7379C5.73036 14.9103 6.11255 15 6.5 15C6.88745 15 7.26964 14.9103 7.61662 14.7379C7.9636 14.5655 8.26596 14.3151 8.5 14.0063C8.73404 14.3151 9.0364 14.5655 9.38338 14.7379C9.73037 14.9103 10.1126 15 10.5 15C10.8874 15 11.2696 14.9103 11.6166 14.7379C11.9636 14.5655 12.266 14.3151 12.5 14.0063C12.7784 14.3661 13.1473 14.6456 13.5689 14.8163C13.8641 14.9384 14.1806 15.0009 14.5 15H15V14H14.5Z" fill="currentColor" style="fill-opacity:1"/>
<path d="M14 6.815L14.8786 7.5L15.5 6.7141L8.30615 1.10695C8.21742 1.03764 8.10806 0.999995 7.99547 0.999995C7.88289 0.999995 7.77353 1.03764 7.6848 1.10695L0.5 6.7097L1.12135 7.4956L2 6.81055V9.4043C1.90747 9.62891 1.7715 9.83304 1.5999 10.005C1.42829 10.1769 1.22443 10.3133 1 10.4062V11.448C1.59823 11.3279 2.13179 10.9929 2.5 10.5063C2.73404 10.8151 3.0364 11.0655 3.38338 11.2379C3.73036 11.4103 4.11255 11.5 4.5 11.5C4.88745 11.5 5.26964 11.4103 5.61662 11.2379C5.9636 11.0655 6.26596 10.8151 6.5 10.5063C6.73404 10.8151 7.0364 11.0655 7.38338 11.2379C7.73036 11.4103 8.11255 11.5 8.5 11.5C8.88745 11.5 9.26963 11.4103 9.61662 11.2379C9.9636 11.0655 10.266 10.8151 10.5 10.5063C10.7317 10.8177 11.0335 11.0699 11.3811 11.2426C11.7286 11.4152 12.112 11.5034 12.5 11.5H15V10.5H14V6.815ZM10.9743 9.3416C10.9412 9.24229 10.8777 9.15589 10.7929 9.09458C10.708 9.03327 10.606 9.00015 10.5014 8.99988C10.3967 8.99961 10.2945 9.0322 10.2094 9.09307C10.1242 9.15394 10.0603 9.24001 10.0266 9.33915C9.91615 9.66235 9.71199 9.94535 9.44011 10.1521C9.16823 10.3588 8.84096 10.4799 8.5 10.5C8.15948 10.4801 7.83257 10.3594 7.56088 10.1531C7.2892 9.94687 7.08502 9.66445 6.97435 9.3418C6.94069 9.24254 6.8769 9.15626 6.79187 9.09499C6.70684 9.03372 6.60481 9.00051 6.5 9C6.39534 8.99921 6.29313 9.03164 6.20806 9.09262C6.123 9.15359 6.05946 9.23998 6.0266 9.33935C5.91612 9.66251 5.71194 9.94547 5.44007 10.1522C5.16819 10.3589 4.84094 10.48 4.5 10.5C4.17001 10.4847 3.85179 10.3728 3.58491 10.1781C3.31803 9.9834 3.11427 9.71456 2.99895 9.405L3 6.03075L7.9955 2.13575L13 6.0359L13.0008 10.5H12.5C12.1595 10.4801 11.8326 10.3594 11.5609 10.1531C11.2892 9.94687 11.085 9.66425 10.9743 9.3416Z" fill="currentColor" style="fill-opacity:1"/>
</svg>
