<svg viewBox="0 0 16 16" fill="none" xmlns="http://www.w3.org/2000/svg">
<path d="M9.99999 12H5.93124C5.88304 11.8212 5.81099 11.6496 5.71704 11.49L10.99 6.21715C11.3508 6.43008 11.7695 6.52414 12.1867 6.48601C12.604 6.44788 12.9986 6.2795 13.3149 6.0047C13.6312 5.72989 13.853 5.36258 13.949 4.95476C14.045 4.54693 14.0103 4.11924 13.8498 3.73221C13.6894 3.34519 13.4112 3.01843 13.0548 2.79819C12.6984 2.57795 12.2817 2.47538 11.8638 2.50499C11.4459 2.5346 11.0479 2.69491 10.7261 2.9632C10.4043 3.2315 10.175 3.59421 10.0707 4H6.99999V5H10.0707C10.1172 5.17908 10.1886 5.35075 10.2828 5.51L5.01 10.7828C4.64916 10.5699 4.2305 10.4758 3.81327 10.514C3.39603 10.5521 3.00136 10.7205 2.68511 10.9953C2.36885 11.2701 2.14703 11.6374 2.05104 12.0453C1.95505 12.4531 1.98975 12.8808 2.15022 13.2678C2.3107 13.6548 2.58882 13.9816 2.94524 14.2018C3.30165 14.422 3.71831 14.5246 4.13623 14.495C4.55415 14.4654 4.95218 14.3051 5.27398 14.0368C5.59578 13.7685 5.82505 13.4058 5.92934 13H9.99999V14.5H14V10.5H9.99999V12ZM12 3.5C12.1978 3.5 12.3911 3.55865 12.5556 3.66853C12.72 3.77841 12.8482 3.93459 12.9239 4.11732C12.9996 4.30004 13.0194 4.50111 12.9808 4.69509C12.9422 4.88907 12.847 5.06725 12.7071 5.20711C12.5672 5.34696 12.3891 5.4422 12.1951 5.48079C12.0011 5.51937 11.8 5.49957 11.6173 5.42388C11.4346 5.34819 11.2784 5.22002 11.1685 5.05557C11.0586 4.89112 11 4.69778 11 4.5C11.0003 4.23488 11.1058 3.9807 11.2932 3.79323C11.4807 3.60576 11.7349 3.5003 12 3.5ZM3.99999 13.5C3.80221 13.5 3.60887 13.4414 3.44442 13.3315C3.27998 13.2216 3.1518 13.0654 3.07612 12.8827C3.00043 12.7 2.98062 12.4989 3.01921 12.3049C3.05779 12.1109 3.15304 11.9327 3.29289 11.7929C3.43274 11.653 3.61092 11.5578 3.8049 11.5192C3.99889 11.4806 4.19995 11.5004 4.38268 11.5761C4.5654 11.6518 4.72158 11.78 4.83146 11.9444C4.94135 12.1089 4.99999 12.3022 4.99999 12.5C4.99969 12.7651 4.89424 13.0193 4.70677 13.2068C4.51929 13.3942 4.26512 13.4997 3.99999 13.5ZM11 11.5H13V13.5H11V11.5Z" fill="currentColor" style="fill-opacity:1"/>
<path d="M4.84644 6.37525C4.58041 6.14066 4.36734 5.85215 4.22139 5.52889C4.07543 5.20562 3.99994 4.855 3.99991 4.50031C3.99989 4.14562 4.07534 3.79498 4.22125 3.4717C4.36716 3.14841 4.58019 2.85987 4.84619 2.62525L5.50829 3.375C5.34859 3.51575 5.22066 3.68888 5.13303 3.88288C5.0454 4.07688 5.00007 4.28732 5.00004 4.50019C5.00002 4.71307 5.04531 4.92351 5.1329 5.11754C5.22048 5.31156 5.34837 5.48472 5.50804 5.6255L4.84644 6.37525Z" fill="currentColor" style="fill-opacity:1"/>
<path d="M3.52369 7.8755C3.04478 7.45321 2.66122 6.93384 2.39849 6.35189C2.13576 5.76995 1.99988 5.13875 1.99988 4.50025C1.99988 3.86175 2.13576 3.23055 2.39849 2.64861C2.66122 2.06666 3.04478 1.54729 3.52369 1.125L4.18529 1.875C3.81279 2.20345 3.51445 2.60741 3.31009 3.06005C3.10573 3.51268 3.00004 4.00362 3.00004 4.50025C3.00004 4.99688 3.10573 5.48782 3.31009 5.94045C3.51445 6.39309 3.81279 6.79705 4.18529 7.1255L3.52369 7.8755Z" fill="currentColor" style="fill-opacity:1"/>
</svg>
