<svg viewBox="0 0 16 16" fill="none" xmlns="http://www.w3.org/2000/svg">
<path id="icon" d="M13.5 11.07V8.49998C13.5 8.23476 13.3946 7.98041 13.2071 7.79287C13.0196 7.60534 12.7652 7.49998 12.5 7.49998H8.5V4.92998C8.97133 4.80828 9.38209 4.51886 9.6553 4.11597C9.92851 3.71309 10.0454 3.22438 9.98406 2.74148C9.92272 2.25857 9.68737 1.81461 9.32211 1.49282C8.95686 1.17102 8.48679 0.993486 8 0.993486C7.51321 0.993486 7.04314 1.17102 6.67788 1.49282C6.31263 1.81461 6.07728 2.25857 6.01594 2.74148C5.9546 3.22438 6.07149 3.71309 6.3447 4.11597C6.6179 4.51886 7.02867 4.80828 7.5 4.92998V7.49998H3.5C3.23478 7.49998 2.98043 7.60534 2.79289 7.79287C2.60536 7.98041 2.5 8.23476 2.5 8.49998V11.07C2.02867 11.1917 1.6179 11.4811 1.3447 11.884C1.07149 12.2869 0.954602 12.7756 1.01594 13.2585C1.07728 13.7414 1.31263 14.1853 1.67788 14.5071C2.04314 14.8289 2.51321 15.0065 3 15.0065C3.48679 15.0065 3.95686 14.8289 4.32212 14.5071C4.68737 14.1853 4.92272 13.7414 4.98406 13.2585C5.0454 12.7756 4.92851 12.2869 4.6553 11.884C4.38209 11.4811 3.97133 11.1917 3.5 11.07V8.49998H12.5V11.07C12.0287 11.1917 11.6179 11.4811 11.3447 11.884C11.0715 12.2869 10.9546 12.7756 11.0159 13.2585C11.0773 13.7414 11.3126 14.1853 11.6779 14.5071C12.0431 14.8289 12.5132 15.0065 13 15.0065C13.4868 15.0065 13.9569 14.8289 14.3221 14.5071C14.6874 14.1853 14.9227 13.7414 14.9841 13.2585C15.0454 12.7756 14.9285 12.2869 14.6553 11.884C14.3821 11.4811 13.9713 11.1917 13.5 11.07ZM4 13C4 13.1978 3.94135 13.3911 3.83147 13.5555C3.72159 13.72 3.56541 13.8482 3.38268 13.9239C3.19996 13.9995 2.99889 14.0193 2.80491 13.9808C2.61093 13.9422 2.43274 13.8469 2.29289 13.7071C2.15304 13.5672 2.0578 13.389 2.01921 13.1951C1.98063 13.0011 2.00043 12.8 2.07612 12.6173C2.15181 12.4346 2.27998 12.2784 2.44443 12.1685C2.60888 12.0586 2.80222 12 3 12C3.26522 12 3.51957 12.1053 3.70711 12.2929C3.89464 12.4804 4 12.7348 4 13ZM7 2.99998C7 2.8022 7.05865 2.60886 7.16853 2.44441C7.27841 2.27996 7.43459 2.15179 7.61732 2.0761C7.80004 2.00041 8.00111 1.98061 8.19509 2.01919C8.38907 2.05778 8.56725 2.15302 8.70711 2.29287C8.84696 2.43272 8.9422 2.61091 8.98078 2.80489C9.01937 2.99887 8.99957 3.19994 8.92388 3.38266C8.84819 3.56539 8.72002 3.72157 8.55557 3.83145C8.39112 3.94133 8.19778 3.99998 8 3.99998C7.73478 3.99998 7.48043 3.89462 7.29289 3.70708C7.10536 3.51955 7 3.26519 7 2.99998ZM13 14C12.8022 14 12.6089 13.9413 12.4444 13.8314C12.28 13.7216 12.1518 13.5654 12.0761 13.3827C12.0004 13.1999 11.9806 12.9989 12.0192 12.8049C12.0578 12.6109 12.153 12.4327 12.2929 12.2929C12.4327 12.153 12.6109 12.0578 12.8049 12.0192C12.9989 11.9806 13.2 12.0004 13.3827 12.0761C13.5654 12.1518 13.7216 12.28 13.8315 12.4444C13.9413 12.6089 14 12.8022 14 13C14 13.2652 13.8946 13.5195 13.7071 13.7071C13.5196 13.8946 13.2652 14 13 14Z" fill="currentColor" style="fill-opacity:1"/>
</svg>
