<svg viewBox="0 0 16 16" fill="none" xmlns="http://www.w3.org/2000/svg">
<path id="icon" d="M10 11.5H5.93C5.88049 11.3247 5.80821 11.1566 5.715 11L11 5.715C11.301 5.89969 11.6469 5.99827 12 6C12.3743 6.00121 12.7415 5.89734 13.0597 5.7002C13.378 5.50307 13.6345 5.22057 13.8001 4.88486C13.9657 4.54915 14.0338 4.17369 13.9966 3.80121C13.9594 3.42872 13.8184 3.07415 13.5896 2.77783C13.3609 2.48152 13.0535 2.25535 12.7026 2.12506C12.3517 1.99477 11.9712 1.96558 11.6045 2.04082C11.2378 2.11606 10.8996 2.29271 10.6283 2.55067C10.357 2.80863 10.1636 3.13754 10.07 3.5H5.93C5.8083 3.02867 5.51889 2.6179 5.116 2.34469C4.71311 2.07149 4.22441 1.9546 3.7415 2.01594C3.25859 2.07727 2.81463 2.31263 2.49284 2.67788C2.17105 3.04313 1.99351 3.51321 1.99351 4C1.99351 4.48678 2.17105 4.95686 2.49284 5.32211C2.81463 5.68736 3.25859 5.92272 3.7415 5.98405C4.22441 6.04539 4.71311 5.9285 5.116 5.6553C5.51889 5.38209 5.8083 4.97132 5.93 4.5H10.07C10.1195 4.67534 10.1918 4.84344 10.285 5L5 10.285C4.69902 10.1003 4.35313 10.0017 4 10C3.62566 9.99878 3.25849 10.1026 2.94026 10.2998C2.62204 10.4969 2.36552 10.7794 2.1999 11.1151C2.03428 11.4508 1.96621 11.8263 2.00342 12.1988C2.04063 12.5713 2.18163 12.9258 2.41039 13.2222C2.63914 13.5185 2.94647 13.7446 3.2974 13.8749C3.64834 14.0052 4.0288 14.0344 4.3955 13.9592C4.76221 13.8839 5.10043 13.7073 5.37171 13.4493C5.64298 13.1914 5.83641 12.8625 5.93 12.5H10V14H14V10H10V11.5ZM4 5C3.80222 5 3.60888 4.94135 3.44443 4.83146C3.27998 4.72158 3.15181 4.5654 3.07612 4.38268C3.00043 4.19995 2.98063 3.99889 3.01922 3.8049C3.0578 3.61092 3.15304 3.43274 3.29289 3.29289C3.43275 3.15304 3.61093 3.0578 3.80491 3.01921C3.99889 2.98062 4.19996 3.00043 4.38268 3.07612C4.56541 3.1518 4.72159 3.27998 4.83147 3.44443C4.94135 3.60887 5 3.80221 5 4C5 4.26521 4.89464 4.51957 4.70711 4.7071C4.51957 4.89464 4.26522 5 4 5ZM12 3C12.1978 3 12.3911 3.05864 12.5556 3.16853C12.72 3.27841 12.8482 3.43459 12.9239 3.61731C12.9996 3.80004 13.0194 4.0011 12.9808 4.19509C12.9422 4.38907 12.847 4.56725 12.7071 4.7071C12.5673 4.84695 12.3891 4.9422 12.1951 4.98078C12.0011 5.01937 11.8 4.99956 11.6173 4.92387C11.4346 4.84819 11.2784 4.72001 11.1685 4.55557C11.0587 4.39112 11 4.19778 11 4C11 3.73478 11.1054 3.48042 11.2929 3.29289C11.4804 3.10535 11.7348 3 12 3ZM4 13C3.80222 13 3.60888 12.9413 3.44443 12.8315C3.27998 12.7216 3.15181 12.5654 3.07612 12.3827C3.00043 12.2 2.98063 11.9989 3.01922 11.8049C3.0578 11.6109 3.15304 11.4327 3.29289 11.2929C3.43275 11.153 3.61093 11.0578 3.80491 11.0192C3.99889 10.9806 4.19996 11.0004 4.38268 11.0761C4.56541 11.1518 4.72159 11.28 4.83147 11.4444C4.94135 11.6089 5 11.8022 5 12C5 12.2652 4.89464 12.5196 4.70711 12.7071C4.51957 12.8946 4.26522 13 4 13ZM11 11H13V13H11V11Z" fill="currentColor" style="fill-opacity:1"/>
</svg>
