<svg viewBox="0 0 16 16" fill="none" xmlns="http://www.w3.org/2000/svg">
<path id="icon" d="M14 9H11C10.7349 9.0003 10.4807 9.10576 10.2932 9.29323C10.1058 9.4807 10.0003 9.73488 10 10V11H7.20705L5 8.79295V6H6C6.26512 5.9997 6.5193 5.89424 6.70677 5.70677C6.89424 5.5193 6.99969 5.26512 7 5V2C6.99969 1.73488 6.89424 1.4807 6.70677 1.29323C6.5193 1.10576 6.26512 1.0003 6 1H3C2.73487 1.0003 2.4807 1.10576 2.29323 1.29323C2.10576 1.4807 2.0003 1.73488 2 2V5C2.0003 5.26512 2.10576 5.5193 2.29323 5.70677C2.4807 5.89424 2.73487 5.9997 3 6H4V8.79295L1.6465 11.1465C1.60005 11.1929 1.5632 11.248 1.53806 11.3087C1.51292 11.3693 1.49998 11.4343 1.49998 11.5C1.49998 11.5657 1.51292 11.6307 1.53806 11.6913C1.5632 11.752 1.60005 11.8071 1.6465 11.8535L4.1465 14.3535C4.19291 14.3999 4.24802 14.4368 4.30867 14.4619C4.36933 14.4871 4.43434 14.5 4.5 14.5C4.56566 14.5 4.63067 14.4871 4.69132 14.4619C4.75198 14.4368 4.80709 14.3999 4.8535 14.3535L7.20705 12H10V13C10.0003 13.2651 10.1058 13.5193 10.2932 13.7068C10.4807 13.8942 10.7349 13.9997 11 14H14C14.2651 13.9997 14.5193 13.8942 14.7068 13.7068C14.8942 13.5193 14.9997 13.2651 15 13V10C14.9997 9.73488 14.8942 9.4807 14.7068 9.29323C14.5193 9.10576 14.2651 9.0003 14 9ZM3 2H6V5H3V2ZM4.5 13.2929L2.70705 11.5L4.5 9.70705L6.29295 11.5L4.5 13.2929ZM11 13V10H14V13H11Z" fill="currentColor" style="fill-opacity:1"/>
</svg>
