<svg viewBox="0 0 16 16" fill="none" xmlns="http://www.w3.org/2000/svg">
<path d="M12.4004 5.56909C12.1876 4.55974 11.6342 3.65425 10.8331 3.00443C10.032 2.35461 9.03179 1.99997 8.00025 1.99997C6.96871 1.99997 5.96854 2.35461 5.16741 3.00443C4.36629 3.65425 3.81292 4.55974 3.6001 5.56909C2.8681 5.72162 2.21059 6.12067 1.73737 6.6996C1.26415 7.27852 1.00387 8.00227 1 8.74999V9.49999C1 9.6326 1.05268 9.75977 1.14645 9.85354C1.24021 9.94731 1.36739 9.99999 1.5 9.99999H7.5C7.63261 9.99999 7.75979 9.94731 7.85355 9.85354C7.94732 9.75977 8 9.6326 8 9.49999C8 9.36738 7.94732 9.2402 7.85355 9.14643C7.75979 9.05267 7.63261 8.99999 7.5 8.99999H2V8.75169C2.00253 8.1867 2.2167 7.64317 2.60027 7.22833C2.98384 6.81349 3.50894 6.55746 4.072 6.51074L4.47975 6.47874L4.5293 6.07274C4.63294 5.22514 5.04314 4.44476 5.68254 3.87878C6.32194 3.31279 7.14634 3.00034 8.00025 3.00034C8.85416 3.00034 9.67856 3.31279 10.318 3.87878C10.9574 4.44476 11.3676 5.22514 11.4712 6.07274L11.5205 6.47874L11.9282 6.51074C12.5075 6.55639 13.0466 6.82456 13.4324 7.25901C13.8183 7.69346 14.0209 8.26045 13.9979 8.84106C13.9749 9.42166 13.7279 9.9708 13.3088 10.3733C12.8897 10.7758 12.3311 11.0004 11.75 11H3.5C3.36739 11 3.24021 11.0527 3.14645 11.1464C3.05268 11.2402 3 11.3674 3 11.5C3 11.6326 3.05268 11.7598 3.14645 11.8535C3.24021 11.9473 3.36739 12 3.5 12H11.75C12.5552 12.0005 13.3319 11.7018 13.9294 11.162C14.5268 10.6223 14.9025 9.87979 14.9835 9.07868C15.0646 8.27756 14.8451 7.47491 14.3678 6.82642C13.8905 6.17794 13.1894 5.72985 12.4004 5.56909Z" fill="currentColor" style="fill-opacity:1"/>
<path d="M9.5 13H1.5C1.22386 13 1 13.2238 1 13.5C1 13.7761 1.22386 14 1.5 14H9.5C9.77614 14 10 13.7761 10 13.5C10 13.2238 9.77614 13 9.5 13Z" fill="currentColor" style="fill-opacity:1"/>
</svg>
