<svg viewBox="0 0 16 16" fill="none" xmlns="http://www.w3.org/2000/svg">
<path d="M13 9C13 9.98891 12.7068 10.9556 12.1573 11.7779C11.6079 12.6001 10.827 13.241 9.91341 13.6194C8.99978 13.9978 7.99445 14.0969 7.02455 13.9039C6.05464 13.711 5.16373 13.2348 4.46446 12.5355C3.7652 11.8363 3.289 10.9454 3.09607 9.97545C2.90314 9.00555 3.00216 8.00021 3.3806 7.08658C3.75904 6.17295 4.3999 5.39206 5.22215 4.84265C6.04439 4.29324 7.01109 4 8 4H10V6.5L13 3.5L10 0.5V3H8C6.81331 3 5.65327 3.35189 4.66658 4.01118C3.67988 4.67047 2.91085 5.60754 2.45672 6.7039C2.00259 7.80026 1.88377 9.00666 2.11529 10.1705C2.3468 11.3344 2.91824 12.4035 3.75736 13.2426C4.59647 14.0818 5.66557 14.6532 6.82946 14.8847C7.99334 15.1162 9.19974 14.9974 10.2961 14.5433C11.3925 14.0892 12.3295 13.3201 12.9888 12.3334C13.6481 11.3467 14 10.1867 14 9H13Z" fill="currentColor" style="fill-opacity:1"/>
<path d="M7.25 12.5C7.66421 12.5 8 12.1642 8 11.75C8 11.3358 7.66421 11 7.25 11C6.83578 11 6.5 11.3358 6.5 11.75C6.5 12.1642 6.83578 12.5 7.25 12.5Z" fill="currentColor" style="fill-opacity:1"/>
<path d="M5.75 10.5C6.16421 10.5 6.5 10.1642 6.5 9.75C6.5 9.33579 6.16421 9 5.75 9C5.33578 9 5 9.33579 5 9.75C5 10.1642 5.33578 10.5 5.75 10.5Z" fill="currentColor" style="fill-opacity:1"/>
<path d="M8.75 10.5C9.16421 10.5 9.5 10.1642 9.5 9.75C9.5 9.33579 9.16421 9 8.75 9C8.33578 9 8 9.33579 8 9.75C8 10.1642 8.33578 10.5 8.75 10.5Z" fill="currentColor" style="fill-opacity:1"/>
<path d="M8.2932 6.49992L6.50011 8.293L7.20701 8.9999L9.00009 7.20682L8.2932 6.49992Z" fill="currentColor" style="fill-opacity:1"/>
<path d="M11.2932 6.4999L9.50013 8.29298L10.207 8.99988L12.0001 7.2068L11.2932 6.4999Z" fill="currentColor" style="fill-opacity:1"/>
</svg>
