<svg viewBox="0 0 16 16" fill="none" xmlns="http://www.w3.org/2000/svg">
<path d="M13 9C13 9.98891 12.7068 10.9556 12.1573 11.7779C11.6079 12.6001 10.827 13.241 9.91341 13.6194C8.99978 13.9978 7.99445 14.0969 7.02455 13.9039C6.05464 13.711 5.16373 13.2348 4.46446 12.5355C3.7652 11.8363 3.289 10.9454 3.09607 9.97545C2.90314 9.00555 3.00216 8.00021 3.3806 7.08658C3.75904 6.17295 4.3999 5.39206 5.22215 4.84265C6.04439 4.29324 7.01109 4 8 4H10V6.5L13 3.5L10 0.5V3H8C6.81331 3 5.65327 3.35189 4.66658 4.01118C3.67988 4.67047 2.91085 5.60754 2.45672 6.7039C2.00259 7.80026 1.88377 9.00666 2.11529 10.1705C2.3468 11.3344 2.91824 12.4035 3.75736 13.2426C4.59647 14.0818 5.66557 14.6532 6.82946 14.8847C7.99334 15.1162 9.19974 14.9974 10.2961 14.5433C11.3925 14.0892 12.3295 13.3201 12.9888 12.3334C13.6481 11.3467 14 10.1867 14 9H13Z" fill="currentColor" style="fill-opacity:1"/>
<path d="M9.82 11.065C9.59901 11.071 9.37974 11.0247 9.18 10.93C9.00153 10.8413 8.84844 10.7089 8.735 10.545C8.616 10.3543 8.53611 10.1419 8.5 9.92C8.43844 9.64436 8.40991 9.36238 8.415 9.08C8.41047 8.79764 8.439 8.51573 8.5 8.24C8.54466 8.01658 8.63302 7.80418 8.76 7.615C8.87344 7.45115 9.02653 7.3187 9.205 7.23C9.40474 7.13528 9.62401 7.08902 9.845 7.095C10.0527 7.07919 10.261 7.11685 10.4501 7.20437C10.6392 7.2919 10.8026 7.42638 10.925 7.595C11.1806 8.03931 11.3022 8.54812 11.275 9.06C11.3022 9.57188 11.1806 10.0807 10.925 10.525C10.8051 10.7048 10.6397 10.8496 10.4455 10.9444C10.2514 11.0393 10.0355 11.0809 9.82 11.065ZM9.82 10.455C9.92144 10.4656 10.0237 10.445 10.1131 10.3958C10.2025 10.3467 10.2747 10.2714 10.32 10.18C10.4299 9.94404 10.4814 9.68506 10.47 9.425V8.735C10.482 8.4765 10.4305 8.21901 10.32 7.985C10.2647 7.89935 10.1888 7.82891 10.0993 7.78014C10.0098 7.73138 9.90945 7.70582 9.8075 7.70582C9.70555 7.70582 9.60522 7.73138 9.51569 7.78014C9.42616 7.82891 9.35029 7.89935 9.295 7.985C9.18644 8.2195 9.13667 8.47693 9.15 8.735V9.425C9.13724 9.68464 9.18697 9.94355 9.295 10.18C9.34175 10.2758 9.41791 10.3542 9.51236 10.4037C9.60681 10.4531 9.7146 10.4711 9.82 10.455Z" fill="currentColor" style="fill-opacity:1"/>
<path d="M6.31 8.71C6.48756 8.72762 6.66543 8.6796 6.81 8.575C6.86032 8.53413 6.9005 8.48217 6.92739 8.42319C6.95428 8.3642 6.96715 8.29979 6.965 8.235V8.195C6.96869 8.1261 6.95716 8.05723 6.93124 7.99328C6.90531 7.92933 6.86563 7.87188 6.815 7.825C6.69851 7.7295 6.55037 7.68131 6.4 7.69C6.24328 7.68691 6.08892 7.72854 5.955 7.81C5.81689 7.89551 5.70051 8.01189 5.615 8.15L5.15 7.735C5.21792 7.64548 5.2914 7.56031 5.37 7.48C5.45132 7.40235 5.54202 7.33516 5.64 7.28C5.74937 7.21799 5.86731 7.1725 5.99 7.145C6.13208 7.10878 6.27841 7.09197 6.425 7.095C6.60402 7.09414 6.78233 7.11769 6.955 7.165C7.10351 7.204 7.24285 7.27197 7.365 7.365C7.47699 7.44895 7.56917 7.55648 7.635 7.68C7.69643 7.8096 7.72722 7.9516 7.725 8.095C7.72589 8.20899 7.70729 8.32228 7.67 8.43C7.63169 8.52506 7.57759 8.61296 7.51 8.69C7.4422 8.76263 7.36278 8.82346 7.275 8.87C7.18488 8.91588 7.08903 8.94951 6.99 8.97V9C7.09945 9.01985 7.20552 9.0552 7.305 9.105C7.40119 9.15173 7.48771 9.21619 7.56 9.295C7.63204 9.37622 7.68955 9.46925 7.73 9.57C7.77175 9.68708 7.79208 9.81072 7.79 9.935C7.79374 10.0941 7.75946 10.2518 7.69 10.395C7.62277 10.536 7.52345 10.6593 7.4 10.755C7.26718 10.8574 7.11619 10.9337 6.955 10.98C6.76863 11.0363 6.57465 11.0633 6.38 11.06C6.2117 11.0623 6.04377 11.0438 5.88 11.005C5.74702 10.9704 5.61923 10.9183 5.5 10.85C5.39726 10.7875 5.30313 10.7119 5.22 10.625C5.13913 10.5396 5.06554 10.4476 5 10.35L5.535 9.945C5.57582 10.0187 5.62265 10.089 5.675 10.155C5.72749 10.2191 5.78798 10.2763 5.855 10.325C5.92363 10.3735 5.99959 10.4106 6.08 10.435C6.17282 10.4603 6.26881 10.4721 6.365 10.47C6.54451 10.4838 6.72274 10.4303 6.865 10.32C6.92167 10.2651 6.96611 10.1989 6.9954 10.1257C7.0247 10.0524 7.03819 9.97382 7.035 9.895V9.855C7.03677 9.77862 7.02101 9.70286 6.98895 9.63352C6.95688 9.56418 6.90934 9.50311 6.85 9.455C6.69246 9.35373 6.50699 9.30474 6.32 9.315H5.94V8.71H6.31Z" fill="currentColor" style="fill-opacity:1"/>
</svg>
