<svg viewBox="0 0 16 16" fill="none" xmlns="http://www.w3.org/2000/svg">
<path d="M13 9C13 9.98891 12.7068 10.9556 12.1573 11.7779C11.6079 12.6001 10.827 13.241 9.91341 13.6194C8.99978 13.9978 7.99445 14.0969 7.02455 13.9039C6.05464 13.711 5.16373 13.2348 4.46446 12.5355C3.7652 11.8363 3.289 10.9454 3.09607 9.97545C2.90314 9.00555 3.00216 8.00021 3.3806 7.08658C3.75904 6.17295 4.3999 5.39206 5.22215 4.84265C6.04439 4.29324 7.01109 4 8 4H10V6.5L13 3.5L10 0.5V3H8C6.81331 3 5.65327 3.35189 4.66658 4.01118C3.67988 4.67047 2.91085 5.60754 2.45672 6.7039C2.00259 7.80026 1.88377 9.00666 2.11529 10.1705C2.3468 11.3344 2.91824 12.4035 3.75736 13.2426C4.59647 14.0818 5.66557 14.6532 6.82946 14.8847C7.99334 15.1162 9.19974 14.9974 10.2961 14.5433C11.3925 14.0892 12.3295 13.3201 12.9888 12.3334C13.6481 11.3467 14 10.1867 14 9H13Z" fill="currentColor" style="fill-opacity:1"/>
<path d="M9.29 7.79H7.565L7.5 9.075C7.53926 8.99772 7.58266 8.92261 7.63 8.85C7.6758 8.78364 7.73144 8.72463 7.795 8.675C7.86158 8.62494 7.93589 8.5861 8.015 8.56C8.11239 8.53152 8.21355 8.51804 8.315 8.52C8.47196 8.51801 8.62793 8.54513 8.775 8.6C8.91421 8.65235 9.04044 8.73422 9.145 8.84C9.25357 8.95005 9.33863 9.08104 9.395 9.225C9.45602 9.38457 9.48655 9.55417 9.485 9.725C9.48769 9.90776 9.45545 10.0893 9.39 10.26C9.32952 10.4181 9.23573 10.5613 9.115 10.68C8.98829 10.8028 8.83647 10.8966 8.67 10.955C8.47657 11.0267 8.2712 11.0606 8.065 11.055C7.90665 11.0564 7.74875 11.0379 7.595 11C7.46503 10.9636 7.34057 10.9097 7.225 10.84C7.12288 10.7788 7.03024 10.703 6.95 10.615C6.87416 10.5292 6.80559 10.4372 6.745 10.34L7.275 9.935L7.41 10.14C7.4589 10.2039 7.51606 10.2611 7.58 10.31C7.64564 10.3574 7.71815 10.3945 7.795 10.42C7.88343 10.4501 7.97665 10.4637 8.07 10.46C8.16134 10.4672 8.25318 10.4549 8.3394 10.4239C8.42561 10.3928 8.50422 10.3438 8.57 10.28C8.68751 10.1409 8.74663 9.96172 8.735 9.78V9.75C8.74188 9.66443 8.73 9.57839 8.7002 9.49789C8.6704 9.41738 8.62339 9.34435 8.56245 9.28389C8.50151 9.22342 8.42811 9.17699 8.34738 9.14782C8.26664 9.11865 8.18051 9.10745 8.095 9.115C7.96078 9.10849 7.82742 9.13966 7.71 9.205C7.62008 9.25675 7.53905 9.32258 7.47 9.4L6.875 9.315L7.02 7.16H9.28L9.29 7.79Z" fill="currentColor" style="fill-opacity:1"/>
</svg>
