<svg viewBox="0 0 16 16" fill="none" xmlns="http://www.w3.org/2000/svg">
<path d="M13 9C13 9.98891 12.7068 10.9556 12.1573 11.7779C11.6079 12.6001 10.827 13.241 9.91341 13.6194C8.99978 13.9978 7.99445 14.0969 7.02455 13.9039C6.05464 13.711 5.16373 13.2348 4.46446 12.5355C3.7652 11.8363 3.289 10.9454 3.09607 9.97545C2.90314 9.00555 3.00216 8.00021 3.3806 7.08658C3.75904 6.17295 4.3999 5.39206 5.22215 4.84265C6.04439 4.29324 7.01109 4 8 4H10V6.5L13 3.5L10 0.5V3H8C6.81331 3 5.65327 3.35189 4.66658 4.01118C3.67988 4.67047 2.91085 5.60754 2.45672 6.7039C2.00259 7.80026 1.88377 9.00666 2.11529 10.1705C2.3468 11.3344 2.91824 12.4035 3.75736 13.2426C4.59647 14.0818 5.66557 14.6532 6.82946 14.8847C7.99334 15.1162 9.19974 14.9974 10.2961 14.5433C11.3925 14.0892 12.3295 13.3201 12.9888 12.3334C13.6481 11.3467 14 10.1867 14 9H13Z" fill="currentColor" style="fill-opacity:1"/>
<path d="M9.815 11.065C9.59407 11.0704 9.37492 11.0242 9.175 10.93C8.99747 10.8399 8.8447 10.7077 8.73 10.545C8.60426 10.3552 8.51601 10.143 8.47 9.92C8.41092 9.64397 8.38241 9.36227 8.385 9.08C8.38297 8.79775 8.41147 8.51612 8.47 8.24C8.51693 8.01728 8.60511 7.8053 8.73 7.615C8.8447 7.45228 8.99747 7.3201 9.175 7.23C9.37492 7.13581 9.59407 7.08958 9.815 7.095C10.0227 7.07919 10.231 7.11685 10.4201 7.20437C10.6092 7.2919 10.7726 7.42638 10.895 7.595C11.1528 8.03844 11.2745 8.54791 11.245 9.06C11.2745 9.57209 11.1528 10.0816 10.895 10.525C10.7773 10.701 10.6158 10.8433 10.4265 10.938C10.2371 11.0327 10.0264 11.0764 9.815 11.065ZM9.815 10.455C9.9158 10.461 10.0162 10.4384 10.1047 10.3897C10.1932 10.3411 10.2661 10.2684 10.315 10.18C10.4345 9.94613 10.4978 9.68762 10.5 9.425V8.735C10.5108 8.47711 10.4612 8.22027 10.355 7.985C10.2991 7.89937 10.2227 7.82903 10.1328 7.78034C10.0429 7.73165 9.94225 7.70615 9.84 7.70615C9.73774 7.70615 9.6371 7.73165 9.54717 7.78034C9.45725 7.82903 9.38089 7.89937 9.325 7.985C9.21884 8.22027 9.16918 8.47711 9.18 8.735V9.425C9.16969 9.68446 9.2193 9.94282 9.325 10.18C9.37269 10.2672 9.44392 10.3392 9.53056 10.3878C9.61719 10.4364 9.71576 10.4597 9.815 10.455Z" fill="currentColor" style="fill-opacity:1"/>
<path d="M5.315 11V10.41H6.315V7.815L5.385 8.315L5.11 7.785L6.27 7.135H7V10.385H7.89V11H5.315Z" fill="currentColor" style="fill-opacity:1"/>
</svg>
