<svg viewBox="0 0 16 16" fill="none" xmlns="http://www.w3.org/2000/svg">
<path d="M9.81311 14.7628L9.55501 13.7968C10.5268 13.5358 11.4174 13.0346 12.1449 12.3394C12.8724 11.6441 13.4134 10.7772 13.7182 9.81817C14.0229 8.85918 14.0817 7.83894 13.889 6.8513C13.6964 5.86365 13.2585 4.9403 12.6156 4.16616L13.3844 3.52676C14.1346 4.42993 14.6456 5.50725 14.8704 6.65961C15.0953 7.81197 15.0267 9.00237 14.6711 10.1213C14.3154 11.2402 13.6841 12.2518 12.8352 13.0628C11.9863 13.8739 10.9471 14.4585 9.81311 14.7628Z" fill="currentColor" style="fill-opacity:1"/>
<path d="M5.00001 14.5H4.00001V12.59L4.40186 12.5097C5.13086 12.364 6.00001 11.8103 6.00001 10V9.30911L4.00001 8.30911V7.19091L6.00001 6.19091V6.00001C6.00001 3.26636 7.96266 1.50001 11 1.50001H12V3.41001L11.5982 3.49036C10.8692 3.63601 10 4.18971 10 6.00001V6.19091L12 7.19091V8.30911L10 9.30911V10C10 12.7337 8.03736 14.5 5.00001 14.5ZM5.00001 13.5C7.46731 13.5 9.00001 12.159 9.00001 10V8.69091L10.8821 7.75001L9.00001 6.80911V6.00001C9.00001 3.71096 10.1927 2.90381 11 2.62001V2.50001C8.53271 2.50001 7.00001 3.84106 7.00001 6.00001V6.80911L5.11791 7.75001L7.00001 8.69091V10C7.00001 12.2891 5.80736 13.0962 5.00001 13.38V13.5Z" fill="currentColor" style="fill-opacity:1"/>
<path d="M2.61561 12.4733C1.86532 11.57 1.35426 10.4924 1.12948 9.3399C0.904693 8.18734 0.973395 6.99677 1.32926 5.87772C1.68513 4.75868 2.31674 3.74711 3.16596 2.93611C4.01517 2.1251 5.05473 1.54071 6.18896 1.23671L6.44701 2.20276C5.47494 2.46347 4.58403 2.96445 3.85625 3.6596C3.12847 4.35476 2.58719 5.22177 2.28221 6.18088C1.97722 7.13998 1.91832 8.16039 2.11093 9.14821C2.30353 10.136 2.74145 11.0596 3.38441 11.8339L2.61561 12.4733Z" fill="currentColor" style="fill-opacity:1"/>
</svg>
