<svg viewBox="0 0 16 16" fill="none" xmlns="http://www.w3.org/2000/svg">
<path d="M3.755 15C3.51184 15.0004 3.26972 14.9685 3.035 14.905C2.33045 14.7041 1.73271 14.235 1.37003 13.5985C1.00734 12.9619 0.908605 12.2085 1.09499 11.5L2.25999 7.08001C2.35192 6.7241 2.51377 6.39005 2.7361 6.09733C2.95844 5.80461 3.23681 5.55906 3.555 5.37501C3.86581 5.19498 4.20926 5.07842 4.56544 5.03207C4.92162 4.98572 5.28346 5.01051 5.63 5.10501C5.99748 5.20616 6.34002 5.38234 6.63605 5.62243C6.93207 5.86252 7.17516 6.16132 7.34999 6.50001H8.64999C8.82299 6.15891 9.06536 5.85774 9.36156 5.61579C9.65775 5.37384 10.0012 5.19645 10.37 5.09501C10.7165 5.00051 11.0784 4.97572 11.4346 5.02207C11.7907 5.06842 12.1342 5.18498 12.445 5.36501C12.763 5.54928 13.0412 5.79489 13.2636 6.08758C13.4859 6.38027 13.6478 6.71421 13.74 7.07001L14.905 11.5C15.0942 12.2106 14.9962 12.9671 14.6323 13.6061C14.2684 14.245 13.6677 14.7152 12.96 14.915C12.6135 15.0095 12.2516 15.0343 11.8954 14.9879C11.5393 14.9416 11.1958 14.825 10.885 14.645C10.5668 14.461 10.2884 14.2154 10.0661 13.9227C9.84377 13.63 9.68192 13.2959 9.58999 12.94L9.49999 12.5H6.49999L6.385 12.93C6.29307 13.2859 6.13122 13.62 5.90889 13.9127C5.68655 14.2054 5.40818 14.4509 5.09 14.635C4.68373 14.8693 4.22396 14.995 3.755 15ZM4.91499 6.00001C4.61326 6.00103 4.31696 6.08028 4.05499 6.23001C3.85134 6.34886 3.67318 6.50678 3.53075 6.6947C3.38831 6.88261 3.2844 7.09681 3.22499 7.32501L2.05999 11.745C1.93809 12.2004 1.99969 12.6854 2.23155 13.0958C2.46342 13.5063 2.84705 13.8094 3.29999 13.94C3.51875 13.9997 3.74716 14.0154 3.97202 13.9862C4.19688 13.957 4.41372 13.8835 4.61 13.77C4.81382 13.6514 4.99211 13.4935 5.13458 13.3056C5.27704 13.1176 5.38084 12.9033 5.44 12.675L5.74999 11.5H10.25L10.555 12.675C10.676 13.1354 10.9744 13.5291 11.385 13.77C11.5822 13.8834 11.7999 13.9568 12.0256 13.986C12.2512 14.0152 12.4804 13.9995 12.7 13.94C13.1535 13.8106 13.5376 13.5075 13.7688 13.0965C14.0001 12.6854 14.0598 12.1998 13.935 11.745L12.77 7.32501C12.7125 7.09669 12.6098 6.88218 12.4682 6.69413C12.3265 6.50607 12.1486 6.34827 11.945 6.23001C11.7478 6.11659 11.5301 6.04319 11.3044 6.01402C11.0788 5.98485 10.8496 6.00048 10.63 6.06001C10.3584 6.13742 10.1092 6.27851 9.90313 6.47157C9.69704 6.66462 9.53997 6.90406 9.44499 7.17001L9.32499 7.50001H6.675L6.55499 7.17001C6.45917 6.90371 6.30123 6.6641 6.09427 6.47105C5.88731 6.27801 5.63731 6.1371 5.36499 6.06001C5.21826 6.02044 5.06697 6.00027 4.91499 6.00001Z" fill="currentColor" style="fill-opacity:1"/>
<path d="M4.99999 10C4.80221 10 4.60887 9.94136 4.44442 9.83148C4.27998 9.72159 4.1518 9.56542 4.07612 9.38269C4.00043 9.19996 3.98062 8.9989 4.01921 8.80492C4.05779 8.61093 4.15304 8.43275 4.29289 8.2929C4.43274 8.15305 4.61092 8.05781 4.8049 8.01922C4.99889 7.98063 5.19995 8.00044 5.38268 8.07613C5.5654 8.15181 5.72158 8.27999 5.83146 8.44443C5.94135 8.60888 5.99999 8.80222 5.99999 9.00001C5.99999 9.26522 5.89464 9.51958 5.7071 9.70711C5.51957 9.89465 5.26521 10 4.99999 10Z" fill="currentColor" style="fill-opacity:1"/>
<path d="M11 8.50001C11.2761 8.50001 11.5 8.27615 11.5 8.00001C11.5 7.72386 11.2761 7.50001 11 7.50001C10.7239 7.50001 10.5 7.72386 10.5 8.00001C10.5 8.27615 10.7239 8.50001 11 8.50001Z" fill="currentColor" style="fill-opacity:1"/>
<path d="M11 10.5C11.2761 10.5 11.5 10.2761 11.5 10C11.5 9.72386 11.2761 9.50001 11 9.50001C10.7239 9.50001 10.5 9.72386 10.5 10C10.5 10.2761 10.7239 10.5 11 10.5Z" fill="currentColor" style="fill-opacity:1"/>
<path d="M9.99999 9.50001C10.2761 9.50001 10.5 9.27615 10.5 9.00001C10.5 8.72386 10.2761 8.50001 9.99999 8.50001C9.72385 8.50001 9.49999 8.72386 9.49999 9.00001C9.49999 9.27615 9.72385 9.50001 9.99999 9.50001Z" fill="currentColor" style="fill-opacity:1"/>
<path d="M12 9.50001C12.2761 9.50001 12.5 9.27615 12.5 9.00001C12.5 8.72386 12.2761 8.50001 12 8.50001C11.7239 8.50001 11.5 8.72386 11.5 9.00001C11.5 9.27615 11.7239 9.50001 12 9.50001Z" fill="currentColor" style="fill-opacity:1"/>
<path d="M6.87499 4.50001L6.12499 3.83501C6.3596 3.56899 6.64812 3.35594 6.9714 3.21001C7.29468 3.06407 7.64531 2.9886 7.99999 2.9886C8.35468 2.9886 8.70531 3.06407 9.02859 3.21001C9.35187 3.35594 9.64039 3.56899 9.87499 3.83501L9.12499 4.50001C8.98423 4.3404 8.81112 4.21256 8.61715 4.12501C8.42319 4.03745 8.21281 3.99216 7.99999 3.99216C7.78718 3.99216 7.5768 4.03745 7.38284 4.12501C7.18887 4.21256 7.01576 4.3404 6.87499 4.50001Z" fill="currentColor" style="fill-opacity:1"/>
<path d="M10.625 3.18501C10.2965 2.81258 9.89261 2.51431 9.44003 2.31001C8.98744 2.1057 8.49656 2.00004 7.99999 2.00004C7.50343 2.00004 7.01255 2.1057 6.55996 2.31001C6.10738 2.51431 5.70344 2.81258 5.37499 3.18501L4.62499 2.52501C5.04728 2.04618 5.56663 1.66268 6.14852 1.40001C6.73042 1.13733 7.36156 1.00148 7.99999 1.00148C8.63844 1.00148 9.26957 1.13733 9.85146 1.40001C10.4334 1.66268 10.9527 2.04618 11.375 2.52501L10.625 3.18501Z" fill="currentColor" style="fill-opacity:1"/>
</svg>
