<svg viewBox="0 0 16 16" fill="none" xmlns="http://www.w3.org/2000/svg">
<path d="M3.755 13C3.51184 13.0004 3.26972 12.9685 3.035 12.905C2.33045 12.7041 1.73271 12.235 1.37003 11.5984C1.00734 10.9619 0.908605 10.2085 1.09499 9.49998L2.25999 5.07998C2.35072 4.72227 2.51202 4.38629 2.7344 4.09178C2.95679 3.79727 3.23578 3.55016 3.555 3.36498C3.86581 3.18495 4.20926 3.06839 4.56544 3.02205C4.92162 2.9757 5.28346 3.00049 5.63 3.09498C5.99837 3.19727 6.34147 3.37498 6.63755 3.61684C6.93363 3.8587 7.17624 4.15943 7.34999 4.49998H8.64999C8.82299 4.15889 9.06536 3.85771 9.36156 3.61576C9.65775 3.37381 10.0012 3.19643 10.37 3.09498C10.7165 3.00049 11.0784 2.9757 11.4346 3.02205C11.7907 3.06839 12.1342 3.18495 12.445 3.36498C12.7627 3.54969 13.0406 3.79544 13.2629 4.08806C13.4851 4.38069 13.6473 4.7144 13.74 5.06998L14.905 9.49998C15.0942 10.2106 14.9962 10.9671 14.6323 11.606C14.2684 12.245 13.6677 12.7152 12.96 12.915C12.6135 13.0095 12.2516 13.0343 11.8954 12.9879C11.5393 12.9416 11.1958 12.825 10.885 12.645C10.5668 12.4609 10.2884 12.2154 10.0661 11.9227C9.84377 11.6299 9.68192 11.2959 9.58999 10.94L9.49999 10.5H6.49999L6.385 10.93C6.29307 11.2859 6.13122 11.6199 5.90889 11.9127C5.68655 12.2054 5.40818 12.4509 5.09 12.635C4.68373 12.8693 4.22396 12.995 3.755 13ZM4.91499 3.99998C4.61326 4.001 4.31696 4.08025 4.05499 4.22998C3.64442 4.47087 3.34599 4.86459 3.22499 5.32498L2.05999 9.74498C1.93809 10.2004 1.99969 10.6854 2.23155 11.0958C2.46342 11.5063 2.84705 11.8094 3.29999 11.94C3.51875 11.9996 3.74716 12.0153 3.97202 11.9862C4.19688 11.957 4.41372 11.8835 4.61 11.77C4.81435 11.652 4.99305 11.4944 5.13558 11.3063C5.27812 11.1183 5.38162 10.9036 5.44 10.675L5.74999 9.49998H10.25L10.555 10.675C10.6144 10.9032 10.7183 11.1174 10.8607 11.3053C11.0032 11.4932 11.1813 11.6511 11.385 11.77C11.5822 11.8834 11.7999 11.9568 12.0256 11.986C12.2512 12.0151 12.4804 11.9995 12.7 11.94C13.1535 11.8106 13.5376 11.5074 13.7688 11.0964C14.0001 10.6854 14.0598 10.1998 13.935 9.74498L12.77 5.32498C12.7119 5.09688 12.6091 4.8826 12.4675 4.69461C12.3258 4.50662 12.1482 4.34868 11.945 4.22998C11.7478 4.11656 11.5301 4.04317 11.3044 4.014C11.0788 3.98483 10.8496 4.00045 10.63 4.05998C10.3584 4.13739 10.1092 4.27849 9.90313 4.47154C9.69704 4.6646 9.53997 4.90404 9.44499 5.16998L9.32499 5.49998H6.675L6.55499 5.16998C6.45917 4.90368 6.30123 4.66407 6.09427 4.47103C5.88731 4.27798 5.63731 4.13707 5.36499 4.05998C5.21826 4.02041 5.06697 4.00024 4.91499 3.99998Z" fill="currentColor" style="fill-opacity:1"/>
<path d="M4.99999 7.99998C4.80221 7.99998 4.60887 7.94133 4.44442 7.83145C4.27998 7.72157 4.1518 7.56539 4.07612 7.38266C4.00043 7.19994 3.98062 6.99887 4.01921 6.80489C4.05779 6.61091 4.15304 6.43273 4.29289 6.29287C4.43274 6.15302 4.61092 6.05778 4.8049 6.01919C4.99889 5.98061 5.19995 6.00041 5.38268 6.0761C5.5654 6.15179 5.72158 6.27996 5.83146 6.44441C5.94135 6.60886 5.99999 6.8022 5.99999 6.99998C5.99999 7.2652 5.89464 7.51955 5.7071 7.70709C5.51957 7.89462 5.26521 7.99998 4.99999 7.99998Z" fill="currentColor" style="fill-opacity:1"/>
<path d="M11 6.49998C11.2761 6.49998 11.5 6.27612 11.5 5.99998C11.5 5.72384 11.2761 5.49998 11 5.49998C10.7239 5.49998 10.5 5.72384 10.5 5.99998C10.5 6.27612 10.7239 6.49998 11 6.49998Z" fill="currentColor" style="fill-opacity:1"/>
<path d="M11 8.49998C11.2761 8.49998 11.5 8.27612 11.5 7.99998C11.5 7.72384 11.2761 7.49998 11 7.49998C10.7239 7.49998 10.5 7.72384 10.5 7.99998C10.5 8.27612 10.7239 8.49998 11 8.49998Z" fill="currentColor" style="fill-opacity:1"/>
<path d="M9.99999 7.49998C10.2761 7.49998 10.5 7.27612 10.5 6.99998C10.5 6.72384 10.2761 6.49998 9.99999 6.49998C9.72385 6.49998 9.49999 6.72384 9.49999 6.99998C9.49999 7.27612 9.72385 7.49998 9.99999 7.49998Z" fill="currentColor" style="fill-opacity:1"/>
<path d="M12 7.49998C12.2761 7.49998 12.5 7.27612 12.5 6.99998C12.5 6.72384 12.2761 6.49998 12 6.49998C11.7239 6.49998 11.5 6.72384 11.5 6.99998C11.5 7.27612 11.7239 7.49998 12 7.49998Z" fill="currentColor" style="fill-opacity:1"/>
</svg>
