<svg viewBox="0 0 16 16" fill="none" xmlns="http://www.w3.org/2000/svg">
<path id="icon" d="M11.5 11.5H11.4342L11.916 10.7774C11.9707 10.6952 12 10.5987 12 10.5V6.00026C12 1.05736 8.03999 1.00026 7.99999 1.00026C7.86743 1.00026 7.74029 1.0529 7.64652 1.14661C7.55276 1.24033 7.50006 1.36744 7.49999 1.50001L7.49974 2.50001H6.99999C6.89578 2.49992 6.79418 2.53253 6.70949 2.59326L3.20949 5.09326C3.12246 5.1554 3.05765 5.2438 3.02457 5.34549C2.99149 5.44719 2.99188 5.5568 3.02569 5.65826L3.52569 7.15826C3.56255 7.26943 3.63736 7.36408 3.73701 7.42563C3.83665 7.48718 3.95478 7.51171 4.07069 7.49491L6.50569 7.14701L4.57594 10.235C4.52493 10.3166 4.49855 10.4112 4.49998 10.5074C4.50141 10.6037 4.53058 10.6974 4.58399 10.7775L5.06574 11.5H4.99999C4.6023 11.5004 4.22102 11.6586 3.93981 11.9398C3.6586 12.221 3.50043 12.6023 3.49999 13V15H13V13C12.9996 12.6023 12.8414 12.221 12.5602 11.9398C12.279 11.6586 11.8977 11.5004 11.5 11.5V11.5ZM7.92404 6.76501C7.97457 6.68419 8.00095 6.59061 8.00007 6.4953C7.99918 6.39999 7.97108 6.30692 7.91906 6.22705C7.86704 6.14718 7.79327 6.08385 7.70646 6.04451C7.61964 6.00517 7.52339 5.99146 7.42904 6.00501L4.34214 6.44596L4.09089 5.69206L7.15999 3.50026H7.99949C8.13205 3.50026 8.25919 3.44761 8.35296 3.3539C8.44672 3.26018 8.49942 3.13307 8.49949 3.00051L8.49999 2.06446C9.25064 2.23181 10.6083 2.83501 10.93 5.00001H9.49999V6.00001H11V7.00001H9.49999V8.00001H11V9.00001H9.49999V10H11V10.3487L10.2324 11.5H6.26739L5.59499 10.4912L7.92404 6.76501ZM12 14H4.49999V13C4.50011 12.8674 4.55283 12.7403 4.64657 12.6466C4.74031 12.5528 4.86742 12.5001 4.99999 12.5H11.5C11.6326 12.5001 11.7597 12.5528 11.8535 12.6465C11.9472 12.7403 11.9999 12.8674 12 13V14Z" fill="currentColor" style="fill-opacity:1"/>
</svg>
