<svg viewBox="0 0 16 16" fill="none" xmlns="http://www.w3.org/2000/svg">
<g id="Icons / Gateway--public" clip-path="url(#clip0_0_450)">
<g id="icon">
<path d="M9.5 7.00001H7V6.00001C7 5.73479 7.10536 5.48044 7.2929 5.2929C7.48043 5.10537 7.73479 5.00001 8 5.00001C8.26522 5.00001 8.51957 5.10537 8.70711 5.2929C8.89464 5.48044 9 5.73479 9 6.00001H10C10 5.46958 9.78929 4.96087 9.41422 4.5858C9.03914 4.21072 8.53044 4.00001 8 4.00001C7.46957 4.00001 6.96086 4.21072 6.58579 4.5858C6.21072 4.96087 6 5.46958 6 6.00001V7.13916C5.8485 7.22621 5.72255 7.35158 5.63479 7.50267C5.54704 7.65376 5.50055 7.82528 5.5 8.00001V10.5C5.50031 10.7651 5.60576 11.0193 5.79323 11.2068C5.9807 11.3943 6.23488 11.4997 6.5 11.5H9.5C9.76513 11.4997 10.0193 11.3943 10.2068 11.2068C10.3942 11.0193 10.4997 10.7651 10.5 10.5V8.00001C10.4997 7.73489 10.3942 7.48071 10.2068 7.29324C10.0193 7.10577 9.76513 7.00031 9.5 7.00001ZM9.5 10.5H6.5V8.00001H9.5V10.5Z" fill="currentColor" style="fill-opacity:1"/>
<path d="M15.2071 8.70706C15.2999 8.61422 15.3736 8.50399 15.4239 8.38268C15.4741 8.26136 15.5 8.13133 15.5 8.00001C15.5 7.86869 15.4741 7.73866 15.4239 7.61734C15.3736 7.49603 15.2999 7.3858 15.2071 7.29296L12.3136 4.39966L13.7639 2.96826C13.9778 3.02126 14.2032 3.0022 14.4052 2.91402C14.6071 2.82584 14.7743 2.67349 14.8808 2.48058C14.9874 2.28768 15.0272 2.06501 14.9943 1.84713C14.9614 1.62924 14.8574 1.42832 14.6986 1.27552C14.5399 1.12273 14.3351 1.02661 14.1161 1.00207C13.8971 0.97753 13.6761 1.02595 13.4875 1.13981C13.2988 1.25367 13.153 1.42661 13.0726 1.6318C12.9923 1.83699 12.9819 2.06296 13.0431 2.27466L11.6065 3.69241L8.70705 0.79296C8.61421 0.700089 8.50399 0.626417 8.38267 0.576154C8.26135 0.525891 8.13132 0.50002 8 0.50002C7.86868 0.50002 7.73865 0.525891 7.61734 0.576154C7.49602 0.626417 7.38579 0.700089 7.29295 0.79296L4.39965 3.68631L2.9684 2.23586C3.02137 2.02193 3.00227 1.7965 2.91404 1.59454C2.82581 1.39258 2.6734 1.22538 2.48045 1.11889C2.2875 1.01239 2.0648 0.972549 1.84689 1.00554C1.62898 1.03854 1.42806 1.14252 1.27528 1.30137C1.12251 1.46021 1.02643 1.66503 1.00194 1.88406C0.97746 2.10309 1.02594 2.32407 1.13987 2.51273C1.2538 2.70138 1.42681 2.84717 1.63205 2.92746C1.83729 3.00776 2.0633 3.01807 2.275 2.95681L3.6925 4.39356L0.792952 7.29296C0.700081 7.3858 0.62641 7.49603 0.576146 7.61734C0.525883 7.73866 0.500012 7.86869 0.500012 8.00001C0.500012 8.13133 0.525883 8.26136 0.576146 8.38268C0.62641 8.50399 0.700081 8.61422 0.792952 8.70706L3.6924 11.6065L2.275 13.0432C2.06378 12.9824 1.83839 12.993 1.63377 13.0732C1.42916 13.1535 1.25674 13.2991 1.14324 13.4873C1.02975 13.6756 0.981517 13.896 1.00602 14.1144C1.03052 14.3329 1.1264 14.5371 1.27878 14.6955C1.43116 14.8539 1.63154 14.9577 1.84886 14.9906C2.06618 15.0236 2.28831 14.9839 2.48081 14.8778C2.67331 14.7717 2.82544 14.6051 2.91361 14.4037C3.00178 14.2024 3.02108 13.9776 2.9685 13.7642L4.39975 12.3137L7.29305 15.2071C7.38589 15.2999 7.49612 15.3736 7.61744 15.4239C7.73875 15.4741 7.86878 15.5 8.0001 15.5C8.13142 15.5 8.26145 15.4741 8.38277 15.4239C8.50409 15.3736 8.61431 15.2999 8.70715 15.2071L11.6066 12.3076L13.0432 13.7254C12.9824 13.9366 12.993 14.1621 13.0733 14.3667C13.1536 14.5714 13.2992 14.7438 13.4875 14.8573C13.6758 14.9708 13.8963 15.019 14.1147 14.9945C14.3332 14.9699 14.5375 14.874 14.6959 14.7215C14.8543 14.5691 14.958 14.3687 14.991 14.1513C15.0239 13.9339 14.9842 13.7118 14.878 13.5193C14.7718 13.3267 14.6051 13.1746 14.4037 13.0865C14.2023 12.9984 13.9775 12.9791 13.764 13.0318L12.3137 11.6004L15.2071 8.70706ZM8 14.5L1.5 8.00001L8 1.50001L14.5 8.00001L8 14.5Z" fill="currentColor" style="fill-opacity:1"/>
</g>
</g>
<defs>
<clipPath id="clip0_0_450">
<rect width="16" height="16" fill="currentColor" style="fill-opacity:1"/>
</clipPath>
</defs>
</svg>
