<svg viewBox="0 0 16 16" fill="none" xmlns="http://www.w3.org/2000/svg">
<g id="Icons / Gateway--vpn" clip-path="url(#clip0_0_430)">
<g id="icon">
<path d="M10 7.13916V6.00001C10 5.46958 9.78928 4.96087 9.41421 4.5858C9.03914 4.21072 8.53043 4.00001 7.99999 4.00001C7.46956 4.00001 6.96085 4.21072 6.58578 4.5858C6.21071 4.96087 5.99999 5.46958 5.99999 6.00001V7.13916C5.84849 7.22621 5.72255 7.35158 5.63479 7.50267C5.54703 7.65376 5.50054 7.82528 5.49999 8.00001V10.5C5.5003 10.7651 5.60575 11.0193 5.79322 11.2068C5.98069 11.3943 6.23487 11.4997 6.49999 11.5H9.5C9.76512 11.4997 10.0193 11.3943 10.2068 11.2068C10.3942 11.0193 10.4997 10.7651 10.5 10.5V8.00001C10.4994 7.82528 10.453 7.65376 10.3652 7.50267C10.2774 7.35158 10.1515 7.22621 10 7.13916ZM7.99999 5.00001C8.26512 5.00031 8.51929 5.10577 8.70677 5.29324C8.89424 5.48071 8.99969 5.73489 9 6.00001V7.00001H6.99999V6.00001C7.0003 5.73489 7.10575 5.48071 7.29322 5.29324C7.48069 5.10577 7.73487 5.00031 7.99999 5.00001ZM9.5 10.5H6.49999V8.00001H9.5V10.5Z" fill="currentColor" style="fill-opacity:1"/>
<path d="M15.207 8.70706C15.2999 8.61422 15.3736 8.50399 15.4239 8.38268C15.4741 8.26136 15.5 8.13133 15.5 8.00001C15.5 7.86869 15.4741 7.73866 15.4239 7.61734C15.3736 7.49603 15.2999 7.3858 15.207 7.29296L12.3136 4.39966L13.7639 2.96826C13.9778 3.02126 14.2032 3.0022 14.4051 2.91402C14.6071 2.82584 14.7743 2.67349 14.8808 2.48058C14.9873 2.28768 15.0272 2.06501 14.9943 1.84713C14.9614 1.62924 14.8574 1.42832 14.6986 1.27552C14.5399 1.12273 14.3351 1.02661 14.1161 1.00207C13.8971 0.97753 13.6761 1.02595 13.4875 1.13981C13.2988 1.25367 13.153 1.42661 13.0726 1.6318C12.9923 1.83699 12.9819 2.06296 13.0431 2.27466L11.6064 3.69241L8.70705 0.79296C8.61421 0.700089 8.50398 0.626417 8.38266 0.576154C8.26134 0.525891 8.13131 0.50002 7.99999 0.50002C7.86868 0.50002 7.73865 0.525891 7.61733 0.576154C7.49601 0.626417 7.38578 0.700089 7.29294 0.79296L4.39964 3.68631L2.96839 2.23586C3.02137 2.02193 3.00226 1.7965 2.91403 1.59454C2.8258 1.39258 2.67339 1.22538 2.48044 1.11889C2.28749 1.01239 2.06479 0.972549 1.84688 1.00554C1.62898 1.03854 1.42805 1.14252 1.27528 1.30137C1.1225 1.46021 1.02642 1.66503 1.00194 1.88406C0.977452 2.10309 1.02594 2.32407 1.13987 2.51273C1.2538 2.70138 1.4268 2.84717 1.63204 2.92746C1.83729 3.00776 2.06329 3.01807 2.27499 2.95681L3.69249 4.39356L0.792945 7.29296C0.700073 7.3858 0.626402 7.49603 0.576139 7.61734C0.525875 7.73866 0.500005 7.86869 0.500005 8.00001C0.500005 8.13133 0.525875 8.26136 0.576139 8.38268C0.626402 8.50399 0.700073 8.61422 0.792945 8.70706L3.69239 11.6065L2.27499 13.0432C2.06377 12.9824 1.83838 12.993 1.63376 13.0732C1.42915 13.1535 1.25673 13.2991 1.14324 13.4873C1.02974 13.6756 0.981509 13.896 1.00601 14.1144C1.03052 14.3329 1.12639 14.5371 1.27877 14.6955C1.43115 14.8539 1.63153 14.9577 1.84886 14.9906C2.06618 15.0236 2.2883 14.9839 2.4808 14.8778C2.6733 14.7717 2.82543 14.6051 2.9136 14.4037C3.00177 14.2024 3.02107 13.9776 2.96849 13.7642L4.39974 12.3137L7.29304 15.2071C7.38588 15.2999 7.49611 15.3736 7.61743 15.4239C7.73875 15.4741 7.86878 15.5 8.00009 15.5C8.13141 15.5 8.26144 15.4741 8.38276 15.4239C8.50408 15.3736 8.6143 15.2999 8.70714 15.2071L11.6065 12.3076L13.0432 13.7254C12.9824 13.9366 12.993 14.1621 13.0733 14.3667C13.1536 14.5714 13.2992 14.7438 13.4875 14.8573C13.6758 14.9708 13.8963 15.019 14.1147 14.9945C14.3332 14.9699 14.5375 14.874 14.6959 14.7215C14.8543 14.5691 14.958 14.3687 14.991 14.1513C15.0239 13.9339 14.9842 13.7118 14.878 13.5193C14.7718 13.3267 14.6051 13.1746 14.4037 13.0865C14.2023 12.9984 13.9774 12.9791 13.764 13.0318L12.3137 11.6004L15.207 8.70706ZM7.99999 14.5L1.49999 8.00001L7.99999 1.50001L14.5 8.00001L7.99999 14.5Z" fill="currentColor" style="fill-opacity:1"/>
</g>
</g>
<defs>
<clipPath id="clip0_0_430">
<rect width="16" height="16" fill="currentColor" style="fill-opacity:1"/>
</clipPath>
</defs>
</svg>
