<svg viewBox="0 0 16 16" fill="none" xmlns="http://www.w3.org/2000/svg">
<g id="Icons / Gateway" clip-path="url(#clip0_0_486)">
<path id="icon" d="M15.5 8.00001C15.5004 7.86864 15.4747 7.73849 15.4244 7.61712C15.3741 7.49575 15.3002 7.38557 15.2071 7.29296L12.3106 4.39651L13.7445 2.96266C13.9571 3.01966 14.1826 3.0049 14.386 2.92067C14.5894 2.83645 14.7593 2.68746 14.8694 2.49682C14.9795 2.30618 15.0236 2.08454 14.9949 1.86629C14.9662 1.64803 14.8662 1.44535 14.7106 1.28968C14.5549 1.13401 14.3522 1.03406 14.134 1.00532C13.9157 0.97658 13.6941 1.02066 13.5034 1.13073C13.3128 1.2408 13.1638 1.41071 13.0795 1.61409C12.9953 1.81747 12.9805 2.04297 13.0375 2.25561L11.6035 3.68946L8.70706 0.79296C8.61422 0.700089 8.50399 0.626417 8.38268 0.576154C8.26136 0.525891 8.13133 0.50002 8.00001 0.50002C7.86869 0.50002 7.73866 0.525891 7.61734 0.576154C7.49603 0.626417 7.3858 0.700089 7.29296 0.79296L4.39651 3.68946L2.96251 2.25561C3.01949 2.04297 3.00472 1.81747 2.92048 1.61409C2.83624 1.41071 2.68724 1.2408 2.49659 1.13073C2.30594 1.02066 2.0843 0.97658 1.86605 1.00532C1.64779 1.03406 1.44512 1.13401 1.28946 1.28968C1.1338 1.44535 1.03386 1.64803 1.00514 1.86629C0.976418 2.08454 1.02052 2.30618 1.1306 2.49682C1.24068 2.68746 1.4106 2.83645 1.61399 2.92067C1.81738 3.0049 2.04288 3.01966 2.25551 2.96266L3.68946 4.39651L0.79296 7.29296C0.700089 7.3858 0.626417 7.49603 0.576154 7.61734C0.525891 7.73866 0.50002 7.86869 0.50002 8.00001C0.50002 8.13133 0.525891 8.26136 0.576154 8.38268C0.626417 8.50399 0.700089 8.61422 0.79296 8.70706L3.68946 11.6035L2.25551 13.0374C2.04288 12.9804 1.81738 12.9951 1.61399 13.0793C1.4106 13.1636 1.24068 13.3126 1.1306 13.5032C1.02052 13.6938 0.976418 13.9155 1.00514 14.1337C1.03386 14.352 1.1338 14.5547 1.28946 14.7103C1.44512 14.866 1.64779 14.966 1.86605 14.9947C2.0843 15.0234 2.30594 14.9794 2.49659 14.8693C2.68724 14.7592 2.83624 14.5893 2.92048 14.3859C3.00472 14.1825 3.01949 13.957 2.96251 13.7444L4.39651 12.3106L7.29296 15.2071C7.3858 15.2999 7.49603 15.3736 7.61734 15.4239C7.73866 15.4741 7.86869 15.5 8.00001 15.5C8.13133 15.5 8.26136 15.4741 8.38268 15.4239C8.50399 15.3736 8.61422 15.2999 8.70706 15.2071L11.6035 12.3106L13.0375 13.7444C12.9805 13.957 12.9953 14.1825 13.0795 14.3859C13.1638 14.5893 13.3128 14.7592 13.5034 14.8693C13.6941 14.9794 13.9157 15.0234 14.134 14.9947C14.3522 14.966 14.5549 14.866 14.7106 14.7103C14.8662 14.5547 14.9662 14.352 14.9949 14.1337C15.0236 13.9155 14.9795 13.6938 14.8694 13.5032C14.7593 13.3126 14.5894 13.1636 14.386 13.0793C14.1826 12.9951 13.9571 12.9804 13.7445 13.0374L12.3106 11.6035L15.2071 8.70706C15.3002 8.61443 15.3741 8.50425 15.4244 8.38288C15.4747 8.26152 15.5004 8.13138 15.5 8.00001V8.00001ZM11.6035 10.8965L10.2071 9.50001L9.50001 10.2071L10.8965 11.6035L8.00001 14.5L5.10351 11.6035L6.50001 10.2071L5.79296 9.50001L4.39651 10.8965L1.50001 8.00001L4.39626 5.10326L5.79296 6.50001L6.50001 5.79296L5.10326 4.39626L8.00001 1.50001L10.8968 4.39626L9.50001 5.79296L10.2071 6.50001L11.6038 5.10326L14.5 8.00001L11.6035 10.8965Z" fill="currentColor" style="fill-opacity:1"/>
</g>
<defs>
<clipPath id="clip0_0_486">
<rect width="16" height="16" fill="currentColor" style="fill-opacity:1"/>
</clipPath>
</defs>
</svg>
