<svg viewBox="0 0 16 16" fill="none" xmlns="http://www.w3.org/2000/svg">
<path d="M14 10.9923C14 10.7626 13.9716 10.5397 13.9225 10.3246L15 9.911L14.6417 8.97745L13.5385 9.4009C13.312 9.04105 13.0134 8.7313 12.6601 8.4956L13.1448 7.40675L12.2313 7L11.746 8.09005C11.507 8.02855 11.258 7.99235 11 7.99235C10.742 7.99235 10.493 8.02855 10.254 8.09005L9.7687 7L8.85515 7.40675L9.3399 8.4956C8.98655 8.7313 8.68795 9.04105 8.4615 9.4009L7.35835 8.97745L7 9.911L8.0775 10.3246C8.02835 10.5397 8 10.7626 8 10.9923C8 11.2121 8.02535 11.426 8.0704 11.6325L7 12.109L7.40675 13.0225L8.44675 12.5595C8.66775 12.9181 8.9597 13.2282 9.3063 13.4662L8.85515 14.6416L9.7887 15L10.2167 13.885C10.4669 13.9529 10.7287 13.9923 11 13.9923C11.2713 13.9923 11.5331 13.9529 11.7833 13.885L12.2113 15L13.1448 14.6416L12.6937 13.4662C13.0403 13.2282 13.3323 12.9181 13.5533 12.5595L14.5933 13.0225L15 12.109L13.9296 11.6325C13.9746 11.426 14 11.2121 14 10.9923ZM11 12.9923C9.89695 12.9923 9 12.0951 9 10.9923C9 9.88955 9.89695 8.99235 11 8.99235C12.103 8.99235 13 9.88955 13 10.9923C13 12.0951 12.103 12.9923 11 12.9923Z" fill="currentColor" style="fill-opacity:1"/>
<path d="M6.7355 7.4426L7.4749 8.182L8.182 7.4749L7.4426 6.73555C7.6999 6.37445 7.8781 5.95475 7.95485 5.50005H9V4.50005H7.95485C7.8781 4.04535 7.69995 3.62565 7.4426 3.26455L8.182 2.52515L7.4749 1.81805L6.7355 2.55745C6.3744 2.30015 5.9547 2.12195 5.5 2.0452V1.00005H4.5V2.0452C4.0453 2.12195 3.6256 2.30015 3.2645 2.55745L2.5251 1.81805L1.818 2.52515L2.5574 3.26455C2.3001 3.62565 2.1219 4.04535 2.04515 4.50005H1V5.50005H2.04515C2.1219 5.95475 2.30005 6.37445 2.5574 6.73555L1.818 7.4749L2.5251 8.182L3.2645 7.4426C3.6256 7.6999 4.0453 7.8781 4.5 7.95485V9H5.5V7.95485C5.9547 7.8781 6.3744 7.69995 6.7355 7.4426ZM3 5C3 3.8972 3.89695 3 5 3C6.10305 3 7 3.8972 7 5C7 6.1028 6.10305 7 5 7C3.89695 7 3 6.1028 3 5Z" fill="currentColor" style="fill-opacity:1"/>
</svg>
