<svg viewBox="0 0 32 32" fill="none" xmlns="http://www.w3.org/2000/svg">
<g id="Gear" clip-path="url(#clip0_0_10)">
<path id="icon" d="M18.958 31.3599H13.043C12.844 31.3599 12.683 31.1989 12.683 30.9999V27.3669L10.315 26.3769L7.739 28.9519C7.598 29.0929 7.371 29.0929 7.23 28.9519L3.048 24.7699C2.907 24.6289 2.907 24.4009 3.048 24.2599L5.616 21.6919L4.642 19.3169H1C0.801 19.3169 0.64 19.1559 0.64 18.9569V13.0419C0.64 12.8429 0.801 12.6819 1 12.6819H4.632L5.623 10.3139L3.048 7.73894C2.907 7.59794 2.907 7.37094 3.048 7.22994L7.23 3.04794C7.298 2.97994 7.389 2.94194 7.485 2.94194C7.581 2.94194 7.672 2.97994 7.739 3.04694L10.307 5.61594L12.682 4.64094V0.999939C12.682 0.800939 12.843 0.639939 13.042 0.639939H18.957C19.156 0.639939 19.317 0.800939 19.317 0.999939V4.63194L21.684 5.62294L24.259 3.04794C24.4 2.90694 24.628 2.90694 24.769 3.04794L28.952 7.22994C29.019 7.29694 29.057 7.38894 29.057 7.48394C29.057 7.57894 29.019 7.67094 28.952 7.73794L26.383 10.3059L27.358 12.6809H31C31.199 12.6809 31.36 12.8419 31.36 13.0409V18.9559C31.36 19.1549 31.199 19.3159 31 19.3159H27.367L26.377 21.6839L28.953 24.2589C29.02 24.3259 29.058 24.4179 29.058 24.5139C29.058 24.6099 29.02 24.7019 28.953 24.7689L24.77 28.9509C24.629 29.0919 24.401 29.0919 24.26 28.9509L21.692 26.3829L19.318 27.3569V30.9999C19.318 31.1989 19.157 31.3599 18.958 31.3599ZM13.403 30.6399H18.598V27.1169C18.598 26.9709 18.687 26.8399 18.822 26.7839L21.641 25.6279C21.775 25.5709 21.929 25.6039 22.033 25.7059L24.516 28.1889L28.19 24.5159L25.698 22.0249C25.595 21.9209 25.564 21.7659 25.621 21.6309L26.797 18.8189C26.853 18.6849 26.984 18.5969 27.129 18.5969H30.641V13.4029H27.119C26.973 13.4029 26.842 13.3149 26.786 13.1799L25.629 10.3599C25.574 10.2259 25.605 10.0709 25.707 9.96894L28.191 7.48594L24.517 3.81294L22.026 6.30394C21.922 6.40694 21.766 6.43794 21.632 6.38194L18.82 5.20594C18.686 5.14994 18.598 5.01894 18.598 4.87394V1.35994H13.403V4.88294C13.403 5.02894 13.315 5.16094 13.18 5.21594L10.36 6.37294C10.225 6.42794 10.071 6.39694 9.969 6.29394L7.485 3.81194L3.812 7.48394L6.303 9.97594C6.407 10.0789 6.437 10.2349 6.381 10.3699L5.204 13.1819C5.148 13.3159 5.017 13.4029 4.872 13.4029H1.36V18.5969H4.884C5.03 18.5969 5.162 18.6859 5.217 18.8209L6.374 21.6409C6.429 21.7759 6.398 21.9299 6.295 22.0329L3.812 24.5159L7.485 28.1889L9.977 25.6979C10.08 25.5939 10.237 25.5649 10.37 25.6209L13.182 26.7969C13.316 26.8529 13.403 26.9839 13.403 27.1289V30.6399ZM16 23.3599C11.942 23.3599 8.64 20.0579 8.64 15.9999C8.64 11.9419 11.942 8.63994 16 8.63994C20.059 8.63994 23.36 11.9419 23.36 15.9999C23.36 20.0589 20.059 23.3599 16 23.3599ZM16 9.35994C12.339 9.35994 9.36 12.3389 9.36 15.9999C9.36 19.6609 12.339 22.6399 16 22.6399C19.661 22.6399 22.64 19.6609 22.64 15.9999C22.64 12.3389 19.661 9.35994 16 9.35994Z" fill="currentColor" style="fill-opacity:1"/>
</g>
<defs>
<clipPath id="clip0_0_10">
<rect width="32" height="32" fill="currentColor" style="fill-opacity:1"/>
</clipPath>
</defs>
</svg>
