<svg viewBox="0 0 16 16" fill="none" xmlns="http://www.w3.org/2000/svg">
<path d="M2 10V11H4.293L1 14.293L1.707 15L5 11.707V14H6V10H2Z" fill="currentColor" style="fill-opacity:1"/>
<path d="M11.75 2H4.25L0.8579 6.5227L3.005 9L3.7607 8.345L2.595 7H5.2227L8 11.4433L10.7772 7H13.405L7.90625 13.346L8.6621 14L15.1421 6.5227L11.75 2ZM2.5 6L4.75 3H7.0979L5.2229 6H2.5ZM8 3.44335L9.5979 6H6.4021L8 3.44335ZM8 9.55665L6.4022 7H9.5978L8 9.55665ZM10.7771 6L8.9021 3H11.25L13.5 6H10.7771Z" fill="currentColor" style="fill-opacity:1"/>
</svg>
