<svg viewBox="0 0 16 16" fill="none" xmlns="http://www.w3.org/2000/svg">
<path id="icon" d="M9.00001 2V3H12.293L8.44876 6.84425C7.64233 6.21769 6.62741 5.92207 5.61066 6.01757C4.59391 6.11307 3.65179 6.59251 2.97614 7.35828C2.30049 8.12404 1.94211 9.11854 1.97398 10.1393C2.00586 11.16 2.42559 12.1302 3.1477 12.8523C3.86982 13.5744 4.84002 13.9941 5.86074 14.026C6.88147 14.0579 7.87597 13.6995 8.64173 13.0239C9.40749 12.3482 9.88694 11.4061 9.98244 10.3893C10.0779 9.3726 9.78231 8.35768 9.15576 7.55125L13 3.70705V7H14V2H9.00001ZM6.00001 13C5.40666 13 4.82664 12.8241 4.33329 12.4944C3.83995 12.1648 3.45543 11.6962 3.22837 11.1481C3.0013 10.5999 2.94189 9.99667 3.05765 9.41473C3.17341 8.83279 3.45913 8.29824 3.87869 7.87868C4.29824 7.45912 4.83279 7.1734 5.41473 7.05764C5.99668 6.94189 6.59988 7.0013 7.14806 7.22836C7.69623 7.45542 8.16477 7.83994 8.49441 8.33329C8.82406 8.82664 9.00001 9.40666 9.00001 10C8.99913 10.7954 8.68278 11.5579 8.12036 12.1204C7.55794 12.6828 6.79539 12.9991 6.00001 13V13Z" fill="currentColor" style="fill-opacity:1"/>
</svg>
