<svg viewBox="0 0 16 16" fill="none" xmlns="http://www.w3.org/2000/svg">
<path id="icon-arrow" d="M8.49999 9.96537C9.50952 9.83818 10.4326 9.33105 11.0814 8.54721C11.7302 7.76338 12.0559 6.76176 11.9921 5.74625C11.9284 4.73074 11.4801 3.77769 10.7384 3.0811C9.99676 2.38451 9.0175 1.99674 7.99999 1.99674C6.98249 1.99674 6.00323 2.38451 5.26156 3.0811C4.51989 3.77769 4.07156 4.73074 4.00785 5.74625C3.94413 6.76176 4.26981 7.76338 4.91858 8.54721C5.56736 9.33105 6.49047 9.83818 7.49999 9.96537V11H4.99999V12H7.49999V14H8.49999V12H11V11H8.49999V9.96537ZM4.99999 6.00002C4.99999 5.40667 5.17594 4.82666 5.50559 4.33331C5.83523 3.83996 6.30377 3.45544 6.85194 3.22838C7.40012 3.00132 8.00332 2.94191 8.58527 3.05766C9.16721 3.17342 9.70176 3.45914 10.1213 3.8787C10.5409 4.29826 10.8266 4.8328 10.9424 5.41475C11.0581 5.99669 10.9987 6.59989 10.7716 7.14807C10.5446 7.69625 10.1601 8.16478 9.66671 8.49443C9.17336 8.82407 8.59334 9.00002 7.99999 9.00002C7.20461 8.99915 6.44206 8.68279 5.87964 8.12037C5.31722 7.55795 5.00087 6.7954 4.99999 6.00002V6.00002Z" fill="currentColor" style="fill-opacity:1"/>
</svg>
