<svg viewBox="0 0 16 16" fill="none" xmlns="http://www.w3.org/2000/svg">
<path id="icon" d="M8.00067 1.33333C4.31732 1.33333 1.33399 4.31667 1.33399 8C1.33399 10.95 3.24232 13.4417 5.89232 14.325C6.22565 14.3833 6.35065 14.1833 6.35065 14.0083C6.35065 13.85 6.34232 13.325 6.34232 12.7667C4.66732 13.075 4.23399 12.3583 4.10065 11.9833C4.02565 11.7917 3.70065 11.2 3.41732 11.0417C3.18399 10.9167 2.85065 10.6083 3.40899 10.6C3.93399 10.5917 4.30899 11.0833 4.43399 11.2833C5.03399 12.2917 5.99232 12.0083 6.37565 11.8333C6.43399 11.4 6.60899 11.1083 6.80067 10.9417C5.31732 10.775 3.76732 10.2 3.76732 7.65C3.76732 6.925 4.02565 6.325 4.45065 5.85833C4.38399 5.69167 4.15065 5.00833 4.51732 4.09167C4.51732 4.09167 5.07565 3.91667 6.35065 4.775C6.884 4.625 7.45067 4.55 8.01733 4.55C8.584 4.55 9.15067 4.625 9.684 4.775C10.959 3.90833 11.5173 4.09167 11.5173 4.09167C11.884 5.00833 11.6507 5.69167 11.584 5.85833C12.009 6.325 12.2673 6.91667 12.2673 7.65C12.2673 10.2083 10.709 10.775 9.22567 10.9417C9.46733 11.15 9.67567 11.55 9.67567 12.175C9.67567 13.0667 9.66733 13.7833 9.66733 14.0083C9.66733 14.1833 9.79233 14.3917 10.1257 14.325C12.8393 13.4089 14.6666 10.8642 14.6673 8C14.6673 4.31667 11.684 1.33333 8.00067 1.33333Z" fill="currentColor" style="fill-opacity:1"/>
</svg>
