<svg viewBox="0 0 16 16" fill="none" xmlns="http://www.w3.org/2000/svg">
<path d="M7 2C7.69223 2 8.36892 2.20527 8.94449 2.58986C9.52007 2.97444 9.96867 3.52107 10.2336 4.16061C10.4985 4.80015 10.5678 5.50388 10.4327 6.18281C10.2977 6.86175 9.96436 7.48539 9.47487 7.97487C8.98539 8.46436 8.36175 8.7977 7.68282 8.93275C7.00388 9.0678 6.30015 8.99848 5.66061 8.73358C5.02107 8.46867 4.47444 8.02007 4.08985 7.44449C3.70527 6.86892 3.5 6.19223 3.5 5.5C3.5 4.57174 3.86875 3.6815 4.52513 3.02512C5.1815 2.36875 6.07174 2 7 2ZM7 0.999999C6.10998 0.999999 5.23995 1.26392 4.49993 1.75839C3.75991 2.25285 3.18314 2.95566 2.84254 3.77792C2.50195 4.60019 2.41283 5.50499 2.58647 6.37791C2.7601 7.25082 3.18868 8.05264 3.81802 8.68198C4.44735 9.31131 5.24918 9.7399 6.12209 9.91353C6.99501 10.0872 7.89981 9.99805 8.72207 9.65746C9.54434 9.31686 10.2471 8.74009 10.7416 8.00006C11.2361 7.26004 11.5 6.39002 11.5 5.5C11.5 4.30652 11.0259 3.16193 10.182 2.31802C9.33807 1.4741 8.19347 0.999999 7 0.999999Z" fill="currentColor" style="fill-opacity:1"/>
<path d="M14 5.5C14.0006 4.58079 13.8196 3.67053 13.4673 2.82149C13.1151 1.97246 12.5986 1.20138 11.9474 0.552549L11.2406 1.25935C12.3675 2.38159 13.0024 3.90546 13.0058 5.4958C13.0092 7.08614 12.3808 8.61271 11.2588 9.73977C10.1368 10.8668 8.61307 11.5021 7.02274 11.5058C5.4324 11.5096 3.9057 10.8815 2.7784 9.7597L2.75935 9.74065L2.05255 10.4474C2.70138 11.0986 3.47246 11.6151 4.32149 11.9673C5.17053 12.3196 6.08079 12.5006 7 12.5V14H5V15H10V14H8V12.42C9.66419 12.1788 11.1861 11.347 12.2877 10.0765C13.3893 8.80597 13.9971 7.18157 14 5.5Z" fill="currentColor" style="fill-opacity:1"/>
</svg>
