<svg viewBox="0 0 16 16" fill="none" xmlns="http://www.w3.org/2000/svg">
<path id="icon" d="M2.04243 5.00609C3.13939 2.82728 5.39389 1.33333 8 1.33333C9.79693 1.33333 11.306 1.99397 12.4606 3.0697L10.5485 4.98183C9.8576 4.32123 8.97873 3.98485 8 3.98485C6.26361 3.98485 4.79389 5.15758 4.2697 6.73333C4.13633 7.13333 4.06057 7.5606 4.06057 8C4.06057 8.4394 4.13633 8.86667 4.2697 9.26667C4.79389 10.8424 6.26361 12.0151 8 12.0151C8.89693 12.0151 9.6606 11.7788 10.2576 11.3788C10.9636 10.9061 11.4333 10.2 11.5879 9.36667H8V6.78787H14.2787C14.3576 7.2242 14.4 7.6788 14.4 8.15153C14.4 10.1818 13.6727 11.8909 12.4121 13.0515C11.3091 14.0697 9.8 14.6667 8 14.6667C5.39389 14.6667 3.13939 13.1727 2.04243 10.9939C1.59092 10.0939 1.33333 9.07573 1.33333 8C1.33333 6.92427 1.59092 5.90607 2.04243 5.00609Z" fill="currentColor" style="fill-opacity:1"/>
</svg>
