<svg viewBox="0 0 16 16" fill="none" xmlns="http://www.w3.org/2000/svg">
<path d="M14 15H11C10.7349 14.9997 10.4807 14.8943 10.2932 14.7068C10.1058 14.5193 10.0003 14.2651 10 14V11C10.0003 10.7349 10.1058 10.4807 10.2932 10.2933C10.4807 10.1058 10.7349 10.0003 11 10H14C14.2651 10.0003 14.5193 10.1058 14.7068 10.2933C14.8942 10.4807 14.9997 10.7349 15 11V14C14.9997 14.2651 14.8942 14.5193 14.7068 14.7068C14.5193 14.8943 14.2651 14.9997 14 15ZM10.9994 11L11 14H14V11H10.9994Z" fill="currentColor" style="fill-opacity:1"/>
<path d="M9 13H6C5.60231 12.9996 5.22103 12.8414 4.93982 12.5602C4.65861 12.279 4.50044 11.8977 4.5 11.5V9.50003H5.5V11.5C5.50013 11.6326 5.55285 11.7597 5.64659 11.8534C5.74033 11.9472 5.86743 11.9999 6 12H9V13Z" fill="currentColor" style="fill-opacity:1"/>
<path d="M13 9.00003H12V7.50003C11.9999 7.36746 11.9471 7.24036 11.8534 7.14662C11.7597 7.05288 11.6326 7.00016 11.5 7.00003H9V6.00003H11.5C11.8977 6.00046 12.279 6.15864 12.5602 6.43985C12.8414 6.72106 12.9996 7.10233 13 7.50003V9.00003Z" fill="currentColor" style="fill-opacity:1"/>
<path d="M7.5 9.00003C7.4128 9.00006 7.3271 8.97725 7.25145 8.93388L5 7.64433L2.7484 8.93388C2.66396 8.98225 2.56725 9.00493 2.47011 8.99914C2.37297 8.99335 2.27963 8.95934 2.20153 8.90128C2.12344 8.84322 2.06398 8.76363 2.03046 8.67228C1.99694 8.58092 1.9908 8.48177 2.0128 8.38698L2.5437 6.10098L1.1345 4.59123C1.07282 4.52515 1.03021 4.44359 1.01119 4.35522C0.992177 4.26685 0.997473 4.17498 1.02652 4.08938C1.05556 4.00378 1.10727 3.92766 1.17613 3.86911C1.245 3.81056 1.32845 3.77177 1.4176 3.75688L3.5176 3.40593L4.5503 1.28138C4.59086 1.19791 4.65385 1.12739 4.73222 1.07769C4.81058 1.02799 4.90123 1.00108 4.99402 0.999965C5.08681 0.998855 5.17808 1.02359 5.25761 1.0714C5.33715 1.11921 5.4018 1.18821 5.44435 1.27068L6.54665 3.40618L8.58485 3.75723C8.67374 3.77252 8.75683 3.81158 8.82533 3.87025C8.89382 3.92892 8.94518 4.00503 8.97394 4.09051C9.00271 4.176 9.00782 4.26767 8.98872 4.35581C8.96963 4.44396 8.92706 4.5253 8.8655 4.59123L7.4563 6.10123L7.98695 8.38713C8.00394 8.46043 8.00417 8.53662 7.98762 8.61002C7.97106 8.68342 7.93815 8.75214 7.89135 8.81106C7.84454 8.86997 7.78504 8.91756 7.71728 8.95028C7.64952 8.983 7.57525 9 7.5 9.00003ZM5 6.50003C5 6.50003 5.1715 6.59003 5.24855 6.63433L6.75355 7.49638L6.3617 5.80823L7.5027 4.58558L5.88615 4.30713L5.01335 2.61613L4.19145 4.30723L2.501 4.58973L3.63825 5.80823L3.2462 7.49638L4.75145 6.63433C4.8285 6.59003 5 6.50003 5 6.50003Z" fill="currentColor" style="fill-opacity:1"/>
</svg>
