<svg viewBox="0 0 16 16" fill="none" xmlns="http://www.w3.org/2000/svg">
<path d="M10.7498 15.5C11.164 15.5 11.4998 15.1642 11.4998 14.75C11.4998 14.3358 11.164 14 10.7498 14C10.3355 14 9.99976 14.3358 9.99976 14.75C9.99976 15.1642 10.3355 15.5 10.7498 15.5Z" fill="currentColor" style="fill-opacity:1"/>
<path d="M12.2498 13.5C12.664 13.5 12.9998 13.1642 12.9998 12.75C12.9998 12.3358 12.664 12 12.2498 12C11.8355 12 11.4998 12.3358 11.4998 12.75C11.4998 13.1642 11.8355 13.5 12.2498 13.5Z" fill="currentColor" style="fill-opacity:1"/>
<path d="M3.75001 13.5C4.16422 13.5 4.50001 13.1642 4.50001 12.75C4.50001 12.3358 4.16422 12 3.75001 12C3.33579 12 3.00001 12.3358 3.00001 12.75C3.00001 13.1642 3.33579 13.5 3.75001 13.5Z" fill="currentColor" style="fill-opacity:1"/>
<path d="M2.24976 15.5C2.66397 15.5 2.99976 15.1642 2.99976 14.75C2.99976 14.3358 2.66397 14 2.24976 14C1.83554 14 1.49976 14.3358 1.49976 14.75C1.49976 15.1642 1.83554 15.5 2.24976 15.5Z" fill="currentColor" style="fill-opacity:1"/>
<path d="M5.24976 15.5C5.66397 15.5 5.99976 15.1642 5.99976 14.75C5.99976 14.3358 5.66397 14 5.24976 14C4.83554 14 4.49976 14.3358 4.49976 14.75C4.49976 15.1642 4.83554 15.5 5.24976 15.5Z" fill="currentColor" style="fill-opacity:1"/>
<path d="M7.93401 15.248L7.06601 14.752L8.638 12H5.63851L8.06601 7.75201L8.93401 8.24801L7.3615 11H10.362L7.93401 15.248Z" fill="currentColor" style="fill-opacity:1"/>
<path d="M11.75 11H11.5V10H11.75C12.3311 10.0002 12.8898 9.7755 13.3088 9.3729C13.7279 8.9703 13.9749 8.4211 13.9979 7.84043C14.0209 7.25976 13.8183 6.69272 13.4325 6.25817C13.0466 5.82363 12.5075 5.55533 11.9282 5.50951L11.5205 5.47756L11.4712 5.07156C11.3674 4.2241 10.9571 3.4439 10.3177 2.87807C9.67835 2.31225 8.85405 1.99988 8.00025 1.99988C7.14646 1.99988 6.32216 2.31225 5.68278 2.87807C5.04341 3.4439 4.63313 4.2241 4.52931 5.07156L4.47976 5.47756L4.07201 5.50951C3.49271 5.55532 2.95364 5.82361 2.56779 6.25814C2.18195 6.69266 1.9793 7.25968 2.00231 7.84033C2.02533 8.42098 2.27223 8.97018 2.69126 9.37279C3.11028 9.77541 3.6689 10.0002 4.25001 10H4.50001V11H4.25001C3.44471 11.0004 2.66799 10.7016 2.07051 10.1617C1.47302 9.62179 1.09736 8.87921 1.01639 8.078C0.93542 7.27679 1.15492 6.47406 1.6323 5.82553C2.10968 5.17699 2.81093 4.72888 3.60001 4.56811C3.81306 3.55897 4.36652 2.65372 5.16762 2.0041C5.96872 1.35448 6.96876 0.999958 8.00015 0.999958C9.03154 0.999958 10.0316 1.35448 10.8327 2.0041C11.6338 2.65372 12.1872 3.55897 12.4003 4.56811C13.1893 4.72899 13.8905 5.17717 14.3677 5.82571C14.845 6.47425 15.0645 7.27695 14.9835 8.0781C14.9025 8.87926 14.5268 9.62179 13.9294 10.1617C13.3319 10.7016 12.5552 11.0003 11.75 11Z" fill="currentColor" style="fill-opacity:1"/>
</svg>
