<svg viewBox="0 0 16 16" fill="none" xmlns="http://www.w3.org/2000/svg">
<path id="icon" d="M13.185 10.26L8.5 7.70498V6.92998C8.86246 6.83639 9.19137 6.64296 9.44933 6.37168C9.70729 6.10041 9.88393 5.76218 9.95917 5.39548C10.0344 5.02878 10.0052 4.64832 9.87494 4.29738C9.74465 3.94645 9.51848 3.63912 9.22216 3.41036C8.92585 3.18161 8.57128 3.04061 8.19879 3.0034C7.8263 2.96619 7.45085 3.03426 7.11513 3.19988C6.77942 3.3655 6.49693 3.62202 6.29979 3.94024C6.10266 4.25847 5.99879 4.62564 6 4.99998H7C7.02254 4.73476 7.14952 4.48936 7.353 4.31777C7.45375 4.2328 7.57025 4.16851 7.69585 4.12857C7.82144 4.08863 7.95368 4.07382 8.085 4.08498C8.21632 4.09614 8.34416 4.13306 8.46121 4.19363C8.57827 4.2542 8.68225 4.33723 8.76721 4.43798C8.85218 4.53873 8.91647 4.65523 8.95641 4.78083C8.99635 4.90642 9.01116 5.03866 9 5.16998C8.95054 5.41066 8.81745 5.62605 8.62434 5.77798C8.43123 5.92991 8.19056 6.00855 7.945 5.99998V5.99998C7.82698 5.99998 7.71379 6.04686 7.63034 6.13032C7.54688 6.21377 7.5 6.32696 7.5 6.44498V7.70498L2.815 10.26C2.5087 10.4225 2.26575 10.6831 2.125 11C2.02743 11.2149 1.98515 11.4507 2.00202 11.6861C2.01889 11.9215 2.09437 12.149 2.22159 12.3478C2.3488 12.5465 2.52372 12.7103 2.73041 12.8243C2.9371 12.9382 3.169 12.9986 3.405 13H12.595C12.831 12.9986 13.0629 12.9382 13.2696 12.8243C13.4763 12.7103 13.6512 12.5465 13.7784 12.3478C13.9056 12.149 13.9811 11.9215 13.998 11.6861C14.0149 11.4507 13.9726 11.2149 13.875 11C13.7342 10.6831 13.4913 10.4225 13.185 10.26V10.26ZM12.595 12H3.405C3.29759 12 3.19457 11.9573 3.11862 11.8814C3.04267 11.8054 3 11.7024 3 11.595C2.99975 11.505 3.02378 11.4167 3.06954 11.3392C3.11529 11.2618 3.18109 11.1982 3.26 11.155L8 8.56998L12.74 11.155C12.8189 11.1982 12.8847 11.2618 12.9305 11.3392C12.9762 11.4167 13.0002 11.505 13 11.595C13 11.7024 12.9573 11.8054 12.8814 11.8814C12.8054 11.9573 12.7024 12 12.595 12V12Z" fill="currentColor" style="fill-opacity:1"/>
</svg>
