<svg viewBox="0 0 16 16" fill="none" xmlns="http://www.w3.org/2000/svg">
<path d="M14.5 11H6.50001C6.3674 11 6.24022 11.0527 6.14645 11.1464C6.05268 11.2402 6.00001 11.3674 6.00001 11.5C6.00001 11.6326 6.05268 11.7598 6.14645 11.8536C6.24022 11.9473 6.3674 12 6.50001 12H11.3386C10.3141 12.9594 8.96413 13.4949 7.56056 13.4988C7.49136 13.4988 7.4214 13.5012 7.3517 13.4988C6.05604 13.4529 4.81736 12.9547 3.85081 12.0906C2.88425 11.2266 2.25087 10.0513 2.06068 8.7688C1.87049 7.48635 2.13549 6.17779 2.80967 5.0704C3.48385 3.963 4.52462 3.12672 5.75121 2.7068C5.50167 3.78955 5.49334 4.91393 5.72681 6.00025H6.74966C6.43663 4.73879 6.50448 3.41286 6.94466 2.18995C6.97377 2.11455 6.98445 2.03328 6.97581 1.95291C6.96717 1.87254 6.93946 1.7954 6.89499 1.72791C6.85051 1.66041 6.79056 1.60452 6.72011 1.56488C6.64967 1.52523 6.57078 1.50299 6.49 1.5C6.46073 1.49999 6.43151 1.5026 6.40271 1.5078C4.8106 1.79059 3.37943 2.6525 2.38488 3.92751C1.39033 5.20252 0.902736 6.80044 1.01602 8.4135C1.1293 10.0266 1.83544 11.5406 2.99843 12.6641C4.16142 13.7876 5.699 14.4411 7.31501 14.4986C7.397 14.5017 7.47906 14.4986 7.56036 14.4986C8.54867 14.498 9.52394 14.2728 10.4124 13.84C11.3009 13.4071 12.0794 12.7779 12.689 12H14.5C14.6326 12 14.7598 11.9473 14.8536 11.8536C14.9473 11.7598 15 11.6326 15 11.5C15 11.3674 14.9473 11.2402 14.8536 11.1464C14.7598 11.0527 14.6326 11 14.5 11Z" fill="currentColor" style="fill-opacity:1"/>
<path d="M13.5 10H8.50001C8.3674 10 8.24022 9.94732 8.14645 9.85355C8.05268 9.75979 8.00001 9.63261 8.00001 9.5C8.00001 9.36739 8.05268 9.24021 8.14645 9.14645C8.24022 9.05268 8.3674 9 8.50001 9H13.5C13.6326 9 13.7598 9.05268 13.8536 9.14645C13.9473 9.24021 14 9.36739 14 9.5C14 9.63261 13.9473 9.75979 13.8536 9.85355C13.7598 9.94732 13.6326 10 13.5 10Z" fill="currentColor" style="fill-opacity:1"/>
<path d="M12.5 8H6.50001C6.3674 8 6.24022 7.94732 6.14645 7.85355C6.05268 7.75979 6.00001 7.63261 6.00001 7.5C6.00001 7.36739 6.05268 7.24021 6.14645 7.14645C6.24022 7.05268 6.3674 7 6.50001 7H12.5C12.6326 7 12.7598 7.05268 12.8536 7.14645C12.9473 7.24021 13 7.36739 13 7.5C13 7.63261 12.9473 7.75979 12.8536 7.85355C12.7598 7.94732 12.6326 8 12.5 8Z" fill="currentColor" style="fill-opacity:1"/>
</svg>
