<svg viewBox="0 0 16 16" fill="none" xmlns="http://www.w3.org/2000/svg">
<path d="M10.5 11C11.0523 11 11.5 10.5523 11.5 9.99999C11.5 9.4477 11.0523 8.99999 10.5 8.99999C9.94771 8.99999 9.5 9.4477 9.5 9.99999C9.5 10.5523 9.94771 11 10.5 11Z" fill="currentColor" style="fill-opacity:1"/>
<path d="M7 6.99999C7.55228 6.99999 8 6.55227 8 5.99999C8 5.4477 7.55228 4.99999 7 4.99999C6.44771 4.99999 6 5.4477 6 5.99999C6 6.55227 6.44771 6.99999 7 6.99999Z" fill="currentColor" style="fill-opacity:1"/>
<path d="M14.5 9.99999C14.7761 9.99999 15 9.77613 15 9.49999C15 9.22385 14.7761 8.99999 14.5 8.99999C14.2239 8.99999 14 9.22385 14 9.49999C14 9.77613 14.2239 9.99999 14.5 9.99999Z" fill="currentColor" style="fill-opacity:1"/>
<path d="M13.25 15C12.9039 15 12.5655 14.8974 12.2778 14.7051C11.99 14.5128 11.7657 14.2395 11.6332 13.9197C11.5008 13.5999 11.4661 13.248 11.5336 12.9086C11.6011 12.5691 11.7678 12.2573 12.0126 12.0126C12.2573 11.7678 12.5691 11.6011 12.9086 11.5336C13.2481 11.4661 13.5999 11.5007 13.9197 11.6332C14.2395 11.7657 14.5128 11.99 14.7051 12.2777C14.8974 12.5655 15 12.9039 15 13.25C14.9995 13.714 14.8149 14.1588 14.4868 14.4868C14.1588 14.8149 13.714 14.9994 13.25 15ZM13.25 12.5C13.1017 12.5 12.9567 12.544 12.8333 12.6264C12.71 12.7088 12.6139 12.8259 12.5571 12.963C12.5003 13.1 12.4855 13.2508 12.5144 13.3963C12.5433 13.5418 12.6148 13.6754 12.7197 13.7803C12.8246 13.8852 12.9582 13.9566 13.1037 13.9856C13.2492 14.0145 13.4 13.9997 13.537 13.9429C13.6741 13.8861 13.7912 13.79 13.8736 13.6667C13.956 13.5433 14 13.3983 14 13.25C13.9998 13.0511 13.9207 12.8605 13.7801 12.7199C13.6395 12.5793 13.4488 12.5002 13.25 12.5Z" fill="currentColor" style="fill-opacity:1"/>
<path d="M7 15C6.62333 14.9997 6.25456 14.892 5.937 14.6894C5.2573 14.9953 4.49767 15.0762 3.76881 14.9202C3.03995 14.7642 2.37995 14.3795 1.885 13.8222C1.39005 13.2649 1.086 12.5641 1.01717 11.8219C0.948344 11.0797 1.11833 10.335 1.50236 9.69614C1.88638 9.05732 2.46438 8.55783 3.15212 8.27046C3.83987 7.98309 4.60141 7.92286 5.32577 8.09855C6.05013 8.27423 6.69946 8.67666 7.17914 9.24717C7.65881 9.81768 7.94376 10.5265 7.99245 11.2702C8.37529 11.4884 8.67516 11.8272 8.84528 12.2337C9.0154 12.6402 9.04621 13.0916 8.9329 13.5174C8.81958 13.9432 8.56853 14.3196 8.21888 14.5878C7.86923 14.856 7.44066 15.0009 7 15ZM6.05785 13.4861L6.3274 13.7334C6.43607 13.8341 6.56585 13.9093 6.70727 13.9535C6.84869 13.9977 6.9982 14.0098 7.14488 13.9889C7.29157 13.9679 7.43173 13.9145 7.55516 13.8326C7.67859 13.7506 7.78217 13.6421 7.85835 13.515C7.93453 13.388 7.98138 13.2455 7.9955 13.098C8.00962 12.9505 7.99065 12.8017 7.93996 12.6625C7.88928 12.5232 7.80816 12.3971 7.70253 12.2932C7.59689 12.1893 7.4694 12.1103 7.32935 12.0619L6.9839 11.9403L6.9989 11.5169C7.00357 10.9651 6.82582 10.4272 6.49328 9.98673C6.16073 9.5463 5.69201 9.22806 5.15997 9.08146C4.62793 8.93486 4.06236 8.96812 3.55117 9.17605C3.03997 9.38399 2.61178 9.75497 2.33314 10.2313C2.05449 10.7077 1.94101 11.2627 2.01032 11.8102C2.07963 12.3577 2.32785 12.867 2.7164 13.2589C3.10496 13.6508 3.61209 13.9034 4.15897 13.9774C4.70586 14.0514 5.26187 13.9426 5.7406 13.6681L6.05785 13.4861Z" fill="currentColor" style="fill-opacity:1"/>
<path d="M12 7.99999C11.2046 7.9991 10.4421 7.68275 9.87966 7.12033C9.31724 6.55791 9.00089 5.79537 9 4.99999C9.00003 4.91104 9.00452 4.82214 9.01345 4.73364C8.70516 4.56143 8.4486 4.30983 8.27038 4.00497C8.09217 3.70012 7.99881 3.35311 8 2.99999C8.00059 2.46974 8.2115 1.96138 8.58644 1.58643C8.96139 1.21149 9.46975 1.00058 10 0.999989C10.3531 0.998813 10.7001 1.09219 11.005 1.27042C11.3099 1.44865 11.5614 1.70524 11.7336 2.01354C11.8242 2.00449 11.9126 1.99999 12 1.99999C12.7956 1.99999 13.5587 2.31606 14.1213 2.87867C14.6839 3.44128 15 4.20434 15 4.99999C15 5.79564 14.6839 6.5587 14.1213 7.12131C13.5587 7.68392 12.7956 7.99999 12 7.99999ZM10 1.99999C9.73487 2.00027 9.48068 2.10571 9.2932 2.29319C9.10572 2.48067 9.00028 2.73486 9 2.99999C9.00002 3.2146 9.06975 3.42339 9.1987 3.59493C9.32766 3.76648 9.50885 3.89149 9.715 3.95114L10.1659 4.08644L10.0582 4.54454C9.96435 4.9483 9.99843 5.37128 10.1558 5.7548C10.3131 6.13833 10.5859 6.46337 10.9363 6.68486C11.2867 6.90635 11.6974 7.01329 12.1113 6.99086C12.5252 6.96843 12.9219 6.81773 13.2463 6.55967C13.5708 6.30161 13.8068 5.94899 13.9218 5.55071C14.0368 5.15243 14.0249 4.72825 13.888 4.33699C13.751 3.94574 13.4956 3.60682 13.1573 3.36725C12.819 3.12767 12.4145 2.99932 12 2.99999C11.8463 3.00179 11.6932 3.02128 11.5439 3.05809L11.0862 3.16514L10.9512 2.71484C10.8915 2.50872 10.7665 2.32756 10.5949 2.19864C10.4234 2.06972 10.2146 2 10 1.99999Z" fill="currentColor" style="fill-opacity:1"/>
<path d="M3.25 5.49999C2.80499 5.49999 2.36998 5.36803 1.99997 5.1208C1.62996 4.87356 1.34157 4.52216 1.17127 4.11103C1.00097 3.69989 0.956415 3.24749 1.04323 2.81104C1.13005 2.37458 1.34434 1.97367 1.65901 1.659C1.97368 1.34433 2.37459 1.13004 2.81105 1.04322C3.2475 0.956405 3.6999 1.00096 4.11104 1.17126C4.52217 1.34156 4.87357 1.62995 5.12081 1.99996C5.36804 2.36997 5.5 2.80498 5.5 3.24999C5.49932 3.84652 5.26205 4.41842 4.84024 4.84023C4.41843 5.26204 3.84653 5.49931 3.25 5.49999ZM3.25 1.99999C3.00277 1.99999 2.7611 2.0733 2.55554 2.21065C2.34997 2.348 2.18976 2.54323 2.09515 2.77163C2.00054 3.00004 1.97579 3.25138 2.02402 3.49385C2.07225 3.73633 2.1913 3.95906 2.36612 4.13387C2.54093 4.30869 2.76366 4.42774 3.00614 4.47597C3.24861 4.5242 3.49995 4.49945 3.72835 4.40484C3.95676 4.31023 4.15198 4.15001 4.28934 3.94445C4.42669 3.73889 4.5 3.49722 4.5 3.24999C4.4996 2.91859 4.36778 2.60088 4.13344 2.36654C3.89911 2.13221 3.5814 2.00039 3.25 1.99999Z" fill="currentColor" style="fill-opacity:1"/>
</svg>
