<svg viewBox="0 0 16 16" fill="none" xmlns="http://www.w3.org/2000/svg">
<path d="M4.75 7.49999C4.89834 7.49999 5.04334 7.54398 5.16668 7.62639C5.29001 7.7088 5.38614 7.82593 5.44291 7.96298C5.49968 8.10002 5.51453 8.25082 5.48559 8.39631C5.45665 8.54179 5.38522 8.67543 5.28033 8.78032C5.17544 8.88521 5.0418 8.95664 4.89632 8.98558C4.75083 9.01452 4.60003 8.99967 4.46299 8.9429C4.32594 8.88613 4.20881 8.79 4.1264 8.66667C4.04399 8.54333 4 8.39833 4 8.24999C4 8.05108 4.07902 7.86031 4.21967 7.71966C4.36032 7.57901 4.55109 7.49999 4.75 7.49999ZM4.75 6.49999C4.40388 6.49999 4.06554 6.60263 3.77775 6.79492C3.48997 6.98721 3.26566 7.26052 3.13321 7.58029C3.00076 7.90007 2.9661 8.25193 3.03363 8.5914C3.10115 8.93087 3.26782 9.24269 3.51256 9.48743C3.75731 9.73217 4.06912 9.89884 4.40859 9.96636C4.74806 10.0339 5.09993 9.99923 5.4197 9.86678C5.73947 9.73433 6.01278 9.51002 6.20507 9.22224C6.39736 8.93445 6.5 8.59611 6.5 8.24999C6.5 7.78586 6.31563 7.34074 5.98744 7.01255C5.65925 6.68437 5.21413 6.49999 4.75 6.49999Z" fill="currentColor" style="fill-opacity:1"/>
<path d="M12.5 6.99999H8.5C8.23478 6.99999 7.98043 7.10535 7.79289 7.29288C7.60536 7.48042 7.5 7.73477 7.5 7.99999V11H2V5.29999L8 2.06999L14.265 5.43999L14.735 4.55999L8.235 1.05999C8.16266 1.02147 8.08196 1.00132 8 1.00132C7.91804 1.00132 7.83734 1.02147 7.765 1.05999L1.265 4.55999C1.18516 4.6025 1.11835 4.66588 1.07168 4.74336C1.02502 4.82085 1.00024 4.90954 1 4.99999V15H2V12H14V15H15V9.49999C15 8.83695 14.7366 8.20106 14.2678 7.73222C13.7989 7.26338 13.163 6.99999 12.5 6.99999ZM8.5 11V7.99999H12.5C12.8978 7.99999 13.2794 8.15803 13.5607 8.43933C13.842 8.72063 14 9.10217 14 9.49999V11H8.5Z" fill="currentColor" style="fill-opacity:1"/>
</svg>
