<svg viewBox="0 0 16 16" fill="none" xmlns="http://www.w3.org/2000/svg">
<path d="M13 6.00002C12.4846 6.01378 11.9848 5.82277 11.61 5.46882C11.2351 5.11488 11.0158 4.62682 11 4.11152C11.0094 3.74361 11.1226 3.38585 11.3267 3.07957L12.585 1.20707C12.6334 1.14277 12.696 1.0906 12.768 1.05467C12.84 1.01874 12.9193 1.00003 12.9998 1.00003C13.0803 1.00003 13.1596 1.01874 13.2316 1.05467C13.3036 1.0906 13.3662 1.14277 13.4146 1.20707L14.6577 3.05502C14.87 3.36743 14.9888 3.73395 15 4.11152C14.9842 4.62682 14.7649 5.11488 14.39 5.46882C14.0152 5.82277 13.5154 6.01378 13 6.00002ZM13 2.38162L12.1719 3.61287C12.0684 3.7594 12.0088 3.93235 12 4.11152C12.0289 4.35642 12.1467 4.5822 12.331 4.74603C12.5154 4.90987 12.7534 5.00036 13 5.00036C13.2466 5.00036 13.4846 4.90987 13.669 4.74603C13.8533 4.5822 13.9711 4.35642 14 4.11152C13.9888 3.92276 13.9237 3.74116 13.8125 3.58822L13 2.38162Z" fill="currentColor" style="fill-opacity:1"/>
<path d="M11.75 15H4.25001C3.44472 15.0006 2.66795 14.702 2.07039 14.1621C1.47284 13.6223 1.09713 12.8798 1.01615 12.0785C0.935167 11.2773 1.1547 10.4746 1.63214 9.82615C2.10958 9.17767 2.8109 8.72967 3.60001 8.56907C3.81283 7.55972 4.36619 6.65423 5.16732 6.00441C5.96844 5.35459 6.96862 4.99995 8.00015 4.99995C9.03169 4.99995 10.0319 5.35459 10.833 6.00441C11.6341 6.65423 12.1875 7.55972 12.4003 8.56907C13.1892 8.72988 13.8903 9.17798 14.3676 9.82645C14.8449 10.4749 15.0643 11.2775 14.9833 12.0786C14.9022 12.8797 14.5266 13.6221 13.9292 14.1619C13.3318 14.7017 12.5552 15.0004 11.75 15ZM8 6.00002C7.1463 6.00077 6.32231 6.31353 5.6831 6.87941C5.04389 7.4453 4.63355 8.2253 4.52931 9.07262L4.47976 9.47872L4.07201 9.51072C3.49263 9.55621 2.95338 9.82431 2.56738 10.2588C2.18139 10.6932 1.97863 11.2603 2.00166 11.841C2.02468 12.4217 2.2717 12.9709 2.69088 13.3734C3.11006 13.776 3.66885 14.0005 4.25001 14H11.75C12.3312 14.0006 12.89 13.7761 13.3092 13.3735C13.7284 12.971 13.9755 12.4218 13.9986 11.8411C14.0216 11.2604 13.8189 10.6933 13.4329 10.2588C13.0469 9.82432 12.5076 9.55621 11.9282 9.51072L11.5205 9.47872L11.4712 9.07262C11.3667 8.22531 10.9562 7.44538 10.317 6.87952C9.67772 6.31367 8.85373 6.00089 8 6.00002Z" fill="currentColor" style="fill-opacity:1"/>
</svg>
