<svg viewBox="0 0 16 16" fill="none" xmlns="http://www.w3.org/2000/svg">
<path d="M8.5 12.0918V9.99997H7.5V12.0918C7.16639 12.2097 6.88522 12.4418 6.70618 12.747C6.52715 13.0522 6.46177 13.4109 6.5216 13.7596C6.58144 14.1084 6.76264 14.4248 7.03317 14.6528C7.30371 14.8809 7.64616 15.006 8 15.006C8.35384 15.006 8.6963 14.8809 8.96683 14.6528C9.23736 14.4248 9.41856 14.1084 9.4784 13.7596C9.53823 13.4109 9.47285 13.0522 9.29382 12.747C9.11478 12.4418 8.83361 12.2097 8.5 12.0918Z" fill="currentColor" style="fill-opacity:1"/>
<path d="M13 5.99997C12.5578 6.00132 12.1286 6.1493 11.7795 6.42074C11.4304 6.69218 11.1813 7.07175 11.071 7.49997H4.92895C4.80725 7.02864 4.51784 6.61788 4.11495 6.34467C3.71206 6.07146 3.22336 5.95458 2.74045 6.01591C2.25754 6.07725 1.81358 6.3126 1.49179 6.67786C1.16999 7.04311 0.992458 7.51319 0.992458 7.99997C0.992458 8.48676 1.16999 8.95683 1.49179 9.32209C1.81358 9.68734 2.25754 9.92269 2.74045 9.98403C3.22336 10.0454 3.71206 9.92848 4.11495 9.65527C4.51784 9.38207 4.80725 8.9713 4.92895 8.49997H11.071C11.1652 8.86132 11.3587 9.18904 11.6298 9.4459C11.9008 9.70277 12.2384 9.87848 12.6043 9.9531C12.9702 10.0277 13.3496 9.99824 13.6996 9.86802C14.0496 9.73779 14.356 9.51205 14.5841 9.21641C14.8122 8.92077 14.9529 8.5671 14.99 8.19555C15.0272 7.82399 14.9595 7.44946 14.7945 7.11447C14.6295 6.77949 14.3739 6.49748 14.0567 6.30047C13.7395 6.10347 13.3734 5.99936 13 5.99997ZM3 8.99997C2.80222 8.99997 2.60888 8.94132 2.44443 8.83144C2.27998 8.72156 2.15181 8.56538 2.07612 8.38266C2.00043 8.19993 1.98063 7.99886 2.01921 7.80488C2.0578 7.6109 2.15304 7.43272 2.29289 7.29287C2.43275 7.15301 2.61093 7.05777 2.80491 7.01919C2.99889 6.9806 3.19996 7.0004 3.38268 7.07609C3.56541 7.15178 3.72159 7.27995 3.83147 7.4444C3.94135 7.60885 4 7.80219 4 7.99997C3.99967 8.26509 3.89421 8.51925 3.70674 8.70671C3.51928 8.89418 3.26512 8.99964 3 8.99997ZM13 8.99997C12.8022 8.99997 12.6089 8.94132 12.4444 8.83144C12.28 8.72156 12.1518 8.56538 12.0761 8.38266C12.0004 8.19993 11.9806 7.99886 12.0192 7.80488C12.0578 7.6109 12.153 7.43272 12.2929 7.29287C12.4327 7.15301 12.6109 7.05777 12.8049 7.01919C12.9989 6.9806 13.2 7.0004 13.3827 7.07609C13.5654 7.15178 13.7216 7.27995 13.8315 7.4444C13.9414 7.60885 14 7.80219 14 7.99997C13.9997 8.26509 13.8942 8.51925 13.7067 8.70671C13.5193 8.89418 13.2651 8.99964 13 8.99997Z" fill="currentColor" style="fill-opacity:1"/>
<path d="M9.5 2.49997C9.5011 2.22472 9.42645 1.95447 9.28421 1.71882C9.14197 1.48317 8.93763 1.2912 8.69357 1.16393C8.4495 1.03666 8.17513 0.979004 7.90048 0.997268C7.62583 1.01553 7.36151 1.10902 7.13645 1.26748C6.91139 1.42595 6.73427 1.64329 6.62448 1.8957C6.5147 2.14811 6.47649 2.42586 6.51403 2.69854C6.55157 2.97122 6.66342 3.22832 6.83732 3.44167C7.01123 3.65503 7.24049 3.81642 7.5 3.90817V5.99997H8.5V3.90817C8.79182 3.80564 9.04468 3.61517 9.22377 3.36298C9.40286 3.11079 9.49936 2.80928 9.5 2.49997Z" fill="currentColor" style="fill-opacity:1"/>
</svg>
