<svg viewBox="0 0 16 16" fill="none" xmlns="http://www.w3.org/2000/svg">
<path d="M12.5 1V4.5H16V1H12.5ZM15 3.5H13.5V2H15V3.5Z" fill="currentColor" style="fill-opacity:1"/>
<path d="M11.5 3H8V9H14V5.5H11.5V3ZM10.5 8H9V6.5H10.5V8ZM13 6.5V8H11.5V6.5H13ZM9 5.5V4H10.5V5.5H9Z" fill="currentColor" style="fill-opacity:1"/>
<path d="M13 10V11H3V4H7V3H3C2.448 3.00055 2.0005 3.44795 2 4V11C2.0006 11.552 2.448 11.9993 3 12H13C13.552 11.9992 13.9992 11.5519 14 11V10H13Z" fill="currentColor" style="fill-opacity:1"/>
<path d="M15 13H1V14H15V13Z" fill="currentColor" style="fill-opacity:1"/>
</svg>
