<svg viewBox="0 0 16 16" fill="none" xmlns="http://www.w3.org/2000/svg">
<path d="M11 13.295L9.705 12L9 12.705L11 14.705L15 10.705L14.295 10L11 13.295Z" fill="currentColor" style="fill-opacity:1"/>
<path d="M8 9C8.55228 9 9 8.55228 9 8C9 7.44771 8.55228 7 8 7C7.44771 7 7 7.44771 7 8C7 8.55228 7.44771 9 8 9Z" fill="currentColor" style="fill-opacity:1"/>
<path d="M8 11C7.40665 11 6.82663 10.8241 6.33329 10.4944C5.83994 10.1648 5.45542 9.69623 5.22836 9.14805C5.0013 8.59987 4.94189 7.99667 5.05764 7.41473C5.1734 6.83278 5.45912 6.29823 5.87868 5.87868C6.29823 5.45912 6.83278 5.1734 7.41473 5.05764C7.99667 4.94189 8.59987 5.0013 9.14805 5.22836C9.69623 5.45542 10.1648 5.83994 10.4944 6.33329C10.8241 6.82663 11 7.40665 11 8C10.9991 8.79538 10.6828 9.55793 10.1204 10.1204C9.55793 10.6828 8.79538 10.9991 8 11ZM8 6C7.60443 6 7.21776 6.1173 6.88886 6.33706C6.55996 6.55682 6.30361 6.86918 6.15224 7.23463C6.00086 7.60008 5.96126 8.00222 6.03843 8.39018C6.1156 8.77814 6.30608 9.13451 6.58578 9.41421C6.86549 9.69392 7.22185 9.8844 7.60982 9.96157C7.99778 10.0387 8.39991 9.99913 8.76536 9.84776C9.13082 9.69638 9.44317 9.44004 9.66294 9.11114C9.8827 8.78224 10 8.39556 10 8C9.9994 7.46975 9.7885 6.96139 9.41355 6.58644C9.03861 6.2115 8.53025 6.00059 8 6Z" fill="currentColor" style="fill-opacity:1"/>
<path d="M14 8C14 6.81331 13.6481 5.65327 12.9888 4.66658C12.3295 3.67988 11.3925 2.91085 10.2961 2.45672C9.19974 2.00259 7.99334 1.88377 6.82946 2.11529C5.66557 2.3468 4.59647 2.91824 3.75736 3.75736C2.91824 4.59647 2.3468 5.66557 2.11529 6.82946C1.88377 7.99334 2.00259 9.19974 2.45672 10.2961C2.91085 11.3925 3.67988 12.3295 4.66658 12.9888C5.65327 13.6481 6.81331 14 8 14V13C7.01109 13 6.04439 12.7068 5.22215 12.1573C4.3999 11.6079 3.75904 10.827 3.3806 9.91341C3.00216 8.99978 2.90314 7.99445 3.09607 7.02455C3.289 6.05464 3.7652 5.16373 4.46446 4.46446C5.16373 3.7652 6.05464 3.289 7.02455 3.09607C7.99445 2.90314 8.99978 3.00216 9.91341 3.3806C10.827 3.75904 11.6079 4.3999 12.1573 5.22215C12.7068 6.04439 13 7.01109 13 8H14Z" fill="currentColor" style="fill-opacity:1"/>
</svg>
