<svg viewBox="0 0 16 16" fill="none" xmlns="http://www.w3.org/2000/svg">
<path d="M15 12C15 11.4067 14.8241 10.8266 14.4944 10.3333C14.1648 9.83995 13.6962 9.45543 13.148 9.22837C12.5999 9.00131 11.9967 8.9419 11.4147 9.05765C10.8328 9.17341 10.2982 9.45913 9.87868 9.87869C9.45912 10.2982 9.1734 10.8328 9.05764 11.4147C8.94189 11.9967 9.0013 12.5999 9.22836 13.1481C9.45542 13.6962 9.83994 14.1648 10.3333 14.4944C10.8266 14.8241 11.4067 15 12 15C12.7954 14.9991 13.5579 14.6828 14.1204 14.1204C14.6828 13.5579 14.9991 12.7954 15 12ZM14 12C13.9981 12.3559 13.9002 12.7047 13.7165 13.0095L10.9905 10.2835C11.2953 10.0998 11.6441 10.0019 12 10C12.5302 10.0006 13.0386 10.2115 13.4136 10.5865C13.7885 10.9614 13.9994 11.4698 14 12ZM10 12C10.0019 11.6441 10.0998 11.2953 10.2834 10.9905L13.0095 13.7166C12.7047 13.9002 12.3559 13.9981 12 14C11.4697 13.9994 10.9614 13.7885 10.5864 13.4136C10.2115 13.0386 10.0006 12.5303 10 12Z" fill="currentColor" style="fill-opacity:1"/>
<path d="M7 1.00001C6.16668 0.994915 5.34144 1.16346 4.57686 1.49492C3.81227 1.82637 3.12512 2.31346 2.55918 2.92514C1.99324 3.53683 1.56093 4.2597 1.28979 5.04769C1.01865 5.83568 0.914629 6.67151 0.984355 7.50192C1.05408 8.33234 1.29603 9.13912 1.69477 9.87086C2.09352 10.6026 2.64032 11.2433 3.30034 11.752C3.96035 12.2608 4.71911 12.6264 5.52826 12.8258C6.3374 13.0251 7.1792 13.0536 8 12.9097V11.8992C7.31517 12.0388 6.60868 12.0334 5.92609 11.8831C5.24351 11.7329 4.6 11.4412 4.0371 11.027C3.47419 10.6127 3.0044 10.085 2.65803 9.47792C2.31165 8.87086 2.0964 8.19793 2.02615 7.50255C1.95591 6.80716 2.03223 6.10478 2.25019 5.44071C2.46816 4.77665 2.82292 4.16566 3.2916 3.64716C3.76028 3.12867 4.33245 2.7142 4.9712 2.43048C5.60994 2.14677 6.30108 2.00013 7 2.00001V7.00001L9.1715 9.17166C9.54253 8.79965 9.98341 8.50463 10.4688 8.30356C10.9542 8.10249 11.4746 7.99933 12 8.00001H12.9096C13.0613 7.13933 13.022 6.25585 12.7945 5.41204C12.567 4.56824 12.1568 3.78474 11.5931 3.11696C11.0293 2.44918 10.3257 1.91343 9.53198 1.54762C8.73829 1.1818 7.87392 0.99486 7 1.00001Z" fill="currentColor" style="fill-opacity:1"/>
</svg>
