<svg viewBox="0 0 16 16" fill="none" xmlns="http://www.w3.org/2000/svg">
<path d="M13.69 14H10.3089L12 10.6179L13.69 14ZM12 8.99998C11.9071 8.99995 11.8161 9.02579 11.7371 9.0746C11.658 9.12341 11.5942 9.19326 11.5526 9.27633L9.05265 14.2763C9.01459 14.3526 8.99664 14.4373 9.00051 14.5224C9.00437 14.6076 9.02992 14.6903 9.07474 14.7628C9.11955 14.8353 9.18213 14.8951 9.25656 14.9366C9.33098 14.9781 9.41478 14.9999 9.5 15H14.5C14.5825 15 14.6638 14.9796 14.7365 14.9406C14.8092 14.9015 14.8712 14.8451 14.9168 14.7763C14.9624 14.7076 14.9903 14.6286 14.998 14.5464C15.0056 14.4642 14.9928 14.3814 14.9607 14.3054L12.4473 9.27633C12.4058 9.19327 12.3419 9.12342 12.2629 9.07461C12.1839 9.0258 12.0929 8.99996 12 8.99998Z" fill="currentColor" style="fill-opacity:1"/>
<path d="M9.373 11.3996C8.70342 11.7608 7.96024 11.9644 7.20007 11.995C6.4399 12.0255 5.68279 11.8821 4.98641 11.5758C4.29002 11.2695 3.67273 10.8082 3.18156 10.2273C2.69038 9.64629 2.33827 8.96088 2.15205 8.22324C1.96583 7.4856 1.9504 6.71519 2.10696 5.97069C2.26351 5.22619 2.58791 4.52723 3.05544 3.92707C3.52297 3.3269 4.12131 2.84135 4.80488 2.50739C5.48845 2.17344 6.23921 1.9999 7 1.99998V6.99998L10.0485 10.0486L10.6585 8.82858C10.7825 8.579 10.9738 8.36911 11.2109 8.22267C11.448 8.07623 11.7213 7.99909 12 7.99998H12.9096C13.1139 6.78825 12.9409 5.54305 12.4141 4.43287C11.8873 3.3227 11.0322 2.40116 9.96446 1.79297C8.89672 1.18478 7.6679 0.919299 6.44431 1.03246C5.22072 1.14562 4.06144 1.63196 3.12335 2.42565C2.18525 3.21935 1.51364 4.28208 1.19941 5.47003C0.885174 6.65799 0.943485 7.9138 1.36645 9.06752C1.78942 10.2212 2.55661 11.2172 3.56422 11.9205C4.57183 12.6239 5.77119 13.0007 7 13C7.57465 12.9994 8.1462 12.9157 8.69695 12.7517L9.373 11.3996Z" fill="currentColor" style="fill-opacity:1"/>
</svg>
