<svg viewBox="0 0 16 16" fill="none" xmlns="http://www.w3.org/2000/svg">
<path d="M15 1.70705L14.2929 1L1 14.2929L1.70705 15L3.4287 13.2783C4.76182 14.4421 6.48719 15.0561 8.2558 14.9962C10.0244 14.9363 11.7043 14.2069 12.9556 12.9556C14.2069 11.7043 14.9363 10.0244 14.9962 8.25579C15.0561 6.48718 14.442 4.76182 13.2782 3.4287L15 1.70705ZM14 8C14.0025 9.14421 13.6771 10.2652 13.0623 11.2302C12.4475 12.1952 11.569 12.9637 10.5309 13.4449C9.49278 13.9261 8.33852 14.0997 7.20479 13.9452C6.07107 13.7906 5.00537 13.3145 4.1339 12.573L7.5 9.20705V11H6.5V12H10V11H8.5V8.20705L12.573 4.13405C13.4941 5.21151 14.0002 6.58248 14 8Z" fill="currentColor" style="fill-opacity:1"/>
<path d="M8 4C7.85166 4 7.70666 4.04399 7.58332 4.1264C7.45999 4.20881 7.36386 4.32594 7.30709 4.46299C7.25032 4.60003 7.23547 4.75083 7.26441 4.89632C7.29335 5.0418 7.36478 5.17544 7.46967 5.28033C7.57456 5.38522 7.7082 5.45665 7.85368 5.48559C7.99917 5.51453 8.14997 5.49968 8.28701 5.44291C8.42406 5.38614 8.54119 5.29001 8.6236 5.16668C8.70601 5.04334 8.75 4.89834 8.75 4.75C8.75 4.55109 8.67098 4.36032 8.53033 4.21967C8.38968 4.07902 8.19891 4 8 4Z" fill="currentColor" style="fill-opacity:1"/>
<path d="M2.83499 11.0426C2.15754 9.89805 1.88019 8.56059 2.04666 7.24101C2.21313 5.92143 2.81394 4.69475 3.75443 3.75428C4.69491 2.81381 5.9216 2.21301 7.24118 2.04655C8.56076 1.8801 9.89822 2.15746 11.0428 2.83493L11.77 2.10808C10.4271 1.246 8.82983 0.869154 7.24327 1.04011C5.6567 1.21107 4.17634 1.91955 3.04797 3.04791C1.9196 4.17627 1.21111 5.65664 1.04015 7.2432C0.86918 8.82976 1.24602 10.4271 2.10809 11.7699L2.83499 11.0426Z" fill="currentColor" style="fill-opacity:1"/>
</svg>
