<svg viewBox="0 0 16 16" fill="none" xmlns="http://www.w3.org/2000/svg">
<path d="M10.085 8.00001L8.79501 9.29001L9.50001 10L11.5 8.00001L9.50001 6.00001L8.79001 6.70501L10.085 8.00001Z" fill="currentColor" style="fill-opacity:1"/>
<path d="M5.91501 8.00001L7.20501 6.71001L6.50001 6.00001L4.50001 8.00001L6.50001 10L7.21001 9.29501L5.91501 8.00001Z" fill="currentColor" style="fill-opacity:1"/>
<path d="M13.5 11.071V4.92901C13.8411 4.84154 14.153 4.66536 14.4041 4.41837C14.6551 4.17137 14.8363 3.86236 14.9292 3.52269C15.0222 3.18303 15.0237 2.82481 14.9334 2.48441C14.8432 2.144 14.6645 1.83354 14.4155 1.58452C14.1665 1.33551 13.856 1.15682 13.5156 1.06659C13.1752 0.976357 12.817 0.977804 12.4773 1.07078C12.1377 1.16376 11.8287 1.34495 11.5817 1.59597C11.3347 1.84699 11.1585 2.15889 11.071 2.50001H4.92901C4.84154 2.15889 4.66536 1.84699 4.41837 1.59597C4.17137 1.34495 3.86236 1.16376 3.52269 1.07078C3.18303 0.977804 2.82481 0.976357 2.48441 1.06659C2.144 1.15682 1.83354 1.33551 1.58452 1.58452C1.33551 1.83354 1.15682 2.144 1.06659 2.48441C0.976357 2.82481 0.977804 3.18303 1.07078 3.52269C1.16376 3.86236 1.34495 4.17137 1.59597 4.41837C1.84699 4.66536 2.15889 4.84154 2.50001 4.92901V11.071C2.15889 11.1585 1.84699 11.3347 1.59597 11.5817C1.34495 11.8287 1.16376 12.1377 1.07078 12.4773C0.977804 12.817 0.976357 13.1752 1.06659 13.5156C1.15682 13.856 1.33551 14.1665 1.58452 14.4155C1.83354 14.6645 2.144 14.8432 2.48441 14.9334C2.82481 15.0237 3.18303 15.0222 3.52269 14.9292C3.86236 14.8363 4.17137 14.6551 4.41837 14.4041C4.66536 14.153 4.84154 13.8411 4.92901 13.5H11.071C11.1585 13.8411 11.3347 14.153 11.5817 14.4041C11.8287 14.6551 12.1377 14.8363 12.4773 14.9292C12.817 15.0222 13.1752 15.0237 13.5156 14.9334C13.856 14.8432 14.1665 14.6645 14.4155 14.4155C14.6645 14.1665 14.8432 13.856 14.9334 13.5156C15.0237 13.1752 15.0222 12.817 14.9292 12.4773C14.8363 12.1377 14.6551 11.8287 14.4041 11.5817C14.153 11.3347 13.8411 11.1585 13.5 11.071ZM13 2.00001C13.1978 2.00001 13.3911 2.05866 13.5556 2.16854C13.72 2.27842 13.8482 2.4346 13.9239 2.61733C13.9996 2.80006 14.0194 3.00112 13.9808 3.1951C13.9422 3.38908 13.847 3.56727 13.7071 3.70712C13.5673 3.84697 13.3891 3.94221 13.1951 3.9808C13.0011 4.01938 12.8001 3.99958 12.6173 3.92389C12.4346 3.84821 12.2784 3.72003 12.1685 3.55558C12.0587 3.39113 12 3.19779 12 3.00001C12.0003 2.73489 12.1058 2.48071 12.2932 2.29324C12.4807 2.10577 12.7349 2.00032 13 2.00001ZM2.00001 3.00001C2.00001 2.80223 2.05866 2.60889 2.16854 2.44444C2.27842 2.27999 2.4346 2.15182 2.61733 2.07613C2.80006 2.00045 3.00112 1.98064 3.1951 2.01923C3.38908 2.05781 3.56727 2.15305 3.70712 2.29291C3.84697 2.43276 3.94221 2.61094 3.9808 2.80492C4.01938 2.9989 3.99958 3.19997 3.92389 3.3827C3.84821 3.56542 3.72003 3.7216 3.55558 3.83148C3.39113 3.94136 3.19779 4.00001 3.00001 4.00001C2.73488 3.99975 2.48068 3.89431 2.2932 3.70683C2.10572 3.51935 2.00028 3.26515 2.00001 3.00001ZM3.00001 14C2.80223 14 2.60889 13.9414 2.44444 13.8315C2.27999 13.7216 2.15182 13.5654 2.07613 13.3827C2.00045 13.2 1.98064 12.9989 2.01923 12.8049C2.05781 12.6109 2.15305 12.4328 2.29291 12.2929C2.43276 12.1531 2.61094 12.0578 2.80492 12.0192C2.9989 11.9806 3.19997 12.0004 3.3827 12.0761C3.56542 12.1518 3.7216 12.28 3.83148 12.4444C3.94136 12.6089 4.00001 12.8022 4.00001 13C3.99971 13.2651 3.89425 13.5193 3.70678 13.7068C3.51931 13.8943 3.26514 13.9997 3.00001 14ZM11.071 12.5H4.92901C4.83946 12.1562 4.65983 11.8426 4.40863 11.5914C4.15744 11.3402 3.84378 11.1606 3.50001 11.071V4.92901C3.84376 4.83942 4.15739 4.65976 4.40858 4.40858C4.65976 4.15739 4.83942 3.84376 4.92901 3.50001H11.071C11.1606 3.84378 11.3402 4.15744 11.5914 4.40863C11.8426 4.65983 12.1562 4.83946 12.5 4.92901V11.071C12.1562 11.1605 11.8426 11.3402 11.5914 11.5914C11.3402 11.8426 11.1605 12.1562 11.071 12.5ZM13 14C12.8022 14 12.6089 13.9414 12.4444 13.8315C12.28 13.7216 12.1518 13.5654 12.0761 13.3827C12.0004 13.2 11.9806 12.9989 12.0192 12.8049C12.0578 12.6109 12.1531 12.4328 12.2929 12.2929C12.4328 12.1531 12.6109 12.0578 12.8049 12.0192C12.9989 11.9806 13.2 12.0004 13.3827 12.0761C13.5654 12.1518 13.7216 12.28 13.8315 12.4444C13.9414 12.6089 14 12.8022 14 13C13.9997 13.2651 13.8942 13.5193 13.7067 13.7067C13.5193 13.8942 13.2651 13.9997 13 14Z" fill="currentColor" style="fill-opacity:1"/>
</svg>
