<svg viewBox="0 0 16 16" fill="none" xmlns="http://www.w3.org/2000/svg">
<path d="M11.75 10.5H11.5V9.50001H11.75C12.3311 9.50024 12.8898 9.2755 13.3088 8.8729C13.7279 8.4703 13.9748 7.9211 13.9979 7.34043C14.0209 6.75976 13.8183 6.19272 13.4324 5.75817C13.0466 5.32363 12.5075 5.05533 11.9282 5.00951L11.5205 4.97756L11.4712 4.57156C11.3674 3.7241 10.9571 2.9439 10.3177 2.37807C9.67834 1.81225 8.85404 1.49988 8.00025 1.49988C7.14645 1.49988 6.32215 1.81225 5.68278 2.37807C5.0434 2.9439 4.63312 3.7241 4.5293 4.57156L4.47975 4.97756L4.072 5.00951C3.4927 5.05532 2.95363 5.32361 2.56779 5.75814C2.18194 6.19266 1.97929 6.75968 2.00231 7.34033C2.02532 7.92098 2.27222 8.47018 2.69125 8.87279C3.11027 9.27541 3.66889 9.50019 4.25 9.50001H4.5V10.5H4.25C3.44471 10.5004 2.66799 10.2016 2.0705 9.6617C1.47301 9.12179 1.09735 8.37921 1.01638 7.578C0.935412 6.77679 1.15491 5.97406 1.63229 5.32553C2.10968 4.67699 2.81092 4.22888 3.6 4.06811C3.81306 3.05897 4.36652 2.15372 5.16761 1.5041C5.96871 0.854478 6.96876 0.499958 8.00015 0.499958C9.03154 0.499958 10.0316 0.854478 10.8327 1.5041C11.6338 2.15372 12.1872 3.05897 12.4003 4.06811C13.1893 4.22899 13.8904 4.67717 14.3677 5.32571C14.845 5.97425 15.0645 6.77695 14.9835 7.5781C14.9025 8.37926 14.5268 9.12179 13.9293 9.66167C13.3319 10.2016 12.5552 10.5003 11.75 10.5Z" fill="currentColor" style="fill-opacity:1"/>
<path d="M4.5 14C4.77614 14 5 13.7762 5 13.5C5 13.2239 4.77614 13 4.5 13C4.22386 13 4 13.2239 4 13.5C4 13.7762 4.22386 14 4.5 14Z" fill="currentColor" style="fill-opacity:1"/>
<path d="M13 11.5H8.5V7.91501L9.795 9.20501L10.5 8.50001L8 6.00001L5.5 8.50001L6.205 9.20501L7.5 7.91501V11.5H3C2.73487 11.5003 2.4807 11.6058 2.29323 11.7932C2.10576 11.9807 2.0003 12.2349 2 12.5V14.5C2.0003 14.7651 2.10576 15.0193 2.29323 15.2068C2.4807 15.3943 2.73487 15.4997 3 15.5H13C13.2651 15.4997 13.5193 15.3943 13.7068 15.2068C13.8942 15.0193 13.9997 14.7651 14 14.5V12.5C13.9997 12.2349 13.8942 11.9807 13.7068 11.7932C13.5193 11.6058 13.2651 11.5003 13 11.5ZM13 14.5H3V12.5H13V14.5Z" fill="currentColor" style="fill-opacity:1"/>
</svg>
