<svg viewBox="0 0 16 16" fill="none" xmlns="http://www.w3.org/2000/svg">
<path d="M9.1621 5.8667V6.5117H8.5V7.3801H9.1621V11H10.2627V7.3801H11.1826V6.5117H10.2627V5.51415H11.1826V4.6372H10.4002C9.5918 4.6372 9.1621 5.0757 9.1621 5.8667Z" fill="currentColor" style="fill-opacity:1"/>
<path d="M5 5.90965H5.791V10.0886H5V11H7.7258V10.0886H6.92625V5.90965H7.7258V4.9983H5V5.90965Z" fill="currentColor" style="fill-opacity:1"/>
<path d="M10.5 15H5.5C3.0187 15 1 12.9813 1 10.5V5.5C1 3.0187 3.0187 1 5.5 1H10.5C12.9813 1 15 3.0187 15 5.5V10.5C15 12.9813 12.9813 15 10.5 15ZM5.5 2C3.57005 2 2 3.57005 2 5.5V10.5C2 12.4299 3.57005 14 5.5 14H10.5C12.4299 14 14 12.4299 14 10.5V5.5C14 3.57005 12.4299 2 10.5 2H5.5Z" fill="currentColor" style="fill-opacity:1"/>
</svg>
