<svg viewBox="0 0 16 16" fill="none" xmlns="http://www.w3.org/2000/svg">
<path d="M4.99999 8C5.00013 7.02734 5.28404 6.07585 5.81691 5.26215C6.34978 4.44844 7.10847 3.80787 7.99999 3.41895C7.23904 3.08615 6.40718 2.94815 5.57953 3.01742C4.75188 3.08668 3.95453 3.36102 3.25948 3.81566C2.56442 4.2703 1.99357 4.89091 1.59848 5.62146C1.20338 6.352 0.996495 7.16946 0.996495 8C0.996495 8.83054 1.20338 9.64799 1.59848 10.3785C1.99357 11.1091 2.56442 11.7297 3.25948 12.1843C3.95453 12.639 4.75188 12.9133 5.57953 12.9826C6.40718 13.0518 7.23904 12.9138 7.99999 12.581C7.10847 12.1921 6.34978 11.5516 5.81691 10.7379C5.28404 9.92415 5.00013 8.97266 4.99999 8Z" fill="currentColor" style="fill-opacity:1"/>
<path d="M7.99999 4.5376C7.39191 4.88828 6.88691 5.39292 6.53579 6.00075C6.18467 6.60857 5.99981 7.29815 5.99981 8.0001C5.99981 8.70205 6.18467 9.39162 6.53579 9.99945C6.88691 10.6073 7.39191 11.1119 7.99999 11.4626C8.60806 11.1119 9.11306 10.6073 9.46418 9.99945C9.81531 9.39162 10.0002 8.70205 10.0002 8.0001C10.0002 7.29815 9.81531 6.60857 9.46418 6.00075C9.11306 5.39292 8.60806 4.88828 7.99999 4.5376Z" fill="currentColor" style="fill-opacity:1"/>
<path d="M9.99999 3C9.31152 2.99981 8.6305 3.14247 7.99999 3.41895C8.8916 3.80775 9.65038 4.44828 10.1833 5.26202C10.7162 6.07575 11 7.0273 11 8C11 8.97269 10.7162 9.92425 10.1833 10.738C9.65038 11.5517 8.8916 12.1922 7.99999 12.581C8.68114 12.8785 9.42005 13.0203 10.1629 12.9962C10.9058 12.972 11.6339 12.7826 12.2944 12.4415C12.9548 12.1005 13.5309 11.6166 13.9806 11.0248C14.4304 10.4331 14.7426 9.74856 14.8945 9.02098C15.0464 8.2934 15.0341 7.54111 14.8586 6.81886C14.6831 6.09662 14.3488 5.42259 13.8799 4.84585C13.4111 4.26911 12.8195 3.80416 12.1484 3.48485C11.4772 3.16554 10.7433 2.99991 9.99999 3Z" fill="currentColor" style="fill-opacity:1"/>
</svg>
