<svg viewBox="0 0 16 16" fill="none" xmlns="http://www.w3.org/2000/svg">
<path d="M9.99999 3C9.31197 2.99988 8.63144 3.14281 8.0016 3.4197C8.4041 3.59593 8.78155 3.82458 9.12414 4.0997C9.70985 3.96649 10.318 3.96691 10.9036 4.10091C11.4891 4.23491 12.0369 4.49905 12.5064 4.87374C12.9758 5.24843 13.3549 5.72403 13.6154 6.26526C13.8759 6.80649 14.0112 7.39944 14.0112 8.0001C14.0112 8.60076 13.8759 9.19371 13.6154 9.73494C13.3549 10.2762 12.9758 10.7518 12.5064 11.1265C12.0369 11.5011 11.4891 11.7653 10.9036 11.8993C10.318 12.0333 9.70985 12.0337 9.12414 11.9005C8.78155 12.1756 8.4041 12.4043 8.0016 12.5805C8.6827 12.8777 9.42149 13.0192 10.1642 12.9949C10.9069 12.9706 11.6349 12.781 12.2951 12.4399C12.9553 12.0988 13.5311 11.6148 13.9807 11.0231C14.4303 10.4315 14.7423 9.74699 14.8941 9.01953C15.0458 8.29208 15.0335 7.53994 14.8579 6.81786C14.6823 6.09579 14.348 5.42193 13.8792 4.84535C13.4104 4.26876 12.819 3.80394 12.1479 3.48472C11.4769 3.1655 10.7431 2.99991 9.99999 3Z" fill="currentColor" style="fill-opacity:1"/>
<path d="M5.99999 8C6.00148 8.908 6.31146 9.78855 6.87911 10.4972C7.44676 11.2059 8.23838 11.7008 9.12414 11.9005C9.70943 11.4328 10.1819 10.8392 10.5067 10.164C10.8314 9.48883 11 8.74922 11 8C11 7.25078 10.8314 6.51117 10.5067 5.83598C10.1819 5.16079 9.70943 4.56743 9.12414 4.0997C8.23838 4.2994 7.44676 4.79407 6.87911 5.50276C6.31146 6.21145 6.00148 7.092 5.99999 8Z" fill="currentColor" style="fill-opacity:1"/>
<path d="M4.99999 8C5.00124 7.02747 5.28578 6.07637 5.81884 5.26295C6.3519 4.44952 7.11039 3.80901 8.0016 3.4197C7.24063 3.08656 6.40865 2.94826 5.58082 3.0173C4.753 3.08634 3.95542 3.36055 3.26015 3.81514C2.56488 4.26974 1.99383 4.8904 1.5986 5.62105C1.20336 6.35169 0.996389 7.1693 0.996389 8C0.996389 8.8307 1.20336 9.6483 1.5986 10.379C1.99383 11.1096 2.56488 11.7303 3.26015 12.1849C3.95542 12.6395 4.753 12.9137 5.58082 12.9827C6.40865 13.0517 7.24063 12.9136 8.0016 12.5805C7.11039 12.1912 6.3519 11.5505 5.81884 10.7371C5.28578 9.92363 5.00124 8.97253 4.99999 8Z" fill="currentColor" style="fill-opacity:1"/>
</svg>
