<svg viewBox="0 0 16 16" fill="none" xmlns="http://www.w3.org/2000/svg">
<path d="M12.5 5.00002C11.9846 5.01378 11.4848 4.82277 11.11 4.46882C10.7351 4.11487 10.5158 3.62682 10.5 3.11152C10.5094 2.74361 10.6226 2.38585 10.8266 2.07957L12.085 0.207066C12.1334 0.142769 12.196 0.0905958 12.268 0.0546655C12.34 0.0187352 12.4193 3.16098e-05 12.4998 3.16098e-05C12.5803 3.16098e-05 12.6596 0.0187352 12.7316 0.0546655C12.8036 0.0905958 12.8662 0.142769 12.9146 0.207066L14.1577 2.05502C14.37 2.36743 14.4888 2.73395 14.5 3.11152C14.4842 3.62682 14.2649 4.11487 13.89 4.46882C13.5152 4.82277 13.0154 5.01378 12.5 5.00002ZM12.5 1.38162L11.6719 2.61287C11.5684 2.7594 11.5088 2.93235 11.5 3.11152C11.529 3.35635 11.6468 3.58203 11.8312 3.74578C12.0155 3.90954 12.2534 3.99999 12.5 3.99999C12.7465 3.99999 12.9845 3.90954 13.1688 3.74578C13.3531 3.58203 13.471 3.35635 13.5 3.11152C13.4888 2.92276 13.4237 2.74116 13.3125 2.58822L12.5 1.38162Z" fill="currentColor" style="fill-opacity:1"/>
<path d="M14.9927 7.91502C14.8429 7.06027 14.5352 6.24091 14.0853 5.49887L13.2164 6.00052C13.4319 6.35012 13.6111 6.72077 13.7514 7.10672C13.5072 7.036 13.2542 7.00008 13 7.00002C12.2885 7.00213 11.5971 7.23612 11.0305 7.66652C11.0346 6.04945 10.4987 4.4773 9.5077 3.19947C9.20678 2.83301 8.86912 2.49835 8.5 2.20072V1.00002H7.5V2.02322C5.91957 2.15195 4.42603 2.79949 3.25178 3.86507C2.07753 4.93064 1.28843 6.35448 1.0073 7.91502C0.991082 8.00913 1.00216 8.10592 1.03922 8.19393C1.07628 8.28195 1.13777 8.35751 1.21641 8.41168C1.29506 8.46585 1.38758 8.49636 1.48302 8.49961C1.57847 8.50286 1.67284 8.47871 1.755 8.43002C2.12244 8.17468 2.5533 8.02587 3 8.00002C3.42464 8.0103 3.8392 8.13159 4.20241 8.35183C4.56563 8.57207 4.86485 8.88358 5.0703 9.25537C5.11795 9.32544 5.18201 9.38279 5.25691 9.42243C5.3318 9.46207 5.41526 9.48279 5.5 9.48279C5.58473 9.48279 5.66819 9.46207 5.74308 9.42243C5.81798 9.38279 5.88204 9.32544 5.9297 9.25537C6.09737 8.96087 6.32295 8.70337 6.59283 8.49841C6.86271 8.29344 7.1713 8.14525 7.5 8.06277V12.75C7.5 13.0815 7.3683 13.3995 7.13388 13.6339C6.89946 13.8683 6.58152 14 6.25 14C5.91847 14 5.60053 13.8683 5.36611 13.6339C5.13169 13.3995 5 13.0815 5 12.75V12.5H4V12.75C4 13.3468 4.23705 13.919 4.65901 14.341C5.08096 14.763 5.65326 15 6.25 15C6.84673 15 7.41903 14.763 7.84099 14.341C8.26294 13.919 8.5 13.3468 8.5 12.75V8.06277C8.82869 8.14525 9.13728 8.29344 9.40716 8.49841C9.67704 8.70337 9.90262 8.96087 10.0703 9.25537C10.1145 9.32991 10.1774 9.39167 10.2528 9.43456C10.3281 9.47745 10.4133 9.5 10.5 9.5C10.5867 9.5 10.6719 9.47745 10.7472 9.43456C10.8226 9.39167 10.8854 9.32991 10.9297 9.25537C11.1351 8.88358 11.4344 8.57207 11.7976 8.35183C12.1608 8.13159 12.5753 8.0103 13 8.00002C13.4467 8.02587 13.8776 8.17468 14.245 8.43002C14.3271 8.47876 14.4215 8.50294 14.517 8.49972C14.6125 8.49649 14.705 8.46598 14.7837 8.4118C14.8624 8.35763 14.9239 8.28205 14.961 8.19401C14.998 8.10596 15.0089 8.00915 14.9927 7.91502ZM4.9695 7.66652C4.40293 7.23612 3.7115 7.00213 3 7.00002C2.74566 7.00005 2.4926 7.03597 2.2483 7.10672C2.58762 6.16115 3.15091 5.31183 3.89 4.6314C4.62908 3.95096 5.52196 3.45964 6.4923 3.19947C5.50123 4.47726 4.96528 6.04943 4.9695 7.66652ZM8 7.00002C7.2627 7.00346 6.54811 7.25549 5.9718 7.71537C5.9907 6.60537 6.27625 4.47037 8 3.12722C9.71535 4.46562 10.0045 6.60157 10.0261 7.71362C9.45012 7.2548 8.73637 7.00341 8 7.00002Z" fill="currentColor" style="fill-opacity:1"/>
</svg>
