<svg viewBox="0 0 16 16" fill="none" xmlns="http://www.w3.org/2000/svg">
<path d="M4 6H3V7H4V6Z" fill="currentColor" style="fill-opacity:1"/>
<path d="M10 6H9V7H10V6Z" fill="currentColor" style="fill-opacity:1"/>
<path d="M4 10H3V11H4V10Z" fill="currentColor" style="fill-opacity:1"/>
<path d="M4 8H3V9H4V8Z" fill="currentColor" style="fill-opacity:1"/>
<path d="M6 8H5V9H6V8Z" fill="currentColor" style="fill-opacity:1"/>
<path d="M13 6H11V7H13V6Z" fill="currentColor" style="fill-opacity:1"/>
<path d="M13 8H11V9H13V8Z" fill="currentColor" style="fill-opacity:1"/>
<path d="M7.1 5H14V11.5H15V5C15 4.45 14.55 4 14 4H6.1L7.1 5Z" fill="currentColor" style="fill-opacity:1"/>
<path d="M15 14.3L1.7 1L1 1.7L3.3 4H2C1.45 4 1 4.45 1 5V12C1 12.55 1.45 13 2 13H12.3L14.3 15L15 14.3ZM2 12V5H4.3L5.3 6H5V7H6.3L7.3 8H7V9H8.3L9.3 10H5V11H10.3L11.3 12H2Z" fill="currentColor" style="fill-opacity:1"/>
</svg>
