<svg viewBox="0 0 16 16" fill="none" xmlns="http://www.w3.org/2000/svg">
<path d="M11.4755 10H10.3833C10.1763 9.41945 9.62647 9 8.97547 9C8.32447 9 7.77467 9.41945 7.56762 10H4.47547V11H7.56762C7.77467 11.5806 8.32447 12 8.97547 12C9.62647 12 10.1763 11.5806 10.3833 11H11.4755V10ZM8.97547 11C8.69972 11 8.47547 10.7756 8.47547 10.5C8.47547 10.2244 8.69972 10 8.97547 10C9.25122 10 9.47547 10.2244 9.47547 10.5C9.47547 10.7756 9.25122 11 8.97547 11Z" fill="currentColor" style="fill-opacity:1"/>
<path d="M11.4755 6H8.38332C8.17627 5.41945 7.62647 5 6.97547 5C6.32447 5 5.77467 5.41945 5.56762 6H4.47547V7H5.56762C5.77467 7.58055 6.32447 8 6.97547 8C7.62647 8 8.17627 7.58055 8.38332 7H11.4755V6ZM6.97547 7C6.69972 7 6.47547 6.77565 6.47547 6.5C6.47547 6.22435 6.69972 6 6.97547 6C7.25122 6 7.47547 6.22435 7.47547 6.5C7.47547 6.77565 7.25122 7 6.97547 7Z" fill="currentColor" style="fill-opacity:1"/>
<path d="M14.9496 9.49485L13.6531 3.9016C13.5828 3.5979 13.3749 3.34445 13.0911 3.21605L8.38762 1.08885C8.25662 1.0295 8.11602 1 7.97552 1C7.83502 1 7.69437 1.02955 7.56342 1.08885L2.85982 3.21605C2.57602 3.34445 2.36812 3.5979 2.29782 3.9016L1.00132 9.49485C0.931966 9.7939 1.00387 10.1084 1.19627 10.3476L4.63927 14.627C4.82907 14.8628 5.11557 15 5.41832 15H10.5326C10.8354 15 11.1219 14.8628 11.3117 14.627L14.7547 10.3476C14.9471 10.1084 15.019 9.79395 14.9496 9.49485ZM10.5326 14H5.41847L1.97547 9.7207L3.27197 4.1272L7.97547 2L12.679 4.12745L13.9755 9.7207L10.5326 14Z" fill="currentColor" style="fill-opacity:1"/>
</svg>
