<svg viewBox="0 0 16 16" fill="none" xmlns="http://www.w3.org/2000/svg">
<path id="icon" d="M14.6113 8.98195L12.9597 8.605C13.1096 7.44528 12.8391 6.27023 12.1972 5.29275L13.4672 4.28005L12.8437 3.49805L11.5741 4.51025C10.7561 3.66891 9.66752 3.14311 8.49999 3.0254V1.5H7.49999V3.0254C6.33245 3.14315 5.24387 3.66901 4.42589 4.5104L3.15624 3.49805L2.53269 4.28L3.80269 5.2927C3.16085 6.2702 2.89039 7.44527 3.04029 8.605L1.38864 8.9822L1.61134 9.9568L3.25999 9.5803C3.63522 10.696 4.39073 11.6443 5.39439 12.2593L4.72939 13.6409L5.63029 14.0747L6.29499 12.6941C7.39521 13.102 8.60518 13.102 9.70539 12.6941L10.37 14.0747L11.2709 13.6406L10.6059 12.2593C11.6096 11.6443 12.3651 10.696 12.7403 9.5803L14.3889 9.95655L14.6113 8.98195ZM12 8C12 8.12865 11.9926 8.2556 11.9807 8.38135L9.48069 7.81055C9.46803 7.70942 9.44497 7.60986 9.41189 7.51345L11.41 5.92C11.7953 6.54539 11.9996 7.26543 12 8V8ZM7.49999 8C7.49999 7.90111 7.52932 7.80444 7.58426 7.72221C7.6392 7.63999 7.71729 7.5759 7.80865 7.53806C7.90001 7.50022 8.00055 7.49031 8.09754 7.50961C8.19453 7.5289 8.28362 7.57652 8.35355 7.64645C8.42347 7.71637 8.47109 7.80546 8.49039 7.90245C8.50968 7.99945 8.49978 8.09998 8.46193 8.19134C8.42409 8.2827 8.36 8.36079 8.27778 8.41574C8.19555 8.47068 8.09888 8.5 7.99999 8.5C7.86742 8.49988 7.74031 8.44716 7.64657 8.35342C7.55283 8.25968 7.50011 8.13257 7.49999 8V8ZM10.7879 5.1372L8.78999 6.73045C8.69856 6.67408 8.60133 6.62768 8.49999 6.59205V4.03465C9.3624 4.14303 10.1658 4.53018 10.7879 5.1372V5.1372ZM7.49999 4.03465V6.59205C7.39865 6.62768 7.30143 6.67408 7.20999 6.73045L5.21219 5.1372C5.83428 4.5302 6.63762 4.14305 7.49999 4.03465V4.03465ZM3.99999 8C4.00042 7.26543 4.20466 6.54539 4.58999 5.92L6.58809 7.5133C6.55501 7.60971 6.53196 7.70927 6.51929 7.8104L4.01929 8.3812C4.00739 8.2556 3.99999 8.12865 3.99999 8ZM4.24174 9.3562L6.72934 8.7881C6.78813 8.88505 6.85767 8.97505 6.93664 9.0564L5.82969 11.355C5.09705 10.8792 4.53954 10.1775 4.24174 9.3562V9.3562ZM7.99999 12C7.56808 11.9993 7.13914 11.9284 6.72999 11.79L7.84029 9.48385C7.8932 9.49208 7.94651 9.49747 7.99999 9.5C8.05341 9.49748 8.10665 9.49211 8.15949 9.4839L9.26999 11.79C8.86087 11.9285 8.43192 11.9994 7.99999 12V12ZM10.1703 11.355L9.06334 9.0562C9.14232 8.97485 9.21186 8.88485 9.27064 8.7879L11.7582 9.356C11.4605 10.1773 10.903 10.8792 10.1703 11.355V11.355Z" fill="currentColor" style="fill-opacity:1"/>
</svg>
