<svg viewBox="0 0 16 16" fill="none" xmlns="http://www.w3.org/2000/svg">
<path d="M10.0222 13.6471L8.48095 8.6381L7.97435 10.1581C7.9063 10.3623 7.7152 10.5 7.5 10.5H4.5V9.5H7.13965L8.02565 6.8419C8.091 6.63575 8.28375 6.4968 8.5 6.5C8.7187 6.5023 8.91125 6.64455 8.97775 6.8529L10.4822 11.7421L11.0192 9.8626C11.0806 9.64795 11.2768 9.5 11.5 9.5H14V10.5H11.8772L10.9805 13.6374C10.9197 13.8502 10.7263 13.9977 10.505 14H10.5C10.2806 14 10.0867 13.8569 10.0222 13.6471Z" fill="currentColor" style="fill-opacity:1"/>
<path d="M8 14H3C2.4486 14 2 13.5514 2 13V3C2 2.4486 2.4486 2 3 2H13C13.5514 2 14 2.4486 14 3V7.5H13V3H3V13H8V14Z" fill="currentColor" style="fill-opacity:1"/>
</svg>
