<svg viewBox="0 0 16 16" fill="none" xmlns="http://www.w3.org/2000/svg">
<path d="M11.5 9V8H10.45C10.4 7.7 10.25 7.4 10.1 7.1L10.85 6.35L10.15 5.65L9.4 6.4C9.15 6.25 8.85 6.1 8.5 6.05V5H7.5V6.05C7.2 6.1 6.9 6.25 6.6 6.4L5.85 5.65L5.15 6.35L5.9 7.1C5.75 7.35 5.6 7.65 5.55 8H4.5V9H5.55C5.6 9.3 5.75 9.6 5.9 9.9L5.15 10.65L5.85 11.35L6.6 10.6C6.85 10.75 7.15 10.9 7.5 10.95V12H8.5V10.95C8.8 10.9 9.1 10.75 9.4 10.6L10.15 11.35L10.85 10.65L10.1 9.9C10.25 9.65 10.4 9.35 10.45 9H11.5ZM8 10C7.15 10 6.5 9.35 6.5 8.5C6.5 7.65 7.15 7 8 7C8.85 7 9.5 7.65 9.5 8.5C9.5 9.35 8.85 10 8 10Z" fill="currentColor" style="fill-opacity:1"/>
<path d="M14.9742 9.49485L13.6777 3.9016C13.6074 3.5979 13.3995 3.34445 13.1157 3.21605L8.41215 1.08885C8.28115 1.0295 8.14055 1 8.00005 1C7.85955 1 7.7189 1.02955 7.58795 1.08885L2.88435 3.21605C2.60055 3.34445 2.39265 3.5979 2.32235 3.9016L1.02585 9.49485C0.956502 9.7939 1.0284 10.1084 1.2208 10.3476L4.6638 14.627C4.8536 14.8628 5.1401 15 5.44285 15H10.5572C10.8599 15 11.1464 14.8628 11.3362 14.627L14.7792 10.3476C14.9716 10.1084 15.0435 9.79395 14.9742 9.49485ZM10.5572 14H5.443L2 9.7207L3.2965 4.1272L8 2L12.7035 4.12745L14 9.7207L10.5572 14Z" fill="currentColor" style="fill-opacity:1"/>
</svg>
