<svg viewBox="0 0 16 16" fill="none" xmlns="http://www.w3.org/2000/svg">
<path d="M9.5 10.5H6.5C5.9486 10.5 5.5 10.0514 5.5 9.5V6.5C5.5 5.9486 5.9486 5.5 6.5 5.5H9.5C10.0514 5.5 10.5 5.9486 10.5 6.5V9.5C10.5 10.0514 10.0514 10.5 9.5 10.5ZM6.5 6.5V9.5H9.5V6.5H6.5Z" fill="currentColor" style="fill-opacity:1"/>
<path d="M15 8C15 4.14015 11.8598 1 8 1C4.14015 1 1 4.14015 1 8C1 11.8598 4.14015 15 8 15C9.38865 15 10.7085 14.6021 11.8506 13.846C12.048 13.9417 12.2664 14 12.5 14C13.3271 14 14 13.3271 14 12.5C14 12.2664 13.9417 12.0479 13.8461 11.8506C14.6022 10.7085 15 9.3887 15 8ZM2 8C2 4.69165 4.69165 2 8 2C11.3084 2 14 4.69165 14 8C14 9.124 13.6924 10.1939 13.1128 11.1341C12.9253 11.0496 12.7188 11 12.5 11C11.6729 11 11 11.6729 11 12.5C11 12.7188 11.0496 12.9253 11.1341 13.1128C10.194 13.6924 9.12415 14 8 14C4.69165 14 2 11.3084 2 8ZM12.5 13C12.2242 13 12 12.7756 12 12.5C12 12.2244 12.2242 12 12.5 12C12.7758 12 13 12.2244 13 12.5C13 12.7756 12.7758 13 12.5 13Z" fill="currentColor" style="fill-opacity:1"/>
</svg>
