<svg viewBox="0 0 16 16" fill="none" xmlns="http://www.w3.org/2000/svg">
<path d="M13 12.0025H3C2.73488 12.0022 2.4807 11.8967 2.29323 11.7092C2.10576 11.5218 2.0003 11.2676 2 11.0025V4.00246C2.00026 3.73732 2.10571 3.48312 2.29319 3.29564C2.48066 3.10817 2.73486 3.00272 3 3.00246H13C13.2651 3.00276 13.5193 3.10822 13.7068 3.29569C13.8942 3.48316 13.9997 3.73734 14 4.00246V11.0025C13.9996 11.2676 13.8942 11.5217 13.7067 11.7092C13.5193 11.8966 13.2651 12.0021 13 12.0025ZM3 4.00246V11.0025H13V4.00246H3Z" fill="currentColor" style="fill-opacity:1"/>
<path d="M15 13.0025H1V14.0025H15V13.0025Z" fill="currentColor" style="fill-opacity:1"/>
</svg>
