<svg viewBox="0 0 16 16" fill="none" xmlns="http://www.w3.org/2000/svg">
<path id="icon" d="M14.8122 1.1096C14.7358 1.04844 14.643 1.01107 14.5455 1.00213C14.448 0.993185 14.35 1.01306 14.2636 1.0593L8.96765 3.89995L1.683 1.03465C1.59066 0.998295 1.48959 0.990244 1.39266 1.01152C1.29573 1.03279 1.20732 1.08243 1.13869 1.15411C1.07006 1.22579 1.02431 1.31627 1.00727 1.41404C0.990231 1.5118 1.00267 1.61242 1.043 1.7031L4.26065 8.9426C3.97149 9.16889 3.75086 9.47105 3.62336 9.81537C3.49585 10.1597 3.46647 10.5327 3.5385 10.8927C3.61053 11.2528 3.78113 11.5857 4.03129 11.8545C4.28145 12.1233 4.60134 12.3173 4.9553 12.4149C4.85981 12.8629 4.61363 13.2646 4.25781 13.5531C3.90199 13.8415 3.45804 13.9992 3 13.9999H2V14.9999H3C3.71867 14.9986 4.41303 14.7396 4.95692 14.2698C5.50081 13.8001 5.85815 13.1508 5.964 12.4399C6.31554 12.3547 6.63741 12.1758 6.89538 11.9223C7.15335 11.6687 7.33776 11.35 7.429 10.9999H11.62C11.8386 11 12.0512 10.9284 12.2252 10.7961C12.3993 10.6638 12.5252 10.4781 12.5836 10.2675L14.9817 1.63375C15.0079 1.53939 15.0058 1.43941 14.9757 1.34623C14.9455 1.25305 14.8887 1.17077 14.8122 1.1096V1.1096ZM5.5 11.4999C5.30222 11.4999 5.10888 11.4413 4.94443 11.3314C4.77998 11.2215 4.65181 11.0654 4.57612 10.8826C4.50043 10.6999 4.48063 10.4988 4.51921 10.3049C4.5578 10.1109 4.65304 9.93269 4.79289 9.79284C4.93274 9.65299 5.11093 9.55775 5.30491 9.51916C5.49889 9.48058 5.69996 9.50038 5.88268 9.57607C6.06541 9.65175 6.22159 9.77993 6.33147 9.94438C6.44135 10.1088 6.5 10.3022 6.5 10.4999C6.49967 10.7651 6.3942 11.0192 6.20674 11.2067C6.01928 11.3942 5.76511 11.4996 5.5 11.4999V11.4999ZM11.62 9.99995H7.42895C7.31368 9.51229 7.01496 9.08779 6.59487 8.81463C6.17477 8.54148 5.66559 8.44067 5.1731 8.53315L2.4525 2.41185L9.03235 4.99995L13.705 2.49385L11.62 9.99995Z" fill="currentColor" style="fill-opacity:1"/>
</svg>
