<svg viewBox="0 0 16 16" fill="none" xmlns="http://www.w3.org/2000/svg">
<path d="M8 12C7.91845 12 7.8369 11.9801 7.76295 11.9402L1.26295 8.4402L1.73705 7.55985L8 10.9322L14.2629 7.55985L14.737 8.4402L8.23705 11.9402C8.1631 11.9801 8.08155 12 8 12Z" fill="currentColor" style="fill-opacity:1"/>
<path d="M8 15C7.91845 15 7.8369 14.9801 7.76295 14.9402L1.26295 11.4402L1.73705 10.5599L8 13.9322L14.2629 10.5599L14.737 11.4402L8.23705 14.9402C8.1631 14.9801 8.08155 15 8 15Z" fill="currentColor" style="fill-opacity:1"/>
<path d="M14.7371 4.5598L8 0.932152V2.0679L13.4453 5.00005L8 7.9322V9.06795L14.7371 5.44025C14.8991 5.3531 15 5.18415 15 5.00005C15 4.81595 14.8991 4.64695 14.7371 4.5598Z" fill="currentColor" style="fill-opacity:1"/>
<path d="M2.20705 4.70705L4 2.91405V7H5V2.91405L6.79295 4.707L7.5 4L4.5 1L1.5 4L2.20705 4.70705Z" fill="currentColor" style="fill-opacity:1"/>
</svg>
