<svg viewBox="0 0 16 16" fill="none" xmlns="http://www.w3.org/2000/svg">
<path d="M15 11H7.99999V12H15V11Z" fill="currentColor" style="fill-opacity:1"/>
<path d="M4.49999 10H2.49999C2.22385 10 1.99999 10.2239 1.99999 10.5V12.5C1.99999 12.7762 2.22385 13 2.49999 13H4.49999C4.77613 13 4.99999 12.7762 4.99999 12.5V10.5C4.99999 10.2239 4.77613 10 4.49999 10Z" fill="currentColor" style="fill-opacity:1"/>
<path d="M15 4.00004H7.99999V5.00004H15V4.00004Z" fill="currentColor" style="fill-opacity:1"/>
<path d="M4.74999 6.00004H2.24999C2.20737 6.00005 2.16546 5.98916 2.12823 5.96841C2.09101 5.94767 2.05971 5.91775 2.0373 5.8815C2.01489 5.84525 2.00212 5.80387 2.0002 5.76129C1.99828 5.71872 2.00728 5.67636 2.02634 5.63824L3.27634 3.12704C3.29942 3.08831 3.33216 3.05623 3.37136 3.03395C3.41056 3.01168 3.45488 2.99996 3.49996 2.99996C3.54505 2.99996 3.58937 3.01168 3.62857 3.03395C3.66777 3.05623 3.70051 3.08831 3.72359 3.12704L4.97359 5.63829C4.99263 5.67641 5.00162 5.71875 4.9997 5.76132C4.99778 5.80388 4.98501 5.84525 4.96261 5.88149C4.94021 5.91773 4.90892 5.94764 4.87171 5.96839C4.83449 5.98914 4.7926 6.00004 4.74999 6.00004Z" fill="currentColor" style="fill-opacity:1"/>
</svg>
