<svg viewBox="0 0 16 16" fill="none" xmlns="http://www.w3.org/2000/svg">
<path id="icon" d="M14.113 11.406C14.6946 10.365 15 9.19244 15 8C15 6.80756 14.6946 5.63498 14.113 4.594L14.207 4.5C14.3943 4.31233 14.4994 4.05806 14.4994 3.79297C14.4994 3.52788 14.3943 3.27361 14.207 3.08595L12.9142 1.79295C12.7265 1.60576 12.4722 1.50064 12.2071 1.50064C11.942 1.50064 11.6877 1.60576 11.5 1.79295L11.4061 1.8867C10.3651 1.30517 9.19251 0.99987 8.00007 0.99987C6.80762 0.99987 5.63503 1.30517 4.59399 1.8867L4.49999 1.79295C4.3123 1.60571 4.05801 1.50056 3.79289 1.50056C3.52777 1.50056 3.27348 1.60571 3.08579 1.79295L1.79294 3.08595C1.60571 3.27361 1.50056 3.52788 1.50056 3.79297C1.50056 4.05806 1.60571 4.31233 1.79294 4.5L1.88684 4.59375C1.30531 5.63485 1.00001 6.80749 1.00001 8C1.00001 9.1925 1.30531 10.3651 1.88684 11.4062L1.79294 11.5C1.60571 11.6877 1.50056 11.9419 1.50056 12.207C1.50056 12.4721 1.60571 12.7264 1.79294 12.914L3.08579 14.207C3.27346 14.3943 3.52776 14.4995 3.79289 14.4995C4.05802 14.4995 4.31232 14.3943 4.49999 14.207L4.59399 14.113C5.63501 14.6946 6.80759 15 8.00003 15C9.19248 15 10.3651 14.6948 11.4061 14.1133L11.5 14.207C11.6877 14.3943 11.942 14.4995 12.2071 14.4995C12.4722 14.4995 12.7265 14.3943 12.9142 14.207L14.207 12.914C14.3943 12.7264 14.4994 12.4721 14.4994 12.207C14.4994 11.9419 14.3943 11.6877 14.207 11.5L14.113 11.406ZM14 8C13.9997 8.92511 13.785 9.83757 13.3727 10.6657L11.4253 8.71825C11.5249 8.24459 11.5249 7.7554 11.4253 7.28175L13.3727 5.33425C13.785 6.16242 13.9997 7.07488 14 8ZM13.5 3.79295L11.0327 6.26025C10.7231 5.72297 10.2772 5.27696 9.73999 4.9673L12.2071 2.5L13.5 3.79295ZM7.99999 10.5C7.50554 10.5 7.02219 10.3534 6.61106 10.0787C6.19994 9.80397 5.87951 9.41352 5.69029 8.9567C5.50107 8.49989 5.45156 7.99722 5.54803 7.51227C5.64449 7.02732 5.88259 6.58186 6.23222 6.23223C6.58185 5.8826 7.02731 5.6445 7.51226 5.54803C7.99722 5.45157 8.49988 5.50108 8.9567 5.6903C9.41351 5.87952 9.80396 6.19995 10.0787 6.61107C10.3534 7.02219 10.5 7.50554 10.5 8C10.4992 8.66281 10.2356 9.29825 9.76692 9.76693C9.29825 10.2356 8.6628 10.4992 7.99999 10.5V10.5ZM10.6577 2.63525L8.71824 4.5747C8.24459 4.4751 7.75539 4.4751 7.28174 4.5747L5.34229 2.63525C6.17135 2.2359 7.07976 2.02851 7.99999 2.02851C8.92022 2.02851 9.82863 2.2359 10.6577 2.63525V2.63525ZM3.79294 2.5L6.26024 4.9673C5.72296 5.27695 5.27695 5.72296 4.96729 6.26025L2.49999 3.79295L3.79294 2.5ZM1.99999 8C2.00031 7.07494 2.21503 6.16255 2.62729 5.33445L4.57469 7.28175C4.47509 7.7554 4.47509 8.24459 4.57469 8.71825L2.62729 10.6655C2.21503 9.83744 2.00031 8.92505 1.99999 8V8ZM3.79284 13.5L2.49999 12.207L4.96729 9.74C5.27692 10.2773 5.72294 10.7233 6.26024 11.0329L3.79284 13.5ZM5.34229 13.365L7.28174 11.4255C7.75539 11.5251 8.24459 11.5251 8.71824 11.4255L10.6577 13.365C9.82863 13.7643 8.92022 13.9717 7.99999 13.9717C7.07976 13.9717 6.17135 13.7643 5.34229 13.365V13.365ZM12.2073 13.5L9.73999 11.0327C10.2771 10.7231 10.7231 10.2772 11.0327 9.74L13.5 12.207L12.2073 13.5Z" fill="currentColor" style="fill-opacity:1"/>
</svg>
