<svg viewBox="0 0 16 16" fill="none" xmlns="http://www.w3.org/2000/svg">
<path id="icon" d="M14.9472 11.771L14.0853 10.0473C14.0023 9.88126 13.8747 9.74157 13.7167 9.64395C13.5588 9.54633 13.3767 9.49463 13.191 9.49465H12.9569C12.7839 8.68302 12.4765 7.90602 12.0472 7.1958C11.5323 6.22145 11 5.21385 11 4C11 3.20435 10.6839 2.44129 10.1213 1.87868C9.5587 1.31607 8.79564 1 7.99999 1C7.20434 1 6.44128 1.31607 5.87867 1.87868C5.31606 2.44129 4.99999 3.20435 4.99999 4C4.92905 5.10626 4.57645 6.17602 3.97569 7.10765C3.52637 7.84267 3.20976 8.65096 3.04029 9.4956H2.80919C2.62342 9.49562 2.44134 9.54736 2.28332 9.64503C2.12531 9.74271 1.99761 9.88245 1.91454 10.0486L1.05274 11.7719C1.01104 11.8553 0.993488 11.9487 1.00207 12.0416C1.01065 12.1344 1.04501 12.223 1.10129 12.2973L3.11594 14.96C3.34501 15.235 3.66486 15.419 4.01772 15.4787C4.37058 15.5385 4.73318 15.4701 5.04004 15.2859L5.97679 14.7239C6.6338 14.9156 7.31564 15.0087 7.99999 15C8.68476 15.0088 9.36704 14.9157 10.0244 14.7236L10.96 15.285C11.1921 15.4253 11.458 15.4996 11.7292 15.5C11.9534 15.4988 12.1744 15.448 12.3766 15.3513C12.5788 15.2546 12.7571 15.1144 12.8987 14.9406L14.8987 12.2964C14.9549 12.222 14.9892 12.1334 14.9978 12.0406C15.0064 11.9478 14.9889 11.8544 14.9472 11.771V11.771ZM11.1631 7.6631C11.5041 8.23581 11.7663 8.85187 11.9426 9.49465H10.869C10.7434 9.04067 10.5794 8.59817 10.379 8.1719C10.1911 7.78042 10.0439 7.37071 9.93954 6.9492C10.13 6.72845 10.2981 6.48933 10.4412 6.23535L10.4604 6.19945C10.6687 6.69937 10.9033 7.18793 11.1631 7.6631V7.6631ZM5.99999 10.5C6.03856 9.82702 6.2215 9.17022 6.53639 8.5742C6.66454 8.28295 6.79429 7.98635 6.89939 7.67455C7.22716 7.88697 7.6094 8 7.99999 8C8.39057 8 8.77282 7.88697 9.10059 7.67455C9.20559 7.98635 9.33559 8.28295 9.46359 8.5742C9.77848 9.17022 9.96142 9.82702 9.99999 10.5C9.99999 11.1441 9.79269 12 7.99999 12C6.20729 12 5.99999 11.1441 5.99999 10.5ZM9.25524 6.2124C9.11327 6.42467 8.92806 6.60456 8.71174 6.74028C8.49543 6.87601 8.25288 6.96451 7.99999 7C7.74706 6.96447 7.50449 6.87593 7.28816 6.74016C7.07183 6.60439 6.88661 6.42446 6.74464 6.21215C7.55757 5.92912 8.4423 5.92912 9.25524 6.21215V6.2124ZM5.99999 4C5.99999 3.46957 6.2107 2.96086 6.58577 2.58579C6.96085 2.21071 7.46955 2 7.99999 2C8.53042 2 9.03913 2.21071 9.4142 2.58579C9.78927 2.96086 9.99999 3.46957 9.99999 4C10.0022 4.52777 10.0809 5.05243 10.2336 5.5576C10.0002 5.42829 9.75446 5.32271 9.49999 5.24245V4H8.49999V5.0271C8.16763 4.99097 7.83234 4.99097 7.49999 5.0271V4H6.49999V5.24245C6.24337 5.3232 5.99566 5.42996 5.76074 5.56105C5.91721 5.05539 5.99783 4.52932 5.99999 4V4ZM4.85729 7.5796C5.10696 7.12843 5.33305 6.66461 5.53464 6.19L5.55884 6.235C5.70202 6.48898 5.87008 6.7281 6.06054 6.94885C5.95622 7.37036 5.80896 7.78007 5.62109 8.17155C5.42042 8.59811 5.25633 9.04093 5.13059 9.49525H4.05234C4.22426 8.82034 4.49554 8.17474 4.85729 7.5796V7.5796ZM5.54269 13.8183L4.52539 14.4287C4.42696 14.4895 4.31028 14.5138 4.19577 14.4973C4.08126 14.4808 3.97619 14.4245 3.89894 14.3384L2.08619 11.9417L2.80909 10.4956H4.66209L5.74499 13.1926C5.79223 13.3038 5.79777 13.4283 5.76061 13.5433C5.72345 13.6582 5.64607 13.7559 5.54269 13.8183V13.8183ZM6.70069 13.8772C6.82142 13.5341 6.81142 13.1584 6.67259 12.8222C7.10376 12.9471 7.55114 13.0071 7.99999 13C8.44909 13.007 8.89673 12.947 9.32809 12.8218C9.19099 13.1584 9.18128 13.5335 9.30079 13.8768C8.44187 14.0407 7.55971 14.0407 6.70079 13.8768L6.70069 13.8772ZM12.1157 14.3188C12.0396 14.4109 11.933 14.4725 11.8153 14.4925C11.6975 14.5125 11.5765 14.4895 11.4743 14.4277L10.4572 13.8174C10.3526 13.7535 10.2747 13.6536 10.2383 13.5365C10.2019 13.4193 10.2093 13.2929 10.2592 13.1809L11.3377 10.4946H13.1906L13.9137 11.9406L12.1157 14.3188Z" fill="currentColor" style="fill-opacity:1"/>
</svg>
