<svg viewBox="0 0 16 16" fill="none" xmlns="http://www.w3.org/2000/svg">
<path d="M12.5 8H8.50001V6H7.50001V8H3.50001C3.23489 8.0003 2.98071 8.10576 2.79324 8.29323C2.60577 8.4807 2.50032 8.73488 2.50001 9V11H3.50001V9H7.50001V11H8.50001V9H12.5V11H13.5V9C13.4997 8.73488 13.3943 8.4807 13.2068 8.29323C13.0193 8.10576 12.7651 8.0003 12.5 8Z" fill="currentColor" style="fill-opacity:1"/>
<path d="M10 5V1H6.00001V5H10ZM7.00001 4V2H9.00001V4H7.00001Z" fill="currentColor" style="fill-opacity:1"/>
<path d="M13 12C12.6908 12.0009 12.3895 12.0976 12.1374 12.2766C11.8853 12.4557 11.6949 12.7084 11.5922 13H9.40786C9.30598 12.7078 9.11572 12.4546 8.86346 12.2754C8.6112 12.0962 8.30944 12 8.00001 12C7.69059 12 7.38883 12.0962 7.13657 12.2754C6.88431 12.4546 6.69405 12.7078 6.59216 13H4.40786C4.28992 12.6664 4.05783 12.3852 3.75262 12.2062C3.44742 12.0271 3.08875 11.9618 2.74 12.0216C2.39125 12.0814 2.07488 12.2626 1.84681 12.5332C1.61874 12.8037 1.49365 13.1462 1.49365 13.5C1.49365 13.8538 1.61874 14.1963 1.84681 14.4668C2.07488 14.7374 2.39125 14.9186 2.74 14.9784C3.08875 15.0382 3.44742 14.9729 3.75262 14.7938C4.05783 14.6148 4.28992 14.3336 4.40786 14H6.59216C6.69405 14.2922 6.88431 14.5454 7.13657 14.7246C7.38883 14.9038 7.69059 15 8.00001 15C8.30944 15 8.6112 14.9038 8.86346 14.7246C9.11572 14.5454 9.30598 14.2922 9.40786 14H11.5922C11.6843 14.2585 11.8457 14.4868 12.0588 14.6598C12.2719 14.8328 12.5284 14.9439 12.8003 14.981C13.0723 15.018 13.3492 14.9797 13.6008 14.87C13.8524 14.7604 14.0691 14.5837 14.227 14.3592C14.385 14.1348 14.4783 13.8713 14.4966 13.5974C14.515 13.3236 14.4577 13.0499 14.331 12.8064C14.2044 12.5629 14.0133 12.3589 13.7785 12.2167C13.5438 12.0745 13.2745 11.9995 13 12ZM3.00001 14C2.90112 14 2.80445 13.9707 2.72223 13.9157C2.64 13.8608 2.57592 13.7827 2.53807 13.6913C2.50023 13.6 2.49033 13.4994 2.50962 13.4025C2.52891 13.3055 2.57654 13.2164 2.64646 13.1464C2.71639 13.0765 2.80548 13.0289 2.90247 13.0096C2.99946 12.9903 3.09999 13.0002 3.19136 13.0381C3.28272 13.0759 3.36081 13.14 3.41575 13.2222C3.47069 13.3044 3.50001 13.4011 3.50001 13.5C3.4999 13.6326 3.44718 13.7597 3.35344 13.8534C3.25969 13.9472 3.13259 13.9999 3.00001 14ZM8.00001 14C7.90112 14 7.80445 13.9707 7.72223 13.9157C7.64 13.8608 7.57592 13.7827 7.53807 13.6913C7.50023 13.6 7.49033 13.4994 7.50962 13.4025C7.52891 13.3055 7.57653 13.2164 7.64646 13.1464C7.71639 13.0765 7.80548 13.0289 7.90247 13.0096C7.99946 12.9903 8.09999 13.0002 8.19136 13.0381C8.28272 13.0759 8.36081 13.14 8.41575 13.2222C8.47069 13.3044 8.50001 13.4011 8.50001 13.5C8.4999 13.6326 8.44718 13.7597 8.35344 13.8534C8.25969 13.9472 8.13259 13.9999 8.00001 14ZM13 14C12.9011 14 12.8045 13.9707 12.7222 13.9157C12.64 13.8608 12.5759 13.7827 12.5381 13.6913C12.5002 13.6 12.4903 13.4994 12.5096 13.4025C12.5289 13.3055 12.5765 13.2164 12.6465 13.1464C12.7164 13.0765 12.8055 13.0289 12.9025 13.0096C12.9995 12.9903 13.1 13.0002 13.1914 13.0381C13.2827 13.0759 13.3608 13.14 13.4158 13.2222C13.4707 13.3044 13.5 13.4011 13.5 13.5C13.4999 13.6326 13.4472 13.7597 13.3534 13.8534C13.2597 13.9472 13.1326 13.9999 13 14Z" fill="currentColor" style="fill-opacity:1"/>
</svg>
