<svg viewBox="0 0 16 16" fill="none" xmlns="http://www.w3.org/2000/svg">
<path d="M11 7.49996H5V8.49996H11V7.49996Z" fill="currentColor" style="fill-opacity:1"/>
<path d="M4.35 3.14256C4.44762 2.94234 4.49889 2.72271 4.5 2.49996C4.5 2.20329 4.41203 1.91328 4.2472 1.66661C4.08238 1.41993 3.84811 1.22767 3.57402 1.11414C3.29994 1.00061 2.99834 0.970905 2.70736 1.02878C2.41639 1.08666 2.14912 1.22952 1.93934 1.4393C1.72956 1.64908 1.5867 1.91635 1.52882 2.20733C1.47094 2.4983 1.50065 2.7999 1.61418 3.07399C1.72771 3.34807 1.91997 3.58234 2.16664 3.74716C2.41332 3.91199 2.70333 3.99996 3 3.99996C3.22279 3.99883 3.44245 3.94742 3.6426 3.84956L5 5.20701V6.49996H6V4.79291L4.35 3.14256ZM3 2.99996C2.90111 2.99996 2.80444 2.97064 2.72221 2.9157C2.63999 2.86075 2.5759 2.78267 2.53806 2.6913C2.50022 2.59994 2.49031 2.49941 2.50961 2.40242C2.5289 2.30542 2.57652 2.21633 2.64645 2.14641C2.71637 2.07648 2.80546 2.02886 2.90245 2.00957C2.99944 1.99028 3.09998 2.00018 3.19134 2.03802C3.2827 2.07586 3.36079 2.13995 3.41573 2.22218C3.47067 2.3044 3.5 2.40107 3.5 2.49996C3.49988 2.63253 3.44716 2.75964 3.35342 2.85338C3.25968 2.94712 3.13257 2.99984 3 2.99996Z" fill="currentColor" style="fill-opacity:1"/>
<path d="M9.5 2.49996C9.50119 2.22469 9.42662 1.9544 9.28443 1.71869C9.14225 1.48297 8.93795 1.29093 8.6939 1.16359C8.44985 1.03626 8.17546 0.978529 7.90079 0.996737C7.62612 1.01495 7.36176 1.10839 7.13665 1.26683C6.91155 1.42527 6.73438 1.6426 6.62456 1.89501C6.51474 2.14743 6.47649 2.4252 6.51401 2.69791C6.55153 2.97061 6.66337 3.22773 6.83728 3.44111C7.0112 3.65449 7.24047 3.8159 7.5 3.90766V6.49996H8.5V3.90791C8.79162 3.80514 9.04429 3.61464 9.22333 3.36256C9.40238 3.11047 9.49902 2.80916 9.5 2.49996ZM8 2.99996C7.90111 2.99996 7.80444 2.97064 7.72221 2.9157C7.63999 2.86075 7.5759 2.78267 7.53806 2.6913C7.50022 2.59994 7.49031 2.49941 7.50961 2.40242C7.5289 2.30542 7.57652 2.21633 7.64645 2.14641C7.71637 2.07648 7.80546 2.02886 7.90245 2.00957C7.99944 1.99028 8.09998 2.00018 8.19134 2.03802C8.2827 2.07586 8.36079 2.13995 8.41573 2.22218C8.47067 2.3044 8.5 2.40107 8.5 2.49996C8.49988 2.63253 8.44716 2.75964 8.35342 2.85338C8.25968 2.94712 8.13257 2.99984 8 2.99996Z" fill="currentColor" style="fill-opacity:1"/>
<path d="M13 0.999961C12.6023 1.0004 12.221 1.15857 11.9398 1.43978C11.6586 1.72099 11.5004 2.10227 11.5 2.49996C11.5011 2.72271 11.5524 2.94234 11.65 3.14256L10 4.79291V6.49996H11V5.20701L12.3574 3.84956C12.5575 3.94742 12.7772 3.99883 13 3.99996C13.3978 3.99996 13.7794 3.84193 14.0607 3.56062C14.342 3.27932 14.5 2.89779 14.5 2.49996C14.5 2.10214 14.342 1.72061 14.0607 1.4393C13.7794 1.158 13.3978 0.999961 13 0.999961ZM13 2.99996C12.9011 2.99996 12.8044 2.97064 12.7222 2.9157C12.64 2.86075 12.5759 2.78267 12.5381 2.6913C12.5002 2.59994 12.4903 2.49941 12.5096 2.40242C12.5289 2.30542 12.5765 2.21633 12.6464 2.14641C12.7164 2.07648 12.8055 2.02886 12.9025 2.00957C12.9994 1.99028 13.1 2.00018 13.1913 2.03802C13.2827 2.07586 13.3608 2.13995 13.4157 2.22218C13.4707 2.3044 13.5 2.40107 13.5 2.49996C13.4999 2.63253 13.4472 2.75964 13.3534 2.85338C13.2597 2.94712 13.1326 2.99984 13 2.99996Z" fill="currentColor" style="fill-opacity:1"/>
<path d="M6 9.49996H5V10.7929L3.6427 12.1504C3.44251 12.0525 3.22282 12.0011 3 12C2.70333 12 2.41332 12.0879 2.16664 12.2528C1.91997 12.4176 1.72771 12.6518 1.61418 12.9259C1.50065 13.2 1.47094 13.5016 1.52882 13.7926C1.5867 14.0836 1.72956 14.3508 1.93934 14.5606C2.14912 14.7704 2.41639 14.9133 2.70736 14.9711C2.99834 15.029 3.29994 14.9993 3.57402 14.8858C3.84811 14.7722 4.08238 14.58 4.2472 14.3333C4.41203 14.0866 4.5 13.7966 4.5 13.5C4.49889 13.2772 4.44762 13.0576 4.35 12.8574L6 11.207V9.49996ZM3 14C2.90111 14 2.80444 13.9706 2.72221 13.9157C2.63999 13.8608 2.5759 13.7827 2.53806 13.6913C2.50022 13.5999 2.49031 13.4994 2.50961 13.4024C2.5289 13.3054 2.57652 13.2163 2.64645 13.1464C2.71637 13.0765 2.80546 13.0289 2.90245 13.0096C2.99944 12.9903 3.09998 13.0002 3.19134 13.038C3.2827 13.0759 3.36079 13.1399 3.41573 13.2222C3.47067 13.3044 3.5 13.4011 3.5 13.5C3.49988 13.6325 3.44716 13.7596 3.35342 13.8534C3.25968 13.9471 3.13257 13.9998 3 14Z" fill="currentColor" style="fill-opacity:1"/>
<path d="M8.5 12.092V9.49996H7.5V12.092C7.16639 12.21 6.88522 12.442 6.70618 12.7472C6.52715 13.0525 6.46177 13.4111 6.5216 13.7599C6.58144 14.1086 6.76264 14.425 7.03317 14.6531C7.3037 14.8811 7.64616 15.0062 8 15.0062C8.35384 15.0062 8.6963 14.8811 8.96683 14.6531C9.23736 14.425 9.41856 14.1086 9.4784 13.7599C9.53823 13.4111 9.47285 13.0525 9.29382 12.7472C9.11478 12.442 8.83361 12.21 8.5 12.092ZM8 14C7.90111 14 7.80444 13.9706 7.72221 13.9157C7.63999 13.8608 7.5759 13.7827 7.53806 13.6913C7.50022 13.5999 7.49031 13.4994 7.50961 13.4024C7.5289 13.3054 7.57652 13.2163 7.64645 13.1464C7.71637 13.0765 7.80546 13.0289 7.90245 13.0096C7.99944 12.9903 8.09998 13.0002 8.19134 13.038C8.2827 13.0759 8.36079 13.1399 8.41573 13.2222C8.47068 13.3044 8.5 13.4011 8.5 13.5C8.49988 13.6325 8.44716 13.7596 8.35342 13.8534C8.25968 13.9471 8.13257 13.9998 8 14Z" fill="currentColor" style="fill-opacity:1"/>
<path d="M13 12C12.7772 12.0011 12.5575 12.0525 12.3573 12.1504L11 10.7929V9.49996H10V11.207L11.65 12.8574C11.5524 13.0576 11.5011 13.2772 11.5 13.5C11.5 13.7966 11.588 14.0866 11.7528 14.3333C11.9176 14.58 12.1519 14.7722 12.426 14.8858C12.7001 14.9993 13.0017 15.029 13.2926 14.9711C13.5836 14.9133 13.8509 14.7704 14.0607 14.5606C14.2704 14.3508 14.4133 14.0836 14.4712 13.7926C14.5291 13.5016 14.4994 13.2 14.3858 12.9259C14.2723 12.6518 14.08 12.4176 13.8334 12.2528C13.5867 12.0879 13.2967 12 13 12ZM13 14C12.9011 14 12.8044 13.9706 12.7222 13.9157C12.64 13.8608 12.5759 13.7827 12.5381 13.6913C12.5002 13.5999 12.4903 13.4994 12.5096 13.4024C12.5289 13.3054 12.5765 13.2163 12.6464 13.1464C12.7164 13.0765 12.8055 13.0289 12.9025 13.0096C12.9994 12.9903 13.1 13.0002 13.1913 13.038C13.2827 13.0759 13.3608 13.1399 13.4157 13.2222C13.4707 13.3044 13.5 13.4011 13.5 13.5C13.4999 13.6325 13.4472 13.7596 13.3534 13.8534C13.2597 13.9471 13.1326 13.9998 13 14Z" fill="currentColor" style="fill-opacity:1"/>
</svg>
