<svg viewBox="0 0 16 16" fill="none" xmlns="http://www.w3.org/2000/svg">
<path id="icon" d="M7.99999 1C6.54185 1.00177 5.14393 1.5818 4.11287 2.61287C3.0818 3.64394 2.50177 5.04185 2.49999 6.5C2.49827 7.69163 2.88756 8.85092 3.60814 9.8C3.60814 9.8 3.75814 9.99725 3.78224 10.0259L7.99999 15L12.2195 10.0237C12.2417 9.99705 12.3918 9.7998 12.3918 9.7998L12.3926 9.7986C13.1127 8.84987 13.5018 7.69109 13.5 6.5C13.4982 5.04185 12.9182 3.64394 11.8871 2.61287C10.8561 1.5818 9.45814 1.00177 7.99999 1V1ZM7.43749 3.5H8.56249V8H7.43749V3.5ZM7.99999 11C7.85166 11 7.70665 10.956 7.58332 10.8736C7.45998 10.7912 7.36385 10.6741 7.30708 10.537C7.25032 10.4 7.23547 10.2492 7.26441 10.1037C7.29334 9.9582 7.36477 9.82456 7.46966 9.71967C7.57455 9.61478 7.70819 9.54335 7.85368 9.51441C7.99916 9.48547 8.14996 9.50033 8.28701 9.55709C8.42405 9.61386 8.54119 9.70999 8.6236 9.83332C8.70601 9.95666 8.74999 10.1017 8.74999 10.25C8.74999 10.4489 8.67098 10.6397 8.53032 10.7803C8.38967 10.921 8.19891 11 7.99999 11Z" fill="currentColor" style="fill-opacity:1"/>
</svg>
