<svg viewBox="0 0 16 16" fill="none" xmlns="http://www.w3.org/2000/svg">
<path id="icon" d="M7.99999 1C6.54185 1.00177 5.14393 1.5818 4.11287 2.61287C3.0818 3.64394 2.50177 5.04185 2.49999 6.5C2.49827 7.69163 2.88756 8.85092 3.60814 9.8C3.60814 9.8 3.75814 9.99725 3.78224 10.0259L7.99999 15L12.2195 10.0237C12.2417 9.99705 12.3918 9.7998 12.3918 9.7998L12.3926 9.7986C13.1127 8.84987 13.5018 7.69109 13.5 6.5C13.4982 5.04185 12.9182 3.64394 11.8871 2.61287C10.8561 1.5818 9.45814 1.00177 7.99999 1V1ZM7.99999 8.5C7.60443 8.5 7.21775 8.3827 6.88885 8.16294C6.55996 7.94318 6.30361 7.63082 6.15224 7.26537C6.00086 6.89991 5.96125 6.49778 6.03842 6.10982C6.11559 5.72186 6.30608 5.36549 6.58578 5.08579C6.86549 4.80608 7.22185 4.6156 7.60981 4.53843C7.99778 4.46126 8.39991 4.50087 8.76536 4.65224C9.13081 4.80362 9.44317 5.05996 9.66293 5.38886C9.8827 5.71776 9.99999 6.10444 9.99999 6.5C9.9994 7.03025 9.78849 7.53861 9.41355 7.91356C9.03861 8.2885 8.53024 8.4994 7.99999 8.5Z" fill="currentColor" style="fill-opacity:1"/>
</svg>
