<svg viewBox="0 0 16 16" fill="none" xmlns="http://www.w3.org/2000/svg">
<path id="icon" d="M7.99999 1C6.54185 1.00177 5.14393 1.5818 4.11287 2.61287C3.0818 3.64394 2.50177 5.04185 2.49999 6.5C2.49827 7.69163 2.88756 8.85092 3.60814 9.8C3.60814 9.8 3.75814 9.99725 3.78224 10.0259L7.99999 15L12.2195 10.0237C12.2417 9.99705 12.3918 9.7998 12.3918 9.7998L12.3926 9.7986C13.1127 8.84987 13.5018 7.69109 13.5 6.5C13.4982 5.04185 12.9182 3.64394 11.8871 2.61287C10.8561 1.5818 9.45814 1.00177 7.99999 1V1ZM9.79999 9L7.99999 7.85425L6.19999 9L6.49999 6.9629L4.99999 5.58645L7.09999 5.33325L7.99999 3.5L8.95579 5.33325L11 5.58645L9.49999 6.9629L9.79999 9Z" fill="currentColor" style="fill-opacity:1"/>
</svg>
