<svg viewBox="0 0 16 16" fill="none" xmlns="http://www.w3.org/2000/svg">
<path d="M7.99999 3.5L8.95599 5.3335L11 5.5865L9.49999 6.963L9.79999 9L7.99999 7.854L6.19999 9L6.49999 6.963L4.99999 5.5865L7.09999 5.3335L7.99999 3.5Z" fill="currentColor" style="fill-opacity:1"/>
<path d="M7.99999 15L3.78224 10.0257C3.75829 9.9971 3.60814 9.7999 3.60814 9.7999C2.8876 8.85084 2.49831 7.6916 2.49999 6.5C2.49999 5.04131 3.07946 3.64236 4.11091 2.61091C5.14236 1.57946 6.5413 1 7.99999 1C9.45868 1 10.8576 1.57946 11.8891 2.61091C12.9205 3.64236 13.5 5.04131 13.5 6.5C13.5018 7.69111 13.1128 8.84991 12.3926 9.79865L12.3918 9.7999C12.3918 9.7999 12.2418 9.9971 12.2195 10.0236L7.99999 15ZM4.40624 9.1975C4.40624 9.1975 4.52294 9.3516 4.54954 9.3847L7.99999 13.4539L11.455 9.37895C11.4769 9.35135 11.5944 9.1961 11.5944 9.1961C12.183 8.42064 12.5011 7.47356 12.5 6.5C12.5 5.30653 12.0259 4.16193 11.182 3.31802C10.3381 2.47411 9.19347 2 7.99999 2C6.80652 2 5.66193 2.47411 4.81801 3.31802C3.9741 4.16193 3.49999 5.30653 3.49999 6.5C3.49889 7.47409 3.81724 8.42167 4.40624 9.1975Z" fill="currentColor" style="fill-opacity:1"/>
</svg>
