<svg viewBox="0 0 16 16" fill="none" xmlns="http://www.w3.org/2000/svg">
<path d="M8.5 9V5.5H6.5V6.5H7.5V9H6V10H10V9H8.5Z" fill="currentColor" style="fill-opacity:1"/>
<path d="M7.75 3C7.3358 3 7 3.3358 7 3.75C7 4.1642 7.3358 4.5 7.75 4.5C8.1642 4.5 8.5 4.1642 8.5 3.75C8.5 3.3358 8.1642 3 7.75 3Z" fill="currentColor" style="fill-opacity:1"/>
<path d="M8 15L3.78225 10.0256C3.7583 9.9971 3.6082 9.79985 3.6082 9.79985C2.88285 8.83645 2.50005 7.6966 2.50005 6.49995C2.50005 3.4679 4.96735 0.999947 8.00005 0.999947C11.0327 0.999947 13.5 3.4679 13.5 6.49995C13.5 7.6966 13.1172 8.83645 12.3926 9.7986L12.3919 9.7998C12.3919 9.7998 12.2417 9.997 12.2195 10.0235L8 15ZM4.40625 9.1975C4.40625 9.1975 4.52295 9.35165 4.54955 9.3847L8 13.4539L11.4551 9.37905C11.477 9.35145 11.5945 9.19625 11.5945 9.19625C12.187 8.40895 12.5 7.47745 12.5 6.5C12.5 4.01925 10.4812 2 8 2C5.5188 2 3.5 4.01925 3.5 6.5C3.5 7.47795 3.8135 8.40995 4.40625 9.1975Z" fill="currentColor" style="fill-opacity:1"/>
</svg>
