<svg viewBox="0 0 16 16" fill="none" xmlns="http://www.w3.org/2000/svg">
<path d="M9.1515 4.5C8.97363 4.5 8.79758 4.53566 8.63373 4.60486C8.46988 4.67406 8.32156 4.7754 8.19755 4.9029L8.00095 5.1056L7.80245 4.9029C7.67844 4.77541 7.53013 4.67406 7.36628 4.60486C7.20244 4.53566 7.02638 4.50001 6.84852 4.50001C6.67066 4.50001 6.49461 4.53566 6.33077 4.60486C6.16692 4.67406 6.01861 4.77541 5.8946 4.9029C5.64152 5.16401 5.49999 5.51337 5.49999 5.877C5.49999 6.24063 5.64152 6.58999 5.8946 6.8511L8.00095 9L10.1054 6.8511C10.3585 6.58999 10.5 6.24063 10.5 5.877C10.5 5.51337 10.3585 5.16401 10.1054 4.9029C9.98139 4.77541 9.83308 4.67407 9.66924 4.60487C9.5054 4.53567 9.32935 4.50001 9.1515 4.5Z" fill="currentColor" style="fill-opacity:1"/>
<path d="M8 15L3.78225 10.0257C3.7583 9.9971 3.60815 9.7999 3.60815 9.7999C2.8876 8.85084 2.49831 7.6916 2.5 6.5C2.5 5.04131 3.07946 3.64236 4.11091 2.61091C5.14236 1.57946 6.54131 1 8 1C9.45869 1 10.8576 1.57946 11.8891 2.61091C12.9205 3.64236 13.5 5.04131 13.5 6.5C13.5018 7.69111 13.1128 8.84991 12.3926 9.79865L12.3918 9.7999C12.3918 9.7999 12.2418 9.9971 12.2195 10.0236L8 15ZM4.40625 9.1975C4.40625 9.1975 4.52295 9.3516 4.54955 9.3847L8 13.4539L11.455 9.37895C11.4769 9.35135 11.5944 9.1961 11.5944 9.1961C12.183 8.42064 12.5011 7.47356 12.5 6.5C12.5 5.30653 12.0259 4.16193 11.182 3.31802C10.3381 2.47411 9.19347 2 8 2C6.80652 2 5.66193 2.47411 4.81802 3.31802C3.9741 4.16193 3.5 5.30653 3.5 6.5C3.49889 7.47409 3.81724 8.42167 4.40625 9.1975Z" fill="currentColor" style="fill-opacity:1"/>
</svg>
