<svg viewBox="0 0 16 16" fill="none" xmlns="http://www.w3.org/2000/svg">
<path d="M7.99999 9C7.50554 9 7.02219 8.85338 6.61107 8.57867C6.19995 8.30397 5.87951 7.91352 5.6903 7.45671C5.50108 6.99989 5.45157 6.49723 5.54803 6.01227C5.64449 5.52732 5.8826 5.08186 6.23223 4.73223C6.58186 4.3826 7.02732 4.1445 7.51227 4.04804C7.99722 3.95157 8.49989 4.00108 8.9567 4.1903C9.41352 4.37952 9.80397 4.69995 10.0787 5.11107C10.3534 5.5222 10.5 6.00555 10.5 6.5C10.4992 7.16281 10.2356 7.79826 9.76693 8.26693C9.29825 8.73561 8.6628 8.99925 7.99999 9ZM7.99999 5C7.70332 5 7.41331 5.08797 7.16664 5.2528C6.91997 5.41762 6.72771 5.65189 6.61417 5.92597C6.50064 6.20006 6.47094 6.50166 6.52882 6.79264C6.58669 7.08361 6.72956 7.35088 6.93933 7.56066C7.14911 7.77044 7.41639 7.9133 7.70736 7.97118C7.99833 8.02906 8.29993 7.99935 8.57402 7.88582C8.84811 7.77229 9.08238 7.58003 9.2472 7.33336C9.41202 7.08668 9.49999 6.79667 9.49999 6.5C9.49956 6.10231 9.34138 5.72103 9.06017 5.43982C8.77896 5.15861 8.39769 5.00044 7.99999 5Z" fill="currentColor" style="fill-opacity:1"/>
<path d="M7.99999 15L3.78224 10.0257C3.75829 9.9971 3.60814 9.7999 3.60814 9.7999C2.8876 8.85084 2.49831 7.6916 2.49999 6.5C2.49999 5.04131 3.07946 3.64236 4.11091 2.61091C5.14236 1.57946 6.5413 1 7.99999 1C9.45868 1 10.8576 1.57946 11.8891 2.61091C12.9205 3.64236 13.5 5.04131 13.5 6.5C13.5018 7.69111 13.1128 8.84991 12.3926 9.79865L12.3918 9.7999C12.3918 9.7999 12.2418 9.9971 12.2195 10.0236L7.99999 15ZM4.40624 9.1975C4.40624 9.1975 4.52294 9.3516 4.54954 9.3847L7.99999 13.4539L11.455 9.37895C11.4769 9.35135 11.5944 9.1961 11.5944 9.1961C12.183 8.42064 12.5011 7.47356 12.5 6.5C12.5 5.30653 12.0259 4.16193 11.182 3.31802C10.3381 2.47411 9.19347 2 7.99999 2C6.80652 2 5.66193 2.47411 4.81801 3.31802C3.9741 4.16193 3.49999 5.30653 3.49999 6.5C3.49889 7.47409 3.81724 8.42167 4.40624 9.1975Z" fill="currentColor" style="fill-opacity:1"/>
</svg>
