<svg viewBox="0 0 16 16" fill="none" xmlns="http://www.w3.org/2000/svg">
<path id="icon" d="M2 6.49172C1.99836 6.59306 2.02755 6.69249 2.08371 6.77686C2.13987 6.86122 2.22033 6.92653 2.31445 6.96413L7.1152 8.88457L9.03555 13.6855C9.07265 13.7784 9.13673 13.858 9.21953 13.914C9.30232 13.9701 9.40001 14 9.5 14H9.5081C9.60934 13.9983 9.7077 13.9659 9.79017 13.9072C9.87263 13.8484 9.93534 13.766 9.97 13.6709L13.97 2.67053C14.0026 2.58107 14.0089 2.48418 13.9883 2.39124C13.9677 2.2983 13.921 2.21317 13.8537 2.14587C13.7864 2.07856 13.7012 2.03187 13.6083 2.01129C13.5153 1.99071 13.4184 1.99708 13.329 2.02968L2.329 6.02968C2.23385 6.06437 2.15147 6.12711 2.09273 6.2096C2.03399 6.2921 2.00166 6.39047 2 6.49172V6.49172Z" fill="currentColor" style="fill-opacity:1"/>
</svg>
