<svg viewBox="0 0 16 16" fill="none" xmlns="http://www.w3.org/2000/svg">
<path d="M9 15H10V14C10.0001 13.8674 10.0528 13.7403 10.1466 13.6466C10.2403 13.5528 10.3674 13.5001 10.5 13.5H13.5C13.6326 13.5001 13.7597 13.5528 13.8534 13.6466C13.9472 13.7403 13.9999 13.8674 14 14V15H15V14C14.9996 13.6023 14.8414 13.221 14.5602 12.9398C14.279 12.6586 13.8977 12.5004 13.5 12.5H10.5C10.1023 12.5004 9.72103 12.6586 9.43982 12.9398C9.15861 13.221 9.00044 13.6023 9 14V15Z" fill="currentColor" style="fill-opacity:1"/>
<path d="M12 12C11.6044 12 11.2178 11.8827 10.8889 11.6629C10.56 11.4432 10.3036 11.1308 10.1522 10.7654C10.0009 10.3999 9.96126 9.99778 10.0384 9.60982C10.1156 9.22186 10.3061 8.86549 10.5858 8.58579C10.8655 8.30608 11.2219 8.1156 11.6098 8.03843C11.9978 7.96126 12.3999 8.00086 12.7654 8.15224C13.1308 8.30362 13.4432 8.55996 13.6629 8.88886C13.8827 9.21776 14 9.60444 14 10C13.9994 10.5303 13.7886 11.0386 13.4136 11.4136C13.0386 11.7886 12.5303 11.9994 12 12ZM12 9C11.8022 9 11.6089 9.05865 11.4444 9.16853C11.28 9.27841 11.1518 9.43459 11.0761 9.61732C11.0004 9.80004 10.9806 10.0011 11.0192 10.1951C11.0578 10.3891 11.153 10.5673 11.2929 10.7071C11.4327 10.847 11.6109 10.9422 11.8049 10.9808C11.9989 11.0194 12.2 10.9996 12.3827 10.9239C12.5654 10.8482 12.7216 10.72 12.8315 10.5556C12.9414 10.3911 13 10.1978 13 10C12.9997 9.73488 12.8942 9.4807 12.7068 9.29323C12.5193 9.10576 12.2651 9.0003 12 9Z" fill="currentColor" style="fill-opacity:1"/>
<path d="M12.6709 5.03009L1.67091 1.03009C1.58148 0.997538 1.48462 0.991185 1.3917 1.01178C1.29879 1.03237 1.21368 1.07905 1.14638 1.14634C1.07908 1.21362 1.03237 1.29872 1.01176 1.39163C0.991147 1.48454 0.997477 1.5814 1.03001 1.67084L5.03001 12.6708C5.06465 12.766 5.12735 12.8484 5.20983 12.9072C5.29231 12.966 5.39068 12.9984 5.49196 13.0001H5.50001C5.59997 13.0001 5.69765 12.9701 5.78042 12.9141C5.86319 12.858 5.92726 12.7785 5.96436 12.6856L7.88501 7.88469L12.6858 5.96429C12.7799 5.92673 12.8604 5.86146 12.9166 5.77713C12.9728 5.6928 13.002 5.59339 13.0004 5.49207C12.9988 5.39075 12.9665 5.2923 12.9077 5.20977C12.8489 5.12724 12.7662 5.06468 12.6709 5.03009ZM7.11526 7.11509L5.52226 11.0979L2.33596 2.33584L11.0982 5.52214L7.11526 7.11509Z" fill="currentColor" style="fill-opacity:1"/>
</svg>
