<svg viewBox="0 0 16 16" fill="none" xmlns="http://www.w3.org/2000/svg">
<path d="M8 6C8.27614 6 8.5 5.77614 8.5 5.5C8.5 5.22386 8.27614 5 8 5C7.72386 5 7.5 5.22386 7.5 5.5C7.5 5.77614 7.72386 6 8 6Z" fill="currentColor" style="fill-opacity:1"/>
<path d="M8 1C6.54186 1.00177 5.14394 1.5818 4.11287 2.61287C3.08181 3.64394 2.50177 5.04185 2.5 6.5C2.49828 7.69163 2.88757 8.85092 3.60815 9.8C3.60815 9.8 3.75815 9.99725 3.78225 10.0259L8 15L12.2195 10.0237C12.2417 9.99705 12.3919 9.7998 12.3919 9.7998L12.3926 9.7986C13.1128 8.84987 13.5018 7.69109 13.5 6.5C13.4982 5.04185 12.9182 3.64394 11.8871 2.61287C10.8561 1.5818 9.45815 1.00177 8 1ZM8 4C8.29667 4 8.58668 4.08797 8.83336 4.2528C9.08003 4.41762 9.27229 4.65189 9.38582 4.92597C9.49935 5.20006 9.52906 5.50166 9.47118 5.79264C9.4133 6.08361 9.27044 6.35088 9.06066 6.56066C8.85088 6.77044 8.58361 6.9133 8.29264 6.97118C8.00167 7.02906 7.70007 6.99935 7.42598 6.88582C7.15189 6.77229 6.91762 6.58003 6.7528 6.33336C6.58798 6.08668 6.5 5.79667 6.5 5.5C6.50044 5.10231 6.65861 4.72103 6.93982 4.43982C7.22103 4.15861 7.60231 4.00044 8 4ZM10 9.5H9V8.5H7V9.5H6V8.5C6.00031 8.23488 6.10576 7.9807 6.29323 7.79323C6.4807 7.60576 6.73488 7.5003 7 7.5H9C9.26512 7.5003 9.5193 7.60576 9.70677 7.79323C9.89424 7.9807 9.9997 8.23488 10 8.5V9.5Z" fill="currentColor" style="fill-opacity:1"/>
</svg>
