<svg viewBox="0 0 16 16" fill="none" xmlns="http://www.w3.org/2000/svg">
<path id="icon" d="M7.99999 1C6.54185 1.00177 5.14393 1.5818 4.11287 2.61287C3.0818 3.64394 2.50177 5.04185 2.49999 6.5C2.49827 7.69163 2.88756 8.85092 3.60814 9.8C3.60814 9.8 3.75814 9.99725 3.78224 10.0259L7.99999 15L12.2195 10.0237C12.2417 9.99705 12.3918 9.7998 12.3918 9.7998L12.3926 9.7986C13.1127 8.84987 13.5018 7.69109 13.5 6.5C13.4982 5.04185 12.9182 3.64394 11.8871 2.61287C10.8561 1.5818 9.45814 1.00177 7.99999 1V1ZM8.49999 9H7.49999V8H8.49999V9ZM8.49999 7H7.49999V6H8.49999V7ZM10.5 9H9.49999V5H6.49999V9H5.49999V5C5.5003 4.73488 5.60575 4.4807 5.79322 4.29323C5.98069 4.10576 6.23487 4.0003 6.49999 4H9.49999C9.76512 4.0003 10.0193 4.10576 10.2068 4.29323C10.3942 4.4807 10.4997 4.73488 10.5 5V9Z" fill="currentColor" style="fill-opacity:1"/>
</svg>
