<svg viewBox="0 0 16 16" fill="none" xmlns="http://www.w3.org/2000/svg">
<path d="M4.5 4C4.77614 4 5 3.77614 5 3.5C5 3.22386 4.77614 3 4.5 3C4.22386 3 4 3.22386 4 3.5C4 3.77614 4.22386 4 4.5 4Z" fill="currentColor" style="fill-opacity:1"/>
<path d="M13.5 11V9C13.5 8.4477 13.0523 8 12.5 8H8.5V6H13C13.5523 6 14 5.5523 14 5V2C14 1.4477 13.5523 1 13 1H3C2.4477 1 2 1.4477 2 2V5C2 5.5523 2.4477 6 3 6H7.5V8H3.5C2.9477 8 2.5 8.4477 2.5 9V11H2C1.4477 11 1 11.4477 1 12V14C1 14.5523 1.4477 15 2 15H4C4.5523 15 5 14.5523 5 14V12C5 11.4477 4.5523 11 4 11H3.5V9H7.5V11H7C6.4477 11 6 11.4477 6 12V14C6 14.5523 6.4477 15 7 15H9C9.5523 15 10 14.5523 10 14V12C10 11.4477 9.5523 11 9 11H8.5V9H12.5V11H12C11.4477 11 11 11.4477 11 12V14C11 14.5523 11.4477 15 12 15H14C14.5523 15 15 14.5523 15 14V12C15 11.4477 14.5523 11 14 11H13.5ZM4 14H2V12H4V14ZM9 12V14H7V12H9ZM3 5V2H13V5H3ZM14 14H12V12H14V14Z" fill="currentColor" style="fill-opacity:1"/>
</svg>
