<svg viewBox="0 0 16 16" fill="none" xmlns="http://www.w3.org/2000/svg">
<path d="M11.7441 4.56997V6.05312C11.7379 6.60748 11.5171 7.13786 11.128 7.53277C10.7389 7.92768 10.2118 8.15635 9.6576 8.17072H6.32155C5.87669 8.17956 5.45294 8.36206 5.14087 8.67922C4.82881 8.99638 4.65319 9.42303 4.65155 9.86797V13.0483C4.65155 13.9533 5.43865 14.4859 6.32155 14.7456C7.40763 15.0852 8.57152 15.0852 9.6576 14.7456C10.4984 14.5021 11.3276 14.0122 11.3276 13.0483V11.775H7.9915V11.3507H12.9976C13.9683 11.3507 14.33 10.6736 14.6676 9.65732C15.0103 8.55179 15.0103 7.3684 14.6676 6.26287C14.4276 5.29652 13.9695 4.56952 12.9976 4.56952L11.7441 4.56997ZM9.8678 12.6238C9.99419 12.6218 10.1183 12.6575 10.2243 12.7264C10.3303 12.7952 10.4134 12.894 10.4631 13.0103C10.5127 13.1265 10.5266 13.2549 10.503 13.3791C10.4794 13.5033 10.4194 13.6176 10.3305 13.7076C10.2417 13.7975 10.1281 13.8589 10.0042 13.8841C9.88037 13.9092 9.75181 13.8969 9.63496 13.8487C9.5181 13.8005 9.41824 13.7186 9.3481 13.6135C9.27796 13.5083 9.24071 13.3847 9.2411 13.2583C9.24055 13.1754 9.25633 13.0933 9.28754 13.0166C9.31874 12.9399 9.36476 12.8701 9.42296 12.8112C9.48116 12.7522 9.55041 12.7053 9.62673 12.6732C9.70306 12.641 9.78498 12.6242 9.8678 12.6238Z" fill="currentColor" style="fill-opacity:1"/>
<path d="M7.91756 1.00008C7.38268 1.00065 6.8488 1.04623 6.32156 1.13633C4.90816 1.38603 4.65156 1.90868 4.65156 2.87248V4.14553H7.99156V4.57008H3.39811C2.90651 4.56107 2.42754 4.72605 2.04576 5.03589C1.66398 5.34573 1.40396 5.7805 1.31161 6.26343C0.998089 7.37319 0.998089 8.54811 1.31161 9.65788C1.54901 10.6467 2.11601 11.3512 3.08661 11.3512H4.23501V9.82508C4.2472 9.2766 4.47129 8.75415 4.86029 8.36729C5.24929 7.98044 5.77297 7.75923 6.32151 7.75008H9.65756C9.87869 7.74842 10.0973 7.70319 10.301 7.61697C10.5046 7.53076 10.6892 7.40525 10.8443 7.24762C10.9994 7.09 11.122 6.90335 11.2049 6.69834C11.2878 6.49334 11.3295 6.27401 11.3276 6.05288V2.87258C11.2995 2.43242 11.1163 2.01646 10.8106 1.69859C10.5048 1.38073 10.0963 1.18154 9.65756 1.13643C9.0824 1.04239 8.50035 0.996782 7.91756 1.00008ZM6.11131 2.02398C6.23753 2.02202 6.36148 2.05764 6.46741 2.12631C6.57333 2.19498 6.65645 2.29358 6.7062 2.4096C6.75594 2.52562 6.77007 2.65382 6.74678 2.77788C6.72349 2.90195 6.66384 3.0163 6.57541 3.10638C6.48698 3.19646 6.37376 3.25822 6.25014 3.2838C6.12653 3.30938 5.9981 3.29762 5.88118 3.25003C5.76426 3.20244 5.66413 3.12116 5.59351 3.01652C5.5229 2.91188 5.48499 2.78861 5.48461 2.66238C5.48337 2.49471 5.54863 2.33338 5.66609 2.21372C5.78355 2.09407 5.94365 2.02584 6.11131 2.02398Z" fill="currentColor" style="fill-opacity:1"/>
</svg>
