<svg viewBox="0 0 16 16" fill="none" xmlns="http://www.w3.org/2000/svg">
<g id="Icons / Logo--vmware" clip-path="url(#clip0_0_30)">
<path id="icon-arrow" d="M1.7 5.5C1.5 5.05 1 4.85 0.5 5.1C-1.86265e-08 5.35 -0.15 5.8 0.05 6.25L2.05 10.5C2.35 11.15 2.7 11.5 3.3 11.5C3.95 11.5 4.25 11.1 4.55 10.5C4.55 10.5 6.25 6.8 6.25 6.75C6.25 6.7 6.3 6.6 6.5 6.6C6.65 6.6 6.75 6.7 6.75 6.9V10.5C6.75 11.05 7.05 11.5 7.65 11.5C8.25 11.5 8.55 11.05 8.55 10.5V7.5C8.55 6.95 8.95 6.55 9.5 6.55C10.05 6.55 10.45 6.95 10.45 7.5V10.5C10.45 11.05 10.75 11.5 11.35 11.5C11.95 11.5 12.25 11.05 12.25 10.5V7.5C12.25 6.95 12.65 6.55 13.2 6.55C13.75 6.55 14.15 6.95 14.15 7.5V10.5C14.15 11.05 14.45 11.5 15.05 11.5C15.65 11.5 15.95 11.05 15.95 10.5V7.1C15.95 5.85 14.95 5 13.75 5C12.55 5 11.8 5.85 11.8 5.85C11.4 5.35 10.85 5 9.9 5C8.9 5 8.05 5.85 8.05 5.85C7.65 5.35 6.95 5 6.4 5C5.55 5 4.85 5.4 4.4 6.35L3.15 9.3L1.7 5.5Z" fill="currentColor" style="fill-opacity:1"/>
</g>
<defs>
<clipPath id="clip0_0_30">
<rect width="16" height="16" fill="currentColor" style="fill-opacity:1"/>
</clipPath>
</defs>
</svg>
