<svg viewBox="0 0 16 16" fill="none" xmlns="http://www.w3.org/2000/svg">
<path id="icon" d="M14.2839 6.4463L14.2656 6.3996L12.4962 1.7818C12.4602 1.6913 12.3965 1.6145 12.3141 1.5625C12.1454 1.45775 11.9292 1.46935 11.7726 1.5916C11.697 1.653 11.6422 1.7362 11.6156 1.82985L10.4208 5.4851H5.58305L4.38835 1.82985C4.36245 1.73565 4.3075 1.65205 4.2313 1.5909C4.07475 1.46865 3.85855 1.45705 3.6898 1.5618C3.60765 1.61405 3.54395 1.69075 3.5077 1.7811L1.7349 6.39685L1.7173 6.44355C1.19405 7.8108 1.6384 9.3593 2.8071 10.2409L2.8132 10.2457L2.82945 10.2572L5.52485 12.2757L6.85835 13.285L7.67065 13.8982C7.8659 14.0464 8.13605 14.0464 8.3313 13.8982L9.1436 13.285L10.4771 12.2757L13.1888 10.245L13.1955 10.2396C14.3615 9.35785 14.805 7.8121 14.2839 6.4463Z" fill="currentColor" style="fill-opacity:1"/>
</svg>
