<svg viewBox="0 0 16 16" fill="none" xmlns="http://www.w3.org/2000/svg">
<path id="icon" d="M13.2306 7.89839C13.1696 7.1486 12.9697 6.41669 12.6411 5.73999L14.5 5.06499C14.3534 4.76135 14.1814 4.47062 13.986 4.19589L13.1144 4.51339C12.353 3.4462 11.2628 2.65803 10.0107 2.26961C8.75864 1.8812 7.41375 1.91397 6.18206 2.3629C4.95038 2.81182 3.89982 3.65215 3.19133 4.75516C2.48284 5.85816 2.15548 7.16302 2.25941 8.46984L3.13326 8.14924C3.16097 8.484 3.21631 8.8159 3.29871 9.14154L1.44191 9.81919C1.62561 10.5483 1.94311 11.2369 2.37826 11.85L3.36141 11.4918L3.36271 11.4938C3.95926 12.3337 4.7639 13.0041 5.69771 13.4392C7.14002 14.1096 8.78932 14.1805 10.2839 13.6365C11.7784 13.0924 12.9961 11.9778 13.67 10.5371C14.1074 9.60239 14.2935 8.56977 14.21 7.54114L13.2306 7.89839ZM11.7706 9.64674C11.3336 10.5827 10.5431 11.3071 9.57258 11.6609C8.60207 12.0148 7.53083 11.9691 6.59396 11.5339C6.16963 11.3362 5.7848 11.063 5.45826 10.7275L4.46596 11.0893C3.93291 10.5399 3.57237 9.84646 3.42886 9.09454L3.42931 9.09414L5.29141 8.41584C5.22521 8.07588 5.2045 7.72862 5.22981 7.38319L4.35396 7.70129C4.40039 7.07285 4.59894 6.46512 4.93249 5.93048C5.26605 5.39584 5.72461 4.95033 6.26865 4.63234C6.81269 4.31435 7.42589 4.13341 8.05541 4.10513C8.68493 4.07685 9.31189 4.20207 9.88226 4.46999H9.88561C10.3087 4.66862 10.6923 4.9422 11.0179 5.27749L11.89 4.96049C12.1306 5.20805 12.3372 5.48645 12.5045 5.78839L10.6495 6.46814C11.0234 7.136 11.1932 7.89886 11.1378 8.66224L12.1221 8.30469C12.0874 8.76969 11.9683 9.22448 11.7706 9.64674H11.7706Z" fill="currentColor" style="fill-opacity:1"/>
</svg>
