<svg viewBox="0 0 16 16" fill="none" xmlns="http://www.w3.org/2000/svg">
<path d="M7.567 8.5945L7.9995 8.8025L8.431 8.595L8.538 8.1295L8.2395 7.756H7.759L7.4595 8.1285L7.567 8.5945Z" fill="currentColor" style="fill-opacity:1"/>
<path d="M7.1083 6.94L7.1095 6.94095C7.14781 6.96888 7.19298 6.9859 7.2402 6.99017C7.28742 6.99445 7.33492 6.98583 7.37762 6.96524C7.42033 6.94464 7.45664 6.91284 7.48269 6.87323C7.50874 6.83361 7.52356 6.78767 7.52555 6.7403V6.7388L7.5319 6.73565L7.621 5.165C7.51235 5.1784 7.406 5.19675 7.30435 5.2197C6.74348 5.34624 6.22886 5.62628 5.818 6.0285L7.1056 6.94135L7.1083 6.94Z" fill="currentColor" style="fill-opacity:1"/>
<path d="M6.41735 8.1311L6.41885 8.1306C6.46459 8.1181 6.50609 8.09342 6.53891 8.05919C6.57172 8.02496 6.59464 7.98247 6.60521 7.93624C6.61578 7.89001 6.61361 7.84179 6.59893 7.79669C6.58425 7.7516 6.55761 7.71134 6.52185 7.6802L6.52065 7.6792L6.5221 7.67285L5.34635 6.6211C4.98852 7.20468 4.8347 7.8906 4.90905 8.5711L6.41615 8.1361L6.41735 8.1311Z" fill="currentColor" style="fill-opacity:1"/>
<path d="M6.93225 9.2505C6.91736 9.18453 6.87748 9.12689 6.82099 9.0897C6.76449 9.05251 6.69579 9.03865 6.6293 9.05105H6.6276L6.62515 9.0479L5.07975 9.31035C5.31199 9.95132 5.74888 10.4979 6.3229 10.8658L6.9215 9.419L6.91715 9.41315L6.9176 9.41165C6.93956 9.36087 6.94469 9.3044 6.93225 9.2505Z" fill="currentColor" style="fill-opacity:1"/>
<path d="M8.2311 9.82155L8.23035 9.8203C8.20695 9.77742 8.17215 9.74184 8.12979 9.7175C8.08744 9.69315 8.03918 9.68099 7.99035 9.68235C7.94454 9.68415 7.9 9.69786 7.86112 9.72214C7.82224 9.74642 7.79036 9.78043 7.76865 9.8208L7.7679 9.82225H7.7665L7.0065 11.1963C7.55108 11.3805 8.13601 11.4103 8.6965 11.2824C8.8 11.259 8.9015 11.2304 8.9987 11.1982L8.237 9.82155H8.2311Z" fill="currentColor" style="fill-opacity:1"/>
<path d="M9.36855 9.045H9.36685C9.347 9.04115 9.32675 9.03967 9.30655 9.0406C9.26436 9.04297 9.22336 9.05547 9.18702 9.07703C9.15068 9.0986 9.12007 9.12859 9.09778 9.16449C9.07548 9.20039 9.06216 9.24112 9.05893 9.28326C9.05571 9.32539 9.06268 9.36768 9.07925 9.40655L9.07975 9.40775L9.07775 9.41045L9.68275 10.8722C10.2608 10.5026 10.6996 9.95128 10.93 9.305L9.3712 9.04155L9.36855 9.045Z" fill="currentColor" style="fill-opacity:1"/>
<path d="M10.6447 6.62185L9.4755 7.6682L9.4762 7.6714L9.475 7.67235C9.43929 7.70353 9.41268 7.7438 9.39802 7.78888C9.38335 7.83396 9.38117 7.88218 9.39171 7.9284C9.40225 7.97462 9.42511 8.01713 9.45787 8.0514C9.49062 8.08567 9.53205 8.11043 9.57775 8.12305L9.5795 8.1233L9.5807 8.1299L11.0954 8.5659C11.1601 7.88614 11.0019 7.20378 10.6447 6.62185Z" fill="currentColor" style="fill-opacity:1"/>
<path d="M8.46915 6.73365V6.7351C8.47138 6.79054 8.49142 6.84379 8.5263 6.88695C8.56839 6.9399 8.62933 6.97451 8.69637 6.98352C8.7634 6.99254 8.83132 6.97525 8.8859 6.9353L8.88715 6.93435L8.89155 6.9363L10.1708 6.0293C9.68403 5.5531 9.05459 5.24953 8.37885 5.16505L8.4677 6.7329L8.46915 6.73365Z" fill="currentColor" style="fill-opacity:1"/>
<path d="M15.1903 9.5188L13.9508 4.13525C13.9184 3.99553 13.855 3.86492 13.7651 3.75316C13.6752 3.64139 13.5613 3.55135 13.4318 3.48975L8.415 1.09425C8.28496 1.03218 8.14269 0.999961 7.9986 0.999961C7.85451 0.999961 7.71224 1.03218 7.5822 1.09425L2.5663 3.49095C2.43681 3.55259 2.3229 3.64264 2.23303 3.7544C2.14316 3.86616 2.07966 3.99675 2.04725 4.13645L0.8097 9.52C0.781146 9.6441 0.777969 9.77269 0.800361 9.89806C0.822752 10.0234 0.870249 10.143 0.94 10.2495C0.95684 10.2756 0.974997 10.3009 0.9944 10.3252L4.46635 14.6421C4.55667 14.754 4.67093 14.8443 4.80072 14.9062C4.93051 14.9681 5.07254 15.0002 5.21635 15L10.7842 14.9988C10.928 14.999 11.07 14.967 11.1998 14.9052C11.3295 14.8433 11.4438 14.7532 11.5342 14.6413L15.005 10.3239C15.0948 10.2125 15.1581 10.0822 15.1902 9.94268C15.2223 9.80321 15.2224 9.65828 15.1903 9.5188ZM13.2845 9.4538C13.2612 9.53436 13.2073 9.6026 13.1343 9.64397C13.0613 9.68534 12.9751 9.69657 12.894 9.67525H12.892L12.8896 9.67475L12.8861 9.6738L12.8837 9.6728L12.8551 9.66695C12.8378 9.66355 12.8201 9.65985 12.8061 9.6562C12.7446 9.63875 12.6846 9.61655 12.6266 9.5898C12.5978 9.57735 12.568 9.56415 12.5362 9.5522L12.5275 9.54905C12.3614 9.48227 12.1892 9.43182 12.0133 9.3984C11.9595 9.3948 11.9065 9.41241 11.8656 9.44745L11.847 9.46015L11.8461 9.4609C11.8241 9.4565 11.7577 9.4448 11.7191 9.4387C11.4287 10.3513 10.8132 11.1254 9.98965 11.6142C9.9943 11.6252 9.99965 11.6392 10.005 11.6545C10.0137 11.6816 10.0249 11.7078 10.0385 11.7329L10.0394 11.7338L10.0389 11.7353L10.0307 11.7563C10.0058 11.8039 10.0004 11.8593 10.0156 11.9108C10.0889 12.0776 10.178 12.237 10.2817 12.3867C10.3005 12.4147 10.3196 12.4409 10.3381 12.4663C10.3773 12.5167 10.4123 12.5702 10.4429 12.6263C10.4512 12.6419 10.4614 12.6638 10.4705 12.6831L10.4819 12.7073C10.5037 12.7437 10.5176 12.7843 10.5227 12.8264C10.5279 12.8685 10.5242 12.9112 10.5118 12.9518C10.4995 12.9924 10.4788 13.0299 10.4511 13.0621C10.4233 13.0942 10.3892 13.1201 10.3509 13.1382C10.3125 13.1564 10.2708 13.1663 10.2284 13.1673C10.186 13.1684 10.1438 13.1606 10.1046 13.1443C10.0654 13.1281 10.03 13.1039 10.0008 13.0732C9.97147 13.0425 9.94894 13.006 9.9346 12.9661L9.9234 12.9434C9.9141 12.9244 9.90435 12.9046 9.8975 12.889C9.87265 12.8296 9.85241 12.7685 9.83695 12.7061C9.82865 12.6763 9.8201 12.6453 9.8101 12.6136L9.80715 12.6053C9.7558 12.4337 9.68795 12.2676 9.60455 12.1092C9.57352 12.0647 9.52641 12.0341 9.4732 12.0237L9.45245 12.0174L9.45095 12.0164C9.44595 12.0079 9.4341 11.9859 9.4212 11.9627C9.40945 11.9417 9.397 11.919 9.388 11.9027C9.22055 11.9658 9.04901 12.0174 8.87455 12.0572C8.1235 12.2284 7.3385 12.1721 6.61955 11.8955L6.55195 12.0176L6.55095 12.0182C6.50296 12.0254 6.45828 12.047 6.4228 12.0801C6.34615 12.1895 6.28929 12.3115 6.2548 12.4405C6.2348 12.4991 6.2148 12.5597 6.19085 12.619C6.1806 12.651 6.17205 12.6824 6.164 12.7129C6.14869 12.7748 6.12863 12.8354 6.104 12.8941C6.09765 12.9091 6.08835 12.9275 6.07935 12.9453L6.0671 12.9701L6.06685 12.9712L6.0659 12.9723C6.03959 13.0296 5.99779 13.0784 5.94521 13.1133C5.89262 13.1481 5.83135 13.1676 5.7683 13.1695C5.72676 13.1697 5.68573 13.1604 5.6483 13.1424C5.57494 13.1017 5.52039 13.034 5.4963 12.9536C5.47222 12.8733 5.48051 12.7867 5.5194 12.7124C5.5238 12.7039 5.5282 12.6939 5.5331 12.6836C5.54165 12.6651 5.5504 12.6457 5.5581 12.6313C5.58896 12.5751 5.62406 12.5212 5.6631 12.4703C5.68145 12.4453 5.70045 12.4189 5.719 12.3913C5.82493 12.2378 5.91585 12.0743 5.9905 11.9034C5.99835 11.846 5.9891 11.7875 5.9639 11.7353V11.7334L6.0176 11.6047C5.19697 11.1196 4.58176 10.3515 4.2876 9.44475L4.15795 9.46695L4.144 9.4589C4.09746 9.42658 4.04267 9.40819 3.98605 9.4059C3.8102 9.4394 3.63802 9.48985 3.4719 9.55655L3.46335 9.55975C3.43235 9.5717 3.4028 9.58415 3.37425 9.59635C3.31584 9.62319 3.25544 9.64547 3.1936 9.663C3.1782 9.66715 3.1582 9.67155 3.1389 9.67545L3.11595 9.68045L3.1135 9.6814L3.1101 9.6824L3.10765 9.6829H3.1057C3.06553 9.69609 3.02305 9.70075 2.98098 9.69658C2.9389 9.69242 2.89816 9.67952 2.86135 9.65871C2.82455 9.63791 2.79249 9.60965 2.76723 9.57575C2.74196 9.54185 2.72405 9.50304 2.71464 9.46183C2.70522 9.42061 2.70451 9.37788 2.71255 9.33637C2.72059 9.29486 2.73721 9.25549 2.76133 9.22077C2.78545 9.18604 2.81656 9.15674 2.85265 9.13472C2.88875 9.1127 2.92904 9.09846 2.97095 9.0929L2.9729 9.0924L2.97555 9.09165H2.97655L2.97825 9.0912L3.0017 9.08555C3.0217 9.08055 3.0422 9.07555 3.05835 9.07265C3.12124 9.06167 3.18491 9.0557 3.24875 9.0548C3.28025 9.0536 3.31295 9.0521 3.34665 9.04945L3.35375 9.0487C3.53329 9.03642 3.71121 9.00671 3.885 8.96C3.93162 8.93143 3.97112 8.89261 4.0005 8.8465L4.0127 8.8306L4.0139 8.8299L4.13745 8.794C4.00178 7.8473 4.21977 6.8838 4.74975 6.0877L4.65475 6.0027L4.65255 5.9878C4.64883 5.93072 4.62882 5.87591 4.5949 5.82985C4.4568 5.71123 4.3075 5.60632 4.1491 5.5166C4.11985 5.4995 4.09125 5.48415 4.06345 5.4695C4.00654 5.44087 3.95193 5.40789 3.9001 5.37085C3.8869 5.3611 3.8708 5.3479 3.8554 5.3352L3.8376 5.3208L3.835 5.31935L3.83255 5.3174C3.76357 5.26364 3.71706 5.18615 3.70205 5.1C3.69468 5.06005 3.6959 5.01899 3.70562 4.97955C3.71535 4.94011 3.73336 4.90319 3.75845 4.87125C3.78747 4.8357 3.82447 4.80749 3.86644 4.78892C3.90841 4.77036 3.95417 4.76196 4 4.7644C4.07692 4.7678 4.15074 4.79569 4.2107 4.844L4.22875 4.85815C4.24535 4.8711 4.26375 4.88575 4.27735 4.8972C4.3253 4.93973 4.36995 4.98584 4.4109 5.03515C4.4309 5.0586 4.45215 5.08275 4.4751 5.1072L4.4801 5.1122C4.60122 5.24491 4.735 5.36548 4.87955 5.4722C4.92661 5.49887 4.98221 5.50615 5.03455 5.4925L5.05605 5.48905L5.05775 5.48955C5.0756 5.50275 5.13195 5.54325 5.16445 5.56525C5.69216 5.00484 6.37525 4.61483 7.1261 4.44525C7.30425 4.40514 7.48494 4.37732 7.6669 4.362L7.67395 4.23625C7.72027 4.19528 7.75441 4.14121 7.7714 4.08175C7.7779 3.90126 7.76684 3.72056 7.7384 3.5422L7.73795 3.5378C7.7333 3.5046 7.72745 3.4728 7.72155 3.4421C7.7086 3.37947 7.70036 3.31596 7.6969 3.2521C7.69645 3.2371 7.69665 3.21815 7.6969 3.19985L7.69715 3.17485L7.6969 3.1712V3.16655C7.69247 3.12414 7.69699 3.08127 7.71019 3.04071C7.72338 3.00016 7.74495 2.96284 7.77349 2.93115C7.80204 2.89947 7.83692 2.87414 7.87588 2.8568C7.91484 2.83946 7.95701 2.8305 7.99965 2.8305C8.04229 2.8305 8.08446 2.83946 8.12342 2.8568C8.16238 2.87414 8.19726 2.89947 8.22581 2.93115C8.25435 2.96284 8.27592 3.00016 8.28911 3.04071C8.30231 3.08127 8.30683 3.12414 8.3024 3.16655L8.30285 3.1968C8.30335 3.2161 8.3036 3.23635 8.3031 3.2518C8.29969 3.31566 8.29145 3.37918 8.27845 3.4418C8.2726 3.47255 8.26675 3.5043 8.2621 3.5375L8.26015 3.55335C8.23236 3.72801 8.22164 3.90496 8.22815 4.0817C8.23665 4.13498 8.26564 4.18282 8.30895 4.215L8.32535 4.23L8.3263 4.23075C8.32705 4.2525 8.33045 4.3235 8.33315 4.36355C8.80526 4.40581 9.26569 4.5339 9.6918 4.7415C10.1152 4.94673 10.4985 5.22614 10.8234 5.5665L10.9364 5.4859L10.953 5.4869C11.0088 5.49599 11.0661 5.48887 11.118 5.4664C11.2603 5.36104 11.3921 5.24215 11.5115 5.1114L11.5223 5.1004C11.545 5.0765 11.5658 5.0528 11.586 5.0296C11.6274 4.97988 11.6726 4.93337 11.721 4.89045C11.7341 4.879 11.752 4.86545 11.7693 4.85165L11.7876 4.83725C11.8181 4.80732 11.8544 4.78412 11.8944 4.76915C11.9343 4.75419 11.977 4.74778 12.0195 4.75036C12.0621 4.75293 12.1037 4.76443 12.1416 4.7841C12.1794 4.80378 12.2127 4.83119 12.2393 4.86456C12.2659 4.89793 12.2851 4.93651 12.2958 4.97781C12.3065 5.01911 12.3084 5.06219 12.3014 5.10428C12.2944 5.14636 12.2786 5.18649 12.2551 5.22208C12.2316 5.25767 12.2008 5.28791 12.1649 5.31085L12.1431 5.3287C12.1277 5.3414 12.1116 5.35455 12.0989 5.3641C12.0471 5.40105 11.9925 5.43395 11.9356 5.4625C11.9075 5.47715 11.8784 5.4925 11.8489 5.50985C11.6905 5.59981 11.5412 5.70478 11.4029 5.8233C11.3665 5.86325 11.3471 5.91581 11.3489 5.9698L11.3472 5.9918L11.3465 5.99325C11.3384 6.00055 11.3211 6.0162 11.3008 6.03425C11.2805 6.0523 11.2576 6.07285 11.2415 6.0875C11.7734 6.88052 11.9958 7.84113 11.8665 8.7872L11.9865 8.8222L11.9956 8.8354C12.0237 8.88487 12.0653 8.92534 12.1155 8.9521C12.2895 8.99841 12.4675 9.02783 12.647 9.03995L12.6531 9.04045C12.6868 9.0434 12.7195 9.0446 12.7513 9.04585C12.815 9.04686 12.8785 9.05281 12.9413 9.06365C12.9569 9.0666 12.9769 9.07145 12.9963 9.07635L13.0285 9.08415C13.111 9.10007 13.1841 9.14768 13.2319 9.21678C13.2798 9.28589 13.2987 9.37094 13.2845 9.4538Z" fill="currentColor" style="fill-opacity:1"/>
</svg>
