<svg viewBox="0 0 16 16" fill="none" xmlns="http://www.w3.org/2000/svg">
<g id="Icons / Logo--vmware--alt" clip-path="url(#clip0_0_110)">
<g id="icon-arrow">
<path d="M11.2065 9.55495L10.2488 6.7872C10.2288 6.722 10.1987 6.6117 10.1987 6.51645C10.1987 6.26075 10.4043 6.01005 10.7352 6.01005C11.0109 6.01005 11.1965 6.18555 11.2767 6.44125L11.8784 8.43185L12.4951 6.4463C12.5753 6.18055 12.7809 6.00005 13.0667 6.00005H13.132C13.4178 6.00005 13.6234 6.18555 13.7036 6.4463L14.3253 8.4369L14.942 6.43125C15.0172 6.1956 15.1827 6.00505 15.4785 6.00505C15.7844 6.00505 16 6.2407 16 6.5165C16 6.5917 15.9799 6.692 15.9649 6.74215L14.9621 9.55505C14.8468 9.901 14.6161 10.0514 14.3453 10.0514H14.3103C14.0395 10.0514 13.8139 9.896 13.7086 9.5751L13.0868 7.59955L12.4551 9.5751C12.3548 9.896 12.1241 10.0514 11.8533 10.0514H11.8182C11.5525 10.0514 11.3218 9.8959 11.2065 9.55495Z" fill="currentColor" style="fill-opacity:1"/>
<path d="M1.04695 6.3225C0.9235 6.0459 0.61235 5.92245 0.32095 6.05085C0.02955 6.17925 -0.07415 6.5003 0.05425 6.77685L1.2692 9.41915C1.4618 9.834 1.6643 10.0513 2.03965 10.0513C2.44465 10.0513 2.62245 9.8143 2.8101 9.41915C2.8101 9.41915 3.87195 7.10775 3.88185 7.08305C3.89175 7.05835 3.9263 6.98425 4.03495 6.98425C4.1288 6.98425 4.20285 7.05835 4.20285 7.1571V9.4191C4.20285 9.7648 4.39545 10.0513 4.7659 10.0513C5.13635 10.0513 5.3388 9.76485 5.3388 9.4191V7.57195C5.3388 7.21635 5.5956 6.9842 5.94135 6.9842C6.2871 6.9842 6.5192 7.22125 6.5192 7.57195V9.4191C6.5192 9.7648 6.7118 10.0513 7.08225 10.0513C7.4527 10.0513 7.65515 9.76485 7.65515 9.4191V7.57195C7.65515 7.21635 7.91195 6.9842 8.2577 6.9842C8.60345 6.9842 8.83555 7.22125 8.83555 7.57195V9.4191C8.83555 9.7648 9.02815 10.0513 9.3986 10.0513C9.76905 10.0513 9.9715 9.76485 9.9715 9.4191V7.31515C9.9715 6.53975 9.3492 6.0014 8.60345 6.0014C7.8577 6.0014 7.3885 6.52 7.3885 6.52C7.14155 6.19895 6.79585 6.0014 6.218 6.0014C5.6056 6.0014 5.06725 6.52 5.06725 6.52C4.81535 6.19895 4.39555 6.0014 4.0449 6.0014C3.5016 6.0014 3.07195 6.23845 2.8102 6.841L2.0348 8.67335L1.04695 6.3225Z" fill="currentColor" style="fill-opacity:1"/>
</g>
</g>
<defs>
<clipPath id="clip0_0_110">
<rect width="16" height="16" fill="currentColor" style="fill-opacity:1"/>
</clipPath>
</defs>
</svg>
