<svg viewBox="0 0 16 16" fill="none" xmlns="http://www.w3.org/2000/svg">
<path d="M13.0383 1.7939C13.0485 1.96135 13.0087 2.12806 12.9239 2.27279C12.839 2.41752 12.713 2.53372 12.5619 2.60659C12.4108 2.67946 12.2414 2.70569 12.0753 2.68196C11.9092 2.65822 11.754 2.58559 11.6293 2.47331C11.5047 2.36103 11.4163 2.21419 11.3754 2.05149C11.3345 1.88879 11.3429 1.71759 11.3997 1.55971C11.4564 1.40183 11.5588 1.26441 11.6939 1.16495C11.829 1.0655 11.9907 1.00851 12.1583 1.00125C12.2682 0.995185 12.3782 1.01091 12.482 1.04752C12.5858 1.08412 12.6814 1.14089 12.7632 1.21456C12.8449 1.28822 12.9113 1.37733 12.9586 1.47676C13.0058 1.57618 13.0329 1.68396 13.0383 1.7939Z" fill="currentColor" style="fill-opacity:1"/>
<path d="M8.10955 11.5557C5.86625 11.5557 3.89455 10.7507 2.87515 9.56155C3.27071 10.6312 3.98444 11.5539 4.92029 12.2056C5.85614 12.8573 6.96917 13.2067 8.10958 13.2067C9.24998 13.2067 10.363 12.8573 11.2989 12.2056C12.2347 11.5539 12.9484 10.6312 13.344 9.56155C12.3271 10.7506 10.3629 11.5557 8.10955 11.5557Z" fill="currentColor" style="fill-opacity:1"/>
<path d="M8.10955 3.82415C10.3529 3.82415 12.3246 4.62915 13.344 5.8182C12.9484 4.74859 12.2347 3.82584 11.2989 3.17414C10.363 2.52244 9.24998 2.17308 8.10958 2.17308C6.96917 2.17308 5.85614 2.52244 4.92029 3.17414C3.98444 3.82584 3.27071 4.74859 2.87515 5.8182C3.8946 4.62675 5.8563 3.82415 8.10955 3.82415Z" fill="currentColor" style="fill-opacity:1"/>
<path d="M5.02135 13.8694C5.03519 14.1307 4.95133 14.3879 4.78608 14.5908C4.62083 14.7938 4.38601 14.928 4.12729 14.9674C3.86857 15.0068 3.60444 14.9485 3.38627 14.804C3.16811 14.6594 3.01151 14.4389 2.94693 14.1853C2.88235 13.9317 2.91441 13.6631 3.03687 13.4318C3.15933 13.2005 3.36344 13.0231 3.60949 12.9339C3.85555 12.8448 4.12597 12.8504 4.36815 12.9496C4.61033 13.0487 4.80696 13.2345 4.9198 13.4706C4.97928 13.5957 5.01378 13.7311 5.02135 13.8694Z" fill="currentColor" style="fill-opacity:1"/>
<path d="M3.13 3.5532C3.00914 3.55651 2.89 3.52401 2.78755 3.45979C2.68511 3.39557 2.60394 3.3025 2.55425 3.19228C2.50456 3.08205 2.48856 2.9596 2.50828 2.84031C2.52799 2.72102 2.58253 2.61022 2.66504 2.52184C2.74756 2.43347 2.85435 2.37146 2.97201 2.34361C3.08967 2.31577 3.21293 2.32333 3.3263 2.36535C3.43968 2.40736 3.53809 2.48196 3.60918 2.57976C3.68028 2.67756 3.72087 2.7942 3.72585 2.915C3.73057 3.0784 3.67065 3.23707 3.55909 3.35656C3.44753 3.47605 3.29334 3.54671 3.13 3.5532Z" fill="currentColor" style="fill-opacity:1"/>
</svg>
