<svg viewBox="0 0 16 16" fill="none" xmlns="http://www.w3.org/2000/svg">
<path id="icon" d="M11.8 5.8C12.3 5.5 12.65 5.05 12.85 4.5C13.05 3.95 13.05 3.4 12.9 2.85C12.75 2.3 12.4 1.85 11.95 1.5C11.5 1.15 10.9 1 10.35 1H5.75C5.15 1 4.6 1.2 4.15 1.5C3.6 1.85 3.3 2.35 3.1 2.85C2.95 3.4 2.95 4 3.15 4.5C3.35 5.05 3.7 5.5 4.2 5.8C3.85 6.05 3.5 6.35 3.3 6.75C3.1 7.15 3 7.55 3 8C3 8.45 3.1 8.85 3.3 9.25C3.5 9.65 3.8 9.95 4.2 10.2C3.7 10.5 3.35 10.95 3.15 11.5C2.95 12.05 2.95 12.6 3.1 13.15C3.25 13.7 3.6 14.15 4.1 14.5C4.55 14.85 5.15 15 5.7 15C6.4 15 7.1 14.7 7.65 14.25C8.15 13.75 8.45 13.1 8.45 12.4V10C8.95 10.45 9.6 10.7 10.25 10.7H10.3C10.9 10.7 11.45 10.5 11.9 10.2C12.35 9.85 12.7 9.4 12.85 8.85C13 8.3 13 7.75 12.8 7.2C12.65 6.55 12.25 6.1 11.8 5.8ZM8.45 1.85H10.3C10.55 1.85 10.8 1.85 11 1.95C11.25 2.05 11.45 2.15 11.6 2.35C11.8 2.5 11.9 2.7 12 2.95C12.1 3.2 12.15 3.4 12.15 3.65C12.15 3.9 12.1 4.15 12 4.35C11.9 4.55 11.75 4.75 11.6 4.95C11.4 5.1 11.2 5.25 11 5.35C10.75 5.45 10.5 5.45 10.3 5.45H8.45V1.85ZM5.7 1.85H7.55V5.35H5.7C5.25 5.35 4.8 5.15 4.5 4.8C4.15 4.5 4 4.05 4 3.6C4 3.15 4.2 2.7 4.5 2.4C4.8 2.1 5.25 1.9 5.7 1.85ZM3.9 8C3.9 7.55 4.1 7.1 4.45 6.75C4.8 6.4 5.25 6.25 5.75 6.25H7.6V9.75H5.75C5.25 9.75 4.8 9.55 4.45 9.25C4.1 8.9 3.9 8.45 3.9 8ZM7.55 12.35C7.55 12.85 7.35 13.3 7 13.6C6.65 13.95 6.2 14.1 5.7 14.1C5.45 14.1 5.2 14.1 5 14C4.75 13.9 4.55 13.8 4.4 13.65C4.2 13.5 4.1 13.3 4 13.05C3.9 12.85 3.85 12.6 3.85 12.35C3.85 12.1 3.9 11.85 4 11.65C4.1 11.45 4.25 11.25 4.4 11.05C4.6 10.9 4.8 10.75 5 10.65C5.25 10.55 5.5 10.55 5.7 10.55H7.55V12.35ZM10.3 9.75H10.25C9.8 9.75 9.35 9.55 9.05 9.2C8.75 8.85 8.55 8.45 8.55 8C8.55 7.55 8.75 7.1 9.05 6.8C9.35 6.45 9.8 6.3 10.25 6.25H10.3C10.55 6.25 10.8 6.25 11 6.35C11.25 6.45 11.45 6.55 11.6 6.75C11.8 6.9 11.9 7.1 12 7.35C12.1 7.55 12.15 7.8 12.15 8.05C12.15 8.3 12.1 8.55 12 8.75C11.9 8.95 11.75 9.15 11.6 9.35C11.4 9.5 11.2 9.65 11 9.75C10.8 9.75 10.55 9.75 10.3 9.75Z" fill="currentColor" style="fill-opacity:1"/>
</svg>
