<svg viewBox="0 0 16 16" fill="none" xmlns="http://www.w3.org/2000/svg">
<path d="M12.5 5.8C12.35 5.75 12.2 5.7 12.05 5.65C12.05 5.55 12.1 5.45 12.1 5.35C12.45 3.7 12.2 2.35 11.45 1.9C10.7 1.5 9.5 1.9 8.3 2.95C8.2 3.05 8.05 3.15 7.95 3.25C7.85 3.2 7.8 3.1 7.7 3.05C6.5 1.95 5.25 1.5 4.5 1.95C3.75 2.35 3.55 3.65 3.85 5.2C3.9 5.35 3.9 5.5 3.95 5.65C3.75 5.7 3.6 5.75 3.45 5.8C1.95 6.3 1 7.15 1 7.95C1 8.8 2 9.7 3.55 10.2C3.65 10.25 3.8 10.3 3.95 10.3C3.9 10.45 3.85 10.65 3.85 10.8C3.55 12.35 3.8 13.55 4.5 14C5.25 14.45 6.5 14 7.75 12.9C7.85 12.8 7.95 12.7 8.05 12.65C8.15 12.75 8.3 12.9 8.45 13C9.65 14.05 10.8 14.45 11.55 14C12.3 13.55 12.55 12.25 12.25 10.65C12.25 10.55 12.2 10.4 12.15 10.25C12.25 10.2 12.35 10.2 12.4 10.15C14 9.6 15.05 8.75 15.05 7.9C15 7.15 14 6.35 12.5 5.8ZM8.75 3.45C9.8 2.55 10.75 2.2 11.2 2.45C11.65 2.7 11.85 3.8 11.55 5.25C11.55 5.35 11.5 5.45 11.5 5.55C10.9 5.4 10.25 5.3 9.65 5.25C9.3 4.75 8.9 4.25 8.45 3.75C8.55 3.65 8.65 3.55 8.75 3.45ZM5.15 8.7C5.3 8.95 5.4 9.2 5.55 9.45C5.7 9.7 5.85 9.95 6 10.15C5.55 10.1 5.15 10.05 4.7 9.95C4.8 9.55 4.95 9.15 5.15 8.7ZM5.15 7.3C4.95 6.9 4.85 6.5 4.7 6.1C5.1 6 5.55 5.95 5.95 5.9C5.8 6.15 5.65 6.35 5.5 6.6C5.4 6.8 5.25 7.05 5.15 7.3ZM5.45 8C5.65 7.6 5.85 7.25 6.05 6.85C6.25 6.5 6.5 6.1 6.75 5.75C7.15 5.7 7.6 5.7 8.05 5.7C8.5 5.7 8.9 5.7 9.35 5.75C9.6 6.1 9.8 6.45 10 6.85C10.2 7.2 10.4 7.6 10.6 8C10.4 8.4 10.2 8.75 10 9.15C9.8 9.5 9.55 9.9 9.35 10.25C8.95 10.3 8.5 10.3 8.05 10.3C7.6 10.3 7.2 10.3 6.8 10.25C6.55 9.9 6.35 9.55 6.1 9.15C5.85 8.75 5.65 8.4 5.45 8ZM10.45 9.45C10.6 9.2 10.75 8.95 10.85 8.7C11.05 9.1 11.2 9.5 11.3 9.95C10.85 10.05 10.45 10.1 10 10.15C10.2 9.9 10.35 9.65 10.45 9.45ZM10.85 7.3C10.7 7.05 10.6 6.8 10.45 6.55C10.3 6.3 10.15 6.1 10.05 5.85C10.5 5.9 10.9 6 11.35 6.05C11.2 6.5 11.05 6.9 10.85 7.3ZM8 4.15C8.3 4.45 8.55 4.8 8.8 5.15C8.25 5.1 7.7 5.1 7.15 5.15C7.45 4.8 7.75 4.45 8 4.15ZM4.8 2.45C5.25 2.2 6.3 2.55 7.4 3.55C7.45 3.6 7.55 3.7 7.6 3.75C7.15 4.2 6.75 4.7 6.4 5.25C5.75 5.3 5.15 5.4 4.55 5.55C4.5 5.4 4.5 5.25 4.45 5.1C4.15 3.75 4.35 2.7 4.8 2.45ZM4.1 9.8C4 9.75 3.85 9.75 3.75 9.7C3.05 9.45 2.5 9.15 2.1 8.85C1.75 8.55 1.6 8.25 1.6 8C1.6 7.5 2.35 6.85 3.65 6.4C3.8 6.35 3.95 6.3 4.15 6.25C4.3 6.85 4.5 7.45 4.8 8C4.5 8.6 4.3 9.2 4.1 9.8ZM7.35 12.55C6.8 13.05 6.25 13.35 5.8 13.55C5.35 13.7 5.05 13.7 4.8 13.6C4.35 13.35 4.15 12.35 4.4 11.05C4.45 10.85 4.5 10.7 4.5 10.5C5.1 10.65 5.75 10.75 6.4 10.75C6.75 11.25 7.15 11.75 7.6 12.25C7.5 12.35 7.45 12.45 7.35 12.55ZM8 11.85C7.7 11.55 7.45 11.2 7.15 10.85C7.4 10.85 7.7 10.85 7.95 10.85C8.25 10.85 8.5 10.85 8.8 10.85C8.6 11.2 8.3 11.55 8 11.85ZM11.65 12.7C11.55 13.15 11.4 13.45 11.2 13.55C10.75 13.8 9.8 13.45 8.8 12.6C8.7 12.5 8.55 12.4 8.45 12.3C8.85 11.85 9.25 11.35 9.6 10.8C10.25 10.75 10.85 10.65 11.5 10.5C11.55 10.6 11.55 10.75 11.6 10.85C11.75 11.55 11.75 12.2 11.65 12.7ZM12.15 9.7C12.05 9.7 12 9.75 11.9 9.75C11.7 9.15 11.45 8.55 11.2 7.95C11.45 7.4 11.7 6.8 11.9 6.2C12.05 6.25 12.2 6.3 12.3 6.35C13.6 6.8 14.4 7.45 14.4 7.95C14.4 8.55 13.55 9.25 12.15 9.7Z" fill="currentColor" style="fill-opacity:1"/>
<path d="M8 9.25C8.25 9.25 8.5 9.2 8.7 9.05C8.9 8.9 9.05 8.7 9.15 8.5C9.25 8.25 9.25 8 9.2 7.75C9.15 7.5 9.05 7.3 8.85 7.1C8.7 6.9 8.45 6.8 8.2 6.75C7.95 6.7 7.7 6.75 7.45 6.8C7.2 6.9 7 7.05 6.9 7.25C6.75 7.45 6.7 7.7 6.7 7.95C6.7 8.1 6.75 8.3 6.8 8.45C6.85 8.6 6.95 8.75 7.05 8.85C7.15 8.95 7.3 9.05 7.45 9.1C7.65 9.2 7.85 9.25 8 9.25Z" fill="currentColor" style="fill-opacity:1"/>
</svg>
