<svg viewBox="0 0 16 16" fill="none" xmlns="http://www.w3.org/2000/svg">
<path id="icon" d="M8.05 1.6L11.9 2.05C12 2.05 12.05 2.1 12.1 2.15L14.95 6C15.05 6.1 15.05 6.25 14.95 6.35L8.15 14.35C8.1 14.4 8 14.4 7.95 14.35L1.15 6.35C1 6.25 1 6.1 1.05 6L3.9 2.15C3.95 2.1 4 2.05 4.1 2.05L7.95 1.6C8 1.6 8 1.6 8.05 1.6ZM8.85 2.4C8.85 2.4 8.8 2.4 8.75 2.4C8.75 2.4 8.7 2.45 8.75 2.5L10.9 5.2C10.9 5.25 10.95 5.25 10.95 5.3C10.95 5.4 10.9 5.45 10.8 5.45H5.2C5.15 5.45 5.15 5.45 5.1 5.4C5.05 5.35 5.05 5.25 5.05 5.2L7.25 2.5C7.25 2.5 7.25 2.45 7.25 2.4C7.25 2.4 7.2 2.4 7.15 2.4L4.2 5.35C4.2 5.35 4.15 5.4 4.1 5.4C4.05 5.4 4 5.35 4 5.3L4.1 3.15C4.1 3.1 4.1 3.1 4.05 3.1C4 3.1 4 3.1 4 3.15L3.45 5.6C3.45 5.7 3.35 5.75 3.3 5.75L1.9 6.05C1.85 6.05 1.85 6.1 1.85 6.1C1.85 6.15 1.85 6.15 1.9 6.15H3.25C3.35 6.15 3.4 6.2 3.45 6.25L6.75 12.15C6.75 12.2 6.8 12.2 6.85 12.2C6.9 12.2 6.9 12.15 6.9 12.1L4.3 6.45V6.4C4.3 6.3 4.35 6.25 4.45 6.2H11.55C11.6 6.2 11.6 6.2 11.65 6.2C11.75 6.25 11.75 6.35 11.75 6.4L9.1 12.05C9.1 12.1 9.1 12.15 9.15 12.15C9.2 12.15 9.25 12.15 9.25 12.1L12.5 6.3C12.55 6.25 12.6 6.2 12.7 6.2H14.05C14.1 6.2 14.1 6.2 14.1 6.15C14.1 6.1 14.1 6.1 14.05 6.1L12.65 5.8C12.55 5.8 12.5 5.7 12.45 5.65L12 3.15C12 3.1 11.95 3.1 11.95 3.1C11.9 3.1 11.9 3.1 11.9 3.15L12 5.3C12 5.35 12 5.35 11.95 5.4C11.9 5.45 11.85 5.45 11.8 5.4L8.85 2.4Z" fill="currentColor" style="fill-opacity:1"/>
</svg>
