<svg viewBox="0 0 16 16" fill="none" xmlns="http://www.w3.org/2000/svg">
<path id="icon" d="M10.5 14H5.5C5.23488 13.9997 4.9807 13.8942 4.79323 13.7068C4.60576 13.5193 4.5003 13.2651 4.5 13V7.99998H2C1.90112 7.99996 1.80448 7.97063 1.72227 7.91568C1.64007 7.86074 1.576 7.78266 1.53816 7.69131C1.50033 7.59996 1.49042 7.49944 1.50971 7.40247C1.52899 7.30549 1.5766 7.21641 1.6465 7.14648L7.6465 1.14648C7.69291 1.10003 7.74801 1.06319 7.80867 1.03805C7.86933 1.0129 7.93434 0.999965 8 0.999965C8.06566 0.999965 8.13068 1.0129 8.19133 1.03805C8.25199 1.06319 8.30709 1.10003 8.3535 1.14648L14.3535 7.14648C14.4234 7.21641 14.471 7.30549 14.4903 7.40247C14.5096 7.49944 14.4997 7.59996 14.4618 7.69131C14.424 7.78266 14.3599 7.86074 14.2777 7.91568C14.1955 7.97063 14.0989 7.99996 14 7.99998H11.5V13C11.4996 13.2651 11.3942 13.5192 11.2067 13.7067C11.0193 13.8942 10.7651 13.9996 10.5 14V14ZM3.20705 6.99998H5.5V13H10.5V6.99998H12.7929L8 2.20703L3.20705 6.99998Z" fill="currentColor" style="fill-opacity:1"/>
</svg>
