<svg viewBox="0 0 16 16" fill="none" xmlns="http://www.w3.org/2000/svg">
<path d="M14.7071 12L6 3.29296C5.80954 3.1111 5.55632 3.00962 5.29298 3.00962C5.02963 3.00962 4.77642 3.1111 4.58595 3.29296L3.29295 4.58596C3.10572 4.77363 3.00057 5.02789 3.00057 5.29298C3.00057 5.55808 3.10572 5.81234 3.29295 6.00001L11.9995 14.7071C12.1872 14.8943 12.4414 14.9994 12.7065 14.9994C12.9716 14.9994 13.2259 14.8943 13.4136 14.7071L14.7071 13.4138C14.7999 13.321 14.8736 13.2108 14.9239 13.0894C14.9741 12.9681 15 12.8381 15 12.7068C15 12.5755 14.9741 12.4454 14.9239 12.3241C14.8736 12.2028 14.7999 12.0928 14.7071 12ZM4 5.29296L5.29295 4.00001L7.79295 6.50001L6.49965 7.79346L3.99965 5.29346L4 5.29296Z" fill="currentColor" style="fill-opacity:1"/>
<path d="M2.00002 7.00001L1.00003 8L2.00002 8.99999L3.00001 8L2.00002 7.00001Z" fill="currentColor" style="fill-opacity:1"/>
<path d="M8.00002 1.00003L7.00003 2.00002L8.00002 3.00001L9.00001 2.00002L8.00002 1.00003Z" fill="currentColor" style="fill-opacity:1"/>
<path d="M1.99998 1.00002L0.999989 2.00001L1.99998 3L2.99997 2.00001L1.99998 1.00002Z" fill="currentColor" style="fill-opacity:1"/>
</svg>
