<svg viewBox="0 0 16 16" fill="none" xmlns="http://www.w3.org/2000/svg">
<path d="M15 11.5H12.5V9.00002H11.5V11.5H9V12.5H11.5V15H12.5V12.5H15V11.5Z" fill="currentColor" style="fill-opacity:1"/>
<path d="M12.0636 5.91972L12.654 6.02652C13.1324 6.10442 13.5837 6.30119 13.9663 6.59877C14.3228 6.88198 14.6022 7.25042 14.7788 7.67009C14.9554 8.08976 15.0234 8.54713 14.9766 9.00002H15.9912C16.053 8.07978 15.7736 7.16905 15.2063 6.4418C14.6391 5.71456 13.8238 5.22178 12.9162 5.05762C12.727 4.07538 12.2476 3.17244 11.5401 2.46534C10.8325 1.75825 9.92925 1.27947 8.9469 1.09082C8.30163 0.966167 7.63812 0.969915 6.99431 1.10185C6.35049 1.23378 5.73899 1.49131 5.19476 1.85971C4.65053 2.22812 4.18425 2.70017 3.82257 3.24889C3.46089 3.79761 3.2109 4.41223 3.0869 5.05762C2.14419 5.22791 1.3023 5.75227 0.733723 6.52326C0.165151 7.29425 -0.0870507 8.25348 0.028796 9.20442C0.161506 10.1287 0.626258 10.973 1.33618 11.5795C2.0461 12.186 2.95261 12.5132 3.88625 12.5H7V11.5H3.8489C3.19401 11.5102 2.55604 11.2919 2.04478 10.8825C1.53351 10.4731 1.18093 9.89834 1.0477 9.25707C0.980994 8.90028 0.9855 8.53382 1.06095 8.17878C1.13641 7.82374 1.28132 7.48712 1.48736 7.1883C1.69339 6.88947 1.95648 6.63434 2.26149 6.43757C2.5665 6.2408 2.90741 6.10629 3.2646 6.04177L3.939 5.91972L4.0459 5.36472C4.19609 4.53074 4.60081 3.76372 5.20447 3.16902C5.80813 2.57432 6.58112 2.18112 7.41725 2.04342C7.9191 1.96898 8.43056 1.99104 8.92415 2.10842C9.68541 2.29717 10.376 2.70175 10.9128 3.27353C11.4497 3.84532 11.81 4.55998 11.9504 5.33162L12.0636 5.91972Z" fill="currentColor" style="fill-opacity:1"/>
</svg>
