<svg viewBox="0 0 16 16" fill="none" xmlns="http://www.w3.org/2000/svg">
<g id="Icons / Map-boundary--vegetation" clip-path="url(#clip0_0_146)">
<g id="icon">
<path d="M14 8H9V7H11.5V5C11.5 4.73478 11.6054 4.48043 11.7929 4.29289C11.9804 4.10536 12.2348 4 12.5 4H13.25C13.4368 4.00031 13.617 3.9309 13.7553 3.80536C13.8936 3.67982 13.9801 3.50719 13.9978 3.32124C14.0156 3.13529 13.9633 2.94941 13.8512 2.79998C13.7391 2.65055 13.5753 2.54832 13.3919 2.5133L13.0364 2.44555L12.9991 2.16C12.9735 1.91829 12.8815 1.6884 12.7332 1.4958C12.5849 1.3032 12.3862 1.15542 12.1591 1.06885C11.8669 0.968212 11.5479 0.979129 11.2633 1.0995C10.9787 1.21988 10.7486 1.44121 10.6173 1.72095L10.4657 2.04455L10.1107 2.006C9.95254 1.9905 9.79296 2.01257 9.64494 2.07042C9.49692 2.12826 9.36466 2.22024 9.25891 2.33886C9.15316 2.45749 9.07692 2.59941 9.0364 2.75308C8.99587 2.90674 8.99221 3.0678 9.0257 3.22315C9.08657 3.45014 9.22192 3.6501 9.41003 3.79097C9.59814 3.93184 9.8281 4.00546 10.0631 4H10.5V5H10.1091C9.59188 5.01035 9.08941 4.82704 8.70032 4.48604C8.31123 4.14504 8.06359 3.67096 8.006 3.1568C7.98551 2.8922 8.01782 2.62617 8.10106 2.37417C8.1843 2.12217 8.31681 1.88923 8.49088 1.68889C8.66494 1.48856 8.8771 1.32483 9.11501 1.20721C9.35292 1.0896 9.61183 1.02046 9.8767 1.0038C10.1146 0.646155 10.45 0.364089 10.8431 0.190925C11.2362 0.0177619 11.6707 -0.0392631 12.0952 0.0265875C12.5197 0.0924382 12.9165 0.278413 13.2386 0.56254C13.5608 0.846667 13.7949 1.21707 13.9134 1.63C14.2718 1.77723 14.5714 2.03911 14.7652 2.3747C14.959 2.71028 15.0361 3.10063 14.9845 3.4847C14.9128 3.91442 14.6888 4.304 14.3536 4.58223C14.0183 4.86046 13.5942 5.00875 13.1586 5H12.5V7H14V8Z" fill="currentColor" style="fill-opacity:1"/>
<path d="M11 9H9V10H11V9Z" fill="currentColor" style="fill-opacity:1"/>
<path d="M7 9V8H6V10H8V9H7Z" fill="currentColor" style="fill-opacity:1"/>
<path d="M7 5H6V7H7V5Z" fill="currentColor" style="fill-opacity:1"/>
<path d="M8.9425 15L5.9095 13.071L2 13.9945V2H7V4H6V3H3V12.7305L6.0905 12.0005L9.0575 13.888L11.409 13H13V10H12V9H14V14H11.591L8.9425 15Z" fill="currentColor" style="fill-opacity:1"/>
</g>
</g>
<defs>
<clipPath id="clip0_0_146">
<rect width="16" height="16" fill="currentColor" style="fill-opacity:1"/>
</clipPath>
</defs>
</svg>
