<svg viewBox="0 0 16 16" fill="none" xmlns="http://www.w3.org/2000/svg">
<path d="M12.5 13H11.5V15H12.5V13Z" fill="currentColor" style="fill-opacity:1"/>
<path d="M12.5 9H11.5V11H12.5V9Z" fill="currentColor" style="fill-opacity:1"/>
<path d="M15 11.5H13V12.5H15V11.5Z" fill="currentColor" style="fill-opacity:1"/>
<path d="M11 11.5H9V12.5H11V11.5Z" fill="currentColor" style="fill-opacity:1"/>
<path d="M12.6709 5.03009L1.67091 1.03009C1.58148 0.997538 1.48462 0.991185 1.3917 1.01178C1.29879 1.03237 1.21368 1.07905 1.14638 1.14634C1.07908 1.21362 1.03237 1.29872 1.01176 1.39163C0.991147 1.48454 0.997477 1.5814 1.03001 1.67084L5.03001 12.6708C5.06465 12.766 5.12736 12.8484 5.20984 12.9072C5.29232 12.966 5.39069 12.9984 5.49196 13.0001H5.50001C5.59997 13.0001 5.69765 12.9701 5.78042 12.9141C5.86319 12.858 5.92726 12.7785 5.96436 12.6856L7.88501 7.88469L12.6858 5.96429C12.7799 5.92673 12.8604 5.86146 12.9165 5.77713C12.9727 5.6928 13.002 5.59339 13.0004 5.49207C12.9988 5.39075 12.9664 5.2923 12.9076 5.20977C12.8488 5.12724 12.7662 5.06468 12.6709 5.03009ZM7.11526 7.11509L5.52231 11.0979L2.33596 2.33584L11.0982 5.52214L7.11526 7.11509Z" fill="currentColor" style="fill-opacity:1"/>
</svg>
