<svg viewBox="0 0 16 16" fill="none" xmlns="http://www.w3.org/2000/svg">
<path d="M6 10H3.5C3.42404 10.0001 3.34908 10.0174 3.28082 10.0507C3.21255 10.084 3.15278 10.1324 3.10603 10.1923C3.05928 10.2522 3.02678 10.3219 3.01101 10.3962C2.99524 10.4705 2.9966 10.5474 3.015 10.6211L3.4846 12.5H4.5154L4.1404 11H11.8596L11.4846 12.5H12.5154L12.9851 10.6211C13.0035 10.5474 13.0049 10.4705 12.9891 10.3962C12.9733 10.3219 12.9408 10.2521 12.894 10.1923C12.8473 10.1324 12.7875 10.084 12.7192 10.0507C12.6509 10.0174 12.576 10 12.5 10H7V1.50004C7.00002 1.39514 6.96704 1.29289 6.90574 1.20777C6.84444 1.12264 6.75792 1.05896 6.65843 1.02572C6.55893 0.99248 6.45151 0.991375 6.35135 1.02256C6.2512 1.05375 6.16338 1.11564 6.10035 1.19949L1.10375 7.69534C1.04687 7.76935 1.01183 7.8578 1.00262 7.95068C0.993408 8.04357 1.01038 8.13718 1.05161 8.22092C1.09285 8.30466 1.1567 8.37519 1.23594 8.42451C1.31519 8.47384 1.40666 8.5 1.5 8.50004H6V10ZM2.5154 7.50004L6 2.97004V7.50004H2.5154Z" fill="currentColor" style="fill-opacity:1"/>
<path d="M13.4529 12.8755C13.3698 13.1976 13.1819 13.4829 12.9189 13.6865C12.6559 13.89 12.3326 14.0004 12 14C11.6595 13.9802 11.3326 13.8594 11.0609 13.6532C10.7892 13.4469 10.585 13.1645 10.4743 12.8418C10.4407 12.7426 10.3769 12.6563 10.2919 12.595C10.2068 12.5338 10.1048 12.5006 10 12.5C9.89534 12.4993 9.79313 12.5317 9.70806 12.5927C9.623 12.6536 9.55946 12.74 9.5266 12.8394C9.41612 13.1626 9.21194 13.4455 8.94006 13.6522C8.66819 13.8589 8.34094 13.98 8 14C7.65947 13.9802 7.33256 13.8594 7.06088 13.6532C6.7892 13.4469 6.58502 13.1645 6.47435 12.8418C6.44069 12.7426 6.3769 12.6563 6.29187 12.595C6.20684 12.5338 6.1048 12.5006 6 12.5C5.895 12.4978 5.79211 12.5297 5.70676 12.5908C5.6214 12.652 5.55819 12.7392 5.5266 12.8394C5.41612 13.1626 5.21194 13.4455 4.94006 13.6522C4.66819 13.8589 4.34094 13.98 4 14C3.66739 14.0004 3.34411 13.89 3.08108 13.6865C2.81805 13.4829 2.6302 13.1976 2.5471 12.8755L1.57885 13.1245C1.71706 13.6615 2.02999 14.1372 2.46833 14.4768C2.90668 14.8163 3.44552 15.0004 4 15C4.38804 15.0035 4.77141 14.9153 5.11894 14.7426C5.46646 14.5699 5.76833 14.3177 6 14.0064C6.23404 14.3152 6.5364 14.5656 6.88338 14.7379C7.23036 14.9103 7.61255 15 8 15C8.38745 15 8.76963 14.9103 9.11662 14.7379C9.4636 14.5656 9.76596 14.3152 10 14.0064C10.2317 14.3177 10.5335 14.5699 10.8811 14.7426C11.2286 14.9153 11.612 15.0035 12 15C12.5545 15.0004 13.0933 14.8163 13.5317 14.4768C13.97 14.1372 14.2829 13.6615 14.4211 13.1245L13.4529 12.8755Z" fill="currentColor" style="fill-opacity:1"/>
<path d="M14.9557 6.96779L11.8142 1.18534C11.7832 1.1292 11.7376 1.08241 11.6824 1.04983C11.6271 1.01724 11.5641 1.00006 11.5 1.00006C11.4359 1.00006 11.3729 1.01724 11.3176 1.04983C11.2624 1.08241 11.2168 1.1292 11.1858 1.18534L8.04425 6.96779C8.01439 7.02259 7.99929 7.08421 8.00043 7.14661C8.00156 7.20901 8.01891 7.27004 8.05075 7.32371C8.08259 7.37739 8.12784 7.42186 8.18205 7.45278C8.23627 7.48369 8.29759 7.49997 8.36 7.50004H14.64C14.7024 7.49997 14.7637 7.48369 14.8179 7.45278C14.8722 7.42186 14.9174 7.37739 14.9492 7.32371C14.9811 7.27004 14.9984 7.20901 14.9996 7.14661C15.0007 7.08421 14.9856 7.02259 14.9557 6.96779ZM11.125 3.00004H11.875V5.00004H11.125V3.00004ZM11.5 6.50004C11.4011 6.50004 11.3044 6.47071 11.2222 6.41577C11.14 6.36083 11.0759 6.28274 11.0381 6.19138C11.0002 6.10002 10.9903 5.99948 11.0096 5.90249C11.0289 5.8055 11.0765 5.71641 11.1464 5.64648C11.2164 5.57656 11.3055 5.52894 11.4025 5.50964C11.4994 5.49035 11.6 5.50025 11.6913 5.5381C11.7827 5.57594 11.8608 5.64003 11.9157 5.72225C11.9707 5.80448 12 5.90115 12 6.00004C12 6.13265 11.9473 6.25982 11.8536 6.35359C11.7598 6.44736 11.6326 6.50004 11.5 6.50004Z" fill="currentColor" style="fill-opacity:1"/>
</svg>
