<svg viewBox="0 0 16 16" fill="none" xmlns="http://www.w3.org/2000/svg">
<path id="icon" fill-rule="evenodd" clip-rule="evenodd" d="M12.2041 2.01074C13.2128 2.113 14 2.96436 14 4V12L13.9893 12.2041C13.8936 13.1454 13.1455 13.8938 12.2041 13.9893L12 14H4L3.7959 13.9893C2.7872 13.887 2 13.0347 2 11.999V4C2.00002 2.89544 2.89544 2 4 2H12L12.2041 2.01074ZM4 3C3.44773 3 3.00002 3.44773 3 4V11.999C3 12.5513 3.44772 13 4 13H5V3H4ZM12 13C12.5521 13 12.9997 12.5521 13 12V4C13 3.48234 12.6067 3.05621 12.1025 3.00488L12 3H6V13H12Z" fill="currentColor" style="fill-opacity:1"/>
</svg>
