<svg viewBox="0 0 16 16" fill="none" xmlns="http://www.w3.org/2000/svg">
<path d="M15 9.99999C14.9993 8.66396 14.6122 7.35664 13.8855 6.23559L13.1629 6.95824C13.7107 7.87827 13.9999 8.92919 14 9.99999H15Z" fill="currentColor" style="fill-opacity:1"/>
<path d="M14 4.70699L13.293 3.99999L9.00951 8.28344C8.70467 8.09977 8.35589 8.00184 8.00001 7.99999C7.60444 7.99999 7.21776 8.11729 6.88887 8.33705C6.55997 8.55681 6.30362 8.86917 6.15225 9.23462C6.00087 9.60007 5.96127 10.0022 6.03844 10.3902C6.11561 10.7781 6.30609 11.1345 6.58579 11.4142C6.8655 11.6939 7.22186 11.8844 7.60983 11.9616C7.99779 12.0387 8.39992 11.9991 8.76537 11.8477C9.13083 11.6964 9.44318 11.44 9.66295 11.1111C9.88271 10.7822 10 10.3955 10 9.99999C9.99813 9.64409 9.9002 9.2953 9.71656 8.99044L14 4.70699ZM8.00001 11C7.80222 11 7.60889 10.9413 7.44444 10.8315C7.27999 10.7216 7.15181 10.5654 7.07613 10.3827C7.00044 10.1999 6.98064 9.99888 7.01922 9.8049C7.05781 9.61092 7.15305 9.43273 7.2929 9.29288C7.43275 9.15303 7.61093 9.05779 7.80492 9.0192C7.9989 8.98062 8.19996 9.00042 8.38269 9.07611C8.56542 9.15179 8.72159 9.27997 8.83148 9.44442C8.94136 9.60887 9.00001 9.80221 9.00001 9.99999C8.9997 10.2651 8.89425 10.5193 8.70678 10.7068C8.51931 10.8942 8.26513 10.9997 8.00001 11Z" fill="currentColor" style="fill-opacity:1"/>
<path d="M8.00001 3.99999C9.07072 4.00048 10.1215 4.28969 11.0417 4.83714L11.7685 4.11034C10.7119 3.43098 9.49185 3.04893 8.23655 3.00437C6.98125 2.95982 5.73715 3.2544 4.63512 3.85714C3.53309 4.45988 2.61388 5.34849 1.97419 6.42948C1.33449 7.51048 0.997964 8.7439 1.00001 9.99999H2.00001C2.00182 8.40925 2.63454 6.88417 3.75937 5.75935C4.88419 4.63452 6.40926 4.0018 8.00001 3.99999Z" fill="currentColor" style="fill-opacity:1"/>
</svg>
