<svg viewBox="0 0 16 16" fill="none" xmlns="http://www.w3.org/2000/svg">
<path id="icon" d="M12.6972 11.9999C12.9958 11.283 13.0759 10.4938 12.9272 9.73155C12.7786 8.96927 12.4079 8.26794 11.8618 7.71575C12.0121 7.33716 12.0406 6.92115 11.9434 6.52559C11.8463 6.13003 11.6282 5.7746 11.3196 5.50875L12.7076 4.1208C12.8948 3.9331 13 3.67878 13 3.41365C13 3.14851 12.8948 2.8942 12.7076 2.7065L11.2935 1.2924C11.1058 1.10509 10.8515 0.999896 10.5863 0.999896C10.3211 0.999896 10.0668 1.10509 9.87915 1.2924L3.29295 7.8786C3.10572 8.06631 3.00057 8.32062 3.00057 8.58575C3.00057 8.85088 3.10572 9.10518 3.29295 9.2929L4.70705 10.707C4.89475 10.8943 5.14906 10.9994 5.4142 10.9994C5.67934 10.9994 5.93365 10.8943 6.12135 10.707L8.5088 8.3193C8.84733 8.71102 9.32668 8.95344 9.84283 8.99393C10.359 9.03443 10.8703 8.86974 11.2657 8.5356C11.6768 9.00588 11.9292 9.59369 11.9872 10.2156C12.0452 10.8375 11.9058 11.4618 11.5887 11.9999H8V13.9999H2V14.9999H14V11.9999H12.6972ZM5.41405 9.99995L4 8.58565L4.93935 7.64645L6.3535 9.0605L5.41405 9.99995ZM8 6.99995C8.00073 7.12627 8.01349 7.25224 8.0381 7.37615L7.06055 8.35345L5.64635 6.9394L10.5864 1.9994L12.0005 3.4135L10.3761 5.03805C10.0868 4.98056 9.7883 4.98815 9.50228 5.06027C9.21627 5.1324 8.94987 5.26725 8.72242 5.45506C8.49496 5.64287 8.31213 5.87893 8.18718 6.14613C8.06224 6.41333 7.9983 6.70498 8 6.99995V6.99995ZM10 7.99995C9.80222 7.99995 9.60888 7.9413 9.44443 7.83142C9.27998 7.72154 9.15181 7.56536 9.07612 7.38263C9.00043 7.19991 8.98063 6.99884 9.01921 6.80486C9.0578 6.61088 9.15304 6.43269 9.29289 6.29284C9.43275 6.15299 9.61093 6.05775 9.80491 6.01916C9.99889 5.98058 10.2 6.00038 10.3827 6.07607C10.5654 6.15176 10.7216 6.27993 10.8315 6.44438C10.9414 6.60883 11 6.80217 11 6.99995C10.9997 7.26507 10.8942 7.51925 10.7068 7.70672C10.5193 7.89419 10.2651 7.99964 10 7.99995V7.99995ZM13 13.9999H9V12.9999H13V13.9999Z" fill="currentColor" style="fill-opacity:1"/>
</svg>
