<svg viewBox="0 0 16 16" fill="none" xmlns="http://www.w3.org/2000/svg">
<path d="M4.59 9.28495C4.5321 9.02724 4.50193 8.76408 4.5 8.49995V6.99995H3.5V8.49995C3.49812 9.04327 3.59643 9.58228 3.79 10.09L4.59 9.28495Z" fill="currentColor" style="fill-opacity:1"/>
<path d="M6.5 7.49995V3.49995C6.5 3.10213 6.65804 2.72059 6.93934 2.43929C7.22064 2.15799 7.60218 1.99995 8 1.99995C8.39782 1.99995 8.77936 2.15799 9.06066 2.43929C9.34196 2.72059 9.5 3.10213 9.5 3.49995V4.37495L10.5 3.37495C10.4834 2.71191 10.2041 2.08261 9.72357 1.62549C9.24301 1.16837 8.60054 0.920874 7.9375 0.93745C7.27446 0.954026 6.64516 1.23332 6.18804 1.71388C5.73092 2.19444 5.48342 2.83691 5.5 3.49995V7.49995H6.5Z" fill="currentColor" style="fill-opacity:1"/>
<path d="M11.5 8.49995C11.498 9.17838 11.299 9.84161 10.927 10.409C10.555 10.9763 10.0261 11.4233 9.40474 11.6956C8.78335 11.9679 8.09622 12.0537 7.42695 11.9427C6.75768 11.8316 6.13511 11.5284 5.635 11.0699L6.345 10.365C6.70516 10.6831 7.14937 10.8906 7.62446 10.9628C8.09954 11.035 8.58536 10.9688 9.02376 10.772C9.46216 10.5752 9.83455 10.2562 10.0964 9.8533C10.3582 9.45035 10.4983 8.98048 10.5 8.49995V6.20995L15 1.70995L14.295 0.99995L1 14.295L1.705 15L4.925 11.78C5.63075 12.4466 6.53493 12.8644 7.5 12.97V14H5.5V15H10.5V14H8.5V12.97C9.59968 12.847 10.6155 12.3232 11.3534 11.4986C12.0913 10.674 12.4995 9.60648 12.5 8.49995V6.99995H11.5V8.49995ZM9.5 8.49995C9.4989 8.78342 9.4175 9.06078 9.26523 9.29988C9.11296 9.53899 8.89605 9.73005 8.63964 9.85093C8.38323 9.97181 8.09782 10.0176 7.81647 9.98287C7.53513 9.94818 7.26937 9.83449 7.05 9.65495L9.5 7.20995V8.49995Z" fill="currentColor" style="fill-opacity:1"/>
</svg>
