<svg viewBox="0 0 16 16" fill="none" xmlns="http://www.w3.org/2000/svg">
<path d="M11.5 13C12.0523 13 12.5 12.5523 12.5 12C12.5 11.4477 12.0523 11 11.5 11C10.9477 11 10.5 11.4477 10.5 12C10.5 12.5523 10.9477 13 11.5 13Z" fill="currentColor" style="fill-opacity:1"/>
<path d="M15.3884 11.7393C14.677 10.0749 13.1504 9 11.5 9C9.8496 9 8.3231 10.075 7.61155 11.7393L7.5 12L7.61155 12.2607C8.3231 13.9251 9.8496 15 11.5 15C13.1504 15 14.677 13.925 15.3884 12.2607L15.5 12L15.3884 11.7393ZM11.5 14C10.3972 14 9.5 13.1028 9.5 12C9.5 10.8972 10.3972 10 11.5 10C12.6028 10 13.5 10.8972 13.5 12C13.5 13.1028 12.6028 14 11.5 14Z" fill="currentColor" style="fill-opacity:1"/>
<path d="M7 14H4.5V4H11.5V7.5H12.5V2C12.5 1.4485 12.0512 1 11.5 1H4.5C3.9485 1 3.5 1.4485 3.5 2V14C3.5 14.5512 3.9485 15 4.5 15H7V14ZM4.5 2H11.5V3H4.5V2Z" fill="currentColor" style="fill-opacity:1"/>
</svg>
