<svg viewBox="0 0 16 16" fill="none" xmlns="http://www.w3.org/2000/svg">
<path d="M13.6902 14H10.3089L12 10.6179L13.6902 14ZM12 9C11.8043 9 11.6348 9.11255 11.5527 9.27635L9.05265 14.2764C9.01895 14.3438 9 14.4197 9 14.5C9 14.7761 9.22385 15 9.5 15H14.5C14.7761 15 15 14.7761 15 14.5C15 14.4309 14.986 14.3652 14.9607 14.3054L12.4473 9.27635C12.3652 9.11255 12.1957 9 12 9Z" fill="currentColor" style="fill-opacity:1"/>
<path d="M7.5 14H4.5V4H11.5V7.5H12.5V2C12.5 1.4485 12.0512 1 11.5 1H4.5C3.9485 1 3.5 1.4485 3.5 2V14C3.5 14.5512 3.9485 15 4.5 15H7.5V14ZM4.5 2H11.5V3H4.5V2Z" fill="currentColor" style="fill-opacity:1"/>
</svg>
