<svg viewBox="0 0 16 16" fill="none" xmlns="http://www.w3.org/2000/svg">
<path d="M15 14C15 12.5166 13.9165 11.2844 12.5 11.0451V10.5H13V9.5H11V10.5H11.5V11.0451C10.0835 11.2844 9 12.5166 9 14H8.5V15H15.5V14H15ZM10 14C10 12.8972 10.8972 12 12 12C13.1028 12 14 12.8972 14 14H10Z" fill="currentColor" style="fill-opacity:1"/>
<path d="M7 14H4.5V4H11.5V8H12.5V2C12.5 1.4485 12.0512 1 11.5 1H4.5C3.9485 1 3.5 1.4485 3.5 2V14C3.5 14.5512 3.9485 15 4.5 15H7V14ZM4.5 2H11.5V3H4.5V2Z" fill="currentColor" style="fill-opacity:1"/>
</svg>
