<svg viewBox="0 0 16 16" fill="none" xmlns="http://www.w3.org/2000/svg">
<path d="M12 9C10.3458 9 9 10.3457 9 12C9 13.6543 10.3458 15 12 15C13.6542 15 15 13.6543 15 12C15 10.3457 13.6542 9 12 9ZM12 14C10.8972 14 10 13.1028 10 12C10 10.8972 10.8972 10 12 10V12H14C14 13.1028 13.1028 14 12 14Z" fill="currentColor" style="fill-opacity:1"/>
<path d="M8 14H4.5V4H11.5V7.5H12.5V2C12.5 1.4485 12.0512 1 11.5 1H4.5C3.9485 1 3.5 1.4485 3.5 2V14C3.5 14.5512 3.9485 15 4.5 15H8V14ZM4.5 2H11.5V3H4.5V2Z" fill="currentColor" style="fill-opacity:1"/>
</svg>
