<svg viewBox="0 0 16 16" fill="none" xmlns="http://www.w3.org/2000/svg">
<path d="M15 10L13 8L12.2929 8.70705L13.5857 10L12.0857 11.5L13.5857 13L12.2929 14.2929L13 15L15 13L13.5 11.5L15 10Z" fill="currentColor" style="fill-opacity:1"/>
<path d="M11.5 10L9.5 8L8.79295 8.70705L10.0857 10L8.5857 11.5L10.0857 13L8.79295 14.2929L9.5 15L11.5 13L10 11.5L11.5 10Z" fill="currentColor" style="fill-opacity:1"/>
<path d="M7.5 14H4.5V4H11.5V7H12.5V2C12.5 1.4485 12.0512 1 11.5 1H4.5C3.9485 1 3.5 1.4485 3.5 2V14C3.5 14.5512 3.9485 15 4.5 15H7.5V14ZM4.5 2H11.5V3H4.5V2Z" fill="currentColor" style="fill-opacity:1"/>
</svg>
