<svg viewBox="0 0 16 16" fill="none" xmlns="http://www.w3.org/2000/svg">
<path id="icon" d="M14.2236 8.05274L11.5 6.69089V3.49999C11.5 3.40713 11.4742 3.31611 11.4254 3.23711C11.3765 3.15812 11.3067 3.09427 11.2236 3.05274L8.22365 1.55274C8.1542 1.51804 8.07763 1.49998 8 1.49998C7.92237 1.49998 7.8458 1.51804 7.77635 1.55274L4.77635 3.05274C4.6933 3.09427 4.62346 3.15812 4.57465 3.23711C4.52584 3.31611 4.49999 3.40713 4.5 3.49999V6.69089L1.77635 8.05274C1.6933 8.09427 1.62346 8.15812 1.57465 8.23711C1.52584 8.31611 1.49999 8.40713 1.5 8.49999V12C1.49999 12.0928 1.52584 12.1839 1.57465 12.2629C1.62346 12.3419 1.6933 12.4057 1.77635 12.4472L4.77635 13.9472C4.8458 13.9819 4.92237 14 5 14C5.07763 14 5.1542 13.9819 5.22365 13.9472L8 12.5591L10.7764 13.9472C10.8458 13.9819 10.9224 14 11 14C11.0776 14 11.1542 13.9819 11.2236 13.9472L14.2236 12.4472C14.3067 12.4057 14.3765 12.3419 14.4254 12.2629C14.4742 12.1839 14.5 12.0928 14.5 12V8.49999C14.5 8.40713 14.4742 8.31611 14.4254 8.23711C14.3765 8.15812 14.3067 8.09427 14.2236 8.05274ZM10.5 6.69089L8.5 7.69089V5.30909L10.5 4.30909V6.69089ZM8 2.55909L9.88185 3.49999L8 4.44089L6.11815 3.49999L8 2.55909ZM5.5 4.30909L7.5 5.30909V7.69089L5.5 6.69089V4.30909ZM4.5 12.6909L2.5 11.6909V9.30909L4.5 10.3091V12.6909ZM5 9.44089L3.11815 8.49999L5 7.55909L6.88185 8.49999L5 9.44089ZM5.5 10.3091L7.5 9.30909V11.6909L5.5 12.6909V10.3091ZM10.5 12.6909L8.5 11.6909V9.30909L10.5 10.3091V12.6909ZM11 9.44089L9.11815 8.49999L11 7.55909L12.8819 8.49999L11 9.44089ZM13.5 11.6909L11.5 12.6909V10.3091L13.5 9.30909V11.6909Z" fill="currentColor" style="fill-opacity:1"/>
</svg>
