<svg viewBox="0 0 16 16" fill="none" xmlns="http://www.w3.org/2000/svg">
<path id="icon" d="M7.48999 1.5C7.46072 1.50005 7.43151 1.50266 7.40269 1.5078C5.81057 1.79059 4.3794 2.65251 3.38483 3.92753C2.39027 5.20254 1.90267 6.80048 2.01595 8.41355C2.12923 10.0266 2.83538 11.5407 3.99838 12.6642C5.16138 13.7877 6.69897 14.4412 8.31499 14.4986C8.39704 14.5016 8.47909 14.4986 8.56044 14.4986C9.60985 14.4992 10.644 14.2471 11.5754 13.7636C12.5067 13.2801 13.308 12.5794 13.9114 11.7208C13.9604 11.6469 13.9889 11.5613 13.9942 11.4728C13.9995 11.3842 13.9814 11.2958 13.9417 11.2165C13.902 11.1372 13.8421 11.0698 13.768 11.021C13.694 10.9722 13.6083 10.9438 13.5198 10.9387C12.5209 10.851 11.5555 10.5349 10.6983 10.0146C9.84104 9.49439 9.11492 8.784 8.57603 7.93837C8.03714 7.09274 7.69991 6.13452 7.59042 5.13777C7.48094 4.14102 7.60211 3.13245 7.94459 2.19C7.97373 2.1146 7.98442 2.03332 7.9758 1.95295C7.96717 1.87257 7.93947 1.79542 7.89499 1.72792C7.85052 1.66042 7.79056 1.60452 7.72012 1.56487C7.64967 1.52523 7.57077 1.50299 7.48999 1.5Z" fill="currentColor" style="fill-opacity:1"/>
</svg>
