<svg viewBox="0 0 16 16" fill="none" xmlns="http://www.w3.org/2000/svg">
<path id="icon" d="M14.9219 7.5174C14.8659 7.398 14.7797 7.29527 14.6718 7.21935C14.564 7.14344 14.4382 7.09696 14.3069 7.0845C13.6526 7.01763 13.0458 6.71225 12.6022 6.2266C12.2214 5.79861 11.9611 5.27711 11.8481 4.71548C11.7351 4.15385 11.7734 3.57228 11.959 3.0303C12.0027 2.8995 12.0119 2.75962 11.9857 2.62421C11.9596 2.48879 11.8989 2.36243 11.8095 2.25735C11.7276 2.1605 11.6217 2.08678 11.5024 2.04353C11.3831 2.00028 11.2545 1.98899 11.1295 2.0108L11.12 2.01275C10.2637 2.20087 9.49392 2.66759 8.93117 3.33988C8.36843 4.01216 8.04447 4.85205 8.00999 5.7281C7.60654 5.57908 7.18009 5.50189 6.74999 5.50005C5.95378 5.50434 5.17931 5.76024 4.53728 6.23117C3.89525 6.7021 3.41854 7.36395 3.17529 8.1221C2.47977 8.32024 1.87937 8.76325 1.4849 9.36939C1.09042 9.97553 0.928484 10.7039 1.02897 11.4201C1.12945 12.1363 1.48557 12.7919 2.03162 13.2661C2.57767 13.7403 3.2768 14.001 3.99999 14.0001H9.49999C9.98443 14.0019 10.462 13.886 10.8917 13.6622C11.3214 13.4385 11.6902 13.1137 11.9665 12.7157C12.2427 12.3178 12.4181 11.8586 12.4775 11.3778C12.5369 10.8971 12.4785 10.4091 12.3073 9.95585C12.8291 9.87252 13.3275 9.67994 13.7697 9.39069C14.2119 9.10145 14.5881 8.72208 14.8735 8.2774C14.9469 8.16584 14.99 8.03708 14.9985 7.90381C15.0069 7.77054 14.9806 7.63737 14.9219 7.5174V7.5174ZM9.49999 13.0001H3.99999C3.49918 13.0009 3.01633 12.8135 2.64723 12.475C2.27813 12.1365 2.04974 11.6717 2.00736 11.1727C1.96499 10.6736 2.11173 10.1769 2.41847 9.78104C2.72522 9.38516 3.16955 9.11903 3.66334 9.03545L3.99484 8.97905L4.06764 8.65095C4.20346 8.04081 4.54322 7.49521 5.03088 7.10417C5.51853 6.71313 6.12492 6.50003 6.74999 6.50003C7.37507 6.50003 7.98146 6.71313 8.46911 7.10417C8.95676 7.49521 9.29653 8.04081 9.43234 8.65095L9.50514 8.97905L9.83644 9.03545C10.3303 9.1189 10.7748 9.38496 11.0817 9.78085C11.3885 10.1767 11.5353 10.6735 11.493 11.1726C11.4506 11.6717 11.2222 12.1366 10.853 12.4752C10.4838 12.8137 10.0009 13.001 9.49999 13.0001V13.0001ZM11.7326 8.99955H11.7218C11.348 8.58138 10.8637 8.27723 10.3247 8.1221C10.0896 7.39067 9.63569 6.749 9.02429 6.28375C9.01929 6.23295 9.00624 6.18485 9.00379 6.13335C8.96021 5.49366 9.12008 4.85657 9.46051 4.31323C9.80094 3.7699 10.3045 3.34816 10.8991 3.10835C10.7422 3.77275 10.7485 4.46527 10.9174 5.12672C11.0863 5.78817 11.4129 6.39889 11.8691 6.9067C12.3883 7.47117 13.07 7.8604 13.82 8.02055C13.5653 8.32694 13.2462 8.57349 12.8854 8.74269C12.5247 8.91189 12.1311 8.99958 11.7326 8.99955V8.99955Z" fill="currentColor" style="fill-opacity:1"/>
</svg>
