<svg viewBox="0 0 16 16" fill="none" xmlns="http://www.w3.org/2000/svg">
<path d="M10.8715 9.34606C11.0698 9.18783 11.2473 9.0053 11.4 8.80276C11.6748 8.43703 11.8623 8.01329 11.9481 7.56396C12.0339 7.11463 12.0158 6.65163 11.8951 6.21037C11.7745 5.76912 11.5545 5.36132 11.2519 5.01819C10.9494 4.67505 10.5724 4.40567 10.1498 4.23066C9.72711 4.05565 9.27002 3.97965 8.81348 4.00849C8.35693 4.03732 7.91304 4.17021 7.51576 4.397C7.11848 4.62379 6.77835 4.93846 6.5214 5.31693C6.26446 5.6954 6.0975 6.12763 6.0333 6.58056C5.37362 6.71184 4.76095 7.01683 4.25854 7.46405C3.75614 7.91126 3.38222 8.48448 3.1754 9.12451C2.47989 9.32264 1.8795 9.76565 1.48502 10.3718C1.09054 10.9779 0.928599 11.7063 1.02907 12.4224C1.12954 13.1386 1.48564 13.7943 2.03167 14.2685C2.57771 14.7426 3.27681 15.0033 4 15.0025H9.5C10.1723 15.0041 10.8256 14.7793 11.3546 14.3643C11.8835 13.9494 12.2574 13.3684 12.4158 12.715C12.5742 12.0616 12.508 11.3739 12.2279 10.7627C11.9477 10.1515 11.4699 9.65252 10.8715 9.34606ZM9 5.00246C9.53027 5.00301 10.0387 5.21391 10.4136 5.58886C10.7886 5.96381 10.9994 6.4722 11 7.00246C11.0013 7.43532 10.8609 7.85671 10.6 8.20216C10.4685 8.37526 10.3098 8.52584 10.13 8.64801C9.84634 8.05918 9.41449 7.5542 8.87683 7.18258C8.33916 6.81097 7.71413 6.58549 7.06305 6.52826C7.1689 6.09402 7.4172 5.70777 7.7683 5.4312C8.1194 5.15462 8.55305 5.00367 9 5.00246ZM9.5 14.0025H4C3.49897 14.0036 3.01584 13.8163 2.64651 13.4777C2.27717 13.1392 2.04864 12.6741 2.00628 12.1749C1.96391 11.6756 2.11082 11.1787 2.41783 10.7828C2.72483 10.3868 3.1695 10.1208 3.66355 10.0375L3.995 9.98146L4.0678 9.65336C4.20361 9.04324 4.54337 8.49766 5.031 8.10664C5.51864 7.71562 6.12501 7.50253 6.75005 7.50253C7.3751 7.50253 7.98147 7.71562 8.4691 8.10664C8.95674 8.49766 9.29649 9.04324 9.4323 9.65336L9.5055 9.98146L9.8366 10.0376C10.3305 10.1211 10.7749 10.3872 11.0817 10.7832C11.3886 11.1791 11.5353 11.6758 11.493 12.1749C11.4506 12.674 11.2222 13.139 10.853 13.4775C10.4838 13.816 10.0009 14.0034 9.5 14.0025Z" fill="currentColor" style="fill-opacity:1"/>
<path d="M15 6.50246H13V7.50246H15V6.50246Z" fill="currentColor" style="fill-opacity:1"/>
<path d="M12.8892 2.40635L11.475 3.82053L12.1821 4.52756L13.5963 3.11338L12.8892 2.40635Z" fill="currentColor" style="fill-opacity:1"/>
<path d="M9.5 1.00246H8.5V3.00246H9.5V1.00246Z" fill="currentColor" style="fill-opacity:1"/>
<path d="M5.11085 2.40625L4.40381 3.11329L5.81813 4.52761L6.52517 3.82057L5.11085 2.40625Z" fill="currentColor" style="fill-opacity:1"/>
</svg>
