<svg viewBox="0 0 16 16" fill="none" xmlns="http://www.w3.org/2000/svg">
<path id="icon" d="M13.8172 13L8.8944 2.55279C8.81089 2.38582 8.68231 2.24555 8.52321 2.14788C8.36411 2.0502 8.18085 1.99901 7.99416 2.0001C7.80747 2.00119 7.62482 2.05453 7.46687 2.15406C7.30892 2.25359 7.182 2.39535 7.10045 2.56329L2.18285 13H1V14H15V13H13.8172ZM7.995 2.98954L10.4736 8.25004L9.5 8.89899L8 7.89899L6.5 8.89899L5.52245 8.24734L7.995 2.98954ZM5.0923 9.16239L6.5 10.1011L8 9.10109L9.5 10.1011L10.9045 9.16459L12.7116 13H3.2876L5.0923 9.16239Z" fill="currentColor" style="fill-opacity:1"/>
</svg>
