<svg viewBox="0 0 16 16" fill="none" xmlns="http://www.w3.org/2000/svg">
<path d="M8 15C6.61553 15 5.26215 14.5895 4.111 13.8203C2.95986 13.0511 2.06265 11.9579 1.53284 10.6788C1.00303 9.3997 0.864403 7.99223 1.1345 6.63436C1.4046 5.2765 2.07128 4.02922 3.05025 3.05025C4.02922 2.07128 5.2765 1.4046 6.63436 1.1345C7.99223 0.864403 9.3997 1.00303 10.6788 1.53284C11.9579 2.06265 13.0511 2.95986 13.8203 4.111C14.5895 5.26215 15 6.61553 15 8C14.9979 9.85587 14.2597 11.6351 12.9474 12.9474C11.6351 14.2597 9.85587 14.9979 8 15ZM8 2C6.81331 2 5.65327 2.35189 4.66658 3.01118C3.67988 3.67047 2.91085 4.60754 2.45672 5.7039C2.00259 6.80025 1.88377 8.00665 2.11529 9.17054C2.3468 10.3344 2.91824 11.4035 3.75736 12.2426C4.59647 13.0818 5.66557 13.6532 6.82946 13.8847C7.99334 14.1162 9.19974 13.9974 10.2961 13.5433C11.3925 13.0891 12.3295 12.3201 12.9888 11.3334C13.6481 10.3467 14 9.18668 14 8C13.9982 6.40925 13.3655 4.88418 12.2406 3.75936C11.1158 2.63453 9.59074 2.00181 8 2Z" fill="currentColor" style="fill-opacity:1"/>
<path d="M8 12C7.20887 12 6.43551 11.7654 5.77772 11.3259C5.11992 10.8864 4.60723 10.2616 4.30448 9.53073C4.00173 8.79983 3.92251 7.99556 4.07686 7.21964C4.2312 6.44371 4.61216 5.73098 5.17157 5.17157C5.73098 4.61216 6.44371 4.2312 7.21964 4.07686C7.99556 3.92251 8.79983 4.00173 9.53073 4.30448C10.2616 4.60723 10.8864 5.11992 11.3259 5.77772C11.7654 6.43551 12 7.20887 12 8C11.9988 9.06049 11.577 10.0772 10.8271 10.8271C10.0772 11.577 9.06049 11.9988 8 12ZM8 5C7.40665 5 6.82663 5.17594 6.33329 5.50559C5.83994 5.83523 5.45542 6.30377 5.22836 6.85195C5.0013 7.40013 4.94189 8.00332 5.05764 8.58527C5.1734 9.16721 5.45912 9.70176 5.87868 10.1213C6.29823 10.5409 6.83278 10.8266 7.41473 10.9424C7.99667 11.0581 8.59987 10.9987 9.14805 10.7716C9.69623 10.5446 10.1648 10.1601 10.4944 9.66671C10.8241 9.17336 11 8.59334 11 8C10.9991 7.20462 10.6828 6.44207 10.1203 5.87966C9.55792 5.31724 8.79537 5.00088 8 5Z" fill="currentColor" style="fill-opacity:1"/>
<path d="M8 9C8.55228 9 9 8.55228 9 8C9 7.44771 8.55228 7 8 7C7.44771 7 7 7.44771 7 8C7 8.55228 7.44771 9 8 9Z" fill="currentColor" style="fill-opacity:1"/>
</svg>
