<svg viewBox="0 0 16 16" fill="none" xmlns="http://www.w3.org/2000/svg">
<path d="M11 14H5C4.91587 14 4.83311 13.9788 4.75936 13.9383C4.68561 13.8979 4.62327 13.8394 4.5781 13.7684L1.0781 8.26845C1.02704 8.18822 0.999922 8.0951 0.999922 8C0.999922 7.9049 1.02704 7.81178 1.0781 7.73155L4.5781 2.23155C4.62327 2.16058 4.68561 2.10215 4.75936 2.06168C4.83311 2.0212 4.91587 1.99999 5 2H11C11.0841 1.99999 11.1669 2.0212 11.2406 2.06168C11.3144 2.10215 11.3767 2.16058 11.4219 2.23155L14.9219 7.73155C14.973 7.81178 15.0001 7.9049 15.0001 8C15.0001 8.0951 14.973 8.18822 14.9219 8.26845L11.4219 13.7684C11.3767 13.8394 11.3144 13.8979 11.2406 13.9383C11.1669 13.9788 11.0841 14 11 14ZM5.2744 13H10.7256L13.9072 8L10.7256 3H5.2744L2.09275 8L5.2744 13Z" fill="currentColor" style="fill-opacity:1"/>
<path d="M9.75 12H6.25C6.16627 12 6.08388 11.979 6.01039 11.9388C5.9369 11.8987 5.87465 11.8408 5.82935 11.7704L3.57935 8.2704C3.52759 8.18971 3.50008 8.09586 3.50008 8C3.50008 7.90414 3.52759 7.81029 3.57935 7.7296L5.82935 4.2296C5.87465 4.15918 5.9369 4.10126 6.01039 4.06115C6.08388 4.02104 6.16627 4.00001 6.25 4H9.75C9.83373 4.00001 9.91611 4.02104 9.98961 4.06115C10.0631 4.10126 10.1253 4.15918 10.1706 4.2296L12.4206 7.7296C12.4724 7.81029 12.4999 7.90414 12.4999 8C12.4999 8.09586 12.4724 8.18971 12.4206 8.2704L10.1706 11.7704C10.1253 11.8408 10.0631 11.8987 9.98961 11.9388C9.91611 11.979 9.83373 12 9.75 12ZM6.52295 11H9.47705L11.4055 8L9.47705 5H6.52295L4.5945 8L6.52295 11Z" fill="currentColor" style="fill-opacity:1"/>
</svg>
