<svg viewBox="0 0 16 16" fill="none" xmlns="http://www.w3.org/2000/svg">
<path d="M8 8.00003C8.55228 8.00003 9 7.55231 9 7.00003C9 6.44774 8.55228 6.00003 8 6.00003C7.44771 6.00003 7 6.44774 7 7.00003C7 7.55231 7.44771 8.00003 8 8.00003Z" fill="currentColor" style="fill-opacity:1"/>
<path d="M10 14H6C5.86739 14 5.74021 13.9473 5.64645 13.8536C5.55268 13.7598 5.5 13.6326 5.5 13.5V10.6328L3.6306 7.36158L1.2427 5.92873C1.1306 5.86144 1.04931 5.75291 1.01627 5.62641C0.983218 5.49991 1.00103 5.3655 1.0659 5.25198L3.0659 1.75198C3.09892 1.69419 3.14315 1.64357 3.19599 1.6031C3.24883 1.56263 3.30922 1.53312 3.37362 1.51629C3.43802 1.49947 3.50512 1.49567 3.57101 1.50512C3.63689 1.51457 3.70023 1.53708 3.7573 1.57133L6.13845 3.00003H9.86155L12.2427 1.57133C12.2998 1.53708 12.3631 1.51457 12.429 1.50512C12.4949 1.49567 12.562 1.49947 12.6264 1.51629C12.6908 1.53312 12.7512 1.56263 12.804 1.6031C12.8568 1.64357 12.9011 1.69419 12.9341 1.75198L14.9341 5.25198C14.999 5.3655 15.0168 5.49991 14.9837 5.62641C14.9507 5.75291 14.8694 5.86144 14.7573 5.92873L12.3694 7.36158L10.5 10.6328V13.5C10.5 13.6326 10.4473 13.7598 10.3536 13.8536C10.2598 13.9473 10.1326 14 10 14ZM6.5 13H9.5V10.3673L11.6308 6.63843L13.823 5.32313L12.3193 2.69158L10.1385 4.00003H5.8615L3.68065 2.69158L2.177 5.32313L4.3692 6.63843L6.5 10.3673V13Z" fill="currentColor" style="fill-opacity:1"/>
</svg>
