<svg viewBox="0 0 16 16" fill="none" xmlns="http://www.w3.org/2000/svg">
<path d="M8 9C8.55228 9 9 8.55228 9 8C9 7.44772 8.55228 7 8 7C7.44771 7 7 7.44772 7 8C7 8.55228 7.44771 9 8 9Z" fill="currentColor" style="fill-opacity:1"/>
<path d="M15.4319 7.74805L11.9319 1.74805C11.8879 1.67257 11.8248 1.60994 11.749 1.56642C11.6732 1.5229 11.5874 1.5 11.5 1.5H4.5C4.41261 1.5 4.32674 1.5229 4.25096 1.56642C4.17518 1.60994 4.11213 1.67257 4.0681 1.74805L0.568096 7.74805C0.523484 7.82452 0.499977 7.91147 0.499977 8C0.499977 8.08853 0.523484 8.17548 0.568096 8.25195L4.0681 14.252C4.11213 14.3274 4.17518 14.3901 4.25096 14.4336C4.32674 14.4771 4.41261 14.5 4.5 14.5H11.5C11.5874 14.5 11.6732 14.4771 11.749 14.4336C11.8248 14.3901 11.8879 14.3274 11.9319 14.252L15.4319 8.25195C15.4765 8.17548 15.5 8.08853 15.5 8C15.5 7.91147 15.4765 7.82452 15.4319 7.74805ZM11.2129 13.5H4.7871L1.57885 8L4.7871 2.5H11.2129L14.4211 8L11.2129 13.5Z" fill="currentColor" style="fill-opacity:1"/>
</svg>
