<svg viewBox="0 0 16 16" fill="none" xmlns="http://www.w3.org/2000/svg">
<path d="M8 7.99999C8.55228 7.99999 9 7.55228 9 6.99999C9 6.44771 8.55228 5.99999 8 5.99999C7.44771 5.99999 7 6.44771 7 6.99999C7 7.55228 7.44771 7.99999 8 7.99999Z" fill="currentColor" style="fill-opacity:1"/>
<path d="M14.9341 5.25194L12.9341 1.75194C12.9011 1.69412 12.8569 1.64346 12.8041 1.60296C12.7512 1.56246 12.6908 1.53292 12.6264 1.51609C12.562 1.49926 12.4949 1.49548 12.429 1.50496C12.3631 1.51444 12.2998 1.53699 12.2427 1.57129L9.86155 2.99999H6.13845L3.7573 1.57129C3.70024 1.53699 3.63691 1.51444 3.57101 1.50496C3.50511 1.49548 3.43799 1.49926 3.37358 1.51609C3.30916 1.53292 3.24876 1.56246 3.19593 1.60296C3.14309 1.64346 3.09888 1.69412 3.0659 1.75194L1.0659 5.25194C1.00103 5.36547 0.983218 5.49988 1.01627 5.62638C1.04931 5.75288 1.1306 5.8614 1.2427 5.92869L3.6306 7.36154L5.5 10.6328V13.5C5.5 13.6326 5.55268 13.7598 5.64645 13.8535C5.74021 13.9473 5.86739 14 6 14H10C10.1326 14 10.2598 13.9473 10.3536 13.8535C10.4473 13.7598 10.5 13.6326 10.5 13.5V10.6328L12.3694 7.36154L14.7573 5.92869C14.8694 5.8614 14.9507 5.75288 14.9837 5.62638C15.0168 5.49988 14.999 5.36547 14.9341 5.25194ZM9.4242 10.5H6.5758L4.28785 6.49609L5.71435 3.99999H10.2856L11.7121 6.49609L9.4242 10.5Z" fill="currentColor" style="fill-opacity:1"/>
</svg>
