<svg viewBox="0 0 16 16" fill="none" xmlns="http://www.w3.org/2000/svg">
<g id="Icons / Network--overlay" clip-path="url(#clip0_0_454)">
<g id="icon">
<path d="M11 11.5H6.91499L8.20499 10.205L7.49999 9.49998L4.99999 12L7.49999 14.5L8.20499 13.795L6.91499 12.5H11V11.5Z" fill="currentColor" style="fill-opacity:1"/>
<path d="M5.49999 6.49998H9.58499L8.29499 5.20498L8.99999 4.49998L11.5 6.99998L8.99999 9.49998L8.29499 8.79498L9.58499 7.49998H5.49999V6.49998Z" fill="currentColor" style="fill-opacity:1"/>
<path d="M12.25 12.5H12V11.5H12.25C12.9628 11.5004 13.6479 11.2239 14.1607 10.7288C14.6735 10.2336 14.9738 9.55863 14.9982 8.84624C15.0227 8.13385 14.7694 7.43982 14.2918 6.91067C13.8142 6.38153 13.1497 6.05866 12.4385 6.01023L12.0202 5.98193L11.9752 5.56493C11.8683 4.58527 11.4035 3.67959 10.6698 3.02163C9.93614 2.36368 8.98537 1.9998 7.99989 1.9998C7.01442 1.9998 6.06365 2.36368 5.32999 3.02163C4.59633 3.67959 4.13145 4.58527 4.02454 5.56493L3.97954 5.98193L3.56129 6.01023C2.85011 6.05866 2.18558 6.38154 1.70797 6.91071C1.23037 7.43988 0.977076 8.13393 1.00156 8.84634C1.02605 9.55875 1.3264 10.2338 1.83922 10.7289C2.35203 11.224 3.03717 11.5005 3.74999 11.5H3.99999V12.5H3.74999C2.81302 12.5004 1.90986 12.1499 1.21847 11.5176C0.527076 10.8852 0.0976035 10.0168 0.014676 9.08352C-0.0682514 8.15023 0.201381 7.21972 0.770442 6.47535C1.3395 5.73098 2.16672 5.22674 3.08909 5.06198C3.30725 3.91933 3.91703 2.88851 4.81342 2.14706C5.70982 1.40562 6.8367 0.999965 7.99999 0.999965C9.16329 0.999965 10.2902 1.40562 11.1866 2.14706C12.083 2.88851 12.6927 3.91933 12.9109 5.06198C13.8333 5.22674 14.6605 5.73098 15.2295 6.47535C15.7986 7.21972 16.0682 8.15023 15.9853 9.08352C15.9024 10.0168 15.4729 10.8852 14.7815 11.5176C14.0901 12.1499 13.187 12.5004 12.25 12.5Z" fill="currentColor" style="fill-opacity:1"/>
</g>
</g>
<defs>
<clipPath id="clip0_0_454">
<rect width="16" height="16" fill="currentColor" style="fill-opacity:1"/>
</clipPath>
</defs>
</svg>
