<svg viewBox="0 0 16 16" fill="none" xmlns="http://www.w3.org/2000/svg">
<path d="M14 9H13V3H6.5V2H13C13.5514 2 14 2.4486 14 3V9Z" fill="currentColor" style="fill-opacity:1"/>
<path d="M9 14H3C2.4486 14 2 13.5514 2 13V6.5H3V13H9V14Z" fill="currentColor" style="fill-opacity:1"/>
<path d="M13 10.5L12.1035 11.3965L9.3497 8.6426C9.4432 8.44705 9.49995 8.231 9.49995 8C9.49995 7.17285 8.8271 6.5 7.99995 6.5C7.7691 6.5 7.55295 6.55665 7.35735 6.6504L4.7165 4.00955C4.89215 3.7122 4.99995 3.3699 4.99995 3.00005C4.99995 1.89725 4.10275 1.00005 2.99995 1.00005C1.89715 1.00005 1 1.8972 1 3C1 4.1028 1.8972 5 3 5C3.36975 5 3.71205 4.89235 4.0095 4.71655L6.65025 7.3574C6.55675 7.55295 6.5 7.769 6.5 8C6.5 8.82715 7.17285 9.5 8 9.5C8.23085 9.5 8.447 9.44335 8.6426 9.3496L11.3965 12.1035L10.5 13L13 15.5L15.5 13L13 10.5ZM2 3C2 2.44875 2.4486 2 3 2C3.5514 2 4 2.44875 4 3C4 3.55125 3.5514 4 3 4C2.4486 4 2 3.55125 2 3ZM7.5 8C7.5 7.72435 7.72425 7.5 8 7.5C8.27575 7.5 8.5 7.72435 8.5 8C8.5 8.27565 8.27575 8.5 8 8.5C7.72425 8.5 7.5 8.27565 7.5 8ZM11.9143 13L13 11.9143L14.0857 13L13 14.0857L11.9143 13Z" fill="currentColor" style="fill-opacity:1"/>
</svg>
