<svg viewBox="0 0 16 16" fill="none" xmlns="http://www.w3.org/2000/svg">
<path id="icon" d="M8.5 8.5H11.071C11.1927 8.97132 11.4822 9.38209 11.885 9.6553C12.2879 9.9285 12.7766 10.0454 13.2595 9.98405C13.7425 9.92272 14.1864 9.68736 14.5082 9.32211C14.83 8.95686 15.0075 8.48678 15.0075 8C15.0075 7.51321 14.83 7.04313 14.5082 6.67788C14.1864 6.31263 13.7425 6.07727 13.2595 6.01594C12.7766 5.9546 12.2879 6.07149 11.885 6.34469C11.4822 6.6179 11.1927 7.02867 11.071 7.5H8.5V3.5H11.071C11.1927 3.97132 11.4822 4.38209 11.885 4.6553C12.2879 4.9285 12.7766 5.04539 13.2595 4.98405C13.7425 4.92272 14.1864 4.68736 14.5082 4.32211C14.83 3.95686 15.0075 3.48678 15.0075 3C15.0075 2.51321 14.83 2.04313 14.5082 1.67788C14.1864 1.31263 13.7425 1.07727 13.2595 1.01594C12.7766 0.954599 12.2879 1.07149 11.885 1.34469C11.4822 1.6179 11.1927 2.02867 11.071 2.5H8.5C8.23487 2.5003 7.9807 2.60575 7.79323 2.79322C7.60576 2.98069 7.5003 3.23487 7.5 3.5V7.5H4.92895C4.80725 7.02867 4.51783 6.6179 4.11494 6.34469C3.71205 6.07149 3.22335 5.9546 2.74045 6.01594C2.25754 6.07727 1.81358 6.31263 1.49179 6.67788C1.16999 7.04313 0.992455 7.51321 0.992455 8C0.992455 8.48678 1.16999 8.95686 1.49179 9.32211C1.81358 9.68736 2.25754 9.92272 2.74045 9.98405C3.22335 10.0454 3.71205 9.9285 4.11494 9.6553C4.51783 9.38209 4.80725 8.97132 4.92895 8.5H7.5V12.5C7.5003 12.7651 7.60576 13.0193 7.79323 13.2068C7.9807 13.3942 8.23487 13.4997 8.5 13.5H11.071C11.1927 13.9713 11.4822 14.3821 11.885 14.6553C12.2879 14.9285 12.7766 15.0454 13.2595 14.9841C13.7425 14.9227 14.1864 14.6874 14.5082 14.3221C14.83 13.9569 15.0075 13.4868 15.0075 13C15.0075 12.5132 14.83 12.0431 14.5082 11.6779C14.1864 11.3126 13.7425 11.0773 13.2595 11.0159C12.7766 10.9546 12.2879 11.0715 11.885 11.3447C11.4822 11.6179 11.1927 12.0287 11.071 12.5H8.5V8.5ZM13 7C13.1978 7 13.3911 7.05864 13.5556 7.16853C13.72 7.27841 13.8482 7.43459 13.9239 7.61731C13.9996 7.80004 14.0194 8.0011 13.9808 8.19509C13.9422 8.38907 13.847 8.56725 13.7071 8.7071C13.5673 8.84695 13.3891 8.9422 13.1951 8.98078C13.0011 9.01937 12.8 8.99956 12.6173 8.92387C12.4346 8.84819 12.2784 8.72001 12.1685 8.55557C12.0586 8.39112 12 8.19778 12 8C12.0003 7.73487 12.1058 7.4807 12.2932 7.29322C12.4807 7.10575 12.7349 7.0003 13 7V7ZM13 2C13.1978 2 13.3911 2.05864 13.5556 2.16853C13.72 2.27841 13.8482 2.43459 13.9239 2.61731C13.9996 2.80004 14.0194 3.0011 13.9808 3.19509C13.9422 3.38907 13.847 3.56725 13.7071 3.7071C13.5673 3.84695 13.3891 3.9422 13.1951 3.98078C13.0011 4.01937 12.8 3.99956 12.6173 3.92387C12.4346 3.84819 12.2784 3.72001 12.1685 3.55557C12.0586 3.39112 12 3.19778 12 3C12.0003 2.73487 12.1058 2.48069 12.2932 2.29322C12.4807 2.10575 12.7349 2.0003 13 2V2ZM3 9C2.80221 9 2.60888 8.94135 2.44443 8.83146C2.27998 8.72158 2.1518 8.5654 2.07612 8.38268C2.00043 8.19995 1.98063 7.99889 2.01921 7.8049C2.0578 7.61092 2.15304 7.43274 2.29289 7.29289C2.43274 7.15304 2.61092 7.05779 2.80491 7.01921C2.99889 6.98062 3.19995 7.00043 3.38268 7.07612C3.56541 7.1518 3.72158 7.27998 3.83147 7.44442C3.94135 7.60887 4 7.80221 4 8C3.99969 8.26512 3.89424 8.5193 3.70677 8.70677C3.5193 8.89424 3.26512 8.99969 3 9V9ZM13 12C13.1978 12 13.3911 12.0586 13.5556 12.1685C13.72 12.2784 13.8482 12.4346 13.9239 12.6173C13.9996 12.8 14.0194 13.0011 13.9808 13.1951C13.9422 13.3891 13.847 13.5672 13.7071 13.7071C13.5673 13.847 13.3891 13.9422 13.1951 13.9808C13.0011 14.0194 12.8 13.9996 12.6173 13.9239C12.4346 13.8482 12.2784 13.72 12.1685 13.5556C12.0586 13.3911 12 13.1978 12 13C12.0003 12.7349 12.1058 12.4807 12.2932 12.2932C12.4807 12.1058 12.7349 12.0003 13 12Z" fill="currentColor" style="fill-opacity:1"/>
</svg>
