<svg viewBox="0 0 16 16" fill="none" xmlns="http://www.w3.org/2000/svg">
<path d="M12.8992 5.00004C12.6675 3.86564 12.0493 2.84681 11.1501 2.11743C10.2509 1.38806 9.12648 0.993342 7.96869 1.00066C6.8109 1.00798 5.69154 1.41687 4.80165 2.15756C3.91175 2.89824 3.30649 3.92481 3.08916 5.06204C2.1668 5.22679 1.33958 5.73103 0.770519 6.47539C0.201458 7.21975 -0.0681773 8.15026 0.0147436 9.08355C0.0976644 10.0168 0.527128 10.8852 1.21851 11.5176C1.90989 12.15 2.81305 12.5005 3.75001 12.5H4.00001V11.5H3.75001C3.0372 11.5005 2.3521 11.224 1.83933 10.7288C1.32656 10.2337 1.02624 9.55868 1.00178 8.84629C0.977321 8.1339 1.23063 7.43988 1.70823 6.91073C2.18583 6.38158 2.85035 6.05871 3.56151 6.01029L3.97976 5.98174L4.02476 5.56499C4.12591 4.63473 4.55025 3.76944 5.22385 3.11992C5.89745 2.4704 6.7776 2.07783 7.71093 2.0106C8.64425 1.94338 9.57158 2.20577 10.3313 2.75205C11.091 3.29833 11.635 4.09387 11.8684 5.00004H12.8992Z" fill="currentColor" style="fill-opacity:1"/>
<path d="M14 6.00004H9.00001C8.73489 6.00034 8.48071 6.1058 8.29324 6.29327C8.10577 6.48074 8.00032 6.73491 8.00001 7.00004V9.00004H6.00001C5.73489 9.00034 5.48071 9.1058 5.29324 9.29327C5.10577 9.48074 5.00032 9.73491 5.00001 10V15H15V7.00004C14.9997 6.73491 14.8943 6.48074 14.7068 6.29327C14.5193 6.1058 14.2651 6.00034 14 6.00004ZM6.00001 14V10H8.00001V14H6.00001ZM14 14H9.00001V7.00004H14V14Z" fill="currentColor" style="fill-opacity:1"/>
<path d="M11 8.00004H10V10H11V8.00004Z" fill="currentColor" style="fill-opacity:1"/>
<path d="M13 8.00004H12V10H13V8.00004Z" fill="currentColor" style="fill-opacity:1"/>
<path d="M11 11H10V13H11V11Z" fill="currentColor" style="fill-opacity:1"/>
<path d="M13 11H12V13H13V11Z" fill="currentColor" style="fill-opacity:1"/>
</svg>
