<svg viewBox="0 0 16 16" fill="none" xmlns="http://www.w3.org/2000/svg">
<path d="M14 10H13V11H14V14H2V11H7V10H2C1.73488 10.0003 1.48071 10.1058 1.29324 10.2933C1.10578 10.4807 1.00032 10.7349 1 11V14C1.00032 14.2651 1.10578 14.5193 1.29324 14.7068C1.48071 14.8942 1.73488 14.9997 2 15H14C14.2651 14.9997 14.5193 14.8942 14.7068 14.7068C14.8942 14.5193 14.9997 14.2651 15 14V11C14.9997 10.7349 14.8942 10.4807 14.7068 10.2933C14.5193 10.1058 14.2651 10.0003 14 10Z" fill="currentColor" style="fill-opacity:1"/>
<path d="M3.5 13C3.77614 13 4 12.7762 4 12.5C4 12.2239 3.77614 12 3.5 12C3.22386 12 3 12.2239 3 12.5C3 12.7762 3.22386 13 3.5 13Z" fill="currentColor" style="fill-opacity:1"/>
<path d="M10.5 7.00001C10.1212 7.00083 9.75701 7.14582 9.4813 7.40551L7.47935 6.20436C7.49096 6.1368 7.49786 6.06852 7.5 6.00001C7.49786 5.9315 7.49096 5.86322 7.47935 5.79566L9.4813 4.59451C9.73382 4.82752 10.0589 4.96647 10.4018 4.98799C10.7447 5.0095 11.0846 4.91228 11.3643 4.71265C11.6439 4.51303 11.8463 4.2232 11.9374 3.89189C12.0285 3.56059 12.0027 3.20802 11.8644 2.89349C11.7261 2.57896 11.4837 2.32165 11.1779 2.16484C10.8722 2.00803 10.5218 1.96128 10.1857 2.03246C9.84951 2.10364 9.54813 2.2884 9.3322 2.55567C9.11627 2.82294 8.99896 3.15641 9 3.50001C9.00212 3.56861 9.00906 3.63698 9.02075 3.70461L7.0188 4.90576C6.80538 4.70565 6.5381 4.57233 6.24986 4.5222C5.96163 4.47206 5.66503 4.50732 5.39657 4.62361C5.12812 4.7399 4.89953 4.93216 4.73896 5.17672C4.57838 5.42127 4.49283 5.70745 4.49283 6.00001C4.49283 6.29257 4.57838 6.57875 4.73896 6.8233C4.89953 7.06786 5.12812 7.26012 5.39657 7.37641C5.66503 7.4927 5.96163 7.52796 6.24986 7.47782C6.5381 7.42769 6.80538 7.29437 7.0188 7.09426L9.02075 8.29541C9.00906 8.36304 9.00212 8.43141 9 8.50001C9 8.79668 9.08797 9.08669 9.2528 9.33336C9.41762 9.58004 9.65189 9.7723 9.92597 9.88583C10.2001 9.99936 10.5017 10.0291 10.7926 9.97119C11.0836 9.91331 11.3509 9.77045 11.5607 9.56067C11.7704 9.35089 11.9133 9.08362 11.9712 8.79265C12.0291 8.50167 11.9994 8.20007 11.8858 7.92598C11.7723 7.6519 11.58 7.41763 11.3334 7.25281C11.0867 7.08798 10.7967 7.00001 10.5 7.00001ZM10.5 3.00001C10.5989 3.00001 10.6956 3.02933 10.7778 3.08428C10.86 3.13922 10.9241 3.21731 10.9619 3.30867C10.9998 3.40003 11.0097 3.50056 10.9904 3.59756C10.9711 3.69455 10.9235 3.78364 10.8536 3.85356C10.7836 3.92349 10.6945 3.97111 10.5975 3.9904C10.5006 4.0097 10.4 3.99979 10.3087 3.96195C10.2173 3.92411 10.1392 3.86002 10.0843 3.7778C10.0293 3.69557 10 3.5989 10 3.50001C10.0001 3.36744 10.0528 3.24033 10.1466 3.14659C10.2403 3.05285 10.3674 3.00013 10.5 3.00001ZM6 6.50001C5.90111 6.50001 5.80444 6.47069 5.72221 6.41574C5.63999 6.3608 5.5759 6.28271 5.53806 6.19135C5.50022 6.09999 5.49031 5.99946 5.50961 5.90246C5.5289 5.80547 5.57652 5.71638 5.64645 5.64646C5.71637 5.57653 5.80546 5.52891 5.90245 5.50962C5.99945 5.49032 6.09998 5.50023 6.19134 5.53807C6.2827 5.57591 6.36079 5.64 6.41573 5.72222C6.47068 5.80445 6.5 5.90112 6.5 6.00001C6.49988 6.13258 6.44716 6.25969 6.35342 6.35343C6.25968 6.44717 6.13257 6.49989 6 6.50001ZM10.5 9.00001C10.4011 9.00001 10.3044 8.97069 10.2222 8.91575C10.14 8.8608 10.0759 8.78271 10.0381 8.69135C10.0002 8.59999 9.99031 8.49945 10.0096 8.40246C10.0289 8.30547 10.0765 8.21638 10.1464 8.14646C10.2164 8.07653 10.3055 8.02891 10.4025 8.00962C10.4994 7.99032 10.6 8.00023 10.6913 8.03807C10.7827 8.07591 10.8608 8.14 10.9157 8.22222C10.9707 8.30445 11 8.40112 11 8.50001C10.9999 8.63258 10.9472 8.75969 10.8534 8.85343C10.7597 8.94717 10.6326 8.99989 10.5 9.00001Z" fill="currentColor" style="fill-opacity:1"/>
</svg>
