<svg viewBox="0 0 16 16" fill="none" xmlns="http://www.w3.org/2000/svg">
<path d="M15 10H9.99999V11H15V10Z" fill="currentColor" style="fill-opacity:1"/>
<path d="M15 12H9.99999V13H15V12Z" fill="currentColor" style="fill-opacity:1"/>
<path d="M15 14H9.99999V15H15V14Z" fill="currentColor" style="fill-opacity:1"/>
<path d="M7.99999 10C7.73571 10.006 7.47295 9.95836 7.22759 9.85997C6.98223 9.76158 6.75936 9.61448 6.57243 9.42756C6.38551 9.24063 6.23841 9.01776 6.14002 8.7724C6.04163 8.52704 5.994 8.26428 5.99999 8C5.994 7.73572 6.04163 7.47296 6.14002 7.2276C6.23841 6.98224 6.38551 6.75937 6.57243 6.57244C6.75936 6.38552 6.98223 6.23842 7.22759 6.14003C7.47295 6.04164 7.73571 5.99401 7.99999 6C8.26428 5.99401 8.52703 6.04164 8.77239 6.14003C9.01775 6.23842 9.24063 6.38552 9.42755 6.57244C9.61448 6.75937 9.76158 6.98224 9.85996 7.2276C9.95835 7.47296 10.006 7.73572 9.99999 8H11C11 7.40666 10.824 6.82664 10.4944 6.33329C10.1648 5.83994 9.69622 5.45542 9.14804 5.22836C8.59986 5.0013 7.99666 4.94189 7.41472 5.05764C6.83278 5.1734 6.29823 5.45912 5.87867 5.87868C5.45911 6.29824 5.17339 6.83279 5.05764 7.41473C4.94188 7.99667 5.00129 8.59987 5.22835 9.14805C5.45542 9.69623 5.83993 10.1648 6.33328 10.4944C6.82663 10.8241 7.40665 11 7.99999 11V10Z" fill="currentColor" style="fill-opacity:1"/>
<path d="M14.6523 5.52195L13.472 3.47805C13.3566 3.2777 13.1753 3.12359 12.9589 3.04202C12.7426 2.96045 12.5046 2.95647 12.2856 3.03075L11.0686 3.4424C10.8589 3.30114 10.6397 3.17446 10.4126 3.06325L10.1607 1.80395C10.1154 1.57722 9.99292 1.37321 9.8141 1.22663C9.63529 1.08005 9.41121 0.999964 9.17999 1H6.81999C6.58881 1.00001 6.36478 1.08012 6.186 1.22669C6.00723 1.37327 5.88476 1.57726 5.83944 1.80395L5.58759 3.06325C5.35793 3.17327 5.13621 3.29916 4.92404 3.44L3.71434 3.03075C3.49538 2.95647 3.25742 2.96045 3.04107 3.04202C2.82472 3.12359 2.64336 3.2777 2.52794 3.47805L1.34764 5.52195C1.23209 5.72219 1.18946 5.95626 1.22701 6.18438C1.26456 6.41249 1.37996 6.62056 1.55359 6.7732L2.51904 7.6216C2.51049 7.7473 2.49999 7.8723 2.49999 8C2.49999 8.1289 2.50499 8.25635 2.51389 8.3828L1.55359 9.2268C1.37996 9.37944 1.26456 9.58751 1.22701 9.81562C1.18946 10.0437 1.23209 10.2778 1.34764 10.4781L2.52794 12.5219C2.64336 12.7223 2.82472 12.8764 3.04107 12.958C3.25742 13.0395 3.49538 13.0435 3.71434 12.9692L4.93139 12.5576C5.14106 12.6989 5.36025 12.8256 5.58739 12.9368L5.83924 14.196C5.88457 14.4228 6.00707 14.6268 6.18588 14.7734C6.36469 14.9199 6.58878 15 6.81999 15H7.99999V14H6.81999L6.46499 12.2246C5.97397 12.0423 5.51813 11.7765 5.11759 11.4389L3.39419 12.0219L2.21419 9.97805L3.57639 8.7805C3.48318 8.26345 3.482 7.73401 3.57289 7.21655L2.21374 6.02195L3.39429 3.97805L5.10764 4.5576C5.51097 4.2198 5.97023 3.95508 6.46469 3.7754L6.81999 2H9.17999L9.53499 3.7754C10.026 3.95776 10.4818 4.22355 10.8824 4.56105L12.6058 3.97805L13.7858 6.02195L12.3869 7.24805L13.0461 8L14.4461 6.7732C14.6198 6.62059 14.7353 6.41254 14.7729 6.18443C14.8105 5.95631 14.7679 5.72221 14.6523 5.52195Z" fill="currentColor" style="fill-opacity:1"/>
</svg>
