<svg viewBox="0 0 16 16" fill="none" xmlns="http://www.w3.org/2000/svg">
<path d="M9.99999 1V6H11V1H9.99999Z" fill="currentColor" style="fill-opacity:1"/>
<path d="M12 1V6H13V1H12Z" fill="currentColor" style="fill-opacity:1"/>
<path d="M14 1V6H15V1H14Z" fill="currentColor" style="fill-opacity:1"/>
<path d="M7.99999 10C7.73571 10.006 7.47295 9.95836 7.22759 9.85997C6.98223 9.76158 6.75936 9.61448 6.57243 9.42756C6.38551 9.24063 6.23841 9.01776 6.14002 8.7724C6.04163 8.52704 5.994 8.26428 5.99999 8C5.994 7.73572 6.04163 7.47296 6.14002 7.2276C6.23841 6.98224 6.38551 6.75937 6.57243 6.57244C6.75936 6.38552 6.98223 6.23842 7.22759 6.14003C7.47295 6.04164 7.73571 5.99401 7.99999 6V5C7.40665 5 6.82663 5.17595 6.33328 5.50559C5.83993 5.83524 5.45542 6.30377 5.22835 6.85195C5.00129 7.40013 4.94188 8.00333 5.05764 8.58527C5.17339 9.16721 5.45911 9.70176 5.87867 10.1213C6.29823 10.5409 6.83278 10.8266 7.41472 10.9424C7.99666 11.0581 8.59986 10.9987 9.14804 10.7716C9.69622 10.5446 10.1648 10.1601 10.4944 9.66671C10.824 9.17336 11 8.59334 11 8H9.99999C10.006 8.26428 9.95835 8.52704 9.85996 8.7724C9.76158 9.01776 9.61448 9.24063 9.42755 9.42756C9.24063 9.61448 9.01775 9.76158 8.77239 9.85997C8.52703 9.95836 8.26428 10.006 7.99999 10Z" fill="currentColor" style="fill-opacity:1"/>
<path d="M14.4464 9.2268L13.0489 8L12.39 8.7522L13.7861 9.97805L12.6061 12.0219L10.8924 11.4424C10.4891 11.7802 10.0298 12.0449 9.53529 12.2246L9.17999 14H6.81999L6.46499 12.2246C5.97397 12.0423 5.51813 11.7765 5.11759 11.4389L3.39419 12.0219L2.21419 9.97805L3.57639 8.7805C3.48318 8.26345 3.482 7.73401 3.57289 7.21655L2.21374 6.02195L3.39429 3.97805L5.10764 4.5576C5.51097 4.2198 5.97023 3.95508 6.46469 3.7754L6.81999 2H7.99999V1H6.81999C6.58881 1.00001 6.36478 1.08012 6.186 1.22669C6.00723 1.37327 5.88476 1.57726 5.83944 1.80395L5.58759 3.06325C5.35793 3.17327 5.13621 3.29916 4.92404 3.44L3.71434 3.03075C3.49538 2.95647 3.25742 2.96045 3.04107 3.04202C2.82472 3.12359 2.64336 3.2777 2.52794 3.47805L1.34764 5.52195C1.23209 5.72219 1.18946 5.95626 1.22701 6.18438C1.26456 6.41249 1.37996 6.62056 1.55359 6.7732L2.51904 7.6216C2.51049 7.7473 2.49999 7.8723 2.49999 8C2.49999 8.1289 2.50499 8.25635 2.51389 8.3828L1.55359 9.2268C1.37996 9.37944 1.26456 9.58751 1.22701 9.81562C1.18946 10.0437 1.23209 10.2778 1.34764 10.4781L2.52794 12.5219C2.64336 12.7223 2.82472 12.8764 3.04107 12.958C3.25742 13.0395 3.49538 13.0435 3.71434 12.9692L4.93139 12.5576C5.14106 12.6989 5.36025 12.8256 5.58739 12.9368L5.83924 14.196C5.88457 14.4228 6.00707 14.6268 6.18588 14.7734C6.36469 14.9199 6.58878 15 6.81999 15H9.17999C9.41117 15 9.63521 14.9199 9.81398 14.7733C9.99275 14.6267 10.1152 14.4227 10.1605 14.196L10.4124 12.9368C10.642 12.8267 10.8636 12.7009 11.0757 12.5601L12.2854 12.9692C12.5044 13.0435 12.7424 13.0395 12.9587 12.958C13.1751 12.8764 13.3564 12.7223 13.4718 12.5219L14.6521 10.4781C14.7677 10.2778 14.8104 10.0438 14.7729 9.81566C14.7354 9.58754 14.62 9.37946 14.4464 9.2268Z" fill="currentColor" style="fill-opacity:1"/>
</svg>
