<svg viewBox="0 0 16 16" fill="none" xmlns="http://www.w3.org/2000/svg">
<path d="M12.4542 14.4699L8.41591 7.24385C8.37454 7.16989 8.31419 7.10829 8.24108 7.06542C8.16798 7.02255 8.08476 6.99995 8.00001 6.99995C7.91526 6.99995 7.83205 7.02255 7.75894 7.06542C7.68584 7.10829 7.62549 7.16989 7.58411 7.24385L3.54581 14.4699C3.51548 14.5242 3.49985 14.5854 3.50048 14.6475C3.50111 14.7096 3.51798 14.7704 3.54941 14.824C3.58084 14.8776 3.62574 14.922 3.67964 14.9529C3.73355 14.9838 3.7946 15 3.85671 14.9999H12.1434C12.2055 15 12.2665 14.9838 12.3204 14.9529C12.3743 14.922 12.4192 14.8776 12.4507 14.824C12.4821 14.7704 12.499 14.7096 12.4996 14.6475C12.5002 14.5853 12.4846 14.5241 12.4542 14.4699ZM7.56251 9.49995H8.43751V12.2499H7.56251V9.49995ZM8.00001 13.9999C7.90112 13.9999 7.80445 13.9706 7.72223 13.9157C7.64 13.8607 7.57592 13.7827 7.53807 13.6913C7.50023 13.5999 7.49033 13.4994 7.50962 13.4024C7.52891 13.3054 7.57653 13.2163 7.64646 13.1464C7.71638 13.0765 7.80548 13.0288 7.90247 13.0096C7.99946 12.9903 8.09999 13.0002 8.19135 13.038C8.28272 13.0759 8.36081 13.1399 8.41575 13.2222C8.47069 13.3044 8.50001 13.4011 8.50001 13.4999C8.50001 13.6326 8.44733 13.7597 8.35357 13.8535C8.2598 13.9473 8.13262 13.9999 8.00001 13.9999Z" fill="currentColor" style="fill-opacity:1"/>
<path d="M12.4004 4.56805C12.1874 3.5589 11.6339 2.65366 10.8328 2.00404C10.0317 1.35442 9.03165 0.999897 8.00026 0.999897C6.96887 0.999897 5.96882 1.35442 5.16773 2.00404C4.36663 2.65366 3.81317 3.5589 3.60011 4.56805C2.8274 4.72501 2.13822 5.15784 1.66127 5.78573C1.18432 6.41361 0.952192 7.19363 1.00824 7.98013C1.06429 8.76663 1.40467 9.50585 1.96584 10.0598C2.52701 10.6137 3.2706 10.9444 4.05776 10.9902L4.61086 9.99995H4.25001C3.81737 10.0019 3.39341 9.87853 3.02938 9.64473C2.66534 9.41092 2.37681 9.0767 2.19863 8.68244C2.02046 8.28818 1.96028 7.85076 2.02536 7.42303C2.09044 6.9953 2.27799 6.59558 2.56536 6.27215L5.21386 8.92035L5.72036 8.0136L3.39036 5.6833C3.60679 5.58918 3.83694 5.53048 4.07201 5.50945L4.47976 5.4775L4.52931 5.0715C4.54116 4.9743 4.55836 4.8791 4.57791 4.78485L6.46791 6.67525L6.97481 5.76775L4.96801 3.76095C5.21562 3.32891 5.5523 2.95449 5.95571 2.66255L12.9431 9.64995C12.5866 9.87738 12.1728 9.99876 11.75 9.99995H11.3881L11.9416 10.9899C12.7287 10.9443 13.4724 10.6137 14.0337 10.0599C14.5949 9.50605 14.9354 8.7669 14.9916 7.9804C15.0478 7.19391 14.8159 6.41385 14.339 5.78587C13.8622 5.15789 13.1731 4.72517 12.4004 4.56805ZM13.6501 8.94305L6.89116 2.18405C7.38249 2.01773 7.90473 1.96312 8.41984 2.02421C8.93494 2.08531 9.42993 2.26056 9.86872 2.53719C10.3075 2.81383 10.6791 3.18488 10.9563 3.6233C11.2335 4.06172 11.4094 4.55648 11.4712 5.0715L11.5205 5.4775L11.9282 5.50945C12.4911 5.55614 13.0162 5.81211 13.3997 6.22686C13.7832 6.64162 13.9974 7.18505 14 7.74995C13.9988 8.17279 13.8775 8.58657 13.6501 8.94305Z" fill="currentColor" style="fill-opacity:1"/>
</svg>
