<svg viewBox="0 0 16 16" fill="none" xmlns="http://www.w3.org/2000/svg">
<path d="M3 8.99995H1V9.99995H3V8.99995Z" fill="currentColor" style="fill-opacity:1"/>
<path d="M15 8.99995H13V9.99995H15V8.99995Z" fill="currentColor" style="fill-opacity:1"/>
<path d="M12 11V14H4V11H3V14C3.00077 14.2649 3.10637 14.5188 3.29374 14.7062C3.48111 14.8936 3.73502 14.9992 4 15H12C12.265 14.9992 12.5189 14.8936 12.7063 14.7062C12.8936 14.5188 12.9992 14.2649 13 14V11H12Z" fill="currentColor" style="fill-opacity:1"/>
<path d="M4 7.99995V1.99995H8V4.99995C8.00077 5.26493 8.10637 5.51884 8.29374 5.70621C8.48111 5.89358 8.73502 5.99918 9 5.99995H12V7.99995H13V4.99995C13.0018 4.93423 12.9893 4.86891 12.9634 4.80849C12.9375 4.74806 12.8988 4.69397 12.85 4.64995L9.35 1.14995C9.30599 1.10111 9.2519 1.06241 9.19147 1.03651C9.13104 1.01062 9.06572 0.998142 9 0.99995H4C3.73502 1.00072 3.48111 1.10632 3.29374 1.29369C3.10637 1.48106 3.00077 1.73497 3 1.99995V7.99995H4ZM9 2.19995L11.8 4.99995H9V2.19995Z" fill="currentColor" style="fill-opacity:1"/>
<path d="M7 8.99995H5V9.99995H7V8.99995Z" fill="currentColor" style="fill-opacity:1"/>
<path d="M11 8.99995H9V9.99995H11V8.99995Z" fill="currentColor" style="fill-opacity:1"/>
</svg>
