<svg viewBox="0 0 16 16" fill="none" xmlns="http://www.w3.org/2000/svg">
<path d="M11 12.9999H8V9.99994H10V8.99994H8V7.99994H11V10.9999H9V11.9999H11V12.9999Z" fill="currentColor" style="fill-opacity:1"/>
<path d="M12.85 4.64994L9.35 1.14994C9.30601 1.10109 9.25192 1.06237 9.19149 1.03647C9.13106 1.01057 9.06572 0.998106 9 0.999945H4C3.73502 1.00072 3.48112 1.10633 3.29375 1.2937C3.10638 1.48107 3.00078 1.73497 3 1.99994V13.9999C3.00078 14.2649 3.10638 14.5188 3.29375 14.7062C3.48112 14.8936 3.73502 14.9992 4 14.9999H12C12.265 14.9992 12.5189 14.8936 12.7062 14.7062C12.8936 14.5188 12.9992 14.2649 13 13.9999V4.99994C13.0018 4.93422 12.9894 4.86889 12.9635 4.80845C12.9376 4.74802 12.8989 4.69394 12.85 4.64994ZM9 2.19994L11.8 4.99994H9V2.19994ZM12 13.9999H4V1.99994H8V4.99994C8.00078 5.26492 8.10638 5.51882 8.29375 5.70619C8.48112 5.89356 8.73502 5.99917 9 5.99994H12V13.9999Z" fill="currentColor" style="fill-opacity:1"/>
</svg>
