<svg viewBox="0 0 16 16" fill="none" xmlns="http://www.w3.org/2000/svg">
<path d="M8 14H2C1.86659 14.008 1.73299 13.9877 1.60803 13.9402C1.48307 13.8928 1.36959 13.8194 1.27508 13.7249C1.18057 13.6304 1.10719 13.5169 1.05977 13.392C1.01235 13.267 0.991979 13.1334 0.999999 13V7.00001C0.991979 6.86659 1.01235 6.733 1.05977 6.60804C1.10719 6.48308 1.18057 6.3696 1.27508 6.27509C1.36959 6.18058 1.48307 6.10719 1.60803 6.05978C1.73299 6.01236 1.86659 5.99199 2 6.00001H8C8.13341 5.99199 8.26701 6.01236 8.39197 6.05978C8.51693 6.10719 8.63041 6.18058 8.72492 6.27509C8.81942 6.3696 8.89281 6.48308 8.94023 6.60804C8.98765 6.733 9.00802 6.86659 9 7.00001V13C9.00802 13.1334 8.98765 13.267 8.94023 13.392C8.89281 13.5169 8.81942 13.6304 8.72492 13.7249C8.63041 13.8194 8.51693 13.8928 8.39197 13.9402C8.26701 13.9877 8.13341 14.008 8 14ZM2 7.00001V13H8V7.00001H2Z" fill="currentColor" style="fill-opacity:1"/>
<path d="M11 9.50001H10V5.00001H5V4.00001H10C10.1334 3.99199 10.267 4.01236 10.392 4.05978C10.5169 4.10719 10.6304 4.18058 10.7249 4.27509C10.8194 4.3696 10.8928 4.48308 10.9402 4.60804C10.9876 4.733 11.008 4.86659 11 5.00001V9.50001Z" fill="currentColor" style="fill-opacity:1"/>
<path d="M13 7.00001H12V3.00001H8V2.00001H12C12.1334 1.99199 12.267 2.01236 12.392 2.05978C12.5169 2.10719 12.6304 2.18058 12.7249 2.27509C12.8194 2.3696 12.8928 2.48308 12.9402 2.60804C12.9876 2.733 13.008 2.86659 13 3.00001V7.00001Z" fill="currentColor" style="fill-opacity:1"/>
<path d="M12 8.50001V9.50001H13.4L11 12.2V11H10V14H13V13H11.6L14 10.3V11.5H15V8.50001H12Z" fill="currentColor" style="fill-opacity:1"/>
</svg>
