<svg viewBox="0 0 16 16" fill="none" xmlns="http://www.w3.org/2000/svg">
<path id="icon" d="M14.4141 1.58597C14.0332 1.22212 13.5267 1.01908 13 1.01908C12.4733 1.01908 11.9668 1.22212 11.586 1.58597L2.025 11.146C1.69902 11.4702 1.44058 11.8559 1.26464 12.2807C1.0887 12.7054 0.998753 13.1609 1 13.6206V15H2.37795C2.83778 15.0014 3.29331 14.9115 3.71816 14.7355C4.143 14.5596 4.52871 14.3011 4.85295 13.975L14.4141 4.41432C14.5998 4.22864 14.7472 4.00817 14.8477 3.76552C14.9483 3.52288 15 3.2628 15 3.00014C15 2.73749 14.9483 2.47741 14.8477 2.23476C14.7472 1.99211 14.5998 1.77165 14.4141 1.58597V1.58597ZM5.455 9.13002L6.8693 10.5443L5.8086 11.605L4.3943 10.1909L5.455 9.13002ZM4.14575 13.2678C3.91415 13.5007 3.63865 13.6853 3.33521 13.811C3.03176 13.9367 2.7064 14.0009 2.37795 14H2V13.6206C1.99913 13.2922 2.06339 12.9669 2.18907 12.6635C2.31475 12.3601 2.49936 12.0846 2.7322 11.8531L3.6872 10.8981L5.1015 12.3121L4.14575 13.2678ZM13.7071 3.70707L7.5764 9.83742L6.1621 8.42312L12.293 2.29312C12.4834 2.11121 12.7366 2.0097 13 2.0097C13.2634 2.0097 13.5166 2.11121 13.7071 2.29312C13.7999 2.38596 13.8736 2.49618 13.9239 2.6175C13.9741 2.73882 14 2.86885 14 3.00017C14 3.13149 13.9741 3.26152 13.9239 3.38283C13.8736 3.50415 13.7999 3.61438 13.7071 3.70722V3.70707Z" fill="currentColor" style="fill-opacity:1"/>
</svg>
