<svg viewBox="0 0 16 16" fill="none" xmlns="http://www.w3.org/2000/svg">
<path d="M10.4168 8.40404C9.1964 8.40404 8.5 8.85974 8.5 9.77939C8.5 10.5787 9.01575 11.1032 9.927 11.1032C10.5974 11.1032 11.0875 10.8023 11.2335 10.2263H11.2852C11.3538 10.6905 11.646 11 12.1189 11H12.7291V10.1233H12.2822V8.00869C12.2822 6.98574 11.6377 6.40974 10.4256 6.40974C9.52295 6.40974 8.9986 6.75369 8.6719 7.26944L9.3253 7.85389C9.5401 7.54444 9.8325 7.28669 10.348 7.28669C10.9327 7.28669 11.182 7.57889 11.182 8.07754V8.40409L10.4168 8.40404ZM11.182 9.65904C11.182 10.0803 10.7866 10.3037 10.2968 10.3037C9.8667 10.3037 9.61745 10.1233 9.61745 9.76204V9.61604C9.61745 9.26364 9.9014 9.06594 10.4771 9.06594H11.182L11.182 9.65904Z" fill="currentColor" style="fill-opacity:1"/>
<path d="M4.636 8.7135H6.20035C7.30935 8.7135 7.97975 7.97425 7.97975 6.85685C7.97975 5.7478 7.30935 5 6.20035 5H3.5013V11H4.636V8.7135ZM4.636 5.98845H6.09725C6.5356 5.98845 6.80215 6.22055 6.80215 6.65915V7.05455C6.80215 7.4929 6.5356 7.73355 6.09725 7.73355H4.636V5.98845Z" fill="currentColor" style="fill-opacity:1"/>
<path d="M1 2V14C1 14.5523 1.4477 15 2 15H14C14.5523 15 15 14.5523 15 14V2C15 1.4477 14.5523 1 14 1H2C1.4477 1 1 1.4477 1 2ZM14 14H2V2H14V14Z" fill="currentColor" style="fill-opacity:1"/>
</svg>
