<svg viewBox="0 0 16 16" fill="none" xmlns="http://www.w3.org/2000/svg">
<path d="M15 2V0.999999H11V2C11.0008 2.44236 11.1486 2.87193 11.4201 3.22116C11.6916 3.57039 12.0715 3.81949 12.5 3.9293V5.5H11.5V6.5H14.5V5.5H13.5V3.9293C13.9285 3.81949 14.3084 3.57039 14.5799 3.22116C14.8514 2.87193 14.9992 2.44236 15 2Z" fill="currentColor" style="fill-opacity:1"/>
<path d="M5.25 4.5C4.90389 4.5 4.56554 4.39736 4.27776 4.20507C3.98997 4.01278 3.76567 3.73947 3.63322 3.4197C3.50076 3.09992 3.46611 2.74806 3.53363 2.40859C3.60115 2.06912 3.76783 1.7573 4.01257 1.51256C4.25731 1.26782 4.56913 1.10115 4.9086 1.03362C5.24806 0.966101 5.59993 1.00076 5.9197 1.13321C6.23947 1.26566 6.51278 1.48997 6.70508 1.77775C6.89737 2.06554 7 2.40388 7 2.75C6.99945 3.21396 6.8149 3.65875 6.48683 3.98682C6.15876 4.31489 5.71396 4.49944 5.25 4.5ZM5.25 2C5.10167 2 4.95666 2.04399 4.83333 2.1264C4.70999 2.20881 4.61386 2.32594 4.55709 2.46299C4.50033 2.60003 4.48548 2.75083 4.51442 2.89632C4.54335 3.0418 4.61478 3.17544 4.71967 3.28033C4.82456 3.38522 4.9582 3.45665 5.10369 3.48559C5.24917 3.51453 5.39997 3.49967 5.53702 3.44291C5.67406 3.38614 5.7912 3.29001 5.87361 3.16668C5.95602 3.04334 6 2.89834 6 2.75C5.99978 2.55116 5.92069 2.36052 5.78009 2.21992C5.63948 2.07931 5.44885 2.00022 5.25 2Z" fill="currentColor" style="fill-opacity:1"/>
<path d="M11.2373 15.6565L9.6704 12H6.11965C5.67893 11.9995 5.25066 11.8537 4.90118 11.5852C4.5517 11.3166 4.30051 10.9404 4.1865 10.5146L3.36965 7.45165C3.23644 6.95211 3.30712 6.4201 3.56615 5.97268C3.82518 5.52525 4.25134 5.19904 4.75088 5.06582C5.25042 4.93261 5.78242 5.00329 6.22985 5.26232C6.67728 5.52135 7.00349 5.94751 7.1367 6.44705L7.5508 8H10.5V9H6.78225L6.1709 6.7046C6.10194 6.46577 5.94212 6.26348 5.72571 6.14115C5.50931 6.01881 5.25358 5.98617 5.01339 6.05022C4.7732 6.11428 4.56768 6.26993 4.44094 6.48378C4.3142 6.69764 4.27633 6.95265 4.33545 7.1941L5.15235 10.2568C5.20942 10.4699 5.33512 10.6581 5.50999 10.7925C5.68485 10.9268 5.89914 10.9997 6.11965 11H10.3297L12.1568 15.2627L11.2373 15.6565Z" fill="currentColor" style="fill-opacity:1"/>
<path d="M9 14H3.88415C3.66384 13.9998 3.44975 13.9269 3.27505 13.7927C3.10035 13.6585 2.9748 13.4704 2.91785 13.2575L1.01685 6.1288L1.98315 5.8712L3.88415 13H9V14Z" fill="currentColor" style="fill-opacity:1"/>
</svg>
