<svg viewBox="0 0 16 16" fill="none" xmlns="http://www.w3.org/2000/svg">
<path d="M13 9.99999H8.915L10.205 8.70499L9.5 7.99999L7 10.5L9.5 13L10.205 12.295L8.915 11H13V15H14V11C14 10.7348 13.8946 10.4804 13.7071 10.2929C13.5196 10.1053 13.2652 9.99999 13 9.99999Z" fill="currentColor" style="fill-opacity:1"/>
<path d="M11.855 4.64499L8.355 1.14499C8.30828 1.09865 8.25287 1.06199 8.19195 1.03711C8.13103 1.01222 8.0658 0.999611 8 0.999992H3C2.73478 0.999992 2.48043 1.10535 2.29289 1.29288C2.10536 1.48042 2 1.73478 2 1.99999V14C2 14.2652 2.10536 14.5196 2.29289 14.7071C2.48043 14.8946 2.73478 15 3 15H7V14H3V1.99999H7V4.99999C7 5.26521 7.10536 5.51956 7.29289 5.7071C7.48043 5.89464 7.73478 5.99999 8 5.99999H11V6.99999H12V4.99999C12.0004 4.93419 11.9878 4.86896 11.9629 4.80804C11.938 4.74712 11.9013 4.69171 11.855 4.64499ZM8 2.20499L10.795 4.99999H8V2.20499Z" fill="currentColor" style="fill-opacity:1"/>
</svg>
