<svg viewBox="0 0 16 16" fill="none" xmlns="http://www.w3.org/2000/svg">
<g id="Icons / Pcn--military" clip-path="url(#clip0_0_194)">
<g id="icon">
<path d="M8 8L7.2035 9.5L5.5 9.707L6.75 10.8335L6.5 12.5L8 11.5625L9.5 12.5L9.25 10.8335L10.5 9.707L8.75 9.5L8 8Z" fill="currentColor" style="fill-opacity:1"/>
<path d="M6.207 8.707L8 6.917L9.794 8.708L10.5 8L8 5.5L5.5 8L6.207 8.707Z" fill="currentColor" style="fill-opacity:1"/>
<path d="M6.207 6.207L8 4.417L9.794 6.208L10.5 5.5L8 3L5.5 5.5L6.207 6.207Z" fill="currentColor" style="fill-opacity:1"/>
<path d="M15.2071 8.70706C15.2999 8.61422 15.3736 8.50399 15.4239 8.38268C15.4741 8.26136 15.5 8.13133 15.5 8.00001C15.5 7.86869 15.4741 7.73866 15.4239 7.61734C15.3736 7.49603 15.2999 7.3858 15.2071 7.29296L12.3136 4.39966L13.7639 2.96826C13.9778 3.02126 14.2032 3.0022 14.4052 2.91402C14.6071 2.82584 14.7743 2.67349 14.8808 2.48058C14.9874 2.28768 15.0272 2.06501 14.9943 1.84713C14.9614 1.62924 14.8574 1.42832 14.6987 1.27552C14.5399 1.12273 14.3351 1.02661 14.1161 1.00207C13.8971 0.97753 13.6762 1.02595 13.4875 1.13981C13.2988 1.25367 13.153 1.42661 13.0727 1.6318C12.9923 1.83699 12.9819 2.06296 13.0431 2.27466L11.6065 3.69241L8.70706 0.79296C8.61422 0.700089 8.50399 0.626417 8.38268 0.576154C8.26136 0.525891 8.13133 0.50002 8.00001 0.50002C7.86869 0.50002 7.73866 0.525891 7.61734 0.576154C7.49603 0.626417 7.3858 0.700089 7.29296 0.79296L4.39966 3.68631L2.96841 2.23586C3.02138 2.02193 3.00227 1.7965 2.91405 1.59454C2.82582 1.39258 2.67341 1.22538 2.48046 1.11889C2.28751 1.01239 2.0648 0.972549 1.8469 1.00554C1.62899 1.03854 1.42806 1.14252 1.27529 1.30137C1.12252 1.46021 1.02643 1.66503 1.00195 1.88406C0.977468 2.10309 1.02595 2.32407 1.13988 2.51273C1.25381 2.70138 1.42682 2.84717 1.63206 2.92746C1.8373 3.00776 2.06331 3.01807 2.27501 2.95681L3.69251 4.39356L0.79296 7.29296C0.700089 7.3858 0.626417 7.49603 0.576154 7.61734C0.525891 7.73866 0.50002 7.86869 0.50002 8.00001C0.50002 8.13133 0.525891 8.26136 0.576154 8.38268C0.626417 8.50399 0.700089 8.61422 0.79296 8.70706L3.69241 11.6065L2.27501 13.0432C2.06378 12.9824 1.8384 12.993 1.63378 13.0732C1.42916 13.1535 1.25675 13.2991 1.14325 13.4873C1.02976 13.6756 0.981524 13.896 1.00603 14.1144C1.03053 14.3329 1.12641 14.5371 1.27879 14.6955C1.43117 14.8539 1.63155 14.9577 1.84887 14.9906C2.06619 15.0236 2.28832 14.9839 2.48082 14.8778C2.67332 14.7717 2.82545 14.6051 2.91362 14.4037C3.00179 14.2024 3.02108 13.9776 2.96851 13.7642L4.39976 12.3137L7.29306 15.2071C7.3859 15.2999 7.49613 15.3736 7.61744 15.4239C7.73876 15.4741 7.86879 15.5 8.00011 15.5C8.13143 15.5 8.26146 15.4741 8.38278 15.4239C8.50409 15.3736 8.61432 15.2999 8.70716 15.2071L11.6066 12.3076L13.0432 13.7254C12.9824 13.9366 12.993 14.1621 13.0733 14.3667C13.1536 14.5714 13.2992 14.7438 13.4875 14.8573C13.6758 14.9708 13.8963 15.019 14.1147 14.9945C14.3332 14.9699 14.5375 14.874 14.6959 14.7215C14.8543 14.5691 14.958 14.3687 14.991 14.1513C15.0239 13.9339 14.9842 13.7118 14.878 13.5193C14.7718 13.3267 14.6051 13.1746 14.4037 13.0865C14.2023 12.9984 13.9775 12.9791 13.764 13.0318L12.3137 11.6004L15.2071 8.70706ZM8.00001 14.5L1.50001 8.00001L8.00001 1.50001L14.5 8.00001L8.00001 14.5Z" fill="currentColor" style="fill-opacity:1"/>
</g>
</g>
<defs>
<clipPath id="clip0_0_194">
<rect width="16" height="16" fill="currentColor" style="fill-opacity:1"/>
</clipPath>
</defs>
</svg>
