<svg viewBox="0 0 16 16" fill="none" xmlns="http://www.w3.org/2000/svg">
<path id="icon" d="M14.8535 2.64648L13.3535 1.14648C13.3071 1.10003 13.252 1.06319 13.1913 1.03805C13.1307 1.0129 13.0656 0.999965 13 0.999965C12.9343 0.999965 12.8693 1.0129 12.8087 1.03805C12.748 1.06319 12.6929 1.10003 12.6465 1.14648L9.79294 3.99998H8.54734C7.40721 4.00087 6.29548 4.35566 5.36562 5.0154C4.43576 5.67513 3.73364 6.60725 3.35619 7.68308L1.02809 14.335C0.997021 14.4238 0.991661 14.5196 1.01262 14.6114C1.03358 14.7031 1.08002 14.7871 1.14658 14.8536C1.21314 14.9202 1.29713 14.9666 1.38889 14.9875C1.48065 15.0084 1.57646 15.003 1.66529 14.9719L8.31714 12.6438C9.39292 12.2663 10.325 11.5642 10.9847 10.6343C11.6444 9.70445 11.9991 8.59273 12 7.45263V6.20703L14.8535 3.35348C14.8999 3.30708 14.9368 3.25197 14.9619 3.19131C14.9871 3.13066 15 3.06564 15 2.99998C15 2.93432 14.9871 2.86931 14.9619 2.80865C14.9368 2.748 14.8999 2.69289 14.8535 2.64648V2.64648ZM11.1465 5.64648C11.0527 5.74023 11 5.86739 11 5.99998V7.45263C10.9992 8.38546 10.709 9.29506 10.1692 10.0559C9.62939 10.8167 8.86676 11.3911 7.98654 11.7L3.40269 13.3045L7.99999 8.70703L7.29294 7.99998L2.69569 12.5974L4.29999 8.01343C4.60883 7.13321 5.18331 6.37057 5.94411 5.8308C6.70491 5.29102 7.61451 5.00072 8.54734 4.99998H9.99999C10.1326 4.99995 10.2597 4.94726 10.3535 4.85348L13 2.20703L13.7929 2.99998L11.1465 5.64648Z" fill="currentColor" style="fill-opacity:1"/>
</svg>
