<svg viewBox="0 0 16 16" fill="none" xmlns="http://www.w3.org/2000/svg">
<path id="icon" d="M8 2.12035L13.9137 6.4619L11.6506 13.5H4.3494L2.08635 6.4619L8 2.12035ZM8.00005 1C7.89615 1 7.79215 1.03225 7.70415 1.0969L1.2041 5.86915C1.07415 5.9645 1.0008 6.11435 0.999998 6.2696C0.999748 6.3214 1.00755 6.37385 1.02405 6.42505L3.5089 14.1531C3.57545 14.3599 3.7677 14.5 3.98485 14.5H12.0151C12.2322 14.5 12.4245 14.3599 12.491 14.1531L14.9759 6.42505C14.9923 6.374 15.0001 6.3217 14.9999 6.27005C14.9993 6.11465 14.9259 5.9646 14.7958 5.86915L8.2959 1.0969C8.2079 1.0322 8.10395 1 8.00005 1Z" fill="currentColor" style="fill-opacity:1"/>
</svg>
