<svg viewBox="0 0 16 16" fill="none" xmlns="http://www.w3.org/2000/svg">
<path id="icon" d="M8 13.8797L2.0863 9.53811L4.34935 2.50001H11.6506L13.9136 9.53811L8 13.8797ZM7.99995 15C8.10385 15 8.20785 14.9678 8.29585 14.9031L14.7958 10.1309C14.9258 10.0356 14.9992 9.88571 15 9.73046C15.0002 9.67866 14.9924 9.62621 14.9759 9.57501L12.491 1.84696C12.4245 1.64016 12.2322 1.50006 12.0151 1.50006H3.98485C3.7677 1.50006 3.57545 1.64021 3.5089 1.84696L1.02405 9.57501C1.0076 9.62606 0.9998 9.67836 1 9.73001C1.00065 9.88541 1.07405 10.0355 1.2041 10.1309L7.7041 14.9031C7.7921 14.9678 7.89605 15 7.99995 15Z" fill="currentColor" style="fill-opacity:1"/>
</svg>
