<svg viewBox="0 0 16 16" fill="none" xmlns="http://www.w3.org/2000/svg">
<path d="M5 15.5H3C2.73502 15.4992 2.48112 15.3936 2.29375 15.2062C2.10638 15.0189 2.00077 14.765 2 14.5V11C1.73502 10.9992 1.48112 10.8936 1.29375 10.7062C1.10638 10.5189 1.00077 10.265 0.999997 10V7C0.996368 6.80202 1.03269 6.60534 1.10678 6.42171C1.18088 6.23808 1.29124 6.07127 1.43125 5.93126C1.57127 5.79124 1.73808 5.68088 1.92171 5.60679C2.10533 5.53269 2.30202 5.49637 2.5 5.5H5.5C5.69798 5.49637 5.89466 5.53269 6.07829 5.60679C6.26192 5.68088 6.42872 5.79124 6.56874 5.93126C6.70876 6.07127 6.81911 6.23808 6.89321 6.42171C6.96731 6.60534 7.00363 6.80202 7 7V10C6.99922 10.265 6.89361 10.5189 6.70624 10.7062C6.51888 10.8936 6.26497 10.9992 6 11V14.5C5.99922 14.765 5.89361 15.0189 5.70624 15.2062C5.51888 15.3936 5.26497 15.4992 5 15.5ZM2.5 6.5C2.43329 6.49597 2.36648 6.50615 2.30399 6.52985C2.24151 6.55355 2.18476 6.59025 2.1375 6.6375C2.09024 6.68476 2.05355 6.74151 2.02985 6.804C2.00615 6.86648 1.99597 6.93329 2 7V10H3V14.5H5V10H6V7C6.00402 6.93329 5.99385 6.86648 5.97014 6.804C5.94644 6.74151 5.90975 6.68476 5.86249 6.6375C5.81523 6.59025 5.75849 6.55355 5.696 6.52985C5.63351 6.50615 5.56671 6.49597 5.5 6.5H2.5Z" fill="currentColor" style="fill-opacity:1"/>
<path d="M4 5C3.60443 5 3.21775 4.8827 2.88886 4.66294C2.55996 4.44318 2.30361 4.13082 2.15224 3.76537C2.00086 3.39991 1.96126 2.99778 2.03843 2.60982C2.1156 2.22186 2.30608 1.86549 2.58578 1.58579C2.86549 1.30608 3.22185 1.1156 3.60982 1.03843C3.99778 0.961258 4.39991 1.00086 4.76536 1.15224C5.13082 1.30362 5.44317 1.55996 5.66294 1.88886C5.8827 2.21776 6 2.60444 6 3C5.9994 3.53025 5.7885 4.03861 5.41355 4.41355C5.03861 4.7885 4.53025 4.9994 4 5ZM4 2C3.80222 2 3.60888 2.05865 3.44443 2.16853C3.27998 2.27841 3.1518 2.43459 3.07612 2.61732C3.00043 2.80004 2.98063 3.00111 3.01921 3.19509C3.0578 3.38907 3.15304 3.56725 3.29289 3.70711C3.43274 3.84696 3.61093 3.9422 3.80491 3.98078C3.99889 4.01937 4.19995 3.99957 4.38268 3.92388C4.56541 3.84819 4.72158 3.72002 4.83147 3.55557C4.94135 3.39112 5 3.19778 5 3C4.99973 2.73486 4.89429 2.48066 4.70681 2.29318C4.51933 2.10571 4.26513 2.00026 4 2Z" fill="currentColor" style="fill-opacity:1"/>
<path d="M14.3831 2.1279C14.0071 1.74578 13.4995 1.52147 12.9637 1.50069C12.428 1.4799 11.9045 1.66422 11.5 2.01605C11.0955 1.66422 10.572 1.4799 10.0363 1.50069C9.50054 1.52147 8.9929 1.74578 8.61685 2.1279C8.22145 2.53153 8 3.07405 8 3.63907C8 4.2041 8.22145 4.74662 8.61685 5.15025L11.499 8.07L11.5 8.0688L11.501 8.06975L14.3831 5.15025C14.7785 4.74662 15 4.2041 15 3.63907C15 3.07405 14.7785 2.53153 14.3831 2.1279ZM13.671 4.4474L11.501 6.64605L11.5 6.645L11.499 6.646L9.329 4.44735C9.11722 4.23154 8.99858 3.94126 8.99858 3.6389C8.99858 3.33654 9.11722 3.04625 9.329 2.83045C9.54029 2.62505 9.82335 2.51013 10.118 2.51013C10.4127 2.51013 10.6958 2.62505 10.907 2.83045L11.4975 3.43415L11.5 3.4317L11.5024 3.4342L12.0929 2.8305C12.3042 2.6251 12.5873 2.51018 12.882 2.51018C13.1766 2.51018 13.4597 2.6251 13.671 2.8305C13.8828 3.0463 14.0014 3.33659 14.0014 3.63895C14.0014 3.94131 13.8828 4.23159 13.671 4.4474Z" fill="currentColor" style="fill-opacity:1"/>
</svg>
