<svg viewBox="0 0 16 16" fill="none" xmlns="http://www.w3.org/2000/svg">
<path d="M3.74999 5.5C4.16421 5.5 4.49999 5.16421 4.49999 4.75C4.49999 4.33579 4.16421 4 3.74999 4C3.33578 4 2.99999 4.33579 2.99999 4.75C2.99999 5.16421 3.33578 5.5 3.74999 5.5Z" fill="currentColor" style="fill-opacity:1"/>
<path d="M6.49999 7C6.77614 7 6.99999 6.77614 6.99999 6.5C6.99999 6.22386 6.77614 6 6.49999 6C6.22385 6 5.99999 6.22386 5.99999 6.5C5.99999 6.77614 6.22385 7 6.49999 7Z" fill="currentColor" style="fill-opacity:1"/>
<path d="M11 11C11.2761 11 11.5 10.7761 11.5 10.5C11.5 10.2239 11.2761 10 11 10C10.7239 10 10.5 10.2239 10.5 10.5C10.5 10.7761 10.7239 11 11 11Z" fill="currentColor" style="fill-opacity:1"/>
<path d="M12.5 7C11.8283 7.00019 11.1652 7.15101 10.5594 7.44136C9.95373 7.73172 9.42083 8.15421 8.99999 8.67775V6.5C9.00017 5.70834 8.82797 4.92614 8.49534 4.20775L8.31689 3.81935L7.90549 3.935C7.77401 3.97544 7.63753 3.99732 7.49999 4C7.1023 3.99956 6.72103 3.84139 6.43982 3.56018C6.15861 3.27897 6.00043 2.89769 5.99999 2.5C6.00262 2.36257 6.0244 2.22617 6.06469 2.09475L6.18089 1.6831L5.79224 1.50465C5.07382 1.17212 4.29164 0.999918 3.49999 1H0.999993V4.5C0.998094 5.69723 1.39064 6.86174 2.11694 7.8135L2.31129 8.02735L2.58129 8.0083C3.14055 7.976 3.69643 8.11437 4.17527 8.40509C4.65412 8.69582 5.03334 9.12516 5.26269 9.63625L5.37304 9.88475L5.64184 9.927C5.92555 9.97368 6.21248 9.99809 6.49999 10H7.99999V15H8.99999V13H10.5C11.6931 12.9987 12.8369 12.5241 13.6805 11.6805C14.5241 10.8369 14.9987 9.69307 15 8.5V7H12.5ZM6.05079 8.9734C5.73074 8.37957 5.25662 7.88293 4.67828 7.53568C4.09993 7.18842 3.43872 7.00338 2.76414 7C2.26472 6.26204 1.9985 5.39107 1.99999 4.5V2H3.49999C4.01589 1.99959 4.5279 2.08927 5.01294 2.265C5.00428 2.34303 4.99996 2.42149 4.99999 2.5C4.99764 2.84873 5.06878 3.19404 5.20877 3.51345C5.34877 3.83285 5.55447 4.11918 5.8125 4.35379C6.07052 4.5884 6.37507 4.76602 6.70631 4.87509C7.03756 4.98415 7.38806 5.02222 7.73499 4.9868C7.91059 5.47197 8.00026 5.98403 7.99999 6.5V9H6.49999C6.34988 8.99945 6.19992 8.99057 6.05079 8.9734ZM14 8.5C13.999 9.42794 13.6299 10.3176 12.9737 10.9737C12.3176 11.6299 11.4279 11.999 10.5 12H8.99999V11.5C9.00119 10.7449 9.24621 10.0103 9.69859 9.40574C10.151 8.80113 10.7865 8.35878 11.5106 8.14455C11.4959 8.24638 11.5023 8.35016 11.5295 8.44939C11.5567 8.54863 11.604 8.6412 11.6686 8.72131C11.7331 8.80143 11.8135 8.86738 11.9047 8.91504C11.9959 8.9627 12.0959 8.99104 12.1986 8.99831C12.3012 9.00558 12.4042 8.99161 12.5012 8.95727C12.5982 8.92293 12.6871 8.86897 12.7623 8.79875C12.8375 8.72853 12.8974 8.64356 12.9383 8.54914C12.9792 8.45472 13.0002 8.35289 13 8.25C12.9992 8.16465 12.9836 8.08008 12.9541 8H14V8.5Z" fill="currentColor" style="fill-opacity:1"/>
</svg>
