<svg viewBox="0 0 16 16" fill="none" xmlns="http://www.w3.org/2000/svg">
<path d="M15 1H13V3H15V1Z" fill="currentColor" style="fill-opacity:1"/>
<path d="M15 4H13V6H15V4Z" fill="currentColor" style="fill-opacity:1"/>
<path d="M12 1H10V3H12V1Z" fill="currentColor" style="fill-opacity:1"/>
<path d="M12 4H10V6H12V4Z" fill="currentColor" style="fill-opacity:1"/>
<path d="M12.5 15H12.415C2.59 14.435 1.195 6.145 0.999998 3.615C0.969494 3.21835 1.09781 2.82583 1.35671 2.52378C1.61561 2.22174 1.9839 2.03491 2.38055 2.0044C2.42018 2.00147 2.46 2 2.5 2H5.135C5.33528 1.99981 5.531 2.05975 5.69681 2.17208C5.86263 2.28441 5.9909 2.44393 6.065 2.63L6.825 4.5C6.89817 4.68177 6.91633 4.88104 6.87722 5.07305C6.83811 5.26505 6.74345 5.44134 6.605 5.58L5.54 6.655C5.70568 7.60066 6.15819 8.47249 6.83617 9.15226C7.51414 9.83202 8.38477 10.2868 9.33 10.455L10.415 9.38C10.5557 9.24308 10.7337 9.15062 10.9266 9.11417C11.1196 9.07771 11.319 9.09887 11.5 9.175L13.385 9.93C13.5683 10.0064 13.7246 10.1357 13.8341 10.3013C13.9437 10.467 14.0014 10.6614 14 10.86V13.5C14 13.8978 13.842 14.2794 13.5607 14.5607C13.2794 14.842 12.8978 15 12.5 15ZM2.5 3C2.43434 2.99979 2.36928 3.01251 2.30853 3.03745C2.24779 3.06238 2.19255 3.09903 2.14598 3.14531C2.0994 3.1916 2.06239 3.2466 2.03707 3.30718C2.01175 3.36776 1.99861 3.43274 1.9984 3.4984C1.9984 3.5123 1.9989 3.52615 2 3.54C2.23 6.5 3.705 13.5 12.47 14C12.6024 14.0079 12.7325 13.963 12.8317 13.875C12.9309 13.787 12.9911 13.6633 12.999 13.5309C12.9997 13.5206 13 13.5103 13 13.5V10.86L11.115 10.105L9.68 11.53L9.44 11.5C5.09 10.955 4.5 6.605 4.5 6.56L4.47 6.32L5.89 4.885L5.14 3H2.5Z" fill="currentColor" style="fill-opacity:1"/>
</svg>
