<svg viewBox="0 0 16 16" fill="none" xmlns="http://www.w3.org/2000/svg">
<path d="M10.1666 10.7411L11.2866 9.62114C11.4365 9.47119 11.6272 9.36853 11.8348 9.32586C12.0425 9.2832 12.2582 9.30242 12.455 9.38115L13.8191 9.92679C14.0202 10.0072 14.1925 10.1461 14.3139 10.3254C14.4352 10.5048 14.5001 10.7164 14.5 10.9329V13.4136C14.5003 13.561 14.4706 13.707 14.4126 13.8425C14.3545 13.978 14.2694 14.1003 14.1625 14.2018C14.0556 14.3033 13.9291 14.3819 13.7907 14.4328C13.6524 14.4838 13.5051 14.5059 13.3578 14.4979C3.79689 13.9027 1.86604 5.80569 1.50729 2.70394C1.48994 2.55232 1.50488 2.39874 1.55114 2.25331C1.5974 2.10787 1.67393 1.97388 1.7757 1.86015C1.87747 1.74642 2.00216 1.65553 2.14158 1.59345C2.281 1.53138 2.43198 1.49953 2.58459 1.49999H5.02099C5.23751 1.49999 5.44906 1.56487 5.62835 1.68625C5.80764 1.80764 5.94644 1.97996 6.02684 2.18099L6.57249 3.54499C6.65121 3.74186 6.67043 3.95749 6.62777 4.16517C6.58511 4.37286 6.48244 4.56345 6.33249 4.71334L5.21249 5.83335C5.21249 5.83335 5.83334 10.1995 10.1666 10.7411Z" fill="currentColor" style="fill-opacity:1"/>
<path d="M13.5 6.49999V5.49999H11.207L14.5 2.20699L13.793 1.49999L10.5 4.793V2.49999H9.49999V6.49999H13.5Z" fill="currentColor" style="fill-opacity:1"/>
</svg>
