<svg viewBox="0 0 16 16" fill="none" xmlns="http://www.w3.org/2000/svg">
<path d="M12 6.5H11C10.9996 6.10231 10.8414 5.72103 10.5602 5.43982C10.279 5.15861 9.8977 5.00044 9.50001 5V4C10.1628 4.00075 10.7983 4.26439 11.2669 4.73307C11.7356 5.20174 11.9993 5.83719 12 6.5Z" fill="currentColor" style="fill-opacity:1"/>
<path d="M14 6.5H13C12.999 5.57206 12.6299 4.68242 11.9737 4.02627C11.3176 3.37011 10.428 3.00103 9.50001 3V2C10.6931 2.00132 11.8369 2.47585 12.6805 3.31948C13.5242 4.16311 13.9987 5.30693 14 6.5Z" fill="currentColor" style="fill-opacity:1"/>
<path d="M13 14.5H12.915C3.09001 13.935 1.69501 5.645 1.50001 3.115C1.48491 2.91859 1.50863 2.72114 1.56984 2.5339C1.63105 2.34667 1.72854 2.17332 1.85674 2.02376C1.98494 1.87421 2.14134 1.75136 2.31702 1.66225C2.4927 1.57314 2.6842 1.5195 2.88061 1.5044C2.92021 1.50147 2.96001 1.5 3.00001 1.5H5.63501C5.83529 1.49981 6.03101 1.55975 6.19683 1.67208C6.36264 1.78441 6.49091 1.94393 6.56501 2.13L7.32501 4C7.39818 4.18177 7.41634 4.38104 7.37723 4.57304C7.33812 4.76505 7.24346 4.94134 7.10501 5.08L6.04001 6.155C6.20569 7.10066 6.6582 7.97249 7.33618 8.65226C8.01415 9.33202 8.88479 9.78683 9.83001 9.955L10.915 8.88C11.0558 8.74308 11.2337 8.65062 11.4266 8.61417C11.6196 8.57771 11.819 8.59887 12 8.675L13.885 9.43C14.0683 9.50644 14.2246 9.63571 14.3341 9.80133C14.4437 9.96696 14.5014 10.1614 14.5 10.36V13C14.5 13.3978 14.342 13.7794 14.0607 14.0607C13.7794 14.342 13.3978 14.5 13 14.5ZM3.00001 2.5C2.93435 2.49979 2.86929 2.51251 2.80855 2.53745C2.7478 2.56238 2.69256 2.59903 2.64599 2.64531C2.59941 2.69159 2.5624 2.7466 2.53708 2.80718C2.51176 2.86776 2.49862 2.93274 2.49841 2.9984C2.49841 3.0123 2.49894 3.02617 2.50001 3.04C2.73001 6 4.20501 13 12.97 13.5C13.0356 13.5039 13.1012 13.4949 13.1633 13.4735C13.2254 13.452 13.2826 13.4186 13.3317 13.375C13.3808 13.3315 13.4209 13.2787 13.4496 13.2196C13.4784 13.1606 13.4952 13.0964 13.4991 13.0309C13.4997 13.0206 13.5 13.0103 13.5 13V10.36L11.615 9.605L10.18 11.03L9.94001 11C5.59001 10.455 5.00001 6.105 5.00001 6.06L4.97001 5.82L6.39001 4.385L5.64001 2.5H3.00001Z" fill="currentColor" style="fill-opacity:1"/>
</svg>
