<svg viewBox="0 0 16 16" fill="none" xmlns="http://www.w3.org/2000/svg">
<path d="M13 14.5H12.915C3.08999 13.935 1.69499 5.645 1.49999 3.115C1.48489 2.91859 1.50862 2.72114 1.56983 2.5339C1.63103 2.34667 1.72852 2.17332 1.85672 2.02376C1.98492 1.87421 2.14133 1.75136 2.317 1.66225C2.49268 1.57314 2.68419 1.5195 2.88059 1.5044C2.92019 1.50147 2.95999 1.5 2.99999 1.5H5.63499C5.83527 1.49981 6.031 1.55975 6.19681 1.67208C6.36262 1.78441 6.49089 1.94393 6.56499 2.13L7.32499 4C7.39817 4.18177 7.41633 4.38104 7.37722 4.57304C7.3381 4.76505 7.24344 4.94134 7.10499 5.08L6.03999 6.155C6.20568 7.10066 6.65819 7.97249 7.33616 8.65226C8.01414 9.33202 8.88477 9.78683 9.82999 9.955L10.915 8.88C11.0557 8.74308 11.2337 8.65062 11.4266 8.61417C11.6196 8.57771 11.819 8.59887 12 8.675L13.885 9.43C14.0683 9.50644 14.2246 9.63571 14.3341 9.80133C14.4437 9.96696 14.5014 10.1614 14.5 10.36V13C14.5 13.3978 14.342 13.7794 14.0607 14.0607C13.7793 14.342 13.3978 14.5 13 14.5ZM2.99999 2.5C2.93433 2.49979 2.86927 2.51251 2.80853 2.53745C2.74779 2.56238 2.69255 2.59903 2.64597 2.64531C2.59939 2.69159 2.56239 2.7466 2.53707 2.80718C2.51174 2.86776 2.4986 2.93274 2.49839 2.9984C2.49839 3.0123 2.49893 3.02617 2.49999 3.04C2.72999 6 4.20499 13 12.97 13.5C13.0355 13.5039 13.1012 13.4949 13.1633 13.4735C13.2253 13.452 13.2826 13.4186 13.3317 13.375C13.3808 13.3315 13.4209 13.2787 13.4496 13.2196C13.4783 13.1606 13.4952 13.0964 13.4991 13.0309C13.4997 13.0206 13.5 13.0103 13.5 13V10.36L11.615 9.605L10.18 11.03L9.93999 11C5.58999 10.455 4.99999 6.105 4.99999 6.06L4.96999 5.82L6.38999 4.385L5.63999 2.5H2.99999Z" fill="currentColor" style="fill-opacity:1"/>
<path d="M13.5 6.5V5.5H11.207L14.5 2.207L13.793 1.5L10.5 4.793V2.5H9.49999V6.5H13.5Z" fill="currentColor" style="fill-opacity:1"/>
</svg>
