<svg viewBox="0 0 16 16" fill="none" xmlns="http://www.w3.org/2000/svg">
<path id="icon" d="M10.165 10.74L11.285 9.61998C11.4358 9.471 11.6267 9.36902 11.8344 9.32642C12.0421 9.28381 12.2577 9.30242 12.455 9.37998L13.82 9.92498C14.0194 10.0059 14.1904 10.1441 14.3114 10.322C14.4324 10.5 14.498 10.7098 14.5 10.925V13.425C14.4988 13.5714 14.4681 13.716 14.4095 13.8502C14.351 13.9844 14.2659 14.1053 14.1594 14.2058C14.0529 14.3062 13.9272 14.384 13.7898 14.4346C13.6524 14.4852 13.5062 14.5074 13.36 14.5C3.79499 13.905 1.86499 5.80498 1.49999 2.70498C1.48305 2.55275 1.49853 2.39865 1.54542 2.25283C1.5923 2.10702 1.66953 1.97278 1.77203 1.85895C1.87452 1.74512 1.99995 1.65428 2.14007 1.59241C2.28019 1.53054 2.43183 1.49904 2.58499 1.49998H4.99999C5.2155 1.50062 5.42588 1.56571 5.60409 1.68689C5.7823 1.80808 5.92018 1.9798 5.99999 2.17998L6.54499 3.54498C6.62512 3.74151 6.64556 3.9573 6.60377 4.16539C6.56197 4.37347 6.45979 4.56463 6.30999 4.71498L5.18999 5.83498C5.18999 5.83498 5.83499 10.2 10.165 10.74Z" fill="currentColor" style="fill-opacity:1"/>
</svg>
