<svg viewBox="0 0 16 16" fill="none" xmlns="http://www.w3.org/2000/svg">
<path d="M15 5V4H13.9495C13.885 3.68703 13.7607 3.38944 13.5835 3.12355L14.3285 2.37855L13.6215 1.67155L12.8765 2.41655C12.6106 2.2393 12.313 2.11503 12 2.05055V1H11V2.05055C10.687 2.11502 10.3894 2.23928 10.1236 2.4165L9.37855 1.6715L8.67156 2.3785L9.41655 3.1235C9.23931 3.3894 9.11504 3.68701 9.05056 4H8.00001V5H9.05056C9.11503 5.31297 9.23928 5.61056 9.41651 5.87645L8.67151 6.62145L9.37851 7.32845L10.1235 6.58345C10.3894 6.7607 10.687 6.88497 11 6.94945V8H12V6.94945C12.313 6.88498 12.6106 6.76072 12.8765 6.5835L13.6215 7.3285L14.3285 6.6215L13.5835 5.8765C13.7607 5.6106 13.885 5.31299 13.9495 5H15ZM11.5 6C11.2033 6 10.9133 5.91203 10.6667 5.7472C10.42 5.58238 10.2277 5.34811 10.1142 5.07403C10.0007 4.79994 9.97095 4.49834 10.0288 4.20736C10.0867 3.91639 10.2296 3.64912 10.4393 3.43934C10.6491 3.22956 10.9164 3.0867 11.2074 3.02882C11.4983 2.97094 11.7999 3.00065 12.074 3.11418C12.3481 3.22771 12.5824 3.41997 12.7472 3.66664C12.912 3.91332 13 4.20333 13 4.5C12.9996 4.89769 12.8414 5.27897 12.5602 5.56018C12.279 5.84139 11.8977 5.99956 11.5 6Z" fill="currentColor" style="fill-opacity:1"/>
<path d="M12.5 15H12.415C2.59001 14.435 1.19501 6.145 1.00001 3.615C0.969501 3.21835 1.09781 2.82583 1.35672 2.52378C1.61562 2.22174 1.98391 2.03491 2.38056 2.0044C2.42019 2.00147 2.46001 2 2.50001 2H5.13501C5.33528 1.99981 5.53101 2.05975 5.69682 2.17208C5.86264 2.28441 5.9909 2.44393 6.06501 2.63L6.82501 4.5C6.89818 4.68177 6.91634 4.88104 6.87723 5.07305C6.83812 5.26505 6.74346 5.44134 6.60501 5.58L5.54001 6.655C5.70569 7.60066 6.1582 8.47249 6.83617 9.15226C7.51415 9.83202 8.38478 10.2868 9.33001 10.455L10.415 9.38C10.5558 9.24308 10.7337 9.15062 10.9266 9.11417C11.1196 9.07771 11.319 9.09887 11.5 9.175L13.385 9.93C13.5683 10.0064 13.7246 10.1357 13.8341 10.3013C13.9437 10.467 14.0014 10.6614 14 10.86V13.5C14 13.8978 13.842 14.2794 13.5607 14.5607C13.2794 14.842 12.8978 15 12.5 15ZM2.50001 3C2.43434 2.99979 2.36928 3.01251 2.30854 3.03745C2.2478 3.06238 2.19256 3.09903 2.14598 3.14531C2.0994 3.1916 2.0624 3.2466 2.03708 3.30718C2.01176 3.36776 1.99862 3.43274 1.99841 3.4984C1.99841 3.5123 1.99891 3.52615 2.00001 3.54C2.23001 6.5 3.70501 13.5 12.47 14C12.6024 14.0079 12.7325 13.963 12.8317 13.875C12.9309 13.787 12.9911 13.6633 12.9991 13.5309C12.9997 13.5206 13 13.5103 13 13.5V10.86L11.115 10.105L9.68001 11.53L9.44 11.5C5.09 10.955 4.50001 6.605 4.50001 6.56L4.47001 6.32L5.89001 4.885L5.14001 3H2.50001Z" fill="currentColor" style="fill-opacity:1"/>
</svg>
