<svg viewBox="0 0 16 16" fill="none" xmlns="http://www.w3.org/2000/svg">
<path d="M13 14.5H12.9C3.09999 13.95 1.69999 5.65 1.49999 3.1C1.44999 2.3 2.04999 1.55 2.89999 1.5C2.89999 1.5 2.94999 1.5 2.99999 1.5H5.64999C6.04999 1.5 6.44999 1.75 6.59999 2.15L7.29999 4C7.44999 4.35 7.34999 4.8 7.09999 5.1L6.04999 6.15C6.39999 8.1 7.89999 9.6 9.84999 9.95L10.95 8.9C11.25 8.6 11.65 8.55 12.05 8.7L13.95 9.45C14.3 9.6 14.55 9.95 14.55 10.4V13C14.5 13.85 13.85 14.5 13 14.5ZM2.99999 2.5C2.69999 2.5 2.49999 2.7 2.49999 3V3.05C2.74999 6 4.19999 13 12.95 13.5C13.25 13.5 13.45 13.3 13.5 13.05C13.5 13.05 13.5 13.05 13.5 13V10.35L11.6 9.6L10.15 11.05L9.94999 11C5.59999 10.45 4.99999 6.1 4.99999 6.05L4.94999 5.8L6.34999 4.35L5.64999 2.5H2.99999Z" fill="currentColor" style="fill-opacity:1"/>
<path d="M9.99999 2V3H12.3L8.99999 6.3L9.69999 7L13 3.7V6H14V2H9.99999Z" fill="currentColor" style="fill-opacity:1"/>
</svg>
