<svg viewBox="0 0 16 16" fill="none" xmlns="http://www.w3.org/2000/svg">
<path d="M13 14.5H12.915C3.09 13.935 1.695 5.645 1.5 3.115C1.4849 2.91859 1.50863 2.72114 1.56983 2.5339C1.63104 2.34667 1.72853 2.17332 1.85673 2.02376C1.98493 1.87421 2.14134 1.75136 2.31701 1.66225C2.49269 1.57314 2.6842 1.5195 2.8806 1.5044C2.9202 1.50147 2.96 1.5 3 1.5H5.635C5.83528 1.49981 6.031 1.55975 6.19682 1.67208C6.36263 1.78441 6.4909 1.94393 6.565 2.13L7.325 4C7.39818 4.18177 7.41634 4.38104 7.37722 4.57304C7.33811 4.76505 7.24345 4.94134 7.105 5.08L6.04 6.155C6.20568 7.10066 6.65819 7.97249 7.33617 8.65226C8.01414 9.33202 8.88478 9.78683 9.83 9.955L10.915 8.88C11.0557 8.74308 11.2337 8.65062 11.4266 8.61417C11.6196 8.57771 11.819 8.59887 12 8.675L13.885 9.43C14.0683 9.50644 14.2246 9.63571 14.3341 9.80133C14.4437 9.96696 14.5014 10.1614 14.5 10.36V13C14.5 13.3978 14.342 13.7794 14.0607 14.0607C13.7794 14.342 13.3978 14.5 13 14.5ZM3 2.5C2.93434 2.49979 2.86928 2.51251 2.80854 2.53745C2.74779 2.56238 2.69256 2.59903 2.64598 2.64531C2.5994 2.69159 2.56239 2.7466 2.53707 2.80718C2.51175 2.86776 2.49861 2.93274 2.4984 2.9984C2.4984 3.0123 2.49893 3.02617 2.5 3.04C2.73 6 4.205 13 12.97 13.5C13.0355 13.5039 13.1012 13.4949 13.1633 13.4735C13.2253 13.452 13.2826 13.4186 13.3317 13.375C13.3808 13.3315 13.4209 13.2787 13.4496 13.2196C13.4784 13.1606 13.4952 13.0964 13.4991 13.0309C13.4997 13.0206 13.5 13.0103 13.5 13V10.36L11.615 9.605L10.18 11.03L9.94 11C5.59 10.455 5 6.105 5 6.06L4.97 5.82L6.39 4.385L5.64 2.5H3Z" fill="currentColor" style="fill-opacity:1"/>
<path d="M12.205 4.5L14 2.705L13.295 2L11.5 3.795L9.705 2L9 2.705L10.795 4.5L9 6.295L9.705 7L11.5 5.205L13.295 7L14 6.295L12.205 4.5Z" fill="currentColor" style="fill-opacity:1"/>
</svg>
