<svg viewBox="0 0 16 16" fill="none" xmlns="http://www.w3.org/2000/svg">
<path d="M12 6.49999H11C10.9996 6.1023 10.8414 5.72103 10.5602 5.43982C10.279 5.15861 9.8977 5.00043 9.50001 4.99999V3.99999C10.1628 4.00075 10.7983 4.26438 11.2669 4.73306C11.7356 5.20174 11.9993 5.83719 12 6.49999Z" fill="currentColor" style="fill-opacity:1"/>
<path d="M14 6.49999H13C12.999 5.57205 12.6299 4.68242 11.9737 4.02626C11.3176 3.37011 10.428 3.00103 9.50001 2.99999V1.99999C10.6931 2.00132 11.8369 2.47585 12.6805 3.31948C13.5242 4.1631 13.9987 5.30693 14 6.49999Z" fill="currentColor" style="fill-opacity:1"/>
<path d="M10.1667 10.7411L11.2867 9.62114C11.4366 9.47119 11.6272 9.36853 11.8349 9.32586C12.0425 9.2832 12.2582 9.30242 12.4551 9.38115L13.8191 9.92679C14.0202 10.0072 14.1925 10.1461 14.3139 10.3254C14.4352 10.5048 14.5001 10.7164 14.5 10.9329V13.4136C14.5003 13.561 14.4706 13.707 14.4126 13.8425C14.3545 13.978 14.2695 14.1003 14.1625 14.2018C14.0556 14.3033 13.9291 14.3819 13.7907 14.4328C13.6524 14.4838 13.5051 14.5059 13.3579 14.4979C3.79691 13.9027 1.86606 5.80569 1.50731 2.70394C1.48995 2.55232 1.50489 2.39874 1.55116 2.25331C1.59742 2.10787 1.67395 1.97388 1.77572 1.86015C1.87748 1.74642 2.00218 1.65553 2.1416 1.59345C2.28101 1.53138 2.432 1.49953 2.58461 1.49999H5.02101C5.23752 1.49999 5.44907 1.56487 5.62836 1.68625C5.80765 1.80764 5.94645 1.97996 6.02686 2.18099L6.57251 3.54499C6.65123 3.74186 6.67045 3.95749 6.62778 4.16517C6.58512 4.37286 6.48246 4.56345 6.33251 4.71334L5.21251 5.83335C5.21251 5.83335 5.83336 10.1995 10.1667 10.7411Z" fill="currentColor" style="fill-opacity:1"/>
</svg>
