<svg viewBox="0 0 16 16" fill="none" xmlns="http://www.w3.org/2000/svg">
<path d="M11 7C10.2972 7.0002 9.607 7.18698 9 7.54125V4.5C9 3.57174 8.63125 2.6815 7.97487 2.02513C7.3185 1.36875 6.42826 1 5.5 1C4.57174 1 3.6815 1.36875 3.02513 2.02513C2.36875 2.6815 2 3.57174 2 4.5V11.5C1.99854 12.2134 2.21555 12.9101 2.62184 13.4964C3.02812 14.0828 3.60421 14.5307 4.27263 14.7799C4.94105 15.0291 5.66975 15.0677 6.36074 14.8904C7.05173 14.7132 7.67188 14.3286 8.1378 13.7884C8.59822 14.261 9.16845 14.6123 9.79762 14.811C10.4268 15.0097 11.0954 15.0496 11.7437 14.9271C12.392 14.8047 13 14.5237 13.5134 14.1092C14.0267 13.6947 14.4295 13.1596 14.6859 12.5517C14.9422 11.9437 15.0441 11.2817 14.9825 10.6248C14.9209 9.96791 14.6976 9.33646 14.3327 8.78678C13.9677 8.23709 13.4724 7.78627 12.8909 7.4745C12.3094 7.16274 11.6598 6.99972 11 7ZM5.5 2C6.1628 2.00078 6.79823 2.26442 7.26691 2.7331C7.73558 3.20177 7.99922 3.8372 8 4.5V7.5H3V4.5C3.00078 3.8372 3.26442 3.20177 3.7331 2.7331C4.20177 2.26442 4.8372 2.00078 5.5 2ZM5.5 14C4.8372 13.9992 4.20177 13.7356 3.7331 13.2669C3.26442 12.7982 3.00078 12.1628 3 11.5V8.5H7.8825C7.38056 9.12191 7.07757 9.88058 7.01301 10.6772C6.94844 11.4738 7.12531 12.2713 7.52055 12.966C7.28881 13.2851 6.98507 13.545 6.63398 13.7247C6.2829 13.9044 5.89439 13.9987 5.5 14ZM11 14C10.4067 14 9.82664 13.8241 9.33329 13.4944C8.83994 13.1648 8.45542 12.6962 8.22836 12.1481C8.0013 11.5999 7.94189 10.9967 8.05764 10.4147C8.1734 9.83279 8.45912 9.29824 8.87868 8.87868C9.29824 8.45912 9.83279 8.1734 10.4147 8.05764C10.9967 7.94189 11.5999 8.0013 12.1481 8.22836C12.6962 8.45542 13.1648 8.83994 13.4944 9.33329C13.8241 9.82664 14 10.4067 14 11C13.9991 11.7954 13.6828 12.5579 13.1204 13.1204C12.5579 13.6828 11.7954 13.9991 11 14Z" fill="currentColor" style="fill-opacity:1"/>
<path d="M12.5 10.5H11.5V9.5H10.5V10.5H9.5V11.5H10.5V12.5H11.5V11.5H12.5V10.5Z" fill="currentColor" style="fill-opacity:1"/>
</svg>
