<svg viewBox="0 0 16 16" fill="none" xmlns="http://www.w3.org/2000/svg">
<path d="M14.2922 7.29249L12.7323 6.35644C12.3438 6.12315 11.8992 5.99993 11.446 5.99999H3.8904L3.58 4.75754C3.52611 4.54102 3.40128 4.34878 3.2254 4.21148C3.04952 4.07418 2.83273 3.99972 2.6096 3.99999H2C1.73488 4.0003 1.4807 4.10575 1.29323 4.29322C1.10576 4.48069 1.0003 4.73487 1 4.99999V8.49999C1.00044 8.89769 1.15861 9.27896 1.43982 9.56017C1.72103 9.84138 2.10231 9.99956 2.5 9.99999H6V13C6.0003 13.2651 6.10576 13.5193 6.29323 13.7068C6.4807 13.8942 6.73488 13.9997 7 14H7.65355C7.857 13.9994 8.05548 13.937 8.2227 13.8212C8.38993 13.7053 8.51801 13.5413 8.59 13.351L9.84645 9.99999H13.5422C13.861 10 14.171 9.89553 14.4248 9.70255C14.6785 9.50956 14.862 9.23872 14.9471 8.93151C15.0322 8.6243 15.0142 8.29766 14.8959 8.00163C14.7777 7.7056 14.5656 7.4565 14.2922 7.29249ZM13.5422 8.99999H9.15355L7.65355 13H7V8.99999H2.5C2.36743 8.99988 2.24032 8.94716 2.14658 8.85342C2.05284 8.75967 2.00012 8.63257 2 8.49999V4.99999H2.6096L3.1096 6.99999H5V7.99999H6V6.99999H7.5V7.99999H8.5V6.99999H10V7.99999H11V6.99999H11.446C11.7179 6.99997 11.9847 7.07389 12.2177 7.21384L13.7778 8.1499C13.8635 8.20144 13.93 8.27966 13.9671 8.37258C14.0042 8.46551 14.0098 8.56803 13.983 8.66445C13.9563 8.76087 13.8987 8.84587 13.8191 8.90645C13.7395 8.96703 13.6423 8.99996 13.5422 8.99999Z" fill="currentColor" style="fill-opacity:1"/>
<path d="M7 1.99999H7.6614L8.8614 4.99999H9.93865L8.59 1.62864C8.51631 1.44268 8.3883 1.28323 8.22266 1.1711C8.05702 1.05896 7.86143 0.999333 7.6614 0.999995H7C6.73488 1.0003 6.4807 1.10575 6.29323 1.29322C6.10576 1.48069 6.0003 1.73487 6 1.99999V4.99999H7V1.99999Z" fill="currentColor" style="fill-opacity:1"/>
</svg>
