<svg viewBox="0 0 16 16" fill="none" xmlns="http://www.w3.org/2000/svg">
<path d="M14 14H2C1.4486 14 1 13.5514 1 13V10H2V13H14V10H15V13C15 13.5514 14.5514 14 14 14Z" fill="currentColor" style="fill-opacity:1"/>
<path d="M8.5 8.5V10.5C8.5 10.7761 8.72385 11 9 11H11C11.2761 11 11.5 10.7761 11.5 10.5V8.5C11.5 8.22385 11.2761 8 11 8H9C8.72385 8 8.5 8.22385 8.5 8.5ZM9.5 9H10.5V10H9.5V9Z" fill="currentColor" style="fill-opacity:1"/>
<path d="M4.5 8.5V10.5C4.5 10.7761 4.72385 11 5 11H7C7.27615 11 7.5 10.7761 7.5 10.5V8.5C7.5 8.22385 7.27615 8 7 8H5C4.72385 8 4.5 8.22385 4.5 8.5ZM5.5 9H6.5V10H5.5V9Z" fill="currentColor" style="fill-opacity:1"/>
<path d="M8.5 4.5V6.5C8.5 6.7761 8.72385 7 9 7H11C11.2761 7 11.5 6.7761 11.5 6.5V4.5C11.5 4.22385 11.2761 4 11 4H9C8.72385 4 8.5 4.22385 8.5 4.5ZM9.5 5H10.5V6H9.5V5Z" fill="currentColor" style="fill-opacity:1"/>
<path d="M2.5 2.5V6.5C2.5 6.7761 2.72385 7 3 7H7C7.27615 7 7.5 6.7761 7.5 6.5V2.5C7.5 2.22385 7.27615 2 7 2H3C2.72385 2 2.5 2.22385 2.5 2.5ZM3.5 3H6.5V6H3.5V3Z" fill="currentColor" style="fill-opacity:1"/>
</svg>
