<svg viewBox="0 0 16 16" fill="none" xmlns="http://www.w3.org/2000/svg">
<path d="M6 10.191L10.382 8L6 5.809V10.191Z" fill="currentColor" style="fill-opacity:1"/>
<path d="M8 1C6.61553 1 5.26215 1.41054 4.111 2.17971C2.95986 2.94888 2.06265 4.04213 1.53284 5.32122C1.00303 6.6003 0.864403 8.00777 1.1345 9.36563C1.4046 10.7235 2.07128 11.9708 3.05025 12.9497C4.02922 13.9287 5.2765 14.5954 6.63436 14.8655C7.99223 15.1356 9.3997 14.997 10.6788 14.4672C11.9579 13.9373 13.0511 13.0401 13.8203 11.889C14.5895 10.7378 15 9.38447 15 8C15 6.14348 14.2625 4.36301 12.9497 3.05025C11.637 1.7375 9.85651 1 8 1ZM11.7236 8.44725L5.72365 11.4473C5.64741 11.4854 5.5627 11.5034 5.47754 11.4996C5.39239 11.4957 5.30963 11.4702 5.23713 11.4254C5.16462 11.3806 5.10477 11.318 5.06327 11.2435C5.02177 11.1691 4.99999 11.0852 5 11V5C4.99999 4.91476 5.02177 4.83094 5.06327 4.75649C5.10477 4.68204 5.16462 4.61943 5.23713 4.57462C5.30963 4.52981 5.39239 4.50427 5.47754 4.50045C5.5627 4.49662 5.64741 4.51462 5.72365 4.55275L11.7236 7.55275C11.8067 7.59427 11.8766 7.6581 11.9254 7.7371C11.9742 7.8161 12.0001 7.90713 12.0001 8C12.0001 8.09287 11.9742 8.1839 11.9254 8.2629C11.8766 8.3419 11.8067 8.40573 11.7236 8.44725Z" fill="currentColor" style="fill-opacity:1"/>
</svg>
