<svg viewBox="0 0 16 16" fill="none" xmlns="http://www.w3.org/2000/svg">
<path d="M6 12H5V15H6V12Z" fill="currentColor" style="fill-opacity:1"/>
<path d="M10.5 10H3.5C3.10231 9.99961 2.72103 9.84144 2.43982 9.56023C2.15861 9.27902 2.00044 8.89774 2 8.50005V3.00005H1V8.50005C1.00078 9.16285 1.26442 9.79828 1.7331 10.267C2.20177 10.7356 2.8372 10.9993 3.5 11H10.5C10.8643 11.0017 11.2237 11.0838 11.5525 11.2405L8.5 14.293L9.20705 15L12.3606 11.8465C12.7702 12.3001 12.9979 12.8889 13 13.5V15H14V13.5C13.999 12.5721 13.6299 11.6825 12.9737 11.0263C12.3176 10.3702 11.4279 10.0011 10.5 10Z" fill="currentColor" style="fill-opacity:1"/>
<path d="M12.6373 2.01935L9.1373 1.01935C9.04743 0.993679 8.95217 0.993679 8.8623 1.01935L5.3623 2.01935C5.23764 2.055 5.13173 2.1377 5.06692 2.25C5.00211 2.36229 4.9835 2.49538 5.015 2.62115L5.5 4.56155V5.50005C5.5 5.95967 5.59053 6.4148 5.76642 6.83944C5.94231 7.26408 6.20012 7.64992 6.52513 7.97492C6.85013 8.29993 7.23597 8.55774 7.66061 8.73363C8.08525 8.90952 8.54037 9.00005 9 9.00005C9.45963 9.00005 9.91475 8.90952 10.3394 8.73363C10.764 8.55774 11.1499 8.29993 11.4749 7.97492C11.7999 7.64992 12.0577 7.26408 12.2336 6.83944C12.4095 6.4148 12.5 5.95967 12.5 5.50005V4.56155L12.985 2.62115C13.0165 2.49533 12.9978 2.36219 12.9329 2.24989C12.868 2.13758 12.762 2.05491 12.6373 2.01935ZM9 2.02005L11.8976 2.84795L11.6095 4.00005H9.5V3.00005H8.5V4.00005H6.3905L6.1024 2.84795L9 2.02005ZM9 8.00005C8.33719 7.99928 7.70176 7.73564 7.23308 7.26697C6.76441 6.79829 6.50077 6.16285 6.5 5.50005V5.00005H11.5V5.50005C11.4992 6.16285 11.2356 6.79829 10.7669 7.26697C10.2982 7.73564 9.66281 7.99928 9 8.00005Z" fill="currentColor" style="fill-opacity:1"/>
</svg>
