<svg viewBox="0 0 16 16" fill="none" xmlns="http://www.w3.org/2000/svg">
<path d="M9 14C7.2036 14 5.5167 13.2049 4.3717 11.8184L5.1427 11.1816C6.09705 12.3372 7.50305 13 9 13C11.7569 13 14 10.757 14 7.99995C14 5.24295 11.7569 2.99995 9 2.99995C7.50305 2.99995 6.09705 3.66275 5.1427 4.81835L4.3717 4.1815C5.5167 2.7951 7.2036 1.9999 9 1.9999C12.3084 1.9999 15 4.6915 15 7.9999C15 11.3083 12.3084 14 9 14Z" fill="currentColor" style="fill-opacity:1"/>
<path d="M11.5 8L8 4.5L7.29295 5.20705L9.58595 7.5H1V8.5H9.58595L7.29295 10.7929L8 11.5L11.5 8Z" fill="currentColor" style="fill-opacity:1"/>
</svg>
