<svg viewBox="0 0 16 16" fill="none" xmlns="http://www.w3.org/2000/svg">
<path d="M15 8L11.5 4.5L10.7929 5.20705L13.0859 7.5H4.5V8.5H13.0859L10.7929 10.7929L11.5 11.5L15 8Z" fill="currentColor" style="fill-opacity:1"/>
<path d="M7 14C3.69165 14 1 11.3084 1 8C1 4.6916 3.69165 2 7 2C8.1675 2 9.2993 2.3357 10.2731 2.9707L9.7269 3.80835C8.91585 3.27955 7.973 3 6.99995 3C4.243 3 1.99995 5.243 1.99995 8C1.99995 10.757 4.243 13 6.99995 13C7.97295 13 8.91585 12.7205 9.7269 12.1917L10.2731 13.0293C9.2993 13.6643 8.16745 14 7 14Z" fill="currentColor" style="fill-opacity:1"/>
</svg>
