<svg viewBox="0 0 16 16" fill="none" xmlns="http://www.w3.org/2000/svg">
<path id="icon" d="M10.5 3.5H9.5V1.80005C9.5 1.3501 9.1499 1 8.69995 1H2V2H8.5V3.5H7.5C5.85 3.5 4.5 4.8501 4.5 6.5V9.5C4.5 11.1499 5.85 12.5 7.5 12.5H8.5V14H2V15H8.69995C9.1499 15 9.5 14.6499 9.5 14.2V12.5H10.5C12.15 12.5 13.5 11.1499 13.5 9.5V6.5C13.5 4.8501 12.15 3.5 10.5 3.5ZM12.5 9.5C12.5 10.6001 11.6 11.5 10.5 11.5H7.5C6.4 11.5 5.5 10.6001 5.5 9.5V6.5C5.5 5.3999 6.4 4.5 7.5 4.5H10.5C11.6 4.5 12.5 5.3999 12.5 6.5V9.5Z" fill="currentColor" style="fill-opacity:1"/>
</svg>
