<svg viewBox="0 0 16 16" fill="none" xmlns="http://www.w3.org/2000/svg">
<path id="icon" d="M8.75266 8L12.8322 4.37355C12.9079 4.30617 12.9614 4.21737 12.9855 4.11892C13.0096 4.02047 13.0032 3.91702 12.9672 3.82227C12.9312 3.72753 12.8672 3.64598 12.7838 3.58842C12.7003 3.53087 12.6014 3.50003 12.5 3.5H11V1H10V4.5H11.185L8.00001 7.33105L4.81501 4.5H6.00001V1H5.00001V3.5H3.50001C3.39864 3.50001 3.29966 3.53083 3.21621 3.58838C3.13276 3.64593 3.06877 3.72748 3.03273 3.82223C2.99669 3.91697 2.9903 4.02044 3.0144 4.1189C3.03851 4.21736 3.09197 4.30617 3.16771 4.37355L7.24726 8L3.16766 11.6264C3.09192 11.6938 3.03845 11.7826 3.01435 11.8811C2.99025 11.9796 2.99664 12.083 3.03269 12.1778C3.06874 12.2725 3.13274 12.3541 3.21619 12.4116C3.29965 12.4692 3.39863 12.5 3.50001 12.5H5.00001V15H6.00001V11.5H4.81501L8.00001 8.66895L11.185 11.5H10V15H11V12.5H12.5C12.6014 12.5 12.7003 12.4691 12.7838 12.4116C12.8672 12.354 12.9312 12.2725 12.9672 12.1777C13.0033 12.083 13.0097 11.9795 12.9856 11.8811C12.9614 11.7826 12.908 11.6938 12.8323 11.6264L8.75266 8Z" fill="currentColor" style="fill-opacity:1"/>
</svg>
