<svg viewBox="0 0 16 16" fill="none" xmlns="http://www.w3.org/2000/svg">
<path id="icon-arrow" d="M8.5 7.5349V4.0581C9.34545 4.19775 10.042 4.60915 10.6109 5.31395L11.389 4.686C10.6293 3.74485 9.6581 3.1992 8.5 3.04805V1.49995H7.5V3.01095C5.6924 3.12055 4.5 4.1411 4.5 5.62105C4.5 7.758 6.06325 8.1806 7.5 8.40035V11.9812C6.1404 11.8923 5.4907 11.4311 4.88905 10.686L4.11095 11.314C4.9961 12.4107 5.97755 12.898 7.5 12.9824V14.5H8.5V12.9776C10.3628 12.8255 11.5 11.814 11.5 10.2576C11.5 8.1531 9.9286 7.74975 8.5 7.5349ZM5.5 5.6211C5.5 4.54445 6.51465 4.09425 7.5 4.0144V7.3877C6.2152 7.1758 5.5 6.8662 5.5 5.6211ZM8.5 11.9761V8.5474C9.78345 8.75515 10.5 9.0496 10.5 10.2576C10.5 11.5257 9.4049 11.8904 8.5 11.9761Z" fill="currentColor" style="fill-opacity:1"/>
</svg>
