<svg viewBox="0 0 16 16" fill="none" xmlns="http://www.w3.org/2000/svg">
<path d="M6 12.5C5.63085 12.5 5.3119 12.7024 5.13865 13H2.3236L3.64755 10.4538C3.7612 10.4814 3.878 10.5 3.99995 10.5C4.8271 10.5 5.49995 9.82715 5.49995 9C5.49995 8.17285 4.8271 7.5 3.99995 7.5C3.1728 7.5 2.49995 8.17285 2.49995 9C2.49995 9.33935 2.6174 9.64895 2.80805 9.90065L1.05635 13.2693C0.975802 13.4244 0.981902 13.6101 1.0726 13.7596C1.1632 13.9087 1.3253 14 1.49995 14H5.1386C5.3118 14.2976 5.6308 14.5 5.99995 14.5C6.5522 14.5 6.99995 14.0523 6.99995 13.5C6.99995 12.9478 6.55225 12.5 6 12.5ZM4 8.5C4.27575 8.5 4.5 8.72435 4.5 9C4.5 9.27565 4.27575 9.5 4 9.5C3.72425 9.5 3.5 9.27565 3.5 9C3.5 8.72435 3.72425 8.5 4 8.5Z" fill="currentColor" style="fill-opacity:1"/>
<path d="M14.9436 13.2693L12.9231 9.3838C12.9724 9.26565 13 9.136 13 9C13 8.44775 12.5523 8 12 8C11.4477 8 11 8.44775 11 9C11 9.55225 11.4477 10 12 10C12.0378 10 12.0739 9.9929 12.1106 9.98875L13.6764 13H11.4079C11.2008 12.4194 10.651 12 10 12C9.17285 12 8.5 12.6729 8.5 13.5C8.5 14.3271 9.17285 15 10 15C10.651 15 11.2008 14.5806 11.4079 14H14.5C14.6747 14 14.8368 13.9087 14.9274 13.7595C15.0181 13.6101 15.0241 13.4244 14.9436 13.2693ZM10 14C9.72425 14 9.5 13.7756 9.5 13.5C9.5 13.2244 9.72425 13 10 13C10.2758 13 10.5 13.2244 10.5 13.5C10.5 13.7756 10.2758 14 10 14Z" fill="currentColor" style="fill-opacity:1"/>
<path d="M10.5 4C10.378 4 10.2611 4.01855 10.1476 4.04615L8.4436 0.7693C8.35755 0.60375 8.1787 0.5 8 0.5C7.8213 0.5 7.64245 0.60375 7.5564 0.7693L5.6107 4.51125C5.57385 4.5071 5.5378 4.5 5.5 4.5C4.94775 4.5 4.5 4.94775 4.5 5.5C4.5 6.05225 4.94775 6.5 5.5 6.5C6.05225 6.5 6.5 6.05225 6.5 5.5C6.5 5.364 6.4724 5.2344 6.4231 5.1162L8 2.08375L9.3081 4.59935C9.11745 4.85105 9 5.16065 9 5.5C9 6.32715 9.67285 7 10.5 7C11.3271 7 12 6.32715 12 5.5C12 4.67285 11.3271 4 10.5 4ZM10.5 6C10.2242 6 10 5.77565 10 5.5C10 5.22435 10.2242 5 10.5 5C10.7758 5 11 5.22435 11 5.5C11 5.77565 10.7758 6 10.5 6Z" fill="currentColor" style="fill-opacity:1"/>
</svg>
