<svg viewBox="0 0 16 16" fill="none" xmlns="http://www.w3.org/2000/svg">
<path d="M8 11C7.40665 11 6.82663 10.824 6.33329 10.4944C5.83994 10.1648 5.45542 9.69623 5.22836 9.14805C5.0013 8.59987 4.94189 7.99667 5.05764 7.41473C5.1734 6.83278 5.45912 6.29823 5.87868 5.87868C6.29823 5.45912 6.83278 5.1734 7.41473 5.05764C7.99667 4.94189 8.59987 5.0013 9.14805 5.22836C9.69623 5.45542 10.1648 5.83994 10.4944 6.33329C10.824 6.82663 11 7.40665 11 8C10.9991 8.79537 10.6828 9.55792 10.1203 10.1203C9.55792 10.6828 8.79537 10.9991 8 11ZM8 6C7.60443 6 7.21775 6.1173 6.88886 6.33706C6.55996 6.55682 6.30361 6.86918 6.15224 7.23463C6.00086 7.60008 5.96126 8.00222 6.03843 8.39018C6.1156 8.77814 6.30608 9.1345 6.58578 9.41421C6.86549 9.69391 7.22185 9.8844 7.60982 9.96157C7.99778 10.0387 8.39991 9.99913 8.76536 9.84776C9.13082 9.69638 9.44317 9.44004 9.66294 9.11114C9.8827 8.78224 10 8.39556 10 8C9.9994 7.46975 9.7885 6.96139 9.41355 6.58644C9.03861 6.2115 8.53025 6.00059 8 6Z" fill="currentColor" style="fill-opacity:1"/>
<path d="M8 13C7.29666 12.9995 6.60132 12.8509 5.95925 12.5638C5.31718 12.2767 4.74277 11.8576 4.27345 11.3337L5.01845 10.6667C5.46327 11.164 6.02542 11.5422 6.65372 11.7667C7.28202 11.9912 7.9565 12.055 8.61576 11.9523C9.27501 11.8495 9.89809 11.5835 10.4283 11.1784C10.9584 10.7734 11.3789 10.2421 11.6513 9.63303C11.9237 9.02395 12.0394 8.35642 11.9879 7.69119C11.9363 7.02597 11.7193 6.3842 11.3563 5.82432C10.9934 5.26444 10.4962 4.80423 9.91003 4.4856C9.32381 4.16696 8.66721 4.00003 8 4V3C9.32608 3 10.5978 3.52678 11.5355 4.46446C12.4732 5.40214 13 6.67391 13 8C13 9.32608 12.4732 10.5978 11.5355 11.5355C10.5978 12.4732 9.32608 13 8 13Z" fill="currentColor" style="fill-opacity:1"/>
<path d="M8 15C6.61553 15 5.26215 14.5895 4.111 13.8203C2.95986 13.0511 2.06265 11.9579 1.53284 10.6788C1.00303 9.3997 0.864403 7.99223 1.1345 6.63436C1.4046 5.2765 2.07128 4.02922 3.05025 3.05025C4.02922 2.07128 5.2765 1.4046 6.63436 1.1345C7.99223 0.864403 9.3997 1.00303 10.6788 1.53284C11.9579 2.06265 13.0511 2.95986 13.8203 4.111C14.5895 5.26215 15 6.61553 15 8C14.9979 9.85587 14.2597 11.6351 12.9474 12.9474C11.6351 14.2597 9.85587 14.9979 8 15ZM8 2C6.81331 2 5.65327 2.35189 4.66658 3.01118C3.67988 3.67047 2.91085 4.60754 2.45672 5.7039C2.00259 6.80025 1.88377 8.00665 2.11529 9.17054C2.3468 10.3344 2.91824 11.4035 3.75736 12.2426C4.59647 13.0818 5.66557 13.6532 6.82946 13.8847C7.99334 14.1162 9.19974 13.9974 10.2961 13.5433C11.3925 13.0891 12.3295 12.3201 12.9888 11.3334C13.6481 10.3467 14 9.18668 14 8C13.9982 6.40925 13.3655 4.88418 12.2406 3.75936C11.1158 2.63453 9.59074 2.00181 8 2Z" fill="currentColor" style="fill-opacity:1"/>
</svg>
