<svg viewBox="0 0 16 16" fill="none" xmlns="http://www.w3.org/2000/svg">
<path d="M8 10.5L8.7 11.2L7.4 12.5H11.5V13.5H7.4L8.7 14.8L8 15.5L5.5 13L8 10.5Z" fill="currentColor" style="fill-opacity:1"/>
<path d="M7.62623 7.66652L3.63111 11.6616L4.33821 12.3687L8.33333 8.37362L7.62623 7.66652Z" fill="currentColor" style="fill-opacity:1"/>
<path d="M11.5 11H10.5V8.5C10.5 8.35 10.55 8.25 10.65 8.15L12.7 6.1C13.55 5.25 14 4.1 14 2.9V2H13.05C11.85 2 10.7 2.45 9.85 3.3L7.8 5.35C7.75 5.45 7.65 5.5 7.5 5.5H3.75L2.45 7.15L5.1 7.55L4.95 8.55L1.45 8.05C1.25 8 1.1 7.9 1.05 7.75C1 7.6 1 7.4 1.1 7.25L3.1 4.75C3.2 4.55 3.35 4.5 3.5 4.5H7.3L9.2 2.6C10.2 1.55 11.6 1 13.05 1H14C14.55 1 15 1.45 15 2V2.95C15 4.4 14.45 5.8 13.4 6.85L11.5 8.7V11Z" fill="currentColor" style="fill-opacity:1"/>
</svg>
