<svg viewBox="0 0 16 16" fill="none" xmlns="http://www.w3.org/2000/svg">
<path d="M15 7.5H8.5V0.999999H7.5V7.5H0.999999V8.5H7.5V15H8.5V8.5H15V7.5Z" fill="currentColor" style="fill-opacity:1"/>
<path d="M2.5 15C2.20333 15 1.91332 14.912 1.66664 14.7472C1.41997 14.5824 1.22771 14.3481 1.11418 14.074C1.00065 13.7999 0.970943 13.4983 1.02882 13.2074C1.0867 12.9164 1.22956 12.6491 1.43934 12.4393C1.64912 12.2296 1.91639 12.0867 2.20736 12.0288C2.49834 11.9709 2.79994 12.0006 3.07402 12.1142C3.34811 12.2277 3.58238 12.42 3.7472 12.6666C3.91203 12.9133 4 13.2033 4 13.5C3.99956 13.8977 3.84139 14.279 3.56018 14.5602C3.27897 14.8414 2.89769 14.9996 2.5 15ZM2.5 13C2.40111 13 2.30444 13.0293 2.22221 13.0843C2.13999 13.1392 2.0759 13.2173 2.03806 13.3087C2.00022 13.4 1.99031 13.5006 2.00961 13.5975C2.0289 13.6945 2.07652 13.7836 2.14645 13.8536C2.21637 13.9235 2.30546 13.9711 2.40245 13.9904C2.49944 14.0097 2.59998 13.9998 2.69134 13.9619C2.7827 13.9241 2.86079 13.86 2.91573 13.7778C2.97067 13.6956 3 13.5989 3 13.5C2.99987 13.3674 2.94715 13.2403 2.85341 13.1466C2.75967 13.0529 2.63257 13.0001 2.5 13Z" fill="currentColor" style="fill-opacity:1"/>
<path d="M4 4C3.70333 4 3.41332 3.91203 3.16664 3.7472C2.91997 3.58238 2.72771 3.34811 2.61418 3.07402C2.50065 2.79994 2.47094 2.49834 2.52882 2.20736C2.5867 1.91639 2.72956 1.64912 2.93934 1.43934C3.14912 1.22956 3.41639 1.0867 3.70736 1.02882C3.99834 0.970943 4.29994 1.00065 4.57402 1.11418C4.84811 1.22771 5.08238 1.41997 5.2472 1.66664C5.41203 1.91332 5.5 2.20333 5.5 2.5C5.49956 2.89769 5.34139 3.27897 5.06018 3.56018C4.77897 3.84139 4.39769 3.99956 4 4ZM4 2C3.90111 2 3.80444 2.02932 3.72221 2.08426C3.63999 2.13921 3.5759 2.21729 3.53806 2.30866C3.50022 2.40002 3.49031 2.50055 3.50961 2.59754C3.5289 2.69454 3.57652 2.78363 3.64645 2.85355C3.71637 2.92348 3.80546 2.9711 3.90245 2.99039C3.99944 3.00968 4.09998 2.99978 4.19134 2.96194C4.2827 2.9241 4.36079 2.86001 4.41573 2.77778C4.47068 2.69556 4.5 2.59889 4.5 2.5C4.49987 2.36743 4.44715 2.24033 4.35341 2.14659C4.25967 2.05285 4.13257 2.00013 4 2Z" fill="currentColor" style="fill-opacity:1"/>
<path d="M11 6.5C10.7033 6.5 10.4133 6.41203 10.1666 6.2472C9.91997 6.08238 9.72771 5.84811 9.61418 5.57402C9.50065 5.29994 9.47094 4.99834 9.52882 4.70736C9.5867 4.41639 9.72956 4.14912 9.93934 3.93934C10.1491 3.72956 10.4164 3.5867 10.7074 3.52882C10.9983 3.47094 11.2999 3.50065 11.574 3.61418C11.8481 3.72771 12.0824 3.91997 12.2472 4.16664C12.412 4.41332 12.5 4.70333 12.5 5C12.4996 5.39769 12.3414 5.77897 12.0602 6.06018C11.779 6.34139 11.3977 6.49956 11 6.5ZM11 4.5C10.9011 4.5 10.8044 4.52932 10.7222 4.58426C10.64 4.63921 10.5759 4.71729 10.5381 4.80866C10.5002 4.90002 10.4903 5.00055 10.5096 5.09755C10.5289 5.19454 10.5765 5.28363 10.6464 5.35355C10.7164 5.42348 10.8055 5.4711 10.9025 5.49039C10.9994 5.50969 11.1 5.49978 11.1913 5.46194C11.2827 5.4241 11.3608 5.36001 11.4157 5.27779C11.4707 5.19556 11.5 5.09889 11.5 5C11.4999 4.86743 11.4471 4.74033 11.3534 4.64659C11.2597 4.55285 11.1326 4.50013 11 4.5Z" fill="currentColor" style="fill-opacity:1"/>
<path d="M5.5 6.5C6.05228 6.5 6.5 6.05228 6.5 5.5C6.5 4.94771 6.05228 4.5 5.5 4.5C4.94771 4.5 4.5 4.94771 4.5 5.5C4.5 6.05228 4.94771 6.5 5.5 6.5Z" fill="currentColor" style="fill-opacity:1"/>
<path d="M5.5 11.5C6.05228 11.5 6.5 11.0523 6.5 10.5C6.5 9.94772 6.05228 9.5 5.5 9.5C4.94771 9.5 4.5 9.94772 4.5 10.5C4.5 11.0523 4.94771 11.5 5.5 11.5Z" fill="currentColor" style="fill-opacity:1"/>
<path d="M10.5 11.5C11.0523 11.5 11.5 11.0523 11.5 10.5C11.5 9.94772 11.0523 9.5 10.5 9.5C9.94772 9.5 9.5 9.94772 9.5 10.5C9.5 11.0523 9.94772 11.5 10.5 11.5Z" fill="currentColor" style="fill-opacity:1"/>
<path d="M11 15C11.5523 15 12 14.5523 12 14C12 13.4477 11.5523 13 11 13C10.4477 13 10 13.4477 10 14C10 14.5523 10.4477 15 11 15Z" fill="currentColor" style="fill-opacity:1"/>
<path d="M14 13C14.5523 13 15 12.5523 15 12C15 11.4477 14.5523 11 14 11C13.4477 11 13 11.4477 13 12C13 12.5523 13.4477 13 14 13Z" fill="currentColor" style="fill-opacity:1"/>
<path d="M2 6.5C2.55228 6.5 3 6.05228 3 5.5C3 4.94771 2.55228 4.5 2 4.5C1.44771 4.5 0.999999 4.94771 0.999999 5.5C0.999999 6.05228 1.44771 6.5 2 6.5Z" fill="currentColor" style="fill-opacity:1"/>
<path d="M14 3C14.5523 3 15 2.55228 15 2C15 1.44771 14.5523 0.999999 14 0.999999C13.4477 0.999999 13 1.44771 13 2C13 2.55228 13.4477 3 14 3Z" fill="currentColor" style="fill-opacity:1"/>
</svg>
