<svg viewBox="0 0 16 16" fill="none" xmlns="http://www.w3.org/2000/svg">
<path id="icon" d="M15 1.70729L14.2927 0.999988L8.6466 6.64624C8.59901 6.6924 8.56108 6.74757 8.53501 6.80853C8.50894 6.86949 8.49526 6.93503 8.49476 7.00133C8.49426 7.06763 8.50695 7.13337 8.53209 7.19471C8.55723 7.25606 8.59432 7.3118 8.6412 7.35868C8.68809 7.40556 8.74383 7.44265 8.80518 7.46779C8.86653 7.49292 8.93227 7.50561 8.99857 7.5051C9.06486 7.50459 9.1304 7.49091 9.19136 7.46484C9.25232 7.43876 9.30748 7.40083 9.35365 7.35324L11.0808 5.62619C11.3251 5.99126 11.4681 6.4146 11.4952 6.853C11.5224 7.29141 11.4328 7.72917 11.2355 8.12161C11.0382 8.51405 10.7402 8.8471 10.3722 9.08677C10.0041 9.32645 9.57896 9.46415 9.14025 9.48584C8.89619 8.98197 8.53561 8.54349 8.08835 8.20672C7.6411 7.86995 7.12004 7.64459 6.56835 7.54929C6.48039 7.18357 6.47708 6.80261 6.55864 6.43542C6.64021 6.06823 6.8045 5.7245 7.03902 5.43042C7.27353 5.13634 7.57208 4.89966 7.91191 4.73842C8.25173 4.57718 8.62388 4.49563 9 4.49999V3.49999C8.49388 3.49671 7.99314 3.60395 7.53276 3.81421C7.07237 4.02448 6.66343 4.33271 6.3345 4.71737C6.00556 5.10203 5.76455 5.55386 5.6283 6.04131C5.49205 6.52875 5.46384 7.04006 5.54565 7.53954C5.03683 7.60835 4.54967 7.78938 4.1194 8.06954C3.95665 7.33943 3.9603 6.58205 4.13008 5.85354C4.29986 5.12503 4.63141 4.44407 5.10016 3.86113C5.56891 3.27819 6.16284 2.80821 6.83793 2.48603C7.51303 2.16385 8.25197 1.99773 9 1.99999V0.999988C8.05583 0.998061 7.12459 1.21944 6.28229 1.64604C5.44 2.07265 4.71052 2.6924 4.15342 3.45469C3.59631 4.21698 3.22737 5.10021 3.07671 6.03229C2.92604 6.96436 2.99793 7.91885 3.2865 8.81784C2.96151 9.21285 2.72802 9.67493 2.6028 10.1709C2.05785 10.3799 1.60334 10.7733 1.31821 11.2826C1.03307 11.7919 0.935323 12.3849 1.04194 12.9588C1.14856 13.5326 1.4528 14.051 1.90183 14.4239C2.35087 14.7968 2.91632 15.0006 3.5 15H8.5C9.13372 14.9981 9.74302 14.7553 10.2043 14.3208C10.6656 13.8862 10.9443 13.2925 10.9839 12.66C12.1556 12.2464 13.1707 11.4804 13.8897 10.467C14.6088 9.45363 14.9966 8.24256 15 6.99999C15.0053 5.58068 14.5017 4.20648 13.5805 3.12669L15 1.70729ZM8.5 14H3.5C3.13278 14.0006 2.77813 13.8663 2.50348 13.6226C2.22882 13.3789 2.05332 13.0427 2.01034 12.678C1.96736 12.3133 2.0599 11.9455 2.27037 11.6446C2.48083 11.3437 2.79454 11.1306 3.15185 11.0459L3.4812 10.9673L3.5305 10.6323C3.61779 10.0397 3.91527 9.49825 4.36863 9.10678C4.82199 8.71531 5.40101 8.49992 6 8.49992C6.59899 8.49992 7.178 8.71531 7.63136 9.10678C8.08473 9.49825 8.3822 10.0397 8.4695 10.6323L8.5188 10.967L8.84815 11.0456C9.2057 11.1301 9.51969 11.3432 9.73037 11.6442C9.94106 11.9451 10.0337 12.3131 9.99072 12.678C9.94772 13.0428 9.77207 13.3792 9.49719 13.6229C9.22231 13.8667 8.8674 14.0009 8.5 14V14ZM14 6.99999C13.9973 8.00076 13.6953 8.97784 13.1329 9.80566C12.5705 10.6335 11.7735 11.2742 10.8441 11.6455C10.6555 11.1282 10.3 10.6884 9.83375 10.3955C10.3952 10.2583 10.9139 9.98406 11.3433 9.59732C11.7728 9.21057 12.0997 8.72338 12.2948 8.17935C12.4899 7.63531 12.5471 7.0514 12.4612 6.47985C12.3753 5.90831 12.1491 5.36698 11.8027 4.90429L12.8687 3.83839C13.6032 4.72799 14.0033 5.84641 14 6.99999V6.99999Z" fill="currentColor" style="fill-opacity:1"/>
</svg>
