<svg viewBox="0 0 16 16" fill="none" xmlns="http://www.w3.org/2000/svg">
<path id="icon" d="M15 1.70705L14.2929 1L7.6465 7.6465C7.55542 7.7408 7.50502 7.8671 7.50616 7.9982C7.5073 8.1293 7.55988 8.25471 7.65259 8.34741C7.74529 8.44011 7.8707 8.4927 8.0018 8.49384C8.13289 8.49498 8.2592 8.44458 8.3535 8.3535L10.4435 6.2639C10.8322 6.81206 11.0254 7.4749 10.9921 8.14604C10.9589 8.81718 10.7012 9.4577 10.2603 9.96479C9.81936 10.4719 9.22087 10.8161 8.56086 10.9423C7.90084 11.0685 7.21758 10.9692 6.62074 10.6605C6.02389 10.3518 5.54807 9.85148 5.26965 9.23991C4.99123 8.62834 4.92635 7.94097 5.08543 7.28811C5.24451 6.63525 5.61832 6.05476 6.14686 5.63982C6.67541 5.22488 7.32803 4.99956 8 5V4C7.09457 3.99876 6.21543 4.30432 5.50595 4.86685C4.79647 5.42938 4.29851 6.21569 4.09327 7.09755C3.88803 7.97941 3.98763 8.90479 4.37581 9.72278C4.764 10.5408 5.41787 11.2031 6.23081 11.6018C7.04374 12.0005 7.96776 12.112 8.85219 11.9181C9.73662 11.7242 10.5293 11.2364 11.1009 10.5342C11.6725 9.83205 11.9893 8.95691 11.9997 8.05155C12.0102 7.14618 11.7135 6.26399 11.1582 5.54885L12.5815 4.1255C13.5021 5.20605 14.0053 6.58051 14 8C14 9.18669 13.6481 10.3467 12.9888 11.3334C12.3295 12.3201 11.3925 13.0892 10.2961 13.5433C9.19974 13.9974 7.99334 14.1162 6.82946 13.8847C5.66557 13.6532 4.59647 13.0818 3.75736 12.2426C2.91824 11.4035 2.3468 10.3344 2.11529 9.17054C1.88377 8.00666 2.00259 6.80026 2.45672 5.7039C2.91085 4.60754 3.67988 3.67047 4.66658 3.01118C5.65327 2.35189 6.81331 2 8 2V1C6.61553 1 5.26215 1.41054 4.111 2.17971C2.95986 2.94888 2.06265 4.04213 1.53284 5.32122C1.00303 6.6003 0.864403 8.00777 1.1345 9.36563C1.4046 10.7235 2.07128 11.9708 3.05025 12.9497C4.02922 13.9287 5.2765 14.5954 6.63436 14.8655C7.99223 15.1356 9.3997 14.997 10.6788 14.4672C11.9579 13.9373 13.0511 13.0401 13.8203 11.889C14.5895 10.7378 15 9.38447 15 8C15.0055 6.3155 14.3972 4.68667 13.2888 3.4182L15 1.70705Z" fill="currentColor" style="fill-opacity:1"/>
</svg>
