<svg viewBox="0 0 16 16" fill="none" xmlns="http://www.w3.org/2000/svg">
<g id="Icons / Rain--scattered--night" clip-path="url(#clip0_0_222)">
<g id="icon">
<path d="M4.25419 16C4.17638 15.9999 4.09964 15.9819 4.02994 15.9473C3.97108 15.918 3.91857 15.8775 3.87542 15.8279C3.83227 15.7783 3.79933 15.7207 3.77849 15.6584C3.75765 15.596 3.74932 15.5302 3.75398 15.4647C3.75864 15.3991 3.7762 15.3351 3.80564 15.2764L4.55234 13.7764C4.61243 13.6587 4.71652 13.5696 4.84199 13.5282C4.96745 13.4869 5.10416 13.4968 5.22237 13.5558C5.34059 13.6147 5.43077 13.7179 5.4733 13.843C5.51583 13.968 5.50727 14.1048 5.44949 14.2236L4.70279 15.7236C4.66109 15.8068 4.59703 15.8768 4.51779 15.9256C4.43855 15.9744 4.34727 16.0002 4.25419 16Z" fill="currentColor" style="fill-opacity:1"/>
<path d="M14.9221 6.51736C14.866 6.39794 14.7797 6.29521 14.6718 6.2193C14.5638 6.14338 14.438 6.09691 14.3066 6.08446C13.6523 6.01734 13.0456 5.7119 12.6019 5.22631C12.2212 4.79824 11.961 4.27667 11.8481 3.715C11.7353 3.15333 11.7737 2.57175 11.9594 2.02981C12.0031 1.89895 12.0122 1.75905 11.9859 1.62364C11.9596 1.48824 11.8988 1.3619 11.8094 1.25686C11.7275 1.1601 11.6216 1.08648 11.5024 1.0433C11.3831 1.00013 11.2547 0.988909 11.1297 1.01076L11.1202 1.01221C10.3433 1.17994 9.63553 1.57944 9.09048 2.15794C8.54542 2.73643 8.18872 3.46669 8.06749 4.25221C7.64745 4.08827 7.20089 4.00279 6.74999 4.00001C5.95378 4.0043 5.17931 4.2602 4.53728 4.73112C3.89525 5.20205 3.41854 5.8639 3.17529 6.62206C2.47977 6.82019 1.87937 7.2632 1.4849 7.86934C1.09042 8.47548 0.928484 9.20384 1.02897 9.92002C1.12945 10.6362 1.48557 11.2919 2.03162 11.7661C2.57767 12.2402 3.2768 12.5009 3.99999 12.5H7.69089L7.05299 13.7764C7.02241 13.8352 7.00385 13.8995 6.99837 13.9656C6.99289 14.0317 7.00061 14.0982 7.02108 14.1613C7.04155 14.2244 7.07437 14.2827 7.11761 14.333C7.16086 14.3833 7.21367 14.4244 7.27298 14.4541C7.33229 14.4838 7.3969 14.5013 7.46306 14.5058C7.52923 14.5103 7.59561 14.5015 7.65836 14.4801C7.72111 14.4586 7.77897 14.4249 7.82856 14.3809C7.87816 14.3369 7.9185 14.2834 7.94724 14.2237L8.80884 12.5H9.49999C9.9434 12.5034 10.382 12.4077 10.7837 12.2199C11.1853 12.0321 11.54 11.757 11.8218 11.4146C12.1035 11.0722 12.3053 10.6712 12.4122 10.2408C12.5192 9.8105 12.5287 9.36172 12.44 8.92726C12.9359 8.83036 13.4071 8.63425 13.8252 8.35071C14.2434 8.06717 14.6 7.70204 14.8736 7.27726C14.9469 7.1657 14.99 7.03697 14.9985 6.90373C15.007 6.77049 14.9807 6.63733 14.9221 6.51736ZM9.49999 11.5H3.99999C3.49918 11.5009 3.01633 11.3135 2.64723 10.975C2.27813 10.6365 2.04974 10.1716 2.00736 9.67262C1.96499 9.1736 2.11173 8.67688 2.41847 8.281C2.72522 7.88511 3.16955 7.61899 3.66334 7.53541L3.99484 7.47901L4.06764 7.15091C4.20346 6.54077 4.54322 5.99516 5.03088 5.60412C5.51853 5.21309 6.12492 4.99998 6.74999 4.99998C7.37507 4.99998 7.98146 5.21309 8.46911 5.60412C8.95676 5.99516 9.29653 6.54077 9.43234 7.15091L9.50514 7.47901L9.83644 7.53541C10.3303 7.61885 10.7748 7.88491 11.0817 8.2808C11.3885 8.67669 11.5353 9.17347 11.493 9.67256C11.4506 10.1717 11.2222 10.6366 10.853 10.9751C10.4838 11.3136 10.0009 11.501 9.49999 11.5ZM12.0754 7.97606C11.6872 7.31684 11.0604 6.83209 10.3247 6.62206C10.0885 5.88615 9.63083 5.2411 9.01429 4.77501C9.03791 4.19604 9.22841 3.63626 9.56285 3.16307C9.89729 2.68989 10.3614 2.32349 10.8993 2.10801C10.7423 2.77243 10.7485 3.46497 10.9174 4.12647C11.0863 4.78796 11.4128 5.39874 11.869 5.90661C12.3882 6.47111 13.07 6.86036 13.82 7.02051C13.38 7.54788 12.7568 7.88925 12.0754 7.97606Z" fill="currentColor" style="fill-opacity:1"/>
</g>
</g>
<defs>
<clipPath id="clip0_0_222">
<rect width="16" height="16" fill="currentColor" style="fill-opacity:1"/>
</clipPath>
</defs>
</svg>
