<svg viewBox="0 0 16 16" fill="none" xmlns="http://www.w3.org/2000/svg">
<path d="M8 12V11C8.3866 10.9665 8.74899 10.7977 9.02338 10.5233C9.29776 10.2489 9.46654 9.88655 9.5 9.49995H10.5C10.4677 10.1526 10.1939 10.7698 9.73191 11.2319C9.26989 11.6939 8.6526 11.9677 8 12Z" fill="currentColor" style="fill-opacity:1"/>
<path d="M8 14C6.80699 13.9984 5.66327 13.5239 4.81969 12.6803C3.9761 11.8367 3.50151 10.693 3.5 9.49995C3.5269 8.62274 3.78457 7.76813 4.24705 7.02225L7.5764 1.7183C7.62448 1.65077 7.68802 1.59571 7.76171 1.55772C7.83539 1.51972 7.9171 1.4999 8 1.4999C8.0829 1.4999 8.16461 1.51972 8.23829 1.55772C8.31198 1.59571 8.37552 1.65077 8.4236 1.7183L11.7381 6.9965C12.2084 7.74918 12.4713 8.61287 12.5 9.49995C12.4985 10.693 12.0239 11.8367 11.1803 12.6803C10.3367 13.5239 9.19301 13.9984 8 14ZM8 2.9241L5.10915 7.52805C4.73661 8.12052 4.52653 8.80059 4.5 9.49995C4.5 10.4282 4.86875 11.3184 5.52513 11.9748C6.1815 12.6312 7.07174 13 8 13C8.92826 13 9.8185 12.6312 10.4749 11.9748C11.1313 11.3184 11.5 10.4282 11.5 9.49995C11.4715 8.79074 11.2563 8.10163 10.876 7.5023L8 2.9241Z" fill="currentColor" style="fill-opacity:1"/>
</svg>
