<svg viewBox="0 0 16 16" fill="none" xmlns="http://www.w3.org/2000/svg">
<path d="M8.5 14.9999C8.41476 15 8.33093 14.9782 8.25648 14.9367C8.18203 14.8951 8.11943 14.8353 8.07462 14.7628C8.02981 14.6903 8.00428 14.6075 8.00046 14.5224C7.99665 14.4372 8.01466 14.3525 8.0528 14.2762L9.0528 12.276C9.11212 12.1574 9.21613 12.0672 9.34194 12.0253C9.46775 11.9834 9.60507 11.9932 9.72367 12.0525C9.84228 12.1118 9.93246 12.2158 9.97438 12.3416C10.0163 12.4674 10.0065 12.6047 9.9472 12.7233L8.9472 14.7233C8.90579 14.8065 8.84199 14.8765 8.76298 14.9253C8.68397 14.9742 8.59289 15 8.5 14.9999Z" fill="currentColor" style="fill-opacity:1"/>
<path d="M4 14.9999C3.91476 15 3.83093 14.9782 3.75648 14.9367C3.68203 14.8951 3.61943 14.8353 3.57462 14.7628C3.52981 14.6903 3.50428 14.6075 3.50046 14.5224C3.49665 14.4372 3.51466 14.3525 3.5528 14.2762L4.5528 12.276C4.58217 12.2173 4.62282 12.1649 4.67243 12.1219C4.72204 12.0789 4.77964 12.046 4.84194 12.0253C4.90424 12.0045 4.97001 11.9963 5.03551 12.0009C5.10101 12.0056 5.16494 12.0231 5.22367 12.0525C5.2824 12.0818 5.33476 12.1225 5.37778 12.1721C5.4208 12.2217 5.45362 12.2793 5.47438 12.3416C5.49513 12.4039 5.50341 12.4697 5.49875 12.5352C5.49409 12.6007 5.47657 12.6646 5.44719 12.7233L4.4472 14.7233C4.40579 14.8065 4.34199 14.8765 4.26298 14.9253C4.18397 14.9742 4.09289 15 4 14.9999Z" fill="currentColor" style="fill-opacity:1"/>
<path d="M15 7.74995C14.9964 7.00212 14.7364 6.27815 14.2632 5.69902C13.7901 5.11988 13.1325 4.72066 12.4004 4.56805C12.1873 3.5589 11.6339 2.65366 10.8328 2.00404C10.0317 1.35442 9.03164 0.999897 8.00025 0.999897C6.96886 0.999897 5.96881 1.35442 5.16771 2.00404C4.36661 2.65366 3.81315 3.5589 3.6001 4.56805C2.93273 4.70342 2.32486 5.04529 1.86255 5.54525C1.40024 6.04521 1.1069 6.67794 1.02409 7.35383C0.941267 8.02973 1.07316 8.71455 1.40109 9.31135C1.72901 9.90814 2.23636 10.3867 2.8513 10.6791L2.053 12.2763C2.02242 12.3351 2.00385 12.3995 1.99837 12.4656C1.99289 12.5316 2.00061 12.5982 2.02108 12.6612C2.04155 12.7243 2.07437 12.7827 2.11761 12.8329C2.16086 12.8832 2.21367 12.9244 2.27298 12.954C2.33229 12.9837 2.3969 13.0013 2.46307 13.0057C2.52923 13.0102 2.59562 13.0014 2.65836 12.98C2.72111 12.9586 2.77897 12.9248 2.82856 12.8808C2.87816 12.8368 2.9185 12.7834 2.94725 12.7236L3.8087 10.9999H7.1909L6.553 12.2763C6.52242 12.3351 6.50385 12.3995 6.49837 12.4656C6.49289 12.5316 6.50061 12.5982 6.52108 12.6612C6.54155 12.7243 6.57437 12.7827 6.61761 12.8329C6.66086 12.8832 6.71367 12.9244 6.77298 12.954C6.83229 12.9837 6.8969 13.0013 6.96307 13.0057C7.02923 13.0102 7.09562 13.0014 7.15836 12.98C7.22111 12.9586 7.27897 12.9248 7.32856 12.8808C7.37816 12.8368 7.4185 12.7834 7.44725 12.7236L8.30885 10.9999H11.6909L11.053 12.2763C11.0224 12.3351 11.0038 12.3995 10.9984 12.4656C10.9929 12.5316 11.0006 12.5982 11.0211 12.6612C11.0416 12.7243 11.0744 12.7827 11.1176 12.8329C11.1609 12.8832 11.2137 12.9244 11.273 12.954C11.3323 12.9837 11.3969 13.0013 11.4631 13.0057C11.5292 13.0102 11.5956 13.0014 11.6584 12.98C11.7211 12.9586 11.779 12.9248 11.8286 12.8808C11.8782 12.8368 11.9185 12.7834 11.9472 12.7236L12.9194 10.7786C13.5311 10.5423 14.057 10.1266 14.4283 9.58617C14.7996 9.04571 14.9989 8.40565 15 7.74995ZM11.75 9.99995H4.25C3.66889 10.0001 3.11027 9.77535 2.69125 9.37273C2.27222 8.97012 2.02532 8.42092 2.0023 7.84027C1.97929 7.25962 2.18194 6.6926 2.56778 6.25808C2.95363 5.82355 3.4927 5.55526 4.072 5.50945L4.47975 5.4775L4.5293 5.0715C4.63312 4.22404 5.0434 3.44384 5.68277 2.87801C6.32215 2.31218 7.14645 1.99982 8.00025 1.99982C8.85404 1.99982 9.67834 2.31218 10.3177 2.87801C10.9571 3.44384 11.3674 4.22404 11.4712 5.0715L11.5205 5.4775L11.9282 5.50945C12.5075 5.55526 13.0466 5.82357 13.4324 6.25811C13.8183 6.69266 14.0209 7.2597 13.9979 7.84037C13.9748 8.42103 13.7279 8.97024 13.3088 9.37284C12.8898 9.77544 12.3311 10.0002 11.75 9.99995Z" fill="currentColor" style="fill-opacity:1"/>
</svg>
