<svg viewBox="0 0 16 16" fill="none" xmlns="http://www.w3.org/2000/svg">
<path d="M11.75 11H4.25001C3.44821 10.9949 2.67659 10.6936 2.0835 10.154C1.49041 9.61444 1.11772 8.87466 1.03708 8.07691C0.956432 7.27916 1.17353 6.47976 1.64664 5.8324C2.11974 5.18504 2.81545 4.73541 3.60001 4.56997C3.81586 3.56323 4.37043 2.66096 5.17117 2.0137C5.97191 1.36645 6.97039 1.01337 8.00001 1.01337C9.02963 1.01337 10.0281 1.36645 10.8289 2.0137C11.6296 2.66096 12.1842 3.56323 12.4 4.56997C13.1846 4.73541 13.8803 5.18504 14.3534 5.8324C14.8265 6.47976 15.0436 7.27916 14.9629 8.07691C14.8823 8.87466 14.5096 9.61444 13.9165 10.154C13.3234 10.6936 12.5518 10.9949 11.75 11ZM8.00001 1.99997C7.14682 2.00082 6.32332 2.31328 5.68432 2.87862C5.04532 3.44397 4.63483 4.22325 4.53001 5.06997L4.50001 5.49997H4.07001C3.47327 5.52384 2.91046 5.78378 2.50538 6.22262C2.1003 6.66146 1.88614 7.24323 1.91001 7.83997C1.93388 8.43671 2.19382 8.99952 2.63266 9.4046C3.07149 9.80968 3.65327 10.0238 4.25001 9.99997H11.75C12.3467 10.0238 12.9285 9.80968 13.3674 9.4046C13.8062 8.99952 14.0661 8.43671 14.09 7.83997C14.1139 7.24323 13.8997 6.66146 13.4946 6.22262C13.0896 5.78378 12.5267 5.52384 11.93 5.49997H11.5L11.45 5.08997C11.3501 4.24303 10.9445 3.46169 10.3092 2.89272C9.67394 2.32374 8.8528 2.00628 8.00001 1.99997Z" fill="currentColor" style="fill-opacity:1"/>
<path d="M7.00001 15C6.92157 15.0009 6.84417 14.982 6.77501 14.945C6.65725 14.885 6.568 14.7809 6.52678 14.6554C6.48555 14.5298 6.4957 14.3931 6.55501 14.275L7.55501 12.275C7.58144 12.2115 7.62068 12.1542 7.67027 12.1065C7.71987 12.0589 7.77875 12.022 7.84324 11.9982C7.90773 11.9744 7.97645 11.9641 8.0451 11.968C8.11374 11.9719 8.18084 11.99 8.2422 12.021C8.30356 12.052 8.35786 12.0953 8.40171 12.1483C8.44556 12.2013 8.47801 12.2627 8.49705 12.3288C8.51608 12.3948 8.52128 12.4641 8.51233 12.5323C8.50338 12.6005 8.48046 12.6661 8.44501 12.725L7.44501 14.725C7.40346 14.8074 7.33989 14.8768 7.26134 14.9253C7.1828 14.9738 7.09234 14.9997 7.00001 15Z" fill="currentColor" style="fill-opacity:1"/>
<path d="M10 15C9.92157 15.0009 9.84417 14.982 9.77501 14.945C9.65725 14.885 9.568 14.7809 9.52678 14.6554C9.48555 14.5298 9.4957 14.3931 9.55501 14.275L10.555 12.275C10.5814 12.2115 10.6207 12.1542 10.6703 12.1065C10.7199 12.0589 10.7787 12.022 10.8432 11.9982C10.9077 11.9744 10.9765 11.9641 11.0451 11.968C11.1137 11.9719 11.1808 11.99 11.2422 12.021C11.3036 12.052 11.3579 12.0953 11.4017 12.1483C11.4456 12.2013 11.478 12.2627 11.497 12.3288C11.5161 12.3948 11.5213 12.4641 11.5123 12.5323C11.5034 12.6005 11.4805 12.6661 11.445 12.725L10.445 14.725C10.4035 14.8074 10.3399 14.8768 10.2613 14.9253C10.1828 14.9738 10.0923 14.9997 10 15Z" fill="currentColor" style="fill-opacity:1"/>
<path d="M4.00001 15C3.92157 15.0009 3.84417 14.982 3.77501 14.945C3.65725 14.885 3.568 14.7809 3.52678 14.6554C3.48555 14.5298 3.4957 14.3931 3.55501 14.275L4.55501 12.275C4.58144 12.2115 4.62068 12.1542 4.67027 12.1065C4.71987 12.0589 4.77875 12.022 4.84324 11.9982C4.90774 11.9744 4.97645 11.9641 5.0451 11.968C5.11374 11.9719 5.18084 11.99 5.2422 12.021C5.30356 12.052 5.35786 12.0953 5.40171 12.1483C5.44556 12.2013 5.47801 12.2627 5.49705 12.3288C5.51608 12.3948 5.52128 12.4641 5.51233 12.5323C5.50338 12.6005 5.48046 12.6661 5.44501 12.725L4.44501 14.725C4.40346 14.8074 4.33989 14.8768 4.26134 14.9253C4.1828 14.9738 4.09234 14.9997 4.00001 15Z" fill="currentColor" style="fill-opacity:1"/>
</svg>
