<svg viewBox="0 0 16 16" fill="none" xmlns="http://www.w3.org/2000/svg">
<path d="M5.50001 14.9999C5.41477 15 5.33095 14.9782 5.2565 14.9367C5.18205 14.8951 5.11944 14.8353 5.07464 14.7628C5.02983 14.6903 5.0043 14.6075 5.00048 14.5224C4.99666 14.4372 5.01468 14.3525 5.05281 14.2762L6.05281 12.2762C6.08187 12.217 6.12237 12.1641 6.17197 12.1206C6.22157 12.077 6.2793 12.0438 6.34182 12.0227C6.40435 12.0016 6.47043 11.993 6.53626 11.9976C6.60209 12.0022 6.66637 12.0197 6.72539 12.0492C6.78441 12.0787 6.837 12.1196 6.88013 12.1696C6.92327 12.2195 6.95609 12.2775 6.9767 12.3402C6.99732 12.4029 7.00532 12.469 7.00025 12.5348C6.99518 12.6006 6.97714 12.6648 6.94716 12.7235L5.94716 14.7235C5.90574 14.8067 5.84194 14.8766 5.76294 14.9254C5.68394 14.9742 5.59289 15.0001 5.50001 14.9999Z" fill="currentColor" style="fill-opacity:1"/>
<path d="M12.4004 4.56805C12.1874 3.5589 11.6339 2.65366 10.8328 2.00404C10.0317 1.35442 9.03165 0.999897 8.00026 0.999897C6.96887 0.999897 5.96883 1.35442 5.16773 2.00404C4.36663 2.65366 3.81317 3.5589 3.60011 4.56805C2.81104 4.72882 2.10981 5.17692 1.63242 5.82545C1.15504 6.47397 0.935537 7.27669 1.01649 8.07789C1.09745 8.87909 1.47309 9.62167 2.07056 10.1616C2.66803 10.7015 3.44473 11.0003 4.25001 10.9999H9.69066L9.05251 12.2763C9.02314 12.335 9.00563 12.399 9.00097 12.4645C8.99631 12.53 9.0046 12.5958 9.02537 12.6581C9.04613 12.7204 9.07896 12.778 9.12198 12.8276C9.16501 12.8772 9.21738 12.9178 9.27611 12.9472C9.33485 12.9766 9.39879 12.9941 9.46429 12.9987C9.5298 13.0034 9.59557 12.9951 9.65787 12.9743C9.78369 12.9324 9.8877 12.8422 9.94701 12.7236L10.8089 10.9999H11.75C12.5553 11.0003 13.3319 10.7015 13.9294 10.1617C14.5269 9.62179 14.9025 8.87926 14.9836 8.07809C15.0646 7.27693 14.8452 6.47422 14.3679 5.82567C13.8906 5.17711 13.1894 4.72893 12.4004 4.56805ZM11.75 9.99995H4.25001C3.66891 10.0001 3.11029 9.77535 2.69126 9.37273C2.27224 8.97012 2.02534 8.42092 2.00232 7.84027C1.97931 7.25962 2.18196 6.6926 2.5678 6.25808C2.95364 5.82355 3.49272 5.55526 4.07201 5.50945L4.47976 5.4775L4.52931 5.0715C4.63314 4.22404 5.04342 3.44384 5.68279 2.87801C6.32217 2.31218 7.14647 1.99982 8.00026 1.99982C8.85406 1.99982 9.67836 2.31218 10.3177 2.87801C10.9571 3.44384 11.3674 4.22404 11.4712 5.0715L11.5205 5.4775L11.9282 5.50945C12.5075 5.55526 13.0466 5.82357 13.4325 6.25811C13.8183 6.69266 14.0209 7.2597 13.9979 7.84037C13.9749 8.42103 13.7279 8.97024 13.3089 9.37284C12.8898 9.77544 12.3311 10.0002 11.75 9.99995Z" fill="currentColor" style="fill-opacity:1"/>
</svg>
