<svg viewBox="0 0 16 16" fill="none" xmlns="http://www.w3.org/2000/svg">
<path d="M14.7541 11.1274L13.715 9.25735L12.8408 9.7427L13.8798 11.6133C14.0422 11.9053 14.0379 12.2517 13.8684 12.54C13.6988 12.8281 13.398 13 13.0638 13H9.4151L10.7052 11.7051L10 11L7.50005 13.5L10 16L10.7052 15.2949L9.4151 14H13.0638C13.7562 14 14.3791 13.6438 14.7302 13.0471C15.0814 12.4502 15.0902 11.7329 14.7541 11.1274Z" fill="currentColor" style="fill-opacity:1"/>
<path d="M2.9363 13C2.60205 13 2.3013 12.8281 2.13175 12.54C1.9622 12.2517 1.9579 11.9053 2.1203 11.6133L4.17585 7.9131L4.6998 9.6731L5.65585 9.3899L4.6517 6L1.2618 7.00415L1.545 7.9602L3.2917 7.4453L1.24605 11.1274C0.90985 11.7329 0.9188 12.4502 1.27 13.0471C1.62105 13.6438 2.244 14 2.9364 14H6.0001V13L2.9363 13Z" fill="currentColor" style="fill-opacity:1"/>
<path d="M12.755 4.8269L12.2312 6.5864L9.67515 1.9856C9.33225 1.3684 8.70605 1 8 1C7.29395 1 6.6677 1.3684 6.32485 1.9856L4.78505 4.75735L5.6593 5.2427L7.1991 2.4712C7.3629 2.1763 7.66235 2 8 2C8.33765 2 8.6371 2.17625 8.8009 2.4712L11.3472 7.0547L9.6002 6.5398L9.317 7.49585L12.707 8.5L13.7111 5.1101L12.755 4.8269Z" fill="currentColor" style="fill-opacity:1"/>
</svg>
