<svg viewBox="0 0 16 16" fill="none" xmlns="http://www.w3.org/2000/svg">
<path d="M15 11.5V10.5H14V9.5H13V10.5H11.5V9.5H10.5V10.5H9.5V11.5H10.5V13H9.5V14H10.5V15H11.5V14H13V15H14V14H15V13H14V11.5H15ZM13 13H11.5V11.5H13V13Z" fill="currentColor" style="fill-opacity:1"/>
<path d="M2.41525 10.1777C3.99848 10.9682 5.73175 11.4129 7.5 11.4822V10.4822C5.58032 10.4013 3.71187 9.83857 2.06675 8.84595C2.02452 8.5659 2.00222 8.2832 2 8C2.00222 7.71711 2.02448 7.43474 2.0666 7.155C3.85638 6.07239 5.90826 5.50009 8 5.50009C10.0917 5.50009 12.1436 6.07239 13.9334 7.155C13.9755 7.43474 13.9978 7.71711 14 8H15C15 6.61553 14.5895 5.26215 13.8203 4.111C13.0511 2.95986 11.9579 2.06265 10.6788 1.53284C9.3997 1.00303 7.99223 0.864403 6.63436 1.1345C5.2765 1.4046 4.02922 2.07128 3.05025 3.05025C2.07128 4.02922 1.4046 5.2765 1.1345 6.63436C0.864403 7.99223 1.00303 9.3997 1.53284 10.6788C2.06265 11.9579 2.95986 13.0511 4.111 13.8203C5.26215 14.5895 6.61553 15 8 15V14C6.79277 13.9981 5.61415 13.6324 4.6179 12.9505C3.62166 12.2687 2.85406 11.3024 2.41525 10.1777ZM8 2C9.20738 2.00194 10.3861 2.36779 11.3824 3.04982C12.3788 3.73185 13.1463 4.69837 13.585 5.82325C11.8518 4.95317 9.93921 4.50007 7.99985 4.50007C6.06048 4.50007 4.14793 4.95317 2.4147 5.82325C2.85338 4.69832 3.621 3.73177 4.61737 3.04973C5.61373 2.3677 6.79256 2.00188 8 2Z" fill="currentColor" style="fill-opacity:1"/>
</svg>
