<svg viewBox="0 0 16 16" fill="none" xmlns="http://www.w3.org/2000/svg">
<path d="M15 11.5V10.5H14V9.5H13V10.5H11.5V9.5H10.5V10.5H9.5V11.5H10.5V13H9.5V14H10.5V15H11.5V14H13V15H14V14H15V13H14V11.5H15ZM13 13H11.5V11.5H13V13Z" fill="currentColor" style="fill-opacity:1"/>
<path d="M8 15C6.61553 15 5.26215 14.5895 4.111 13.8203C2.95986 13.0511 2.06265 11.9579 1.53284 10.6788C1.00303 9.3997 0.864403 7.99223 1.1345 6.63436C1.4046 5.2765 2.07128 4.02922 3.05025 3.05025C4.02922 2.07128 5.2765 1.4046 6.63436 1.1345C7.99223 0.864403 9.3997 1.00303 10.6788 1.53284C11.9579 2.06265 13.0511 2.95986 13.8203 4.111C14.5895 5.26215 15 6.61553 15 8H14C14 6.81331 13.6481 5.65327 12.9888 4.66658C12.3295 3.67988 11.3925 2.91085 10.2961 2.45672C9.19974 2.00259 7.99334 1.88377 6.82946 2.11529C5.66557 2.3468 4.59647 2.91824 3.75736 3.75736C2.91824 4.59647 2.3468 5.66557 2.11529 6.82946C1.88377 7.99334 2.00259 9.19974 2.45672 10.2961C2.91085 11.3925 3.67988 12.3295 4.66658 12.9888C5.65327 13.6481 6.81331 14 8 14V15Z" fill="currentColor" style="fill-opacity:1"/>
</svg>
