<svg viewBox="0 0 16 16" fill="none" xmlns="http://www.w3.org/2000/svg">
<path d="M9.5 14.5C9.4267 14.5 9.35431 14.4839 9.28794 14.4528C9.22158 14.4217 9.16287 14.3763 9.116 14.32L4.116 8.31998C4.04116 8.23014 4.00018 8.11691 4.00018 7.99998C4.00018 7.88305 4.04116 7.76982 4.116 7.67998L9.116 1.67998C9.18178 1.60109 9.27027 1.54438 9.36943 1.51755C9.46858 1.49073 9.5736 1.4951 9.67018 1.53006C9.76677 1.56502 9.85025 1.62889 9.90926 1.71297C9.96827 1.79705 9.99995 1.89726 10 1.99998V5.51623C13.5037 5.74768 15.5 8.44623 15.5 13.0001C15.5 13.105 15.467 13.2073 15.4056 13.2924C15.3443 13.3776 15.2577 13.4412 15.1581 13.4744C15.0586 13.5076 14.9511 13.5086 14.8509 13.4773C14.7507 13.446 14.663 13.384 14.6 13.3001C13.1891 11.4189 11.9044 10.6269 10 10.5143V14C10 14.1326 9.94732 14.2598 9.85355 14.3535C9.75978 14.4473 9.6326 14.5 9.5 14.5ZM5.1508 7.99998L9 12.619V9.99998C9 9.86737 9.05267 9.74019 9.14644 9.64643C9.24021 9.55266 9.36739 9.49998 9.5 9.49998C10.4194 9.46449 11.3355 9.629 12.185 9.98215C13.0346 10.3353 13.7974 10.8687 14.4207 11.5454C14.0432 8.27763 12.3293 6.49998 9.5 6.49998C9.36739 6.49998 9.24021 6.4473 9.14644 6.35353C9.05267 6.25977 9 6.13259 9 5.99998V3.38088L5.1508 7.99998Z" fill="currentColor" style="fill-opacity:1"/>
<path d="M5.73195 14.4591L0.615896 8.31998C0.541063 8.23014 0.500083 8.11691 0.500083 7.99998C0.500083 7.88305 0.541063 7.76982 0.615896 7.67998L5.7319 1.53958L6.5 2.17998L1.6508 7.99998L6.5 13.819L5.73195 14.4591Z" fill="currentColor" style="fill-opacity:1"/>
</svg>
