<svg viewBox="0 0 16 16" fill="none" xmlns="http://www.w3.org/2000/svg">
<path d="M8.5894 8.74794C8.5894 7.32959 9.35445 6.40974 10.6697 6.40974C12.071 6.40974 12.7157 7.44129 12.7157 8.67059V9.03164H9.73275V9.14339C9.73275 9.78809 10.1024 10.2265 10.8245 10.2265C11.3661 10.2265 11.6927 9.96864 11.9678 9.61619L12.561 10.2781C12.1914 10.7853 11.538 11.1034 10.7041 11.1034C9.38035 11.1034 8.5894 10.1835 8.5894 8.74794ZM9.73275 8.28374V8.35259H11.5723V8.27519C11.5723 7.65624 11.2542 7.23504 10.6869 7.23504C10.1109 7.23504 9.73275 7.66484 9.73275 8.28374Z" fill="currentColor" style="fill-opacity:1"/>
<path d="M4.6347 11H3.50005V5H6.20775C7.2995 5 7.97855 5.72205 7.97855 6.85675C7.97855 7.68195 7.6003 8.30945 6.8611 8.5587L8.0903 11H6.82675L5.7093 8.68765H4.6347V11ZM6.19545 7.7335C6.6339 7.7335 6.9003 7.49285 6.9003 7.05445V6.659C6.9003 6.22055 6.6339 5.9885 6.19545 5.9885H4.7341V7.73345L6.19545 7.7335Z" fill="currentColor" style="fill-opacity:1"/>
<path d="M10.5 15H5.5C3.0187 15 1 12.9813 1 10.5V5.5C1 3.0187 3.0187 1 5.5 1H10.5C12.9813 1 15 3.0187 15 5.5V10.5C15 12.9813 12.9813 15 10.5 15ZM5.5 2C3.57005 2 2 3.57005 2 5.5V10.5C2 12.4299 3.57005 14 5.5 14H10.5C12.4299 14 14 12.4299 14 10.5V5.5C14 3.57005 12.4299 2 10.5 2H5.5Z" fill="currentColor" style="fill-opacity:1"/>
</svg>
