<svg viewBox="0 0 16 16" fill="none" xmlns="http://www.w3.org/2000/svg">
<path id="icon" d="M9 14C10.1867 14 11.3467 13.6481 12.3334 12.9888C13.3201 12.3295 14.0892 11.3925 14.5433 10.2961C14.9974 9.19974 15.1162 7.99334 14.8847 6.82946C14.6532 5.66557 14.0818 4.59647 13.2426 3.75736C12.4035 2.91824 11.3344 2.3468 10.1705 2.11529C9.00666 1.88377 7.80026 2.00259 6.7039 2.45672C5.60754 2.91085 4.67047 3.67988 4.01118 4.66658C3.35189 5.65327 3 6.81331 3 8V11.1L1.2 9.3L0.5 10L3.5 13L6.5 10L5.8 9.3L4 11.1V8C4 7.01109 4.29324 6.04439 4.84265 5.22215C5.39206 4.3999 6.17295 3.75904 7.08658 3.3806C8.00021 3.00216 9.00555 2.90314 9.97545 3.09607C10.9454 3.289 11.8363 3.7652 12.5355 4.46446C13.2348 5.16373 13.711 6.05464 13.9039 7.02455C14.0969 7.99445 13.9978 8.99978 13.6194 9.91341C13.241 10.827 12.6001 11.6079 11.7779 12.1573C10.9556 12.7068 9.98891 13 9 13V14Z" fill="currentColor" style="fill-opacity:1"/>
</svg>
