<svg viewBox="0 0 16 16" fill="none" xmlns="http://www.w3.org/2000/svg">
<path d="M5.5 1.00002H4.5V6.00002H5.5V1.00002Z" fill="currentColor" style="fill-opacity:1"/>
<path d="M7 5.50002C7 6.03045 6.78929 6.53916 6.41421 6.91423C6.03914 7.28931 5.53043 7.50002 5 7.50002C4.46957 7.50002 3.96086 7.28931 3.58579 6.91423C3.21071 6.53916 3 6.03045 3 5.50002V1.00002H2V5.50002C2.00072 6.20846 2.25212 6.89378 2.70969 7.43463C3.16726 7.97548 3.80147 8.33695 4.5 8.45502V15H5.5V8.45502C6.19853 8.33695 6.83274 7.97548 7.29031 7.43463C7.74788 6.89378 7.99928 6.20846 8 5.50002V1.00002H7V5.50002Z" fill="currentColor" style="fill-opacity:1"/>
<path d="M11 1.00002H10.5V15H11.5V10H13C13.2652 10 13.5196 9.89466 13.7071 9.70713C13.8946 9.51959 14 9.26524 14 9.00002V4.00002C14.0155 3.60191 13.9484 3.2049 13.8032 2.83392C13.6579 2.46295 13.4374 2.12602 13.1557 1.8443C12.874 1.56258 12.5371 1.34216 12.1661 1.19686C11.7951 1.05157 11.3981 0.984555 11 1.00002ZM13 9.00002H11.5V2.04502C12.94 2.32502 13 3.81502 13 4.00002V9.00002Z" fill="currentColor" style="fill-opacity:1"/>
</svg>
