<svg viewBox="0 0 16 16" fill="none" xmlns="http://www.w3.org/2000/svg">
<path d="M7.64273 7.64727L3.64404 11.646L4.35115 12.3531L8.34984 8.35437L7.64273 7.64727Z" fill="currentColor" style="fill-opacity:1"/>
<path d="M8.5 15C8.43667 15.0001 8.37389 14.9882 8.315 14.965C8.23308 14.9323 8.16126 14.8786 8.10682 14.8092C8.05238 14.7398 8.01725 14.6573 8.005 14.57L7.505 11.07L8.505 10.93L8.88 13.565L10.5 12.26V8.49997C10.4996 8.43417 10.5122 8.36893 10.5371 8.30802C10.562 8.2471 10.5987 8.19169 10.645 8.14497L12.68 6.10997C13.0993 5.69349 13.4319 5.198 13.6585 4.65216C13.885 4.10632 14.0011 3.52097 14 2.92997V1.99997H13.07C12.479 1.99885 11.8936 2.11493 11.3478 2.34151C10.802 2.56808 10.3065 2.90065 9.89 3.31997L7.855 5.35497C7.80828 5.40131 7.75287 5.43797 7.69195 5.46285C7.63103 5.48774 7.5658 5.50035 7.5 5.49997H3.74L2.435 7.12997L5.07 7.50497L4.93 8.50497L1.43 8.00497C1.34267 7.99272 1.26013 7.95759 1.19076 7.90315C1.12139 7.84871 1.06765 7.77688 1.035 7.69497C1.00194 7.61248 0.991461 7.52267 1.00464 7.43479C1.01783 7.34691 1.05419 7.26413 1.11 7.19497L3.11 4.69497C3.15606 4.63512 3.21508 4.58649 3.28262 4.55272C3.35017 4.51894 3.42449 4.50091 3.5 4.49997H7.295L9.18 2.60997C9.68958 2.09752 10.2958 1.69134 10.9636 1.41496C11.6313 1.13859 12.3473 0.997534 13.07 0.999969H14C14.2652 0.999969 14.5196 1.10533 14.7071 1.29286C14.8946 1.4804 15 1.73475 15 1.99997V2.92997C15.0024 3.65265 14.8614 4.36863 14.585 5.03639C14.3086 5.70414 13.9024 6.31039 13.39 6.81997L11.5 8.70497V12.5C11.4997 12.5751 11.4824 12.6491 11.4495 12.7166C11.4166 12.7842 11.3689 12.8434 11.31 12.89L8.81 14.89C8.72203 14.9605 8.61278 14.9993 8.5 15Z" fill="currentColor" style="fill-opacity:1"/>
</svg>
