<svg viewBox="0 0 16 16" fill="none" xmlns="http://www.w3.org/2000/svg">
<path d="M8.95501 13.41L9.13001 14.41C9.87641 14.2799 10.5941 14.0192 11.25 13.64L10.75 12.775C10.1937 13.0906 9.58602 13.3055 8.95501 13.41Z" fill="currentColor" style="fill-opacity:1"/>
<path d="M12.21 11.535L13 12.175C13.4843 11.5935 13.8633 10.9319 14.12 10.22L13.185 9.88004C12.9596 10.4846 12.6296 11.0448 12.21 11.535Z" fill="currentColor" style="fill-opacity:1"/>
<path d="M4.75001 13.625C5.40596 14.0042 6.1236 14.2649 6.87001 14.395L7.04501 13.395C6.41304 13.2859 5.80535 13.0658 5.25001 12.745L4.75001 13.625Z" fill="currentColor" style="fill-opacity:1"/>
<path d="M2.83501 9.88004L1.90001 10.22C2.1506 10.9305 2.52281 11.592 3.00001 12.175L3.16001 12.045L3.77001 11.545C3.35755 11.0533 3.03434 10.4932 2.81501 9.89004L2.83501 9.88004Z" fill="currentColor" style="fill-opacity:1"/>
<path d="M14.5 8.00004C14.4986 7.24224 14.3632 6.49066 14.1 5.78004L13.165 6.12004C13.3837 6.72285 13.497 7.3588 13.5 8.00004H14.5Z" fill="currentColor" style="fill-opacity:1"/>
<path d="M13 3.82504C12.39 3.09073 11.6258 2.49978 10.7617 2.0942C9.8975 1.68862 8.95461 1.47835 8.00001 1.47835C7.0454 1.47835 6.10251 1.68862 5.23835 2.0942C4.37419 2.49978 3.60997 3.09073 3.00001 3.82504V2.00004H2.00001V6.00004H6.00001V5.00004H3.40501C3.87428 4.28313 4.50457 3.68578 5.24561 3.25561C5.98665 2.82545 6.81795 2.57438 7.67322 2.52241C8.52848 2.47044 9.38406 2.61902 10.1717 2.9563C10.9594 3.29358 11.6574 3.81022 12.21 4.46504L13 3.82504Z" fill="currentColor" style="fill-opacity:1"/>
</svg>
