<svg viewBox="0 0 16 16" fill="none" xmlns="http://www.w3.org/2000/svg">
<path d="M7.04565 13.4117L6.8723 14.3957C6.12582 14.2653 5.40818 14.0044 4.7523 13.6248L5.2523 12.7595C5.80711 13.0806 6.41418 13.3014 7.04565 13.4117Z" fill="currentColor" style="fill-opacity:1"/>
<path d="M3.78835 11.5341L3.02245 12.1766C2.53616 11.5954 2.15541 10.9336 1.89745 10.221L2.8362 9.87932C3.05451 10.4823 3.37677 11.0423 3.78835 11.5341Z" fill="currentColor" style="fill-opacity:1"/>
<path d="M11.2475 13.625C10.5917 14.0045 9.87403 14.2655 9.12755 14.3959L8.9542 13.4119C9.5857 13.3015 10.1928 13.0807 10.7476 12.7596L11.2475 13.625Z" fill="currentColor" style="fill-opacity:1"/>
<path d="M13.1635 9.87932L14.1023 10.221C13.8444 10.9335 13.4637 11.5954 12.9775 12.1766L12.2118 11.5341C12.6233 11.0423 12.9453 10.4822 13.1635 9.87932Z" fill="currentColor" style="fill-opacity:1"/>
<path d="M6.8308 2.62792C6.7512 2.64522 6.6736 2.66792 6.5952 2.68867C6.48865 2.71677 6.3823 2.74557 6.27845 2.77977C6.1963 2.80712 6.11595 2.83812 6.0355 2.86887C5.9392 2.90597 5.84375 2.94432 5.7505 2.98632C5.66995 3.02267 5.59085 3.06132 5.51235 3.10132C5.42312 3.14676 5.33542 3.19454 5.24925 3.24467C5.17275 3.28932 5.09695 3.33467 5.0227 3.38257C4.93875 3.43702 4.8573 3.49467 4.7766 3.55322C4.7063 3.60452 4.63575 3.65507 4.5681 3.70947C4.4873 3.77417 4.4103 3.84327 4.3331 3.91262C4.27185 3.96762 4.2092 4.02102 4.1505 4.07862C4.0671 4.16042 3.98935 4.24757 3.91125 4.33447C3.00341 5.33955 2.50057 6.64559 2.5 7.99997H1.5C1.4992 6.47186 2.03945 4.9928 3.025 3.82497L3.02265 3.82302C3.06855 3.76832 3.12115 3.71997 3.1689 3.66677C3.26095 3.56422 3.3525 3.46177 3.45065 3.36527C3.51975 3.29737 3.59345 3.23462 3.66565 3.16992C3.7572 3.08767 3.8485 3.00562 3.9447 2.92872C4.0243 2.86477 4.1069 2.80542 4.18945 2.74537C4.2855 2.67537 4.3822 2.60697 4.48215 2.54227C4.5693 2.48587 4.6583 2.43287 4.74825 2.38037C4.85095 2.32084 4.95517 2.26404 5.0609 2.20997C5.1532 2.16287 5.2459 2.11767 5.3409 2.07497C5.4521 2.02497 5.5654 1.97927 5.6799 1.93532C5.7746 1.89917 5.86875 1.86257 5.96555 1.83082C6.0887 1.79007 6.21455 1.75612 6.3409 1.72267C6.4333 1.69802 6.5246 1.67142 6.6186 1.65112C6.7636 1.61942 6.91185 1.59742 7.06025 1.57572C7.13975 1.56422 7.2175 1.54812 7.29795 1.53932C8.36565 1.42077 9.44607 1.57008 10.4416 1.97377C11.4371 2.37746 12.3164 3.02281 13 3.85152V1.99997H14V5.99997H10V4.99997H12.5942C12.0975 4.2334 11.417 3.60316 10.6146 3.16654C9.81224 2.72993 8.91346 2.50079 8 2.49997C7.80138 2.50049 7.60293 2.51165 7.4055 2.53342C7.3374 2.54072 7.2715 2.55442 7.2042 2.56417C7.07875 2.58247 6.9535 2.60127 6.8308 2.62792Z" fill="currentColor" style="fill-opacity:1"/>
</svg>
