<svg viewBox="0 0 16 16" fill="none" xmlns="http://www.w3.org/2000/svg">
<path d="M8 7.50001C8.41421 7.50001 8.75 7.16422 8.75 6.75001C8.75 6.3358 8.41421 6.00001 8 6.00001C7.58579 6.00001 7.25 6.3358 7.25 6.75001C7.25 7.16422 7.58579 7.50001 8 7.50001Z" fill="currentColor" style="fill-opacity:1"/>
<path d="M9.7678 5.23241C9.53565 5.00022 9.26003 4.81603 8.95669 4.69036C8.65334 4.5647 8.32822 4.50002 7.99988 4.50002C7.67153 4.50002 7.34641 4.5647 7.04306 4.69036C6.73972 4.81603 6.4641 5.00022 6.23195 5.23241L5.525 4.52541C5.84998 4.20032 6.23583 3.94244 6.66049 3.76649C7.08516 3.59055 7.54033 3.49999 8 3.49999C8.45967 3.49999 8.91484 3.59055 9.33951 3.76649C9.76417 3.94244 10.15 4.20032 10.475 4.52541L9.7678 5.23241Z" fill="currentColor" style="fill-opacity:1"/>
<path d="M11.5357 3.46451C11.0714 3.00018 10.5201 2.63185 9.91349 2.38056C9.30684 2.12927 8.65664 1.99993 8 1.99993C7.34336 1.99993 6.69316 2.12927 6.08651 2.38056C5.47986 2.63185 4.92865 3.00018 4.46435 3.46451L3.7573 2.75721C4.88259 1.63209 6.40872 1.00002 8 1.00002C9.59128 1.00002 11.1174 1.63209 12.2427 2.75721L11.5357 3.46451Z" fill="currentColor" style="fill-opacity:1"/>
<path d="M10.5 12.5L8 15L5.5 12.5L6.2045 11.7905L7.5 13.0765V9.50001H8.5V13.103L9.7955 11.7905L10.5 12.5Z" fill="currentColor" style="fill-opacity:1"/>
<path d="M12 5.50001L9.5 8.00001L12 10.5L12.7095 9.79551L11.4235 8.50001H15V7.50001H11.397L12.7095 6.20451L12 5.50001Z" fill="currentColor" style="fill-opacity:1"/>
<path d="M4 5.50001L6.5 8.00001L4 10.5L3.2905 9.79551L4.5765 8.50001H1V7.50001H4.603L3.2905 6.20451L4 5.50001Z" fill="currentColor" style="fill-opacity:1"/>
</svg>
