<svg viewBox="0 0 16 16" fill="none" xmlns="http://www.w3.org/2000/svg">
<path id="icon" d="M14.705 10.835L5.17 1.29001C5.07712 1.19703 4.96683 1.12327 4.84544 1.07295C4.72404 1.02263 4.59391 0.996723 4.4625 0.996723C4.33108 0.996723 4.20095 1.02263 4.07956 1.07295C3.95816 1.12327 3.84787 1.19703 3.755 1.29001L1.295 3.75501C1.10874 3.94237 1.0042 4.19582 1.0042 4.46001C1.0042 4.72419 1.10874 4.97765 1.295 5.16501L10.83 14.71C10.9234 14.8027 11.0343 14.876 11.1561 14.9258C11.2779 14.9755 11.4084 15.0008 11.54 15C11.8041 15.0002 12.0575 14.896 12.245 14.71L14.705 12.245C14.8912 12.0576 14.9958 11.8042 14.9958 11.54C14.9958 11.2758 14.8912 11.0224 14.705 10.835ZM11.54 14L2 4.46001L4.46 2.00001L6.355 3.89501L5.23 5.00001L5.935 5.70501L7.06 4.60001L9.125 6.66501L8 7.79001L8.71 8.50001L9.835 7.37501L11.9 9.44001L10.775 10.565L11.5 11.27L12.625 10.145L14 11.54L11.54 14Z" fill="currentColor" style="fill-opacity:1"/>
</svg>
