<svg viewBox="0 0 16 16" fill="none" xmlns="http://www.w3.org/2000/svg">
<path d="M3.48459 12.4999H4.51539L4.14039 10.9999H11.8596L11.4846 12.4999H12.5154L12.9851 10.621C13.0035 10.5473 13.0049 10.4704 12.9891 10.3961C12.9733 10.3218 12.9408 10.252 12.894 10.1922C12.8473 10.1323 12.7875 10.0839 12.7192 10.0506C12.6509 10.0173 12.576 9.99994 12.5 9.99994H9.99999V8.49994H12.5C12.5839 8.49996 12.6665 8.47885 12.7401 8.43858C12.8137 8.39831 12.876 8.34016 12.9212 8.26949C12.9664 8.19882 12.9932 8.11791 12.9989 8.0342C13.0047 7.95049 12.9892 7.86668 12.9541 7.79049L9.95409 1.29049C9.918 1.2123 9.86233 1.14475 9.79248 1.09438C9.72262 1.04401 9.64095 1.01253 9.55536 1.00297C9.46977 0.993419 9.38317 1.00612 9.30393 1.03985C9.22469 1.07358 9.15549 1.12719 9.10304 1.19549L4.10374 7.69524C4.04686 7.76925 4.01183 7.8577 4.00262 7.95059C3.9934 8.04347 4.01037 8.13708 4.05161 8.22082C4.09284 8.30456 4.1567 8.37509 4.23594 8.42442C4.31518 8.47375 4.40665 8.49991 4.49999 8.49994H8.99999V9.99994H3.49999C3.42403 9.99996 3.34908 10.0173 3.28081 10.0506C3.21255 10.0839 3.15277 10.1323 3.10602 10.1922C3.05927 10.2521 3.02678 10.3218 3.011 10.3961C2.99523 10.4704 2.9966 10.5473 3.01499 10.621L3.48459 12.4999ZM9.99999 3.77629L11.7185 7.49994H9.99999V3.77629ZM5.51539 7.49994L8.99999 2.96994V7.49994H5.51539Z" fill="currentColor" style="fill-opacity:1"/>
<path d="M13.4529 12.8754C13.3698 13.1975 13.1819 13.4828 12.9189 13.6864C12.6559 13.8899 12.3326 14.0003 12 13.9999C11.6595 13.9801 11.3326 13.8593 11.0609 13.6531C10.7892 13.4468 10.585 13.1644 10.4743 12.8417C10.4407 12.7425 10.3769 12.6562 10.2919 12.5949C10.2068 12.5337 10.1048 12.5005 9.99999 12.4999C9.89533 12.4992 9.79312 12.5316 9.70806 12.5926C9.62299 12.6535 9.55946 12.7399 9.52659 12.8393C9.41612 13.1625 9.21193 13.4454 8.94006 13.6521C8.66819 13.8588 8.34093 13.9799 7.99999 13.9999C7.65947 13.9801 7.33256 13.8593 7.06087 13.6531C6.78919 13.4468 6.58502 13.1644 6.47434 12.8417C6.44069 12.7425 6.37689 12.6562 6.29186 12.5949C6.20683 12.5337 6.1048 12.5005 5.99999 12.4999C5.895 12.4977 5.7921 12.5296 5.70675 12.5907C5.6214 12.6519 5.55818 12.7391 5.52659 12.8393C5.41612 13.1625 5.21193 13.4454 4.94006 13.6521C4.66818 13.8588 4.34093 13.9799 3.99999 13.9999C3.66738 14.0003 3.34411 13.8899 3.08108 13.6864C2.81804 13.4828 2.63019 13.1975 2.54709 12.8754L1.57884 13.1244C1.71706 13.6614 2.02998 14.1371 2.46833 14.4767C2.90667 14.8163 3.44552 15.0003 3.99999 14.9999C4.38803 15.0034 4.7714 14.9152 5.11893 14.7425C5.46646 14.5699 5.76833 14.3176 5.99999 14.0063C6.23403 14.3151 6.53639 14.5655 6.88337 14.7378C7.23036 14.9102 7.61254 14.9999 7.99999 14.9999C8.38744 14.9999 8.76963 14.9102 9.11661 14.7378C9.46359 14.5655 9.76595 14.3151 9.99999 14.0063C10.2317 14.3176 10.5335 14.5699 10.8811 14.7425C11.2286 14.9152 11.612 15.0034 12 14.9999C12.5545 15.0003 13.0933 14.8163 13.5317 14.4767C13.97 14.1371 14.2829 13.6614 14.4211 13.1244L13.4529 12.8754Z" fill="currentColor" style="fill-opacity:1"/>
</svg>
