<svg viewBox="0 0 16 16" fill="none" xmlns="http://www.w3.org/2000/svg">
<path d="M15 3V2H13.5V1H12.5V2H12C11.4486 2 11 2.44875 11 3V4C11 4.55125 11.4486 5 12 5H14V6H11V7H12.5V8H13.5V7H14C14.5514 7 15 6.55125 15 6V5C15 4.44875 14.5514 4 14 4H12V3H15Z" fill="currentColor" style="fill-opacity:1"/>
<path d="M12 10V11H13.2929L11.5001 12.7929L10.3542 11.6465C10.2605 11.5527 10.1333 11.5 10.0007 11.5C9.8682 11.5 9.74085 11.5527 9.6471 11.6465L7 14.2929L7.70715 15L10.0005 12.7071L11.1463 13.8535C11.2401 13.9473 11.3673 14 11.5 14C11.6326 14 11.7598 13.9473 11.8535 13.8535L14 11.7071V13H15V10H12Z" fill="currentColor" style="fill-opacity:1"/>
<path d="M2 15H1V12.5C1 10.5701 2.57005 9 4.5 9H7.5C8.49425 9 9.44505 9.4251 10.1085 10.1664L9.3634 10.8334C8.8894 10.3038 8.2102 10 7.5 10H4.5C3.12145 10 2 11.1215 2 12.5V15Z" fill="currentColor" style="fill-opacity:1"/>
<path d="M6 8C7.933 8 9.5 6.433 9.5 4.5C9.5 2.567 7.933 1 6 1C4.067 1 2.5 2.567 2.5 4.5C2.5 6.433 4.067 8 6 8ZM6 2C7.38075 2 8.5 3.11925 8.5 4.5C8.5 5.88075 7.38075 7 6 7C4.61925 7 3.5 5.88075 3.5 4.5C3.5016 3.11995 4.61995 2.0016 6 2Z" fill="currentColor" style="fill-opacity:1"/>
</svg>
