<svg viewBox="0 0 16 16" fill="none" xmlns="http://www.w3.org/2000/svg">
<path d="M13.25 5.99997H9.5C8.96957 5.99997 8.46086 5.78925 8.08579 5.41418C7.71071 5.03911 7.5 4.5304 7.5 3.99997C7.5 3.46954 7.71071 2.96083 8.08579 2.58575C8.46086 2.21068 8.96957 1.99997 9.5 1.99997H9.54175C9.76446 1.6889 10.0585 1.43575 10.3992 1.26176C10.74 1.08776 11.1174 0.997992 11.5 0.999968C12.0045 0.999879 12.4971 1.15297 12.9126 1.43898C13.3282 1.72499 13.6471 2.13044 13.8272 2.60167C14.1706 2.71903 14.4686 2.94124 14.679 3.23697C14.8894 3.5327 15.0017 3.88702 15 4.24997C14.9995 4.71393 14.8149 5.15873 14.4868 5.48681C14.1588 5.81488 13.714 5.99943 13.25 5.99997ZM9.5 2.99997C9.23478 2.99997 8.98043 3.10532 8.79289 3.29286C8.60536 3.4804 8.5 3.73475 8.5 3.99997C8.5 4.26518 8.60536 4.51954 8.79289 4.70707C8.98043 4.89461 9.23478 4.99997 9.5 4.99997H13.25C13.4488 4.99974 13.6395 4.92065 13.7801 4.78005C13.9207 4.63945 13.9998 4.44881 14 4.24997C14.0004 4.07071 13.9359 3.89737 13.8185 3.76193C13.701 3.62649 13.5386 3.53808 13.3611 3.51302L13.0305 3.46347L12.9497 3.13912C12.8807 2.84664 12.7243 2.58212 12.5012 2.3808C12.2781 2.17948 11.999 2.05092 11.701 2.01225C11.403 1.97358 11.1003 2.02663 10.8332 2.16434C10.5661 2.30205 10.3474 2.51788 10.206 2.78307L10.0571 2.99997H9.5Z" fill="currentColor" style="fill-opacity:1"/>
<path d="M6.5 14V12.4441C7.39089 12.3407 8.22047 11.9385 8.8535 11.3032C8.89994 11.2568 8.93679 11.2017 8.96192 11.141C8.98706 11.0803 9 11.0153 9 10.9497C9 10.884 8.98706 10.819 8.96192 10.7583C8.93679 10.6977 8.89994 10.6426 8.8535 10.5962L6.7322 8.47497L8 7.20702L7.29295 6.49997L6.025 7.76777L3.9038 5.64647C3.85739 5.60002 3.80229 5.56317 3.74163 5.53803C3.68097 5.51289 3.61596 5.49995 3.5503 5.49995C3.48464 5.49995 3.41963 5.51289 3.35897 5.53803C3.29831 5.56317 3.24321 5.60002 3.1968 5.64647C2.82535 6.01788 2.53069 6.45882 2.32966 6.94411C2.12863 7.4294 2.02516 7.94954 2.02516 8.47482C2.02516 9.0001 2.12863 9.52024 2.32966 10.0055C2.53069 10.4908 2.82535 10.9318 3.1968 11.3032C3.27785 11.3843 3.36315 11.4594 3.4497 11.5327L2.21605 14H1V15H15V14H6.5ZM5.5 14H3.33425L4.295 12.0783C4.67495 12.2613 5.08178 12.3822 5.5 12.4365V14ZM3.9038 10.5962C3.40258 10.0947 3.09503 9.43202 3.03564 8.7255C2.97626 8.01899 3.16887 7.31426 3.57935 6.73617L7.76365 10.9202C7.18562 11.3308 6.48089 11.5235 5.77435 11.4642C5.06781 11.4049 4.40524 11.0974 3.9038 10.5962Z" fill="currentColor" style="fill-opacity:1"/>
</svg>
