<svg viewBox="0 0 16 16" fill="none" xmlns="http://www.w3.org/2000/svg">
<path id="icon" d="M11.4571 8.24998L12.8535 6.85348C12.9 6.80708 12.9368 6.75197 12.9619 6.69131C12.9871 6.63066 13 6.56564 13 6.49998C13 6.43432 12.9871 6.36931 12.9619 6.30865C12.9368 6.248 12.9 6.19289 12.8535 6.14648L11.7071 4.99998L12.75 3.95703L14.293 5.49998L15 4.79293L11.2071 0.999982L10.5 1.70703L12.043 3.24998L11 4.29293L9.85351 3.14648C9.80711 3.10003 9.752 3.06319 9.69134 3.03805C9.63069 3.0129 9.56567 2.99996 9.50001 2.99996C9.43435 2.99996 9.36934 3.0129 9.30868 3.03805C9.24803 3.06319 9.19292 3.10003 9.14651 3.14648L7.75001 4.54293L4.35351 1.14648C4.30711 1.10003 4.252 1.06319 4.19134 1.03805C4.13069 1.0129 4.06567 0.999965 4.00001 0.999965C3.93435 0.999965 3.86934 1.0129 3.80868 1.03805C3.74803 1.06319 3.69292 1.10003 3.64651 1.14648L1.14651 3.64648C1.10006 3.69289 1.06322 3.748 1.03808 3.80865C1.01294 3.86931 0.999995 3.93432 0.999995 3.99998C0.999995 4.06564 1.01294 4.13066 1.03808 4.19131C1.06322 4.25197 1.10006 4.30708 1.14651 4.35348L4.54296 7.74998L3.14651 9.14648C3.10006 9.19289 3.06322 9.248 3.03808 9.30865C3.01294 9.36931 3 9.43432 3 9.49998C3 9.56564 3.01294 9.63066 3.03808 9.69131C3.06322 9.75197 3.10006 9.80708 3.14651 9.85348L4.29296 11L3.25001 12.0429L1.70706 10.5L1.00001 11.207L4.79296 15L5.50001 14.2929L3.95706 12.75L5.00001 11.707L6.14651 12.8535C6.19292 12.8999 6.24803 12.9368 6.30869 12.9619C6.36934 12.987 6.43436 13 6.50001 13C6.56567 13 6.63068 12.987 6.69134 12.9619C6.75199 12.9368 6.8071 12.8999 6.85351 12.8535L8.25001 11.457L11.6465 14.8535C11.6929 14.8999 11.748 14.9368 11.8087 14.9619C11.8693 14.987 11.9344 15 12 15C12.0657 15 12.1307 14.987 12.1913 14.9619C12.252 14.9368 12.3071 14.8999 12.3535 14.8535L14.8535 12.3535C14.9 12.3071 14.9368 12.252 14.9619 12.1913C14.9871 12.1307 15 12.0656 15 12C15 11.9343 14.9871 11.8693 14.9619 11.8087C14.9368 11.748 14.9 11.6929 14.8535 11.6465L11.4571 8.24998ZM2.20706 3.99998L4.00001 2.20703L5.04296 3.24998L3.25001 5.04293L2.20706 3.99998ZM3.95706 5.74998L5.75001 3.95703L7.04296 5.24998L5.25001 7.04293L3.95706 5.74998ZM6.50001 11.7929L4.20706 9.49998L9.50001 4.20703L11.793 6.49998L6.50001 11.7929ZM8.95706 10.75L10.75 8.95703L12.043 10.25L10.25 12.0429L8.95706 10.75ZM12 13.7929L10.9571 12.75L12.75 10.957L13.793 12L12 13.7929Z" fill="currentColor" style="fill-opacity:1"/>
</svg>
