<svg viewBox="0 0 16 16" fill="none" xmlns="http://www.w3.org/2000/svg">
<path d="M8.69725 9.77684C8.69725 8.85519 9.3949 8.39869 10.618 8.39869H11.3847V8.07144C11.3847 7.57179 11.1349 7.27894 10.5492 7.27894C10.0324 7.27894 9.7395 7.53734 9.5242 7.84744L8.86955 7.26174C9.1968 6.74489 9.72235 6.40034 10.6267 6.40034C11.8412 6.40034 12.4872 6.97749 12.4872 8.00244V10.1214H12.9352V11H12.3237C11.8499 11 11.5571 10.6899 11.4881 10.2248H11.4365C11.2899 10.8019 10.799 11.1034 10.1271 11.1034C9.21415 11.1034 8.69725 10.5779 8.69725 9.77684ZM11.3785 9.65624V9.06194H10.6721C10.0951 9.06194 9.8108 9.26005 9.8108 9.6132V9.75959C9.8108 10.1213 10.0606 10.3022 10.4912 10.3022C10.9822 10.3022 11.3785 10.0783 11.3785 9.65624Z" fill="currentColor" style="fill-opacity:1"/>
<path d="M3.30975 10.1042L4.07635 9.3634C4.4898 9.84575 4.998 10.1042 5.6182 10.1042C6.31585 10.1042 6.67765 9.76825 6.67765 9.2601C6.67765 8.85525 6.4882 8.60545 5.8593 8.4935L5.2908 8.4073C4.0763 8.21785 3.49065 7.6407 3.49065 6.65875C3.49065 5.58205 4.3261 4.88435 5.66985 4.88435C6.57425 4.88435 7.24615 5.19445 7.72845 5.77155L6.9533 6.50375C6.66045 6.13335 6.247 5.88355 5.60955 5.88355C4.96355 5.88355 4.6276 6.14195 4.6276 6.58985C4.6276 7.0464 4.886 7.23585 5.46315 7.33925L6.02295 7.4426C7.23745 7.658 7.80605 8.2006 7.80605 9.1912C7.80605 10.3282 6.9877 11.1035 5.5492 11.1035C4.5242 11.1035 3.81795 10.6986 3.30975 10.1042Z" fill="currentColor" style="fill-opacity:1"/>
<path d="M14 15H2C1.4477 15 1 14.5523 1 14V2C1 1.4477 1.4477 1 2 1H14C14.5523 1 15 1.4477 15 2V14C15 14.5523 14.5523 15 14 15ZM2 14H14V2H2V14Z" fill="currentColor" style="fill-opacity:1"/>
</svg>
