<svg viewBox="0 0 16 16" fill="none" xmlns="http://www.w3.org/2000/svg">
<path d="M8.6967 9.77684C8.6967 8.85519 9.39435 8.39869 10.6175 8.39869H11.3841V8.07144C11.3841 7.57179 11.1344 7.27894 10.5487 7.27894C10.0318 7.27894 9.73895 7.53734 9.52365 7.84744L8.869 7.26174C9.19625 6.74489 9.7218 6.40034 10.6262 6.40034C11.8407 6.40034 12.4867 6.97749 12.4867 8.00244V10.1214H12.9347V11H12.3231C11.8494 11 11.5565 10.6899 11.4876 10.2248H11.4359C11.2894 10.8019 10.7985 11.1034 10.1266 11.1034C9.2136 11.1034 8.6967 10.5779 8.6967 9.77684ZM11.3779 9.65624V9.06194H10.6716C10.0946 9.06194 9.81025 9.26005 9.81025 9.6132V9.75959C9.81025 10.1213 10.06 10.3022 10.4907 10.3022C10.9816 10.3022 11.3779 10.0783 11.3779 9.65624Z" fill="currentColor" style="fill-opacity:1"/>
<path d="M3.30919 10.1042L4.07579 9.3634C4.48924 9.84575 4.99744 10.1042 5.61764 10.1042C6.31529 10.1042 6.67709 9.76825 6.67709 9.2601C6.67709 8.85525 6.48764 8.60545 5.85874 8.4935L5.29024 8.4073C4.07574 8.21785 3.49009 7.6407 3.49009 6.65875C3.49009 5.58205 4.32554 4.88435 5.66929 4.88435C6.57369 4.88435 7.24559 5.19445 7.72789 5.77155L6.95274 6.50375C6.65989 6.13335 6.24644 5.88355 5.60899 5.88355C4.96299 5.88355 4.62704 6.14195 4.62704 6.58985C4.62704 7.0464 4.88544 7.23585 5.46259 7.33925L6.02239 7.4426C7.23689 7.658 7.80549 8.2006 7.80549 9.1912C7.80549 10.3282 6.98714 11.1035 5.54864 11.1035C4.52364 11.1035 3.81739 10.6986 3.30919 10.1042Z" fill="currentColor" style="fill-opacity:1"/>
<path d="M10.5 15H5.5C3.0187 15 1 12.9813 1 10.5V5.5C1 3.0187 3.0187 1 5.5 1H10.5C12.9813 1 15 3.0187 15 5.5V10.5C15 12.9813 12.9813 15 10.5 15ZM5.5 2C3.57005 2 2 3.57005 2 5.5V10.5C2 12.4299 3.57005 14 5.5 14H10.5C12.4299 14 14 12.4299 14 10.5V5.5C14 3.57005 12.4299 2 10.5 2H5.5Z" fill="currentColor" style="fill-opacity:1"/>
</svg>
