<svg viewBox="0 0 16 16" fill="none" xmlns="http://www.w3.org/2000/svg">
<path d="M13 9.99999L13.7136 10.9514L11.5 13.4814L9.2864 10.9514L10 9.99999H13ZM13.5 8.99999H9.5L8 11L11.5 15L15 11L13.5 8.99999Z" fill="currentColor" style="fill-opacity:1"/>
<path d="M8 13H6V8.99999H7V7.99999H6C5.73478 7.99999 5.48043 8.10535 5.29289 8.29288C5.10536 8.48042 5 8.73477 5 8.99999V13H3V2.99999H5V4.99999C5 5.26521 5.10536 5.51956 5.29289 5.7071C5.48043 5.89463 5.73478 5.99999 6 5.99999H10C10.2652 5.99999 10.5196 5.89463 10.7071 5.7071C10.8946 5.51956 11 5.26521 11 4.99999V3.20499L13 5.20499V7.99999H14V4.99999C14.0004 4.93419 13.9878 4.86896 13.9629 4.80804C13.938 4.74712 13.9013 4.69171 13.855 4.64499L11.355 2.14499C11.3083 2.09862 11.2529 2.06195 11.192 2.03706C11.131 2.01218 11.0658 1.99958 11 1.99999H3C2.73478 1.99999 2.48043 2.10535 2.29289 2.29288C2.10536 2.48042 2 2.73477 2 2.99999V13C2 13.2652 2.10536 13.5196 2.29289 13.7071C2.48043 13.8946 2.73478 14 3 14H8V13ZM6 2.99999H10V4.99999H6V2.99999Z" fill="currentColor" style="fill-opacity:1"/>
</svg>
