<svg viewBox="0 0 16 16" fill="none" xmlns="http://www.w3.org/2000/svg">
<path d="M14.4141 3.56689C14.0332 3.20304 13.5267 3 13 3C12.4733 3 11.9668 3.20304 11.586 3.56689L0.171654 14.9809H4.79445C5.1229 14.9818 5.44826 14.9175 5.7517 14.7918C6.05515 14.6661 6.33064 14.4814 6.56225 14.2485L14.4141 6.39499C14.5998 6.20933 14.7472 5.98889 14.8477 5.74626C14.9483 5.50363 15 5.24357 15 4.98094C15 4.7183 14.9483 4.45824 14.8477 4.21561C14.7472 3.97299 14.5998 3.75255 14.4141 3.56689ZM6.1464 10.4203L7.1894 9.37739L8.60405 10.792L7.5612 11.835L6.1464 10.4203ZM5.855 13.5415C5.716 13.6812 5.55069 13.792 5.36862 13.8674C5.18655 13.9428 4.99133 13.9814 4.79425 13.9809H2.5857L5.43935 11.1273L6.85435 12.5423L5.855 13.5415ZM13.7071 5.68799L9.31105 10.085L7.8964 8.67039L12.293 4.27399C12.4834 4.09205 12.7366 3.99053 13 3.99053C13.2634 3.99053 13.5166 4.09205 13.7071 4.27399C13.7999 4.36682 13.8736 4.47704 13.9239 4.59835C13.9741 4.71967 14 4.8497 14 4.98101C14 5.11233 13.9741 5.24236 13.9239 5.36367C13.8736 5.48498 13.7999 5.59516 13.7071 5.68799Z" fill="currentColor" style="fill-opacity:1"/>
<path d="M5.5 0.999988H3.5C3.0269 0.998493 2.56314 1.1317 2.16294 1.38403C1.76274 1.63637 1.44263 1.99741 1.24004 2.42494C1.03744 2.85248 0.960732 3.32885 1.01887 3.79838C1.07701 4.2679 1.2676 4.71118 1.56835 5.07639C1.5251 5.21352 1.50208 5.35622 1.5 5.49999C1.50095 5.80916 1.59758 6.11046 1.77663 6.36252C1.95569 6.61457 2.20838 6.80501 2.5 6.90769V6.99999C2.49967 7.2651 2.39421 7.51926 2.20675 7.70673C2.01928 7.89419 1.76512 7.99966 1.5 7.99999H1V8.99999H1.5C2.03025 8.99939 2.53862 8.78849 2.91356 8.41354C3.2885 8.0386 3.49941 7.53024 3.5 6.99999V6.90794C3.70917 6.83335 3.89913 6.71319 4.05614 6.55616C4.21315 6.39913 4.33329 6.20916 4.40785 5.99999H5.5C6.16305 5.99999 6.79893 5.7366 7.26777 5.26775C7.73661 4.79891 8 4.16303 8 3.49999C8 2.83695 7.73661 2.20106 7.26777 1.73222C6.79893 1.26338 6.16305 0.999988 5.5 0.999988ZM3 5.99999C2.90111 5.99999 2.80444 5.97066 2.72222 5.91572C2.63999 5.86078 2.57591 5.78269 2.53806 5.69133C2.50022 5.59997 2.49032 5.49943 2.50961 5.40244C2.5289 5.30545 2.57652 5.21636 2.64645 5.14643C2.71638 5.07651 2.80547 5.02889 2.90246 5.00959C2.99945 4.9903 3.09998 5.0002 3.19135 5.03805C3.28271 5.07589 3.3608 5.13998 3.41574 5.2222C3.47068 5.30443 3.5 5.4011 3.5 5.49999C3.49988 5.63256 3.44717 5.75967 3.35343 5.85341C3.25968 5.94715 3.13258 5.99987 3 5.99999ZM5.5 4.99999H4.40785C4.33409 4.78717 4.21294 4.5939 4.05356 4.43475C3.89418 4.2756 3.70073 4.15474 3.4878 4.08129C3.27488 4.00783 3.04806 3.98371 2.82445 4.01073C2.60084 4.03776 2.3863 4.11522 2.197 4.23729C2.06686 4.00953 1.99892 3.75154 2 3.48922C2.00108 3.22689 2.07115 2.96947 2.20317 2.74279C2.33518 2.51611 2.52451 2.32815 2.75214 2.19777C2.97976 2.06739 3.23768 1.99918 3.5 1.99999H5.5C5.89783 1.99999 6.27936 2.15802 6.56066 2.43933C6.84197 2.72063 7 3.10216 7 3.49999C7 3.89781 6.84197 4.27934 6.56066 4.56065C6.27936 4.84195 5.89783 4.99999 5.5 4.99999Z" fill="currentColor" style="fill-opacity:1"/>
</svg>
