<svg viewBox="0 0 16 16" fill="none" xmlns="http://www.w3.org/2000/svg">
<path d="M14.4141 3.58594C14.0332 3.22209 13.5267 3.01905 13 3.01905C12.4733 3.01905 11.9668 3.22209 11.586 3.58594L0.171654 15H4.79445C5.1229 15.0008 5.44826 14.9366 5.7517 14.8108C6.05515 14.6851 6.33064 14.5005 6.56225 14.2676L14.4141 6.41404C14.5998 6.22839 14.7472 6.00795 14.8477 5.76532C14.9483 5.52269 15 5.26263 15 4.99999C15 4.73736 14.9483 4.4773 14.8477 4.23467C14.7472 3.99204 14.5998 3.7716 14.4141 3.58594ZM6.1464 10.4393L7.1894 9.39639L8.60405 10.8111L7.5612 11.8542L6.1464 10.4393ZM5.855 13.5605C5.71603 13.7002 5.55075 13.811 5.36871 13.8864C5.18668 13.9618 4.9915 14.0004 4.79445 14H2.5857L5.43935 11.1464L6.85435 12.5614L5.855 13.5605ZM13.7069 5.70704L9.31085 10.104L7.8962 8.68939L12.2928 4.29294C12.4832 4.11103 12.7364 4.00952 12.9998 4.00952C13.2632 4.00952 13.5164 4.11103 13.7069 4.29294C13.7997 4.38578 13.8734 4.49601 13.9237 4.61733C13.9739 4.73864 13.9998 4.86868 13.9998 4.99999C13.9998 5.13131 13.9739 5.26134 13.9237 5.38266C13.8734 5.50398 13.7997 5.6142 13.7069 5.70704Z" fill="currentColor" style="fill-opacity:1"/>
<path d="M7.5 0.999993C7.19081 1.00093 6.88948 1.09756 6.63741 1.27661C6.38533 1.45566 6.19486 1.70835 6.09215 1.99999H3.9078C3.82392 1.76132 3.68089 1.54781 3.49208 1.37943C3.30327 1.21104 3.07484 1.09328 2.82816 1.03715C2.58148 0.981026 2.32459 0.988362 2.08152 1.05848C1.83844 1.12859 1.61711 1.25919 1.43822 1.43808C1.25933 1.61696 1.12871 1.83829 1.05858 2.08136C0.988455 2.32443 0.981106 2.58132 1.03722 2.828C1.09334 3.07469 1.21109 3.30311 1.37946 3.49193C1.54783 3.68075 1.76133 3.8238 2 3.90769V6.09204C1.6664 6.20999 1.38523 6.44208 1.20619 6.74728C1.02715 7.05249 0.96177 7.41116 1.02161 7.75991C1.08144 8.10866 1.26264 8.42503 1.53317 8.6531C1.80371 8.88117 2.14616 9.00626 2.5 9.00626C2.85385 9.00626 3.1963 8.88117 3.46683 8.6531C3.73737 8.42503 3.91857 8.10866 3.9784 7.75991C4.03824 7.41116 3.97286 7.05249 3.79382 6.74728C3.61478 6.44208 3.33361 6.20999 3 6.09204V3.90794C3.20916 3.83335 3.39911 3.71319 3.55611 3.55616C3.71312 3.39913 3.83325 3.20916 3.9078 2.99999H6.0921C6.18424 3.25853 6.34566 3.48677 6.55873 3.65977C6.7718 3.83277 7.02833 3.94388 7.30027 3.98096C7.57222 4.01804 7.84912 3.97966 8.10073 3.87002C8.35234 3.76038 8.56898 3.58369 8.72696 3.35926C8.88495 3.13483 8.97822 2.87129 8.99656 2.59744C9.01491 2.3236 8.95764 2.04997 8.83101 1.80647C8.70437 1.56297 8.51324 1.35896 8.27851 1.21673C8.04378 1.0745 7.77447 0.999524 7.5 0.999993ZM2.5 7.99999C2.40111 7.99999 2.30444 7.97067 2.22222 7.91573C2.13999 7.86079 2.07591 7.7827 2.03806 7.69134C2.00022 7.59997 1.99032 7.49944 2.00961 7.40245C2.0289 7.30546 2.07652 7.21637 2.14645 7.14644C2.21638 7.07651 2.30547 7.02889 2.40246 7.0096C2.49945 6.99031 2.59998 7.00021 2.69135 7.03805C2.78271 7.0759 2.8608 7.13998 2.91574 7.22221C2.97068 7.30443 3 7.4011 3 7.49999C2.9999 7.63257 2.94719 7.75968 2.85344 7.85343C2.7597 7.94718 2.63258 7.99989 2.5 7.99999ZM2.5 2.99999C2.40111 2.99999 2.30444 2.97067 2.22222 2.91573C2.13999 2.86079 2.07591 2.7827 2.03806 2.69134C2.00022 2.59997 1.99032 2.49944 2.00961 2.40245C2.0289 2.30546 2.07652 2.21637 2.14645 2.14644C2.21638 2.07651 2.30547 2.02889 2.40246 2.0096C2.49945 1.99031 2.59998 2.00021 2.69135 2.03805C2.78271 2.0759 2.8608 2.13998 2.91574 2.22221C2.97068 2.30443 3 2.4011 3 2.49999C2.9999 2.63257 2.94719 2.75968 2.85344 2.85343C2.7597 2.94718 2.63258 2.99989 2.5 2.99999ZM7.5 2.99999C7.40111 2.99999 7.30444 2.97067 7.22222 2.91573C7.13999 2.86079 7.07591 2.7827 7.03806 2.69134C7.00022 2.59997 6.99032 2.49944 7.00961 2.40245C7.0289 2.30546 7.07652 2.21637 7.14645 2.14644C7.21638 2.07651 7.30547 2.02889 7.40246 2.0096C7.49945 1.99031 7.59998 2.00021 7.69135 2.03805C7.78271 2.0759 7.8608 2.13998 7.91574 2.22221C7.97068 2.30443 8 2.4011 8 2.49999C7.9999 2.63257 7.94719 2.75968 7.85344 2.85343C7.7597 2.94718 7.63258 2.99989 7.5 2.99999Z" fill="currentColor" style="fill-opacity:1"/>
</svg>
