<svg viewBox="0 0 16 16" fill="none" xmlns="http://www.w3.org/2000/svg">
<path id="icon" d="M14.415 2.58502C14.0337 2.22129 13.527 2.01835 13 2.01835C12.473 2.01835 11.9663 2.22129 11.585 2.58502L0.170002 14H4.795C5.45676 13.9999 6.09147 13.7374 6.56 13.27L14.415 5.41502C14.601 5.22928 14.7485 5.0087 14.8491 4.7659C14.9498 4.52311 15.0016 4.26285 15.0016 4.00002C15.0016 3.73719 14.9498 3.47694 14.8491 3.23414C14.7485 2.99134 14.601 2.77077 14.415 2.58502V2.58502ZM6.145 9.44002L7.19 8.39502L8.605 9.81002L7.56 10.855L6.145 9.44002ZM5.855 12.56C5.57397 12.8414 5.19269 12.9997 4.795 13H2.585L5.44 10.145L6.855 11.56L5.855 12.56ZM13.705 4.70502L9.31 9.10502L7.895 7.69002L12.295 3.29502C12.4824 3.10877 12.7358 3.00423 13 3.00423C13.2642 3.00423 13.5176 3.10877 13.705 3.29502C13.8913 3.48238 13.9958 3.73584 13.9958 4.00002C13.9958 4.26421 13.8913 4.51766 13.705 4.70502V4.70502Z" fill="currentColor" style="fill-opacity:1"/>
</svg>
