<svg viewBox="0 0 16 16" fill="none" xmlns="http://www.w3.org/2000/svg">
<path d="M14.6913 1.03805C14.5999 1.00014 14.4994 0.990202 14.4023 1.0095C14.3053 1.0288 14.2162 1.07646 14.1463 1.14645L1.1463 14.1464C1.07638 14.2164 1.02877 14.3055 1.0095 14.4025C0.990219 14.4995 1.00014 14.6 1.038 14.6914C1.07586 14.7827 1.13996 14.8608 1.22219 14.9157C1.30443 14.9707 1.40111 15 1.5 15H5.5V14H2.70715L4.70715 12H11C11.2651 11.9997 11.5193 11.8942 11.7068 11.7067C11.8943 11.5193 11.9997 11.2651 12 11V4.70725L14 2.70725V5.49995H15V1.49995C15 1.40106 14.9707 1.3044 14.9157 1.22218C14.8608 1.13996 14.7827 1.07588 14.6913 1.03805ZM11 11H5.70715L11 5.70725V11Z" fill="currentColor" style="fill-opacity:1"/>
<path d="M5 8.87765V4.99995H8.8777L9.8777 3.99995H5C4.73488 4.00028 4.48072 4.10574 4.29326 4.29321C4.10579 4.48067 4.00033 4.73483 4 4.99995V9.87765L5 8.87765Z" fill="currentColor" style="fill-opacity:1"/>
<path d="M5.5 0.99995H0.999998V5.49995H2V1.99995H5.5V0.99995Z" fill="currentColor" style="fill-opacity:1"/>
<path d="M10.5 15H15V10.5H14V14H10.5V15Z" fill="currentColor" style="fill-opacity:1"/>
<path d="M2 11.8774V10.5H0.999998V12.877L2 11.8774Z" fill="currentColor" style="fill-opacity:1"/>
<path d="M12.8775 0.99995H10.5V1.99995H11.8775L12.8775 0.99995Z" fill="currentColor" style="fill-opacity:1"/>
</svg>
