<svg viewBox="0 0 16 16" fill="none" xmlns="http://www.w3.org/2000/svg">
<path id="icon" d="M13.5 9.50047C13.4994 8.9701 13.2884 8.46162 12.9134 8.08659C12.5384 7.71156 12.0299 7.50059 11.4996 7.49997H4.50055C4.23529 7.4997 3.98097 7.39422 3.79339 7.20665C3.60581 7.01909 3.5003 6.76478 3.5 6.49952V4.92897C3.84376 4.83937 4.15739 4.65972 4.40859 4.40853C4.65978 4.15734 4.83944 3.84371 4.92905 3.49997H11.0711C11.1928 3.9713 11.4822 4.38206 11.8851 4.65527C12.2879 4.92847 12.7766 5.04536 13.2596 4.98403C13.7425 4.92269 14.1864 4.68734 14.5082 4.32208C14.83 3.95683 15.0075 3.48675 15.0075 2.99997C15.0075 2.51318 14.83 2.0431 14.5082 1.67785C14.1864 1.3126 13.7425 1.07724 13.2596 1.01591C12.7766 0.954569 12.2879 1.07146 11.8851 1.34467C11.4822 1.61787 11.1928 2.02864 11.0711 2.49997H4.92905C4.84158 2.15885 4.6654 1.84695 4.41841 1.59593C4.17141 1.34492 3.8624 1.16372 3.52274 1.07075C3.18308 0.977772 2.82487 0.976323 2.48446 1.06655C2.14406 1.15678 1.8336 1.33546 1.58458 1.58447C1.33557 1.83348 1.15687 2.14395 1.06664 2.48435C0.976405 2.82475 0.977847 3.18296 1.07082 3.52262C1.16379 3.86229 1.34497 4.1713 1.59598 4.4183C1.84699 4.6653 2.15889 4.84148 2.5 4.92897V6.49952C2.50064 7.02989 2.71162 7.53836 3.08666 7.91338C3.4617 8.2884 3.97018 8.49936 4.50055 8.49997H11.4996C11.7648 8.50024 12.0191 8.60574 12.2067 8.79332C12.3943 8.98089 12.4997 9.23521 12.5 9.50047V11H11V12.5H4.92905C4.80736 12.0286 4.51794 11.6179 4.11505 11.3447C3.71216 11.0715 3.22346 10.9546 2.74055 11.0159C2.25765 11.0772 1.81369 11.3126 1.49189 11.6779C1.1701 12.0431 0.992563 12.5132 0.992563 13C0.992563 13.4868 1.1701 13.9568 1.49189 14.3221C1.81369 14.6873 2.25765 14.9227 2.74055 14.984C3.22346 15.0454 3.71216 14.9285 4.11505 14.6553C4.51794 14.3821 4.80736 13.9713 4.92905 13.5H11V15H15V11H13.5V9.50047ZM13 1.99997C13.1978 1.99997 13.3911 2.05861 13.5556 2.1685C13.72 2.27838 13.8482 2.43456 13.9239 2.61728C13.9996 2.80001 14.0194 3.00108 13.9808 3.19506C13.9422 3.38904 13.847 3.56722 13.7071 3.70707C13.5673 3.84693 13.3891 3.94217 13.1951 3.98075C13.0011 4.01934 12.8 3.99953 12.6173 3.92385C12.4346 3.84816 12.2784 3.71999 12.1685 3.55554C12.0587 3.39109 12 3.19775 12 2.99997C12.0003 2.73483 12.1057 2.48062 12.2932 2.29314C12.4807 2.10565 12.7349 2.00022 13 1.99997V1.99997ZM2 2.99997C2 2.80218 2.05865 2.60884 2.16854 2.4444C2.27842 2.27995 2.4346 2.15177 2.61732 2.07609C2.80005 2.0004 3.00111 1.9806 3.19509 2.01918C3.38908 2.05777 3.56726 2.15301 3.70711 2.29286C3.84696 2.43271 3.9422 2.61089 3.98079 2.80488C4.01938 2.99886 3.99957 3.19992 3.92388 3.38265C3.8482 3.56538 3.72002 3.72155 3.55557 3.83144C3.39113 3.94132 3.19779 3.99997 3 3.99997C2.73487 3.99971 2.48066 3.89428 2.29318 3.70679C2.10569 3.51931 2.00026 3.26511 2 2.99997V2.99997ZM3 14C2.80222 14 2.60888 13.9413 2.44443 13.8314C2.27999 13.7216 2.15181 13.5654 2.07613 13.3826C2.00044 13.1999 1.98063 12.9989 2.01922 12.8049C2.0578 12.6109 2.15305 12.4327 2.2929 12.2929C2.43275 12.153 2.61093 12.0578 2.80491 12.0192C2.9989 11.9806 3.19996 12.0004 3.38269 12.0761C3.56541 12.1518 3.72159 12.2799 3.83147 12.4444C3.94136 12.6088 4 12.8022 4 13C3.99974 13.2651 3.8943 13.5193 3.70682 13.7068C3.51934 13.8943 3.26514 13.9997 3 14V14ZM14 12V14H12V12H14Z" fill="currentColor" style="fill-opacity:1"/>
</svg>
