<svg viewBox="0 0 16 16" fill="none" xmlns="http://www.w3.org/2000/svg">
<path d="M15 12.5H11V13.5H15V12.5Z" fill="currentColor" style="fill-opacity:1"/>
<path d="M15 10.5H11V11.5H15V10.5Z" fill="currentColor" style="fill-opacity:1"/>
<path d="M9.20705 5.5H11.5V4.5H7.5V8.5H8.5V6.20705L11.7929 9.5L12.5 8.79295L9.20705 5.5Z" fill="currentColor" style="fill-opacity:1"/>
<path d="M14 1.5H2C1.4486 1.5 1 1.94875 1 2.5V10.5C1 11.0512 1.4486 11.5 2 11.5H6V13.5H4V14.5H10V10.5H2V2.5H14V9.5H15V2.5C15 1.94875 14.5514 1.5 14 1.5ZM9 13.5H7V11.5H9V13.5Z" fill="currentColor" style="fill-opacity:1"/>
</svg>
