<svg viewBox="0 0 16 16" fill="none" xmlns="http://www.w3.org/2000/svg">
<path d="M15.5 13H12V14H15.5V13Z" fill="currentColor" style="fill-opacity:1"/>
<path d="M15.5 11H12V12H15.5V11Z" fill="currentColor" style="fill-opacity:1"/>
<path d="M10.2071 6H12.5V5H8.5V9H9.5V6.70705L12.7929 10L13.5 9.29295L10.2071 6Z" fill="currentColor" style="fill-opacity:1"/>
<path d="M3.5 3.5H14.5V9.5H15.5V3.5C15.5 2.94875 15.0514 2.5 14.5 2.5H3.5C2.9486 2.5 2.5 2.94875 2.5 3.5V11C2.5 11.5512 2.9486 12 3.5 12H7V14H5V15H11V11H3.5V3.5ZM10 14H8V12H10V14Z" fill="currentColor" style="fill-opacity:1"/>
<path d="M13 1.5V0.5H1.5C0.9486 0.5 0.5 0.94825 0.5 1.5V9H1.5V1.5H13Z" fill="currentColor" style="fill-opacity:1"/>
</svg>
