<svg viewBox="0 0 16 16" fill="none" xmlns="http://www.w3.org/2000/svg">
<path d="M15 3H13V1H12V3H10V4H12V6H13V4H15V3Z" fill="currentColor" style="fill-opacity:1"/>
<path d="M12 14.2929L9.01245 11.3054C9.73252 10.4046 10.0803 9.26225 9.98438 8.11301C9.88845 6.96377 9.35608 5.8949 8.49662 5.12595C7.63717 4.35699 6.51588 3.94635 5.36309 3.97836C4.2103 4.01037 3.11353 4.48261 2.29807 5.29807C1.48261 6.11353 1.01037 7.2103 0.978358 8.36309C0.946348 9.51588 1.35699 10.6372 2.12595 11.4966C2.8949 12.3561 3.96377 12.8885 5.11301 12.9844C6.26225 13.0803 7.4046 12.7325 8.3054 12.0125L11.2929 15L12 14.2929ZM2 8.5C2 7.80777 2.20527 7.13108 2.58986 6.5555C2.97444 5.97993 3.52107 5.53133 4.16061 5.26642C4.80015 5.00152 5.50388 4.9322 6.18282 5.06725C6.86175 5.2023 7.48539 5.53564 7.97487 6.02513C8.46436 6.51461 8.7977 7.13825 8.93275 7.81718C9.0678 8.49612 8.99849 9.19985 8.73358 9.83939C8.46867 10.4789 8.02007 11.0256 7.4445 11.4101C6.86892 11.7947 6.19223 12 5.5 12C4.57206 11.999 3.68242 11.6299 3.02627 10.9737C2.37011 10.3176 2.00103 9.42794 2 8.5Z" fill="currentColor" style="fill-opacity:1"/>
</svg>
