<svg viewBox="0 0 16 16" fill="none" xmlns="http://www.w3.org/2000/svg">
<path d="M4.5 10.5C4.22385 10.5 4 10.2761 4 10V6C4 5.72385 4.22385 5.5 4.5 5.5H10.0858C10.351 5.5 10.6054 5.60535 10.7929 5.7929L13 8L10.7929 10.2071C10.6054 10.3946 10.351 10.5 10.0858 10.5H4.5Z" fill="currentColor" style="fill-opacity:1"/>
<path d="M10.5 15H5.5C3.0187 15 1 12.9813 1 10.5V5.5C1 3.0187 3.0187 1 5.5 1H10.5C12.9813 1 15 3.0187 15 5.5V10.5C15 12.9813 12.9813 15 10.5 15ZM5.5 2C3.57005 2 2 3.57005 2 5.5V10.5C2 12.4299 3.57005 14 5.5 14H10.5C12.4299 14 14 12.4299 14 10.5V5.5C14 3.57005 12.4299 2 10.5 2H5.5Z" fill="currentColor" style="fill-opacity:1"/>
</svg>
