<svg viewBox="0 0 16 16" fill="none" xmlns="http://www.w3.org/2000/svg">
<path id="icon" d="M13.855 2.14499C13.7875 2.07783 13.7023 2.03133 13.6093 2.01096C13.5163 1.99058 13.4194 1.99719 13.33 2.02999L2.33 6.02999C2.23513 6.06598 2.15346 6.12997 2.09582 6.21347C2.03819 6.29697 2.00732 6.39603 2.00732 6.49749C2.00732 6.59895 2.03819 6.69801 2.09582 6.78152C2.15346 6.86502 2.23513 6.92901 2.33 6.96499L7.13 8.88499L9.05 13.685C9.08607 13.7757 9.14791 13.8538 9.22787 13.9098C9.30783 13.9658 9.40243 13.9971 9.5 14C9.60104 13.9979 9.69908 13.9653 9.7812 13.9064C9.86332 13.8475 9.92566 13.765 9.96 13.67L13.96 2.66999C13.9941 2.58153 14.0023 2.48521 13.9837 2.39225C13.9651 2.2993 13.9205 2.21355 13.855 2.14499ZM9.5 12.1L8.105 8.59999L10.5 6.20499L9.795 5.49999L7.38 7.91499L3.9 6.49999L12.665 3.33499L9.5 12.1Z" fill="currentColor" style="fill-opacity:1"/>
</svg>
