<svg viewBox="0 0 16 16" fill="none" xmlns="http://www.w3.org/2000/svg">
<path id="icon" d="M13.855 2.14499C13.7875 2.07783 13.7023 2.03133 13.6093 2.01096C13.5163 1.99058 13.4194 1.99719 13.33 2.02999L2.33 6.02999C2.23513 6.06598 2.15346 6.12997 2.09582 6.21347C2.03819 6.29697 2.00732 6.39603 2.00732 6.49749C2.00732 6.59895 2.03819 6.69801 2.09582 6.78152C2.15346 6.86502 2.23513 6.92901 2.33 6.96499L6.625 8.67999L9.795 5.49999L10.5 6.20499L7.315 9.38999L9.035 13.685C9.07205 13.778 9.13618 13.8578 9.21909 13.914C9.302 13.9701 9.39986 14.0001 9.5 14C9.60104 13.9979 9.69908 13.9653 9.7812 13.9064C9.86332 13.8475 9.92566 13.765 9.96 13.67L13.96 2.66999C13.9941 2.58153 14.0023 2.48521 13.9837 2.39225C13.9651 2.2993 13.9205 2.21355 13.855 2.14499Z" fill="currentColor" style="fill-opacity:1"/>
</svg>
