<svg viewBox="0 0 16 16" fill="none" xmlns="http://www.w3.org/2000/svg">
<path id="icon" d="M14 12.0025V11.0025C13.9977 9.49882 13.4314 8.05075 12.413 6.94448C11.3947 5.83821 9.99831 5.15426 8.5 5.02781V4.00246H10V3.00246H6V4.00246H7.5V5.02781C6.00169 5.15426 4.60533 5.83821 3.58695 6.94448C2.56857 8.05075 2.00227 9.49882 2 11.0025V12.0025H1V13.0025H15V12.0025H14ZM8 6.00246C9.1521 6.00398 10.2685 6.40265 11.1609 7.13128C12.0533 7.85992 12.6672 8.87395 12.8992 10.0025H3.10075C3.33269 8.87393 3.94663 7.85988 4.83907 7.13125C5.73151 6.40261 6.84789 6.00395 8 6.00246ZM3 11.0025H13V12.0025H3V11.0025Z" fill="currentColor" style="fill-opacity:1"/>
</svg>
