<svg viewBox="0 0 16 16" fill="none" xmlns="http://www.w3.org/2000/svg">
<path d="M3 15H13C13.2652 15 13.5196 14.8946 13.7071 14.7071C13.8946 14.5196 14 14.2652 14 14V11C14 10.7348 13.8946 10.4804 13.7071 10.2929C13.5196 10.1054 13.2652 10 13 10H3C2.73478 10 2.48043 10.1054 2.29289 10.2929C2.10536 10.4804 2 10.7348 2 11V14C2 14.2652 2.10536 14.5196 2.29289 14.7071C2.48043 14.8946 2.73478 15 3 15ZM3 11H13V14H3V11Z" fill="currentColor" style="fill-opacity:1"/>
<path d="M4.5 13C4.77614 13 5 12.7761 5 12.5C5 12.2239 4.77614 12 4.5 12C4.22386 12 4 12.2239 4 12.5C4 12.7761 4.22386 13 4.5 13Z" fill="currentColor" style="fill-opacity:1"/>
<path d="M13 0.999997L12.295 1.705L13.585 3H11.1575C10.8029 2.23807 10.1854 1.62959 9.41832 1.28625C8.65125 0.942914 7.78609 0.887748 6.98162 1.13088C6.17715 1.37401 5.48737 1.89913 5.03886 2.60985C4.59036 3.32057 4.41324 4.16921 4.54 5H2.415L3.705 3.705L3 3L0.5 5.5L3 8L3.705 7.295L2.415 6H4.8425C5.1971 6.76193 5.81461 7.3704 6.58168 7.71374C7.34875 8.05708 8.21391 8.11225 9.01838 7.86911C9.82285 7.62598 10.5126 7.10086 10.9611 6.39014C11.4096 5.67942 11.5868 4.83079 11.46 4H13.585L12.295 5.295L13 6L15.5 3.5L13 0.999997ZM10.5 4.5C10.5018 5.02401 10.3383 5.53525 10.0328 5.96101C9.72734 6.38676 9.29539 6.70536 8.79841 6.87149C8.30143 7.03763 7.76471 7.04283 7.2646 6.88637C6.76449 6.72991 6.32644 6.41975 6.01275 6H8V5H5.55055C5.43509 4.44468 5.51248 3.86659 5.76994 3.36119C6.02739 2.85579 6.44952 2.45332 6.9666 2.22022C7.48369 1.98713 8.06481 1.93736 8.614 2.07913C9.16319 2.2209 9.6476 2.54574 9.98725 3H8V4H10.4494C10.483 4.16454 10.5 4.33206 10.5 4.5Z" fill="currentColor" style="fill-opacity:1"/>
</svg>
