<svg viewBox="0 0 16 16" fill="none" xmlns="http://www.w3.org/2000/svg">
<path d="M3.5 10C3.77614 10 4 9.77614 4 9.5C4 9.22386 3.77614 9 3.5 9C3.22386 9 3 9.22386 3 9.5C3 9.77614 3.22386 10 3.5 10Z" fill="currentColor" style="fill-opacity:1"/>
<path d="M8 6C8.27614 6 8.5 5.77614 8.5 5.5C8.5 5.22386 8.27614 5 8 5C7.72386 5 7.5 5.22386 7.5 5.5C7.5 5.77614 7.72386 6 8 6Z" fill="currentColor" style="fill-opacity:1"/>
<path d="M12.5 10C12.7761 10 13 9.77614 13 9.5C13 9.22386 12.7761 9 12.5 9C12.2239 9 12 9.22386 12 9.5C12 9.77614 12.2239 10 12.5 10Z" fill="currentColor" style="fill-opacity:1"/>
<path d="M5 7.5C5.27614 7.5 5.5 7.27614 5.5 7C5.5 6.72386 5.27614 6.5 5 6.5C4.72386 6.5 4.5 6.72386 4.5 7C4.5 7.27614 4.72386 7.5 5 7.5Z" fill="currentColor" style="fill-opacity:1"/>
<path d="M15 10H14C14 9.3692 13.9027 8.7479 13.7107 8.15355L14.6624 7.84625C14.8864 8.54005 15 9.2647 15 10Z" fill="currentColor" style="fill-opacity:1"/>
<path d="M14.9254 4.48875L13.707 5.707C13.5259 5.88815 13.2757 5.99995 12.9999 5.99995C12.4484 5.99995 11.9999 5.55145 11.9999 4.99995C11.9999 4.72405 12.112 4.47405 12.2931 4.29315L13.5113 3.07465C13.3471 3.0307 13.1778 2.99995 12.9999 2.99995C11.8971 2.99995 10.9999 3.89715 10.9999 4.99995C10.9999 5.3696 11.1076 5.71185 11.2834 6.00945L9.00945 8.2834C8.71195 8.1076 8.3697 7.99995 7.99995 7.99995C6.89715 7.99995 5.99995 8.89715 5.99995 9.99995C5.99995 11.1027 6.89715 11.9999 7.99995 11.9999C9.10275 11.9999 9.99995 11.1027 9.99995 9.99995C9.99995 9.6301 9.8923 9.2878 9.7165 8.99045L11.9904 6.7165C12.2879 6.8923 12.6302 6.99995 12.9999 6.99995C14.1027 6.99995 14.9999 6.10275 14.9999 4.99995C14.9999 4.8222 14.9692 4.65285 14.9254 4.48875ZM8 11C7.4485 11 7 10.5512 7 10C7 9.44875 7.4485 9 8 9C8.5515 9 9 9.44875 9 10C9 10.5512 8.5515 11 8 11Z" fill="currentColor" style="fill-opacity:1"/>
<path d="M2 10H1C1 6.1402 4.14015 3 8 3C8.73535 3 9.45995 3.1136 10.1537 3.3377L9.84635 4.28925C9.2521 4.09735 8.6309 4 8.00005 4C4.6917 4 2 6.6916 2 10Z" fill="currentColor" style="fill-opacity:1"/>
</svg>
