<svg viewBox="0 0 16 16" fill="none" xmlns="http://www.w3.org/2000/svg">
<path d="M7.99999 11C7.40665 11 6.82663 10.8241 6.33328 10.4944C5.83993 10.1648 5.45542 9.69623 5.22835 9.14805C5.00129 8.59987 4.94188 7.99667 5.05764 7.41473C5.17339 6.83279 5.45911 6.29824 5.87867 5.87868C6.29823 5.45912 6.83278 5.1734 7.41472 5.05764C7.99666 4.94189 8.59986 5.0013 9.14804 5.22836C9.69622 5.45542 10.1648 5.83994 10.4944 6.33329C10.824 6.82664 11 7.40666 11 8C11.0042 8.39515 10.9296 8.78717 10.7803 9.15307C10.631 9.51897 10.4102 9.85138 10.1308 10.1308C9.85137 10.4102 9.51896 10.6311 9.15306 10.7803C8.78716 10.9296 8.39514 11.0043 7.99999 11ZM7.99999 6C7.73571 5.99401 7.47295 6.04164 7.22759 6.14003C6.98223 6.23842 6.75936 6.38552 6.57243 6.57244C6.38551 6.75937 6.23841 6.98224 6.14002 7.2276C6.04163 7.47296 5.994 7.73572 5.99999 8C5.994 8.26428 6.04163 8.52704 6.14002 8.7724C6.23841 9.01776 6.38551 9.24063 6.57243 9.42756C6.75936 9.61448 6.98223 9.76158 7.22759 9.85997C7.47295 9.95836 7.73571 10.006 7.99999 10C8.26428 10.006 8.52703 9.95836 8.77239 9.85997C9.01775 9.76158 9.24063 9.61448 9.42755 9.42756C9.61448 9.24063 9.76158 9.01776 9.85996 8.7724C9.95835 8.52704 10.006 8.26428 9.99999 8C10.006 7.73572 9.95835 7.47296 9.85996 7.2276C9.76158 6.98224 9.61448 6.75937 9.42755 6.57244C9.24063 6.38552 9.01775 6.23842 8.77239 6.14003C8.52703 6.04164 8.26428 5.99401 7.99999 6Z" fill="currentColor" style="fill-opacity:1"/>
<path d="M14.6523 5.522L13.472 3.4781C13.3566 3.27775 13.1753 3.12364 12.9589 3.04207C12.7426 2.9605 12.5046 2.95652 12.2856 3.0308L11.0686 3.44245C10.8589 3.30119 10.6397 3.17451 10.4126 3.0633L10.1607 1.804C10.1154 1.57726 9.99293 1.37324 9.81412 1.22665C9.6353 1.08006 9.41121 0.999966 9.17999 1H6.81999C6.58877 0.999966 6.36468 1.08006 6.18587 1.22665C6.00705 1.37324 5.88456 1.57726 5.83924 1.804L5.58739 3.0633C5.3578 3.17331 5.13614 3.29919 4.92404 3.44L3.71434 3.0308C3.49538 2.95652 3.25742 2.9605 3.04107 3.04207C2.82472 3.12364 2.64336 3.27775 2.52794 3.4781L1.34764 5.522C1.23209 5.72224 1.18946 5.95631 1.22701 6.18443C1.26456 6.41254 1.37996 6.62061 1.55359 6.77325L2.51904 7.62165C2.51049 7.74735 2.49999 7.87235 2.49999 8C2.49999 8.1289 2.50499 8.25635 2.51389 8.3828L1.55359 9.2268C1.37996 9.37944 1.26456 9.58751 1.22701 9.81562C1.18946 10.0437 1.23209 10.2778 1.34764 10.4781L2.52794 12.522C2.64336 12.7224 2.82472 12.8765 3.04107 12.958C3.25742 13.0396 3.49538 13.0436 3.71434 12.9693L4.93139 12.5576C5.14106 12.699 5.36025 12.8257 5.58739 12.9368L5.83924 14.1961C5.88458 14.4228 6.00708 14.6268 6.18589 14.7734C6.36471 14.92 6.58878 15 6.81999 15H8.99999V14H6.81999L6.46499 12.2246C5.97397 12.0423 5.51813 11.7765 5.11759 11.4389L3.39389 12.022L2.21389 9.9781L3.57654 8.78055C3.48333 8.2635 3.48215 7.73406 3.57304 7.2166L2.21374 6.022L3.39429 3.9781L5.10764 4.55765C5.51097 4.21985 5.97023 3.95513 6.46469 3.77545L6.81999 2H9.17999L9.53499 3.7754C10.026 3.95776 10.4818 4.22355 10.8824 4.56105L12.6058 3.97805L13.7858 6.02195L12.3869 7.24805L13.0461 8L14.4461 6.7732C14.6198 6.6206 14.7352 6.41255 14.7728 6.18445C14.8104 5.95634 14.7679 5.72226 14.6523 5.522Z" fill="currentColor" style="fill-opacity:1"/>
<path d="M11.5 13.09L10.205 11.795L9.49999 12.5L11.5 14.5L15 11L14.295 10.295L11.5 13.09Z" fill="currentColor" style="fill-opacity:1"/>
</svg>
