<svg viewBox="0 0 16 16" fill="none" xmlns="http://www.w3.org/2000/svg">
<path d="M11.5 12.9999C12.0523 12.9999 12.5 12.5522 12.5 11.9999C12.5 11.4477 12.0523 10.9999 11.5 10.9999C10.9477 10.9999 10.5 11.4477 10.5 11.9999C10.5 12.5522 10.9477 12.9999 11.5 12.9999Z" fill="currentColor" style="fill-opacity:1"/>
<path d="M15.3884 11.7392C15.0795 10.9522 14.5464 10.2732 13.8552 9.78624C13.164 9.29932 12.3451 9.02593 11.5 8.99995C10.6549 9.02593 9.83603 9.29932 9.14484 9.78624C8.45365 10.2732 7.92052 10.9522 7.61155 11.7392L7.5 11.9999L7.61155 12.2607C7.92052 13.0477 8.45365 13.7267 9.14484 14.2137C9.83603 14.7006 10.6549 14.974 11.5 14.9999C12.3451 14.974 13.164 14.7006 13.8552 14.2137C14.5464 13.7267 15.0795 13.0477 15.3884 12.2607L15.5 11.9999L15.3884 11.7392ZM11.5 13.9999C11.1044 13.9999 10.7178 13.8826 10.3889 13.6629C10.06 13.4431 9.80362 13.1308 9.65224 12.7653C9.50087 12.3999 9.46126 11.9977 9.53843 11.6098C9.6156 11.2218 9.80608 10.8654 10.0858 10.5857C10.3655 10.306 10.7219 10.1155 11.1098 10.0384C11.4978 9.96121 11.8999 10.0008 12.2654 10.1522C12.6308 10.3036 12.9432 10.5599 13.1629 10.8888C13.3827 11.2177 13.5 11.6044 13.5 11.9999C13.4994 12.5302 13.2885 13.0386 12.9136 13.4135C12.5386 13.7884 12.0302 13.9994 11.5 13.9999Z" fill="currentColor" style="fill-opacity:1"/>
<path d="M6.19945 10.3999C5.79046 10.0931 5.4667 9.68673 5.2589 9.21953C5.05111 8.75234 4.96617 8.23978 5.01216 7.73053C5.05815 7.22128 5.23354 6.73223 5.52167 6.30983C5.80981 5.88742 6.20113 5.54566 6.65848 5.31701C7.11583 5.08837 7.62404 4.98041 8.13485 5.00339C8.64565 5.02637 9.14211 5.17953 9.57708 5.44833C10.012 5.71713 10.3711 6.09265 10.6201 6.53922C10.8692 6.9858 10.9999 7.48862 11 7.99995H10C10 7.65903 9.91286 7.32378 9.74684 7.02602C9.58083 6.72826 9.34146 6.47787 9.05146 6.29864C8.76146 6.11942 8.43047 6.01729 8.0899 6.00197C7.74933 5.98664 7.4105 6.05863 7.10557 6.21109C6.80065 6.36355 6.53976 6.59143 6.34768 6.87308C6.1556 7.15472 6.0387 7.4808 6.00808 7.82033C5.97747 8.15987 6.03415 8.5016 6.17275 8.81306C6.31135 9.12453 6.52727 9.3954 6.8 9.59995L6.19945 10.3999Z" fill="currentColor" style="fill-opacity:1"/>
<path d="M14.6524 5.5219L13.4721 3.478C13.3566 3.27764 13.1753 3.12354 12.9589 3.04197C12.7426 2.9604 12.5046 2.95641 12.2857 3.0307L11.0686 3.44235C10.8589 3.30109 10.6397 3.17441 10.4126 3.0632L10.1608 1.8039C10.1154 1.57717 9.99293 1.37315 9.81412 1.22658C9.6353 1.08 9.41122 0.99991 9.18001 0.999946H6.82001C6.58883 0.999956 6.36479 1.08006 6.18602 1.22664C6.00725 1.37321 5.88478 1.5772 5.83946 1.8039L5.58761 3.0632C5.35794 3.17322 5.13622 3.29911 4.92406 3.43995L3.71436 3.0307C3.49539 2.95641 3.25744 2.9604 3.04109 3.04197C2.82473 3.12354 2.64338 3.27764 2.52796 3.478L1.34766 5.5219C1.23211 5.72213 1.18948 5.95621 1.22703 6.18433C1.26457 6.41244 1.37997 6.62051 1.55361 6.77315L2.51906 7.62155C2.51051 7.74725 2.50001 7.87225 2.50001 7.99995C2.50001 8.12885 2.50501 8.2563 2.51391 8.38275L1.55361 9.22675C1.37997 9.37938 1.26457 9.58745 1.22703 9.81557C1.18948 10.0437 1.23211 10.2778 1.34766 10.478L2.52796 12.5219C2.64338 12.7222 2.82473 12.8764 3.04109 12.9579C3.25744 13.0395 3.49539 13.0435 3.71436 12.9692L4.93141 12.5575C5.14108 12.6989 5.36026 12.8256 5.58741 12.9367L5.83926 14.196C5.88459 14.4227 6.00708 14.6267 6.1859 14.7733C6.36471 14.9199 6.58879 15 6.82001 14.9999H7.50001V13.9999H6.82001L6.46501 12.2245C5.97398 12.0422 5.51814 11.7764 5.11761 11.4389L3.39421 12.0219L2.21421 9.978L3.57641 8.78045C3.4832 8.2634 3.48201 7.73395 3.57291 7.2165L2.21376 6.0219L3.39431 3.978L5.10766 4.55755C5.51098 4.21974 5.97024 3.95503 6.46471 3.77535L6.82001 1.99995H9.18001L9.53501 3.77535C10.026 3.9577 10.4819 4.22349 10.8824 4.561L12.6058 3.978L13.7858 6.0219L12.3869 7.248L13.0462 7.99995L14.4462 6.77315C14.6198 6.62054 14.7353 6.41249 14.7729 6.18437C14.8105 5.95625 14.7679 5.72216 14.6524 5.5219Z" fill="currentColor" style="fill-opacity:1"/>
</svg>
