<svg viewBox="0 0 16 16" fill="none" xmlns="http://www.w3.org/2000/svg">
<path d="M2.5 8H1.5V13.5C1.5 14.0523 1.9477 14.5 2.5 14.5H6.5V13.5H2.5V8Z" fill="currentColor" style="fill-opacity:1"/>
<path d="M14 14.5H8.5C8.32325 14.5 8.15955 14.4067 8.0696 14.2544C8.02325 14.176 8 14.0881 8 14C8 13.9171 8.0206 13.8342 8.0619 13.7591L10.8119 8.75905C10.9068 8.5865 11.0785 8.50015 11.25 8.5C11.4217 8.49985 11.593 8.5862 11.6881 8.75905L14.4381 13.7591C14.4794 13.8342 14.5 13.9171 14.5 14C14.5 14.0881 14.4767 14.176 14.4304 14.2544C14.3404 14.4066 14.1768 14.5 14 14.5ZM9.3456 13.5H13.1545L11.25 10.0375L9.3456 13.5Z" fill="currentColor" style="fill-opacity:1"/>
<path d="M13.5 1.5H8V2.5H13.5V9.4961H14.5V2.5C14.5 1.94775 14.0523 1.5 13.5 1.5Z" fill="currentColor" style="fill-opacity:1"/>
<path d="M5.5 1.5H2.5C1.9477 1.5 1.5 1.94775 1.5 2.5V5.5C1.5 6.05225 1.9477 6.5 2.5 6.5H5.5C6.0523 6.5 6.5 6.05225 6.5 5.5V2.5C6.5 1.94775 6.0523 1.5 5.5 1.5ZM5.5 5.5H2.5V2.5H5.5V5.5Z" fill="currentColor" style="fill-opacity:1"/>
</svg>
