<svg viewBox="0 0 16 16" fill="none" xmlns="http://www.w3.org/2000/svg">
<path id="icon" d="M11.5 10C11.1257 10.0019 10.7567 10.0878 10.42 10.2513C10.0834 10.4149 9.78779 10.652 9.555 10.945L5.9 8.66002C6.03321 8.2301 6.03321 7.76994 5.9 7.34002L9.555 5.05502C9.92597 5.51438 10.4476 5.82761 11.0274 5.93922C11.6072 6.05084 12.2078 5.95364 12.7228 5.66483C13.2378 5.37603 13.6339 4.91427 13.8411 4.36134C14.0482 3.80842 14.053 3.20003 13.8545 2.64394C13.656 2.08785 13.2671 1.61995 12.7567 1.32314C12.2463 1.02632 11.6473 0.919745 11.0658 1.02229C10.4843 1.12483 9.95788 1.42987 9.57978 1.88338C9.20167 2.33689 8.99629 2.90958 9 3.50002C9.00236 3.72361 9.03602 3.94577 9.1 4.16002L5.445 6.44502C5.12232 6.03881 4.68127 5.74304 4.18298 5.59872C3.68468 5.45439 3.15383 5.46865 2.66401 5.63953C2.17418 5.8104 1.74964 6.12942 1.44924 6.55237C1.14884 6.97532 0.987457 7.48125 0.987457 8.00002C0.987457 8.51879 1.14884 9.02472 1.44924 9.44767C1.74964 9.87062 2.17418 10.1896 2.66401 10.3605C3.15383 10.5314 3.68468 10.5456 4.18298 10.4013C4.68127 10.257 5.12232 9.96123 5.445 9.55502L9.1 11.84C9.03602 12.0543 9.00236 12.2764 9 12.5C9 12.9945 9.14662 13.4778 9.42132 13.8889C9.69603 14.3001 10.0865 14.6205 10.5433 14.8097C11.0001 14.9989 11.5028 15.0484 11.9877 14.952C12.4727 14.8555 12.9181 14.6174 13.2678 14.2678C13.6174 13.9182 13.8555 13.4727 13.952 12.9877C14.0484 12.5028 13.9989 12.0001 13.8097 11.5433C13.6205 11.0865 13.3 10.696 12.8889 10.4213C12.4778 10.1466 11.9945 10 11.5 10ZM11.5 2.00002C11.7967 2.00002 12.0867 2.08799 12.3334 2.25282C12.58 2.41764 12.7723 2.65191 12.8858 2.92599C12.9993 3.20008 13.0291 3.50168 12.9712 3.79266C12.9133 4.08363 12.7704 4.3509 12.5607 4.56068C12.3509 4.77046 12.0836 4.91332 11.7926 4.9712C11.5017 5.02908 11.2001 4.99937 10.926 4.88584C10.6519 4.77231 10.4176 4.58005 10.2528 4.33338C10.088 4.0867 10 3.79669 10 3.50002C10 3.1022 10.158 2.72066 10.4393 2.43936C10.7206 2.15806 11.1022 2.00002 11.5 2.00002ZM3.5 9.50002C3.20333 9.50002 2.91332 9.41205 2.66664 9.24722C2.41997 9.0824 2.22771 8.84813 2.11418 8.57405C2.00065 8.29996 1.97094 7.99836 2.02882 7.70738C2.0867 7.41641 2.22956 7.14914 2.43934 6.93936C2.64912 6.72958 2.91639 6.58672 3.20736 6.52884C3.49834 6.47096 3.79994 6.50067 4.07402 6.6142C4.34811 6.72773 4.58238 6.91999 4.7472 7.16666C4.91203 7.41334 5 7.70335 5 8.00002C5 8.39784 4.84196 8.77938 4.56066 9.06068C4.27936 9.34198 3.89782 9.50002 3.5 9.50002ZM11.5 14C11.2033 14 10.9133 13.912 10.6666 13.7472C10.42 13.5824 10.2277 13.3481 10.1142 13.074C10.0006 12.8 9.97094 12.4984 10.0288 12.2074C10.0867 11.9164 10.2296 11.6491 10.4393 11.4394C10.6491 11.2296 10.9164 11.0867 11.2074 11.0288C11.4983 10.971 11.7999 11.0007 12.074 11.1142C12.3481 11.2277 12.5824 11.42 12.7472 11.6667C12.912 11.9133 13 12.2033 13 12.5C13 12.8978 12.842 13.2794 12.5607 13.5607C12.2794 13.842 11.8978 14 11.5 14Z" fill="currentColor" style="fill-opacity:1"/>
</svg>
