<svg viewBox="0 0 16 16" fill="none" xmlns="http://www.w3.org/2000/svg">
<path d="M13.5 14C13.4124 14.0006 13.3262 13.9782 13.25 13.935L3.75 8.43497C3.67305 8.39136 3.60905 8.32812 3.56452 8.2517C3.51999 8.17528 3.49653 8.08841 3.49653 7.99997C3.49653 7.91152 3.51999 7.82465 3.56452 7.74823C3.60905 7.67182 3.67305 7.60858 3.75 7.56497L13.25 2.06497C13.326 2.02108 13.4122 1.99798 13.5 1.99798C13.5878 1.99798 13.674 2.02108 13.75 2.06497C13.8263 2.10902 13.8896 2.17245 13.9335 2.24884C13.9774 2.32523 14.0003 2.41186 14 2.49997V13.5C14 13.6326 13.9473 13.7598 13.8536 13.8535C13.7598 13.9473 13.6326 14 13.5 14ZM5 7.99997L13 12.635V3.36497L5 7.99997Z" fill="currentColor" style="fill-opacity:1"/>
<path d="M2 1.99997H1V14H2V1.99997Z" fill="currentColor" style="fill-opacity:1"/>
</svg>
