<svg viewBox="0 0 16 16" fill="none" xmlns="http://www.w3.org/2000/svg">
<path d="M11.5 11C11.415 11 11.3314 10.9783 11.2571 10.9371L6.7571 8.43715C6.67913 8.39385 6.61416 8.33049 6.56892 8.25363C6.52369 8.17677 6.49983 8.08921 6.49983 8.00002C6.49983 7.91084 6.52369 7.82328 6.56892 7.74642C6.61416 7.66956 6.67913 7.60619 6.7571 7.5629L11.2571 5.0629C11.3332 5.02059 11.4191 4.9989 11.5061 4.99997C11.5932 5.00104 11.6785 5.02483 11.7535 5.06899C11.8286 5.11315 11.8908 5.17615 11.934 5.25174C11.9773 5.32734 12 5.41291 12 5.5V10.5C12 10.6326 11.9473 10.7598 11.8536 10.8536C11.7598 10.9473 11.6326 11 11.5 11ZM8.02955 8L11 9.6503V6.35L8.02955 8Z" fill="currentColor" style="fill-opacity:1"/>
<path d="M4.5 11H5.5V5H4.5V11Z" fill="currentColor" style="fill-opacity:1"/>
<path d="M8 15C6.61553 15 5.26215 14.5895 4.111 13.8203C2.95986 13.0511 2.06265 11.9579 1.53284 10.6788C1.00303 9.3997 0.864403 7.99223 1.1345 6.63436C1.4046 5.2765 2.07128 4.02922 3.05025 3.05025C4.02922 2.07128 5.2765 1.4046 6.63436 1.1345C7.99223 0.864403 9.3997 1.00303 10.6788 1.53284C11.9579 2.06265 13.0511 2.95986 13.8203 4.111C14.5895 5.26215 15 6.61553 15 8C14.9979 9.85587 14.2597 11.6351 12.9474 12.9474C11.6351 14.2597 9.85587 14.9979 8 15ZM8 2C6.81331 2 5.65327 2.35189 4.66658 3.01118C3.67988 3.67047 2.91085 4.60754 2.45672 5.7039C2.00259 6.80025 1.88377 8.00665 2.11529 9.17054C2.3468 10.3344 2.91824 11.4035 3.75736 12.2426C4.59647 13.0818 5.66557 13.6532 6.82946 13.8847C7.99334 14.1162 9.19974 13.9974 10.2961 13.5433C11.3925 13.0891 12.3295 12.3201 12.9888 11.3334C13.6481 10.3467 14 9.18668 14 8C13.9982 6.40925 13.3655 4.88418 12.2406 3.75936C11.1158 2.63453 9.59074 2.00181 8 2Z" fill="currentColor" style="fill-opacity:1"/>
</svg>
