<svg viewBox="0 0 16 16" fill="none" xmlns="http://www.w3.org/2000/svg">
<path d="M11.5 5H10.5V11H11.5V5Z" fill="currentColor" style="fill-opacity:1"/>
<path d="M4.24635 10.9309C4.17133 10.8867 4.10914 10.8237 4.06593 10.7482C4.02272 10.6726 3.99999 10.5871 4 10.5V5.5C3.99999 5.41291 4.02272 5.32734 4.06594 5.25174C4.10917 5.17615 4.17139 5.11315 4.24644 5.06899C4.3215 5.02483 4.40678 5.00104 4.49386 4.99997C4.58094 4.9989 4.66678 5.02059 4.7429 5.0629L9.2429 7.5629C9.32087 7.60619 9.38584 7.66956 9.43107 7.74642C9.4763 7.82328 9.50016 7.91084 9.50016 8.00002C9.50016 8.08921 9.4763 8.17677 9.43107 8.25363C9.38584 8.33049 9.32087 8.39385 9.2429 8.43715L4.7429 10.9371C4.66674 10.9794 4.58088 11.0011 4.49379 11C4.40671 10.9989 4.32141 10.9751 4.24635 10.9309ZM5 6.35V9.65055L7.97045 8L5 6.35Z" fill="currentColor" style="fill-opacity:1"/>
<path d="M8 15C6.61553 15 5.26215 14.5895 4.111 13.8203C2.95986 13.0511 2.06265 11.9579 1.53284 10.6788C1.00303 9.3997 0.864403 7.99223 1.1345 6.63436C1.4046 5.2765 2.07128 4.02922 3.05025 3.05025C4.02922 2.07128 5.2765 1.4046 6.63436 1.1345C7.99223 0.864403 9.3997 1.00303 10.6788 1.53284C11.9579 2.06265 13.0511 2.95986 13.8203 4.111C14.5895 5.26215 15 6.61553 15 8C14.9979 9.85587 14.2597 11.6351 12.9474 12.9474C11.6351 14.2597 9.85587 14.9979 8 15ZM8 2C6.81331 2 5.65327 2.35189 4.66658 3.01118C3.67988 3.67047 2.91085 4.60754 2.45672 5.7039C2.00259 6.80025 1.88377 8.00665 2.11529 9.17054C2.3468 10.3344 2.91824 11.4035 3.75736 12.2426C4.59647 13.0818 5.66557 13.6532 6.82946 13.8847C7.99334 14.1162 9.19974 13.9974 10.2961 13.5433C11.3925 13.0891 12.3295 12.3201 12.9888 11.3334C13.6481 10.3467 14 9.18668 14 8C13.9982 6.40925 13.3655 4.88418 12.2406 3.75936C11.1158 2.63453 9.59074 2.00181 8 2Z" fill="currentColor" style="fill-opacity:1"/>
</svg>
