<svg viewBox="0 0 16 16" fill="none" xmlns="http://www.w3.org/2000/svg">
<path d="M2.5 14C2.36739 14 2.24021 13.9473 2.14644 13.8535C2.05267 13.7598 2 13.6326 2 13.5V2.49997C1.99965 2.41186 2.02258 2.32523 2.06649 2.24884C2.11039 2.17245 2.17369 2.10902 2.25 2.06497C2.32601 2.02108 2.41223 1.99798 2.5 1.99798C2.58776 1.99798 2.67399 2.02108 2.75 2.06497L12.25 7.56497C12.3269 7.60858 12.3909 7.67182 12.4355 7.74823C12.48 7.82465 12.5035 7.91152 12.5035 7.99997C12.5035 8.08841 12.48 8.17528 12.4355 8.2517C12.3909 8.32812 12.3269 8.39136 12.25 8.43497L2.75 13.935C2.67379 13.9782 2.58758 14.0006 2.5 14ZM3 3.36497V12.635L11 7.99997L3 3.36497Z" fill="currentColor" style="fill-opacity:1"/>
<path d="M15 1.99997H14V14H15V1.99997Z" fill="currentColor" style="fill-opacity:1"/>
</svg>
