<svg viewBox="0 0 16 16" fill="none" xmlns="http://www.w3.org/2000/svg">
<path d="M4.00001 11.9999H3.00001V12.9999H4.00001V11.9999Z" fill="currentColor" style="fill-opacity:1"/>
<path d="M5.00001 12.9999H4.00001V13.9999H5.00001V12.9999Z" fill="currentColor" style="fill-opacity:1"/>
<path d="M6.00001 13.9999H5.00001V14.9999H6.00001V13.9999Z" fill="currentColor" style="fill-opacity:1"/>
<path d="M6.00001 11.9999H5.00001V12.9999H6.00001V11.9999Z" fill="currentColor" style="fill-opacity:1"/>
<path d="M4.00001 13.9999H3.00001V14.9999H4.00001V13.9999Z" fill="currentColor" style="fill-opacity:1"/>
<path d="M10.5 14.9999C10.4148 15 10.3309 14.9782 10.2565 14.9367C10.182 14.8951 10.1194 14.8353 10.0746 14.7628C10.0298 14.6903 10.0043 14.6075 10.0005 14.5224C9.99666 14.4372 10.0147 14.3525 10.0528 14.2762L11.0528 12.276C11.0822 12.2173 11.1228 12.1649 11.1725 12.1219C11.2221 12.0789 11.2797 12.046 11.342 12.0253C11.4043 12.0045 11.47 11.9963 11.5355 12.0009C11.601 12.0056 11.665 12.0231 11.7237 12.0525C11.7824 12.0818 11.8348 12.1225 11.8778 12.1721C11.9208 12.2217 11.9536 12.2793 11.9744 12.3416C11.9952 12.4039 12.0034 12.4697 11.9988 12.5352C11.9941 12.6007 11.9766 12.6646 11.9472 12.7233L10.9472 14.7233C10.9058 14.8065 10.842 14.8765 10.763 14.9253C10.684 14.9742 10.5929 15 10.5 14.9999Z" fill="currentColor" style="fill-opacity:1"/>
<path d="M12.4004 4.56805C12.1874 3.5589 11.6339 2.65366 10.8328 2.00404C10.0317 1.35442 9.03165 0.999897 8.00026 0.999897C6.96887 0.999897 5.96883 1.35442 5.16773 2.00404C4.36663 2.65366 3.81317 3.5589 3.60011 4.56805C2.81104 4.72882 2.10981 5.17692 1.63242 5.82545C1.15504 6.47397 0.935537 7.27669 1.01649 8.07789C1.09745 8.87909 1.47309 9.62167 2.07056 10.1616C2.66803 10.7015 3.44473 11.0003 4.25001 10.9999H8.69091L8.05301 12.2763C8.02243 12.3351 8.00386 12.3995 7.99839 12.4656C7.99291 12.5316 8.00063 12.5982 8.0211 12.6612C8.04157 12.7243 8.07439 12.7827 8.11763 12.8329C8.16088 12.8832 8.21369 12.9244 8.273 12.954C8.33231 12.9837 8.39692 13.0013 8.46308 13.0057C8.52925 13.0102 8.59563 13.0014 8.65838 12.98C8.72113 12.9586 8.77899 12.9248 8.82858 12.8808C8.87818 12.8368 8.91852 12.7834 8.94726 12.7236L9.80886 10.9999H11.75C12.5553 11.0003 13.3319 10.7015 13.9294 10.1617C14.5269 9.62179 14.9025 8.87926 14.9836 8.07809C15.0646 7.27693 14.8452 6.47422 14.3679 5.82567C13.8906 5.17711 13.1894 4.72893 12.4004 4.56805ZM11.75 9.99995H4.25001C3.66891 10.0001 3.11029 9.77535 2.69126 9.37273C2.27224 8.97012 2.02534 8.42092 2.00232 7.84027C1.97931 7.25962 2.18196 6.6926 2.5678 6.25808C2.95364 5.82355 3.49272 5.55526 4.07201 5.50945L4.47976 5.4775L4.52931 5.0715C4.63314 4.22404 5.04342 3.44384 5.68279 2.87801C6.32217 2.31218 7.14647 1.99982 8.00026 1.99982C8.85406 1.99982 9.67836 2.31218 10.3177 2.87801C10.9571 3.44384 11.3674 4.22404 11.4712 5.0715L11.5205 5.4775L11.9282 5.50945C12.5075 5.55526 13.0466 5.82357 13.4325 6.25811C13.8183 6.69266 14.0209 7.2597 13.9979 7.84037C13.9749 8.42103 13.7279 8.97024 13.3089 9.37284C12.8898 9.77544 12.3311 10.0002 11.75 9.99995Z" fill="currentColor" style="fill-opacity:1"/>
</svg>
