<svg viewBox="0 0 16 16" fill="none" xmlns="http://www.w3.org/2000/svg">
<path d="M14 9.99999H13V11H14V14H2V11H3V9.99999H2C1.73488 10.0003 1.48071 10.1058 1.29324 10.2932C1.10578 10.4807 1.00032 10.7349 1 11V14C1.00032 14.2651 1.10578 14.5193 1.29324 14.7067C1.48071 14.8942 1.73488 14.9997 2 15H14C14.2651 14.9997 14.5193 14.8942 14.7068 14.7067C14.8942 14.5193 14.9997 14.2651 15 14V11C14.9997 10.7349 14.8942 10.4807 14.7068 10.2932C14.5193 10.1058 14.2651 10.0003 14 9.99999Z" fill="currentColor" style="fill-opacity:1"/>
<path d="M3.5 13C3.77614 13 4 12.7761 4 12.5C4 12.2238 3.77614 12 3.5 12C3.22386 12 3 12.2238 3 12.5C3 12.7761 3.22386 13 3.5 13Z" fill="currentColor" style="fill-opacity:1"/>
<path d="M8 11C7.92237 11 7.8458 10.9819 7.77635 10.9472L2.77635 8.44724L3.22365 7.55274L8 9.94104L12.7764 7.55274L13.2236 8.44724L8.22365 10.9472C8.1542 10.9819 8.07763 11 8 11Z" fill="currentColor" style="fill-opacity:1"/>
<path d="M8 7.99999C7.92237 8 7.8458 7.98194 7.77635 7.94724L2.77635 5.44724C2.69328 5.40572 2.62341 5.34189 2.57458 5.26289C2.52575 5.18389 2.49988 5.09286 2.49988 4.99999C2.49988 4.90712 2.52575 4.81608 2.57458 4.73709C2.62341 4.65809 2.69328 4.59426 2.77635 4.55274L7.77635 2.05274C7.8458 2.01804 7.92237 1.99998 8 1.99998C8.07763 1.99998 8.1542 2.01804 8.22365 2.05274L13.2236 4.55274C13.3067 4.59426 13.3766 4.65809 13.4254 4.73709C13.4743 4.81608 13.5001 4.90712 13.5001 4.99999C13.5001 5.09286 13.4743 5.18389 13.4254 5.26289C13.3766 5.34189 13.3067 5.40572 13.2236 5.44724L8.22365 7.94724C8.1542 7.98194 8.07763 8 8 7.99999ZM4.1179 4.99999L8 6.94104L11.8821 4.99999L8 3.05894L4.1179 4.99999Z" fill="currentColor" style="fill-opacity:1"/>
</svg>
