<svg viewBox="0 0 16 16" fill="none" xmlns="http://www.w3.org/2000/svg">
<path d="M8 10.5C9.38071 10.5 10.5 9.38074 10.5 8.00003C10.5 6.61932 9.38071 5.50003 8 5.50003C6.61929 5.50003 5.5 6.61932 5.5 8.00003C5.5 9.38074 6.61929 10.5 8 10.5Z" fill="currentColor" style="fill-opacity:1"/>
<path d="M3.85 2.35003C3.27651 2.79014 2.77107 3.31242 2.35 3.90003L3.15 4.50003C3.51724 3.99076 3.95494 3.53622 4.45 3.15003L3.85 2.35003Z" fill="currentColor" style="fill-opacity:1"/>
<path d="M2.3 6.15003L1.35 5.85003C1.10849 6.54071 0.990029 7.26841 0.999999 8.00003H2C1.99793 7.37109 2.09928 6.74609 2.3 6.15003Z" fill="currentColor" style="fill-opacity:1"/>
<path d="M1.35 10.2C1.5819 10.8972 1.91914 11.5549 2.35 12.15L3.15 11.55C2.78852 11.0439 2.50222 10.4882 2.3 9.90003L1.35 10.2Z" fill="currentColor" style="fill-opacity:1"/>
<path d="M3.9 13.65C4.49518 14.0809 5.15279 14.4181 5.85 14.65L6.15 13.7C5.56186 13.4978 5.00609 13.2115 4.5 12.85L3.9 13.65Z" fill="currentColor" style="fill-opacity:1"/>
<path d="M5.85 1.35003L6.15 2.30003C6.74606 2.09931 7.37106 1.99796 8 2.00003V1.00003C7.26838 0.99006 6.54068 1.10852 5.85 1.35003Z" fill="currentColor" style="fill-opacity:1"/>
<path d="M12.1 13.65C12.6889 13.2111 13.2111 12.689 13.65 12.1L12.85 11.5C12.4782 12.022 12.0219 12.4782 11.5 12.85L12.1 13.65Z" fill="currentColor" style="fill-opacity:1"/>
<path d="M13.7 9.85003L14.65 10.15C14.8675 9.45345 14.9853 8.72962 15 8.00003H14C14.0021 8.62897 13.9007 9.25397 13.7 9.85003Z" fill="currentColor" style="fill-opacity:1"/>
<path d="M14.6 5.80003C14.3681 5.10282 14.0309 4.44521 13.6 3.85003L12.8 4.45003C13.1615 4.95612 13.4478 5.51189 13.65 6.10003L14.6 5.80003Z" fill="currentColor" style="fill-opacity:1"/>
<path d="M12.05 2.30003C11.4548 1.86917 10.7972 1.53193 10.1 1.30003L9.8 2.25003C10.3881 2.45225 10.9439 2.73855 11.45 3.10003L12.05 2.30003Z" fill="currentColor" style="fill-opacity:1"/>
<path d="M10.15 14.65L9.85 13.7C9.25394 13.9007 8.62894 14.0021 8 14V15C8.7267 14.9567 9.44709 14.8395 10.15 14.65Z" fill="currentColor" style="fill-opacity:1"/>
</svg>
