<svg viewBox="0 0 16 16" fill="none" xmlns="http://www.w3.org/2000/svg">
<path d="M10 7.00002V6.00002H6.00001V7.00002H8.75001L6.00001 10V11H10V10H7.25351L10 7.00002Z" fill="currentColor" style="fill-opacity:1"/>
<path d="M12.2079 1.99983L11.5003 2.706L13.2917 4.50089L13.9993 3.79471L12.2079 1.99983Z" fill="currentColor" style="fill-opacity:1"/>
<path d="M8.00001 14C6.91221 14 5.84884 13.6775 4.94437 13.0731C4.0399 12.4688 3.33495 11.6098 2.91867 10.6048C2.50239 9.59979 2.39347 8.49392 2.60569 7.42703C2.81791 6.36013 3.34173 5.38012 4.11092 4.61094C4.88011 3.84175 5.86011 3.31792 6.92701 3.1057C7.9939 2.89348 9.09977 3.0024 10.1048 3.41869C11.1098 3.83497 11.9687 4.53992 12.5731 5.44439C13.1774 6.34886 13.5 7.41223 13.5 8.50002C13.4984 9.95821 12.9184 11.3562 11.8873 12.3873C10.8562 13.4184 9.45819 13.9984 8.00001 14ZM8.00001 4.00002C7.10999 4.00002 6.23996 4.26394 5.49994 4.75841C4.75992 5.25288 4.18314 5.95568 3.84255 6.77795C3.50195 7.60021 3.41284 8.50501 3.58647 9.37793C3.76011 10.2508 4.18869 11.0527 4.81803 11.682C5.44736 12.3113 6.24918 12.7399 7.1221 12.9136C7.99501 13.0872 8.89981 12.9981 9.72208 12.6575C10.5443 12.3169 11.2472 11.7401 11.7416 11.0001C12.2361 10.2601 12.5 9.39004 12.5 8.50002C12.4987 7.30695 12.0242 6.16313 11.1805 5.3195C10.3369 4.47588 9.19307 4.00135 8.00001 4.00002Z" fill="currentColor" style="fill-opacity:1"/>
<path d="M3.79219 1.9998L2.00077 3.79469L2.70832 4.50086L4.49973 2.70598L3.79219 1.9998Z" fill="currentColor" style="fill-opacity:1"/>
</svg>
