<svg viewBox="0 0 16 16" fill="none" xmlns="http://www.w3.org/2000/svg">
<g id="Icons / Snow--scattered--night" clip-path="url(#clip0_0_158)">
<g id="icon">
<path d="M1.99999 13.0001H0.999994V14.0001H1.99999V13.0001Z" fill="currentColor" style="fill-opacity:1"/>
<path d="M2.99999 14.0001H1.99999V15.0001H2.99999V14.0001Z" fill="currentColor" style="fill-opacity:1"/>
<path d="M3.99999 15.0001H2.99999V16.0001H3.99999V15.0001Z" fill="currentColor" style="fill-opacity:1"/>
<path d="M3.99999 13.0001H2.99999V14.0001H3.99999V13.0001Z" fill="currentColor" style="fill-opacity:1"/>
<path d="M1.99999 15.0001H0.999994V16.0001H1.99999V15.0001Z" fill="currentColor" style="fill-opacity:1"/>
<path d="M11 13.0001H9.99999V14.0001H11V13.0001Z" fill="currentColor" style="fill-opacity:1"/>
<path d="M12 14.0001H11V15.0001H12V14.0001Z" fill="currentColor" style="fill-opacity:1"/>
<path d="M13 15.0001H12V16.0001H13V15.0001Z" fill="currentColor" style="fill-opacity:1"/>
<path d="M13 13.0001H12V14.0001H13V13.0001Z" fill="currentColor" style="fill-opacity:1"/>
<path d="M11 15.0001H9.99999V16.0001H11V15.0001Z" fill="currentColor" style="fill-opacity:1"/>
<path d="M6.49999 13.0001H5.49999V14.0001H6.49999V13.0001Z" fill="currentColor" style="fill-opacity:1"/>
<path d="M7.49999 14.0001H6.49999V15.0001H7.49999V14.0001Z" fill="currentColor" style="fill-opacity:1"/>
<path d="M8.49999 15.0001H7.49999V16.0001H8.49999V15.0001Z" fill="currentColor" style="fill-opacity:1"/>
<path d="M8.49999 13.0001H7.49999V14.0001H8.49999V13.0001Z" fill="currentColor" style="fill-opacity:1"/>
<path d="M6.49999 15.0001H5.49999V16.0001H6.49999V15.0001Z" fill="currentColor" style="fill-opacity:1"/>
<path d="M14.9219 6.5174C14.8659 6.398 14.7797 6.29528 14.6719 6.21936C14.564 6.14344 14.4382 6.09696 14.3069 6.0845C13.6526 6.01762 13.0458 5.71224 12.6022 5.2266C12.2214 4.79859 11.9612 4.27707 11.8482 3.71545C11.7353 3.15382 11.7736 2.57226 11.9592 2.0303C12.0029 1.8995 12.0121 1.75962 11.9859 1.62421C11.9598 1.48879 11.8991 1.36243 11.8097 1.25735C11.7278 1.1605 11.6219 1.08678 11.5026 1.04353C11.3833 1.00028 11.2547 0.988993 11.1297 1.0108L11.1202 1.01275C10.4207 1.16143 9.77592 1.5003 9.25676 1.99203C8.73759 2.48375 8.36424 3.10925 8.17784 3.7996C7.72661 3.6056 7.24115 3.50375 6.74999 3.50005C5.95378 3.50434 5.17931 3.76024 4.53728 4.23117C3.89525 4.7021 3.41854 5.36394 3.17529 6.1221C2.47977 6.32024 1.87937 6.76325 1.4849 7.36939C1.09042 7.97553 0.928484 8.70389 1.02897 9.42007C1.12945 10.1363 1.48557 10.7919 2.03162 11.2661C2.57767 11.7403 3.2768 12.001 3.99999 12.0001H9.49999C10.2954 11.9992 11.0579 11.6828 11.6203 11.1204C12.1828 10.558 12.4991 9.79543 12.5 9.00005C12.5 8.9715 12.4938 8.9444 12.493 8.9158C12.9784 8.81353 13.4387 8.61608 13.8473 8.33487C14.2559 8.05365 14.6047 7.69423 14.8736 7.2774C14.947 7.16584 14.9901 7.03708 14.9985 6.90381C15.007 6.77054 14.9806 6.63736 14.9219 6.5174ZM9.49999 11.0001H3.99999C3.49918 11.0009 3.01633 10.8135 2.64723 10.475C2.27813 10.1365 2.04974 9.67168 2.00736 9.17266C1.96499 8.67364 2.11173 8.17693 2.41847 7.78104C2.72522 7.38516 3.16955 7.11903 3.66334 7.03545L3.99484 6.97905L4.06764 6.65095C4.20346 6.04081 4.54322 5.49521 5.03088 5.10417C5.51853 4.71313 6.12492 4.50003 6.74999 4.50003C7.37507 4.50003 7.98146 4.71313 8.46911 5.10417C8.95676 5.49521 9.29653 6.04081 9.43234 6.65095L9.50514 6.97905L9.83644 7.03545C10.3303 7.1189 10.7748 7.38496 11.0817 7.78085C11.3885 8.17673 11.5353 8.67351 11.493 9.17261C11.4506 9.6717 11.2222 10.1366 10.853 10.4752C10.4838 10.8137 10.0009 11.001 9.49999 11.0001ZM12.2987 7.9356C12.134 7.50027 11.8696 7.10953 11.5269 6.79464C11.1841 6.47974 10.7724 6.24942 10.3247 6.1221C10.0966 5.41522 9.66336 4.79215 9.08019 4.3321C9.16885 3.83718 9.38249 3.37313 9.70084 2.98396C10.0192 2.59479 10.4317 2.29343 10.8992 2.10845C10.7423 2.77285 10.7486 3.46537 10.9175 4.12682C11.0864 4.78827 11.413 5.39899 11.8692 5.9068C12.3884 6.47122 13.07 6.86041 13.82 7.02055C13.4293 7.48687 12.8937 7.809 12.2987 7.9356Z" fill="currentColor" style="fill-opacity:1"/>
</g>
</g>
<defs>
<clipPath id="clip0_0_158">
<rect width="16" height="16" fill="currentColor" style="fill-opacity:1"/>
</clipPath>
</defs>
</svg>
