<svg viewBox="0 0 16 16" fill="none" xmlns="http://www.w3.org/2000/svg">
<path d="M7.49999 4.99995H6.49999V5.99995H7.49999V4.99995Z" fill="currentColor" style="fill-opacity:1"/>
<path d="M8.49999 5.99995H7.49999V6.99995H8.49999V5.99995Z" fill="currentColor" style="fill-opacity:1"/>
<path d="M9.49999 6.99995H8.49999V7.99995H9.49999V6.99995Z" fill="currentColor" style="fill-opacity:1"/>
<path d="M9.49999 4.99995H8.49999V5.99995H9.49999V4.99995Z" fill="currentColor" style="fill-opacity:1"/>
<path d="M7.49999 6.99995H6.49999V7.99995H7.49999V6.99995Z" fill="currentColor" style="fill-opacity:1"/>
<path d="M2.49999 12.9999H1.49999V13.9999H2.49999V12.9999Z" fill="currentColor" style="fill-opacity:1"/>
<path d="M3.49999 13.9999H2.49999V14.9999H3.49999V13.9999Z" fill="currentColor" style="fill-opacity:1"/>
<path d="M4.49999 14.9999H3.49999V15.9999H4.49999V14.9999Z" fill="currentColor" style="fill-opacity:1"/>
<path d="M4.49999 12.9999H3.49999V13.9999H4.49999V12.9999Z" fill="currentColor" style="fill-opacity:1"/>
<path d="M2.49999 14.9999H1.49999V15.9999H2.49999V14.9999Z" fill="currentColor" style="fill-opacity:1"/>
<path d="M12.5 12.9999H11.5V13.9999H12.5V12.9999Z" fill="currentColor" style="fill-opacity:1"/>
<path d="M13.5 13.9999H12.5V14.9999H13.5V13.9999Z" fill="currentColor" style="fill-opacity:1"/>
<path d="M14.5 14.9999H13.5V15.9999H14.5V14.9999Z" fill="currentColor" style="fill-opacity:1"/>
<path d="M14.5 12.9999H13.5V13.9999H14.5V12.9999Z" fill="currentColor" style="fill-opacity:1"/>
<path d="M12.5 14.9999H11.5V15.9999H12.5V14.9999Z" fill="currentColor" style="fill-opacity:1"/>
<path d="M4.99999 8.99995H3.99999V9.99995H4.99999V8.99995Z" fill="currentColor" style="fill-opacity:1"/>
<path d="M5.99999 9.99995H4.99999V10.9999H5.99999V9.99995Z" fill="currentColor" style="fill-opacity:1"/>
<path d="M6.99999 10.9999H5.99999V11.9999H6.99999V10.9999Z" fill="currentColor" style="fill-opacity:1"/>
<path d="M6.99999 8.99995H5.99999V9.99995H6.99999V8.99995Z" fill="currentColor" style="fill-opacity:1"/>
<path d="M4.99999 10.9999H3.99999V11.9999H4.99999V10.9999Z" fill="currentColor" style="fill-opacity:1"/>
<path d="M9.99999 8.99995H8.99999V9.99995H9.99999V8.99995Z" fill="currentColor" style="fill-opacity:1"/>
<path d="M11 9.99995H9.99999V10.9999H11V9.99995Z" fill="currentColor" style="fill-opacity:1"/>
<path d="M12 10.9999H11V11.9999H12V10.9999Z" fill="currentColor" style="fill-opacity:1"/>
<path d="M12 8.99995H11V9.99995H12V8.99995Z" fill="currentColor" style="fill-opacity:1"/>
<path d="M9.99999 10.9999H8.99999V11.9999H9.99999V10.9999Z" fill="currentColor" style="fill-opacity:1"/>
<path d="M7.49999 12.9999H6.49999V13.9999H7.49999V12.9999Z" fill="currentColor" style="fill-opacity:1"/>
<path d="M8.49999 13.9999H7.49999V14.9999H8.49999V13.9999Z" fill="currentColor" style="fill-opacity:1"/>
<path d="M9.49999 14.9999H8.49999V15.9999H9.49999V14.9999Z" fill="currentColor" style="fill-opacity:1"/>
<path d="M9.49999 12.9999H8.49999V13.9999H9.49999V12.9999Z" fill="currentColor" style="fill-opacity:1"/>
<path d="M7.49999 14.9999H6.49999V15.9999H7.49999V14.9999Z" fill="currentColor" style="fill-opacity:1"/>
<path d="M12.4004 4.56805C12.1873 3.5589 11.6339 2.65366 10.8328 2.00404C10.0317 1.35442 9.03163 0.999897 8.00024 0.999897C6.96885 0.999897 5.96881 1.35442 5.16771 2.00404C4.36661 2.65366 3.81315 3.5589 3.60009 4.56805C2.91898 4.70668 2.3003 5.06017 1.83502 5.57655C1.36973 6.09294 1.08239 6.74497 1.01522 7.4368C0.948055 8.12863 1.10461 8.82376 1.46188 9.42C1.81914 10.0162 2.35826 10.4821 2.99999 10.7492V9.6192C2.61126 9.3599 2.31303 8.98586 2.1468 8.54914C1.98058 8.11243 1.95463 7.63475 2.07257 7.1826C2.19051 6.73045 2.44648 6.32631 2.80484 6.02642C3.1632 5.72654 3.60613 5.54583 4.07199 5.50945L4.47974 5.4775L4.52929 5.0715C4.63312 4.22404 5.04339 3.44384 5.68277 2.87801C6.32215 2.31218 7.14645 1.99982 8.00024 1.99982C8.85404 1.99982 9.67834 2.31218 10.3177 2.87801C10.9571 3.44384 11.3674 4.22404 11.4712 5.0715L11.5205 5.4775L11.9282 5.50945C12.394 5.54592 12.8368 5.72668 13.1951 6.02658C13.5534 6.32647 13.8093 6.73058 13.9272 7.18269C14.0451 7.63479 14.0192 8.11241 13.853 8.54909C13.6868 8.98576 13.3887 9.35978 13 9.6191V10.7491C13.6417 10.482 14.1807 10.0162 14.538 9.41998C14.8952 8.8238 15.0518 8.12874 14.9847 7.43696C14.9176 6.74519 14.6303 6.09318 14.1652 5.57678C13.7 5.06038 13.0814 4.70681 12.4004 4.56805Z" fill="currentColor" style="fill-opacity:1"/>
</svg>
