<svg viewBox="0 0 16 16" fill="none" xmlns="http://www.w3.org/2000/svg">
<path d="M11.75 11H4.24999C3.4482 10.9949 2.67658 10.6936 2.08349 10.154C1.4904 9.61444 1.1177 8.87466 1.03706 8.07691C0.956417 7.27916 1.17352 6.47976 1.64662 5.8324C2.11972 5.18504 2.81543 4.73541 3.59999 4.56997C3.81585 3.56323 4.37041 2.66096 5.17115 2.0137C5.97189 1.36645 6.97037 1.01337 7.99999 1.01337C9.02961 1.01337 10.0281 1.36645 10.8288 2.0137C11.6296 2.66096 12.1841 3.56323 12.4 4.56997C13.1846 4.73541 13.8803 5.18504 14.3534 5.8324C14.8265 6.47976 15.0436 7.27916 14.9629 8.07691C14.8823 8.87466 14.5096 9.61444 13.9165 10.154C13.3234 10.6936 12.5518 10.9949 11.75 11ZM7.99999 1.99997C7.14681 2.00082 6.32331 2.31328 5.68431 2.87862C5.04531 3.44397 4.63481 4.22325 4.52999 5.06997L4.49999 5.49997H4.06999C3.47326 5.52384 2.91044 5.78378 2.50536 6.22262C2.10029 6.66146 1.88613 7.24323 1.90999 7.83997C1.93386 8.43671 2.19381 8.99952 2.63264 9.4046C3.07148 9.80968 3.65326 10.0238 4.24999 9.99997H11.75C12.3467 10.0238 12.9285 9.80968 13.3673 9.4046C13.8062 8.99952 14.0661 8.43671 14.09 7.83997C14.1139 7.24323 13.8997 6.66146 13.4946 6.22262C13.0895 5.78378 12.5267 5.52384 11.93 5.49997H11.5L11.45 5.08997C11.3501 4.24303 10.9444 3.46169 10.3092 2.89272C9.67393 2.32374 8.85278 2.00628 7.99999 1.99997Z" fill="currentColor" style="fill-opacity:1"/>
<path d="M5.99999 12.525L5.47499 12L4.74999 12.725L4.02499 12L3.49999 12.525L4.22499 13.25L3.49999 13.975L4.02499 14.5L4.74999 13.775L5.47499 14.5L5.99999 13.975L5.27499 13.25L5.99999 12.525Z" fill="currentColor" style="fill-opacity:1"/>
<path d="M13 12.525L12.475 12L11.75 12.725L11.025 12L10.5 12.525L11.225 13.25L10.5 13.975L11.025 14.5L11.75 13.775L12.475 14.5L13 13.975L12.275 13.25L13 12.525Z" fill="currentColor" style="fill-opacity:1"/>
<path d="M9.49999 13.525L8.97499 13L8.24999 13.725L7.52499 13L6.99999 13.525L7.72499 14.25L6.99999 14.975L7.52499 15.5L8.24999 14.775L8.97499 15.5L9.49999 14.975L8.77499 14.25L9.49999 13.525Z" fill="currentColor" style="fill-opacity:1"/>
</svg>
