<svg viewBox="0 0 16 16" fill="none" xmlns="http://www.w3.org/2000/svg">
<path d="M1.99999 13H0.999994V14H1.99999V13Z" fill="currentColor" style="fill-opacity:1"/>
<path d="M2.99999 14H1.99999V15H2.99999V14Z" fill="currentColor" style="fill-opacity:1"/>
<path d="M3.99999 15H2.99999V16H3.99999V15Z" fill="currentColor" style="fill-opacity:1"/>
<path d="M3.99999 13H2.99999V14H3.99999V13Z" fill="currentColor" style="fill-opacity:1"/>
<path d="M1.99999 15H0.999994V16H1.99999V15Z" fill="currentColor" style="fill-opacity:1"/>
<path d="M11 13H9.99999V14H11V13Z" fill="currentColor" style="fill-opacity:1"/>
<path d="M12 14H11V15H12V14Z" fill="currentColor" style="fill-opacity:1"/>
<path d="M13 15H12V16H13V15Z" fill="currentColor" style="fill-opacity:1"/>
<path d="M13 13H12V14H13V13Z" fill="currentColor" style="fill-opacity:1"/>
<path d="M11 15H9.99999V16H11V15Z" fill="currentColor" style="fill-opacity:1"/>
<path d="M6.49999 13H5.49999V14H6.49999V13Z" fill="currentColor" style="fill-opacity:1"/>
<path d="M7.49999 14H6.49999V15H7.49999V14Z" fill="currentColor" style="fill-opacity:1"/>
<path d="M8.49999 15H7.49999V16H8.49999V15Z" fill="currentColor" style="fill-opacity:1"/>
<path d="M8.49999 13H7.49999V14H8.49999V13Z" fill="currentColor" style="fill-opacity:1"/>
<path d="M6.49999 15H5.49999V16H6.49999V15Z" fill="currentColor" style="fill-opacity:1"/>
<path d="M11 0H9.99999V1.5H11V0Z" fill="currentColor" style="fill-opacity:1"/>
<path d="M16 5.00035H14.5V6.00035H16V5.00035Z" fill="currentColor" style="fill-opacity:1"/>
<path d="M14.2928 1.50031L13.2322 2.56097L13.9393 3.26808L15 2.20742L14.2928 1.50031Z" fill="currentColor" style="fill-opacity:1"/>
<path d="M13.2322 8.43968L14.2929 9.50034L15 8.79324L13.9393 7.73258L13.2322 8.43968Z" fill="currentColor" style="fill-opacity:1"/>
<path d="M5.99994 2.20744L7.0606 3.2681L7.76771 2.56099L6.70705 1.50033L5.99994 2.20744Z" fill="currentColor" style="fill-opacity:1"/>
<path d="M13.5 5.5C13.5016 4.86523 13.3012 4.24641 12.928 3.73297C12.5548 3.21953 12.0279 2.83807 11.4236 2.64372C10.8194 2.44938 10.1689 2.45221 9.56635 2.65182C8.96378 2.85143 8.44029 3.23747 8.07154 3.75415C7.65035 3.58907 7.20237 3.50292 6.74999 3.5C5.95378 3.50429 5.17931 3.76019 4.53728 4.23112C3.89525 4.70205 3.41854 5.36389 3.17529 6.12205C2.47977 6.32019 1.87937 6.7632 1.4849 7.36934C1.09042 7.97547 0.928484 8.70383 1.02897 9.42002C1.12945 10.1362 1.48557 10.7919 2.03162 11.2661C2.57767 11.7402 3.2768 12.0009 3.99999 12H9.49999C9.98972 12.0027 10.4726 11.8848 10.906 11.6568C11.3394 11.4287 11.71 11.0974 11.985 10.6922C12.2601 10.287 12.4312 9.82038 12.4832 9.33341C12.5352 8.84644 12.4666 8.35416 12.2833 7.9C12.6598 7.62307 12.966 7.26165 13.1773 6.84481C13.3886 6.42796 13.4992 5.96734 13.5 5.5ZM9.49999 11H3.99999C3.49918 11.0009 3.01633 10.8135 2.64723 10.475C2.27813 10.1365 2.04974 9.67163 2.00736 9.17261C1.96499 8.67359 2.11173 8.17687 2.41847 7.78099C2.72522 7.38511 3.16955 7.11898 3.66334 7.0354L3.99484 6.979L4.06764 6.6509C4.20346 6.04076 4.54322 5.49516 5.03088 5.10412C5.51853 4.71308 6.12492 4.49998 6.74999 4.49998C7.37507 4.49998 7.98146 4.71308 8.46911 5.10412C8.95676 5.49516 9.29653 6.04076 9.43234 6.6509L9.50514 6.979L9.83644 7.0354C10.3303 7.11884 10.7748 7.38491 11.0817 7.7808C11.3885 8.17668 11.5353 8.67346 11.493 9.17256C11.4506 9.67165 11.2222 10.1366 10.853 10.4751C10.4838 10.8136 10.0009 11.001 9.49999 11ZM11.7611 7.04345C11.3824 6.60284 10.8831 6.28257 10.3247 6.12205C10.0824 5.36387 9.60581 4.70212 8.96349 4.23205C9.1401 4.01613 9.36005 3.83967 9.60914 3.71409C9.85822 3.58851 10.1309 3.51661 10.4095 3.50303C10.6881 3.48945 10.9665 3.5345 11.2266 3.63525C11.4867 3.73601 11.7228 3.89024 11.9196 4.08797C12.1163 4.28569 12.2694 4.52252 12.3689 4.78312C12.4684 5.04372 12.5121 5.3223 12.4971 5.60085C12.4822 5.8794 12.409 6.15172 12.2822 6.40019C12.1554 6.64865 11.9779 6.8679 11.7611 7.04345Z" fill="currentColor" style="fill-opacity:1"/>
</svg>
