<svg viewBox="0 0 16 16" fill="none" xmlns="http://www.w3.org/2000/svg">
<path d="M12.5 15C11.9758 15.0015 11.4644 14.8378 11.0386 14.532C10.6128 14.2262 10.2942 13.794 10.1281 13.2968C9.96198 12.7996 9.95682 12.2627 10.1134 11.7624C10.2699 11.2621 10.5801 10.8239 11 10.51V7.5C11 7.10217 11.158 6.72064 11.4393 6.43934C11.7206 6.15803 12.1022 6 12.5 6C12.8978 6 13.2794 6.15803 13.5607 6.43934C13.842 6.72064 14 7.10217 14 7.5V10.51C14.4199 10.8239 14.7301 11.2621 14.8866 11.7624C15.0432 12.2627 15.038 12.7996 14.8719 13.2968C14.7058 13.794 14.3872 14.2262 13.9614 14.532C13.5356 14.8378 13.0242 15.0015 12.5 15ZM12.5 7C12.3674 7.00014 12.2403 7.05287 12.1466 7.1466C12.0529 7.24034 12.0001 7.36743 12 7.5V11.065L11.7514 11.2096C11.5233 11.3391 11.3336 11.5267 11.2016 11.7534C11.0696 11.9801 11 12.2377 11 12.5C11 12.8978 11.158 13.2794 11.4393 13.5607C11.7206 13.842 12.1022 14 12.5 14C12.8978 14 13.2794 13.842 13.5607 13.5607C13.842 13.2794 14 12.8978 14 12.5C14 12.2377 13.9305 11.98 13.7985 11.7533C13.6665 11.5266 13.4767 11.3389 13.2486 11.2094L13 11.065V7.5C12.9999 7.36743 12.9471 7.24034 12.8534 7.1466C12.7597 7.05287 12.6326 7.00014 12.5 7Z" fill="currentColor" style="fill-opacity:1"/>
<path d="M8 12H7C6.99677 11.1823 7.16225 10.3728 7.48609 9.62199C7.80993 8.87118 8.28517 8.19525 8.8821 7.63645L9.5686 8.36355C9.07112 8.82923 8.67505 9.39253 8.40516 10.0182C8.13526 10.6439 7.99733 11.3186 8 12Z" fill="currentColor" style="fill-opacity:1"/>
<path d="M5.5 12H4.5C4.50254 9.74644 5.39889 7.5859 6.9924 5.99239C8.58591 4.39889 10.7464 3.50254 13 3.5H15V4.5H13C11.0116 4.50225 9.10522 5.29314 7.69918 6.69918C6.29315 8.10521 5.50225 10.0116 5.5 12Z" fill="currentColor" style="fill-opacity:1"/>
<path d="M13 0.999996C10.8683 0.998147 8.78266 1.61959 6.99965 2.78785C5.21692 1.61955 3.13144 0.998094 1 0.999996V2C2.80745 1.99704 4.58148 2.48713 6.1311 3.4175C5.72033 3.74687 5.33356 4.10511 4.97375 4.4895C3.74959 3.84077 2.38543 3.50108 1 3.5V4.5C2.1474 4.49981 3.27958 4.76264 4.30955 5.2683C3.997 5.67099 3.71272 6.09486 3.45875 6.53685C2.68618 6.18655 1.84827 6.0036 1 6V7C1.68914 7.00074 2.37051 7.14561 3.00035 7.4253C2.34033 8.86002 1.99905 10.4207 2 12H3C3.00299 9.34875 4.05752 6.80695 5.93224 4.93223C7.80695 3.05752 10.3488 2.00299 13 2H15V0.999996H13Z" fill="currentColor" style="fill-opacity:1"/>
</svg>
