<svg viewBox="0 0 16 16" fill="none" xmlns="http://www.w3.org/2000/svg">
<path d="M12.5 15C12.0611 15.0247 11.624 14.9266 11.2377 14.7169C10.8514 14.5072 10.5311 14.194 10.3127 13.8125C10.0943 13.431 9.98642 12.9962 10.0012 12.5569C10.0159 12.1175 10.1527 11.691 10.3962 11.325L12.0806 8.7279C12.126 8.65795 12.1881 8.60045 12.2614 8.56065C12.3346 8.52085 12.4167 8.5 12.5001 8.5C12.5835 8.5 12.6655 8.52085 12.7388 8.56065C12.812 8.60045 12.8742 8.65795 12.9195 8.7279L14.5772 11.2829C14.8419 11.6764 14.9886 12.1374 15 12.6115C14.9841 13.2594 14.7121 13.8746 14.2435 14.3223C13.7749 14.77 13.1479 15.0137 12.5 15ZM12.5 9.91855L11.2461 11.8516C11.1434 12.0452 11.0855 12.2593 11.0767 12.4782C11.0678 12.6971 11.1082 12.9152 11.195 13.1164C11.2817 13.3176 11.4125 13.4968 11.5777 13.6407C11.7429 13.7846 11.9383 13.8896 12.1495 13.9478C12.3607 14.0061 12.5823 14.0162 12.7979 13.9774C13.0135 13.9386 13.2177 13.8519 13.3953 13.7236C13.5729 13.5953 13.7195 13.4288 13.8241 13.2363C13.9288 13.0439 13.9889 12.8304 14 12.6115C13.9892 12.3236 13.8946 12.0451 13.7278 11.8101L12.5 9.91855Z" fill="currentColor" style="fill-opacity:1"/>
<path d="M5.5 12H4.5C4.50254 9.74644 5.39889 7.5859 6.9924 5.99239C8.58591 4.39889 10.7464 3.50254 13 3.5H15V4.5H13C11.0116 4.50225 9.10522 5.29314 7.69918 6.69918C6.29315 8.10521 5.50225 10.0116 5.5 12Z" fill="currentColor" style="fill-opacity:1"/>
<path d="M8 12H7C7.00181 10.4093 7.63454 8.88418 8.75936 7.75936C9.88419 6.63453 11.4093 6.00181 13 6H15V7H13C11.6744 7.00149 10.4035 7.52876 9.46612 8.46611C8.52876 9.40347 8.0015 10.6744 8 12Z" fill="currentColor" style="fill-opacity:1"/>
<path d="M13 0.999996C10.8683 0.998147 8.78266 1.61959 6.99965 2.78785C5.21692 1.61955 3.13144 0.998094 1 0.999996V2C2.80745 1.99704 4.58148 2.48713 6.1311 3.4175C5.72033 3.74687 5.33356 4.10511 4.97375 4.4895C3.74959 3.84077 2.38543 3.50108 1 3.5V4.5C2.1474 4.49981 3.27958 4.76264 4.30955 5.2683C3.997 5.67099 3.71272 6.09486 3.45875 6.53685C2.68618 6.18655 1.84827 6.0036 1 6V7C1.68914 7.00074 2.37051 7.14561 3.00035 7.4253C2.34033 8.86002 1.99905 10.4207 2 12H3C3.00299 9.34875 4.05752 6.80695 5.93224 4.93223C7.80695 3.05752 10.3488 2.00299 13 2H15V0.999996H13Z" fill="currentColor" style="fill-opacity:1"/>
</svg>
