<svg viewBox="0 0 16 16" fill="none" xmlns="http://www.w3.org/2000/svg">
<path d="M1.5 5.5V6.5H4.295L1.145 9.645L1.855 10.355L5 7.205V10H6V5.5H1.5Z" fill="currentColor" style="fill-opacity:1"/>
<path d="M13 6.5H11.5V6H10.5V6.5H9C8.73479 6.5 8.48043 6.60536 8.2929 6.79289C8.10536 6.98043 8 7.23478 8 7.5V8.5C8 8.76522 8.10536 9.01957 8.2929 9.20711C8.48043 9.39464 8.73479 9.5 9 9.5H10.5V10H11.5V9.5H13C13.2652 9.5 13.5196 9.39464 13.7071 9.20711C13.8946 9.01957 14 8.76522 14 8.5V7.5C14 7.23478 13.8946 6.98043 13.7071 6.79289C13.5196 6.60536 13.2652 6.5 13 6.5ZM9 8.5V7.5H13V8.5H9Z" fill="currentColor" style="fill-opacity:1"/>
<path d="M13 11.5H11.5V11H10.5V11.5H9C8.73479 11.5 8.48043 11.6054 8.2929 11.7929C8.10536 11.9804 8 12.2348 8 12.5V13.5C8 13.7652 8.10536 14.0196 8.2929 14.2071C8.48043 14.3946 8.73479 14.5 9 14.5H10.5V15H11.5V14.5H13C13.2652 14.5 13.5196 14.3946 13.7071 14.2071C13.8946 14.0196 14 13.7652 14 13.5V12.5C14 12.2348 13.8946 11.9804 13.7071 11.7929C13.5196 11.6054 13.2652 11.5 13 11.5ZM9 13.5V12.5H13V13.5H9Z" fill="currentColor" style="fill-opacity:1"/>
<path d="M13 1.5H11.5V1H10.5V1.5H9C8.73479 1.5 8.48043 1.60536 8.2929 1.79289C8.10536 1.98043 8 2.23478 8 2.5V3.5C8 3.76522 8.10536 4.01957 8.2929 4.20711C8.48043 4.39464 8.73479 4.5 9 4.5H10.5V5H11.5V4.5H13C13.2652 4.5 13.5196 4.39464 13.7071 4.20711C13.8946 4.01957 14 3.76522 14 3.5V2.5C14 2.23478 13.8946 1.98043 13.7071 1.79289C13.5196 1.60536 13.2652 1.5 13 1.5ZM9 3.5V2.5H13V3.5H9Z" fill="currentColor" style="fill-opacity:1"/>
</svg>
