<svg viewBox="0 0 16 16" fill="none" xmlns="http://www.w3.org/2000/svg">
<path d="M8.5 10H7.5V12H8.5V10Z" fill="currentColor" style="fill-opacity:1"/>
<path d="M8.5 7H7.5V9H8.5V7Z" fill="currentColor" style="fill-opacity:1"/>
<path d="M8.5 4H7.5V6H8.5V4Z" fill="currentColor" style="fill-opacity:1"/>
<path d="M14 8C13.9977 6.49637 13.4314 5.04831 12.413 3.94206C11.3947 2.8358 9.9983 2.15185 8.5 2.0254V1H7.5V2.0254C6.00069 2.1494 4.6028 2.83259 3.58379 3.93936C2.56478 5.04613 1.99915 6.49557 1.99915 8C1.99915 9.50443 2.56478 10.9539 3.58379 12.0606C4.6028 13.1674 6.00069 13.8506 7.5 13.9746V15H8.5V13.9746C9.9983 13.8482 11.3947 13.1642 12.413 12.0579C13.4314 10.9517 13.9977 9.50363 14 8ZM8 13C7.01109 13 6.04439 12.7068 5.22215 12.1573C4.3999 11.6079 3.75904 10.827 3.3806 9.91342C3.00216 8.99979 2.90315 7.99445 3.09607 7.02455C3.289 6.05464 3.7652 5.16373 4.46447 4.46447C5.16373 3.7652 6.05464 3.289 7.02455 3.09607C7.99445 2.90315 8.99979 3.00216 9.91342 3.3806C10.827 3.75904 11.6079 4.3999 12.1573 5.22215C12.7068 6.04439 13 7.01109 13 8C12.9985 9.32562 12.4712 10.5965 11.5339 11.5339C10.5965 12.4712 9.32562 12.9985 8 13Z" fill="currentColor" style="fill-opacity:1"/>
</svg>
