<svg viewBox="0 0 16 16" fill="none" xmlns="http://www.w3.org/2000/svg">
<path id="icon" d="M13 9.00004H10V7.44914C10.0138 6.76596 10.2141 6.09956 10.5794 5.52204C10.9469 4.9049 11.0797 4.17601 10.9536 3.46889C10.8275 2.76178 10.4508 2.12377 9.8926 1.67174C9.48967 1.34324 9.00826 1.12514 8.4956 1.03886C7.98294 0.952574 7.45665 1.00106 6.96839 1.17957C6.48013 1.35807 6.04667 1.66046 5.71055 2.05705C5.37442 2.45365 5.14719 2.93082 5.05115 3.44174C4.9132 4.15987 5.04642 4.90364 5.42505 5.52924C5.78392 6.08757 5.98279 6.73364 6 7.39714V9.00004H3C2.73486 9.0003 2.48066 9.10574 2.29319 9.29322C2.10571 9.4807 2.00026 9.7349 2 10V12C2.00033 12.2652 2.10579 12.5193 2.29326 12.7068C2.48072 12.8942 2.73489 12.9997 3 13V14C3.00033 14.2652 3.10579 14.5193 3.29326 14.7068C3.48072 14.8942 3.73489 14.9997 4 15H12C12.2651 14.9997 12.5193 14.8942 12.7067 14.7068C12.8942 14.5193 12.9997 14.2652 13 14V13C13.2651 12.9997 13.5193 12.8942 13.7067 12.7068C13.8942 12.5193 13.9997 12.2652 14 12V10C13.9997 9.7349 13.8943 9.4807 13.7068 9.29322C13.5193 9.10574 13.2651 9.0003 13 9.00004ZM6.035 3.62204C6.08874 3.335 6.2047 3.06321 6.37472 2.82578C6.54474 2.58835 6.7647 2.39104 7.01914 2.24772C7.27358 2.10439 7.55633 2.01854 7.8475 1.99619C8.13867 1.97384 8.4312 2.01553 8.70454 2.11834C8.97787 2.22115 9.22537 2.38257 9.42964 2.59127C9.63391 2.79997 9.78999 3.05088 9.88691 3.32636C9.98383 3.60183 10.0192 3.89519 9.99064 4.18582C9.96205 4.47645 9.87015 4.75728 9.7214 5.00859C9.34972 5.61437 9.11485 6.29403 9.0332 7.00004H6.97C6.89124 6.29486 6.6562 5.61611 6.282 5.01324C6.03032 4.59606 5.94231 4.10036 6.035 3.62204V3.62204ZM9 8.00004V9.00004H7V8.00004H9ZM12 14H4V13H12V14ZM3 12V10H13V12H3Z" fill="currentColor" style="fill-opacity:1"/>
</svg>
