<svg viewBox="0 0 16 16" fill="none" xmlns="http://www.w3.org/2000/svg">
<path id="icon" d="M7.99999 3.26L9.37999 6.05L9.60998 6.55L10.11 6.625L13.19 7.07L11 9.22L10.625 9.585L10.715 10.085L11.24 13.15L8.48499 11.705L7.99999 11.5L7.53499 11.745L4.77999 13.17L5.27999 10.105L5.36999 9.605L4.99999 9.22L2.78999 7.045L5.86999 6.6L6.36999 6.525L6.59999 6.025L7.99999 3.26ZM7.99999 1L5.72499 5.61L0.639985 6.345L4.31999 9.935L3.44999 15L7.99999 12.61L12.55 15L11.68 9.935L15.36 6.35L10.275 5.61L7.99999 1Z" fill="currentColor" style="fill-opacity:1"/>
</svg>
