<svg viewBox="0 0 16 16" fill="none" xmlns="http://www.w3.org/2000/svg">
<path d="M10.5 14.207L8 11.7065L8.7065 11L10.5 12.793L14.2925 9L15 9.7075L10.5 14.207Z" fill="currentColor" style="fill-opacity:1"/>
<path d="M6 7.795L4.705 6.5L4 7.205L6 9.205L9.5 5.705L8.795 5L6 7.795Z" fill="currentColor" style="fill-opacity:1"/>
<path d="M5.90965 12.9011C4.74409 12.6847 3.66882 12.1277 2.81973 11.3004C1.97063 10.4732 1.38582 9.41277 1.13919 8.25323C0.892565 7.0937 0.99519 5.88708 1.4341 4.78585C1.87301 3.68462 2.6285 2.73821 3.60511 2.06622C4.58172 1.39422 5.73561 1.0268 6.92097 1.01039C8.10633 0.993972 9.26995 1.3293 10.2648 1.97399C11.2596 2.61869 12.0411 3.54381 12.5103 4.63246C12.9795 5.72112 13.1155 6.92443 12.9011 8.09035L11.9177 7.90965C12.0975 6.93717 11.9849 5.93322 11.5941 5.02473C11.2034 4.11624 10.552 3.34403 9.72239 2.80572C8.89278 2.26741 7.92217 1.98719 6.9333 2.00049C5.94443 2.01378 4.98171 2.32 4.16687 2.88042C3.35202 3.44084 2.72165 4.2303 2.35546 5.14896C1.98928 6.06763 1.90371 7.07425 2.10959 8.04154C2.31548 9.00883 2.80356 9.89335 3.51212 10.5833C4.22069 11.2732 5.11791 11.7375 6.09035 11.9175L5.90965 12.9011Z" fill="currentColor" style="fill-opacity:1"/>
</svg>
