<svg viewBox="0 0 16 16" fill="none" xmlns="http://www.w3.org/2000/svg">
<path d="M12 15C11.4067 15 10.8266 14.8241 10.3333 14.4944C9.83994 14.1648 9.45542 13.6962 9.22836 13.148C9.0013 12.5999 8.94189 11.9967 9.05764 11.4147C9.1734 10.8328 9.45912 10.2982 9.87868 9.87868C10.2982 9.45912 10.8328 9.1734 11.4147 9.05764C11.9967 8.94189 12.5999 9.0013 13.148 9.22836C13.6962 9.45542 14.1648 9.83994 14.4944 10.3333C14.8241 10.8266 15 11.4067 15 12C14.9991 12.7954 14.6828 13.5579 14.1203 14.1203C13.5579 14.6828 12.7954 14.9991 12 15ZM12 10C11.6044 10 11.2178 10.1173 10.8889 10.3371C10.56 10.5568 10.3036 10.8692 10.1522 11.2346C10.0009 11.6001 9.96126 12.0022 10.0384 12.3902C10.1156 12.7781 10.3061 13.1345 10.5858 13.4142C10.8655 13.6939 11.2219 13.8844 11.6098 13.9616C11.9978 14.0387 12.3999 13.9991 12.7654 13.8478C13.1308 13.6964 13.4432 13.44 13.6629 13.1111C13.8827 12.7822 14 12.3956 14 12C13.9994 11.4697 13.7885 10.9614 13.4136 10.5864C13.0386 10.2115 12.5302 10.0006 12 10Z" fill="currentColor" style="fill-opacity:1"/>
<path d="M6 7.795L4.705 6.5L4 7.205L6 9.205L9.5 5.705L8.795 5L6 7.795Z" fill="currentColor" style="fill-opacity:1"/>
<path d="M7 12C6.01109 12 5.04439 11.7068 4.22215 11.1573C3.3999 10.6079 2.75904 9.82705 2.3806 8.91342C2.00216 7.99979 1.90315 6.99445 2.09607 6.02455C2.289 5.05464 2.7652 4.16373 3.46447 3.46447C4.16373 2.7652 5.05464 2.289 6.02455 2.09607C6.99445 1.90315 7.99979 2.00216 8.91342 2.3806C9.82705 2.75904 10.6079 3.3999 11.1573 4.22215C11.7068 5.04439 12 6.01109 12 7H13C13 5.81331 12.6481 4.65327 11.9888 3.66658C11.3295 2.67988 10.3925 1.91085 9.2961 1.45672C8.19974 1.0026 6.99334 0.883777 5.82946 1.11529C4.66557 1.3468 3.59647 1.91824 2.75736 2.75736C1.91824 3.59647 1.3468 4.66557 1.11529 5.82946C0.883777 6.99334 1.0026 8.19974 1.45672 9.2961C1.91085 10.3925 2.67988 11.3295 3.66658 11.9888C4.65327 12.6481 5.81331 13 7 13V12Z" fill="currentColor" style="fill-opacity:1"/>
</svg>
