<svg viewBox="0 0 16 16" fill="none" xmlns="http://www.w3.org/2000/svg">
<path d="M11.5 15H10.5V14C10.4996 13.6023 10.3414 13.221 10.0602 12.9398C9.77897 12.6586 9.39769 12.5004 9 12.5H7C6.60231 12.5004 6.22103 12.6586 5.93982 12.9398C5.65861 13.221 5.50044 13.6023 5.5 14V15H4.5V14C4.50078 13.3372 4.76442 12.7017 5.2331 12.2331C5.70177 11.7644 6.3372 11.5007 7 11.5H9C9.6628 11.5007 10.2982 11.7644 10.7669 12.2331C11.2356 12.7017 11.4992 13.3372 11.5 14V15Z" fill="currentColor" style="fill-opacity:1"/>
<path d="M8 6.49997C8.29667 6.49997 8.58668 6.58794 8.83335 6.75276C9.08003 6.91759 9.27229 7.15185 9.38582 7.42594C9.49935 7.70003 9.52906 8.00163 9.47118 8.2926C9.4133 8.58358 9.27044 8.85085 9.06066 9.06063C8.85088 9.27041 8.58361 9.41327 8.29264 9.47115C8.00166 9.52902 7.70006 9.49932 7.42597 9.38579C7.15189 9.27226 6.91762 9.08 6.7528 8.83332C6.58797 8.58665 6.5 8.29664 6.5 7.99997C6.5 7.60214 6.65804 7.22061 6.93934 6.93931C7.22064 6.658 7.60218 6.49997 8 6.49997ZM8 5.49997C7.50555 5.49997 7.0222 5.64659 6.61107 5.9213C6.19995 6.196 5.87952 6.58645 5.6903 7.04326C5.50108 7.50008 5.45157 8.00274 5.54804 8.4877C5.6445 8.97265 5.8826 9.4181 6.23223 9.76774C6.58186 10.1174 7.02732 10.3555 7.51227 10.4519C7.99723 10.5484 8.49989 10.4989 8.95671 10.3097C9.41352 10.1204 9.80397 9.80002 10.0787 9.38889C10.3534 8.97777 10.5 8.49442 10.5 7.99997C10.5 7.33693 10.2366 6.70104 9.76777 6.2322C9.29893 5.76336 8.66304 5.49997 8 5.49997Z" fill="currentColor" style="fill-opacity:1"/>
<path d="M15 15H14V7.23192L8 2.15497L2 7.23192V15H1V6.99997C0.999995 6.92731 1.01583 6.85552 1.0464 6.7896C1.07696 6.72367 1.12153 6.66521 1.177 6.61827L7.677 1.11827C7.76728 1.04186 7.88173 0.999937 8 0.999937C8.11827 0.999937 8.23272 1.04186 8.323 1.11827L14.823 6.61827C14.8785 6.66521 14.923 6.72367 14.9536 6.7896C14.9842 6.85552 15 6.92731 15 6.99997V15Z" fill="currentColor" style="fill-opacity:1"/>
</svg>
