<svg viewBox="0 0 16 16" fill="none" xmlns="http://www.w3.org/2000/svg">
<path id="icon" d="M10.2928 14.5H5.70715C5.57576 14.5004 5.4456 14.4747 5.32422 14.4244C5.20283 14.3741 5.09263 14.3002 5 14.207L1.79295 11C1.69977 10.9074 1.6259 10.7972 1.57562 10.6758C1.52533 10.5544 1.49963 10.4242 1.5 10.2928V5.70715C1.49963 5.57576 1.52533 5.4456 1.57562 5.32422C1.6259 5.20283 1.69977 5.09263 1.79295 5L5 1.79295C5.09263 1.69977 5.20283 1.6259 5.32422 1.57562C5.4456 1.52533 5.57576 1.49963 5.70715 1.5H10.2928C10.4242 1.49963 10.5544 1.52533 10.6758 1.57562C10.7972 1.6259 10.9074 1.69977 11 1.79295L14.207 5C14.3002 5.09263 14.3741 5.20283 14.4244 5.32422C14.4747 5.4456 14.5004 5.57576 14.5 5.70715V10.2928C14.5004 10.4242 14.4747 10.5544 14.4244 10.6758C14.3741 10.7972 14.3002 10.9074 14.207 11L11 14.207C10.9074 14.3002 10.7972 14.3741 10.6758 14.4244C10.5544 14.4747 10.4242 14.5004 10.2928 14.5V14.5ZM5.70705 2.5L2.5 5.70705V10.2928L5.70705 13.5H10.2928L13.5 10.2929V5.70715L10.2929 2.5H5.70705Z" fill="currentColor" style="fill-opacity:1"/>
</svg>
