<svg viewBox="0 0 16 16" fill="none" xmlns="http://www.w3.org/2000/svg">
<path d="M5.5 5H4.5V6H5.5V5Z" fill="currentColor" style="fill-opacity:1"/>
<path d="M5.5 7H4.5V8H5.5V7Z" fill="currentColor" style="fill-opacity:1"/>
<path d="M7.5 6H6.5V7H7.5V6Z" fill="currentColor" style="fill-opacity:1"/>
<path d="M4.5 14C4.3755 14 4.25116 13.9909 4.12795 13.973C3.52864 13.8731 2.98478 13.5623 2.59455 13.0966C2.20433 12.6309 1.99346 12.041 2 11.4334V5.59925C1.99329 4.71861 2.31135 3.86638 2.89338 3.20546C3.47541 2.54454 4.28058 2.12129 5.155 2.0166C5.93818 1.93747 6.72505 2.12617 7.38715 2.5519L11.3716 5.04225C11.8985 5.37452 12.3269 5.84176 12.6122 6.39547C12.8976 6.94919 13.0296 7.56919 12.9945 8.19113C12.9593 8.81307 12.7584 9.41428 12.4125 9.93234C12.0666 10.4504 11.5883 10.8664 11.0273 11.1372L5.5873 13.7515C5.24834 13.9155 4.87657 14.0005 4.5 14ZM5.501 3C5.4182 3 5.33479 3.00402 5.25075 3.01205C4.62318 3.09125 4.04676 3.39884 3.63159 3.87607C3.21641 4.35331 2.99157 4.96675 3 5.59925V11.4334C2.99241 11.801 3.11638 12.1592 3.34957 12.4434C3.58275 12.7276 3.90981 12.9191 4.27175 12.9834C4.57209 13.0287 4.8791 12.9826 5.15285 12.851L10.5943 10.236C10.9942 10.0425 11.3351 9.74557 11.5815 9.37596C11.828 9.00635 11.9712 8.57753 11.9961 8.13397C12.021 7.6904 11.9268 7.24824 11.7233 6.85334C11.5198 6.45844 11.2143 6.12517 10.8386 5.8881L6.8523 3.39675C6.44957 3.13692 5.98028 2.99914 5.501 3Z" fill="currentColor" style="fill-opacity:1"/>
<path d="M13 3.5H11C10.4698 3.4994 9.96139 3.2885 9.58645 2.91356C9.2115 2.53861 9.0006 2.03025 9 1.5V1H10V1.5C10.0003 1.76513 10.1057 2.01932 10.2932 2.2068C10.4807 2.39428 10.7349 2.49972 11 2.5H13V3.5Z" fill="currentColor" style="fill-opacity:1"/>
</svg>
