<svg viewBox="0 0 16 16" fill="none" xmlns="http://www.w3.org/2000/svg">
<path d="M4.293 9.707L6.5825 12L4.293 14.293L5 15L8 12L5 9L4.293 9.707Z" fill="currentColor" style="fill-opacity:1"/>
<path d="M1.293 9.707L3.5825 12L1.293 14.293L2 15L5 12L2 9L1.293 9.707Z" fill="currentColor" style="fill-opacity:1"/>
<path d="M6 7V6H8.5V5H7V4H8.5V3H9.5V4H11V5H9.5V6H12V7H9.5V8H12V9H9.5V10H11V11H8.5V9H7V8H8.5V7H6Z" fill="currentColor" style="fill-opacity:1"/>
<path d="M9.5 12H14V2H4V8H3V2C3 1.73478 3.10536 1.48043 3.29289 1.29289C3.48043 1.10536 3.73478 1 4 1H14C14.2652 1 14.5196 1.10536 14.7071 1.29289C14.8946 1.48043 15 1.73478 15 2V12C15 12.2652 14.8946 12.5196 14.7071 12.7071C14.5196 12.8946 14.2652 13 14 13H9.5V12Z" fill="currentColor" style="fill-opacity:1"/>
</svg>
