<svg viewBox="0 0 16 16" fill="none" xmlns="http://www.w3.org/2000/svg">
<path d="M11 4.50001H13.6C12.9516 3.51073 12.0015 2.75683 10.8908 2.35018C9.78006 1.94354 8.56782 1.90582 7.43394 2.24261C6.30006 2.57941 5.30497 3.27277 4.59632 4.21983C3.88767 5.16689 3.50321 6.31718 3.5 7.50001H2.5C2.50068 6.16361 2.91327 4.8599 3.68158 3.76643C4.44988 2.67296 5.53656 1.84289 6.79362 1.38925C8.05067 0.93562 9.417 0.88048 10.7065 1.23134C11.996 1.5822 13.1461 2.32201 14 3.35001V1.50001H15V5.50001H11V4.50001Z" fill="currentColor" style="fill-opacity:1"/>
<path d="M8 6.00001C8.29667 6.00001 8.58668 6.08799 8.83335 6.25281C9.08003 6.41763 9.27229 6.6519 9.38582 6.92599C9.49935 7.20008 9.52906 7.50168 9.47118 7.79265C9.4133 8.08362 9.27044 8.3509 9.06066 8.56067C8.85088 8.77045 8.58361 8.91331 8.29264 8.97119C8.00166 9.02907 7.70006 8.99937 7.42597 8.88583C7.15189 8.7723 6.91762 8.58004 6.7528 8.33337C6.58797 8.0867 6.5 7.79669 6.5 7.50001C6.49662 7.3021 6.5331 7.10553 6.60729 6.92201C6.68147 6.73849 6.79183 6.57178 6.9318 6.43182C7.07177 6.29185 7.23848 6.18149 7.422 6.1073C7.60551 6.03312 7.80208 5.99663 8 6.00001ZM8 5.00001C7.50555 5.00001 7.0222 5.14664 6.61107 5.42134C6.19995 5.69604 5.87952 6.08649 5.6903 6.54331C5.50108 7.00012 5.45157 7.50279 5.54804 7.98774C5.6445 8.47269 5.8826 8.91815 6.23223 9.26778C6.58186 9.61741 7.02732 9.85551 7.51227 9.95198C7.99723 10.0484 8.49989 9.99893 8.95671 9.80971C9.41352 9.62049 9.80397 9.30006 10.0787 8.88894C10.3534 8.47782 10.5 7.99447 10.5 7.50001C10.5 6.83697 10.2366 6.20109 9.76777 5.73225C9.29893 5.26341 8.66304 5.00001 8 5.00001Z" fill="currentColor" style="fill-opacity:1"/>
<path d="M11.5 15H10.5V13.5C10.5 13.1022 10.342 12.7207 10.0607 12.4394C9.77936 12.158 9.39782 12 9 12H7C6.60218 12 6.22064 12.158 5.93934 12.4394C5.65804 12.7207 5.5 13.1022 5.5 13.5V15H4.5V13.5C4.5 12.837 4.76339 12.2011 5.23223 11.7322C5.70107 11.2634 6.33696 11 7 11H9C9.3283 11 9.65339 11.0647 9.95671 11.1903C10.26 11.316 10.5356 11.5001 10.7678 11.7322C10.9999 11.9644 11.1841 12.24 11.3097 12.5433C11.4353 12.8466 11.5 13.1717 11.5 13.5V15Z" fill="currentColor" style="fill-opacity:1"/>
</svg>
