<svg viewBox="0 0 16 16" fill="none" xmlns="http://www.w3.org/2000/svg">
<path id="icon" d="M14.7371 9.56001L11.8404 8.00001L14.7371 6.44001C14.8165 6.39719 14.8829 6.33367 14.9292 6.25617C14.9755 6.17867 14.9999 6.09009 14.9999 5.99983C14.9999 5.90957 14.9755 5.82099 14.9292 5.74349C14.8829 5.666 14.8165 5.60247 14.7371 5.55966L8.23705 2.05966C8.16422 2.02035 8.08276 1.99977 8 1.99977C7.91724 1.99977 7.83578 2.02035 7.76295 2.05966L1.26295 5.55966C1.18349 5.60247 1.1171 5.666 1.07082 5.74349C1.02455 5.82099 1.00011 5.90957 1.00011 5.99983C1.00011 6.09009 1.02455 6.17867 1.07082 6.25617C1.1171 6.33367 1.18349 6.39719 1.26295 6.44001L4.15965 8.00001L1.26295 9.56001C1.18349 9.60282 1.1171 9.66635 1.07082 9.74384C1.02455 9.82134 1.00011 9.90992 1.00011 10.0002C1.00011 10.0904 1.02455 10.179 1.07082 10.2565C1.1171 10.334 1.18349 10.3975 1.26295 10.4404L7.76295 13.9404C7.8358 13.9796 7.91725 14.0002 8 14.0002C8.08275 14.0002 8.1642 13.9796 8.23705 13.9404L14.7371 10.4404C14.8165 10.3975 14.8829 10.334 14.9292 10.2565C14.9755 10.179 14.9999 10.0904 14.9999 10.0002C14.9999 9.90992 14.9755 9.82134 14.9292 9.74384C14.8829 9.66635 14.8165 9.60282 14.7371 9.56001ZM8 3.06796L13.4453 6.00001L8 8.93216L2.5547 6.00001L8 3.06796ZM8 12.9322L2.5547 10L5.21435 8.56791L7.76295 9.94001C7.8358 9.97926 7.91725 9.99981 8 9.99981C8.08275 9.99981 8.1642 9.97926 8.23705 9.94001L10.7857 8.56771L13.4453 10L8 12.9322Z" fill="currentColor" style="fill-opacity:1"/>
</svg>
