<svg viewBox="0 0 16 16" fill="none" xmlns="http://www.w3.org/2000/svg">
<path id="icon" d="M6.5 14V9H10C10.1782 9 10.343 8.90505 10.4324 8.751C10.4775 8.67345 10.5 8.58675 10.5 8.5C10.5 8.41445 10.478 8.3288 10.4341 8.25195L6.4341 1.252C6.33815 1.08405 6.16905 1 6 1C5.83095 1 5.66185 1.08405 5.5659 1.252L1.56595 8.25195C1.52205 8.3288 1.50005 8.4144 1.50005 8.5C1.50005 8.58675 1.5226 8.67345 1.5677 8.751C1.65705 8.90505 1.82185 9 2.00005 9H5.50005V14C5.50005 14.5523 5.94775 15 6.50005 15H14.0001V14H6.5ZM2.86155 8L6 2.5078L9.13845 8H2.86155Z" fill="currentColor" style="fill-opacity:1"/>
</svg>
