<svg viewBox="0 0 16 16" fill="none" xmlns="http://www.w3.org/2000/svg">
<path d="M11.3875 10.2511H11.3443C11.1893 10.699 10.8276 11.1039 10.0868 11.1039C9.16515 11.1039 8.6483 10.4664 8.6483 9.3467V6.50425H9.75085V9.2347C9.75085 9.8549 9.9834 10.1908 10.5089 10.1908C10.9481 10.1908 11.3875 9.95825 11.3875 9.4759V6.5042H12.49V11.0005H11.3875V10.2511Z" fill="currentColor" style="fill-opacity:1"/>
<path d="M3.30975 10.1047L4.07635 9.36391C4.4898 9.84626 4.998 10.1047 5.6182 10.1047C6.31585 10.1047 6.67765 9.76876 6.67765 9.26061C6.67765 8.85576 6.4882 8.60596 5.8593 8.49401L5.2908 8.40781C4.0763 8.21836 3.49065 7.64121 3.49065 6.65926C3.49065 5.58256 4.3261 4.88486 5.66985 4.88486C6.57425 4.88486 7.24615 5.19496 7.72845 5.77206L6.9533 6.50426C6.66045 6.13386 6.247 5.88406 5.60955 5.88406C4.96355 5.88406 4.6276 6.14246 4.6276 6.59036C4.6276 7.04691 4.886 7.23636 5.46315 7.33976L6.02295 7.44311C7.23745 7.65851 7.80605 8.20111 7.80605 9.19171C7.80605 10.3287 6.9877 11.104 5.5492 11.104C4.5242 11.104 3.81795 10.6991 3.30975 10.1047Z" fill="currentColor" style="fill-opacity:1"/>
<path d="M14 15H2C1.4477 15 1 14.5523 1 14V2C1 1.4477 1.4477 1 2 1H14C14.5523 1 15 1.4477 15 2V14C15 14.5523 14.5523 15 14 15ZM2 14H14V2H2V14Z" fill="currentColor" style="fill-opacity:1"/>
</svg>
