<svg viewBox="0 0 16 16" fill="none" xmlns="http://www.w3.org/2000/svg">
<path d="M15 7.00003H9V8.00003H15V7.00003Z" fill="currentColor" style="fill-opacity:1"/>
<path d="M13 9.50003H9V10.5H13V9.50003Z" fill="currentColor" style="fill-opacity:1"/>
<path d="M15 4.50003H9V5.50003H15V4.50003Z" fill="currentColor" style="fill-opacity:1"/>
<path d="M11 12V14H3V8.00003H7V7.00003H5V4.00003C5.00006 3.54049 5.15834 3.09499 5.44823 2.73842C5.73811 2.38184 6.14192 2.13595 6.59177 2.04208C7.04162 1.94821 7.51008 2.01208 7.91837 2.22296C8.32667 2.43384 8.64991 2.77887 8.83375 3.20003L9.75025 2.80003C9.47443 2.16842 8.98958 1.65101 8.37719 1.33478C7.7648 1.01856 7.06222 0.922793 6.38754 1.06359C5.71286 1.20439 5.10722 1.57316 4.67242 2.10792C4.23762 2.64268 4.00018 3.31082 4 4.00003V7.00003H3C2.73488 7.00034 2.4807 7.10579 2.29323 7.29326C2.10576 7.48073 2.0003 7.73491 2 8.00003V14C2.0003 14.2652 2.10576 14.5193 2.29323 14.7068C2.4807 14.8943 2.73488 14.9997 3 15H11C11.2651 14.9997 11.5193 14.8943 11.7068 14.7068C11.8942 14.5193 11.9997 14.2652 12 14V12H11Z" fill="currentColor" style="fill-opacity:1"/>
</svg>
