<svg viewBox="0 0 32 32" fill="none" xmlns="http://www.w3.org/2000/svg">
<path id="icon" d="M21.812 6.654L21.189 6.294L22.689 3.696L23.312 4.056L21.812 6.654ZM8.688 27.944L9.311 28.303L10.811 25.705L10.188 25.346L8.688 27.944ZM19.971 2.57L19.276 2.383L18.5 5.281L19.195 5.468L19.971 2.57ZM12.029 29.431L12.724 29.617L13.5 26.719L12.805 26.533L12.029 29.431ZM15.64 30H16.36V27H15.64V30V30ZM16.36 2H15.64V5H16.36V2ZM18.499 26.718L19.275 29.616L19.97 29.43L19.194 26.532L18.499 26.718ZM13.5 5.282L12.724 2.384L12.029 2.57L12.805 5.468L13.5 5.282ZM21.188 25.706L22.688 28.304L23.311 27.945L21.811 25.347L21.188 25.706ZM10.812 6.293L9.312 3.695L8.688 4.055L10.188 6.653L10.812 6.293ZM23.523 24.033L25.644 26.154L26.154 25.644L24.033 23.523L23.523 24.033ZM8.476 7.967L6.355 5.846L5.846 6.355L7.967 8.476L8.476 7.967ZM25.347 21.812L27.945 23.312L28.304 22.689L25.706 21.189L25.347 21.812ZM6.654 10.188L4.056 8.688L3.696 9.312L6.294 10.812L6.654 10.188ZM26.532 19.194L29.43 19.97L29.616 19.275L26.718 18.499L26.532 19.194ZM5.468 12.805L2.57 12.029L2.383 12.724L5.282 13.5L5.468 12.805ZM27 15.64V16.36H30V15.64H27V15.64ZM5 15.64H2V16.36H5V15.64ZM26.718 13.5L29.616 12.724L29.43 12.029L26.532 12.805L26.718 13.5ZM5.282 18.499L2.384 19.275L2.571 19.97L5.469 19.194L5.282 18.499ZM25.347 10.188L25.706 10.811L28.304 9.311L27.945 8.688L25.347 10.188ZM6.293 21.188L3.695 22.688L4.055 23.311L6.653 21.811L6.293 21.188ZM17.898 14.611C18.185 15.002 18.36 15.479 18.36 16C18.36 17.302 17.301 18.36 16 18.36C14.699 18.36 13.64 17.301 13.64 16C13.64 14.699 14.699 13.64 16 13.64C16.521 13.64 16.998 13.815 17.389 14.101L21.843 9.647C18.458 6.533 13.176 6.608 9.893 9.89C6.524 13.259 6.524 18.741 9.893 22.109L9.384 22.619C5.734 18.97 5.734 13.031 9.384 9.382C12.947 5.819 18.685 5.743 22.352 9.139L27.745 3.746L28.255 4.255L17.898 14.611ZM17.64 16C17.64 15.096 16.905 14.36 16 14.36C15.095 14.36 14.36 15.096 14.36 16C14.36 16.904 15.096 17.64 16 17.64C16.904 17.64 17.64 16.904 17.64 16ZM5.846 25.645L6.355 26.155L8.476 24.034L7.967 23.524L5.846 25.645Z" fill="currentColor" style="fill-opacity:1"/>
</svg>
