<svg viewBox="0 0 16 16" fill="none" xmlns="http://www.w3.org/2000/svg">
<path d="M8 6.00246C8.39556 6.00246 8.78224 6.11976 9.11114 6.33952C9.44004 6.55928 9.69638 6.87164 9.84776 7.23709C9.99913 7.60254 10.0387 8.00468 9.96157 8.39264C9.8844 8.7806 9.69392 9.13697 9.41421 9.41667C9.13451 9.69638 8.77814 9.88686 8.39018 9.96403C8.00222 10.0412 7.60009 10.0016 7.23463 9.85022C6.86918 9.69884 6.55682 9.4425 6.33706 9.1136C6.1173 8.7847 6 8.39802 6 8.00246C6.0006 7.47221 6.2115 6.96385 6.58644 6.5889C6.96139 6.21396 7.46975 6.00305 8 6.00246ZM8 5.00246C7.40666 5.00246 6.82664 5.17841 6.33329 5.50805C5.83994 5.83769 5.45542 6.30623 5.22836 6.85441C5.0013 7.40259 4.94189 8.00579 5.05764 8.58773C5.1734 9.16967 5.45912 9.70422 5.87868 10.1238C6.29824 10.5433 6.83279 10.8291 7.41473 10.9448C7.99667 11.0606 8.59987 11.0012 9.14805 10.7741C9.69623 10.547 10.1648 10.1625 10.4944 9.66917C10.8241 9.17582 11 8.5958 11 8.00246C11 7.20681 10.6839 6.44375 10.1213 5.88114C9.55871 5.31853 8.79565 5.00246 8 5.00246Z" fill="currentColor" style="fill-opacity:1"/>
<path d="M3.40382 2.69923L2.69679 3.40627L4.4497 5.15919L5.15674 4.45215L3.40382 2.69923Z" fill="currentColor" style="fill-opacity:1"/>
<path d="M3.5 7.50246H1V8.50246H3.5V7.50246Z" fill="currentColor" style="fill-opacity:1"/>
<path d="M4.4497 10.8457L2.69678 12.5986L3.40382 13.3057L5.15674 11.5528L4.4497 10.8457Z" fill="currentColor" style="fill-opacity:1"/>
<path d="M8.5 12.5025H7.5V15.0025H8.5V12.5025Z" fill="currentColor" style="fill-opacity:1"/>
<path d="M11.5503 10.8457L10.8433 11.5528L12.5962 13.3057L13.3032 12.5986L11.5503 10.8457Z" fill="currentColor" style="fill-opacity:1"/>
<path d="M15 7.50246H12.5V8.50246H15V7.50246Z" fill="currentColor" style="fill-opacity:1"/>
<path d="M12.5962 2.69924L10.8433 4.45215L11.5503 5.15919L13.3032 3.40627L12.5962 2.69924Z" fill="currentColor" style="fill-opacity:1"/>
<path d="M8.5 1.00246H7.5V3.50246H8.5V1.00246Z" fill="currentColor" style="fill-opacity:1"/>
</svg>
