<svg viewBox="0 0 16 16" fill="none" xmlns="http://www.w3.org/2000/svg">
<path d="M14.9993 13.5025H1V14.5025H14.9993V13.5025Z" fill="currentColor" style="fill-opacity:1"/>
<path d="M8 10.0025C8.53025 10.0031 9.03861 10.214 9.41356 10.589C9.7885 10.9639 9.9994 11.4723 10 12.0025H11C11 11.2069 10.6839 10.4438 10.1213 9.88119C9.55871 9.31858 8.79565 9.00251 8 9.00251C7.20435 9.00251 6.44129 9.31858 5.87868 9.88119C5.31607 10.4438 5 11.2069 5 12.0025H6C6.0006 11.4723 6.2115 10.9639 6.58644 10.589C6.96139 10.214 7.46975 10.0031 8 10.0025Z" fill="currentColor" style="fill-opacity:1"/>
<path d="M15 11.0025H12.5V12.0025H15V11.0025Z" fill="currentColor" style="fill-opacity:1"/>
<path d="M12.5962 6.69926L10.8433 8.45218L11.5503 9.15922L13.3032 7.4063L12.5962 6.69926Z" fill="currentColor" style="fill-opacity:1"/>
<path d="M9.795 4.79756L8.5 6.08756V2.00256H7.5V6.08756L6.205 4.79756L5.5 5.50256L8 8.00256L10.5 5.50256L9.795 4.79756Z" fill="currentColor" style="fill-opacity:1"/>
<path d="M3.4038 6.69926L2.69676 7.40629L4.44968 9.15921L5.15672 8.45218L3.4038 6.69926Z" fill="currentColor" style="fill-opacity:1"/>
<path d="M3.5 11.0025H1V12.0025H3.5V11.0025Z" fill="currentColor" style="fill-opacity:1"/>
</svg>
