<svg viewBox="0 0 16 16" fill="none" xmlns="http://www.w3.org/2000/svg">
<path d="M10.5 9.99996V15L15 12.5L10.5 9.99996Z" fill="currentColor" style="fill-opacity:1"/>
<path d="M7 7.99996C7.55228 7.99996 8 7.55224 8 6.99996C8 6.44767 7.55228 5.99996 7 5.99996C6.44771 5.99996 6 6.44767 6 6.99996C6 7.55224 6.44771 7.99996 7 7.99996Z" fill="currentColor" style="fill-opacity:1"/>
<path d="M7 9.99996C6.40666 9.99996 5.82664 9.82401 5.33329 9.49437C4.83994 9.16472 4.45542 8.69619 4.22836 8.14801C4.0013 7.59983 3.94189 6.99663 4.05764 6.41469C4.1734 5.83275 4.45912 5.2982 4.87868 4.87864C5.29824 4.45908 5.83279 4.17336 6.41473 4.0576C6.99667 3.94185 7.59987 4.00126 8.14805 4.22832C8.69623 4.45538 9.16476 4.8399 9.49441 5.33325C9.82405 5.8266 10 6.40662 10 6.99996C9.99913 7.79534 9.68277 8.55789 9.12035 9.12031C8.55793 9.68273 7.79538 9.99909 7 9.99996ZM7 4.99996C6.60444 4.99996 6.21776 5.11726 5.88886 5.33702C5.55996 5.55678 5.30362 5.86914 5.15224 6.23459C5.00086 6.60004 4.96126 7.00218 5.03843 7.39014C5.1156 7.7781 5.30608 8.13447 5.58579 8.41417C5.86549 8.69388 6.22186 8.88436 6.60982 8.96153C6.99778 9.0387 7.39991 8.99909 7.76537 8.84772C8.13082 8.69634 8.44318 8.44 8.66294 8.1111C8.8827 7.7822 9 7.39552 9 6.99996C8.9994 6.46971 8.7885 5.96135 8.41356 5.5864C8.03861 5.21146 7.53025 5.00055 7 4.99996Z" fill="currentColor" style="fill-opacity:1"/>
<path d="M12.9756 6.45496H12.9724C12.8658 5.2242 12.3834 4.05596 11.5906 3.10852C10.7978 2.16108 9.73295 1.48024 8.54027 1.15825C7.3476 0.836254 6.08477 0.888667 4.92288 1.30839C3.761 1.72811 2.75621 2.49484 2.04466 3.50472C1.33311 4.51459 0.949193 5.71879 0.94492 6.95415C0.940647 8.18952 1.31623 9.39634 2.02077 10.4111C2.72532 11.4259 3.72478 12.1996 4.88374 12.6273C6.04269 13.055 7.30513 13.1162 8.5 12.8025V11.7693C7.44027 12.1009 6.30019 12.0697 5.2602 11.6805C4.22022 11.2913 3.33973 10.5664 2.7581 9.62049C2.17647 8.67458 1.92692 7.56171 2.04894 6.45802C2.17096 5.35432 2.65759 4.32284 3.4318 3.52683C4.20601 2.73082 5.22358 2.21575 6.32347 2.06313C7.42335 1.91052 8.54272 2.12908 9.50441 2.68423C10.4661 3.23938 11.2152 4.0994 11.6331 5.12818C12.051 6.15696 12.1139 7.29573 11.8118 8.36426L12.7741 8.63626C12.9243 8.1038 13.0003 7.55318 13 6.99996C13 6.81636 12.9919 6.63469 12.9756 6.45496Z" fill="currentColor" style="fill-opacity:1"/>
</svg>
