<svg viewBox="0 0 16 16" fill="none" xmlns="http://www.w3.org/2000/svg">
<path d="M13.5835 8.445L10.86 6.5L13.5835 4.5545L14.842 4.974L15.158 4.0255L14 3.6395V2.5H13V3.7425L10.5 5.5285V2.6835L11.7775 1.832L11.2225 1L10 1.815L8.7775 1L8.2225 1.832L9.5 2.6835V5.5285L8 4.457V5.686L9.14 6.5L8 7.314V8.543L9.5 7.4715V10.8515L11.2225 12L11.7775 11.168L10.5 10.3165V7.4715L13 9.2575V10.5H14V9.3605L15.158 8.974L14.842 8.0255L13.5835 8.445Z" fill="currentColor" style="fill-opacity:1"/>
<path d="M6 11.5C6 11.8978 5.84196 12.2794 5.56066 12.5607C5.27935 12.842 4.89782 13 4.5 13C4.10217 13 3.72064 12.842 3.43934 12.5607C3.15803 12.2794 3 11.8978 3 11.5H6Z" fill="currentColor" style="fill-opacity:1"/>
<path d="M4.5 15C3.81108 15.0007 3.13731 14.7978 2.56327 14.4169C1.98924 14.036 1.54052 13.494 1.27345 12.8589C1.00638 12.2239 0.932862 11.5241 1.06212 10.8474C1.19138 10.1707 1.51766 9.5473 2 9.0554V3.5C2 2.83696 2.26339 2.20107 2.73223 1.73223C3.20107 1.26339 3.83696 1 4.5 1C5.16304 1 5.79892 1.26339 6.26776 1.73223C6.7366 2.20107 7 2.83696 7 3.5V9.0554C7.48233 9.5473 7.80861 10.1707 7.93787 10.8474C8.06713 11.5241 7.99361 12.2239 7.72654 12.8589C7.45947 13.494 7.01076 14.036 6.43672 14.4169C5.86269 14.7978 5.18892 15.0007 4.5 15ZM4.5 2C4.10231 2.00044 3.72103 2.15861 3.43982 2.43982C3.15861 2.72103 3.00043 3.10231 3 3.5V9.4917L2.834 9.64085C2.45644 9.97831 2.19026 10.4225 2.07069 10.9145C1.95112 11.4066 1.9838 11.9234 2.16441 12.3965C2.34501 12.8696 2.66503 13.2766 3.08209 13.5639C3.49916 13.8511 3.99361 14.0048 4.5 14.0048C5.00639 14.0048 5.50084 13.8511 5.9179 13.5639C6.33497 13.2766 6.65498 12.8696 6.83559 12.3965C7.01619 11.9234 7.04888 11.4066 6.92931 10.9145C6.80974 10.4225 6.54356 9.97831 6.166 9.64085L6 9.4917V3.5C5.99956 3.10231 5.84138 2.72103 5.56017 2.43982C5.27896 2.15861 4.89769 2.00044 4.5 2Z" fill="currentColor" style="fill-opacity:1"/>
</svg>
