<svg viewBox="0 0 16 16" fill="none" xmlns="http://www.w3.org/2000/svg">
<path d="M15 3V2H11V9H12V6H14.5V5H12V3H15Z" fill="currentColor" style="fill-opacity:1"/>
<path d="M9 3C9.55228 3 10 2.55228 10 2C10 1.44772 9.55228 1 9 1C8.44771 1 8 1.44772 8 2C8 2.55228 8.44771 3 9 3Z" fill="currentColor" style="fill-opacity:1"/>
<path d="M5 10.092V6H4V10.092C3.66639 10.21 3.38522 10.4421 3.20618 10.7473C3.02714 11.0525 2.96176 11.4112 3.0216 11.7599C3.08143 12.1087 3.26263 12.425 3.53317 12.6531C3.8037 12.8812 4.14615 13.0063 4.5 13.0063C4.85384 13.0063 5.19629 12.8812 5.46683 12.6531C5.73736 12.425 5.91856 12.1087 5.97839 11.7599C6.03823 11.4112 5.97285 11.0525 5.79381 10.7473C5.61477 10.4421 5.3336 10.21 5 10.092Z" fill="currentColor" style="fill-opacity:1"/>
<path d="M4.5 15C3.81108 15.0007 3.13731 14.7978 2.56327 14.4169C1.98924 14.036 1.54052 13.494 1.27345 12.8589C1.00638 12.2239 0.932862 11.5241 1.06212 10.8474C1.19138 10.1707 1.51766 9.5473 2 9.0554V3.5C2 2.83696 2.26339 2.20107 2.73223 1.73223C3.20107 1.26339 3.83696 1 4.5 1C5.16304 1 5.79892 1.26339 6.26776 1.73223C6.7366 2.20107 7 2.83696 7 3.5V9.0554C7.48233 9.5473 7.80861 10.1707 7.93787 10.8474C8.06713 11.5241 7.99361 12.2239 7.72654 12.8589C7.45947 13.494 7.01075 14.036 6.43672 14.4169C5.86269 14.7978 5.18892 15.0007 4.5 15ZM4.5 2C4.10231 2.00044 3.72103 2.15861 3.43982 2.43982C3.15861 2.72103 3.00043 3.10231 3 3.5V9.4917L2.834 9.64085C2.45644 9.97831 2.19025 10.4225 2.07069 10.9145C1.95112 11.4066 1.9838 11.9234 2.16441 12.3965C2.34501 12.8696 2.66503 13.2766 3.08209 13.5639C3.49916 13.8511 3.99361 14.0048 4.5 14.0048C5.00639 14.0048 5.50084 13.8511 5.9179 13.5639C6.33497 13.2766 6.65498 12.8696 6.83559 12.3965C7.01619 11.9234 7.04887 11.4066 6.92931 10.9145C6.80974 10.4225 6.54356 9.97831 6.166 9.64085L6 9.4917V3.5C5.99956 3.10231 5.84138 2.72103 5.56017 2.43982C5.27896 2.15861 4.89769 2.00044 4.5 2Z" fill="currentColor" style="fill-opacity:1"/>
</svg>
