<svg viewBox="0 0 16 16" fill="none" xmlns="http://www.w3.org/2000/svg">
<path d="M13 15H11C10.735 14.9992 10.4811 14.8936 10.2937 14.7062C10.1064 14.5189 10.0008 14.265 10 14V10.5C9.73502 10.4992 9.48112 10.3936 9.29375 10.2062C9.10638 10.0189 9.00077 9.76498 9 9.5V6.5C8.99637 6.30202 9.03269 6.10534 9.10679 5.92171C9.18088 5.73808 9.29124 5.57127 9.43125 5.43126C9.57127 5.29124 9.73808 5.18088 9.92171 5.10679C10.1053 5.03269 10.302 4.99637 10.5 5H13.5C13.698 4.99637 13.8947 5.03269 14.0783 5.10679C14.2619 5.18088 14.4287 5.29124 14.5687 5.43126C14.7088 5.57127 14.8191 5.73808 14.8932 5.92171C14.9673 6.10534 15.0036 6.30202 15 6.5V9.5C14.9992 9.76498 14.8936 10.0189 14.7062 10.2062C14.5189 10.3936 14.265 10.4992 14 10.5V14C13.9992 14.265 13.8936 14.5189 13.7062 14.7062C13.5189 14.8936 13.265 14.9992 13 15ZM10.5 6C10.4333 5.99597 10.3665 6.00615 10.304 6.02985C10.2415 6.05355 10.1848 6.09025 10.1375 6.1375C10.0902 6.18476 10.0536 6.24151 10.0298 6.304C10.0061 6.36648 9.99597 6.43329 10 6.5V9.5H11V14H13V9.5H14V6.5C14.004 6.43329 13.9938 6.36648 13.9701 6.304C13.9464 6.24151 13.9097 6.18476 13.8625 6.1375C13.8152 6.09025 13.7585 6.05355 13.696 6.02985C13.6335 6.00615 13.5667 5.99597 13.5 6H10.5Z" fill="currentColor" style="fill-opacity:1"/>
<path d="M12 4.5C11.6044 4.5 11.2178 4.3827 10.8889 4.16294C10.56 3.94318 10.3036 3.63082 10.1522 3.26537C10.0009 2.89991 9.96126 2.49778 10.0384 2.10982C10.1156 1.72186 10.3061 1.36549 10.5858 1.08579C10.8655 0.806081 11.2219 0.615599 11.6098 0.538429C11.9978 0.461258 12.3999 0.500865 12.7654 0.65224C13.1308 0.803615 13.4432 1.05996 13.6629 1.38886C13.8827 1.71776 14 2.10444 14 2.5C13.9984 3.02995 13.7872 3.53776 13.4125 3.91249C13.0378 4.28723 12.53 4.49844 12 4.5ZM12 1.5C11.8022 1.5 11.6089 1.55865 11.4444 1.66853C11.28 1.77841 11.1518 1.93459 11.0761 2.11732C11.0004 2.30004 10.9806 2.50111 11.0192 2.69509C11.0578 2.88907 11.153 3.06725 11.2929 3.20711C11.4327 3.34696 11.6109 3.4422 11.8049 3.48078C11.9989 3.51937 12.2 3.49957 12.3827 3.42388C12.5654 3.34819 12.7216 3.22002 12.8315 3.05557C12.9413 2.89112 13 2.69778 13 2.5C12.9992 2.23502 12.8936 1.98112 12.7062 1.79375C12.5189 1.60638 12.265 1.50078 12 1.5Z" fill="currentColor" style="fill-opacity:1"/>
<path d="M5 10.0919V6H4V10.0919C3.66639 10.2099 3.38522 10.442 3.20618 10.7472C3.02714 11.0524 2.96176 11.4111 3.0216 11.7598C3.08143 12.1086 3.26263 12.4249 3.53317 12.653C3.8037 12.8811 4.14615 13.0062 4.5 13.0062C4.85384 13.0062 5.19629 12.8811 5.46683 12.653C5.73736 12.4249 5.91856 12.1086 5.97839 11.7598C6.03823 11.4111 5.97285 11.0524 5.79381 10.7472C5.61477 10.442 5.3336 10.2099 5 10.0919Z" fill="currentColor" style="fill-opacity:1"/>
<path d="M4.5 15C3.81108 15.0007 3.13731 14.7978 2.56327 14.4169C1.98924 14.036 1.54052 13.494 1.27345 12.8589C1.00638 12.2239 0.932862 11.5241 1.06212 10.8474C1.19138 10.1707 1.51766 9.5473 2 9.0554V3.5C2 2.83696 2.26339 2.20107 2.73223 1.73223C3.20107 1.26339 3.83696 0.999999 4.5 0.999999C5.16304 0.999999 5.79892 1.26339 6.26776 1.73223C6.7366 2.20107 7 2.83696 7 3.5V9.0554C7.48233 9.5473 7.80861 10.1707 7.93787 10.8474C8.06713 11.5241 7.99361 12.2239 7.72654 12.8589C7.45947 13.494 7.01075 14.036 6.43672 14.4169C5.86269 14.7978 5.18892 15.0007 4.5 15ZM4.5 2C4.10231 2.00044 3.72103 2.15861 3.43982 2.43982C3.15861 2.72103 3.00043 3.10231 3 3.5V9.4917L2.834 9.64085C2.45644 9.97831 2.19025 10.4225 2.07069 10.9145C1.95112 11.4066 1.9838 11.9234 2.16441 12.3965C2.34501 12.8696 2.66503 13.2766 3.08209 13.5639C3.49916 13.8511 3.99361 14.0048 4.5 14.0048C5.00639 14.0048 5.50084 13.8511 5.9179 13.5639C6.33497 13.2766 6.65498 12.8696 6.83559 12.3965C7.01619 11.9234 7.04887 11.4066 6.92931 10.9145C6.80974 10.4225 6.54356 9.97831 6.166 9.64085L6 9.4917V3.5C5.99956 3.10231 5.84138 2.72103 5.56017 2.43982C5.27896 2.15861 4.89769 2.00044 4.5 2Z" fill="currentColor" style="fill-opacity:1"/>
</svg>
