<svg viewBox="0 0 16 16" fill="none" xmlns="http://www.w3.org/2000/svg">
<path d="M13.5 4.99994H10V5.99994H13.5V4.99994Z" fill="currentColor" style="fill-opacity:1"/>
<path d="M15 7.99994H10V8.99994H15V7.99994Z" fill="currentColor" style="fill-opacity:1"/>
<path d="M13.5 10.9999H10V11.9999H13.5V10.9999Z" fill="currentColor" style="fill-opacity:1"/>
<path d="M5 10.0919V3.49994H4V10.0919C3.66639 10.2098 3.38522 10.4419 3.20618 10.7471C3.02714 11.0523 2.96176 11.411 3.0216 11.7598C3.08144 12.1085 3.26263 12.4249 3.53317 12.6529C3.8037 12.881 4.14615 13.0061 4.5 13.0061C4.85384 13.0061 5.19629 12.881 5.46683 12.6529C5.73736 12.4249 5.91856 12.1085 5.9784 11.7598C6.03823 11.411 5.97285 11.0523 5.79381 10.7471C5.61478 10.4419 5.33361 10.2098 5 10.0919Z" fill="currentColor" style="fill-opacity:1"/>
<path d="M15 1.99994H6.4872C6.17352 1.58018 5.73547 1.27001 5.23536 1.11354C4.73525 0.957071 4.19853 0.962275 3.70155 1.12841C3.20456 1.29454 2.77261 1.61315 2.46713 2.03891C2.16165 2.46468 1.99819 2.97593 2 3.49994V9.05534C1.51766 9.54762 1.1914 10.1713 1.06212 10.8483C0.932847 11.5253 1.00631 12.2253 1.2733 12.8607C1.54028 13.4961 1.98892 14.0385 2.56293 14.4199C3.13695 14.8014 3.81081 15.0048 4.5 15.0048C5.18919 15.0048 5.86305 14.8014 6.43706 14.4199C7.01108 14.0385 7.45971 13.4961 7.7267 12.8607C7.99369 12.2253 8.06715 11.5253 7.93787 10.8483C7.80859 10.1713 7.48233 9.54762 7 9.05534V3.49994C6.99998 3.332 6.98304 3.16449 6.94945 2.99994H15V1.99994ZM4.5 13.9999C3.99387 14.0006 3.49949 13.8475 3.08239 13.5608C2.6653 13.2741 2.34519 12.8674 2.1645 12.3946C1.98381 11.9218 1.95108 11.4053 2.07065 10.9135C2.19021 10.4217 2.45643 9.97784 2.834 9.64079L3 9.49164V3.49994C3 3.10212 3.15803 2.72058 3.43934 2.43928C3.72064 2.15798 4.10217 1.99994 4.5 1.99994C4.89782 1.99994 5.27935 2.15798 5.56066 2.43928C5.84196 2.72058 6 3.10212 6 3.49994V9.49164L6.166 9.64079C6.54357 9.97784 6.80978 10.4217 6.92935 10.9135C7.04892 11.4053 7.01618 11.9218 6.8355 12.3946C6.65481 12.8674 6.3347 13.2741 5.9176 13.5608C5.50051 13.8475 5.00613 14.0006 4.5 13.9999Z" fill="currentColor" style="fill-opacity:1"/>
</svg>
