<svg viewBox="0 0 16 16" fill="none" xmlns="http://www.w3.org/2000/svg">
<path d="M12 2C12 1.44772 11.5523 1 11 1C10.4477 1 10 1.44772 10 2C10 2.55228 10.4477 3 11 3C11.5523 3 12 2.55228 12 2Z" fill="currentColor" style="fill-opacity:1"/>
<path d="M5.5 8C5.40113 7.99998 5.30448 7.97064 5.22227 7.9157C5.14007 7.86076 5.076 7.78268 5.03816 7.69133C5.00033 7.59998 4.99043 7.49946 5.00971 7.40248C5.02899 7.30551 5.0766 7.21643 5.1465 7.1465L8.6465 3.6465C8.69263 3.59875 8.7478 3.56065 8.8088 3.53445C8.8698 3.50824 8.93541 3.49445 9.0018 3.49387C9.06819 3.4933 9.13403 3.50595 9.19548 3.53109C9.25693 3.55623 9.31275 3.59336 9.3597 3.6403C9.40665 3.68725 9.44377 3.74307 9.46891 3.80452C9.49405 3.86597 9.5067 3.93181 9.50613 3.9982C9.50555 4.06459 9.49176 4.1302 9.46555 4.1912C9.43935 4.2522 9.40126 4.30738 9.3535 4.3535L5.8535 7.8535C5.80715 7.90002 5.75205 7.93691 5.69138 7.96205C5.63071 7.98719 5.56567 8.00009 5.5 8Z" fill="currentColor" style="fill-opacity:1"/>
<path d="M11.8535 12.1465C11.2039 11.5373 10.3774 11.1505 9.4935 11.042C9.5931 10.9599 9.69005 10.8738 9.78235 10.7815C10.3902 10.1273 10.7956 9.31096 10.9494 8.43125C11.1032 7.55155 10.9989 6.64613 10.6491 5.82445L9.71065 6.1731C10.2657 7.66335 10.028 9.12185 9.07455 10.0742C8.70948 10.4251 8.26959 10.6886 7.78798 10.8449C7.30637 11.0011 6.79558 11.0462 6.29405 10.9766C5.20304 10.8497 4.18655 10.3591 3.40855 9.58375C1.9222 8.09875 1.3706 5.46995 2.9183 3.92375C3.8717 2.9711 5.33165 2.73375 6.823 3.28825L7.17235 2.35075C5.3308 1.6665 3.42955 1.99805 2.21035 3.21655C0.239003 5.1858 0.872303 8.46435 2.70035 10.291C3.64135 11.227 4.87016 11.8188 6.18865 11.971C6.29365 11.982 6.3963 11.9827 6.4998 11.9876V12H8.9982C9.79154 12.0268 10.5509 12.3285 11.1463 12.8535L13.293 15L14 14.2929L11.8535 12.1465Z" fill="currentColor" style="fill-opacity:1"/>
</svg>
