<svg viewBox="0 0 16 16" fill="none" xmlns="http://www.w3.org/2000/svg">
<path id="icon" d="M9.5 1.99999C8.74516 1.99841 8.00211 2.18713 7.33951 2.54872C6.67691 2.9103 6.11614 3.43308 5.70905 4.06874C5.30195 4.70439 5.06166 5.43241 5.01038 6.1855C4.9591 6.9386 5.09848 7.69247 5.41565 8.37744L1 12.7929L1.70705 13.5L5.9507 9.25634C6.18108 9.55254 6.44745 9.81891 6.74365 10.0493L5 11.7929L5.70705 12.5L7.6227 10.5844C8.23364 10.8654 8.8998 11.0058 9.57217 10.9953C10.2445 10.9849 10.906 10.8238 11.5079 10.5239C12.1098 10.224 12.6368 9.79301 13.0501 9.26258C13.4634 8.73215 13.7525 8.1158 13.8962 7.45887C14.0398 6.80194 14.0344 6.12117 13.8802 5.46663C13.726 4.8121 13.427 4.20046 13.0053 3.67673C12.5835 3.153 12.0497 2.7305 11.443 2.44032C10.8364 2.15015 10.1725 1.99968 9.5 1.99999ZM12.9529 5.95289C12.2242 5.83642 11.5509 5.49275 11.0291 4.97093C10.5072 4.44911 10.1636 3.7758 10.0471 3.04709C10.7758 3.16356 11.4491 3.50723 11.9709 4.02905C12.4928 4.55087 12.8364 5.22418 12.9529 5.95289V5.95289ZM6.0471 7.04709C6.77581 7.16356 7.44912 7.50723 7.97094 8.02905C8.49276 8.55087 8.83643 9.22418 8.9529 9.95289C8.22419 9.83642 7.55088 9.49275 7.02906 8.97093C6.50724 8.44911 6.16357 7.7758 6.0471 7.04709V7.04709ZM9.965 9.96534C9.84385 8.96495 9.39079 8.03406 8.67825 7.32149C7.96571 6.60892 7.03484 6.15583 6.03445 6.03464C6.13736 5.27522 6.48654 4.57053 7.02844 4.02863C7.57034 3.48673 8.27503 3.13755 9.03445 3.03464C9.1556 4.03503 9.60866 4.96592 10.3212 5.67849C11.0337 6.39106 11.9646 6.84415 12.965 6.96534C12.8621 7.72476 12.5129 8.42945 11.971 8.97135C11.4291 9.51325 10.7244 9.86243 9.965 9.96534V9.96534Z" fill="currentColor" style="fill-opacity:1"/>
</svg>
