<svg viewBox="0 0 16 16" fill="none" xmlns="http://www.w3.org/2000/svg">
<path d="M14 13H2V15H14V13Z" fill="currentColor" style="fill-opacity:1"/>
<path d="M13 7.27C13.0036 7.14331 12.9589 7.02 12.875 6.925L8.585 2.165C8.55887 2.1406 8.5304 2.11883 8.5 2.1V1H7.5V2.5L2.16 7.37C2.06278 7.45966 2.00504 7.58418 1.99942 7.71631C1.9938 7.84843 2.04075 7.97741 2.13 8.075L6.415 12.835C6.5036 12.9335 6.62768 12.9929 6.76 13H6.785C6.91065 13.0009 7.03203 12.9545 7.125 12.87L12 8.4V10.5C12 10.6326 12.0527 10.7598 12.1465 10.8536C12.2402 10.9473 12.3674 11 12.5 11C12.6326 11 12.7598 10.9473 12.8536 10.8536C12.9473 10.7598 13 10.6326 13 10.5V7.285C13 7.285 13 7.275 13 7.27ZM6.825 11.77L3.21 7.77L7.5 3.835V6H8.5V3.565L11.795 7.23L6.825 11.77Z" fill="currentColor" style="fill-opacity:1"/>
</svg>
