<svg viewBox="0 0 16 16" fill="none" xmlns="http://www.w3.org/2000/svg">
<g id="Icons / Text--creation" clip-path="url(#clip0_0_362)">
<g id="icon">
<path d="M13.5 11.0699V4.92994C13.8426 4.84314 14.156 4.66712 14.4084 4.41981C14.6608 4.17249 14.8432 3.86272 14.937 3.522C15.0308 3.18129 15.0326 2.82182 14.9423 2.48016C14.852 2.13851 14.6728 1.82689 14.4229 1.57701C14.1731 1.32713 13.8614 1.14792 13.5198 1.05762C13.1781 0.967318 12.8187 0.969155 12.4779 1.06294C12.1372 1.15672 11.8275 1.33911 11.5801 1.59153C11.3328 1.84395 11.1568 2.15739 11.07 2.49994H4.93C4.8432 2.15739 4.66718 1.84395 4.41987 1.59153C4.17255 1.33911 3.86278 1.15672 3.52206 1.06294C3.18135 0.969155 2.82188 0.967318 2.48023 1.05762C2.13857 1.14792 1.82695 1.32713 1.57707 1.57701C1.32719 1.82689 1.14798 2.13851 1.05768 2.48016C0.967379 2.82182 0.969216 3.18129 1.063 3.522C1.15679 3.86272 1.33917 4.17249 1.59159 4.41981C1.84401 4.66712 2.15745 4.84314 2.50001 4.92994V11.0699C2.15745 11.1567 1.84401 11.3328 1.59159 11.5801C1.33917 11.8274 1.15679 12.1372 1.063 12.4779C0.969216 12.8186 0.967379 13.1781 1.05768 13.5197C1.14798 13.8614 1.32719 14.173 1.57707 14.4229C1.82695 14.6728 2.13857 14.852 2.48023 14.9423C2.82188 15.0326 3.18135 15.0307 3.52206 14.9369C3.86278 14.8432 4.17255 14.6608 4.41987 14.4084C4.66718 14.1559 4.8432 13.8425 4.93 13.4999H11.07C11.1568 13.8425 11.3328 14.1559 11.5801 14.4084C11.8275 14.6608 12.1372 14.8432 12.4779 14.9369C12.8187 15.0307 13.1781 15.0326 13.5198 14.9423C13.8614 14.852 14.1731 14.6728 14.4229 14.4229C14.6728 14.173 14.852 13.8614 14.9423 13.5197C15.0326 13.1781 15.0308 12.8186 14.937 12.4779C14.8432 12.1372 14.6608 11.8274 14.4084 11.5801C14.156 11.3328 13.8426 11.1567 13.5 11.0699ZM13 1.99994C13.1978 1.99994 13.3911 2.05859 13.5556 2.16847C13.72 2.27836 13.8482 2.43453 13.9239 2.61726C13.9996 2.79999 14.0194 3.00105 13.9808 3.19503C13.9422 3.38902 13.847 3.5672 13.7071 3.70705C13.5673 3.8469 13.3891 3.94214 13.1951 3.98073C13.0011 4.01931 12.8 3.99951 12.6173 3.92382C12.4346 3.84814 12.2784 3.71996 12.1685 3.55551C12.0587 3.39106 12 3.19773 12 2.99994C12 2.73473 12.1054 2.48037 12.2929 2.29284C12.4804 2.1053 12.7348 1.99994 13 1.99994ZM2.00001 2.99994C2.00001 2.80216 2.05865 2.60882 2.16854 2.44437C2.27842 2.27992 2.4346 2.15175 2.61732 2.07606C2.80005 2.00038 3.00111 1.98057 3.1951 2.01916C3.38908 2.05774 3.56726 2.15298 3.70711 2.29284C3.84696 2.43269 3.94221 2.61087 3.98079 2.80485C4.01938 2.99883 3.99957 3.1999 3.92388 3.38263C3.8482 3.56535 3.72002 3.72153 3.55558 3.83141C3.39113 3.94129 3.19779 3.99994 3.00001 3.99994C2.73479 3.99994 2.48043 3.89459 2.2929 3.70705C2.10536 3.51951 2.00001 3.26516 2.00001 2.99994ZM3.00001 13.9999C2.80222 13.9999 2.60888 13.9413 2.44443 13.8314C2.27999 13.7215 2.15181 13.5654 2.07613 13.3826C2.00044 13.1999 1.98063 12.9988 2.01922 12.8049C2.0578 12.6109 2.15305 12.4327 2.2929 12.2928C2.43275 12.153 2.61093 12.0577 2.80491 12.0192C2.9989 11.9806 3.19996 12.0004 3.38269 12.0761C3.56541 12.1518 3.72159 12.2799 3.83147 12.4444C3.94136 12.6088 4.00001 12.8022 4.00001 12.9999C4.00001 13.2652 3.89465 13.5195 3.70711 13.7071C3.51958 13.8946 3.26522 13.9999 3.00001 13.9999ZM11.07 12.4999H4.93C4.84023 12.156 4.66041 11.8422 4.40907 11.5909C4.15772 11.3395 3.84393 11.1597 3.50001 11.0699V4.92994C3.84393 4.84016 4.15772 4.66035 4.40907 4.409C4.66041 4.15766 4.84023 3.84387 4.93 3.49994H11.07C11.1598 3.84387 11.3396 4.15766 11.5909 4.409C11.8423 4.66035 12.1561 4.84016 12.5 4.92994V11.0699C12.1561 11.1597 11.8423 11.3395 11.5909 11.5909C11.3396 11.8422 11.1598 12.156 11.07 12.4999ZM13 13.9999C12.8022 13.9999 12.6089 13.9413 12.4444 13.8314C12.28 13.7215 12.1518 13.5654 12.0761 13.3826C12.0004 13.1999 11.9806 12.9988 12.0192 12.8049C12.0578 12.6109 12.153 12.4327 12.2929 12.2928C12.4328 12.153 12.6109 12.0577 12.8049 12.0192C12.9989 11.9806 13.2 12.0004 13.3827 12.0761C13.5654 12.1518 13.7216 12.2799 13.8315 12.4444C13.9414 12.6088 14 12.8022 14 12.9999C14 13.2652 13.8946 13.5195 13.7071 13.7071C13.5196 13.8946 13.2652 13.9999 13 13.9999Z" fill="currentColor" style="fill-opacity:1"/>
<path d="M10.5 5.49994H5.5V6.49994H7.5V10.9999H8.5V6.49994H10.5V5.49994Z" fill="currentColor" style="fill-opacity:1"/>
</g>
</g>
<defs>
<clipPath id="clip0_0_362">
<rect width="16" height="16" fill="currentColor" style="fill-opacity:1"/>
</clipPath>
</defs>
</svg>
