<svg viewBox="0 0 16 16" fill="none" xmlns="http://www.w3.org/2000/svg">
<path d="M11.75 11H11.5V9.99997H11.75C12.3467 10.0238 12.9285 9.80968 13.3674 9.4046C13.8062 8.99952 14.0661 8.43671 14.09 7.83997C14.1139 7.24323 13.8997 6.66146 13.4946 6.22262C13.0896 5.78378 12.5267 5.52384 11.93 5.49997H11.5L11.45 5.08997C11.3391 4.24819 10.9259 3.47544 10.2876 2.91566C9.64917 2.35588 8.82906 2.04725 7.98001 2.04725C7.13096 2.04725 6.31085 2.35588 5.67246 2.91566C5.03408 3.47544 4.62094 4.24819 4.51001 5.08997L4.50001 5.49997H4.07001C3.47327 5.52384 2.91046 5.78378 2.50538 6.22262C2.1003 6.66146 1.88614 7.24323 1.91001 7.83997C1.93388 8.43671 2.19382 8.99952 2.63266 9.4046C3.07149 9.80968 3.65327 10.0238 4.25001 9.99997H4.50001V11H4.25001C3.44821 10.9949 2.67659 10.6936 2.0835 10.154C1.49041 9.61443 1.11772 8.87466 1.03708 8.07691C0.956432 7.27916 1.17353 6.47976 1.64664 5.8324C2.11974 5.18504 2.81545 4.73541 3.60001 4.56997C3.81586 3.56323 4.37043 2.66096 5.17117 2.0137C5.97191 1.36645 6.97039 1.01337 8.00001 1.01337C9.02963 1.01337 10.0281 1.36645 10.8289 2.0137C11.6296 2.66096 12.1842 3.56323 12.4 4.56997C13.1846 4.73541 13.8803 5.18504 14.3534 5.8324C14.8265 6.47976 15.0436 7.27916 14.9629 8.07691C14.8823 8.87466 14.5096 9.61443 13.9165 10.154C13.3234 10.6936 12.5518 10.9949 11.75 11Z" fill="currentColor" style="fill-opacity:1"/>
<path d="M7.93501 15.25L7.06501 14.75L8.64001 12H5.64001L8.06501 7.74997L8.93501 8.24997L7.36001 11H10.36L7.93501 15.25Z" fill="currentColor" style="fill-opacity:1"/>
</svg>
