<svg viewBox="0 0 16 16" fill="none" xmlns="http://www.w3.org/2000/svg">
<path d="M6.66899 15L5.80099 14.5L6.94449 12.5H4.99999L6.99649 9.00004L7.86499 9.50003L6.72299 11.5H8.66849L6.66899 15Z" fill="currentColor" style="fill-opacity:1"/>
<path d="M14.922 6.51739C14.8658 6.39801 14.7795 6.29532 14.6716 6.21941C14.5637 6.14351 14.4378 6.09701 14.3065 6.08448C13.6522 6.01755 13.0454 5.71218 12.6018 5.22659C12.2211 4.7985 11.9609 4.27691 11.848 3.71524C11.7352 3.15357 11.7736 2.57198 11.9593 2.03003C12.0029 1.89917 12.012 1.75928 11.9857 1.62388C11.9595 1.48848 11.8987 1.36215 11.8093 1.25709C11.7273 1.1604 11.6215 1.08683 11.5023 1.04366C11.3831 1.00049 11.2547 0.989226 11.1298 1.01098L11.1202 1.01293C10.3433 1.18063 9.63554 1.58013 9.09049 2.15863C8.54543 2.73713 8.18873 3.4674 8.06754 4.25294C7.64753 4.08875 7.20095 4.00303 6.74999 4.00004C5.95378 4.00433 5.17931 4.26022 4.53728 4.73115C3.89525 5.20208 3.41854 5.86393 3.17529 6.62208C2.47977 6.82022 1.87937 7.26323 1.4849 7.86937C1.09042 8.47551 0.928484 9.20387 1.02897 9.92005C1.12945 10.6362 1.48557 11.2919 2.03162 11.7661C2.57767 12.2403 3.2768 12.5009 3.99999 12.5V11.5C3.49918 11.5009 3.01633 11.3135 2.64723 10.975C2.27813 10.6365 2.04974 10.1717 2.00736 9.67264C1.96499 9.17363 2.11173 8.67691 2.41847 8.28103C2.72522 7.88514 3.16955 7.61902 3.66334 7.53543L3.99484 7.47904L4.06764 7.15093C4.20346 6.5408 4.54322 5.99519 5.03088 5.60415C5.51853 5.21311 6.12492 5.00001 6.74999 5.00001C7.37507 5.00001 7.98146 5.21311 8.46911 5.60415C8.95676 5.99519 9.29653 6.5408 9.43234 7.15093L9.50514 7.47904L9.83644 7.53543C10.3303 7.61888 10.7748 7.88494 11.0817 8.28083C11.3885 8.67672 11.5353 9.1735 11.493 9.67259C11.4506 10.1717 11.2222 10.6366 10.853 10.9751C10.4838 11.3137 10.0009 11.501 9.49999 11.5V12.5C9.9434 12.5034 10.382 12.4077 10.7837 12.2199C11.1853 12.0321 11.54 11.757 11.8218 11.4146C12.1035 11.0722 12.3053 10.6712 12.4122 10.2409C12.5192 9.81053 12.5287 9.36175 12.44 8.92728C12.9358 8.83031 13.407 8.63418 13.8251 8.35064C14.2433 8.06711 14.5999 7.70202 14.8734 7.27728C14.9469 7.16575 14.9899 7.03702 14.9985 6.90377C15.007 6.77052 14.9806 6.63735 14.922 6.51739ZM12.0757 7.97633C11.6873 7.31704 11.0605 6.83221 10.3247 6.62208C10.0885 5.8862 9.63087 5.24117 9.01439 4.77504C9.03797 4.19609 9.22845 3.63632 9.5629 3.16317C9.89735 2.69001 10.3615 2.32367 10.8994 2.10828C10.7424 2.77265 10.7487 3.46514 10.9175 4.12659C11.0864 4.78804 11.4128 5.39878 11.869 5.90664C12.3882 6.47107 13.07 6.8603 13.82 7.02054C13.38 7.54785 12.7569 7.88928 12.0757 7.97633Z" fill="currentColor" style="fill-opacity:1"/>
</svg>
