<svg viewBox="0 0 16 16" fill="none" xmlns="http://www.w3.org/2000/svg">
<path d="M10.5 14.9999C10.4148 15 10.3309 14.9782 10.2565 14.9367C10.182 14.8951 10.1194 14.8353 10.0746 14.7628C10.0298 14.6903 10.0043 14.6075 10.0005 14.5224C9.99665 14.4372 10.0147 14.3525 10.0528 14.2762L11.0528 12.276C11.0822 12.2173 11.1228 12.1649 11.1724 12.1219C11.222 12.0789 11.2796 12.046 11.3419 12.0253C11.4042 12.0045 11.47 11.9963 11.5355 12.0009C11.601 12.0056 11.6649 12.0231 11.7237 12.0525C11.7824 12.0818 11.8348 12.1225 11.8778 12.1721C11.9208 12.2217 11.9536 12.2793 11.9744 12.3416C11.9951 12.4039 12.0034 12.4697 11.9988 12.5352C11.9941 12.6007 11.9766 12.6646 11.9472 12.7233L10.9472 14.7233C10.9058 14.8065 10.842 14.8765 10.763 14.9253C10.684 14.9742 10.5929 15 10.5 14.9999Z" fill="currentColor" style="fill-opacity:1"/>
<path d="M4.5 15.9999C4.41476 16 4.33093 15.9782 4.25648 15.9367C4.18203 15.8951 4.11943 15.8353 4.07462 15.7628C4.02981 15.6903 4.00429 15.6075 4.00047 15.5224C3.99665 15.4372 4.01466 15.3525 4.0528 15.2762L5.0528 13.276C5.08217 13.2173 5.12283 13.1649 5.17244 13.1219C5.22205 13.0789 5.27965 13.046 5.34194 13.0253C5.40424 13.0045 5.47001 12.9963 5.53551 13.0009C5.60101 13.0056 5.66495 13.0231 5.72367 13.0525C5.7824 13.0818 5.83477 13.1225 5.87778 13.1721C5.9208 13.2217 5.95362 13.2793 5.97438 13.3416C5.99514 13.4039 6.00342 13.4697 5.99875 13.5352C5.99409 13.6007 5.97657 13.6646 5.9472 13.7233L4.9472 15.7233C4.90579 15.8065 4.84199 15.8765 4.76298 15.9253C4.68398 15.9742 4.5929 16 4.5 15.9999Z" fill="currentColor" style="fill-opacity:1"/>
<path d="M7.9505 15.2479L7.0825 14.7519L8.655 11.9999H5.655L8.0825 7.75195L8.9505 8.24795L7.378 10.9999H10.3785L7.9505 15.2479Z" fill="currentColor" style="fill-opacity:1"/>
<path d="M12.4004 4.56805C12.1873 3.5589 11.6339 2.65366 10.8328 2.00404C10.0317 1.35442 9.03164 0.999897 8.00025 0.999897C6.96886 0.999897 5.96881 1.35442 5.16771 2.00404C4.36662 2.65366 3.81316 3.5589 3.6001 4.56805C2.85649 4.71917 2.18931 5.126 1.71445 5.71787C1.2396 6.30974 0.987072 7.04925 1.00074 7.80793C1.01441 8.56662 1.2934 9.29655 1.78927 9.87093C2.28513 10.4453 2.96653 10.8279 3.7151 10.9521L3.053 12.2763C3.02242 12.3351 3.00385 12.3995 2.99837 12.4656C2.99289 12.5316 3.00061 12.5982 3.02109 12.6612C3.04156 12.7243 3.07437 12.7827 3.11762 12.8329C3.16086 12.8832 3.21368 12.9244 3.27298 12.954C3.33229 12.9837 3.39691 13.0013 3.46307 13.0057C3.52923 13.0102 3.59562 13.0014 3.65837 12.98C3.72112 12.9586 3.77897 12.9248 3.82857 12.8808C3.87816 12.8368 3.91851 12.7834 3.94725 12.7236L4.94725 10.7236C4.97663 10.6649 4.99415 10.6009 4.99882 10.5354C5.00349 10.4699 4.99521 10.4042 4.97446 10.3419C4.9537 10.2796 4.92088 10.222 4.87786 10.1723C4.83485 10.1227 4.78248 10.0821 4.72375 10.0527C4.65399 10.0193 4.57731 10.003 4.5 10.0049V9.99995H4.25C3.66889 10.0001 3.11028 9.77535 2.69125 9.37273C2.27222 8.97012 2.02532 8.42092 2.00231 7.84027C1.97929 7.25962 2.18194 6.6926 2.56779 6.25808C2.95363 5.82355 3.4927 5.55526 4.072 5.50945L4.47975 5.4775L4.5293 5.0715C4.63312 4.22404 5.0434 3.44384 5.68278 2.87801C6.32216 2.31218 7.14645 1.99982 8.00025 1.99982C8.85404 1.99982 9.67834 2.31218 10.3177 2.87801C10.9571 3.44384 11.3674 4.22404 11.4712 5.0715L11.5205 5.4775L11.9282 5.50945C12.5075 5.55526 13.0466 5.82357 13.4324 6.25811C13.8183 6.69266 14.0209 7.2597 13.9979 7.84037C13.9748 8.42103 13.7279 8.97024 13.3088 9.37284C12.8898 9.77544 12.3311 10.0002 11.75 9.99995H11.5V10.9999H11.75C12.5553 11.0003 13.3319 10.7015 13.9294 10.1617C14.5269 9.62179 14.9025 8.87926 14.9835 8.07809C15.0646 7.27693 14.8451 6.47422 14.3679 5.82567C13.8906 5.17711 13.1894 4.72893 12.4004 4.56805Z" fill="currentColor" style="fill-opacity:1"/>
</svg>
