<svg viewBox="0 0 16 16" fill="none" xmlns="http://www.w3.org/2000/svg">
<g id="Icons / Thunderstorm--severe" clip-path="url(#clip0_0_238)">
<g id="icon">
<path d="M10.5 15C10.4148 15 10.3309 14.9782 10.2565 14.9367C10.182 14.8952 10.1194 14.8354 10.0746 14.7629C10.0298 14.6903 10.0043 14.6076 10.0005 14.5224C9.99664 14.4373 10.0147 14.3526 10.0528 14.2763L11.0528 12.2761C11.082 12.2171 11.1226 12.1644 11.1722 12.1212C11.2218 12.0779 11.2795 12.0448 11.3419 12.0239C11.4043 12.003 11.4702 11.9946 11.5359 11.9992C11.6016 12.0038 11.6657 12.0213 11.7245 12.0508C11.7834 12.0802 11.8359 12.121 11.879 12.1708C11.922 12.2206 11.9549 12.2784 11.9755 12.3409C11.9962 12.4034 12.0044 12.4693 11.9995 12.535C11.9946 12.6006 11.9768 12.6647 11.9471 12.7234L10.9471 14.7234C10.9057 14.8066 10.8419 14.8765 10.7629 14.9254C10.6839 14.9742 10.5929 15.0001 10.5 15Z" fill="currentColor" style="fill-opacity:1"/>
<path d="M4.49999 16C4.41475 16 4.33092 15.9782 4.25647 15.9367C4.18202 15.8952 4.11942 15.8354 4.07461 15.7629C4.0298 15.6903 4.00428 15.6076 4.00046 15.5224C3.99664 15.4373 4.01465 15.3526 4.05279 15.2763L5.05279 13.2761C5.082 13.2171 5.12258 13.1644 5.17219 13.1212C5.22179 13.0779 5.27946 13.0448 5.34187 13.0239C5.40429 13.003 5.47022 12.9946 5.53588 12.9992C5.60155 13.0038 5.66566 13.0213 5.72454 13.0508C5.78341 13.0802 5.83589 13.121 5.87897 13.1708C5.92204 13.2206 5.95486 13.2784 5.97554 13.3409C5.99623 13.4034 6.00436 13.4693 5.99949 13.535C5.99462 13.6006 5.97683 13.6647 5.94714 13.7234L4.94714 15.7234C4.90574 15.8066 4.84194 15.8765 4.76295 15.9254C4.68395 15.9742 4.59288 16.0001 4.49999 16Z" fill="currentColor" style="fill-opacity:1"/>
<path d="M7.95049 15.248L7.08249 14.752L8.65449 12H5.65499L8.08249 7.75202L8.95049 8.24802L7.37799 11H10.3785L7.95049 15.248Z" fill="currentColor" style="fill-opacity:1"/>
<path d="M13.9758 7.50002C13.9886 7.58282 13.9967 7.66629 14 7.75002C13.9993 8.34656 13.7621 8.91848 13.3403 9.34029C12.9184 9.76211 12.3465 9.99937 11.75 10H11.5V11H11.75C12.6116 10.999 13.4377 10.6563 14.047 10.047C14.6563 9.43774 14.999 8.61167 15 7.75002C15 7.66502 14.9844 7.58352 14.9778 7.50002H13.9758Z" fill="currentColor" style="fill-opacity:1"/>
<path d="M15.9557 5.96777L12.8141 0.185318C12.7831 0.129183 12.7376 0.0823899 12.6823 0.0498057C12.6271 0.0172214 12.5641 3.56816e-05 12.4999 3.56816e-05C12.4358 3.56816e-05 12.3728 0.0172214 12.3176 0.0498057C12.2623 0.0823899 12.2168 0.129183 12.1857 0.185318L9.04414 5.96777C9.01428 6.02258 8.99917 6.08421 9.00032 6.14662C9.00146 6.20902 9.01881 6.27006 9.05067 6.32374C9.08252 6.37742 9.12778 6.42189 9.18201 6.45279C9.23624 6.4837 9.29757 6.49997 9.35999 6.50002H15.64C15.7024 6.49995 15.7637 6.48367 15.8179 6.45276C15.8722 6.42184 15.9174 6.37737 15.9492 6.32369C15.9811 6.27002 15.9984 6.20899 15.9996 6.14659C16.0007 6.08419 15.9856 6.02257 15.9557 5.96777ZM12.125 2.00002H12.875V4.00002H12.125V2.00002ZM12.5 5.50002C12.4011 5.50002 12.3044 5.47069 12.2222 5.41575C12.14 5.36081 12.0759 5.28272 12.0381 5.19136C12.0002 5.1 11.9903 4.99946 12.0096 4.90247C12.0289 4.80548 12.0765 4.71639 12.1464 4.64646C12.2164 4.57654 12.3055 4.52892 12.4024 4.50963C12.4994 4.49033 12.6 4.50023 12.6913 4.53808C12.7827 4.57592 12.8608 4.64001 12.9157 4.72223C12.9707 4.80446 13 4.90113 13 5.00002C13 5.13263 12.9473 5.2598 12.8535 5.35357C12.7598 5.44734 12.6326 5.50002 12.5 5.50002Z" fill="currentColor" style="fill-opacity:1"/>
<path d="M4.07199 5.50952L4.47969 5.47757L4.52924 5.07157C4.59625 4.52016 4.79379 3.99268 5.10547 3.53289C5.41715 3.07311 5.83398 2.69429 6.32138 2.42786C6.80878 2.16143 7.35269 2.01507 7.90798 2.00093C8.46326 1.98679 9.01392 2.10528 9.51424 2.34657L9.99999 1.47342C9.38576 1.16647 8.70929 1.00453 8.02264 1.00006C7.336 0.995585 6.65748 1.1487 6.0393 1.44762C5.42112 1.74654 4.87975 2.18329 4.45686 2.72428C4.03397 3.26526 3.74083 3.89606 3.59999 4.56812C2.85638 4.71924 2.1892 5.12607 1.71435 5.71794C1.23949 6.30981 0.986963 7.04931 1.00063 7.808C1.0143 8.56669 1.29329 9.29662 1.78916 9.871C2.28502 10.4454 2.96642 10.8279 3.71499 10.9522L3.05294 12.2764C3.02236 12.3352 3.00379 12.3995 2.99831 12.4656C2.99283 12.5317 3.00055 12.5982 3.02103 12.6613C3.0415 12.7244 3.07431 12.7827 3.11756 12.833C3.16081 12.8833 3.21362 12.9245 3.27293 12.9541C3.33223 12.9838 3.39685 13.0014 3.46301 13.0058C3.52917 13.0103 3.59556 13.0015 3.65831 12.9801C3.72106 12.9586 3.77891 12.9249 3.82851 12.8809C3.8781 12.8369 3.91845 12.7834 3.94719 12.7237L4.94719 10.7237C4.97657 10.6649 4.99409 10.601 4.99876 10.5355C5.00342 10.47 4.99514 10.4042 4.97438 10.3419C4.95362 10.2796 4.92079 10.222 4.87777 10.1724C4.83475 10.1228 4.78237 10.0821 4.72364 10.0528C4.65391 10.0194 4.57727 10.003 4.49999 10.005V10H4.24999C3.66889 10.0002 3.11028 9.7754 2.69126 9.37278C2.27225 8.97015 2.02536 8.42096 2.00235 7.84031C1.97934 7.25967 2.18199 6.69265 2.56784 6.25814C2.95368 5.82362 3.4927 5.55533 4.07199 5.50952Z" fill="currentColor" style="fill-opacity:1"/>
</g>
</g>
<defs>
<clipPath id="clip0_0_238">
<rect width="16" height="16" fill="currentColor" style="fill-opacity:1"/>
</clipPath>
</defs>
</svg>
