<svg viewBox="0 0 16 16" fill="none" xmlns="http://www.w3.org/2000/svg">
<g id="Icons / Thunderstorm--scattered" clip-path="url(#clip0_0_66)">
<g id="icon">
<path d="M6.669 15L5.801 14.5L6.9445 12.5H5L6.9965 9L7.865 9.5L6.723 11.5H8.6685L6.669 15Z" fill="currentColor" style="fill-opacity:1"/>
<path d="M13.5 5.5C13.5005 4.82369 13.2723 4.16707 12.8525 3.63683C12.4327 3.1066 11.8459 2.7339 11.1875 2.57931C10.5291 2.42471 9.83776 2.4973 9.22582 2.78527C8.61388 3.07324 8.11729 3.55968 7.81675 4.16555C7.47126 4.05815 7.1118 4.00237 6.75 4C5.9538 4.0043 5.17935 4.2602 4.53734 4.73113C3.89533 5.20206 3.41863 5.8639 3.1754 6.62205C2.47989 6.82019 1.8795 7.26319 1.48502 7.86932C1.09054 8.47544 0.928599 9.20379 1.02907 9.91997C1.12954 10.6361 1.48564 11.2918 2.03167 11.766C2.57771 12.2402 3.27681 12.5009 4 12.5V11.5C3.49911 11.501 3.01614 11.3137 2.64694 10.9752C2.27774 10.6366 2.04929 10.1717 2.00692 9.67261C1.96455 9.1735 2.11136 8.67671 2.41822 8.28082C2.72508 7.88492 3.16956 7.61885 3.66345 7.5354L3.995 7.479L4.0679 7.1509C4.20372 6.54076 4.54348 5.99516 5.03114 5.60412C5.51879 5.21308 6.12518 4.99998 6.75025 4.99998C7.37533 4.99998 7.98172 5.21308 8.46937 5.60412C8.95702 5.99516 9.29679 6.54076 9.4326 7.1509L9.5055 7.479L9.8368 7.5354C10.3307 7.61885 10.7752 7.88494 11.0821 8.28086C11.3889 8.67679 11.5357 9.17361 11.4933 9.67273C11.4509 10.1719 11.2224 10.6368 10.8532 10.9753C10.4839 11.3138 10.0009 11.5011 9.5 11.5V12.5C10.0244 12.5013 10.5399 12.3648 10.995 12.1041C11.45 11.8434 11.8285 11.4678 12.0927 11.0148C12.3568 10.5617 12.4973 10.0473 12.5 9.52287C12.5027 8.99848 12.3676 8.48258 12.1082 8.02685C12.534 7.75677 12.8848 7.3836 13.1281 6.94191C13.3714 6.50021 13.4993 6.00427 13.5 5.5ZM11.4634 7.24465C11.1342 6.95597 10.7453 6.74339 10.3246 6.62205C10.0509 5.77699 9.4866 5.05623 8.73195 4.58765C8.87408 4.30996 9.0794 4.0695 9.3314 3.88561C9.58339 3.70172 9.87502 3.57954 10.1828 3.5289C10.4906 3.47825 10.8061 3.50055 11.1037 3.59401C11.4013 3.68746 11.6728 3.84946 11.8964 4.06698C12.1201 4.28449 12.2895 4.55145 12.3911 4.84638C12.4928 5.14131 12.5238 5.45598 12.4817 5.76507C12.4395 6.07417 12.3255 6.36906 12.1486 6.62604C11.9718 6.88302 11.7371 7.0949 11.4634 7.24465Z" fill="currentColor" style="fill-opacity:1"/>
<path d="M13.2322 8.43968L14.2929 9.50034L15 8.79324L13.9393 7.73258L13.2322 8.43968Z" fill="currentColor" style="fill-opacity:1"/>
<path d="M16 5H14.5V6H16V5Z" fill="currentColor" style="fill-opacity:1"/>
<path d="M14.2929 1.50031L13.2322 2.56097L13.9393 3.26808L15 2.20742L14.2929 1.50031Z" fill="currentColor" style="fill-opacity:1"/>
<path d="M11 0H10V1.5H11V0Z" fill="currentColor" style="fill-opacity:1"/>
<path d="M5.99995 2.20744L7.06061 3.2681L7.76772 2.56099L6.70706 1.50033L5.99995 2.20744Z" fill="currentColor" style="fill-opacity:1"/>
</g>
</g>
<defs>
<clipPath id="clip0_0_66">
<rect width="16" height="16" fill="currentColor" style="fill-opacity:1"/>
</clipPath>
</defs>
</svg>
