<svg viewBox="0 0 16 16" fill="none" xmlns="http://www.w3.org/2000/svg">
<path d="M8.5 5.5H7.5V10H8.5V5.5Z" fill="currentColor" style="fill-opacity:1"/>
<path d="M9.5 1H6.5V2H9.5V1Z" fill="currentColor" style="fill-opacity:1"/>
<path d="M14 4.5L13.29 3.795L12.165 4.92C11.2441 3.85652 9.94887 3.18872 8.54842 3.05535C7.14796 2.92199 5.74997 3.33332 4.6449 4.20387C3.53982 5.07443 2.81264 6.33727 2.61443 7.73003C2.41622 9.12278 2.76223 10.5384 3.58056 11.6826C4.3989 12.8269 5.62664 13.6119 7.0087 13.8746C8.39075 14.1372 9.82086 13.8572 11.0019 13.0929C12.1829 12.3285 13.024 11.1385 13.3505 9.77016C13.677 8.40178 13.4637 6.96022 12.755 5.745L14 4.5ZM8 13C7.10998 13 6.23995 12.7361 5.49993 12.2416C4.75991 11.7471 4.18314 11.0443 3.84254 10.2221C3.50195 9.39981 3.41283 8.49501 3.58647 7.62209C3.7601 6.74918 4.18868 5.94736 4.81802 5.31802C5.44736 4.68868 6.24918 4.2601 7.12209 4.08647C7.99501 3.91283 8.89981 4.00195 9.72207 4.34254C10.5443 4.68314 11.2471 5.25991 11.7416 5.99993C12.2361 6.73995 12.5 7.60998 12.5 8.5C12.5 9.69347 12.0259 10.8381 11.182 11.682C10.3381 12.5259 9.19347 13 8 13Z" fill="currentColor" style="fill-opacity:1"/>
</svg>
