<svg viewBox="0 0 16 16" fill="none" xmlns="http://www.w3.org/2000/svg">
<path d="M4.45706 12.25L6.58556 10.1216L5.87856 9.41455L3.75001 11.5429L3.35351 11.1465C3.30711 11.1 3.252 11.0632 3.19134 11.0381C3.13069 11.0129 3.06567 11 3.00001 11C2.93435 11 2.86934 11.0129 2.80868 11.0381C2.74803 11.0632 2.69292 11.1 2.64651 11.1465L0.646513 13.1465C0.600064 13.1929 0.563216 13.248 0.538076 13.3087C0.512935 13.3693 0.499995 13.4343 0.499995 13.5C0.499995 13.5657 0.512935 13.6307 0.538076 13.6913C0.563216 13.752 0.600064 13.8071 0.646513 13.8535L2.14651 15.3535C2.19292 15.3999 2.24803 15.4368 2.30869 15.4619C2.36934 15.4871 2.43436 15.5 2.50001 15.5C2.56567 15.5 2.63068 15.4871 2.69134 15.4619C2.75199 15.4368 2.8071 15.3999 2.85351 15.3535L4.85351 13.3535C4.89996 13.3071 4.93681 13.252 4.96195 13.1913C4.98709 13.1307 5.00003 13.0657 5.00003 13C5.00003 12.9343 4.98709 12.8693 4.96195 12.8087C4.93681 12.748 4.89996 12.6929 4.85351 12.6465L4.45706 12.25ZM2.50001 14.2929L1.70706 13.5L3.00001 12.207L3.79296 13L2.50001 14.2929Z" fill="currentColor" style="fill-opacity:1"/>
<path d="M12 15C11.2046 14.9991 10.4421 14.6827 9.87966 14.1203C9.31724 13.5579 9.00088 12.7953 9 12C9.00037 11.7386 9.03584 11.4785 9.10545 11.2265L4.77345 6.89462C4.5215 6.96415 4.26136 6.99958 4 6.99997C3.51121 7.00196 3.02941 6.88401 2.59682 6.65646C2.16423 6.4289 1.79408 6.0987 1.51881 5.69479C1.24355 5.29088 1.07158 4.82561 1.01798 4.33978C0.964382 3.85394 1.0308 3.36237 1.2114 2.90817L1.49025 2.19722L3.1465 3.85347C3.24168 3.94438 3.36825 3.99511 3.49987 3.99511C3.6315 3.99511 3.75806 3.94438 3.85325 3.85347C3.89973 3.80708 3.9366 3.75197 3.96176 3.69131C3.98692 3.63065 3.99987 3.56562 3.99987 3.49995C3.99987 3.43427 3.98692 3.36925 3.96176 3.30858C3.9366 3.24792 3.89973 3.19282 3.85325 3.14642L2.1968 1.48947L2.90845 1.21092C3.36267 1.03055 3.8542 0.964329 4.33997 1.01806C4.82573 1.07179 5.29091 1.24382 5.69474 1.5191C6.09857 1.79437 6.42873 2.16449 6.65629 2.597C6.88385 3.02952 7.00186 3.51125 7 3.99997C6.99962 4.26135 6.96415 4.52149 6.89455 4.77342L11.2265 9.10517C11.4785 9.03573 11.7386 9.00035 12 8.99997C12.4888 8.99796 12.9706 9.1159 13.4032 9.34345C13.8358 9.57101 14.2059 9.90122 14.4812 10.3051C14.7565 10.709 14.9284 11.1743 14.982 11.6602C15.0356 12.146 14.9692 12.6376 14.7885 13.0918L14.51 13.8027L12.8535 12.1465C12.7583 12.0556 12.6317 12.0048 12.5001 12.0048C12.3685 12.0048 12.2419 12.0556 12.1467 12.1465C12.1003 12.1928 12.0634 12.2479 12.0382 12.3086C12.013 12.3692 12 12.4343 12 12.4999C12 12.5656 12.0129 12.6306 12.038 12.6913C12.0632 12.752 12.1 12.8071 12.1465 12.8535L13.8027 14.51L13.0918 14.7889C12.7443 14.9272 12.3739 14.9987 12 15ZM5.03125 5.73812L10.2617 10.9687L10.1421 11.2734C10.025 11.5662 9.97924 11.8826 10.0086 12.1965C10.0379 12.5104 10.1415 12.8129 10.3108 13.0788C10.4801 13.3448 10.7102 13.5667 10.9822 13.7262C11.2542 13.8857 11.5602 13.9782 11.875 13.9961L11.4394 13.5605C11.3001 13.4213 11.1896 13.2559 11.1142 13.0739C11.0388 12.892 11 12.6969 11 12.4999C11 12.3029 11.0388 12.1079 11.1142 11.9259C11.1896 11.7439 11.3001 11.5786 11.4394 11.4393C11.7252 11.1666 12.1051 11.0144 12.5002 11.0144C12.8952 11.0145 13.2751 11.1667 13.5608 11.4396L13.9961 11.875C13.9782 11.5602 13.8857 11.2542 13.7261 10.9822C13.5666 10.7102 13.3447 10.4801 13.0787 10.3108C12.8127 10.1415 12.5102 10.0379 12.1963 10.0086C11.8824 9.97923 11.566 10.025 11.2732 10.1421L10.9685 10.2613L5.7385 5.03132L5.8581 4.72662C5.97519 4.43387 6.02096 4.11747 5.99164 3.80354C5.96231 3.48961 5.85873 3.18716 5.68944 2.92116C5.52015 2.65517 5.29001 2.43326 5.01803 2.27376C4.74606 2.11426 4.44004 2.02175 4.12525 2.00387L4.56055 2.43942C4.69986 2.57868 4.81038 2.74402 4.88578 2.926C4.96118 3.10798 4.99999 3.30304 4.99999 3.50002C4.99999 3.697 4.96118 3.89206 4.88578 4.07404C4.81038 4.25602 4.69986 4.42136 4.56055 4.56062C4.27476 4.83338 3.89488 4.98555 3.49982 4.9855C3.10476 4.98546 2.72491 4.8332 2.4392 4.56037L2.0039 4.12497C2.02174 4.43977 2.11422 4.7458 2.2737 5.01779C2.43318 5.28978 2.65508 5.51993 2.92108 5.68922C3.18708 5.85851 3.48954 5.96209 3.80347 5.9914C4.11741 6.0207 4.43381 5.9749 4.72655 5.85777L5.03125 5.73812Z" fill="currentColor" style="fill-opacity:1"/>
<path d="M14.5613 1.42502C14.2756 1.15224 13.8958 1.00003 13.5007 1.00003C13.1057 1.00003 12.7259 1.15224 12.4402 1.42502L8.69999 5.16502L9.40704 5.87202L13.147 2.13202C13.2423 2.04115 13.3689 1.99045 13.5006 1.99045C13.6322 1.99045 13.7588 2.04115 13.8541 2.13202C13.9477 2.22592 14.0002 2.35308 14.0002 2.48564C14.0002 2.6182 13.9477 2.74536 13.8541 2.83927L10.1141 6.57927L10.8211 7.28632L14.5611 3.54657C14.8421 3.26508 15 2.88359 15 2.48583C15 2.08808 14.8423 1.70656 14.5613 1.42502Z" fill="currentColor" style="fill-opacity:1"/>
</svg>
