<svg viewBox="0 0 16 16" fill="none" xmlns="http://www.w3.org/2000/svg">
<path id="icon" d="M6.05 0.999972C5.09111 0.996708 4.15234 1.27486 3.35 1.79997L6.55 4.99997C6.65658 5.0909 6.74388 5.20224 6.80676 5.32742C6.86964 5.45261 6.90684 5.58911 6.91616 5.72889C6.92548 5.86868 6.90673 6.00891 6.86102 6.14134C6.81531 6.27376 6.74356 6.3957 6.65 6.49997C6.54573 6.59353 6.42379 6.66528 6.29137 6.71099C6.15894 6.7567 6.01871 6.77544 5.87893 6.76613C5.73915 6.75681 5.60264 6.71961 5.47746 6.65673C5.35227 6.59384 5.24093 6.50654 5.15 6.39997L1.85 3.19997C1.27945 4.03954 0.982549 5.03503 1 6.04997C1.00527 7.38769 1.53901 8.66912 2.48493 9.61504C3.43085 10.561 4.71228 11.0947 6.05 11.1C6.48779 11.1024 6.92427 11.052 7.35 10.95L10.7 14.3C11.1708 14.7707 11.8093 15.0352 12.475 15.0352C13.1408 15.0352 13.7792 14.7707 14.25 14.3C14.7208 13.8292 14.9852 13.1907 14.9852 12.525C14.9852 11.8592 14.7208 11.2207 14.25 10.75L10.9 7.39997C11.002 6.97424 11.0524 6.53776 11.05 6.09997C11.0633 5.435 10.9438 4.77405 10.6985 4.15583C10.4532 3.53761 10.087 2.97455 9.62137 2.49961C9.15575 2.02468 8.60004 1.64741 7.9868 1.38991C7.37357 1.13241 6.71511 0.999839 6.05 0.999972V0.999972ZM10.05 6.04997C10.0493 6.40526 9.99878 6.75869 9.9 7.09997L9.75 7.64997L10.15 8.04997L13.5 11.4C13.6427 11.535 13.7562 11.6979 13.8336 11.8784C13.911 12.059 13.9506 12.2535 13.95 12.45C13.9556 12.6472 13.9183 12.8432 13.8406 13.0245C13.7629 13.2058 13.6467 13.3681 13.5 13.5C13.3646 13.6422 13.2017 13.7554 13.0212 13.8327C12.8407 13.9101 12.6464 13.95 12.45 13.95C12.2536 13.95 12.0593 13.9101 11.8788 13.8327C11.6983 13.7554 11.5354 13.6422 11.4 13.5L8.05 10.15L7.65 9.74997L7.1 9.89997C6.75872 9.99875 6.40529 10.0492 6.05 10.05C4.98754 10.047 3.96698 9.63522 3.2 8.89997C2.81213 8.535 2.50497 8.09286 2.29829 7.60201C2.09162 7.11116 1.99001 6.58247 2 6.04997C2.00069 5.67825 2.05114 5.3083 2.15 4.94997L4.35 7.14997C4.5359 7.35227 4.76021 7.51553 5.00985 7.63025C5.25949 7.74496 5.52947 7.80884 5.80405 7.81814C6.07863 7.82745 6.35231 7.78201 6.60915 7.68446C6.86599 7.58691 7.10084 7.43921 7.3 7.24997C7.48924 7.0508 7.63694 6.81595 7.73449 6.55912C7.83204 6.30228 7.87748 6.0286 7.86818 5.75402C7.85887 5.47944 7.79499 5.20946 7.68028 4.95982C7.56556 4.71018 7.4023 4.48587 7.2 4.29997L5 2.09997C5.32338 1.9977 5.66086 1.94708 6 1.94997C7.06247 1.95292 8.08303 2.36473 8.85 3.09997C9.61769 3.89031 10.048 4.94817 10.05 6.04997V6.04997Z" fill="currentColor" style="fill-opacity:1"/>
</svg>
