<svg viewBox="0 0 16 16" fill="none" xmlns="http://www.w3.org/2000/svg">
<path d="M15 14.0001H1V15.0001H15V14.0001Z" fill="currentColor" style="fill-opacity:1"/>
<path d="M7.86396 4.84308L5.74264 6.9644L6.44974 7.67151L8.57106 5.55019L7.86396 4.84308Z" fill="currentColor" style="fill-opacity:1"/>
<path d="M6.04075 11.7165L8.09915 12.8753C8.28931 12.9801 8.5083 13.0204 8.72331 12.9903C8.93832 12.9601 9.13777 12.8611 9.2918 12.7081L13.7081 8.29181C13.8611 8.13776 13.9601 7.93826 13.9902 7.72322C14.0203 7.50817 13.9799 7.28916 13.8751 7.09901L12.7262 5.03101L13.6213 4.13601L12.9142 3.42891L12.2071 4.13601L9.73205 1.66101C9.54434 1.47378 9.29005 1.36863 9.02493 1.36863C8.75981 1.36863 8.50551 1.47378 8.3178 1.66101L7.2573 0.600458L6.55 1.30756L7.61065 2.36826L3.3682 6.61086L2.30755 5.55006L1.60045 6.25731L2.6611 7.31796C2.47386 7.50566 2.36871 7.75996 2.36871 8.02508C2.36871 8.29021 2.47386 8.54451 2.6611 8.73221L5.1361 11.2072L4.42885 11.9142L5.136 12.6213L6.04075 11.7165ZM13.0007 7.58471L8.58435 12.0011L6.31155 10.7384L11.7383 5.31181L13.0007 7.58471ZM4.78245 9.43931L5.48955 8.73221L4.78245 8.02506L4.0753 8.73221L3.3682 8.02506L9.025 2.36826L9.73215 3.07536L9.025 3.78246L9.7322 4.48956L10.4393 3.78246L11.1464 4.48956L5.48955 10.1464L4.78245 9.43931Z" fill="currentColor" style="fill-opacity:1"/>
</svg>
