<svg viewBox="0 0 16 16" fill="none" xmlns="http://www.w3.org/2000/svg">
<path d="M13.6515 0.999994C13.4736 0.999993 13.2976 1.03565 13.1337 1.10486C12.9699 1.17407 12.8216 1.27543 12.6975 1.40294L12.5009 1.60559L12.3025 1.40294C12.1784 1.27543 12.0301 1.17407 11.8663 1.10486C11.7024 1.03565 11.5264 0.999988 11.3485 0.999988C11.1707 0.999988 10.9946 1.03565 10.8308 1.10486C10.6669 1.17407 10.5186 1.27543 10.3946 1.40294C10.1415 1.66404 10 2.01339 10 2.37702C10 2.74064 10.1415 3.08999 10.3946 3.35109L12.5009 5.49999L14.6054 3.35109C14.8585 3.08999 15 2.74064 15 2.37702C15 2.01339 14.8585 1.66404 14.6054 1.40294C14.4814 1.27544 14.3331 1.17408 14.1693 1.10487C14.0054 1.03566 13.8294 0.999999 13.6515 0.999994Z" fill="currentColor" style="fill-opacity:1"/>
<path d="M11 6.49999V7.99999H3V4.99999H7.5V3.99999H3.09215C3.19486 3.70835 3.38533 3.45566 3.6374 3.27661C3.88948 3.09756 4.1908 3.00093 4.5 2.99999H7.5V1.99999H4.5C3.83719 2.00075 3.20174 2.26438 2.73307 2.73306C2.26439 3.20174 2.00075 3.83718 2 4.49999V10.5C2.00186 11.0374 2.17718 11.5598 2.49989 11.9896C2.82259 12.4193 3.27543 12.7334 3.791 12.885L2.88465 15H3.97255L4.8297 13H9.1703L10.0274 15H11.1153L10.209 12.885C10.7246 12.7334 11.1774 12.4193 11.5001 11.9896C11.8228 11.5598 11.9981 11.0374 12 10.5V6.49999H11ZM11 9.99999H9.5V11H10.9079C10.8051 11.2916 10.6147 11.5443 10.3626 11.7234C10.1105 11.9024 9.8092 11.9991 9.5 12H4.5C4.1908 11.9991 3.88948 11.9024 3.6374 11.7234C3.38533 11.5443 3.19486 11.2916 3.09215 11H4.5V9.99999H3V8.99999H11V9.99999Z" fill="currentColor" style="fill-opacity:1"/>
</svg>
