<svg viewBox="0 0 16 16" fill="none" xmlns="http://www.w3.org/2000/svg">
<path d="M15 12.5H1V13.5H2V14.5H3V13.5H5.5V14.5H6.5V13.5H9V14.5H10V13.5H12.5V14.5H13.5V13.5H15V12.5Z" fill="currentColor" style="fill-opacity:1"/>
<path d="M14.8572 8.29499L9.0747 4.31999C7.8255 3.45845 6.34343 2.99801 4.82595 2.99999H1V3.99999H4.82595C6.14107 3.99825 7.42552 4.39714 8.5083 5.14354L9.0266 5.49999H4.5V6.49999H10.4812L14.2906 9.11889C14.3755 9.17727 14.4396 9.26129 14.4734 9.35868C14.5071 9.45606 14.5089 9.56171 14.4783 9.66016C14.4478 9.75861 14.3865 9.8447 14.3035 9.90585C14.2206 9.96699 14.1202 9.99998 14.0171 9.99999H1V11H14.0171C14.3335 10.9999 14.6416 10.8986 14.8964 10.7109C15.1511 10.5232 15.3392 10.259 15.433 9.95677C15.5269 9.65457 15.5216 9.33028 15.418 9.0313C15.3144 8.73231 15.1179 8.47431 14.8572 8.29499Z" fill="currentColor" style="fill-opacity:1"/>
</svg>
