<svg viewBox="0 0 16 16" fill="none" xmlns="http://www.w3.org/2000/svg">
<path d="M14.5628 3.5625C14.4137 3.5625 14.2706 3.50324 14.1651 3.39775C14.0596 3.29226 14.0003 3.14918 14.0003 3C14.0003 2.85082 14.0596 2.70774 14.1651 2.60225C14.2706 2.49676 14.4137 2.4375 14.5628 2.4375H15.0003V1H9.00035V2.4375H9.43785C9.58703 2.4375 9.73011 2.49676 9.8356 2.60225C9.94109 2.70774 10.0003 2.85082 10.0003 3C10.0003 3.14918 9.94109 3.29226 9.8356 3.39775C9.73011 3.50324 9.58703 3.5625 9.43785 3.5625H9.00035V5H15.0003V3.5625H14.5628Z" fill="currentColor" style="fill-opacity:1"/>
<path d="M11.0003 6.5V8H3.00035V5H7.50035V4H3.0925C3.19521 3.70836 3.38567 3.45566 3.63775 3.27661C3.88983 3.09756 4.19115 3.00093 4.50035 3H7.50035V2H4.50035C3.83754 2.00075 3.20209 2.26439 2.73342 2.73307C2.26474 3.20174 2.0011 3.83719 2.00035 4.5V10.5C2.00221 11.0374 2.17753 11.5598 2.50024 11.9896C2.82294 12.4193 3.27578 12.7334 3.79135 12.885L2.885 15H3.9729L4.83 13H9.1706L10.0277 15H11.1156L10.2093 12.885C10.7249 12.7334 11.1777 12.4193 11.5004 11.9896C11.8232 11.5599 11.9985 11.0374 12.0003 10.5V6.5H11.0003ZM11.0003 10H9.50035V11H10.9082C10.8055 11.2916 10.615 11.5443 10.3629 11.7234C10.1109 11.9024 9.80954 11.9991 9.50035 12H4.50035C4.19115 11.9991 3.88983 11.9024 3.63775 11.7234C3.38567 11.5443 3.19521 11.2916 3.0925 11H4.50035V10H3.00035V9H11.0003V10Z" fill="currentColor" style="fill-opacity:1"/>
</svg>
