<svg viewBox="0 0 16 16" fill="none" xmlns="http://www.w3.org/2000/svg">
<path d="M11.5 8.5V7.5H10.45C10.4 7.2 10.25 6.9 10.1 6.6L10.85 5.85L10.15 5.15L9.4 5.9C9.15 5.75 8.85 5.6 8.5 5.55V4.5H7.5V5.55C7.2 5.6 6.9 5.75 6.6 5.9L5.85 5.15L5.15 5.85L5.9 6.6C5.75 6.85 5.6 7.15 5.55 7.5H4.5V8.5H5.55C5.6 8.8 5.75 9.1 5.9 9.4L5.15 10.15L5.85 10.85L6.6 10.1C6.85 10.25 7.15 10.4 7.5 10.45V11.5H8.5V10.45C8.8 10.4 9.1 10.25 9.4 10.1L10.15 10.85L10.85 10.15L10.1 9.4C10.25 9.15 10.4 8.85 10.45 8.5H11.5ZM8 9.5C7.15 9.5 6.5 8.85 6.5 8C6.5 7.15 7.15 6.5 8 6.5C8.85 6.5 9.5 7.15 9.5 8C9.5 8.85 8.85 9.5 8 9.5Z" fill="currentColor" style="fill-opacity:1"/>
<path d="M8 1V2C11.3 2 14 4.7 14 8C14 11.3 11.3 14 8 14V15C11.85 15 15 11.85 15 8C15 4.15 11.85 1 8 1Z" fill="currentColor" style="fill-opacity:1"/>
<path d="M4.1 12.55L3.5 13.35C4.1 13.85 4.8 14.3 5.6 14.55L5.95 13.6C5.25 13.35 4.65 13 4.1 12.55Z" fill="currentColor" style="fill-opacity:1"/>
<path d="M2.1 9L1.1 9.2C1.25 10 1.55 10.8 1.95 11.5L2.8 11C2.45 10.4 2.2 9.7 2.1 9Z" fill="currentColor" style="fill-opacity:1"/>
<path d="M2.8 5L1.95 4.5C1.55 5.2 1.25 6 1.15 6.8L2.15 6.95C2.2 6.25 2.45 5.6 2.8 5Z" fill="currentColor" style="fill-opacity:1"/>
<path d="M5.9 2.4L5.55 1.45C4.8 1.75 4.1 2.15 3.5 2.65L4.15 3.4C4.65 3 5.25 2.65 5.9 2.4Z" fill="currentColor" style="fill-opacity:1"/>
</svg>
