<svg viewBox="0 0 16 16" fill="none" xmlns="http://www.w3.org/2000/svg">
<path d="M8 1V2C11.3 2 14 4.7 14 8C14 11.3 11.3 14 8 14V15C11.85 15 15 11.85 15 8C15 4.15 11.85 1 8 1Z" fill="currentColor" style="fill-opacity:1"/>
<path d="M4.1 12.55L3.5 13.35C4.1 13.85 4.8 14.3 5.6 14.55L5.95 13.6C5.25 13.35 4.65 13 4.1 12.55Z" fill="currentColor" style="fill-opacity:1"/>
<path d="M2.10001 9L1.10001 9.2C1.25001 10 1.55001 10.8 1.95001 11.5L2.80001 11C2.45001 10.4 2.20001 9.7 2.10001 9Z" fill="currentColor" style="fill-opacity:1"/>
<path d="M2.79999 5L1.94999 4.5C1.54999 5.2 1.24999 6 1.14999 6.8L2.14999 6.95C2.19999 6.25 2.44999 5.6 2.79999 5Z" fill="currentColor" style="fill-opacity:1"/>
<path d="M5.9 2.4L5.55 1.45C4.8 1.75 4.1 2.15 3.5 2.65L4.15 3.4C4.65 3 5.25 2.65 5.9 2.4Z" fill="currentColor" style="fill-opacity:1"/>
<path d="M5.915 8L7.205 6.71L6.5 6L4.5 8L6.5 10L7.21 9.295L5.915 8Z" fill="currentColor" style="fill-opacity:1"/>
<path d="M10.085 8L8.79499 9.29L9.49999 10L11.5 8L9.49999 6L8.78999 6.705L10.085 8Z" fill="currentColor" style="fill-opacity:1"/>
</svg>
