<svg viewBox="0 0 16 16" fill="none" xmlns="http://www.w3.org/2000/svg">
<path d="M5.28499 15L5.75164 14H10.248L10.7147 15H11.8183L8.49999 7.88891V5.50001H7.49999V7.88891L4.18154 15H5.28499ZM7.99999 9.18236L8.84824 11H7.15174L7.99999 9.18236ZM6.68499 12H9.31499L9.78164 13H6.21844L6.68499 12Z" fill="currentColor" style="fill-opacity:1"/>
<path d="M5.39159 4.66626C5.71991 4.29934 6.12195 4.00581 6.57143 3.80485C7.02092 3.60389 7.50775 3.50002 8.00012 3.50002C8.49248 3.50002 8.97931 3.60389 9.4288 3.80485C9.87829 4.00581 10.2803 4.29934 10.6086 4.66626L9.86364 5.33326C9.62915 5.07108 9.34196 4.86133 9.02086 4.71772C8.69976 4.57412 8.35197 4.49989 8.00022 4.49989C7.64846 4.49989 7.30067 4.57412 6.97957 4.71772C6.65847 4.86133 6.37129 5.07108 6.13679 5.33326L5.39159 4.66626Z" fill="currentColor" style="fill-opacity:1"/>
<path d="M3.59959 3.19971C4.11201 2.51675 4.77638 1.96244 5.5401 1.58067C6.30381 1.1989 7.14592 1.00014 7.99974 1.00014C8.85356 1.00014 9.69567 1.1989 10.4594 1.58067C11.2231 1.96244 11.8875 2.51675 12.3999 3.19971L11.6 3.80001C11.1808 3.24108 10.6372 2.78742 10.0123 2.47497C9.38739 2.16251 8.69831 1.99984 7.99964 1.99984C7.30097 1.99984 6.6119 2.16251 5.98699 2.47497C5.36208 2.78742 4.81849 3.24108 4.39929 3.80001L3.59959 3.19971Z" fill="currentColor" style="fill-opacity:1"/>
</svg>
