<svg viewBox="0 0 16 16" fill="none" xmlns="http://www.w3.org/2000/svg">
<path d="M14.9558 6.96775L11.8142 1.1853C11.7832 1.12916 11.7376 1.08237 11.6824 1.04979C11.6271 1.0172 11.5641 1.00002 11.5 1.00002C11.4359 1.00002 11.3729 1.0172 11.3176 1.04979C11.2624 1.08237 11.2168 1.12916 11.1858 1.1853L8.04425 6.96775C8.01439 7.02255 7.99929 7.08417 8.00043 7.14657C8.00157 7.20897 8.01891 7.27 8.05075 7.32368C8.08259 7.37735 8.12784 7.42183 8.18206 7.45274C8.23627 7.48365 8.29759 7.49994 8.36 7.5H14.64C14.7024 7.49994 14.7637 7.48365 14.8179 7.45274C14.8722 7.42183 14.9174 7.37735 14.9493 7.32368C14.9811 7.27 14.9984 7.20897 14.9996 7.14657C15.0007 7.08417 14.9856 7.02255 14.9558 6.96775ZM11.125 3H11.875V5H11.125V3ZM11.5 6.5C11.4011 6.5 11.3044 6.47068 11.2222 6.41574C11.14 6.36079 11.0759 6.28271 11.0381 6.19134C11.0002 6.09998 10.9903 5.99945 11.0096 5.90246C11.0289 5.80546 11.0765 5.71637 11.1464 5.64645C11.2164 5.57652 11.3055 5.5289 11.4025 5.50961C11.4994 5.49031 11.6 5.50022 11.6913 5.53806C11.7827 5.5759 11.8608 5.63999 11.9157 5.72221C11.9707 5.80444 12 5.90111 12 6C12 6.13261 11.9473 6.25979 11.8536 6.35355C11.7598 6.44732 11.6326 6.5 11.5 6.5Z" fill="currentColor" style="fill-opacity:1"/>
<path d="M13 9.5V8.5H8.5V14C8.50036 14.2651 8.60583 14.5193 8.79329 14.7067C8.98075 14.8942 9.23489 14.9996 9.5 15H11V14H9.5V9.5H13Z" fill="currentColor" style="fill-opacity:1"/>
<path d="M6 15H4.5V14H6V7.7832L4.2427 6.72875L4.7573 5.87135L6.51465 6.92555C6.66234 7.01485 6.78456 7.14065 6.86956 7.29086C6.95457 7.44106 6.99948 7.61061 7 7.7832V14C6.99968 14.2651 6.89422 14.5193 6.70676 14.7068C6.51929 14.8942 6.26512 14.9997 6 15Z" fill="currentColor" style="fill-opacity:1"/>
<path d="M9.3319 2.50295L9.8119 1.6194C9.11197 1.20644 8.31263 0.992285 7.5 1C6.79866 1.00203 6.11009 1.1878 5.5029 1.5388C4.89571 1.88979 4.39108 2.39376 4.0393 3.0005C4.02625 3 4.0132 3 4 3C3.20435 3 2.44129 3.31607 1.87868 3.87868C1.31607 4.44129 1 5.20435 1 6C1 6.79565 1.31607 7.55871 1.87868 8.12132C2.44129 8.68393 3.20435 9 4 9V8C3.46957 8 2.96086 7.78929 2.58579 7.41421C2.21071 7.03914 2 6.53043 2 6C2 5.46957 2.21071 4.96086 2.58579 4.58579C2.96086 4.21071 3.46957 4 4 4C4.06489 4.00186 4.12955 4.00839 4.1935 4.01955L4.625 4.07665L4.7793 3.7429C5.02016 3.22377 5.40404 2.78408 5.88593 2.47538C6.36781 2.16669 6.92772 2.00178 7.5 2C8.1457 1.99269 8.78045 2.16696 9.3319 2.50295Z" fill="currentColor" style="fill-opacity:1"/>
</svg>
