<svg viewBox="0 0 16 16" fill="none" xmlns="http://www.w3.org/2000/svg">
<path d="M13.9744 12.8418C13.9412 12.7425 13.8777 12.6561 13.7929 12.5948C13.708 12.5335 13.606 12.5004 13.5014 12.5001C13.3967 12.4998 13.2945 12.5324 13.2094 12.5933C13.1242 12.6542 13.0603 12.7402 13.0266 12.8394C12.9161 13.1625 12.7119 13.4455 12.4401 13.6522C12.1682 13.8589 11.8409 13.98 11.5 14C11.1591 13.98 10.8318 13.8589 10.5599 13.6522C10.2881 13.4455 10.0839 13.1625 9.9734 12.8394C9.93975 12.7402 9.87583 12.6542 9.79065 12.5933C9.70547 12.5324 9.60334 12.4998 9.49865 12.5001C9.39396 12.5004 9.29199 12.5335 9.20713 12.5948C9.12227 12.6561 9.05879 12.7425 9.02565 12.8418C8.91498 13.1645 8.71081 13.4469 8.43912 13.6531C8.16744 13.8594 7.84053 13.9801 7.5 14H7.2832C6.96205 13.397 6 11.156 6 6.00002V5.93437L6.55845 6.30667C6.80398 6.47169 7.02567 6.66966 7.2173 6.89502L7.71765 5.97412C7.53207 5.7893 7.3297 5.62215 7.11315 5.47482L6.40125 5.00002H7.16665C7.50456 5.00272 7.8403 5.05444 8.16335 5.15357L8.6511 4.25587C8.17416 4.08784 7.67233 4.00135 7.16665 4.00002H6.55845C7.21167 3.36243 8.08721 3.00383 9 3.00002H9.33345L9.8768 2.00002H9C8.32827 2.00254 7.66555 2.15482 7.06009 2.44577C6.45464 2.73672 5.92167 3.15902 5.5 3.68192C5.07833 3.15902 4.54537 2.73673 3.93991 2.44578C3.33445 2.15483 2.67174 2.00255 2 2.00002H1V3.00002H2C2.91277 3.00376 3.78829 3.36237 4.4414 4.00002H3.83325C2.85994 4.00217 1.91319 4.31775 1.13325 4.90002L0.200003 5.60002L0.800003 6.40002L1.7334 5.70002C2.33991 5.24693 3.07634 5.00145 3.8334 5.00002H4.59865L3.8867 5.47462C3.3058 5.86099 2.82952 6.3851 2.50032 7.00022C2.17113 7.61534 1.99925 8.30235 2 9.00002H3C2.99938 8.467 3.13067 7.94212 3.38218 7.47217C3.63368 7.00223 3.99757 6.60182 4.4414 6.30667L5 5.93437V6.00002C5 10.4683 5.6997 12.877 6.1775 14H1V15H7.5C7.88804 15.0035 8.27141 14.9153 8.61894 14.7426C8.96647 14.5699 9.26834 14.3177 9.5 14.0064C9.73404 14.3151 10.0364 14.5655 10.3834 14.7379C10.7304 14.9103 11.1126 15 11.5 15C11.8875 15 12.2696 14.9103 12.6166 14.7379C12.9636 14.5655 13.266 14.3151 13.5 14.0064C13.8682 14.4929 14.4018 14.8279 15 14.948V13.9063C14.766 13.8073 14.5545 13.662 14.3782 13.479C14.2019 13.2961 14.0646 13.0793 13.9744 12.8418Z" fill="currentColor" style="fill-opacity:1"/>
<path d="M14.9558 6.96777L11.8142 1.18532C11.7832 1.12918 11.7376 1.08239 11.6824 1.04981C11.6271 1.01722 11.5642 1.00004 11.5 1.00004C11.4359 1.00004 11.3729 1.01722 11.3176 1.04981C11.2624 1.08239 11.2168 1.12918 11.1858 1.18532L8.04425 6.96777C8.01439 7.02257 7.99929 7.08419 8.00043 7.14659C8.00157 7.20899 8.01891 7.27002 8.05075 7.32369C8.08259 7.37737 8.12784 7.42184 8.18206 7.45276C8.23627 7.48367 8.29759 7.49995 8.36 7.50002H14.64C14.7024 7.49995 14.7637 7.48367 14.8179 7.45276C14.8722 7.42184 14.9174 7.37737 14.9493 7.32369C14.9811 7.27002 14.9984 7.20899 14.9996 7.14659C15.0007 7.08419 14.9856 7.02257 14.9558 6.96777ZM11.125 3.00002H11.875V5.00002H11.125V3.00002ZM11.5 6.50002C11.4011 6.50002 11.3044 6.47069 11.2222 6.41575C11.14 6.36081 11.0759 6.28272 11.0381 6.19136C11.0002 6.1 10.9903 5.99946 11.0096 5.90247C11.0289 5.80548 11.0765 5.71639 11.1464 5.64646C11.2164 5.57654 11.3055 5.52892 11.4025 5.50962C11.4994 5.49033 11.6 5.50023 11.6913 5.53808C11.7827 5.57592 11.8608 5.64001 11.9157 5.72223C11.9707 5.80446 12 5.90113 12 6.00002C12 6.13263 11.9473 6.2598 11.8536 6.35357C11.7598 6.44734 11.6326 6.50002 11.5 6.50002Z" fill="currentColor" style="fill-opacity:1"/>
</svg>
