<svg viewBox="0 0 16 16" fill="none" xmlns="http://www.w3.org/2000/svg">
<path d="M5 8.5C4.60444 8.5 4.21776 8.3827 3.88886 8.16294C3.55996 7.94318 3.30361 7.63082 3.15224 7.26537C3.00086 6.89992 2.96126 6.49778 3.03843 6.10982C3.1156 5.72186 3.30608 5.36549 3.58578 5.08579C3.86549 4.80608 4.22186 4.6156 4.60982 4.53843C4.99778 4.46126 5.39991 4.50087 5.76537 4.65224C6.13082 4.80362 6.44317 5.05996 6.66294 5.38886C6.8827 5.71776 7 6.10444 7 6.5C6.9994 7.03025 6.7885 7.53861 6.41355 7.91356C6.03861 8.2885 5.53025 8.4994 5 8.5ZM5 5.5C4.80222 5.5 4.60888 5.55865 4.44443 5.66853C4.27998 5.77841 4.15181 5.93459 4.07612 6.11732C4.00043 6.30004 3.98063 6.50111 4.01921 6.69509C4.0578 6.88907 4.15304 7.06725 4.29289 7.20711C4.43274 7.34696 4.61093 7.4422 4.80491 7.48079C4.99889 7.51937 5.19996 7.49957 5.38268 7.42388C5.56541 7.34819 5.72159 7.22002 5.83147 7.05557C5.94135 6.89112 6 6.69778 6 6.5C5.99972 6.23487 5.89427 5.98068 5.7068 5.7932C5.51932 5.60572 5.26513 5.50028 5 5.5Z" fill="currentColor" style="fill-opacity:1"/>
<path d="M7.4094 3.325C7.46755 3.26445 8.34155 2.3655 8.8535 1.8533C8.92333 1.78336 8.97088 1.6943 8.99012 1.59736C9.00937 1.50041 8.99945 1.39994 8.96162 1.30863C8.92379 1.21733 8.85976 1.13928 8.77759 1.08434C8.69543 1.02941 8.59883 1.00006 8.5 1C5.906 1 0.999998 2.1494 0.999998 6.5C0.99865 7.11669 1.14183 7.72512 1.41805 8.27649C1.69428 8.82786 2.09586 9.30684 2.5906 9.675C2.51 9.75875 1.61525 10.6777 1.1465 11.1465C1.07658 11.2164 1.02896 11.3055 1.00966 11.4024C0.990371 11.4994 1.00027 11.6 1.03811 11.6913C1.07594 11.7827 1.14002 11.8608 1.22224 11.9157C1.30445 11.9707 1.40111 12 1.5 12C4.094 12 9 10.8506 9 6.5C9.00139 5.8833 8.85823 5.27486 8.582 4.72348C8.30577 4.1721 7.90417 3.69313 7.4094 3.325ZM4.85325 10.3965C4.18933 10.6291 3.50367 10.7941 2.80665 10.8891C2.8877 10.8061 4.1909 9.4365 4.1909 9.4365L3.60375 9.1328C3.11988 8.88423 2.71407 8.50685 2.43107 8.04227C2.14808 7.57769 1.9989 7.04398 2 6.5C2 4.6665 3.05885 3.3557 5.14675 2.6035C5.81067 2.37095 6.49633 2.2059 7.19335 2.11085C7.07985 2.22705 5.80885 3.5637 5.80885 3.5637L6.39625 3.8672C6.88008 4.11582 7.28586 4.49321 7.56884 4.95778C7.85183 5.42234 8.00103 5.95603 8 6.5C8 8.3335 6.94115 9.6443 4.85325 10.3965Z" fill="currentColor" style="fill-opacity:1"/>
<path d="M15 8.5L12.5 6L10 8.5L10.7063 9.20775L12 7.91625V9.5C11.9987 10.6931 11.5241 11.8369 10.6805 12.6805C9.83689 13.5241 8.69307 13.9987 7.5 14H6V15H7.5C8.95818 14.9983 10.3562 14.4184 11.3873 13.3873C12.4184 12.3562 12.9983 10.9582 13 9.5V7.91625L14.2929 9.20705L15 8.5Z" fill="currentColor" style="fill-opacity:1"/>
</svg>
