<svg viewBox="0 0 16 16" fill="none" xmlns="http://www.w3.org/2000/svg">
<path d="M8 10.5C7.50555 10.5 7.0222 10.3534 6.61107 10.0787C6.19995 9.80397 5.87952 9.41352 5.6903 8.95671C5.50108 8.49989 5.45157 7.99723 5.54804 7.51227C5.6445 7.02732 5.8826 6.58186 6.23223 6.23223C6.58186 5.8826 7.02732 5.6445 7.51227 5.54804C7.99723 5.45157 8.49989 5.50108 8.95671 5.6903C9.41352 5.87952 9.80397 6.19995 10.0787 6.61107C10.3534 7.0222 10.5 7.50555 10.5 8C10.4992 8.66281 10.2356 9.29826 9.76693 9.76693C9.29825 10.2356 8.66281 10.4992 8 10.5ZM8 6.5C7.70333 6.5 7.41332 6.58797 7.16664 6.7528C6.91997 6.91762 6.72771 7.15189 6.61418 7.42597C6.50065 7.70006 6.47094 8.00166 6.52882 8.29264C6.5867 8.58361 6.72956 8.85088 6.93934 9.06066C7.14912 9.27044 7.41639 9.4133 7.70736 9.47118C7.99833 9.52906 8.29993 9.49935 8.57402 9.38582C8.84811 9.27229 9.08238 9.08003 9.2472 8.83335C9.41203 8.58668 9.5 8.29667 9.5 8C9.49956 7.60231 9.34139 7.22103 9.06018 6.93982C8.77897 6.65861 8.39769 6.50044 8 6.5Z" fill="currentColor" style="fill-opacity:1"/>
<path d="M11.326 2.09105L9.53565 4.1587L10.3932 4.8025C10.8924 5.17257 11.2977 5.65472 11.5765 6.2101C11.8553 6.76549 11.9997 7.37858 11.9981 8L11.9985 8.0288L11.9994 8.04955C12.0084 8.2654 12.12 13.1052 4.6725 13.9107L6.46445 11.8413L5.60695 11.1975C5.10771 10.8274 4.70237 10.3453 4.42358 9.78992C4.14478 9.23453 4.00033 8.62143 4.00185 8L4.00145 7.9712L4.0006 7.95045C3.9916 7.735 3.88025 2.90355 11.326 2.09105ZM12.4989 1C12.4907 1 12.4825 1 12.4742 1.0005C2.6266 1.4573 3.00185 8 3.00185 8C3.00185 8.77634 3.18308 9.54197 3.53112 10.2359C3.87916 10.9299 4.38439 11.533 5.0066 11.9973L3.1184 14.1777C3.0579 14.2509 3.01937 14.3397 3.00728 14.4339C2.99519 14.528 3.01003 14.6237 3.05009 14.7097C3.09014 14.7958 3.15377 14.8687 3.2336 14.9201C3.31342 14.9715 3.40617 14.9992 3.5011 15C3.5093 15 3.51745 15 3.52575 14.9995C13.3734 14.5427 12.9981 8 12.9981 8C12.9981 7.22367 12.8169 6.45807 12.4689 5.76411C12.1209 5.07016 11.6157 4.46702 10.9935 4.0027L12.8816 1.82225C12.9421 1.7491 12.9806 1.6603 12.9927 1.56614C13.0048 1.47199 12.99 1.37633 12.9499 1.29027C12.9099 1.20421 12.8462 1.13126 12.7664 1.07988C12.6866 1.02851 12.5938 1.00081 12.4989 1Z" fill="currentColor" style="fill-opacity:1"/>
</svg>
