<svg viewBox="0 0 16 16" fill="none" xmlns="http://www.w3.org/2000/svg">
<path id="icon" d="M15 13H12C11.0011 12.9965 10.026 12.695 9.19956 12.134C8.37309 11.573 7.73287 10.7781 7.36088 9.8511C6.98889 8.92408 6.90207 7.90712 7.11152 6.93045C7.32098 5.95378 7.81719 5.06186 8.5366 4.36889C7.88333 4.12816 7.19305 4.00332 6.49685 3.99999C5.88807 3.99374 5.28847 4.14863 4.75889 4.44895C4.22931 4.74928 3.78859 5.18434 3.48145 5.70999C2.4983 7.21739 2 9.66999 2 13H1C1 9.47289 1.553 6.83629 2.64355 5.16369C3.04199 4.49889 3.60705 3.94959 4.28285 3.57011C4.95866 3.19063 5.72181 2.99412 6.49685 2.99999H6.50025C7.62378 3.01594 8.72885 3.28819 9.7312 3.79599C9.80845 3.83629 9.87382 3.89606 9.92085 3.9694C9.96788 4.04274 9.99493 4.1271 9.99932 4.21411C10.0037 4.30112 9.98529 4.38777 9.94588 4.46547C9.90648 4.54318 9.84745 4.60923 9.77465 4.65709C9.06176 5.13609 8.52139 5.8312 8.23298 6.64019C7.94458 7.44918 7.92337 8.32937 8.17247 9.15131C8.42157 9.97326 8.92783 10.6936 9.61682 11.2064C10.3058 11.7192 11.1411 11.9973 12 12H15V13Z" fill="currentColor" style="fill-opacity:1"/>
</svg>
