<svg viewBox="0 0 16 16" fill="none" xmlns="http://www.w3.org/2000/svg">
<g id="Icons / Two-person-lift" clip-path="url(#clip0_0_106)">
<g id="icon">
<path d="M13.48 15L12.5193 11.6373C12.4923 11.5426 12.4938 11.4419 12.5238 11.3481C12.5538 11.2542 12.6108 11.1712 12.6877 11.1096L14.937 9.31L14.26 6.6007L12.8909 8.3124C12.8439 8.37093 12.7844 8.41818 12.7168 8.45065C12.6491 8.48312 12.575 8.49998 12.5 8.5H10V7.5H12.26L14.1097 5.1876C14.1679 5.11486 14.2453 5.05983 14.3331 5.02872C14.4209 4.99761 14.5157 4.99166 14.6067 5.01154C14.6977 5.03142 14.7814 5.07634 14.8483 5.14123C14.9151 5.20613 14.9625 5.28841 14.9851 5.3788L15.9851 9.3788C16.0084 9.47163 16.0046 9.56919 15.974 9.65989C15.9435 9.75059 15.8875 9.8306 15.8128 9.8904L13.5728 11.6826L14.4422 14.7253L13.48 15Z" fill="currentColor" style="fill-opacity:1"/>
<path d="M11.5 2.75C11.5 2.40388 11.6026 2.06554 11.7949 1.77775C11.9872 1.48997 12.2605 1.26566 12.5803 1.13321C12.9001 1.00076 13.2519 0.966101 13.5914 1.03362C13.9309 1.10115 14.2427 1.26782 14.4874 1.51256C14.7322 1.7573 14.8989 2.06912 14.9664 2.40859C15.0339 2.74806 14.9992 3.09992 14.8668 3.4197C14.7343 3.73947 14.51 4.01278 14.2223 4.20507C13.9345 4.39736 13.5961 4.5 13.25 4.5C12.786 4.49944 12.3412 4.31489 12.0132 3.98682C11.6851 3.65875 11.5006 3.21396 11.5 2.75ZM12.5 2.75C12.5 2.89834 12.544 3.04334 12.6264 3.16668C12.7088 3.29001 12.8259 3.38614 12.963 3.44291C13.1 3.49967 13.2508 3.51453 13.3963 3.48559C13.5418 3.45665 13.6754 3.38522 13.7803 3.28033C13.8852 3.17544 13.9567 3.0418 13.9856 2.89632C14.0145 2.75083 13.9997 2.60003 13.9429 2.46299C13.8861 2.32594 13.79 2.20881 13.6667 2.1264C13.5433 2.04399 13.3983 2 13.25 2C13.0512 2.00022 12.8605 2.07931 12.7199 2.21992C12.5793 2.36052 12.5002 2.55116 12.5 2.75Z" fill="currentColor" style="fill-opacity:1"/>
<path d="M10.002 9.5C9.87038 9.5 9.74009 9.47408 9.61852 9.42373C9.49696 9.37338 9.38651 9.29957 9.29347 9.20653C9.20043 9.1135 9.12663 9.00304 9.07627 8.88148C9.02592 8.75992 9 8.62963 9 8.49805V7.50195C9 7.37037 9.02592 7.24008 9.07627 7.11852C9.12663 6.99696 9.20043 6.8865 9.29347 6.79346C9.38651 6.70042 9.49696 6.62662 9.61852 6.57627C9.74009 6.52592 9.87038 6.5 10.002 6.5H11V5H5V6.5H5.99805C6.26379 6.5 6.51864 6.60556 6.70654 6.79346C6.89444 6.98137 7 7.23622 7 7.50195V8.49805C7 8.62963 6.97409 8.75992 6.92374 8.88148C6.87338 9.00304 6.79958 9.1135 6.70654 9.20653C6.6135 9.29957 6.50305 9.37338 6.38148 9.42373C6.25992 9.47408 6.12963 9.5 5.99805 9.5H5V11H11V9.5H10.002Z" fill="currentColor" style="fill-opacity:1"/>
<path d="M2.52 15L3.48075 11.6373C3.50773 11.5426 3.50614 11.4419 3.47618 11.3481C3.44621 11.2542 3.38921 11.1712 3.3123 11.1096L1.063 9.31L1.74025 6.60075L3.10935 8.31245C3.15629 8.37094 3.21576 8.41816 3.28337 8.45062C3.35098 8.48308 3.42501 8.49995 3.5 8.5H6V7.5H3.74025L1.8906 5.1876C1.83238 5.11486 1.755 5.05983 1.66717 5.02872C1.57935 4.99761 1.48458 4.99166 1.39355 5.01154C1.30252 5.03142 1.21886 5.07634 1.152 5.14123C1.08514 5.20613 1.03774 5.28841 1.01515 5.3788L0.015154 9.3788C-0.00815543 9.47163 -0.00430342 9.56919 0.0262516 9.65989C0.0568066 9.75059 0.112778 9.8306 0.187504 9.8904L2.42775 11.6826L1.55825 14.7253L2.52 15Z" fill="currentColor" style="fill-opacity:1"/>
<path d="M2.75 4.5C2.40389 4.5 2.06554 4.39736 1.77776 4.20507C1.48997 4.01278 1.26567 3.73947 1.13321 3.4197C1.00076 3.09992 0.966106 2.74806 1.03363 2.40859C1.10115 2.06912 1.26783 1.7573 1.51257 1.51256C1.75731 1.26782 2.06913 1.10115 2.4086 1.03362C2.74806 0.966101 3.09993 1.00076 3.4197 1.13321C3.73947 1.26566 4.01278 1.48997 4.20508 1.77775C4.39737 2.06554 4.5 2.40388 4.5 2.75C4.49945 3.21396 4.3149 3.65875 3.98683 3.98682C3.65876 4.31489 3.21396 4.49944 2.75 4.5ZM2.75 2C2.60167 2 2.45666 2.04399 2.33333 2.1264C2.20999 2.20881 2.11386 2.32594 2.05709 2.46299C2.00033 2.60003 1.98548 2.75083 2.01441 2.89632C2.04335 3.0418 2.11478 3.17544 2.21967 3.28033C2.32456 3.38522 2.4582 3.45665 2.60369 3.48559C2.74917 3.51453 2.89997 3.49967 3.03702 3.44291C3.17406 3.38614 3.2912 3.29001 3.37361 3.16668C3.45602 3.04334 3.5 2.89834 3.5 2.75C3.49978 2.55116 3.42069 2.36052 3.28009 2.21992C3.13948 2.07931 2.94885 2.00022 2.75 2Z" fill="currentColor" style="fill-opacity:1"/>
</g>
</g>
<defs>
<clipPath id="clip0_0_106">
<rect width="16" height="16" fill="currentColor" style="fill-opacity:1"/>
</clipPath>
</defs>
</svg>
