<svg viewBox="0 0 16 16" fill="none" xmlns="http://www.w3.org/2000/svg">
<path d="M15 7.5H8.5V0.999999H7.5V7.5H1V8.5H7.5V15H8.5V8.5H15V7.5Z" fill="currentColor" style="fill-opacity:1"/>
<path d="M12.793 10L13.5 10.707L11.707 12.5L13.5 14.293L12.793 15L10.293 12.5L12.793 10Z" fill="currentColor" style="fill-opacity:1"/>
<path d="M5.5 15H1.5C1.41477 15 1.33094 14.9782 1.25649 14.9367C1.18204 14.8952 1.11943 14.8354 1.07462 14.7629C1.02981 14.6904 1.00428 14.6076 1.00045 14.5225C0.996622 14.4373 1.01463 14.3526 1.05275 14.2763L3.05275 10.2763C3.09891 10.1989 3.16439 10.1347 3.24279 10.0902C3.3212 10.0456 3.40983 10.0222 3.5 10.0222C3.59018 10.0222 3.67881 10.0456 3.75721 10.0902C3.83562 10.1347 3.9011 10.1989 3.94725 10.2763L5.94725 14.2763C5.98538 14.3526 6.00338 14.4373 5.99956 14.5225C5.99573 14.6076 5.9702 14.6904 5.92538 14.7629C5.88057 14.8354 5.81797 14.8952 5.74352 14.9367C5.66906 14.9782 5.58524 15 5.5 15ZM2.3091 14H4.6909L3.5 11.6181L2.3091 14Z" fill="currentColor" style="fill-opacity:1"/>
<path d="M14 6H11C10.7349 5.99969 10.4807 5.89424 10.2932 5.70677C10.1058 5.5193 10.0003 5.26512 10 5V2C10.0003 1.73488 10.1058 1.4807 10.2932 1.29323C10.4807 1.10576 10.7349 1.0003 11 0.999999H14C14.2651 1.0003 14.5193 1.10576 14.7068 1.29323C14.8942 1.4807 14.9997 1.73488 15 2V5C14.9997 5.26512 14.8942 5.5193 14.7068 5.70677C14.5193 5.89424 14.2651 5.99969 14 6ZM11 2V5H14.0005L14 2H11Z" fill="currentColor" style="fill-opacity:1"/>
<path d="M3.5 6C3.00555 6 2.5222 5.85338 2.11108 5.57867C1.69995 5.30397 1.37952 4.91352 1.1903 4.45671C1.00108 3.99989 0.951577 3.49723 1.04804 3.01227C1.1445 2.52732 1.3826 2.08186 1.73224 1.73223C2.08187 1.3826 2.52732 1.1445 3.01228 1.04804C3.49723 0.951573 3.9999 1.00108 4.45671 1.1903C4.91353 1.37952 5.30397 1.69995 5.57868 2.11107C5.85338 2.5222 6 3.00555 6 3.5C5.99922 4.1628 5.73558 4.79823 5.26691 5.2669C4.79824 5.73558 4.1628 5.99922 3.5 6ZM3.5 2C3.20333 2 2.91332 2.08797 2.66665 2.25279C2.41997 2.41762 2.22772 2.65188 2.11418 2.92597C2.00065 3.20006 1.97095 3.50166 2.02883 3.79263C2.0867 4.08361 2.22956 4.35088 2.43934 4.56066C2.64912 4.77044 2.9164 4.9133 3.20737 4.97118C3.49834 5.02905 3.79994 4.99935 4.07403 4.88582C4.34812 4.77229 4.58239 4.58003 4.74721 4.33335C4.91203 4.08668 5 3.79667 5 3.5C4.99957 3.10231 4.84139 2.72103 4.56018 2.43982C4.27897 2.15861 3.89769 2.00044 3.5 2Z" fill="currentColor" style="fill-opacity:1"/>
</svg>
