<svg viewBox="0 0 16 16" fill="none" xmlns="http://www.w3.org/2000/svg">
<path id="icon" d="M14.9927 7.915C14.7116 6.35446 13.9225 4.93062 12.7482 3.86505C11.574 2.79948 10.0804 2.15194 8.50001 2.0232V1H7.50001V2.0232C5.91959 2.15194 4.42604 2.79948 3.25179 3.86505C2.07754 4.93062 1.28845 6.35446 1.00731 7.915C0.991097 8.00911 1.00217 8.1059 1.03923 8.19392C1.07629 8.28193 1.13778 8.35749 1.21643 8.41166C1.29508 8.46583 1.38759 8.49635 1.48304 8.4996C1.57848 8.50285 1.67286 8.4787 1.75501 8.43C2.12245 8.17467 2.55331 8.02586 3.00001 8C3.42466 8.01028 3.83921 8.13158 4.20243 8.35182C4.56565 8.57206 4.86486 8.88357 5.07031 9.25535C5.11796 9.32542 5.18203 9.38277 5.25692 9.42241C5.33182 9.46205 5.41527 9.48278 5.50001 9.48278C5.58475 9.48278 5.6682 9.46205 5.7431 9.42241C5.81799 9.38277 5.88206 9.32542 5.92971 9.25535C6.09739 8.96085 6.32297 8.70336 6.59285 8.49839C6.86272 8.29343 7.17131 8.14523 7.50001 8.06275V12.75C7.50001 13.0815 7.36831 13.3995 7.13389 13.6339C6.89947 13.8683 6.58153 14 6.25001 14C5.91849 14 5.60055 13.8683 5.36613 13.6339C5.13171 13.3995 5.00001 13.0815 5.00001 12.75V12.5H4.00001V12.75C4.00001 13.3467 4.23706 13.919 4.65902 14.341C5.08098 14.7629 5.65327 15 6.25001 15C6.84675 15 7.41904 14.7629 7.841 14.341C8.26296 13.919 8.50001 13.3467 8.50001 12.75V8.06275C8.82871 8.14523 9.1373 8.29343 9.40718 8.49839C9.67705 8.70336 9.90263 8.96085 10.0703 9.25535C10.1146 9.3299 10.1774 9.39165 10.2528 9.43454C10.3281 9.47743 10.4133 9.49999 10.5 9.49999C10.5867 9.49999 10.6719 9.47743 10.7472 9.43454C10.8226 9.39165 10.8855 9.3299 10.9297 9.25535C11.1352 8.88357 11.4344 8.57206 11.7976 8.35182C12.1608 8.13158 12.5754 8.01028 13 8C13.4467 8.02586 13.8776 8.17467 14.245 8.43C14.3272 8.47874 14.4216 8.50293 14.517 8.4997C14.6125 8.49647 14.705 8.46597 14.7837 8.41179C14.8624 8.35761 14.9239 8.28203 14.961 8.19399C14.998 8.10595 15.0091 8.00913 14.9929 7.915H14.9927ZM3.00001 7C2.74567 7.00004 2.49261 7.03596 2.24831 7.1067C2.58763 6.16113 3.15092 5.31181 3.89 4.63137C4.62909 3.95093 5.52197 3.45962 6.49231 3.19945C5.50124 4.47724 4.9653 6.04942 4.96951 7.6665C4.40294 7.2361 3.71152 7.00212 3.00001 7ZM8.00001 7C7.26271 7.00345 6.54813 7.25548 5.97181 7.71535C5.99071 6.60535 6.27626 4.47035 7.99996 3.1272C9.71536 4.4656 10.0045 6.60155 10.0262 7.7136C9.45019 7.25479 8.73641 7.00341 8.00001 7V7ZM13 7C12.2885 7.00212 11.5971 7.2361 11.0305 7.6665C11.0347 6.04942 10.4988 4.47726 9.50771 3.19945C10.478 3.45962 11.3709 3.95093 12.11 4.63137C12.8491 5.31181 13.4124 6.16113 13.7517 7.1067C13.5074 7.03596 13.2543 7.00004 13 7V7Z" fill="currentColor" style="fill-opacity:1"/>
</svg>
