<svg viewBox="0 0 16 16" fill="none" xmlns="http://www.w3.org/2000/svg">
<path d="M10.5 7.00002H5.49999V9.00002H10.5V7.00002Z" fill="currentColor" style="fill-opacity:1"/>
<path d="M7.99999 15C7.86319 15.0003 7.72769 14.9735 7.60128 14.9212C7.47487 14.8689 7.36004 14.7921 7.26339 14.6953L1.30469 8.73662C1.10959 8.54113 1.00001 8.27621 1.00001 8.00002C1.00001 7.72383 1.10959 7.45891 1.30469 7.26342L7.26339 1.30472C7.45888 1.10962 7.7238 1.00004 7.99999 1.00004C8.27618 1.00004 8.5411 1.10962 8.73659 1.30472L14.6953 7.26342C14.8904 7.45891 15 7.72383 15 8.00002C15 8.27621 14.8904 8.54113 14.6953 8.73662L8.73659 14.6953C8.63994 14.7921 8.52511 14.8689 8.3987 14.9212C8.27229 14.9735 8.13679 15.0003 7.99999 15ZM7.99999 1.99962C7.98892 1.99964 7.9783 2.00402 7.97044 2.01182L2.01179 7.97047C2.00398 7.97832 1.9996 7.98895 1.9996 8.00002C1.9996 8.0111 2.00398 8.02172 2.01179 8.02957L7.97044 13.9882C7.97832 13.996 7.98893 14.0003 7.99999 14.0003C8.01105 14.0003 8.02166 13.996 8.02954 13.9882L13.9882 8.02957C13.996 8.02172 14.0004 8.0111 14.0004 8.00002C14.0004 7.98895 13.996 7.97832 13.9882 7.97047L8.02954 2.01182C8.02168 2.00402 8.01106 1.99964 7.99999 1.99962Z" fill="currentColor" style="fill-opacity:1"/>
</svg>
