<svg viewBox="0 0 16 16" fill="none" xmlns="http://www.w3.org/2000/svg">
<path id="icon" d="M14.7081 7.29526L8.705 1.29191C8.51806 1.10501 8.26454 1.00002 8.0002 1.00002C7.73585 1.00002 7.48234 1.10501 7.2954 1.29191L1.2919 7.29526C1.10499 7.48217 0.999993 7.73568 0.999993 8.00001C0.999993 8.26434 1.10499 8.51784 1.2919 8.70476L7.29525 14.7081C7.48219 14.895 7.7357 15 8.00005 15C8.26439 15 8.51791 14.895 8.70485 14.7081L14.7081 8.70501C14.8007 8.61245 14.8741 8.50256 14.9242 8.38162C14.9743 8.26068 15.0001 8.13105 15.0001 8.00013C15.0001 7.86922 14.9743 7.73959 14.9242 7.61865C14.8741 7.4977 14.8007 7.38781 14.7081 7.29526V7.29526ZM10.5 9.00001H5.5V7.00001H10.5V9.00001Z" fill="currentColor" style="fill-opacity:1"/>
</svg>
