<svg viewBox="0 0 16 16" fill="none" xmlns="http://www.w3.org/2000/svg">
<path d="M7.99999 12C8.4142 12 8.74999 11.6642 8.74999 11.25C8.74999 10.8358 8.4142 10.5 7.99999 10.5C7.58578 10.5 7.24999 10.8358 7.24999 11.25C7.24999 11.6642 7.58578 12 7.99999 12Z" fill="currentColor" style="fill-opacity:1"/>
<path d="M8.49999 9.50002H7.49999V7.50002H8.49999C8.76521 7.50002 9.01956 7.39466 9.2071 7.20713C9.39463 7.01959 9.49999 6.76524 9.49999 6.50002C9.49999 6.2348 9.39463 5.98045 9.2071 5.79291C9.01956 5.60538 8.76521 5.50002 8.49999 5.50002H7.49999C7.23487 5.50032 6.98069 5.60578 6.79322 5.79325C6.60575 5.98072 6.50029 6.2349 6.49999 6.50002V6.75002H5.49999V6.50002C5.50059 5.96977 5.71149 5.46141 6.08643 5.08646C6.46138 4.71152 6.96974 4.50062 7.49999 4.50002H8.49999C9.03042 4.50002 9.53913 4.71073 9.9142 5.08581C10.2893 5.46088 10.5 5.96959 10.5 6.50002C10.5 7.03045 10.2893 7.53916 9.9142 7.91423C9.53913 8.28931 9.03042 8.50002 8.49999 8.50002V9.50002Z" fill="currentColor" style="fill-opacity:1"/>
<path d="M7.99999 15C7.86319 15.0003 7.72769 14.9735 7.60128 14.9212C7.47487 14.8689 7.36004 14.7921 7.26339 14.6953L1.30469 8.73662C1.10959 8.54113 1.00001 8.27621 1.00001 8.00002C1.00001 7.72383 1.10959 7.45891 1.30469 7.26342L7.26339 1.30472C7.45888 1.10962 7.7238 1.00004 7.99999 1.00004C8.27618 1.00004 8.5411 1.10962 8.73659 1.30472L14.6953 7.26342C14.8904 7.45891 15 7.72383 15 8.00002C15 8.27621 14.8904 8.54113 14.6953 8.73662L8.73659 14.6953C8.63994 14.7921 8.52511 14.8689 8.3987 14.9212C8.27229 14.9735 8.13679 15.0003 7.99999 15ZM7.99999 1.99962C7.98892 1.99964 7.9783 2.00402 7.97044 2.01182L2.01179 7.97047C2.00398 7.97832 1.9996 7.98895 1.9996 8.00002C1.9996 8.0111 2.00398 8.02172 2.01179 8.02957L7.97044 13.9882C7.97832 13.996 7.98893 14.0003 7.99999 14.0003C8.01105 14.0003 8.02166 13.996 8.02954 13.9882L13.9882 8.02957C13.996 8.02172 14.0004 8.0111 14.0004 8.00002C14.0004 7.98895 13.996 7.97832 13.9882 7.97047L8.02954 2.01182C8.02168 2.00402 8.01106 1.99964 7.99999 1.99962Z" fill="currentColor" style="fill-opacity:1"/>
</svg>
