<svg viewBox="0 0 16 16" fill="none" xmlns="http://www.w3.org/2000/svg">
<path id="icon" d="M14.7081 7.29529L8.705 1.29209C8.51806 1.10521 8.26455 1.00022 8.00022 1.00022C7.73589 1.00022 7.48238 1.10521 7.29545 1.29209L1.29185 7.29529C1.10497 7.48225 0.999992 7.73577 0.999992 8.00011C0.999992 8.26446 1.10497 8.51798 1.29185 8.70494L7.2953 14.7081C7.48223 14.895 7.73574 15 8.00007 15C8.2644 15 8.51791 14.895 8.70485 14.7081L14.7081 8.70499C14.895 8.51803 15 8.26449 15 8.00014C15 7.73579 14.895 7.48225 14.7081 7.29529V7.29529ZM8 12C7.85166 12 7.70666 11.956 7.58332 11.8736C7.45998 11.7912 7.36385 11.674 7.30709 11.537C7.25032 11.4 7.23547 11.2492 7.26441 11.1037C7.29335 10.9582 7.36478 10.8245 7.46967 10.7197C7.57456 10.6148 7.70819 10.5433 7.85368 10.5144C7.99916 10.4855 8.14996 10.5003 8.28701 10.5571C8.42405 10.6138 8.54119 10.71 8.6236 10.8333C8.70601 10.9566 8.75 11.1017 8.75 11.25C8.75 11.4489 8.67098 11.6397 8.53033 11.7803C8.38967 11.921 8.19891 12 8 12ZM8.5625 8.62404V9.56249H7.4375V7.49999H8.5C8.74864 7.49999 8.98709 7.40122 9.16291 7.2254C9.33872 7.04959 9.4375 6.81113 9.4375 6.56249C9.4375 6.31385 9.33872 6.07539 9.16291 5.89958C8.98709 5.72376 8.74864 5.62499 8.5 5.62499H7.5C7.25144 5.62527 7.01315 5.72413 6.83739 5.89988C6.66164 6.07564 6.56277 6.31393 6.5625 6.56249V6.81249H5.4375V6.56249C5.43816 6.01568 5.65567 5.49146 6.04232 5.10481C6.42897 4.71816 6.95319 4.50065 7.5 4.49999H8.5C9.04158 4.50001 9.56141 4.71306 9.94725 5.09311C10.3331 5.47316 10.554 5.98972 10.5622 6.53124C10.5704 7.07275 10.3653 7.59577 9.99111 7.98734C9.61697 8.37891 9.10383 8.6076 8.5625 8.62404V8.62404Z" fill="currentColor" style="fill-opacity:1"/>
</svg>
