<svg viewBox="0 0 16 16" fill="none" xmlns="http://www.w3.org/2000/svg">
<path d="M10.5 12H5.5C5.23478 12 4.98043 12.1053 4.79289 12.2929C4.60536 12.4804 4.5 12.7348 4.5 13V14C4.5 14.2652 4.60536 14.5196 4.79289 14.7071C4.98043 14.8946 5.23478 15 5.5 15H10.5C10.7652 15 11.0196 14.8946 11.2071 14.7071C11.3946 14.5196 11.5 14.2652 11.5 14V13C11.5 12.7348 11.3946 12.4804 11.2071 12.2929C11.0196 12.1053 10.7652 12 10.5 12ZM10.5 14H5.5V13H10.5V14Z" fill="currentColor" style="fill-opacity:1"/>
<path d="M14.3535 7.14648L8.3535 1.14648C8.30709 1.10003 8.25199 1.06319 8.19133 1.03805C8.13068 1.0129 8.06566 0.999965 8 0.999965C7.93434 0.999965 7.86933 1.0129 7.80867 1.03805C7.74801 1.06319 7.69291 1.10003 7.6465 1.14648L1.6465 7.14648C1.5766 7.21641 1.52899 7.30549 1.50971 7.40247C1.49042 7.49944 1.50033 7.59996 1.53816 7.69131C1.576 7.78266 1.64007 7.86074 1.72227 7.91568C1.80448 7.97063 1.90112 7.99996 2 7.99998H4.5V9.99998C4.5003 10.2651 4.60576 10.5193 4.79323 10.7068C4.9807 10.8942 5.23488 10.9997 5.5 11H10.5C10.7651 10.9996 11.0193 10.8942 11.2067 10.7067C11.3942 10.5192 11.4996 10.2651 11.5 9.99998V7.99998H14C14.0989 7.99996 14.1955 7.97063 14.2777 7.91568C14.3599 7.86074 14.424 7.78266 14.4618 7.69131C14.4997 7.59996 14.5096 7.49944 14.4903 7.40247C14.471 7.30549 14.4234 7.21641 14.3535 7.14648ZM10.5 6.99998V9.99998H5.5V6.99998H3.20705L8 2.20703L12.7929 6.99998H10.5Z" fill="currentColor" style="fill-opacity:1"/>
</svg>
