<svg viewBox="0 0 16 16" fill="none" xmlns="http://www.w3.org/2000/svg">
<path d="M5 12C5 13.6568 6.34315 15 8 15C9.65685 15 11 13.6568 11 12C11 10.3432 9.65685 9 8 9C6.34315 9 5 10.3432 5 12ZM6 12C6 10.8972 6.8972 10 8 10C9.1028 10 10 10.8972 10 12C10 13.1028 9.1028 14 8 14C6.8972 14 6 13.1028 6 12Z" fill="currentColor" style="fill-opacity:1"/>
<path d="M15 2.5C15 1.67165 14.3284 1 13.5 1C12.6716 1 12 1.67165 12 2.5C12 3.1521 12.4187 3.7014 13 3.9082V6.5C13 7.36085 12.624 8.1719 12 8.73365V7.5H11V10.5H14V9.5H12.6416C13.4885 8.75025 14 7.6592 14 6.5V3.9082C14.5813 3.7014 15 3.1521 15 2.5ZM13.5 3C13.2239 3 13 2.7761 13 2.5C13 2.2239 13.2239 2 13.5 2C13.7761 2 14 2.2239 14 2.5C14 2.7761 13.7761 3 13.5 3Z" fill="currentColor" style="fill-opacity:1"/>
<path d="M9.293 5.79295L8.50005 6.5859V3.90815C9.08135 3.70135 9.50005 3.15205 9.50005 2.49995C9.50005 1.6716 8.8284 0.999947 8.00005 0.999947C7.1717 0.999947 6.50005 1.6716 6.50005 2.49995C6.50005 3.15205 6.91875 3.70135 7.50005 3.90815V6.5859L6.7071 5.79295L6.00005 6.5L8.00005 8.5L10.0001 6.5L9.293 5.79295ZM8.00005 2C8.27615 2 8.50005 2.2239 8.50005 2.5C8.50005 2.7761 8.27615 3 8.00005 3C7.72395 3 7.50005 2.7761 7.50005 2.5C7.50005 2.2239 7.72395 2 8.00005 2Z" fill="currentColor" style="fill-opacity:1"/>
<path d="M4 7.5V8.73365C3.376 8.1719 3 7.36085 3 6.5V3.9082C3.5813 3.7014 4 3.1521 4 2.5C4 1.67165 3.32835 1 2.5 1C1.67165 1 1 1.67165 1 2.5C1 3.1521 1.4187 3.7014 2 3.9082V6.5C2 7.6592 2.51145 8.75025 3.3584 9.5H2V10.5H5V7.5H4ZM2.5 2C2.7761 2 3 2.2239 3 2.5C3 2.7761 2.7761 3 2.5 3C2.2239 3 2 2.7761 2 2.5C2 2.2239 2.2239 2 2.5 2Z" fill="currentColor" style="fill-opacity:1"/>
</svg>
