<svg viewBox="0 0 16 16" fill="none" xmlns="http://www.w3.org/2000/svg">
<path d="M11.0367 10.9961C11.8901 10.9961 12.5071 10.6074 12.7943 9.82985L11.9663 9.43274C11.8057 9.82984 11.5522 10.1257 11.0367 10.1257C10.4366 10.1257 10.1325 9.71155 10.1325 9.09475V8.29189C10.1325 7.67484 10.4366 7.25255 11.0367 7.25255C11.5014 7.25255 11.7803 7.523 11.8817 7.8948L12.7691 7.49745C12.5071 6.80445 11.9239 6.3821 11.0367 6.3821C9.73525 6.3821 9 7.26929 9 8.68054C9 10.1002 9.73525 10.9961 11.0367 10.9961Z" fill="currentColor" style="fill-opacity:1"/>
<path d="M5.7563 10.9961C7.41275 10.9961 8.0297 10.2101 8.0297 8.47764V4.99609H6.93105V8.62144C6.93105 9.54254 6.6099 10.0074 5.76485 10.0074C4.9198 10.0074 4.59865 9.54254 4.59865 8.62144V4.99609H3.5V8.47764C3.5 10.21 4.1 10.9961 5.7563 10.9961Z" fill="currentColor" style="fill-opacity:1"/>
<path d="M10.5 15H5.5C3.0187 15 1 12.9813 1 10.5V5.5C1 3.0187 3.0187 1 5.5 1H10.5C12.9813 1 15 3.0187 15 5.5V10.5C15 12.9813 12.9813 15 10.5 15ZM5.5 2C3.57005 2 2 3.57005 2 5.5V10.5C2 12.4299 3.57005 14 5.5 14H10.5C12.4299 14 14 12.4299 14 10.5V5.5C14 3.57005 12.4299 2 10.5 2H5.5Z" fill="currentColor" style="fill-opacity:1"/>
</svg>
