<svg viewBox="0 0 16 16" fill="none" xmlns="http://www.w3.org/2000/svg">
<path d="M14.3832 2.12786C14.0071 1.74574 13.4995 1.52143 12.9637 1.50065C12.428 1.47986 11.9045 1.66418 11.5 2.01601C11.0955 1.66418 10.572 1.47986 10.0363 1.50065C9.50054 1.52143 8.99291 1.74574 8.61685 2.12786C8.22146 2.53149 8.00001 3.07401 8.00001 3.63903C8.00001 4.20406 8.22146 4.74658 8.61685 5.15021L11.499 8.06996L11.5 8.06876L11.501 8.06971L14.3832 5.15021C14.7785 4.74658 15 4.20406 15 3.63903C15 3.07401 14.7785 2.53149 14.3832 2.12786ZM13.671 4.44736L11.501 6.64601L11.5 6.64496L11.499 6.64596L9.329 4.44731C9.11723 4.2315 8.99858 3.94122 8.99858 3.63886C8.99858 3.3365 9.11723 3.04621 9.329 2.83041C9.54029 2.62501 9.82335 2.51009 10.118 2.51009C10.4127 2.51009 10.6958 2.62501 10.9071 2.83041L11.4976 3.43411L11.5 3.43166L11.5024 3.43416L12.0929 2.83046C12.3042 2.62506 12.5873 2.51014 12.882 2.51014C13.1767 2.51014 13.4597 2.62506 13.671 2.83046C13.8828 3.04626 14.0014 3.33655 14.0014 3.63891C14.0014 3.94127 13.8828 4.23155 13.671 4.44736Z" fill="currentColor" style="fill-opacity:1"/>
<path d="M8 15H7V12.5C6.99956 12.1023 6.84139 11.721 6.56018 11.4398C6.27897 11.1586 5.89769 11.0004 5.5 11H3.5C3.10231 11.0004 2.72103 11.1586 2.43982 11.4398C2.15861 11.721 2.00044 12.1023 2 12.5V15H1V12.5C1.00078 11.8372 1.26442 11.2017 1.7331 10.7331C2.20177 10.2644 2.8372 10.0007 3.5 9.99996H5.5C6.1628 10.0007 6.79823 10.2644 7.2669 10.7331C7.73558 11.2017 7.99922 11.8372 8 12.5V15Z" fill="currentColor" style="fill-opacity:1"/>
<path d="M4.5 4.99996C4.79667 4.99996 5.08668 5.08793 5.33336 5.25275C5.58003 5.41758 5.77229 5.65184 5.88582 5.92593C5.99935 6.20002 6.02906 6.50162 5.97118 6.79259C5.9133 7.08357 5.77044 7.35084 5.56066 7.56062C5.35088 7.7704 5.08361 7.91326 4.79264 7.97114C4.50166 8.02901 4.20006 7.99931 3.92597 7.88578C3.65189 7.77225 3.41762 7.57999 3.2528 7.33331C3.08797 7.08664 3 6.79663 3 6.49996C3 6.10213 3.15804 5.7206 3.43934 5.4393C3.72064 5.15799 4.10218 4.99996 4.5 4.99996ZM4.5 3.99996C4.00555 3.99996 3.5222 4.14658 3.11107 4.42128C2.69995 4.69599 2.37952 5.08643 2.1903 5.54325C2.00108 6.00007 1.95157 6.50273 2.04804 6.98768C2.1445 7.47264 2.3826 7.91809 2.73223 8.26773C3.08186 8.61736 3.52732 8.85546 4.01227 8.95192C4.49723 9.04838 4.99989 8.99888 5.45671 8.80966C5.91352 8.62044 6.30397 8.30001 6.57867 7.88888C6.85338 7.47776 7 6.99441 7 6.49996C7 6.17165 6.93534 5.84656 6.8097 5.54325C6.68406 5.23994 6.49991 4.96434 6.26777 4.73219C6.03562 4.50005 5.76002 4.3159 5.45671 4.19026C5.15339 4.06462 4.8283 3.99996 4.5 3.99996Z" fill="currentColor" style="fill-opacity:1"/>
</svg>
