<svg viewBox="0 0 16 16" fill="none" xmlns="http://www.w3.org/2000/svg">
<path d="M8 4C7.50554 4 7.02219 4.14662 6.61107 4.42133C6.19995 4.69603 5.87952 5.08648 5.6903 5.54329C5.50108 6.00011 5.45157 6.50277 5.54803 6.98773C5.6445 7.47268 5.8826 7.91814 6.23223 8.26777C6.58186 8.6174 7.02732 8.8555 7.51227 8.95196C7.99722 9.04843 8.49989 8.99892 8.95671 8.8097C9.41352 8.62048 9.80397 8.30005 10.0787 7.88893C10.3534 7.4778 10.5 6.99445 10.5 6.5C10.5 5.83696 10.2366 5.20107 9.76776 4.73223C9.29892 4.26339 8.66304 4 8 4ZM8 8C7.70333 8 7.41331 7.91203 7.16664 7.7472C6.91997 7.58238 6.72771 7.34811 6.61418 7.07403C6.50065 6.79994 6.47094 6.49834 6.52882 6.20736C6.5867 5.91639 6.72956 5.64912 6.93934 5.43934C7.14911 5.22956 7.41639 5.0867 7.70736 5.02882C7.99833 4.97094 8.29993 5.00065 8.57402 5.11418C8.84811 5.22771 9.08238 5.41997 9.2472 5.66664C9.41202 5.91332 9.5 6.20333 9.5 6.5C9.49955 6.89769 9.34137 7.27896 9.06016 7.56016C8.77895 7.84137 8.39768 7.99955 8 8Z" fill="currentColor" style="fill-opacity:1"/>
<path d="M8 1C6.61553 1 5.26215 1.41054 4.111 2.17971C2.95986 2.94888 2.06265 4.04213 1.53284 5.32122C1.00303 6.6003 0.864403 8.00776 1.1345 9.36563C1.4046 10.7235 2.07128 11.9708 3.05025 12.9497C4.02922 13.9287 5.2765 14.5954 6.63436 14.8655C7.99223 15.1356 9.3997 14.997 10.6788 14.4672C11.9579 13.9373 13.0511 13.0401 13.8203 11.889C14.5895 10.7378 15 9.38447 15 8C14.9979 6.14413 14.2597 4.36486 12.9474 3.05256C11.6351 1.74026 9.85587 1.00209 8 1ZM5 13.1882V12.5C5.00043 12.1023 5.15861 11.721 5.43982 11.4398C5.72103 11.1586 6.10231 11.0004 6.5 11H9.5C9.89769 11.0004 10.279 11.1586 10.5602 11.4398C10.8414 11.721 10.9996 12.1023 11 12.5V13.1882C10.0896 13.7199 9.05426 14 8 14C6.94574 14 5.91041 13.7199 5 13.1882ZM11.9962 12.4629C11.9863 11.807 11.7191 11.1813 11.2521 10.7206C10.7852 10.2599 10.1559 10.0011 9.5 10H6.5C5.84405 10.0011 5.21479 10.2599 4.74786 10.7206C4.28092 11.1813 4.01369 11.807 4.00375 12.4629C3.09703 11.6533 2.45761 10.5873 2.17016 9.40623C1.88272 8.22513 1.9608 6.98457 2.39407 5.84883C2.82734 4.71309 3.59536 3.73573 4.59643 3.04618C5.59751 2.35663 6.78442 1.98741 8 1.98741C9.21558 1.98741 10.4025 2.35663 11.4036 3.04618C12.4046 3.73573 13.1727 4.71309 13.6059 5.84883C14.0392 6.98457 14.1173 8.22513 13.8298 9.40623C13.5424 10.5873 12.903 11.6533 11.9962 12.4629Z" fill="currentColor" style="fill-opacity:1"/>
</svg>
