<svg viewBox="0 0 16 16" fill="none" xmlns="http://www.w3.org/2000/svg">
<path d="M9.5 1.5H14.5C15.0518 1.5 15.5 1.94825 15.5 2.5V5.5C15.5 6.05175 15.0518 6.5 14.5 6.5H13.2886L12.4228 8L11.5567 7.5L12.7114 5.5H14.5V2.5H9.5V5.5H11V6.5H9.5C8.94825 6.5 8.5 6.05175 8.5 5.5V2.5C8.5 1.94825 8.94825 1.5 9.5 1.5Z" fill="currentColor" style="fill-opacity:1"/>
<path d="M7.5 15H6.5V12.5C6.4991 11.6719 5.82805 11.0009 5 11H3C2.17195 11.0009 1.5009 11.6719 1.5 12.5V15H0.5V12.5C0.50165 11.12 1.61995 10.0016 3 10H5C6.38005 10.0016 7.49835 11.12 7.5 12.5V15Z" fill="currentColor" style="fill-opacity:1"/>
<path d="M4 5C4.82845 5 5.5 5.67155 5.5 6.5C5.5 7.32845 4.82845 8 4 8C3.17155 8 2.5 7.32845 2.5 6.5C2.50095 5.67195 3.17195 5.00095 4 5ZM4 4C2.6193 4 1.5 5.1193 1.5 6.5C1.5 7.8807 2.6193 9 4 9C5.3807 9 6.5 7.8807 6.5 6.5C6.5 5.1193 5.3807 4 4 4Z" fill="currentColor" style="fill-opacity:1"/>
</svg>
