<svg viewBox="0 0 16 16" fill="none" xmlns="http://www.w3.org/2000/svg">
<path d="M11.5095 5.2166C11.212 5.3923 10.8697 5.5 10.5 5.5C9.3972 5.5 8.5 4.6028 8.5 3.5C8.5 3.32215 8.53075 3.15285 8.5746 2.9886L9.793 4.207C9.97405 4.38805 10.2243 4.5 10.5 4.5C11.0515 4.5 11.5 4.0515 11.5 3.5C11.5 3.22425 11.388 2.97425 11.2069 2.7932L9.9887 1.5746C10.1529 1.53085 10.3222 1.50005 10.5 1.50005C11.6028 1.50005 12.5 2.39725 12.5 3.50005C12.5 3.86985 12.3923 4.2121 12.2166 4.5096L15 7.293L14.293 8.00005L11.5095 5.2166Z" fill="currentColor" style="fill-opacity:1"/>
<path d="M8 15H7V12.5C6.9991 11.6719 6.32805 11.0009 5.5 11H3.5C2.67195 11.0009 2.0009 11.6719 2 12.5V15H1V12.5C1.00165 11.12 2.11995 10.0016 3.5 10H5.5C6.88005 10.0016 7.99835 11.12 8 12.5V15Z" fill="currentColor" style="fill-opacity:1"/>
<path d="M4.5 5C5.32845 5 6 5.67155 6 6.5C6 7.32845 5.32845 8 4.5 8C3.67155 8 3 7.32845 3 6.5C3.00095 5.67195 3.67195 5.00095 4.5 5ZM4.5 4C3.1193 4 2 5.1193 2 6.5C2 7.8807 3.1193 9 4.5 9C5.8807 9 7 7.8807 7 6.5C7 5.1193 5.8807 4 4.5 4Z" fill="currentColor" style="fill-opacity:1"/>
</svg>
