<svg viewBox="0 0 16 16" fill="none" xmlns="http://www.w3.org/2000/svg">
<g id="Icons / User--access" clip-path="url(#clip0_0_258)">
<g id="icon">
<path d="M8 15H7V12.5C6.99956 12.1024 6.84139 11.7211 6.56018 11.4399C6.27897 11.1587 5.89769 11.0005 5.5 11H3.5C3.10231 11.0005 2.72103 11.1587 2.43982 11.4399C2.15861 11.7211 2.00044 12.1024 2 12.5V15H1V12.5C1.00078 11.8372 1.26442 11.2018 1.7331 10.7331C2.20177 10.2645 2.8372 10.0008 3.5 10H5.5C6.1628 10.0008 6.79823 10.2645 7.2669 10.7331C7.73558 11.2018 7.99922 11.8372 8 12.5V15Z" fill="currentColor" style="fill-opacity:1"/>
<path d="M4.5 5.00005C4.79667 5.00005 5.08668 5.08802 5.33336 5.25284C5.58003 5.41766 5.77229 5.65193 5.88582 5.92602C5.99935 6.20011 6.02906 6.50171 5.97118 6.79268C5.9133 7.08365 5.77044 7.35093 5.56066 7.56071C5.35088 7.77049 5.08361 7.91335 4.79264 7.97123C4.50166 8.0291 4.20006 7.9994 3.92597 7.88587C3.65189 7.77234 3.41762 7.58008 3.2528 7.3334C3.08797 7.08673 3 6.79672 3 6.50005C3 6.10222 3.15804 5.72069 3.43934 5.43939C3.72064 5.15808 4.10218 5.00005 4.5 5.00005ZM4.5 4.00005C4.00555 4.00005 3.5222 4.14667 3.11107 4.42137C2.69995 4.69608 2.37952 5.08652 2.1903 5.54334C2.00108 6.00015 1.95157 6.50282 2.04804 6.98777C2.1445 7.47273 2.3826 7.91818 2.73223 8.26781C3.08186 8.61745 3.52732 8.85555 4.01227 8.95201C4.49723 9.04847 4.99989 8.99897 5.45671 8.80975C5.91352 8.62053 6.30397 8.3001 6.57867 7.88897C6.85338 7.47785 7 6.9945 7 6.50005C7 6.17174 6.93534 5.84665 6.8097 5.54334C6.68406 5.24002 6.49991 4.96443 6.26777 4.73228C6.03562 4.50013 5.76002 4.31598 5.45671 4.19035C5.15339 4.06471 4.8283 4.00005 4.5 4.00005Z" fill="currentColor" style="fill-opacity:1"/>
<path d="M15 6.00005C14.9135 6.00125 14.8275 6.01372 14.7442 6.03715L14.2165 5.50955C14.4019 5.20546 14.5 4.85619 14.5 4.50005C14.5 4.1439 14.4019 3.79464 14.2165 3.49055L14.7442 2.96295C14.9606 3.02319 15.191 3.01005 15.3992 2.92556C15.6074 2.84107 15.7818 2.69 15.8951 2.49595C16.0083 2.30189 16.0542 2.07578 16.0254 1.85292C15.9966 1.63007 15.8948 1.42303 15.7359 1.26414C15.577 1.10525 15.37 1.00346 15.1471 0.974665C14.9243 0.945873 14.6982 0.9917 14.5041 1.10499C14.31 1.21828 14.159 1.39265 14.0745 1.60087C13.99 1.80908 13.9769 2.03942 14.0371 2.2559L13.5095 2.7835C13.2054 2.59812 12.8561 2.50005 12.5 2.50005C12.1439 2.50005 11.7946 2.59812 11.4905 2.7835L10.9629 2.2559C11.0231 2.03942 11.01 1.80908 10.9255 1.60087C10.841 1.39265 10.69 1.21828 10.4959 1.10499C10.3018 0.9917 10.0757 0.945873 9.85288 0.974665C9.63002 1.00346 9.42298 1.10525 9.26409 1.26414C9.1052 1.42303 9.00341 1.63007 8.97462 1.85292C8.94583 2.07578 8.99165 2.30189 9.10494 2.49595C9.21823 2.69 9.3926 2.84107 9.60082 2.92556C9.80904 3.01005 10.0394 3.02319 10.2558 2.96295L10.7835 3.49055C10.5981 3.79464 10.5 4.1439 10.5 4.50005C10.5 4.85619 10.5981 5.20546 10.7835 5.50955L10.2558 6.03715C10.0394 5.9769 9.80904 5.99005 9.60082 6.07453C9.3926 6.15902 9.21823 6.31009 9.10494 6.50415C8.99165 6.6982 8.94583 6.92432 8.97462 7.14717C9.00341 7.37002 9.1052 7.57706 9.26409 7.73595C9.42298 7.89484 9.63002 7.99664 9.85288 8.02543C10.0757 8.05422 10.3018 8.00839 10.4959 7.8951C10.69 7.78182 10.841 7.60744 10.9255 7.39923C11.01 7.19101 11.0231 6.96067 10.9629 6.7442L11.4905 6.2166C11.7946 6.40198 12.1439 6.50004 12.5 6.50004C12.8561 6.50004 13.2054 6.40198 13.5095 6.2166L14.0371 6.7442C13.9841 6.94573 13.9956 7.1588 14.0698 7.3535C14.1441 7.54821 14.2774 7.71477 14.4512 7.82984C14.6249 7.9449 14.8303 8.00268 15.0386 7.99508C15.2468 7.98748 15.4475 7.91487 15.6123 7.78744C15.7772 7.66002 15.8981 7.48417 15.9579 7.28457C16.0178 7.08497 16.0137 6.87163 15.9462 6.6745C15.8786 6.47736 15.7511 6.30631 15.5814 6.18535C15.4117 6.0644 15.2084 5.9996 15 6.00005ZM11.5 4.50005C11.5 4.30227 11.5586 4.10893 11.6685 3.94448C11.7784 3.78003 11.9346 3.65186 12.1173 3.57617C12.3 3.50048 12.5011 3.48068 12.6951 3.51926C12.8891 3.55785 13.0673 3.65309 13.2071 3.79294C13.347 3.93279 13.4422 4.11098 13.4808 4.30496C13.5194 4.49894 13.4996 4.7 13.4239 4.88273C13.3482 5.06546 13.22 5.22164 13.0556 5.33152C12.8911 5.4414 12.6978 5.50005 12.5 5.50005C12.2349 5.49972 11.9807 5.39425 11.7933 5.20679C11.6058 5.01932 11.5003 4.76516 11.5 4.50005Z" fill="currentColor" style="fill-opacity:1"/>
</g>
</g>
<defs>
<clipPath id="clip0_0_258">
<rect width="16" height="16" fill="currentColor" style="fill-opacity:1"/>
</clipPath>
</defs>
</svg>
