<svg viewBox="0 0 16 16" fill="none" xmlns="http://www.w3.org/2000/svg">
<path d="M8 15H7V12.5C6.9991 11.6719 6.32805 11.0009 5.5 11H3.5C2.67195 11.0009 2.0009 11.6719 2 12.5V15H1V12.5C1.00165 11.12 2.11995 10.0016 3.5 10H5.5C6.88005 10.0016 7.99835 11.12 8 12.5V15Z" fill="currentColor" style="fill-opacity:1"/>
<path d="M4.5 5C5.32845 5 6 5.67155 6 6.5C6 7.32845 5.32845 8 4.5 8C3.67155 8 3 7.32845 3 6.5C3 5.67155 3.67155 5 4.5 5ZM4.5 4C3.1193 4 2 5.1193 2 6.5C2 7.8807 3.1193 9 4.5 9C5.8807 9 7 7.8807 7 6.5C7 5.1193 5.8807 4 4.5 4Z" fill="currentColor" style="fill-opacity:1"/>
<path d="M14 4H11V2.5C11 1.94875 11.4486 1.5 12 1.5C12.5514 1.5 13 1.94875 13 2.5H14C14 1.3972 13.1028 0.5 12 0.5C10.8972 0.5 10 1.3972 10 2.5V4C9.4486 4 9 4.44875 9 5V8C9 8.55125 9.4486 9 10 9H14C14.5514 9 15 8.55125 15 8V5C15 4.44875 14.5514 4 14 4ZM14 8H10V5H14V8Z" fill="currentColor" style="fill-opacity:1"/>
</svg>
