<svg viewBox="0 0 16 16" fill="none" xmlns="http://www.w3.org/2000/svg">
<path d="M6.5 4L4 6.5L4.7051 7.2051L6 5.91505V14H4.5V15H6C6.552 14.9992 6.9994 14.552 7 14V5.91505L8.2949 7.2051L9 6.5L6.5 4Z" fill="currentColor" style="fill-opacity:1"/>
<path d="M11 15H9.5C8.948 14.9993 8.50065 14.552 8.5 14V8.5H11.5C12.6048 8.49995 13.5004 7.60425 13.5003 6.4995C13.5003 6.43355 13.4971 6.36765 13.4905 6.302C13.352 5.25485 12.4487 4.47895 11.3926 4.5H10.6008L10.5125 4.1105C10.226 2.84805 9.0154 2 7.5 2C6.3317 2.0037 5.27105 2.6832 4.77925 3.74295L4.625 4.07655L4.1935 4.0194C4.12955 4.0084 4.06485 4.00195 4 4C2.89545 4 2 4.89545 2 6C2 7.10455 2.89545 8 4 8V9C2.34315 9 1 7.65685 1 6C1 4.34315 2.34315 3 4 3C4.0132 3 4.02625 3 4.0393 3.0005C4.75515 1.7658 6.0728 1.0041 7.5 1C9.3394 1 10.8462 1.9888 11.3758 3.5H11.3926C12.9629 3.48245 14.2953 4.64835 14.4862 6.20705C14.6477 7.8563 13.4417 9.32425 11.7924 9.4857C11.6953 9.4952 11.5976 9.5 11.5 9.5H9.5V14H11V15Z" fill="currentColor" style="fill-opacity:1"/>
</svg>
