<svg viewBox="0 0 16 16" fill="none" xmlns="http://www.w3.org/2000/svg">
<path d="M9.5 10H13V9H8.5V14C8.50075 14.552 8.948 14.9992 9.5 15H11V14H9.5V10Z" fill="currentColor" style="fill-opacity:1"/>
<path d="M6 15H4.5V14H6V7.7832L4.2427 6.72875L4.7573 5.87135L6.51465 6.92555C6.815 7.10715 6.99895 7.4322 7 7.7832V14C6.99935 14.552 6.552 14.9993 6 15Z" fill="currentColor" style="fill-opacity:1"/>
<path d="M15 3.2051L14.295 2.5L12.5 4.2949L10.705 2.5L10 3.2051L11.795 5L10 6.7949L10.705 7.5L12.5 5.7051L14.295 7.5L15 6.7949L13.205 5L15 3.2051Z" fill="currentColor" style="fill-opacity:1"/>
<path d="M8.65395 1.1426C8.2898 1.05155 7.9042 1 7.5 1C6.07275 1.00415 4.75515 1.76585 4.0393 3.0005C4.02625 3 4.0132 3 4 3C2.34315 3 1 4.34325 1 6C1 7.65675 2.34315 9 4 9V8C2.8955 8 2 7.1045 2 6C2 4.8955 2.8955 4 4 4C4.06495 4.00195 4.1295 4.0083 4.1935 4.01955L4.625 4.0767L4.7793 3.74295C5.271 2.68315 6.33165 2.0037 7.5 2.00005C7.80395 2.00005 8.09095 2.04275 8.3655 2.10745L8.65395 1.1426Z" fill="currentColor" style="fill-opacity:1"/>
</svg>
