<svg viewBox="0 0 16 16" fill="none" xmlns="http://www.w3.org/2000/svg">
<path d="M10.75 6C11.1642 6 11.5 5.66421 11.5 5.25C11.5 4.83579 11.1642 4.5 10.75 4.5C10.3358 4.5 10 4.83579 10 5.25C10 5.66421 10.3358 6 10.75 6Z" fill="currentColor" style="fill-opacity:1"/>
<path d="M14.25 0.5C14.039 0.498982 13.8313 0.552457 13.6469 0.65525L9.4917 2.8042L9.49305 2.8069C9.11102 3.00322 8.78031 3.28635 8.52747 3.63357C8.27462 3.98078 8.10667 4.38243 8.0371 4.80628C7.96752 5.23013 7.99825 5.66439 8.12682 6.07422C8.25539 6.48405 8.47822 6.85804 8.77744 7.1662C9.07666 7.47435 9.44394 7.70809 9.84981 7.84866C10.2557 7.98922 10.6889 8.03271 11.1146 7.97563C11.5403 7.91854 11.9467 7.76248 12.3012 7.51995C12.6557 7.27743 12.9484 6.95519 13.1559 6.5791L13.1574 6.57985L15.3574 2.32985C15.4572 2.13933 15.5061 1.92629 15.4995 1.71133C15.4928 1.49638 15.4308 1.28677 15.3195 1.10279C15.2081 0.918798 15.0512 0.766651 14.8638 0.661055C14.6765 0.55546 14.4651 0.499987 14.25 0.5ZM10.75 7C10.4039 7 10.0655 6.89736 9.77775 6.70507C9.48997 6.51278 9.26566 6.23947 9.13321 5.9197C9.00076 5.59992 8.9661 5.24806 9.03363 4.90859C9.10115 4.56912 9.26782 4.2573 9.51256 4.01256C9.7573 3.76782 10.0691 3.60115 10.4086 3.53363C10.7481 3.4661 11.0999 3.50076 11.4197 3.63321C11.7395 3.76566 12.0128 3.98997 12.2051 4.27775C12.3974 4.56554 12.5 4.90388 12.5 5.25C12.4994 5.71396 12.3149 6.15875 11.9868 6.48682C11.6588 6.81489 11.214 6.99944 10.75 7ZM14.4707 1.8677L13.2786 4.1704C12.999 3.5194 12.4801 3.00063 11.829 2.7212L14.1264 1.5327C14.1648 1.51349 14.2073 1.50414 14.2502 1.50548C14.293 1.50682 14.3349 1.51881 14.372 1.54038C14.409 1.56194 14.4401 1.59239 14.4625 1.62899C14.4849 1.66559 14.4977 1.70718 14.5 1.75C14.5001 1.79105 14.49 1.83148 14.4707 1.8677Z" fill="currentColor" style="fill-opacity:1"/>
<path d="M9.5 10H13V9H8.5V14C8.50036 14.2651 8.60583 14.5193 8.79329 14.7067C8.98075 14.8942 9.23489 14.9996 9.5 15H11V14H9.5V10Z" fill="currentColor" style="fill-opacity:1"/>
<path d="M6 15H4.5V14H6V7.7832L4.2427 6.72875L4.7573 5.87135L6.51465 6.92555C6.66234 7.01485 6.78456 7.14065 6.86956 7.29086C6.95457 7.44106 6.99948 7.61061 7 7.7832V14C6.99968 14.2651 6.89422 14.5193 6.70676 14.7068C6.51929 14.8942 6.26512 14.9997 6 15Z" fill="currentColor" style="fill-opacity:1"/>
<path d="M8.65395 1.1426C8.2766 1.04793 7.88904 1.00004 7.5 1C6.79866 1.00203 6.11009 1.1878 5.5029 1.5388C4.89571 1.88979 4.39108 2.39376 4.0393 3.0005C4.02625 3 4.0132 3 4 3C3.20435 3 2.44129 3.31607 1.87868 3.87868C1.31607 4.44129 1 5.20435 1 6C1 6.79565 1.31607 7.55871 1.87868 8.12132C2.44129 8.68393 3.20435 9 4 9V8C3.46957 8 2.96086 7.78929 2.58579 7.41421C2.21071 7.03914 2 6.53043 2 6C2 5.46957 2.21071 4.96086 2.58579 4.58579C2.96086 4.21071 3.46957 4 4 4C4.06489 4.00186 4.12955 4.00839 4.1935 4.01955L4.625 4.07665L4.7793 3.7429C5.02016 3.22377 5.40404 2.78408 5.88593 2.47538C6.36781 2.16669 6.92772 2.00178 7.5 2C7.7917 2.00201 8.08216 2.03805 8.3655 2.1074L8.65395 1.1426Z" fill="currentColor" style="fill-opacity:1"/>
</svg>
