<svg viewBox="0 0 16 16" fill="none" xmlns="http://www.w3.org/2000/svg">
<path d="M14.6689 8.96681L10.8027 7.57766L9.187 5.54836C9.04646 5.37657 8.86942 5.23823 8.66875 5.14338C8.46808 5.04853 8.24881 4.99956 8.02685 5.00001H4.0288C3.78431 4.99991 3.5435 5.05961 3.32737 5.17391C3.11124 5.2882 2.92634 5.45363 2.7888 5.65576L1.4331 7.64746C1.1506 8.06199 0.999668 8.55207 0.999999 9.05371V13C0.999999 13.1326 1.05268 13.2598 1.14645 13.3536C1.24021 13.4473 1.36739 13.5 1.5 13.5H2.57105C2.68007 13.9289 2.92892 14.3092 3.27825 14.5808C3.62758 14.8525 4.05748 15 4.5 15C4.94252 15 5.37242 14.8525 5.72175 14.5808C6.07108 14.3092 6.31993 13.9289 6.42895 13.5H9.57105C9.68007 13.9289 9.92892 14.3092 10.2783 14.5808C10.6276 14.8525 11.0575 15 11.5 15C11.9425 15 12.3724 14.8525 12.7217 14.5808C13.0711 14.3092 13.3199 13.9289 13.429 13.5H14.5C14.6326 13.5 14.7598 13.4473 14.8536 13.3536C14.9473 13.2598 15 13.1326 15 13V9.43751C15 9.33451 14.9682 9.23401 14.909 9.14976C14.8497 9.06551 14.7659 9.00162 14.6689 8.96681ZM4.5 14C4.30222 14 4.10888 13.9414 3.94443 13.8315C3.77998 13.7216 3.65181 13.5654 3.57612 13.3827C3.50043 13.2 3.48063 12.9989 3.51921 12.8049C3.5578 12.6109 3.65304 12.4328 3.79289 12.2929C3.93275 12.1531 4.11093 12.0578 4.30491 12.0192C4.49889 11.9806 4.69996 12.0004 4.88268 12.0761C5.06541 12.1518 5.22159 12.28 5.33147 12.4444C5.44135 12.6089 5.5 12.8022 5.5 13C5.49964 13.2651 5.39417 13.5193 5.20671 13.7067C5.01925 13.8942 4.76511 13.9997 4.5 14ZM11.5 14C11.3022 14 11.1089 13.9414 10.9444 13.8315C10.78 13.7216 10.6518 13.5654 10.5761 13.3827C10.5004 13.2 10.4806 12.9989 10.5192 12.8049C10.5578 12.6109 10.653 12.4328 10.7929 12.2929C10.9327 12.1531 11.1109 12.0578 11.3049 12.0192C11.4989 11.9806 11.7 12.0004 11.8827 12.0761C12.0654 12.1518 12.2216 12.28 12.3315 12.4444C12.4414 12.6089 12.5 12.8022 12.5 13C12.4997 13.2651 12.3942 13.5193 12.2067 13.7068C12.0193 13.8942 11.7651 13.9997 11.5 14ZM14 12.5H13.429C13.3199 12.0711 13.0711 11.6908 12.7217 11.4192C12.3724 11.1475 11.9425 11.0001 11.5 11.0001C11.0575 11.0001 10.6276 11.1475 10.2783 11.4192C9.92892 11.6908 9.68007 12.0711 9.57105 12.5H6.42895C6.31993 12.0711 6.07108 11.6908 5.72175 11.4192C5.37242 11.1475 4.94252 11.0001 4.5 11.0001C4.05748 11.0001 3.62758 11.1475 3.27825 11.4192C2.92892 11.6908 2.68007 12.0711 2.57105 12.5H2V9.05371C1.99989 8.75257 2.09049 8.45837 2.26 8.20946L3.6155 6.21876C3.66132 6.15135 3.72294 6.09618 3.79498 6.05805C3.86702 6.01992 3.94729 5.99999 4.0288 6.00001H8.02685C8.09968 5.9997 8.17169 6.01541 8.23777 6.04605C8.30385 6.07668 8.36237 6.12148 8.4092 6.17726L10.1089 8.31151C10.1667 8.38417 10.2437 8.43929 10.331 8.47071L14 9.78906V12.5Z" fill="currentColor" style="fill-opacity:1"/>
<path d="M12.2774 3.00001C12.2774 2.7348 12.3827 2.48044 12.5702 2.29291C12.7578 2.10537 13.0121 2.00001 13.2774 2.00001H15C14.8032 1.65629 14.5081 1.3792 14.1527 1.2043C13.7973 1.02941 13.3978 0.964669 13.0054 1.0184C12.6129 1.07213 12.2455 1.24187 11.9502 1.50586C11.6549 1.76984 11.4452 2.11603 11.348 2.50001H8V3.50001H11.348C11.4452 3.884 11.6549 4.23018 11.9502 4.49417C12.2455 4.75815 12.6129 4.9279 13.0054 4.98163C13.3978 5.03535 13.7973 4.97062 14.1527 4.79572C14.5081 4.62082 14.8032 4.34374 15 4.00001H13.2774C13.0121 4.00001 12.7578 3.89466 12.5702 3.70712C12.3827 3.51958 12.2774 3.26523 12.2774 3.00001Z" fill="currentColor" style="fill-opacity:1"/>
</svg>
