<svg viewBox="0 0 16 16" fill="none" xmlns="http://www.w3.org/2000/svg">
<path d="M14 5.5C13.8576 5.50051 13.717 5.53156 13.5877 5.59105L12.4168 4.755C12.4695 4.59174 12.4975 4.42153 12.5 4.25C12.4975 4.07847 12.4695 3.90826 12.4168 3.745L13.5877 2.90885C13.7842 2.99763 14.0042 3.02039 14.2148 2.97374C14.4253 2.92709 14.6152 2.81353 14.7558 2.65005C14.8965 2.48657 14.9805 2.28194 14.9952 2.06677C15.0099 1.8516 14.9546 1.63745 14.8374 1.45634C14.7203 1.27523 14.5478 1.13689 14.3455 1.06201C14.1433 0.987132 13.9222 0.979734 13.7154 1.04092C13.5086 1.10212 13.3271 1.22861 13.1982 1.40148C13.0692 1.57436 12.9997 1.78433 13 2C13 2.032 13.0065 2.062 13.0094 2.09325L11.8637 2.9116C11.5525 2.64753 11.1581 2.50176 10.75 2.5C10.2859 2.5 9.84075 2.68438 9.51256 3.01257C9.18437 3.34075 9 3.78587 9 4.25C9 4.71413 9.18437 5.15925 9.51256 5.48744C9.84075 5.81563 10.2859 6 10.75 6C11.1581 5.99824 11.5525 5.85248 11.8637 5.5884L13.0094 6.40675C13.0065 6.438 13 6.468 13 6.5C13 6.69778 13.0586 6.89112 13.1685 7.05557C13.2784 7.22002 13.4346 7.34819 13.6173 7.42388C13.8 7.49957 14.0011 7.51937 14.1951 7.48079C14.3891 7.4422 14.5673 7.34696 14.7071 7.20711C14.847 7.06726 14.9422 6.88907 14.9808 6.69509C15.0194 6.50111 14.9996 6.30005 14.9239 6.11732C14.8482 5.93459 14.72 5.77841 14.5556 5.66853C14.3911 5.55865 14.1978 5.5 14 5.5ZM10.75 5C10.6017 5 10.4567 4.95602 10.3333 4.87361C10.21 4.79119 10.1139 4.67406 10.0571 4.53702C10.0003 4.39997 9.98547 4.24917 10.0144 4.10368C10.0433 3.9582 10.1148 3.82456 10.2197 3.71967C10.3246 3.61478 10.4582 3.54335 10.6037 3.51441C10.7492 3.48547 10.9 3.50033 11.037 3.55709C11.1741 3.61386 11.2912 3.70999 11.3736 3.83333C11.456 3.95666 11.5 4.10167 11.5 4.25C11.4998 4.44885 11.4207 4.63948 11.2801 4.78008C11.1395 4.92069 10.9488 4.99978 10.75 5Z" fill="currentColor" style="fill-opacity:1"/>
<path d="M14.6689 9.9668L10.8027 8.57765L9.187 6.54835C9.04646 6.37656 8.86942 6.23822 8.66875 6.14337C8.46808 6.04853 8.24881 5.99955 8.02685 6H4.0288C3.78431 5.9999 3.5435 6.0596 3.32737 6.1739C3.11124 6.28819 2.92634 6.45362 2.7888 6.65575L1.4331 8.64745C1.1506 9.06198 0.999668 9.55207 0.999999 10.0537V13C0.999999 13.1326 1.05268 13.2598 1.14645 13.3536C1.24021 13.4473 1.36739 13.5 1.5 13.5H2.57105C2.68007 13.9289 2.92892 14.3092 3.27825 14.5808C3.62758 14.8525 4.05748 15 4.5 15C4.94252 15 5.37242 14.8525 5.72175 14.5808C6.07108 14.3092 6.31993 13.9289 6.42895 13.5H9.57105C9.68007 13.9289 9.92892 14.3092 10.2783 14.5808C10.6276 14.8525 11.0575 15 11.5 15C11.9425 15 12.3724 14.8525 12.7217 14.5808C13.0711 14.3092 13.3199 13.9289 13.429 13.5H14.5C14.6326 13.5 14.7598 13.4473 14.8536 13.3536C14.9473 13.2598 15 13.1326 15 13V10.4375C15 10.3345 14.9682 10.234 14.909 10.1498C14.8497 10.0655 14.7659 10.0016 14.6689 9.9668ZM4.5 14C4.30222 14 4.10888 13.9414 3.94443 13.8315C3.77998 13.7216 3.65181 13.5654 3.57612 13.3827C3.50043 13.2 3.48063 12.9989 3.51921 12.8049C3.5578 12.6109 3.65304 12.4327 3.79289 12.2929C3.93275 12.153 4.11093 12.0578 4.30491 12.0192C4.49889 11.9806 4.69996 12.0004 4.88268 12.0761C5.06541 12.1518 5.22159 12.28 5.33147 12.4444C5.44135 12.6089 5.5 12.8022 5.5 13C5.49964 13.2651 5.39417 13.5193 5.20671 13.7067C5.01925 13.8942 4.76511 13.9996 4.5 14ZM11.5 14C11.3022 14 11.1089 13.9414 10.9444 13.8315C10.78 13.7216 10.6518 13.5654 10.5761 13.3827C10.5004 13.2 10.4806 12.9989 10.5192 12.8049C10.5578 12.6109 10.653 12.4327 10.7929 12.2929C10.9327 12.153 11.1109 12.0578 11.3049 12.0192C11.4989 11.9806 11.7 12.0004 11.8827 12.0761C12.0654 12.1518 12.2216 12.28 12.3315 12.4444C12.4414 12.6089 12.5 12.8022 12.5 13C12.4997 13.2651 12.3942 13.5193 12.2067 13.7067C12.0193 13.8942 11.7651 13.9997 11.5 14ZM14 12.5H13.429C13.3199 12.0711 13.0711 11.6908 12.7217 11.4192C12.3724 11.1475 11.9425 11.0001 11.5 11.0001C11.0575 11.0001 10.6276 11.1475 10.2783 11.4192C9.92892 11.6908 9.68007 12.0711 9.57105 12.5H6.42895C6.31993 12.0711 6.07108 11.6908 5.72175 11.4192C5.37242 11.1475 4.94252 11.0001 4.5 11.0001C4.05748 11.0001 3.62758 11.1475 3.27825 11.4192C2.92892 11.6908 2.68007 12.0711 2.57105 12.5H2V10.0537C1.99989 9.75256 2.09049 9.45836 2.26 9.20945L3.6155 7.21875C3.66132 7.15134 3.72294 7.09617 3.79498 7.05804C3.86702 7.01991 3.94729 6.99998 4.0288 7H8.02685C8.09968 6.99969 8.17169 7.0154 8.23777 7.04604C8.30385 7.07667 8.36237 7.12147 8.4092 7.17725L10.1089 9.3115C10.1667 9.38416 10.2437 9.43928 10.331 9.4707L14 10.7891V12.5Z" fill="currentColor" style="fill-opacity:1"/>
</svg>
