<svg viewBox="0 0 16 16" fill="none" xmlns="http://www.w3.org/2000/svg">
<path d="M10.155 3H2C1.73478 3 1.48043 3.10536 1.29289 3.29289C1.10536 3.48043 1 3.73478 1 4V12C0.99754 12.0483 0.99754 12.0967 1 12.145L10.155 3Z" fill="currentColor" style="fill-opacity:1"/>
<path d="M14.73 4.055C14.6505 4.01704 14.5624 4.00074 14.4746 4.00777C14.3868 4.01479 14.3024 4.04488 14.23 4.095L11.5 6.03V5.22L15 1.72L14.28 1L1 14.28L1.72 15L3.72 13H10.5C10.7652 13 11.0196 12.8946 11.2071 12.7071C11.3946 12.5196 11.5 12.2652 11.5 12V9.97L14.21 11.905C14.2846 11.9581 14.3724 11.9897 14.4638 11.9964C14.5552 12.003 14.6466 11.9844 14.7281 11.9426C14.8096 11.9008 14.8781 11.8375 14.926 11.7594C14.974 11.6813 14.9996 11.5916 15 11.5V4.5C15.0002 4.40819 14.9751 4.31809 14.9275 4.2396C14.8798 4.1611 14.8115 4.09723 14.73 4.055Z" fill="currentColor" style="fill-opacity:1"/>
</svg>
