<svg viewBox="0 0 16 16" fill="none" xmlns="http://www.w3.org/2000/svg">
<path d="M10.2935 11L7.5 8.205V3.5H8.499V7.791L11 10.2935L10.2935 11Z" fill="currentColor" style="fill-opacity:1"/>
<path d="M8 1C8.93278 0.999725 9.85609 1.18701 10.715 1.55071C11.574 1.91442 12.351 2.44712 13 3.11715V1H14V5H10V4H12.4608C11.5241 2.95978 10.2526 2.28046 8.86716 2.07996C7.48173 1.87947 6.06983 2.17046 4.87658 2.90242C3.68333 3.63438 2.78408 4.76109 2.33494 6.08694C1.88579 7.41279 1.91513 8.85406 2.41785 10.1605C2.92056 11.467 3.86492 12.5562 5.08696 13.239C6.30901 13.9218 7.73158 14.1551 9.1077 13.8984C10.4838 13.6417 11.7266 12.9112 12.6203 11.8337C13.514 10.7563 14.0021 9.39986 14 8H15C15 9.38447 14.5895 10.7378 13.8203 11.889C13.0511 13.0401 11.9579 13.9373 10.6788 14.4672C9.3997 14.997 7.99223 15.1356 6.63436 14.8655C5.2765 14.5954 4.02922 13.9287 3.05025 12.9497C2.07128 11.9708 1.4046 10.7235 1.1345 9.36563C0.864403 8.00776 1.00303 6.6003 1.53284 5.32122C2.06265 4.04213 2.95986 2.94888 4.111 2.17971C5.26215 1.41054 6.61553 1 8 1Z" fill="currentColor" style="fill-opacity:1"/>
</svg>
