<svg viewBox="0 0 16 16" fill="none" xmlns="http://www.w3.org/2000/svg">
<path d="M10.5 7.99998H5.49999C5.23486 8.00029 4.98069 8.10574 4.79322 8.29321C4.60575 8.48068 4.50029 8.73486 4.49999 8.99998V12C4.50029 12.2651 4.60575 12.5193 4.79322 12.7068C4.98069 12.8942 5.23486 12.9997 5.49999 13H7.49999V14H5.99999V15H9.99999V14H8.49999V13H10.5C10.7651 12.9997 11.0193 12.8942 11.2068 12.7068C11.3942 12.5193 11.4997 12.2651 11.5 12V8.99998C11.4997 8.73486 11.3942 8.48068 11.2068 8.29321C11.0193 8.10574 10.7651 8.00029 10.5 7.99998ZM5.49999 12V8.99998H10.5L10.5007 12H5.49999Z" fill="currentColor" style="fill-opacity:1"/>
<path d="M12.9109 5.06198C12.6927 3.91933 12.0829 2.88851 11.1866 2.14706C10.2902 1.40562 9.16328 0.999965 7.99999 0.999965C6.83669 0.999965 5.70981 1.40562 4.81342 2.14706C3.91703 2.88851 3.30724 3.91933 3.08909 5.06198C2.18811 5.22244 1.37705 5.70718 0.809021 6.4247C0.240988 7.14222 -0.0447139 8.04287 0.00585109 8.95662C0.0564161 9.87037 0.439749 10.734 1.08348 11.3845C1.72722 12.0349 2.58681 12.4272 3.49999 12.4873V11.4873C2.81167 11.4251 2.1721 11.1057 1.70879 10.5929C1.24549 10.08 0.992491 9.41142 1.00025 8.72034C1.00801 8.02927 1.27596 7.3665 1.75066 6.86421C2.22537 6.36191 2.87195 6.05698 3.56149 6.01023L3.97974 5.98193L4.02474 5.56493C4.13164 4.58527 4.59652 3.67959 5.33018 3.02163C6.06384 2.36368 7.01461 1.9998 8.00009 1.9998C8.98556 1.9998 9.93633 2.36368 10.67 3.02163C11.4037 3.67959 11.8685 4.58527 11.9754 5.56493L12.0204 5.98193L12.4387 6.01023C13.1282 6.05701 13.7748 6.36196 14.2495 6.86428C14.7242 7.36659 14.9921 8.02936 14.9998 8.72044C15.0075 9.41151 14.7545 10.0801 14.2912 10.5929C13.8279 11.1057 13.1883 11.4251 12.5 11.4873V12.4873C13.4132 12.4272 14.2728 12.0349 14.9165 11.3845C15.5602 10.734 15.9436 9.87037 15.9941 8.95662C16.0447 8.04287 15.759 7.14222 15.191 6.4247C14.6229 5.70718 13.8119 5.22244 12.9109 5.06198Z" fill="currentColor" style="fill-opacity:1"/>
</svg>
