<svg viewBox="0 0 16 16" fill="none" xmlns="http://www.w3.org/2000/svg">
<g id="Icons / Virtual-machine" clip-path="url(#clip0_0_770)">
<g id="icon">
<path d="M10 6.5H6C5.73489 6.50033 5.48073 6.60579 5.29326 6.79326C5.1058 6.98072 5.00033 7.23488 5 7.5V14C5.00033 14.2651 5.1058 14.5193 5.29326 14.7067C5.48073 14.8942 5.73489 14.9997 6 15H10C10.2651 14.9997 10.5193 14.8942 10.7067 14.7067C10.8942 14.5193 10.9997 14.2651 11 14V7.5C10.9997 7.23488 10.8942 6.98072 10.7067 6.79326C10.5193 6.60579 10.2651 6.50033 10 6.5ZM10 7.5V9H6V7.5H10ZM10 10V11.5H6V10H10ZM6 14V12.5H10V14H6Z" fill="currentColor" style="fill-opacity:1"/>
<path d="M12.955 5.065C12.9431 5.0628 12.9321 5.0571 12.9235 5.04861C12.9149 5.04013 12.909 5.02925 12.9067 5.0174C12.7107 4.04354 12.2293 3.15006 11.5238 2.45077C10.8183 1.75149 9.92056 1.27806 8.945 1.0908C7.64879 0.840398 6.30615 1.11267 5.20987 1.84823C4.1136 2.58379 3.35263 3.72297 3.0929 5.01735C3.09057 5.02922 3.08473 5.04013 3.07614 5.04866C3.06754 5.05719 3.0566 5.06295 3.0447 5.0652C2.12845 5.24086 1.31055 5.75168 0.750651 6.49792C0.19075 7.24417 -0.0709618 8.17228 0.0166006 9.1011C0.104163 10.0299 0.534715 10.8928 1.22421 11.5212C1.91371 12.1497 2.81267 12.4987 3.7456 12.5H4V11.5H3.7477C3.35316 11.4989 2.96345 11.4131 2.60493 11.2484C2.24642 11.0836 1.92746 10.8438 1.66964 10.5452C1.41181 10.2465 1.22113 9.89598 1.1105 9.51726C0.999861 9.13854 0.971848 8.74048 1.02835 8.35C1.12915 7.76431 1.41055 7.22478 1.83316 6.80694C2.25577 6.3891 2.79845 6.11384 3.38525 6.0197L3.89355 5.9279C3.90645 5.92552 3.91834 5.91931 3.92765 5.91008C3.93697 5.90085 3.9433 5.88902 3.9458 5.87615L4.0358 5.4086C4.18488 4.56038 4.59478 3.77976 5.20841 3.17547C5.82204 2.57118 6.60885 2.1733 7.45925 2.03725C7.93365 1.97216 8.4159 1.99325 8.8828 2.0995C9.65731 2.28813 10.3603 2.69792 10.906 3.27896C11.4518 3.85999 11.8168 4.5872 11.9566 5.372L12.0536 5.87615C12.0561 5.88904 12.0624 5.90088 12.0717 5.91012C12.081 5.91936 12.0929 5.92555 12.1059 5.9279L12.6347 6.0236C13.218 6.11571 13.7591 6.38425 14.1852 6.7931C14.572 7.17673 14.8362 7.66651 14.9445 8.20042C15.0527 8.73433 15.0001 9.28835 14.7933 9.79234C14.5865 10.2963 14.2348 10.7276 13.7827 11.0316C13.3307 11.3356 12.7986 11.4986 12.2538 11.5H12V12.5H12.2538C13.1869 12.499 14.0862 12.1502 14.776 11.5217C15.4658 10.8933 15.8965 10.0303 15.9841 9.10124C16.0717 8.17222 15.8099 7.2439 15.2498 6.49756C14.6897 5.75121 13.8715 5.24045 12.955 5.065Z" fill="currentColor" style="fill-opacity:1"/>
</g>
</g>
<defs>
<clipPath id="clip0_0_770">
<rect width="16" height="16" fill="currentColor" style="fill-opacity:1"/>
</clipPath>
</defs>
</svg>
