<svg viewBox="0 0 16 16" fill="none" xmlns="http://www.w3.org/2000/svg">
<g id="Icons / Virtual-private-cloud" clip-path="url(#clip0_0_42)">
<g id="icon">
<path d="M10 10V8.50002C10 7.96958 9.7893 7.46088 9.41422 7.0858C9.03915 6.71073 8.53044 6.50002 8.00001 6.50002C7.46958 6.50002 6.96087 6.71073 6.5858 7.0858C6.21072 7.46088 6.00001 7.96958 6.00001 8.50002V10C5.73489 10.0003 5.48073 10.1058 5.29327 10.2933C5.1058 10.4807 5.00034 10.7349 5.00001 11V14C5.00034 14.2651 5.1058 14.5193 5.29327 14.7068C5.48073 14.8942 5.73489 14.9997 6.00001 15H10C10.2651 14.9997 10.5193 14.8942 10.7068 14.7068C10.8942 14.5193 10.9997 14.2651 11 14V11C10.9997 10.7349 10.8942 10.4807 10.7068 10.2933C10.5193 10.1058 10.2651 10.0003 10 10ZM7.00001 8.50002C7.00001 8.2348 7.10537 7.98045 7.2929 7.79291C7.48044 7.60537 7.73479 7.50002 8.00001 7.50002C8.26523 7.50002 8.51958 7.60537 8.70712 7.79291C8.89465 7.98045 9.00001 8.2348 9.00001 8.50002V10H7.00001V8.50002ZM6.00001 14V11H10L10.0006 14H6.00001Z" fill="currentColor" style="fill-opacity:1"/>
<path d="M12.9144 5.05762C12.7251 4.07538 12.2458 3.17243 11.5382 2.46533C10.8306 1.75823 9.92737 1.27946 8.94501 1.09082C8.29974 0.966167 7.63624 0.969915 6.99242 1.10185C6.34861 1.23378 5.7371 1.49131 5.19288 1.85971C4.64865 2.22812 4.18237 2.70017 3.82068 3.24889C3.459 3.79761 3.20901 4.41223 3.08501 5.05762C2.1634 5.22389 1.33733 5.72889 0.769172 6.47334C0.201019 7.21779 -0.0681124 8.14784 0.0146862 9.08066C0.0974847 10.0135 0.526223 10.8816 1.21662 11.5143C1.90701 12.1471 2.80912 12.4987 3.74561 12.5H4.00001V11.5H3.74766C3.06077 11.4992 2.39905 11.2414 1.89261 10.7773C1.38617 10.3133 1.07165 9.67659 1.01089 8.9924C0.950135 8.30821 1.14754 7.62603 1.56428 7.08002C1.98103 6.534 2.58697 6.16364 3.26296 6.04177L3.93736 5.91972L4.06691 5.24687C4.24333 4.33321 4.73236 3.50949 5.45002 2.91716C6.16768 2.32482 7.06918 2.00083 7.99971 2.00083C8.93024 2.00083 9.83174 2.32482 10.5494 2.91716C11.2671 3.50949 11.7561 4.33321 11.9325 5.24687L12.062 5.91972L12.7365 6.04177C13.4123 6.16361 14.0181 6.5338 14.4348 7.0796C14.8516 7.6254 15.0491 8.30734 14.9886 8.99138C14.9281 9.67543 14.614 10.3121 14.108 10.7763C13.6019 11.2405 12.9405 11.4987 12.2538 11.5H12V12.5H12.2538C13.1903 12.4987 14.0924 12.1471 14.7828 11.5143C15.4732 10.8816 15.9019 10.0135 15.9847 9.08066C16.0675 8.14784 15.7984 7.21779 15.2302 6.47334C14.6621 5.72889 13.836 5.22389 12.9144 5.05762Z" fill="currentColor" style="fill-opacity:1"/>
</g>
</g>
<defs>
<clipPath id="clip0_0_42">
<rect width="16" height="16" fill="currentColor" style="fill-opacity:1"/>
</clipPath>
</defs>
</svg>
