<svg viewBox="0 0 16 16" fill="none" xmlns="http://www.w3.org/2000/svg">
<path d="M11.5 7.00001C12.0523 7.00001 12.5 6.5523 12.5 6.00001C12.5 5.44773 12.0523 5.00001 11.5 5.00001C10.9477 5.00001 10.5 5.44773 10.5 6.00001C10.5 6.5523 10.9477 7.00001 11.5 7.00001Z" fill="currentColor" style="fill-opacity:1"/>
<path d="M14 2.50001H8.12C7.75335 2.03899 7.28941 1.66463 6.76132 1.40368C6.23322 1.14274 5.65401 1.00164 5.06507 0.990491C4.47613 0.979336 3.892 1.09839 3.3544 1.33916C2.81681 1.57992 2.33902 1.93644 1.95518 2.38326C1.57134 2.83007 1.29092 3.35614 1.13396 3.92389C0.976993 4.49164 0.94736 5.08705 1.04717 5.66758C1.14699 6.2481 1.37379 6.79942 1.71136 7.28214C2.04894 7.76486 2.48897 8.16706 3 8.46001V13.5C3 13.7652 3.10536 14.0196 3.29289 14.2071C3.48043 14.3947 3.73478 14.5 4 14.5H14C14.2652 14.5 14.5196 14.3947 14.7071 14.2071C14.8946 14.0196 15 13.7652 15 13.5V3.50001C15 3.2348 14.8946 2.98044 14.7071 2.79291C14.5196 2.60537 14.2652 2.50001 14 2.50001ZM2 5.00001C2.00117 4.34059 2.21957 3.69992 2.62143 3.1771C3.02328 2.65427 3.58621 2.27841 4.22314 2.10765C4.86007 1.93689 5.53552 1.98075 6.14502 2.23243C6.75452 2.48412 7.26412 2.92961 7.595 3.50001H4V4.50001H7.955C7.9826 4.66531 7.99764 4.83245 8 5.00001C7.99764 5.16758 7.9826 5.33472 7.955 5.50001H5V6.50001H7.595C7.26412 7.07042 6.75452 7.51591 6.14502 7.7676C5.53552 8.01928 4.86007 8.06314 4.22314 7.89238C3.58621 7.72162 3.02328 7.34576 2.62143 6.82293C2.21957 6.3001 2.00117 5.65944 2 5.00001ZM14 13.5H4L6.5 11L7.295 11.795C7.48236 11.9813 7.73581 12.0858 8 12.0858C8.26419 12.0858 8.51764 11.9813 8.705 11.795L11.5 9.00001L14 11.5V13.5ZM14 10.085L12.205 8.29001C12.0176 8.10376 11.7642 7.99922 11.5 7.99922C11.2358 7.99922 10.9824 8.10376 10.795 8.29001L8 11.085L7.205 10.29C7.01764 10.1038 6.76419 9.99922 6.5 9.99922C6.23581 9.99922 5.98236 10.1038 5.795 10.29L4 12.085V8.87001C4.32675 8.95413 4.6626 8.99779 5 9.00001C6.06087 9.00001 7.07828 8.57859 7.82843 7.82844C8.57857 7.0783 9 6.06088 9 5.00001C9.00028 4.48557 8.90007 3.97603 8.705 3.50001H14V10.085Z" fill="currentColor" style="fill-opacity:1"/>
</svg>
