<svg viewBox="0 0 16 16" fill="none" xmlns="http://www.w3.org/2000/svg">
<path id="icon-arrow" d="M12 5C11.4214 5.00117 10.8555 5.16964 10.3704 5.48511C9.88536 5.80058 9.50189 6.24958 9.26621 6.77802C9.03052 7.30646 8.95269 7.89178 9.04207 8.46344C9.13146 9.03511 9.38425 9.56873 9.77 10H6.23C6.6881 9.48782 6.95649 8.8339 6.99029 8.14757C7.02409 7.46124 6.82125 6.78411 6.41569 6.2294C6.01012 5.67469 5.42642 5.27601 4.76218 5.10004C4.09793 4.92407 3.39341 4.98147 2.7664 5.26264C2.1394 5.5438 1.62792 6.0317 1.3175 6.64474C1.00707 7.25779 0.916506 7.95882 1.06095 8.63063C1.2054 9.30243 1.57609 9.90429 2.11106 10.3356C2.64603 10.7668 3.31284 11.0014 4 11H12C12.7956 11 13.5587 10.6839 14.1213 10.1213C14.6839 9.55871 15 8.79565 15 8C15 7.20435 14.6839 6.44129 14.1213 5.87868C13.5587 5.31607 12.7956 5 12 5ZM2 8C2 7.60444 2.11729 7.21776 2.33706 6.88886C2.55682 6.55996 2.86918 6.30362 3.23463 6.15224C3.60008 6.00087 4.00221 5.96126 4.39018 6.03843C4.77814 6.1156 5.1345 6.30608 5.41421 6.58579C5.69391 6.86549 5.8844 7.22186 5.96157 7.60982C6.03874 7.99778 5.99913 8.39991 5.84775 8.76537C5.69638 9.13082 5.44003 9.44318 5.11114 9.66294C4.78224 9.8827 4.39556 10 4 10C3.46956 10 2.96085 9.78929 2.58578 9.41421C2.21071 9.03914 2 8.53043 2 8ZM12 10C11.6044 10 11.2178 9.8827 10.8889 9.66294C10.56 9.44318 10.3036 9.13082 10.1522 8.76537C10.0009 8.39991 9.96126 7.99778 10.0384 7.60982C10.1156 7.22186 10.3061 6.86549 10.5858 6.58579C10.8655 6.30608 11.2219 6.1156 11.6098 6.03843C11.9978 5.96126 12.3999 6.00087 12.7654 6.15224C13.1308 6.30362 13.4432 6.55996 13.6629 6.88886C13.8827 7.21776 14 7.60444 14 8C14 8.53043 13.7893 9.03914 13.4142 9.41421C13.0391 9.78929 12.5304 10 12 10Z" fill="currentColor" style="fill-opacity:1"/>
</svg>
