<svg viewBox="0 0 16 16" fill="none" xmlns="http://www.w3.org/2000/svg">
<path d="M13 15H12V13.5H10C9.33718 13.4993 8.70172 13.2356 8.23303 12.767C7.76435 12.2983 7.50072 11.6628 7.5 11V10.3603L6.3419 9.97435C6.27087 9.95067 6.20608 9.91134 6.15228 9.85927C6.09849 9.80719 6.05708 9.7437 6.03111 9.67349C6.00514 9.60327 5.99526 9.52812 6.00222 9.45357C6.00917 9.37903 6.03278 9.307 6.0713 9.2428L7.5 6.86145V5.5C7.50132 4.30693 7.97585 3.16311 8.81948 2.31948C9.6631 1.47585 10.8069 1.00132 12 1H14.5V2H12C11.0721 2.00103 10.1824 2.37011 9.52626 3.02627C8.87011 3.68242 8.50103 4.57206 8.5 5.5V7C8.5 7.09061 8.47535 7.17952 8.4287 7.2572L7.2494 9.2228L8.1581 9.52565C8.25766 9.55883 8.34425 9.6225 8.40561 9.70764C8.46698 9.79277 8.5 9.89506 8.5 10V11C8.50043 11.3977 8.65861 11.779 8.93982 12.0602C9.22103 12.3414 9.6023 12.4996 10 12.5H12.5C12.6326 12.5 12.7598 12.5527 12.8535 12.6464C12.9473 12.7402 13 12.8674 13 13V15Z" fill="currentColor" style="fill-opacity:1"/>
<path d="M11.5 6H9.5V7H11.5V6Z" fill="currentColor" style="fill-opacity:1"/>
<path d="M4.66625 12.6084C4.29933 12.2801 4.0058 11.878 3.80484 11.4286C3.60387 10.9791 3.5 10.4922 3.5 9.99988C3.5 9.50751 3.60387 9.02068 3.80484 8.57119C4.0058 8.1217 4.29933 7.71967 4.66625 7.39135L5.33325 8.13635C5.07106 8.37084 4.86131 8.65803 4.71771 8.97913C4.5741 9.30023 4.49987 9.64802 4.49987 9.99977C4.49987 10.3515 4.5741 10.6993 4.71771 11.0204C4.86131 11.3415 5.07106 11.6287 5.33325 11.8632L4.66625 12.6084Z" fill="currentColor" style="fill-opacity:1"/>
<path d="M3.1997 14.4004C2.51673 13.888 1.96242 13.2236 1.58065 12.4599C1.19888 11.6962 1.00013 10.8541 1.00013 10.0002C1.00013 9.14643 1.19888 8.30432 1.58065 7.54061C1.96242 6.77689 2.51673 6.11252 3.1997 5.6001L3.8 6.4C3.24106 6.8192 2.7874 7.36279 2.47495 7.9877C2.1625 8.61261 1.99983 9.30168 1.99983 10.0003C1.99983 10.699 2.1625 11.3881 2.47495 12.013C2.7874 12.6379 3.24106 13.1815 3.8 13.6007L3.1997 14.4004Z" fill="currentColor" style="fill-opacity:1"/>
</svg>
