<svg viewBox="0 0 16 16" fill="none" xmlns="http://www.w3.org/2000/svg">
<path d="M11.5 12.0001C11.1212 12.0009 10.7569 12.146 10.4812 12.4058L8.47935 11.2047C8.50688 11.0697 8.50688 10.9305 8.47935 10.7955L10.4812 9.59433C10.7562 9.86601 11.119 10.0306 11.5046 10.0586C11.8901 10.0866 12.273 9.97605 12.5842 9.74691C12.8955 9.51777 13.1148 9.18505 13.2027 8.80863C13.2906 8.4322 13.2412 8.03678 13.0635 7.69351C12.8858 7.35024 12.5914 7.08166 12.2333 6.93608C11.8753 6.79051 11.477 6.7775 11.1102 6.89939C10.7433 7.02129 10.4321 7.27009 10.2323 7.60103C10.0326 7.93197 9.95755 8.32333 10.0206 8.70468L8.0188 9.90583C7.80538 9.70573 7.5381 9.5724 7.24986 9.52227C6.96163 9.47214 6.66503 9.50739 6.39657 9.62368C6.12812 9.73997 5.89953 9.93224 5.73896 10.1768C5.57838 10.4213 5.49283 10.7075 5.49283 11.0001C5.49283 11.2926 5.57838 11.5788 5.73896 11.8234C5.89953 12.0679 6.12812 12.2602 6.39657 12.3765C6.66503 12.4928 6.96163 12.528 7.24986 12.4779C7.5381 12.4278 7.80538 12.2944 8.0188 12.0943L10.0206 13.2955C10.0091 13.3631 10.0022 13.4315 10 13.5001C10 13.7968 10.088 14.0868 10.2528 14.3334C10.4176 14.5801 10.6519 14.7724 10.926 14.8859C11.2001 14.9994 11.5017 15.0291 11.7926 14.9713C12.0836 14.9134 12.3509 14.7705 12.5607 14.5607C12.7704 14.351 12.9133 14.0837 12.9712 13.7927C13.0291 13.5017 12.9994 13.2001 12.8858 12.9261C12.7723 12.652 12.58 12.4177 12.3334 12.2529C12.0867 12.0881 11.7967 12.0001 11.5 12.0001ZM11.5 8.00008C11.5989 8.00008 11.6956 8.02941 11.7778 8.08435C11.86 8.13929 11.9241 8.21738 11.9619 8.30874C11.9998 8.4001 12.0097 8.50064 11.9904 8.59763C11.9711 8.69462 11.9235 8.78371 11.8536 8.85364C11.7836 8.92356 11.6945 8.97118 11.5975 8.99047C11.5006 9.00977 11.4 8.99987 11.3087 8.96202C11.2173 8.92418 11.1392 8.86009 11.0843 8.77787C11.0293 8.69564 11 8.59897 11 8.50008C11.0001 8.36751 11.0528 8.24039 11.1466 8.14665C11.2403 8.0529 11.3674 8.00019 11.5 8.00008ZM7 11.5001C6.90111 11.5001 6.80444 11.4708 6.72222 11.4158C6.63999 11.3609 6.5759 11.2828 6.53806 11.1914C6.50022 11.1001 6.49032 10.9995 6.50961 10.9025C6.5289 10.8055 6.57652 10.7165 6.64645 10.6465C6.71637 10.5766 6.80546 10.529 6.90246 10.5097C6.99945 10.4904 7.09998 10.5003 7.19134 10.5381C7.28271 10.576 7.36079 10.6401 7.41574 10.7223C7.47068 10.8045 7.5 10.9012 7.5 11.0001C7.49989 11.1327 7.44718 11.2598 7.35344 11.3535C7.25969 11.4473 7.13258 11.5 7 11.5001ZM11.5 14.0001C11.4011 14.0001 11.3044 13.9708 11.2222 13.9158C11.14 13.8609 11.0759 13.7828 11.0381 13.6914C11.0002 13.6001 10.9903 13.4995 11.0096 13.4025C11.0289 13.3055 11.0765 13.2165 11.1464 13.1465C11.2164 13.0766 11.3055 13.029 11.4025 13.0097C11.4994 12.9904 11.6 13.0003 11.6913 13.0381C11.7827 13.076 11.8608 13.1401 11.9157 13.2223C11.9707 13.3045 12 13.4012 12 13.5001C11.9999 13.6327 11.9472 13.7598 11.8534 13.8535C11.7597 13.9473 11.6326 14 11.5 14.0001Z" fill="currentColor" style="fill-opacity:1"/>
<path d="M4 14H2C1.73488 13.9997 1.4807 13.8942 1.29323 13.7068C1.10576 13.5193 1.0003 13.2651 1 13V3C1.0003 2.73487 1.10576 2.4807 1.29323 2.29323C1.4807 2.10575 1.73488 2.0003 2 2H5.79285C5.92424 1.99963 6.05439 2.02533 6.17578 2.07562C6.29716 2.1259 6.40736 2.19977 6.5 2.29295L8.20715 4H14C14.2651 4.0003 14.5193 4.10576 14.7068 4.29323C14.8942 4.4807 14.9997 4.73487 15 5V9H14V5H7.79285L5.79285 3H2V13H4V14Z" fill="currentColor" style="fill-opacity:1"/>
</svg>
