<svg viewBox="0 0 16 16" fill="none" xmlns="http://www.w3.org/2000/svg">
<path d="M12.8535 8.6465L10.3535 6.1465C10.2598 6.05273 10.1326 6.00003 10 6H7C6.73478 6 6.48043 6.10536 6.29289 6.29289C6.10536 6.48043 6 6.73478 6 7V14C6 14.2652 6.10536 14.5196 6.29289 14.7071C6.48043 14.8946 6.73478 15 7 15H12C12.2652 15 12.5196 14.8946 12.7071 14.7071C12.8946 14.5196 13 14.2652 13 14V9C13 8.8674 12.9473 8.74025 12.8535 8.6465ZM11.7928 9H10V7.20705L11.7928 9ZM7 14V7H9V9C9 9.26522 9.10536 9.51957 9.29289 9.70711C9.48043 9.89464 9.73478 10 10 10H12V14H7Z" fill="currentColor" style="fill-opacity:1"/>
<path d="M4 13.5H2C1.73488 13.4997 1.4807 13.3942 1.29323 13.2068C1.10576 13.0193 1.0003 12.7651 1 12.5V2.5C1.0003 2.23487 1.10576 1.9807 1.29323 1.79323C1.4807 1.60575 1.73488 1.5003 2 1.5H5.79285C5.92424 1.49963 6.05439 1.52533 6.17578 1.57562C6.29716 1.6259 6.40736 1.69977 6.5 1.79295L8.20715 3.5H14C14.2651 3.5003 14.5193 3.60575 14.7068 3.79323C14.8942 3.9807 14.9997 4.23487 15 4.5V8.5H14V4.5H7.79285L5.79285 2.5H2V12.5H4V13.5Z" fill="currentColor" style="fill-opacity:1"/>
</svg>
