<svg viewBox="0 0 16 16" fill="none" xmlns="http://www.w3.org/2000/svg">
<path d="M13.58 4.03997L12.815 4.68497C13.6009 5.61593 14.0199 6.80183 13.9932 8.01988C13.9665 9.23793 13.496 10.4043 12.67 11.3L13.405 12C14.3968 10.9252 14.962 9.52519 14.9942 8.06306C15.0264 6.60094 14.5235 5.17738 13.58 4.05997V4.03997Z" fill="currentColor" style="fill-opacity:1"/>
<path d="M10.79 5.99997C11.2614 6.55898 11.5124 7.27092 11.4959 8.00199C11.4793 8.73305 11.1963 9.43289 10.7 9.96997L11.435 10.65C12.0964 9.93315 12.4732 8.99936 12.4944 8.02422C12.5155 7.04909 12.1797 6.09982 11.55 5.35497L10.79 5.99997Z" fill="currentColor" style="fill-opacity:1"/>
<path d="M9 15C8.93385 14.9997 8.86841 14.9863 8.80747 14.9605C8.74653 14.9348 8.69131 14.8972 8.645 14.85L4.835 11H1.5C1.36739 11 1.24021 10.9473 1.14645 10.8535C1.05268 10.7598 1 10.6326 1 10.5V5.49997C1 5.36736 1.05268 5.24018 1.14645 5.14641C1.24021 5.05264 1.36739 4.99997 1.5 4.99997H4.835L8.645 1.14996C8.73868 1.05684 8.86541 1.00457 8.9975 1.00457C9.12959 1.00457 9.25632 1.05684 9.35 1.14996C9.44421 1.24228 9.49812 1.36808 9.5 1.49997V14.5C9.5 14.6326 9.44732 14.7598 9.35355 14.8535C9.25979 14.9473 9.13261 15 9 15ZM2 9.99997H5.04C5.10615 10.0002 5.17159 10.0136 5.23253 10.0394C5.29347 10.0651 5.34869 10.1027 5.395 10.15L8.5 13.285V2.71497L5.395 5.84997C5.34869 5.89721 5.29347 5.93479 5.23253 5.96054C5.17159 5.98629 5.10615 5.99969 5.04 5.99997H2V9.99997Z" fill="currentColor" style="fill-opacity:1"/>
</svg>
