<svg viewBox="0 0 16 16" fill="none" xmlns="http://www.w3.org/2000/svg">
<path d="M8.5 10.5H5V7H8.5V10.5ZM6 9.5H7.5V8H6V9.5Z" fill="currentColor" style="fill-opacity:1"/>
<path d="M8.5 15H5V11.5H8.5V15ZM6 14H7.5V12.5H6V14Z" fill="currentColor" style="fill-opacity:1"/>
<path d="M13 10.5H9.5V7H13V10.5ZM10.5 9.5H12V8H10.5V9.5Z" fill="currentColor" style="fill-opacity:1"/>
<path d="M13 15H9.5V11.5H13V15ZM10.5 14H12V12.5H10.5V14Z" fill="currentColor" style="fill-opacity:1"/>
<path d="M4 14H2C1.73488 13.9997 1.4807 13.8942 1.29323 13.7068C1.10576 13.5193 1.0003 13.2651 1 13V3C1.0003 2.73487 1.10576 2.4807 1.29323 2.29323C1.4807 2.10575 1.73488 2.0003 2 2H5.79285C5.92424 1.99963 6.05439 2.02533 6.17578 2.07562C6.29716 2.1259 6.40736 2.19977 6.5 2.29295L8.20715 4H14C14.2651 4.0003 14.5193 4.10576 14.7068 4.29323C14.8942 4.4807 14.9997 4.73487 15 5V9H14V5H7.79285L5.79285 3H2V13H4V14Z" fill="currentColor" style="fill-opacity:1"/>
</svg>
