<svg viewBox="0 0 16 16" fill="none" xmlns="http://www.w3.org/2000/svg">
<path d="M12.55 5.32997L11.79 5.99997C12.2614 6.55898 12.5124 7.27092 12.4959 8.00199C12.4793 8.73305 12.1963 9.43289 11.7 9.96997L12.435 10.65C13.0964 9.93315 13.4732 8.99936 13.4944 8.02422C13.5155 7.04909 13.1797 6.09982 12.55 5.35497V5.32997Z" fill="currentColor" style="fill-opacity:1"/>
<path d="M10 15C9.93385 14.9997 9.86841 14.9863 9.80747 14.9605C9.74653 14.9348 9.69131 14.8972 9.645 14.85L5.835 11H2.5C2.36739 11 2.24021 10.9473 2.14645 10.8535C2.05268 10.7598 2 10.6326 2 10.5V5.49997C2 5.36736 2.05268 5.24018 2.14645 5.14641C2.24021 5.05264 2.36739 4.99997 2.5 4.99997H5.835L9.645 1.14996C9.73868 1.05684 9.86541 1.00457 9.9975 1.00457C10.1296 1.00457 10.2563 1.05684 10.35 1.14996C10.4442 1.24228 10.4981 1.36808 10.5 1.49997V14.5C10.5 14.6326 10.4473 14.7598 10.3536 14.8535C10.2598 14.9473 10.1326 15 10 15ZM3 9.99997H6C6.14576 9.99901 6.28662 10.0525 6.395 10.15L9.5 13.285V2.71497L6.395 5.84997C6.28662 5.94743 6.14576 6.00092 6 5.99997H3V9.99997Z" fill="currentColor" style="fill-opacity:1"/>
</svg>
