<svg viewBox="0 0 16 16" fill="none" xmlns="http://www.w3.org/2000/svg">
<path id="icon" d="M14 3.5C13.8252 3.50041 13.6535 3.54683 13.5023 3.6346C13.3511 3.72237 13.2257 3.84839 13.1386 4H11C11 3.20435 10.6839 2.44129 10.1213 1.87868C9.5587 1.31607 8.79564 1 7.99999 1C7.20434 1 6.44128 1.31607 5.87867 1.87868C5.31606 2.44129 4.99999 3.20435 4.99999 4H2.86134C2.75128 3.80936 2.58138 3.66036 2.378 3.57612C2.17462 3.49188 1.94913 3.4771 1.7365 3.53407C1.52387 3.59105 1.33597 3.71659 1.20197 3.89124C1.06796 4.06588 0.995318 4.27987 0.995318 4.5C0.995318 4.72013 1.06796 4.93412 1.20197 5.10876C1.33597 5.28341 1.52387 5.40895 1.7365 5.46593C1.94913 5.5229 2.17462 5.50812 2.378 5.42388C2.58138 5.33964 2.75128 5.19064 2.86134 5H4.99999V7H3.99999C3.73478 7 3.48042 7.10536 3.29289 7.29289C3.10535 7.48043 2.99999 7.73478 2.99999 8V14C2.99999 14.2652 3.10535 14.5196 3.29289 14.7071C3.48042 14.8946 3.73478 15 3.99999 15H12C12.2652 15 12.5196 14.8946 12.7071 14.7071C12.8946 14.5196 13 14.2652 13 14V8C13 7.73478 12.8946 7.48043 12.7071 7.29289C12.5196 7.10536 12.2652 7 12 7H11V5H13.1386C13.2267 5.15146 13.353 5.27708 13.505 5.36425C13.657 5.45141 13.8292 5.49706 14.0044 5.49659C14.1795 5.49613 14.3515 5.44958 14.503 5.3616C14.6545 5.27363 14.7802 5.14734 14.8674 4.99542C14.9547 4.8435 15.0004 4.6713 15 4.49611C14.9996 4.32093 14.9532 4.14893 14.8653 3.99739C14.7774 3.84585 14.6511 3.72012 14.4992 3.63281C14.3474 3.5455 14.1752 3.4997 14 3.5V3.5ZM5.99999 4C5.99999 3.46957 6.21071 2.96086 6.58578 2.58579C6.96085 2.21071 7.46956 2 7.99999 2C8.53043 2 9.03913 2.21071 9.41421 2.58579C9.78928 2.96086 9.99999 3.46957 9.99999 4V7H5.99999V5H8.49999V4H5.99999ZM12 8V14H3.99999V8H12Z" fill="currentColor" style="fill-opacity:1"/>
</svg>
