<svg viewBox="0 0 16 16" fill="none" xmlns="http://www.w3.org/2000/svg">
<path d="M13.6747 2H2.32529L2.32434 2.0017L7.99899 12.9143H8.00099L13.6756 2.0017L13.6747 2ZM7.43749 3H8.56249V7.5H7.43749V3ZM7.99999 10C7.85166 10 7.70665 9.95601 7.58332 9.8736C7.45998 9.79119 7.36385 9.67406 7.30708 9.53701C7.25032 9.39997 7.23547 9.24917 7.2644 9.10368C7.29334 8.9582 7.36477 8.82456 7.46966 8.71967C7.57455 8.61478 7.70819 8.54335 7.85368 8.51441C7.99916 8.48547 8.14996 8.50033 8.28701 8.55709C8.42405 8.61386 8.54118 8.70999 8.62359 8.83332C8.70601 8.95666 8.74999 9.10166 8.74999 9.25C8.74999 9.44891 8.67097 9.63968 8.53032 9.78033C8.38967 9.92098 8.19891 10 7.99999 10Z" fill="currentColor" style="fill-opacity:1"/>
<path d="M14.9275 1.2405C14.972 1.31394 14.9968 1.39758 14.9996 1.48339C15.0025 1.56921 14.9832 1.6543 14.9436 1.7305L8.44359 14.2305C8.40137 14.3117 8.33769 14.3797 8.25947 14.4272C8.18125 14.4747 8.0915 14.4998 7.99999 14.4998C7.90849 14.4998 7.81874 14.4747 7.74052 14.4272C7.6623 14.3797 7.59861 14.3117 7.55639 14.2305L1.05639 1.7305C1.0168 1.65429 0.997511 1.56918 1.00037 1.48335C1.00323 1.39752 1.02815 1.31388 1.07272 1.24048C1.11729 1.16707 1.18002 1.10639 1.25486 1.06427C1.32969 1.02215 1.41412 1.00002 1.49999 1H14.5C14.5859 1.00001 14.6704 1.02215 14.7452 1.06427C14.8201 1.10639 14.8829 1.16708 14.9275 1.2405ZM2.32434 2.0017L7.99899 12.9143H8.00099L13.6756 2.0017L13.6747 2H2.32529L2.32434 2.0017Z" fill="currentColor" style="fill-opacity:1"/>
</svg>
