<svg viewBox="0 0 16 16" fill="none" xmlns="http://www.w3.org/2000/svg">
<path d="M8 10.5C7.85166 10.5 7.70666 10.544 7.58332 10.6264C7.45998 10.7088 7.36385 10.8259 7.30709 10.963C7.25032 11.1 7.23547 11.2508 7.26441 11.3963C7.29335 11.5418 7.36478 11.6754 7.46967 11.7803C7.57456 11.8852 7.70819 11.9567 7.85368 11.9856C7.99916 12.0145 8.14996 11.9997 8.28701 11.9429C8.42405 11.8861 8.54119 11.79 8.6236 11.6667C8.70601 11.5433 8.75 11.3983 8.75 11.25C8.75 11.0511 8.67098 10.8603 8.53033 10.7197C8.38967 10.579 8.19891 10.5 8 10.5Z" fill="currentColor" style="fill-opacity:1"/>
<path d="M8.5 4H7.5V9H8.5V4Z" fill="currentColor" style="fill-opacity:1"/>
<path d="M11.5 14.5H4.5C4.41261 14.5 4.32674 14.4771 4.25096 14.4336C4.17518 14.3901 4.11213 14.3274 4.0681 14.252L0.568096 8.25195C0.523484 8.17548 0.499977 8.08853 0.499977 8C0.499977 7.91147 0.523484 7.82452 0.568096 7.74805L4.0681 1.74805C4.11213 1.67257 4.17518 1.60994 4.25096 1.56642C4.32674 1.5229 4.41261 1.5 4.5 1.5H11.5C11.5874 1.5 11.6732 1.5229 11.749 1.56642C11.8248 1.60994 11.8879 1.67257 11.9319 1.74805L15.4319 7.74805C15.4765 7.82452 15.5 7.91147 15.5 8C15.5 8.08853 15.4765 8.17548 15.4319 8.25195L11.9319 14.252C11.8879 14.3274 11.8248 14.3901 11.749 14.4336C11.6732 14.4771 11.5874 14.5 11.5 14.5ZM4.7871 13.5H11.2129L14.4211 8L11.2129 2.5H4.7871L1.57885 8L4.7871 13.5Z" fill="currentColor" style="fill-opacity:1"/>
</svg>
