<svg viewBox="0 0 16 16" fill="none" xmlns="http://www.w3.org/2000/svg">
<path d="M14.5 11.5H12.5V10.5H13.6911L9.75 2.61805L9.19725 3.72365L8.3027 3.2764L9.3027 1.2764C9.3874 1.10705 9.5687 1.00005 9.74995 1.00005C9.9312 1.00005 10.1125 1.10705 10.1972 1.2764L14.9472 10.7764C15.0246 10.9315 15.0164 11.1155 14.9253 11.2629C14.8342 11.4103 14.6734 11.5 14.5 11.5Z" fill="currentColor" style="fill-opacity:1"/>
<path d="M7 13.125C7.34518 13.125 7.625 12.8452 7.625 12.5C7.625 12.1548 7.34518 11.875 7 11.875C6.65482 11.875 6.375 12.1548 6.375 12.5C6.375 12.8452 6.65482 13.125 7 13.125Z" fill="currentColor" style="fill-opacity:1"/>
<path d="M7.5 7.5H6.5V11H7.5V7.5Z" fill="currentColor" style="fill-opacity:1"/>
<path d="M12.5 15H1.5C1.32505 15 1.16285 14.9086 1.07225 14.7589C0.981649 14.6092 0.975949 14.4229 1.0571 14.268L6.55715 3.768C6.64345 3.6032 6.82175 3.5 7 3.5C7.17825 3.5 7.35655 3.6032 7.44285 3.768L12.9428 14.268C13.024 14.4229 13.0183 14.6092 12.9277 14.7589C12.8371 14.9086 12.6749 15 12.5 15ZM2.3263 14H11.6737L7 5.0776L2.3263 14Z" fill="currentColor" style="fill-opacity:1"/>
</svg>
