<svg viewBox="0 0 16 16" fill="none" xmlns="http://www.w3.org/2000/svg">
<path d="M8 10C7.5858 10 7.25 10.3358 7.25 10.75C7.25 11.1642 7.5858 11.5 8 11.5C8.4142 11.5 8.75 11.1642 8.75 10.75C8.75 10.3358 8.4142 10 8 10Z" fill="currentColor" style="fill-opacity:1"/>
<path d="M8.5 4.5H7.5V9H8.5V4.5Z" fill="currentColor" style="fill-opacity:1"/>
<path d="M7.99999 15C7.73324 15 7.46639 14.8985 7.26339 14.6953L1.30469 8.7366C0.898394 8.33045 0.898394 7.6695 1.30469 7.26335L7.26339 1.3047C7.66944 0.898402 8.33059 0.898402 8.73664 1.3047L14.6953 7.26335C15.1016 7.6695 15.1016 8.33045 14.6953 8.7366L8.73664 14.6953C8.53364 14.8984 8.26669 15 7.99999 15ZM7.99999 1.9996C7.98924 1.9996 7.97864 2.00375 7.97044 2.0118L2.01179 7.97045C1.99554 7.9868 1.99554 8.0132 2.01179 8.02955L7.97044 13.9882C7.98679 14.0043 8.01319 14.0043 8.02954 13.9882L13.9882 8.02955C14.0044 8.0132 14.0044 7.9868 13.9882 7.97045L8.02954 2.0118C8.02134 2.00375 8.01074 1.9996 7.99999 1.9996Z" fill="currentColor" style="fill-opacity:1"/>
</svg>
