<svg viewBox="0 0 16 16" fill="none" xmlns="http://www.w3.org/2000/svg">
<path d="M15 10H9V11H15V10Z" fill="currentColor" style="fill-opacity:1"/>
<path d="M15 12H9V13H15V12Z" fill="currentColor" style="fill-opacity:1"/>
<path d="M15 14H9V15H15V14Z" fill="currentColor" style="fill-opacity:1"/>
<path d="M7 9C6.85166 9 6.70666 9.04399 6.58332 9.1264C6.45998 9.20881 6.36385 9.32594 6.30709 9.46299C6.25032 9.60003 6.23547 9.75083 6.26441 9.89632C6.29335 10.0418 6.36478 10.1754 6.46967 10.2803C6.57456 10.3852 6.70819 10.4566 6.85368 10.4856C6.99917 10.5145 7.14997 10.4997 7.28701 10.4429C7.42406 10.3861 7.54119 10.29 7.6236 10.1667C7.70601 10.0433 7.75 9.89833 7.75 9.75C7.75 9.55109 7.67098 9.36032 7.53033 9.21967C7.38968 9.07902 7.19891 9 7 9Z" fill="currentColor" style="fill-opacity:1"/>
<path d="M7.5 3.5H6.5V8H7.5V3.5Z" fill="currentColor" style="fill-opacity:1"/>
<path d="M7 2C8.32563 2.00147 9.59655 2.52872 10.5339 3.46609C11.4713 4.40345 11.9985 5.67437 12 7H13C13 5.81331 12.6481 4.65327 11.9888 3.66658C11.3295 2.67988 10.3925 1.91085 9.2961 1.45672C8.19974 1.00259 6.99334 0.883774 5.82946 1.11529C4.66557 1.3468 3.59647 1.91824 2.75736 2.75736C1.91824 3.59647 1.3468 4.66557 1.11529 5.82946C0.883774 6.99334 1.00259 8.19974 1.45672 9.2961C1.91085 10.3925 2.67988 11.3295 3.66658 11.9888C4.65327 12.6481 5.81331 13 7 13V12C5.67392 12 4.40215 11.4732 3.46446 10.5355C2.52678 9.59785 2 8.32608 2 7C2 5.67392 2.52678 4.40215 3.46446 3.46446C4.40215 2.52678 5.67392 2 7 2Z" fill="currentColor" style="fill-opacity:1"/>
</svg>
