<svg viewBox="0 0 16 16" fill="none" xmlns="http://www.w3.org/2000/svg">
<path id="icon" d="M15.4254 7.72435L11.9433 1.7661C11.8964 1.6853 11.8292 1.6182 11.7483 1.57151C11.6673 1.52482 11.5756 1.50016 11.4821 1.5H4.51785C4.42442 1.50016 4.33267 1.52482 4.25174 1.57151C4.17082 1.6182 4.10355 1.6853 4.05665 1.7661L0.574598 7.72435C0.525751 7.808 0.50001 7.90313 0.50001 8C0.50001 8.09687 0.525751 8.192 0.574598 8.27565L4.05665 14.2339C4.10355 14.3147 4.17082 14.3818 4.25174 14.4285C4.33267 14.4752 4.42442 14.4998 4.51785 14.5H11.4821C11.5756 14.4998 11.6673 14.4752 11.7483 14.4285C11.8292 14.3818 11.8964 14.3147 11.9433 14.2339L15.4254 8.27565C15.4742 8.192 15.5 8.09687 15.5 8C15.5 7.90313 15.4742 7.808 15.4254 7.72435V7.72435ZM7.4375 4H8.5625V9.5H7.4375V4ZM8 12.5C7.85166 12.5 7.70666 12.456 7.58332 12.3736C7.45998 12.2912 7.36385 12.1741 7.30709 12.037C7.25032 11.9 7.23547 11.7492 7.26441 11.6037C7.29335 11.4582 7.36478 11.3246 7.46967 11.2197C7.57456 11.1148 7.70819 11.0433 7.85368 11.0144C7.99917 10.9855 8.14997 11.0003 8.28701 11.0571C8.42405 11.1139 8.54119 11.21 8.6236 11.3333C8.70601 11.4567 8.75 11.6017 8.75 11.75C8.75 11.9489 8.67098 12.1397 8.53033 12.2803C8.38968 12.421 8.19891 12.5 8 12.5V12.5Z" fill="currentColor" style="fill-opacity:1"/>
</svg>
