<svg viewBox="0 0 16 16" fill="none" xmlns="http://www.w3.org/2000/svg">
<path d="M11 15H8.5C7.57206 14.999 6.68242 14.6299 6.02627 13.9737C5.37011 13.3176 5.00103 12.4279 5 11.5C5.01269 10.614 5.37678 9.76926 6.0122 9.15165C5.68602 9.05012 5.34626 8.99898 5.00465 9C2.52125 9.0233 2 12.2756 2 15H1C1 9.24535 3.1726 8.0171 4.99535 8C5.77488 8.01076 6.54132 8.20192 7.2346 8.5585C7.31201 8.59969 7.37723 8.66051 7.42371 8.73486C7.4702 8.80921 7.49631 8.89448 7.49943 8.98212C7.50255 9.06975 7.48257 9.15666 7.44149 9.23413C7.40042 9.3116 7.33969 9.37691 7.2654 9.4235C6.7858 9.68628 6.40844 10.1026 6.19396 10.6057C5.97947 11.1088 5.9403 11.6693 6.08274 12.1973C6.22518 12.7253 6.54096 13.1901 6.97935 13.5171C7.41774 13.844 7.9533 14.0141 8.5 14H11V15Z" fill="currentColor" style="fill-opacity:1"/>
<path d="M9 12V11C9.79113 11 10.5645 10.7654 11.2223 10.3259C11.8801 9.88635 12.3928 9.26164 12.6955 8.53073C12.9983 7.79983 13.0775 6.99556 12.9231 6.21964C12.7688 5.44371 12.3878 4.73098 11.8284 4.17157C11.269 3.61216 10.5563 3.2312 9.78036 3.07686C9.00444 2.92252 8.20017 3.00173 7.46927 3.30448C6.73836 3.60723 6.11365 4.11992 5.67412 4.77772C5.2346 5.43551 5 6.20887 5 7H4C4 6.01109 4.29324 5.04439 4.84265 4.22215C5.39206 3.3999 6.17295 2.75904 7.08658 2.3806C8.00021 2.00216 9.00555 1.90315 9.97545 2.09607C10.9454 2.289 11.8363 2.7652 12.5355 3.46446C13.2348 4.16373 13.711 5.05464 13.9039 6.02455C14.0969 6.99445 13.9978 7.99978 13.6194 8.91341C13.241 9.82705 12.6001 10.6079 11.7779 11.1573C10.9556 11.7068 9.98891 12 9 12Z" fill="currentColor" style="fill-opacity:1"/>
<path d="M9 4.5C9.27614 4.5 9.5 4.27614 9.5 4C9.5 3.72386 9.27614 3.5 9 3.5C8.72386 3.5 8.5 3.72386 8.5 4C8.5 4.27614 8.72386 4.5 9 4.5Z" fill="currentColor" style="fill-opacity:1"/>
<path d="M11.5 8.79295L10.35 7.6426C10.4476 7.44238 10.4989 7.22274 10.5 7C10.4996 6.60231 10.3414 6.22103 10.0602 5.93982C9.77897 5.65861 9.39769 5.50043 9 5.5C8.77718 5.50113 8.55748 5.55254 8.3573 5.6504L7.20705 4.5L6.5 5.20705L7.65 6.3574C7.55238 6.55762 7.50111 6.77725 7.5 7C7.50044 7.39769 7.65861 7.77897 7.93982 8.06018C8.22103 8.34139 8.60231 8.49956 9 8.5C9.22282 8.49887 9.44252 8.44746 9.6427 8.3496L10.7929 9.5L11.5 8.79295ZM8.5 7C8.5 6.90111 8.52932 6.80444 8.58426 6.72221C8.63921 6.63999 8.7173 6.5759 8.80866 6.53806C8.90002 6.50021 9.00056 6.49031 9.09755 6.50961C9.19454 6.5289 9.28363 6.57652 9.35355 6.64644C9.42348 6.71637 9.4711 6.80546 9.49039 6.90245C9.50969 6.99944 9.49978 7.09998 9.46194 7.19134C9.4241 7.2827 9.36001 7.36079 9.27779 7.41573C9.19556 7.47067 9.09889 7.5 9 7.5C8.86743 7.49988 8.74032 7.44716 8.64658 7.35342C8.55284 7.25968 8.50012 7.13257 8.5 7Z" fill="currentColor" style="fill-opacity:1"/>
</svg>
