<svg viewBox="0 0 16 16" fill="none" xmlns="http://www.w3.org/2000/svg">
<path d="M8.5 14.0001V8.50008H9C9.26512 8.49978 9.5193 8.39433 9.70677 8.20686C9.89424 8.01939 9.9997 7.76521 10 7.50008V5.50008C9.9997 5.23496 9.89424 4.98078 9.70677 4.79331C9.5193 4.60584 9.26512 4.50039 9 4.50008H7C6.73488 4.50039 6.4807 4.60584 6.29323 4.79331C6.10576 4.98078 6.0003 5.23496 6 5.50008V7.50008C6.0003 7.76521 6.10576 8.01939 6.29323 8.20686C6.4807 8.39433 6.73488 8.49978 7 8.50008H7.5V14.0001H1V15.0001H15V14.0001H8.5ZM7 5.50008H9L9.00075 7.50008H7V5.50008Z" fill="currentColor" style="fill-opacity:1"/>
<path d="M4.66625 9.10849C4.29933 8.78017 4.0058 8.37813 3.80484 7.92864C3.60388 7.47915 3.50001 6.99233 3.50001 6.49996C3.50001 6.00759 3.60388 5.52077 3.80484 5.07128C4.0058 4.62179 4.29933 4.21975 4.66625 3.89143L5.33325 4.63644C5.07107 4.87093 4.86132 5.15811 4.71771 5.47922C4.57411 5.80032 4.49988 6.14811 4.49988 6.49986C4.49988 6.85161 4.57411 7.1994 4.71771 7.5205C4.86132 7.84161 5.07107 8.12879 5.33325 8.36329L4.66625 9.10849Z" fill="currentColor" style="fill-opacity:1"/>
<path d="M11.3335 9.10849L10.6665 8.36349C10.9287 8.12901 11.1385 7.84183 11.2821 7.52073C11.4258 7.19963 11.5 6.85182 11.5 6.50006C11.5 6.1483 11.4258 5.80049 11.2821 5.47939C11.1385 5.15829 10.9287 4.87111 10.6665 4.63663L11.3335 3.89163C11.7005 4.21993 11.994 4.62195 12.195 5.07144C12.396 5.52093 12.4999 6.00778 12.4999 6.50016C12.4999 6.99254 12.396 7.47939 12.195 7.92888C11.994 8.37837 11.7005 8.7802 11.3335 9.10849Z" fill="currentColor" style="fill-opacity:1"/>
<path d="M3.1997 10.9005C2.51674 10.3881 1.96243 9.7237 1.58066 8.95998C1.19889 8.19626 1.00013 7.35416 1.00013 6.50033C1.00013 5.64651 1.19889 4.80441 1.58066 4.04069C1.96243 3.27697 2.51674 2.61261 3.1997 2.10018L3.8 2.90008C3.24107 3.31929 2.78741 3.86287 2.47495 4.48778C2.1625 5.11269 1.99983 5.80176 1.99983 6.50043C1.99983 7.1991 2.1625 7.88818 2.47495 8.51309C2.78741 9.138 3.24107 9.68158 3.8 10.1008L3.1997 10.9005Z" fill="currentColor" style="fill-opacity:1"/>
<path d="M12.8003 10.9005L12.1997 10.1005C12.7587 9.68128 13.2124 9.13768 13.5248 8.51275C13.8373 7.88782 14 7.19871 14 6.50001C14 5.80131 13.8373 5.1122 13.5248 4.48727C13.2124 3.86234 12.7587 3.31874 12.1997 2.89953L12.8003 2.09953C13.4833 2.61196 14.0376 3.27634 14.4194 4.04008C14.8012 4.80382 15 5.64595 15 6.49981C15 7.35367 14.8012 8.1958 14.4194 8.95954C14.0376 9.72328 13.4833 10.3881 12.8003 10.9005Z" fill="currentColor" style="fill-opacity:1"/>
</svg>
