<svg viewBox="0 0 16 16" fill="none" xmlns="http://www.w3.org/2000/svg">
<path d="M11.2523 5.81835L8.25815 4.06835C8.17845 4.0217 8.0891 3.999 7.99995 4C7.915 4.001 7.83025 4.0237 7.7542 4.06785L4.74835 5.81785C4.59455 5.90745 4.49995 6.072 4.49995 6.25V9.75C4.49995 9.928 4.59455 10.0926 4.74835 10.1822L7.7542 11.9322C7.83195 11.9773 7.913 12 7.99995 12C8.0871 12 8.18015 11.9773 8.25815 11.9317L11.2523 10.1817C11.4058 10.0921 11.5 9.92775 11.5 9.75V6.25C11.5 6.07225 11.4058 5.90795 11.2523 5.81835ZM8.00535 5.07885L10.0091 6.25L8.00535 7.42115L5.99375 6.25L8.00535 5.07885ZM5.5 7.1196L7.5 8.28415V10.6269L5.5 9.46235V7.1196ZM8.5 10.6321V8.29025L10.5 7.1213V9.4631L8.5 10.6321Z" fill="currentColor" style="fill-opacity:1"/>
<path d="M8 0.5C7.91295 0.5 7.82595 0.5227 7.74805 0.5681L1.74805 4.0681C1.5945 4.1577 1.5 4.32215 1.5 4.5V11.5C1.5 11.6778 1.5945 11.8423 1.74805 11.9319L7.74805 15.4319C7.82595 15.4773 7.91295 15.5 8 15.5C8.08705 15.5 8.17405 15.4773 8.25195 15.4319L13.752 12.2236L13.248 11.3598L8 14.4212L2.5 11.2129V4.78725L8 1.57885L13.5 4.78715V8.5H14.5V4.5C14.5 4.32215 14.4055 4.1577 14.252 4.0681L8.25195 0.5681C8.17405 0.5227 8.08705 0.5 8 0.5Z" fill="currentColor" style="fill-opacity:1"/>
</svg>
