<svg viewBox="0 0 16 16" fill="none" xmlns="http://www.w3.org/2000/svg">
<path d="M12 13C12.2753 13.0011 12.5455 12.9264 12.7812 12.7842C13.0168 12.642 13.2088 12.4376 13.336 12.1936C13.4633 11.9495 13.521 11.6751 13.5027 11.4005C13.4844 11.1258 13.391 10.8615 13.2325 10.6364C13.074 10.4114 12.8567 10.2343 12.6043 10.1245C12.3519 10.0147 12.0741 9.97649 11.8014 10.014C11.5287 10.0516 11.2717 10.1634 11.0583 10.3373C10.8449 10.5112 10.6836 10.7405 10.5918 11H6.5V11.5C6.5 11.9945 6.35338 12.4778 6.07867 12.8889C5.80397 13.3 5.41352 13.6205 4.95671 13.8097C4.49989 13.9989 3.99723 14.0484 3.51227 13.952C3.02732 13.8555 2.58186 13.6174 2.23223 13.2678C1.8826 12.9181 1.6445 12.4727 1.54804 11.9877C1.45157 11.5028 1.50108 11.0001 1.6903 10.5433C1.87952 10.0865 2.19995 9.69603 2.61107 9.42133C3.0222 9.14662 3.50555 9 4 9V8C3.32913 8.00005 2.6724 8.1929 2.10802 8.5556C1.54365 8.9183 1.0954 9.43556 0.816658 10.0458C0.537916 10.656 0.440425 11.3335 0.535793 11.9975C0.631161 12.6616 0.915371 13.2843 1.35458 13.7914C1.79379 14.2985 2.36949 14.6687 3.01312 14.8579C3.65676 15.0471 4.34122 15.0474 4.98499 14.8586C5.62876 14.6699 6.20473 14.3001 6.64429 13.7933C7.08386 13.2865 7.36851 12.664 7.46435 12H10.5918C10.6943 12.2918 10.8848 12.5447 11.137 12.7238C11.3892 12.9029 11.6907 12.9994 12 13Z" fill="currentColor" style="fill-opacity:1"/>
<path d="M12 8C11.5602 8.00004 11.1243 8.08269 10.715 8.24365L9.1322 5.4739C9.36791 5.20167 9.49958 4.85475 9.50383 4.49468C9.50809 4.13462 9.38466 3.78468 9.15545 3.50696C8.92625 3.22923 8.60607 3.04168 8.25173 2.97756C7.89739 2.91345 7.53179 2.97693 7.2198 3.15673C6.90781 3.33653 6.66959 3.62103 6.54741 3.95976C6.42523 4.2985 6.42699 4.66956 6.55237 5.00712C6.67775 5.34468 6.91864 5.62692 7.23232 5.80376C7.546 5.9806 7.91218 6.04061 8.2659 5.97315L10.3254 9.5774L10.7597 9.3286C11.1886 9.08358 11.6806 8.97114 12.1734 9.00547C12.6663 9.03981 13.1379 9.21937 13.5288 9.52151C13.9197 9.82364 14.2123 10.2348 14.3697 10.7031C14.5271 11.1714 14.5422 11.6758 14.4132 12.1527C14.2842 12.6296 14.0168 13.0576 13.6448 13.3826C13.2727 13.7077 12.8127 13.9152 12.3228 13.9791C11.8329 14.0429 11.3351 13.9602 10.8922 13.7414C10.4493 13.5225 10.0811 13.1774 9.83415 12.7495L8.9685 13.2505C9.27572 13.7826 9.71759 14.2244 10.2497 14.5316C10.7818 14.8388 11.3854 15.0005 11.9998 15.0005C12.6142 15.0005 13.2178 14.8388 13.7498 14.5316C14.2819 14.2244 14.7238 13.7825 15.031 13.2504C15.3382 12.7183 15.5 12.1148 15.5 11.5004C15.5 10.886 15.3383 10.2824 15.0311 9.75027C14.7239 9.21816 14.2821 8.77629 13.75 8.46905C13.218 8.16182 12.6144 8.00005 12 8Z" fill="currentColor" style="fill-opacity:1"/>
<path d="M4.266 10.0268C3.91436 9.96049 3.55059 10.0207 3.23912 10.1969C2.92766 10.3731 2.68862 10.6539 2.56435 10.9894C2.44007 11.325 2.4386 11.6937 2.56018 12.0303C2.68176 12.3669 2.91855 12.6495 3.22859 12.8282C3.53863 13.0069 3.90191 13.07 4.25407 13.0065C4.60623 12.943 4.92453 12.7568 5.15257 12.481C5.38062 12.2053 5.50369 11.8577 5.49997 11.4999C5.49626 11.142 5.36601 10.7971 5.1323 10.5261C5.87 9.235 6.93 7.38035 6.945 7.354L7.1938 6.9199L6.75995 6.6714C6.33027 6.4259 5.98311 6.05839 5.76245 5.61544C5.5418 5.17248 5.45757 4.674 5.52043 4.18314C5.5833 3.69228 5.79043 3.23111 6.1156 2.85806C6.44076 2.48501 6.86933 2.21685 7.34701 2.08756C7.82469 1.95826 8.33 1.97365 8.79894 2.13176C9.26787 2.28988 9.67933 2.58361 9.9812 2.97575C10.2831 3.36789 10.4618 3.8408 10.4947 4.33458C10.5275 4.82836 10.4131 5.32079 10.166 5.7495L11.0317 6.2505C11.3679 5.66838 11.5294 5.00175 11.4969 4.33029C11.4643 3.65883 11.2391 3.01095 10.8482 2.46408C10.4572 1.9172 9.91705 1.49447 9.29225 1.24641C8.66745 0.998342 7.98443 0.935439 7.32483 1.06521C6.66523 1.19499 6.05695 1.51195 5.57269 1.97822C5.08843 2.4445 4.74868 3.04035 4.59404 3.69457C4.4394 4.34878 4.47642 5.03369 4.70067 5.66743C4.92492 6.30117 5.32691 6.85694 5.8586 7.2683C5.6301 7.63965 5.30755 8.2041 4.82175 9.0547L4.266 10.0268Z" fill="currentColor" style="fill-opacity:1"/>
</svg>
