<svg viewBox="0 0 16 16" fill="none" xmlns="http://www.w3.org/2000/svg">
<path d="M12 13.0001C12.5523 13.0001 13 12.5524 13 12.0001C13 11.4478 12.5523 11.0001 12 11.0001C11.4477 11.0001 11 11.4478 11 12.0001C11 12.5524 11.4477 13.0001 12 13.0001Z" fill="currentColor" style="fill-opacity:1"/>
<path d="M12 15.0001C11.4067 15.0001 10.8266 14.8241 10.3333 14.4945C9.83994 14.1648 9.45542 13.6963 9.22836 13.1481C9.0013 12.5999 8.94189 11.9967 9.05764 11.4148C9.1734 10.8329 9.45912 10.2983 9.87868 9.87875C10.2982 9.45919 10.8328 9.17347 11.4147 9.05772C11.9967 8.94196 12.5999 9.00137 13.1481 9.22843C13.6962 9.4555 14.1648 9.84001 14.4944 10.3334C14.8241 10.8267 15 11.4067 15 12.0001C14.9991 12.7954 14.6827 13.558 14.1203 14.1204C13.5579 14.6828 12.7954 14.9992 12 15.0001ZM12 10.0001C11.6044 10.0001 11.2178 10.1174 10.8889 10.3371C10.56 10.5569 10.3036 10.8693 10.1522 11.2347C10.0009 11.6002 9.96126 12.0023 10.0384 12.3903C10.1156 12.7782 10.3061 13.1346 10.5858 13.4143C10.8655 13.694 11.2219 13.8845 11.6098 13.9616C11.9978 14.0388 12.3999 13.9992 12.7654 13.8478C13.1308 13.6965 13.4432 13.4401 13.6629 13.1112C13.8827 12.7823 14 12.3956 14 12.0001C13.9994 11.4698 13.7885 10.9615 13.4136 10.5865C13.0386 10.2116 12.5303 10.0007 12 10.0001Z" fill="currentColor" style="fill-opacity:1"/>
<path d="M8 14.0001H4V2.00007H8V5.00007C8.00077 5.26505 8.10637 5.51896 8.29374 5.70633C8.48111 5.8937 8.73502 5.99931 9 6.00007H12V7.50007H13V5.00007C13.0018 4.93436 12.9893 4.86903 12.9634 4.80861C12.9375 4.74819 12.8988 4.6941 12.85 4.65007L9.35 1.15007C9.30599 1.10124 9.2519 1.06253 9.19147 1.03664C9.13104 1.01074 9.06572 0.998264 9 1.00007H4C3.73502 1.00084 3.48111 1.10644 3.29374 1.29381C3.10637 1.48118 3.00077 1.73509 3 2.00007V14.0001C3.00077 14.2651 3.10637 14.519 3.29374 14.7063C3.48111 14.8937 3.73502 14.9993 4 15.0001H8V14.0001ZM9 2.20007L11.8 5.00007H9V2.20007Z" fill="currentColor" style="fill-opacity:1"/>
</svg>
