<svg viewBox="0 0 16 16" fill="none" xmlns="http://www.w3.org/2000/svg">
<path d="M3 14.9999H13C13.2652 14.9999 13.5196 14.8945 13.7071 14.707C13.8946 14.5195 14 14.2651 14 13.9999V10.9999C14 10.7347 13.8946 10.4803 13.7071 10.2928C13.5196 10.1052 13.2652 9.99989 13 9.99989H3C2.73478 9.99989 2.48043 10.1052 2.29289 10.2928C2.10536 10.4803 2 10.7347 2 10.9999V13.9999C2 14.2651 2.10536 14.5195 2.29289 14.707C2.48043 14.8945 2.73478 14.9999 3 14.9999ZM3 10.9999H13V13.9999H3V10.9999Z" fill="currentColor" style="fill-opacity:1"/>
<path d="M4.5 12.9999C4.77614 12.9999 5 12.776 5 12.4999C5 12.2237 4.77614 11.9999 4.5 11.9999C4.22386 11.9999 4 12.2237 4 12.4999C4 12.776 4.22386 12.9999 4.5 12.9999Z" fill="currentColor" style="fill-opacity:1"/>
<path d="M8 7.99989C8.41421 7.99989 8.75 7.6641 8.75 7.24989C8.75 6.83568 8.41421 6.49989 8 6.49989C7.58579 6.49989 7.25 6.83568 7.25 7.24989C7.25 7.6641 7.58579 7.99989 8 7.99989Z" fill="currentColor" style="fill-opacity:1"/>
<path d="M5.3916 5.16614C5.71992 4.79922 6.12196 4.50569 6.57144 4.30473C7.02093 4.10377 7.50776 3.99989 8.00012 3.99989C8.49249 3.99989 8.97932 4.10377 9.42881 4.30473C9.87829 4.50569 10.2803 4.79922 10.6087 5.16614L9.86365 5.83314C9.62916 5.57095 9.34197 5.36121 9.02087 5.2176C8.69977 5.07399 8.35198 4.99977 8.00023 4.99977C7.64847 4.99977 7.30068 5.07399 6.97958 5.2176C6.65848 5.36121 6.37129 5.57095 6.1368 5.83314L5.3916 5.16614Z" fill="currentColor" style="fill-opacity:1"/>
<path d="M3.5996 3.69959C4.11202 3.01662 4.77639 2.46232 5.5401 2.08055C6.30382 1.69877 7.14593 1.50002 7.99975 1.50002C8.85357 1.50002 9.69568 1.69877 10.4594 2.08055C11.2231 2.46232 11.8875 3.01662 12.3999 3.69959L11.6 4.29989C11.1808 3.74097 10.6372 3.28733 10.0123 2.9749C9.38734 2.66247 8.69826 2.49982 7.99959 2.49985C7.30092 2.49987 6.61185 2.66256 5.98695 2.97504C5.36205 3.28751 4.81848 3.74119 4.3993 4.30014L3.5996 3.69959Z" fill="currentColor" style="fill-opacity:1"/>
</svg>
