<svg viewBox="0 0 16 16" fill="none" xmlns="http://www.w3.org/2000/svg">
<path d="M8 13.5C8.55228 13.5 9 13.0522 9 12.5C9 11.9477 8.55228 11.5 8 11.5C7.44772 11.5 7 11.9477 7 12.5C7 13.0522 7.44772 13.5 8 13.5Z" fill="currentColor" style="fill-opacity:1"/>
<path d="M5.235 9.61666L5.9418 10.3232C6.49588 9.79554 7.23146 9.50083 7.9966 9.49996C8.76174 9.4991 9.49798 9.79214 10.0533 10.3186L10.76 9.61176C10.0174 8.89755 9.02682 8.49902 7.99649 8.49996C6.96616 8.50089 5.97632 8.9011 5.235 9.61666Z" fill="currentColor" style="fill-opacity:1"/>
<path d="M3.1145 7.49631L3.8213 8.20306C4.93727 7.11209 6.43566 6.50083 7.99631 6.49989C9.55695 6.49896 11.0561 7.10842 12.1734 8.19806L12.88 7.49141C11.5754 6.21404 9.82198 5.49908 7.99615 5.50002C6.17033 5.50095 4.41779 6.2176 3.1145 7.49631Z" fill="currentColor" style="fill-opacity:1"/>
<path d="M15 5.37056C13.1345 3.53113 10.6199 2.49992 8 2.49992C5.38013 2.49992 2.86554 3.53113 1 5.37056V5.38181L1.70215 6.08396C3.37928 4.42918 5.64033 3.50097 7.9964 3.50003C10.3525 3.4991 12.6143 4.42551 14.2927 6.07896L15 5.37156V5.37056Z" fill="currentColor" style="fill-opacity:1"/>
</svg>
