<svg viewBox="0 0 16 16" fill="none" xmlns="http://www.w3.org/2000/svg">
<path d="M9.99999 9.99997H6.99999V8.49997C6.99999 8.23476 7.10535 7.9804 7.29289 7.79287C7.48042 7.60533 7.73478 7.49997 7.99999 7.49997C8.26521 7.49997 8.51956 7.60533 8.7071 7.79287C8.89464 7.9804 8.99999 8.23476 8.99999 8.49997H9.99999C9.99999 7.96954 9.78928 7.46083 9.41421 7.08576C9.03913 6.71069 8.53043 6.49997 7.99999 6.49997C7.46956 6.49997 6.96085 6.71069 6.58578 7.08576C6.21071 7.46083 5.99999 7.96954 5.99999 8.49997V9.99997C5.73488 10.0003 5.48072 10.1058 5.29325 10.2932C5.10579 10.4807 5.00033 10.7349 4.99999 11V14C5.00033 14.2651 5.10579 14.5192 5.29325 14.7067C5.48072 14.8942 5.73488 14.9996 5.99999 15H9.99999C10.2651 14.9996 10.5193 14.8942 10.7067 14.7067C10.8942 14.5192 10.9997 14.2651 11 14V11C10.9997 10.7349 10.8942 10.4807 10.7067 10.2932C10.5193 10.1058 10.2651 10.0003 9.99999 9.99997ZM9.99999 14H5.99999V11H9.99999V14Z" fill="currentColor" style="fill-opacity:1"/>
<path d="M7.99999 3.99997C7.40908 3.9996 6.82392 4.11598 6.27813 4.34244C5.73233 4.5689 5.23666 4.90097 4.81959 5.31957L5.52624 6.02632C5.85083 5.70098 6.2364 5.44286 6.66089 5.26675C7.08537 5.09063 7.54043 4.99998 7.99999 4.99998C8.45956 4.99998 8.91462 5.09063 9.3391 5.26675C9.76358 5.44286 10.1492 5.70098 10.4737 6.02632L11.1805 5.31957C10.7634 4.90097 10.2677 4.56891 9.7219 4.34245C9.17609 4.11599 8.59092 3.9996 7.99999 3.99997Z" fill="currentColor" style="fill-opacity:1"/>
<path d="M3.05249 3.55247L3.75939 4.25927C4.31583 3.70159 4.9768 3.25914 5.70446 2.95725C6.43213 2.65537 7.21219 2.49997 7.99999 2.49997C8.7878 2.49997 9.56786 2.65537 10.2955 2.95725C11.0232 3.25914 11.6842 3.70159 12.2406 4.25927L12.9474 3.55247C12.2982 2.90184 11.5271 2.38564 10.6781 2.03344C9.82916 1.68124 8.91907 1.49995 7.99994 1.49995C7.08082 1.49995 6.17073 1.68124 5.32176 2.03344C4.4728 2.38564 3.70169 2.90184 3.05249 3.55247Z" fill="currentColor" style="fill-opacity:1"/>
</svg>
