<svg viewBox="0 0 32 32" fill="none" xmlns="http://www.w3.org/2000/svg">
<path id="icon" d="M30 30.36H8C7.801 30.36 7.64 30.199 7.64 30V19.36H2C1.801 19.36 1.64 19.199 1.64 19V2C1.64 1.801 1.801 1.64 2 1.64H24C24.199 1.64 24.36 1.801 24.36 2V12.64H30C30.199 12.64 30.36 12.801 30.36 13V30C30.36 30.199 30.199 30.36 30 30.36ZM8.36 29.64H29.64V13.36H24.36V17.689C24.935 17.847 25.36 18.376 25.36 19.001C25.36 19.751 24.75 20.361 24 20.361C23.25 20.361 22.64 19.751 22.64 19.001C22.64 18.376 23.065 17.848 23.64 17.689V13.36H12V12.64H23.64V2.36H2.36V18.64H7.64V14.312C7.064 14.154 6.64 13.626 6.64 13C6.64 12.25 7.25 11.64 8 11.64C8.75 11.64 9.36 12.25 9.36 13C9.36 13.625 8.936 14.153 8.36 14.312V18.64H20V19.361H8.36V29.64ZM24 18.36C23.647 18.36 23.36 18.647 23.36 19C23.36 19.353 23.647 19.64 24 19.64C24.353 19.64 24.64 19.353 24.64 19C24.64 18.647 24.353 18.36 24 18.36ZM8 12.36C7.647 12.36 7.36 12.647 7.36 13C7.36 13.353 7.647 13.64 8 13.64C8.353 13.64 8.64 13.353 8.64 13C8.64 12.647 8.353 12.36 8 12.36Z" fill="currentColor" style="fill-opacity:1"/>
</svg>
