<svg viewBox="0 0 16 16" fill="none" xmlns="http://www.w3.org/2000/svg">
<path d="M14.6582 4.02562L5.6582 1.02562C5.5815 1.00005 5.49975 0.993455 5.41995 1.0064C5.34015 1.01935 5.26467 1.05146 5.2 1.09997L2 3.49997V0.999974H1V15H2V5.49997L5.2 7.89997C5.26467 7.94851 5.34015 7.98064 5.41996 7.99361C5.49977 8.00658 5.58154 7.99999 5.65825 7.97442L14.6582 4.97442C14.7578 4.94124 14.8444 4.87757 14.9058 4.79244C14.9671 4.70731 15.0002 4.60502 15.0002 4.50007C15.0002 4.39513 14.9671 4.29284 14.9058 4.20771C14.8444 4.12257 14.7578 4.05881 14.6582 4.02562ZM5 6.49997L2.33325 4.49997L5 2.49997V6.49997ZM7 6.47287L6 6.80637V2.19357L7 2.52707V6.47287ZM9 5.80637L8 6.13962V2.86032L9 3.19357V5.80637ZM10 5.47287V3.52707L12.919 4.49997L10 5.47287Z" fill="currentColor" style="fill-opacity:1"/>
<path d="M10 11C10 10.4695 9.78929 9.96083 9.41421 9.58576C9.03914 9.21069 8.53043 8.99997 8 8.99997C7.46957 8.99997 6.96086 9.21069 6.58579 9.58576C6.21071 9.96083 6 10.4695 6 11H7C7 10.8022 7.05865 10.6089 7.16853 10.4444C7.27841 10.28 7.43459 10.1518 7.61732 10.0761C7.80004 10.0004 8.00111 9.9806 8.19509 10.0192C8.38907 10.0578 8.56725 10.153 8.70711 10.2929C8.84696 10.4327 8.9422 10.6109 8.98079 10.8049C9.01937 10.9989 8.99957 11.1999 8.92388 11.3827C8.84819 11.5654 8.72002 11.7216 8.55557 11.8314C8.39112 11.9413 8.19778 12 8 12H4V13H8C8.53025 12.9994 9.03861 12.7885 9.41356 12.4135C9.7885 12.0386 9.9994 11.5302 10 11Z" fill="currentColor" style="fill-opacity:1"/>
<path d="M13 11C12.4697 11.0006 11.9614 11.2115 11.5864 11.5864C11.2115 11.9614 11.0006 12.4697 11 13H12C12 12.8022 12.0586 12.6089 12.1685 12.4444C12.2784 12.28 12.4346 12.1518 12.6173 12.0761C12.8 12.0004 13.0011 11.9806 13.1951 12.0192C13.3891 12.0578 13.5673 12.153 13.7071 12.2929C13.847 12.4327 13.9422 12.6109 13.9808 12.8049C14.0194 12.9989 13.9996 13.1999 13.9239 13.3827C13.8482 13.5654 13.72 13.7216 13.5556 13.8314C13.3911 13.9413 13.1978 14 13 14H6V15H13C13.5304 15 14.0391 14.7893 14.4142 14.4142C14.7893 14.0391 15 13.5304 15 13C15 12.4695 14.7893 11.9608 14.4142 11.5858C14.0391 11.2107 13.5304 11 13 11Z" fill="currentColor" style="fill-opacity:1"/>
</svg>
