<svg viewBox="0 0 16 16" fill="none" xmlns="http://www.w3.org/2000/svg">
<path d="M10.842 9.52552L9.5835 9.94552L6.5 7.74302V3.68452L7.7775 2.83252L7.2225 2.00052L6 2.81552L4.7775 2.00052L4.2225 2.83252L5.5 3.68452V7.02852L3 5.24302V4.00002H2V5.13952L0.841997 5.52552L1.158 6.47452L2.4165 6.05502L5.14 8.00052L2.4165 9.94552L1.158 9.52552L0.841997 10.4745L2 10.8605V12H3V10.7575L5.5 8.97202V12.3155L4.2225 13.1675L4.7775 13.9995L6 13.184L7.2225 13.9995L7.7775 13.1675L6.5 12.3155V8.97152L9 10.7575V12H10V10.8605L11.158 10.4745L10.842 9.52552Z" fill="currentColor" style="fill-opacity:1"/>
<path d="M14.9557 6.96777L11.8142 1.18532C11.7832 1.12918 11.7376 1.08239 11.6824 1.04981C11.6271 1.01722 11.5641 1.00004 11.5 1.00004C11.4358 1.00004 11.3729 1.01722 11.3176 1.04981C11.2624 1.08239 11.2168 1.12918 11.1858 1.18532L8.04425 6.96777C8.01439 7.02257 7.99928 7.08419 8.00042 7.14659C8.00156 7.20899 8.01891 7.27002 8.05075 7.32369C8.08259 7.37737 8.12784 7.42184 8.18205 7.45276C8.23627 7.48367 8.29759 7.49995 8.36 7.50002H14.64C14.7024 7.49995 14.7637 7.48367 14.8179 7.45276C14.8722 7.42184 14.9174 7.37737 14.9492 7.32369C14.9811 7.27002 14.9984 7.20899 14.9996 7.14659C15.0007 7.08419 14.9856 7.02257 14.9557 6.96777ZM11.125 3.00002H11.875V5.00002H11.125V3.00002ZM11.5 6.50002C11.4011 6.50002 11.3044 6.47069 11.2222 6.41575C11.14 6.36081 11.0759 6.28272 11.0381 6.19136C11.0002 6.1 10.9903 5.99946 11.0096 5.90247C11.0289 5.80548 11.0765 5.71639 11.1464 5.64646C11.2164 5.57654 11.3055 5.52892 11.4025 5.50962C11.4994 5.49033 11.6 5.50023 11.6913 5.53808C11.7827 5.57592 11.8608 5.64001 11.9157 5.72223C11.9707 5.80446 12 5.90113 12 6.00002C12 6.13263 11.9473 6.2598 11.8536 6.35357C11.7598 6.44734 11.6326 6.50002 11.5 6.50002Z" fill="currentColor" style="fill-opacity:1"/>
</svg>
