<svg viewBox="0 0 16 16" fill="none" xmlns="http://www.w3.org/2000/svg">
<path d="M8.5 12.9999H7.5V13.9999H8.5V12.9999Z" fill="currentColor" style="fill-opacity:1"/>
<path d="M9.5 13.9999H8.5V14.9999H9.5V13.9999Z" fill="currentColor" style="fill-opacity:1"/>
<path d="M10.5 14.9999H9.5V15.9999H10.5V14.9999Z" fill="currentColor" style="fill-opacity:1"/>
<path d="M10.5 12.9999H9.5V13.9999H10.5V12.9999Z" fill="currentColor" style="fill-opacity:1"/>
<path d="M8.5 14.9999H7.5V15.9999H8.5V14.9999Z" fill="currentColor" style="fill-opacity:1"/>
<path d="M7.5 7.99995H6.5V8.99995H7.5V7.99995Z" fill="currentColor" style="fill-opacity:1"/>
<path d="M8.5 8.99995H7.5V9.99995H8.5V8.99995Z" fill="currentColor" style="fill-opacity:1"/>
<path d="M9.5 9.99995H8.5V10.9999H9.5V9.99995Z" fill="currentColor" style="fill-opacity:1"/>
<path d="M9.5 7.99995H8.5V8.99995H9.5V7.99995Z" fill="currentColor" style="fill-opacity:1"/>
<path d="M7.5 9.99995H6.5V10.9999H7.5V9.99995Z" fill="currentColor" style="fill-opacity:1"/>
<path d="M5 14.9999C4.91476 15 4.83093 14.9782 4.75648 14.9367C4.68203 14.8951 4.61943 14.8353 4.57462 14.7628C4.52981 14.6903 4.50429 14.6075 4.50047 14.5224C4.49665 14.4372 4.51466 14.3525 4.5528 14.2762L5.5528 12.276C5.61212 12.1574 5.71613 12.0672 5.84194 12.0253C5.90424 12.0045 5.97002 11.9963 6.03551 12.0009C6.10101 12.0056 6.16495 12.0231 6.22367 12.0525C6.2824 12.0818 6.33477 12.1225 6.37778 12.1721C6.4208 12.2217 6.45362 12.2793 6.47438 12.3416C6.49514 12.4039 6.50342 12.4697 6.49876 12.5352C6.49409 12.6007 6.47657 12.6646 6.4472 12.7233L5.4472 14.7233C5.40579 14.8065 5.34199 14.8765 5.26298 14.9253C5.18398 14.9742 5.0929 15 5 14.9999Z" fill="currentColor" style="fill-opacity:1"/>
<path d="M12.4004 4.56805C12.1873 3.5589 11.6339 2.65366 10.8328 2.00404C10.0317 1.35442 9.03164 0.999897 8.00025 0.999897C6.96886 0.999897 5.96881 1.35442 5.16771 2.00404C4.36662 2.65366 3.81316 3.5589 3.6001 4.56805C2.86789 4.72054 2.21021 5.11972 1.73696 5.69886C1.2637 6.27801 1.00356 7.00204 1 7.74995V10.9999L1.5 11.9999L2 10.9999V10.0899C2.47153 10.5437 3.06925 10.8443 3.7147 10.9522L3.053 12.2763C3.02242 12.3351 3.00385 12.3995 2.99837 12.4656C2.99289 12.5316 3.00061 12.5982 3.02109 12.6612C3.04156 12.7243 3.07437 12.7827 3.11762 12.8329C3.16087 12.8832 3.21368 12.9244 3.27299 12.954C3.33229 12.9837 3.39691 13.0013 3.46307 13.0057C3.52923 13.0102 3.59562 13.0014 3.65837 12.98C3.72112 12.9586 3.77897 12.9248 3.82857 12.8808C3.87816 12.8368 3.91851 12.7834 3.94725 12.7236L4.94725 10.7236C4.97663 10.6649 4.99416 10.6009 4.99882 10.5354C5.00349 10.4699 4.99521 10.4042 4.97446 10.3419C4.95371 10.2796 4.92088 10.222 4.87787 10.1723C4.83485 10.1227 4.78248 10.0821 4.72375 10.0527C4.64747 10.017 4.56324 10.0016 4.47925 10.008V9.99995H4.25C3.66889 10.0001 3.11028 9.77535 2.69125 9.37273C2.27222 8.97012 2.02532 8.42092 2.00231 7.84027C1.97929 7.25962 2.18195 6.6926 2.56779 6.25808C2.95363 5.82355 3.4927 5.55526 4.072 5.50945L4.47975 5.4775L4.5293 5.0715C4.63312 4.22404 5.0434 3.44384 5.68278 2.87801C6.32216 2.31218 7.14645 1.99982 8.00025 1.99982C8.85405 1.99982 9.67834 2.31218 10.3177 2.87801C10.9571 3.44384 11.3674 4.22404 11.4712 5.0715L11.5205 5.4775L11.9282 5.50945C12.5075 5.55526 13.0466 5.82357 13.4324 6.25811C13.8183 6.69266 14.0209 7.2597 13.9979 7.84037C13.9748 8.42103 13.7279 8.97024 13.3088 9.37284C12.8898 9.77544 12.3311 10.0002 11.75 9.99995H11.479V10.0041C11.3506 10.0089 11.229 10.0632 11.1398 10.1557C11.0505 10.2481 11.0004 10.3715 11 10.4999V11.9999L11.5 12.9999L12 11.9999V10.9872C12.3439 10.9619 12.6815 10.8815 13 10.7492V12.9999L13.5 13.9999L14 12.9999V10.0899C14.4278 9.68021 14.7353 9.16114 14.889 8.58904C15.0427 8.01695 15.0369 7.41369 14.872 6.8447C14.7072 6.27571 14.3897 5.76271 13.954 5.36137C13.5183 4.96003 12.981 4.68567 12.4004 4.56805Z" fill="currentColor" style="fill-opacity:1"/>
</svg>
