<svg viewBox="0 0 16 16" fill="none" xmlns="http://www.w3.org/2000/svg">
<path d="M13.5 9C13.404 9.00002 13.31 8.97235 13.2293 8.9203L11 7.4844L8.77076 8.9203C8.68604 8.97489 8.58681 9.00261 8.48607 8.99983C8.38533 8.99704 8.28778 8.96387 8.20622 8.90468C8.12466 8.84548 8.06289 8.76303 8.029 8.66811C7.99512 8.5732 7.99071 8.47026 8.01636 8.3728L8.69136 5.8069L7.15526 4.345C7.08716 4.28017 7.03873 4.19746 7.01551 4.10636C6.99229 4.01526 6.99522 3.91945 7.02398 3.82994C7.05273 3.74043 7.10614 3.66084 7.17807 3.6003C7.25001 3.53977 7.33755 3.50074 7.43066 3.4877L9.61791 3.1813L10.5511 1.2797C10.5918 1.19672 10.6548 1.12665 10.733 1.07728C10.8111 1.02791 10.9015 1.00116 10.9939 0.999999C11.0862 0.999835 11.1767 1.02477 11.2559 1.07214C11.3351 1.11951 11.3999 1.18752 11.4434 1.2689L12.44 3.18125L14.5711 3.4879C14.664 3.5012 14.7514 3.54041 14.8231 3.60102C14.8948 3.66164 14.948 3.74122 14.9765 3.83065C15.0051 3.92009 15.0079 4.01576 14.9847 4.10672C14.9614 4.19769 14.913 4.28026 14.845 4.345L13.3089 5.80695L13.9839 8.37285C14.0033 8.44685 14.0055 8.52434 13.9903 8.59933C13.9751 8.67433 13.9429 8.74483 13.8962 8.80542C13.8494 8.86601 13.7894 8.91505 13.7207 8.94879C13.652 8.98252 13.5765 9.00004 13.5 9ZM11 6.38965C11.096 6.38964 11.19 6.41731 11.2708 6.46935L12.6892 7.38295L12.2664 5.7755C12.2436 5.68896 12.2445 5.59792 12.269 5.51185C12.2934 5.42579 12.3405 5.34785 12.4053 5.28615L13.409 4.33115L12.044 4.1347C11.9655 4.12341 11.8908 4.09361 11.8261 4.04774C11.7614 4.00188 11.7085 3.94128 11.6719 3.87095L11.0135 2.60755L10.399 3.86C10.3629 3.93335 10.3095 3.99677 10.2433 4.04471C10.1771 4.09264 10.1002 4.12365 10.0193 4.135L8.59501 4.33435L9.59501 5.28615C9.6598 5.34785 9.70686 5.42579 9.73129 5.51185C9.75572 5.59792 9.75662 5.68896 9.73391 5.7755L9.31106 7.38295L10.7295 6.46935C10.8101 6.41735 10.9041 6.38968 11 6.38965Z" fill="currentColor" style="fill-opacity:1"/>
<path d="M7.90846 15C6.3796 15.0003 4.89384 14.4934 3.68403 13.5587C2.47422 12.6239 1.60874 11.3142 1.22323 9.83475C0.837721 8.3553 0.953975 6.78975 1.55377 5.38347C2.15357 3.97719 3.203 2.80965 4.53761 2.06385C4.63266 2.01058 4.74252 1.98982 4.85046 2.00473C4.9584 2.01964 5.05851 2.0694 5.13557 2.14645C5.21263 2.22349 5.2624 2.3236 5.27733 2.43154C5.29226 2.53948 5.27151 2.64934 5.21826 2.7444C4.58928 3.86696 4.34423 5.16426 4.52039 6.43891C4.69655 7.71355 5.28427 8.89576 6.19413 9.80565C7.104 10.7155 8.28619 11.3033 9.56083 11.4795C10.8355 11.6557 12.1328 11.4107 13.2554 10.7817C13.3504 10.7284 13.4603 10.7075 13.5683 10.7223C13.6764 10.7372 13.7766 10.7869 13.8537 10.864C13.9308 10.9411 13.9806 11.0413 13.9955 11.1493C14.0104 11.2573 13.9896 11.3672 13.9363 11.4623C13.3359 12.5339 12.4611 13.4263 11.4018 14.048C10.3425 14.6697 9.13675 14.9983 7.90846 15ZM3.66356 3.98635C2.58345 5.09921 1.98449 6.5923 1.99607 8.14309C2.00765 9.69388 2.62884 11.1779 3.72544 12.2745C4.82204 13.3711 6.30603 13.9923 7.85682 14.0038C9.4076 14.0154 10.9007 13.4165 12.0136 12.3363C10.8607 12.6191 9.65444 12.5998 8.51122 12.2803C7.368 11.9609 6.32644 11.3521 5.4871 10.5128C4.64776 9.67346 4.03899 8.6319 3.71957 7.48868C3.40014 6.34546 3.38085 5.1392 3.66356 3.98635Z" fill="currentColor" style="fill-opacity:1"/>
</svg>
