<svg viewBox="0 0 16 16" fill="none" xmlns="http://www.w3.org/2000/svg">
<path d="M13.2929 8.49998L11 10.7929L8.5 8.29293C8.31233 8.10561 8.05801 8.00041 7.79285 8.00041C7.52769 8.00041 7.27337 8.10561 7.0857 8.29293L4.7925 10.5854C4.60524 10.7732 4.50008 11.0275 4.50008 11.2927C4.50008 11.5579 4.60524 11.8122 4.7925 12L6.79295 14H3V15H8C8.09888 15 8.19552 14.9706 8.27773 14.9157C8.35993 14.8607 8.424 14.7827 8.46184 14.6913C8.49967 14.6 8.50958 14.4994 8.49029 14.4025C8.47101 14.3055 8.42341 14.2164 8.3535 14.1465L5.5 11.2925L7.7926 8.99998L10.6465 11.8535C10.6929 11.8999 10.748 11.9368 10.8087 11.9619C10.8693 11.987 10.9343 12 11 12C11.0657 12 11.1307 11.987 11.1913 11.9619C11.252 11.9368 11.3071 11.8999 11.3535 11.8535L14 9.20703L13.2929 8.49998Z" fill="currentColor" style="fill-opacity:1"/>
<path d="M10.75 8.49998C10.4039 8.49998 10.0655 8.39734 9.77775 8.20505C9.48997 8.01276 9.26566 7.73945 9.13321 7.41967C9.00076 7.0999 8.9661 6.74804 9.03363 6.40857C9.10115 6.0691 9.26782 5.75728 9.51256 5.51254C9.7573 5.2678 10.0691 5.10113 10.4086 5.0336C10.7481 4.96608 11.0999 5.00074 11.4197 5.13319C11.7395 5.26564 12.0128 5.48994 12.2051 5.77773C12.3974 6.06552 12.5 6.40386 12.5 6.74998C12.4994 7.21394 12.3149 7.65873 11.9868 7.9868C11.6588 8.31487 11.214 8.49942 10.75 8.49998ZM10.75 5.99998C10.6017 5.99998 10.4567 6.04397 10.3333 6.12638C10.21 6.20879 10.1139 6.32592 10.0571 6.46297C10.0003 6.60001 9.98547 6.75081 10.0144 6.8963C10.0433 7.04178 10.1148 7.17542 10.2197 7.28031C10.3246 7.3852 10.4582 7.45663 10.6037 7.48557C10.7492 7.51451 10.9 7.49965 11.037 7.44289C11.1741 7.38612 11.2912 7.28999 11.3736 7.16666C11.456 7.04332 11.5 6.89831 11.5 6.74998C11.4998 6.55114 11.4207 6.3605 11.2801 6.2199C11.1395 6.07929 10.9488 6.0002 10.75 5.99998Z" fill="currentColor" style="fill-opacity:1"/>
<path d="M2 5.29883L8 2.06783L14.2632 5.44043L14.7368 4.55953L8.2368 1.05953C8.16395 1.02058 8.08261 1.0002 8 1.0002C7.91739 1.0002 7.83605 1.02058 7.7632 1.05953L1.2632 4.55953C1.18363 4.60232 1.11714 4.66586 1.07079 4.74342C1.02445 4.82097 0.999986 4.90963 1 4.99998V15H2V5.29883Z" fill="currentColor" style="fill-opacity:1"/>
</svg>
