<svg viewBox="0 0 16 16" fill="none" xmlns="http://www.w3.org/2000/svg">
<path id="icon" d="M12.1455 7.99996L13.938 4.74091C13.9799 4.66479 14.0012 4.57907 13.9998 4.4922C13.9985 4.40533 13.9745 4.32031 13.9303 4.24553C13.8861 4.17074 13.8232 4.10876 13.7477 4.0657C13.6722 4.02264 13.5869 3.99998 13.5 3.99996H9.94554L8.43799 1.25901C8.39483 1.18062 8.33142 1.11524 8.25437 1.06972C8.17733 1.02419 8.08948 1.00017 7.99999 1.00017C7.9105 1.00017 7.82265 1.02419 7.74561 1.06972C7.66856 1.11524 7.60515 1.18062 7.56199 1.25901L6.05444 3.99996H2.49999C2.41311 3.99998 2.32774 4.02264 2.25228 4.0657C2.17683 4.10876 2.11389 4.17074 2.06968 4.24553C2.02547 4.32031 2.00151 4.40533 2.00016 4.4922C1.99882 4.57907 2.02012 4.66479 2.06199 4.74091L3.85449 7.99996L2.06199 11.259C2.02012 11.3351 1.99882 11.4209 2.00016 11.5077C2.00151 11.5946 2.02547 11.6796 2.06968 11.7544C2.11389 11.8292 2.17683 11.8912 2.25228 11.9342C2.32774 11.9773 2.41311 11.9999 2.49999 12H6.05444L7.56199 14.7409C7.60515 14.8193 7.66856 14.8847 7.74561 14.9302C7.82265 14.9757 7.9105 14.9998 7.99999 14.9998C8.08948 14.9998 8.17733 14.9757 8.25437 14.9302C8.33142 14.8847 8.39483 14.8193 8.43799 14.7409L9.94554 12H13.5C13.5869 11.9999 13.6722 11.9773 13.7477 11.9342C13.8232 11.8912 13.8861 11.8292 13.9303 11.7544C13.9745 11.6796 13.9985 11.5946 13.9998 11.5077C14.0012 11.4209 13.9799 11.3351 13.938 11.259L12.1455 7.99996ZM9.35434 11L7.99999 13.4624L6.64564 11H3.34564L4.99564 7.99996L3.34564 4.99996H6.64564L7.99999 2.53756L9.35434 4.99996H12.6543L11.0043 7.99996L12.6543 11H9.35434Z" fill="currentColor" style="fill-opacity:1"/>
</svg>
