<svg viewBox="0 0 16 16" fill="none" xmlns="http://www.w3.org/2000/svg">
<path d="M13.5 1.5H9.5C8.9486 1.5 8.5 1.94875 8.5 2.5V13.5C8.5 14.0512 8.9486 14.5 9.5 14.5H13.5C14.0514 14.5 14.5 14.0512 14.5 13.5V2.5C14.5 1.94875 14.0514 1.5 13.5 1.5ZM13.5001 4.9597L10.4254 2.5H13.5L13.5001 4.9597ZM13.1995 6L9.49995 8.9597V3.0403L13.1995 6ZM13.5002 7.04005L13.5006 12.9602L9.80035 10L13.5002 7.04005ZM9.49995 11.0403L12.5745 13.5H9.49995V11.0403Z" fill="currentColor" style="fill-opacity:1"/>
<path d="M6.5 1.5H2.5C1.9486 1.5 1.5 1.94875 1.5 2.5V13.5C1.5 14.0512 1.9486 14.5 2.5 14.5H6.5C7.0514 14.5 7.5 14.0512 7.5 13.5V2.5C7.5 1.94875 7.0514 1.5 6.5 1.5ZM6.5001 4.9597L3.4254 2.5H6.5L6.5001 4.9597ZM6.19955 6L2.49995 8.9597V3.0403L6.19955 6ZM6.5002 7.04005L6.50055 12.9602L2.80035 10L6.5002 7.04005ZM2.5 11.0403L5.5746 13.5H2.5V11.0403Z" fill="currentColor" style="fill-opacity:1"/>
</svg>
