<svg viewBox="0 0 16 16" fill="none" xmlns="http://www.w3.org/2000/svg">
<path id="icon" d="M11.2239 10.5C12.0489 9.52043 12.5009 8.28068 12.5 7C12.5009 5.89816 12.1706 4.82148 11.552 3.90974C10.9333 2.998 10.0548 2.29331 9.03052 1.88715C8.00627 1.481 6.88358 1.39215 5.80819 1.63212C4.7328 1.8721 3.75439 2.42983 2.99999 3.2329V1H1.99999V5H5.99999V4H3.66599C4.34048 3.25457 5.24568 2.75716 6.23654 2.58747C7.2274 2.41778 8.24653 2.58564 9.13063 3.06415C10.0147 3.54265 10.7126 4.30411 11.1124 5.22647C11.5122 6.14884 11.5907 7.17872 11.3355 8.15106C11.0803 9.1234 10.506 9.9819 9.70471 10.589C8.90344 11.1961 7.92156 11.5166 6.91643 11.4992C5.9113 11.4818 4.94111 11.1274 4.16135 10.493C3.38158 9.85848 2.83739 8.9806 2.61599 8H1.59559C1.83021 9.26262 2.49882 10.4035 3.48573 11.2253C4.47263 12.047 5.71575 12.4979 6.99999 12.5C8.28067 12.5009 9.52042 12.0489 10.5 11.2239L14.2929 15L15 14.2929L11.2239 10.5Z" fill="currentColor" style="fill-opacity:1"/>
</svg>
