<svg viewBox="0 0 16 16" fill="none" xmlns="http://www.w3.org/2000/svg">
<path d="M10.7239 10C11.5489 9.0204 12.0009 7.78067 12 6.5C12 5.4122 11.6774 4.34883 11.0731 3.44436C10.4687 2.53989 9.60975 1.83494 8.60476 1.41866C7.59976 1.00238 6.4939 0.89346 5.427 1.10568C4.36011 1.3179 3.3801 1.84172 2.61091 2.61091C1.84172 3.3801 1.3179 4.36011 1.10568 5.427C0.89346 6.4939 1.00238 7.59976 1.41866 8.60476C1.83494 9.60975 2.53989 10.4687 3.44436 11.0731C4.34883 11.6774 5.4122 12 6.5 12C7.78067 12.0009 9.0204 11.5489 10 10.7239L13.7929 14.5L14.5 13.7929L10.7239 10ZM6.5 11C5.60998 11 4.73995 10.7361 3.99993 10.2416C3.25991 9.74714 2.68313 9.04434 2.34254 8.22207C2.00195 7.39981 1.91283 6.49501 2.08646 5.62209C2.2601 4.74918 2.68868 3.94735 3.31802 3.31802C3.94735 2.68868 4.74918 2.2601 5.62209 2.08646C6.49501 1.91283 7.39981 2.00195 8.22207 2.34254C9.04434 2.68313 9.74714 3.25991 10.2416 3.99993C10.7361 4.73995 11 5.60998 11 6.5C10.9987 7.69307 10.5241 8.83689 9.68052 9.68052C8.83689 10.5241 7.69307 10.9987 6.5 11Z" fill="currentColor" style="fill-opacity:1"/>
<path d="M5 6H4V5C4.0003 4.73487 4.10576 4.4807 4.29323 4.29323C4.4807 4.10576 4.73487 4.0003 5 4H6V5H5V6Z" fill="currentColor" style="fill-opacity:1"/>
<path d="M9 6H8V5H7V4H8C8.26512 4.0003 8.5193 4.10576 8.70677 4.29323C8.89424 4.4807 8.99969 4.73487 9 5V6Z" fill="currentColor" style="fill-opacity:1"/>
<path d="M6 9H5C4.73487 8.99969 4.4807 8.89424 4.29323 8.70677C4.10576 8.5193 4.0003 8.26512 4 8V7H5V8H6V9Z" fill="currentColor" style="fill-opacity:1"/>
<path d="M8 9H7V8H8V7H9V8C8.99969 8.26512 8.89424 8.5193 8.70677 8.70677C8.5193 8.89424 8.26512 8.99969 8 9Z" fill="currentColor" style="fill-opacity:1"/>
</svg>
